999
"DXF R12 Output" (www.mydxf.blogspot.com)
 0 
SECTION
 2 
HEADER
 9 
$ACADVER
 1 
AC1009
 9 
$EXTMIN
 10 
 0 
 20 
 0 
 9 
$EXTMAX
 10 
 8.5 
 20 
 11 
 0 
ENDSEC
 0 
SECTION
 2 
ENTITIES
0
LINE
8
Layer 1
10
13.524756
20
133.475075
11
13.134797
21
133.396741
0
LINE
8
Layer 1
10
13.134797
20
133.396741
11
12.817037
21
133.182854
0
LINE
8
Layer 1
10
12.817037
20
133.182854
11
12.603151
21
132.865094
0
LINE
8
Layer 1
10
12.603151
20
132.865094
11
12.524817
21
132.475136
0
LINE
8
Layer 1
10
12.524817
20
132.475136
11
12.524817
21
128.575116
0
LINE
8
Layer 1
10
12.524817
20
128.575116
11
12.535147
21
128.474864
0
LINE
8
Layer 1
10
12.535147
20
128.474864
11
8.525061
21
128.474864
0
LINE
8
Layer 1
10
8.525061
20
128.474864
11
8.135104
21
128.396529
0
LINE
8
Layer 1
10
8.135104
20
128.396529
11
7.817343
21
128.182643
0
LINE
8
Layer 1
10
7.817343
20
128.182643
11
7.603457
21
127.864882
0
LINE
8
Layer 1
10
7.603457
20
127.864882
11
7.525122
21
127.474925
0
LINE
8
Layer 1
10
7.525122
20
127.474925
11
7.525122
21
8.474800
0
LINE
8
Layer 1
10
7.525122
20
8.474800
11
7.603457
21
8.084841
0
LINE
8
Layer 1
10
7.603457
20
8.084841
11
7.817343
21
7.767080
0
LINE
8
Layer 1
10
7.817343
20
7.767080
11
8.135104
21
7.553194
0
LINE
8
Layer 1
10
8.135104
20
7.553194
11
8.525061
21
7.474860
0
LINE
8
Layer 1
10
8.525061
20
7.474860
11
25.534875
21
7.474860
0
LINE
8
Layer 1
10
25.534875
20
7.474860
11
25.525075
21
7.375160
0
LINE
8
Layer 1
10
25.525075
20
7.375160
11
25.525075
21
3.475140
0
LINE
8
Layer 1
10
25.525075
20
3.475140
11
25.603409
21
3.085181
0
LINE
8
Layer 1
10
25.603409
20
3.085181
11
25.817295
21
2.767420
0
LINE
8
Layer 1
10
25.817295
20
2.767420
11
26.135055
21
2.553534
0
LINE
8
Layer 1
10
26.135055
20
2.553534
11
26.525014
21
2.475200
0
LINE
8
Layer 1
10
26.525014
20
2.475200
11
64.425026
21
2.475200
0
LINE
8
Layer 1
10
64.425026
20
2.475200
11
64.814985
21
2.553534
0
LINE
8
Layer 1
10
64.814985
20
2.553534
11
65.132745
21
2.767420
0
LINE
8
Layer 1
10
65.132745
20
2.767420
11
65.346631
21
3.085181
0
LINE
8
Layer 1
10
65.346631
20
3.085181
11
65.424965
21
3.475140
0
LINE
8
Layer 1
10
65.424965
20
3.475140
11
65.424965
21
7.375160
0
LINE
8
Layer 1
10
65.424965
20
7.375160
11
65.415165
21
7.474860
0
LINE
8
Layer 1
10
65.415165
20
7.474860
11
223.534680
21
7.474860
0
LINE
8
Layer 1
10
223.534680
20
7.474860
11
223.524680
21
7.375160
0
LINE
8
Layer 1
10
223.524680
20
7.375160
11
223.524680
21
3.475140
0
LINE
8
Layer 1
10
223.524680
20
3.475140
11
223.603014
21
3.085181
0
LINE
8
Layer 1
10
223.603014
20
3.085181
11
223.816900
21
2.767420
0
LINE
8
Layer 1
10
223.816900
20
2.767420
11
224.134661
21
2.553534
0
LINE
8
Layer 1
10
224.134661
20
2.553534
11
224.524620
21
2.475200
0
LINE
8
Layer 1
10
224.524620
20
2.475200
11
262.424630
21
2.475200
0
LINE
8
Layer 1
10
262.424630
20
2.475200
11
262.814589
21
2.553534
0
LINE
8
Layer 1
10
262.814589
20
2.553534
11
263.132350
21
2.767420
0
LINE
8
Layer 1
10
263.132350
20
2.767420
11
263.346236
21
3.085181
0
LINE
8
Layer 1
10
263.346236
20
3.085181
11
263.424570
21
3.475140
0
LINE
8
Layer 1
10
263.424570
20
3.475140
11
263.424570
21
7.375160
0
LINE
8
Layer 1
10
263.424570
20
7.375160
11
263.414570
21
7.474860
0
LINE
8
Layer 1
10
263.414570
20
7.474860
11
309.534750
21
7.474860
0
LINE
8
Layer 1
10
309.534750
20
7.474860
11
309.524450
21
7.375160
0
LINE
8
Layer 1
10
309.524450
20
7.375160
11
309.524450
21
3.475140
0
LINE
8
Layer 1
10
309.524450
20
3.475140
11
309.602864
21
3.085181
0
LINE
8
Layer 1
10
309.602864
20
3.085181
11
309.816925
21
2.767420
0
LINE
8
Layer 1
10
309.816925
20
2.767420
11
310.134861
21
2.553534
0
LINE
8
Layer 1
10
310.134861
20
2.553534
11
310.524900
21
2.475200
0
LINE
8
Layer 1
10
310.524900
20
2.475200
11
348.424910
21
2.475200
0
LINE
8
Layer 1
10
348.424910
20
2.475200
11
348.814869
21
2.553534
0
LINE
8
Layer 1
10
348.814869
20
2.553534
11
349.132630
21
2.767420
0
LINE
8
Layer 1
10
349.132630
20
2.767420
11
349.346516
21
3.085181
0
LINE
8
Layer 1
10
349.346516
20
3.085181
11
349.424850
21
3.475140
0
LINE
8
Layer 1
10
349.424850
20
3.475140
11
349.424850
21
7.375160
0
LINE
8
Layer 1
10
349.424850
20
7.375160
11
349.414550
21
7.474860
0
LINE
8
Layer 1
10
349.414550
20
7.474860
11
354.124850
21
7.474860
0
LINE
8
Layer 1
10
354.124850
20
7.474860
11
354.514809
21
7.553194
0
LINE
8
Layer 1
10
354.514809
20
7.553194
11
354.832570
21
7.767080
0
LINE
8
Layer 1
10
354.832570
20
7.767080
11
355.046456
21
8.084841
0
LINE
8
Layer 1
10
355.046456
20
8.084841
11
355.124790
21
8.474800
0
LINE
8
Layer 1
10
355.124790
20
8.474800
11
355.124790
21
127.474925
0
LINE
8
Layer 1
10
355.124790
20
127.474925
11
355.046456
21
127.864882
0
LINE
8
Layer 1
10
355.046456
20
127.864882
11
354.832570
21
128.182643
0
LINE
8
Layer 1
10
354.832570
20
128.182643
11
354.514809
21
128.396529
0
LINE
8
Layer 1
10
354.514809
20
128.396529
11
354.124850
21
128.474864
0
LINE
8
Layer 1
10
354.124850
20
128.474864
11
349.414550
21
128.474864
0
LINE
8
Layer 1
10
349.414550
20
128.474864
11
349.424850
21
128.575116
0
LINE
8
Layer 1
10
349.424850
20
128.575116
11
349.424850
21
132.475136
0
LINE
8
Layer 1
10
349.424850
20
132.475136
11
349.346516
21
132.865095
0
LINE
8
Layer 1
10
349.346516
20
132.865095
11
349.132630
21
133.182855
0
LINE
8
Layer 1
10
349.132630
20
133.182855
11
348.814869
21
133.396741
0
LINE
8
Layer 1
10
348.814869
20
133.396741
11
348.424910
21
133.475075
0
LINE
8
Layer 1
10
348.424910
20
133.475075
11
310.524900
21
133.475075
0
LINE
8
Layer 1
10
310.524900
20
133.475075
11
310.134861
21
133.396741
0
LINE
8
Layer 1
10
310.134861
20
133.396741
11
309.816925
21
133.182855
0
LINE
8
Layer 1
10
309.816925
20
133.182855
11
309.602864
21
132.865095
0
LINE
8
Layer 1
10
309.602864
20
132.865095
11
309.524450
21
132.475136
0
LINE
8
Layer 1
10
309.524450
20
132.475136
11
309.524450
21
128.575116
0
LINE
8
Layer 1
10
309.524450
20
128.575116
11
309.534750
21
128.474864
0
LINE
8
Layer 1
10
309.534750
20
128.474864
11
250.414850
21
128.474864
0
LINE
8
Layer 1
10
250.414850
20
128.474864
11
250.424850
21
128.575116
0
LINE
8
Layer 1
10
250.424850
20
128.575116
11
250.424850
21
132.475136
0
LINE
8
Layer 1
10
250.424850
20
132.475136
11
250.346510
21
132.865094
0
LINE
8
Layer 1
10
250.346510
20
132.865094
11
250.132616
21
133.182855
0
LINE
8
Layer 1
10
250.132616
20
133.182855
11
249.814857
21
133.396741
0
LINE
8
Layer 1
10
249.814857
20
133.396741
11
249.424920
21
133.475075
0
LINE
8
Layer 1
10
249.424920
20
133.475075
11
211.524900
21
133.475075
0
LINE
8
Layer 1
10
211.524900
20
133.475075
11
211.134941
21
133.396741
0
LINE
8
Layer 1
10
211.134941
20
133.396741
11
210.817180
21
133.182855
0
LINE
8
Layer 1
10
210.817180
20
133.182855
11
210.603294
21
132.865094
0
LINE
8
Layer 1
10
210.603294
20
132.865094
11
210.524960
21
132.475136
0
LINE
8
Layer 1
10
210.524960
20
132.475136
11
210.524960
21
128.575116
0
LINE
8
Layer 1
10
210.524960
20
128.575116
11
210.534960
21
128.474864
0
LINE
8
Layer 1
10
210.534960
20
128.474864
11
151.415060
21
128.474864
0
LINE
8
Layer 1
10
151.415060
20
128.474864
11
151.425060
21
128.575116
0
LINE
8
Layer 1
10
151.425060
20
128.575116
11
151.425060
21
132.475136
0
LINE
8
Layer 1
10
151.425060
20
132.475136
11
151.346726
21
132.865094
0
LINE
8
Layer 1
10
151.346726
20
132.865094
11
151.132840
21
133.182854
0
LINE
8
Layer 1
10
151.132840
20
133.182854
11
150.815079
21
133.396741
0
LINE
8
Layer 1
10
150.815079
20
133.396741
11
150.425120
21
133.475075
0
LINE
8
Layer 1
10
150.425120
20
133.475075
11
112.525100
21
133.475075
0
LINE
8
Layer 1
10
112.525100
20
133.475075
11
112.135168
21
133.396741
0
LINE
8
Layer 1
10
112.135168
20
133.396741
11
111.817408
21
133.182854
0
LINE
8
Layer 1
10
111.817408
20
133.182854
11
111.603511
21
132.865094
0
LINE
8
Layer 1
10
111.603511
20
132.865094
11
111.525170
21
132.475136
0
LINE
8
Layer 1
10
111.525170
20
132.475136
11
111.525170
21
128.575116
0
LINE
8
Layer 1
10
111.525170
20
128.575116
11
111.535170
21
128.474864
0
LINE
8
Layer 1
10
111.535170
20
128.474864
11
52.414889
21
128.474864
0
LINE
8
Layer 1
10
52.414889
20
128.474864
11
52.425219
21
128.575116
0
LINE
8
Layer 1
10
52.425219
20
128.575116
11
52.425219
21
132.475136
0
LINE
8
Layer 1
10
52.425219
20
132.475136
11
52.346804
21
132.865094
0
LINE
8
Layer 1
10
52.346804
20
132.865094
11
52.132741
21
133.182854
0
LINE
8
Layer 1
10
52.132741
20
133.182854
11
51.814803
21
133.396741
0
LINE
8
Layer 1
10
51.814803
20
133.396741
11
51.424763
21
133.475075
0
LINE
8
Layer 1
10
51.424763
20
133.475075
11
13.524756
21
133.475075
0
LINE
8
Layer 2
10
272.487760
20
82.086951
11
272.134495
21
81.940504
0
LINE
8
Layer 2
10
272.134495
20
81.940504
11
271.988050
21
81.587240
0
LINE
8
Layer 2
10
271.988050
20
81.587240
11
271.988050
21
68.587000
0
LINE
8
Layer 2
10
271.988050
20
68.587000
11
272.134311
21
68.233402
0
LINE
8
Layer 2
10
272.134311
20
68.233402
11
272.487760
21
68.086772
0
LINE
8
Layer 2
10
272.487760
20
68.086772
11
274.368780
21
68.086772
0
LINE
8
Layer 2
10
274.368780
20
68.086772
11
274.368780
21
63.036951
0
LINE
8
Layer 2
10
274.368780
20
63.036951
11
266.438000
21
63.036951
0
LINE
8
Layer 2
10
266.438000
20
63.036951
11
265.344010
21
63.036951
0
LINE
8
Layer 2
10
265.344010
20
63.036951
11
263.406140
21
63.036951
0
LINE
8
Layer 2
10
263.406140
20
63.036951
11
263.406140
21
64.537118
0
LINE
8
Layer 2
10
263.406140
20
64.537118
11
263.259515
21
64.890562
0
LINE
8
Layer 2
10
263.259515
20
64.890562
11
262.905920
21
65.036829
0
LINE
8
Layer 2
10
262.905920
20
65.036829
11
256.905770
21
65.036829
0
LINE
8
Layer 2
10
256.905770
20
65.036829
11
256.552500
21
64.890386
0
LINE
8
Layer 2
10
256.552500
20
64.890386
11
256.406050
21
64.537118
0
LINE
8
Layer 2
10
256.406050
20
64.537118
11
256.406050
21
63.036951
0
LINE
8
Layer 2
10
256.406050
20
63.036951
11
253.437760
21
63.036951
0
LINE
8
Layer 2
10
253.437760
20
63.036951
11
253.084495
21
62.890504
0
LINE
8
Layer 2
10
253.084495
20
62.890504
11
252.938050
21
62.537240
0
LINE
8
Layer 2
10
252.938050
20
62.537240
11
252.938050
21
49.537000
0
LINE
8
Layer 2
10
252.938050
20
49.537000
11
253.084311
21
49.183402
0
LINE
8
Layer 2
10
253.084311
20
49.183402
11
253.437760
21
49.036772
0
LINE
8
Layer 2
10
253.437760
20
49.036772
11
265.344010
21
49.036772
0
LINE
8
Layer 2
10
265.344010
20
49.036772
11
266.438000
21
49.036772
0
LINE
8
Layer 2
10
266.438000
20
49.036772
11
278.344250
21
49.036772
0
LINE
8
Layer 2
10
278.344250
20
49.036772
11
278.697699
21
49.183402
0
LINE
8
Layer 2
10
278.697699
20
49.183402
11
278.843960
21
49.537000
0
LINE
8
Layer 2
10
278.843960
20
49.537000
11
278.843960
21
50.124044
0
LINE
8
Layer 2
10
278.843960
20
50.124044
11
280.572020
21
50.124044
0
LINE
8
Layer 2
10
280.572020
20
50.124044
11
280.781830
21
50.037224
0
LINE
8
Layer 2
10
280.781830
20
50.037224
11
286.781980
21
50.037224
0
LINE
8
Layer 2
10
286.781980
20
50.037224
11
286.991780
21
50.124044
0
LINE
8
Layer 2
10
286.991780
20
50.124044
11
289.869130
21
50.124044
0
LINE
8
Layer 2
10
289.869130
20
50.124044
11
290.222395
21
50.270491
0
LINE
8
Layer 2
10
290.222395
20
50.270491
11
290.368840
21
50.623755
0
LINE
8
Layer 2
10
290.368840
20
50.623755
11
290.368840
21
56.623905
0
LINE
8
Layer 2
10
290.368840
20
56.623905
11
290.222579
21
56.977503
0
LINE
8
Layer 2
10
290.222579
20
56.977503
11
289.869130
21
57.124133
0
LINE
8
Layer 2
10
289.869130
20
57.124133
11
287.282210
21
57.124133
0
LINE
8
Layer 2
10
287.282210
20
57.124133
11
287.282210
21
58.561772
0
LINE
8
Layer 2
10
287.282210
20
58.561772
11
287.869250
21
58.561772
0
LINE
8
Layer 2
10
287.869250
20
58.561772
11
288.222699
21
58.708402
0
LINE
8
Layer 2
10
288.222699
20
58.708402
11
288.368960
21
59.062000
0
LINE
8
Layer 2
10
288.368960
20
59.062000
11
288.368960
21
72.062240
0
LINE
8
Layer 2
10
288.368960
20
72.062240
11
288.222515
21
72.415504
0
LINE
8
Layer 2
10
288.222515
20
72.415504
11
287.869250
21
72.561951
0
LINE
8
Layer 2
10
287.869250
20
72.561951
11
285.988230
21
72.561951
0
LINE
8
Layer 2
10
285.988230
20
72.561951
11
285.988230
21
74.000106
0
LINE
8
Layer 2
10
285.988230
20
74.000106
11
289.869130
21
74.000106
0
LINE
8
Layer 2
10
289.869130
20
74.000106
11
290.222395
21
74.146553
0
LINE
8
Layer 2
10
290.222395
20
74.146553
11
290.368840
21
74.499817
0
LINE
8
Layer 2
10
290.368840
20
74.499817
11
290.368840
21
80.499967
0
LINE
8
Layer 2
10
290.368840
20
80.499967
11
290.222579
21
80.853565
0
LINE
8
Layer 2
10
290.222579
20
80.853565
11
289.869130
21
81.000195
0
LINE
8
Layer 2
10
289.869130
20
81.000195
11
285.988230
21
81.000195
0
LINE
8
Layer 2
10
285.988230
20
81.000195
11
285.988230
21
81.587240
0
LINE
8
Layer 2
10
285.988230
20
81.587240
11
285.841600
21
81.940688
0
LINE
8
Layer 2
10
285.841600
20
81.940688
11
285.488000
21
82.086951
0
LINE
8
Layer 2
10
285.488000
20
82.086951
11
272.487760
21
82.086951
0
LINE
8
Layer 2
10
204.549790
20
26.936830
11
204.196527
21
26.790383
0
LINE
8
Layer 2
10
204.196527
20
26.790383
11
204.050080
21
26.437120
0
LINE
8
Layer 2
10
204.050080
20
26.437120
11
204.050080
21
24.936950
0
LINE
8
Layer 2
10
204.050080
20
24.936950
11
203.430990
21
24.936950
0
LINE
8
Layer 2
10
203.430990
20
24.936950
11
203.077397
21
24.790684
0
LINE
8
Layer 2
10
203.077397
20
24.790684
11
202.930770
21
24.437240
0
LINE
8
Layer 2
10
202.930770
20
24.437240
11
202.930770
21
11.437000
0
LINE
8
Layer 2
10
202.930770
20
11.437000
11
203.077213
21
11.083220
0
LINE
8
Layer 2
10
203.077213
20
11.083220
11
203.430990
21
10.936770
0
LINE
8
Layer 2
10
203.430990
20
10.936770
11
216.431230
21
10.936770
0
LINE
8
Layer 2
10
216.431230
20
10.936770
11
216.784677
21
11.083400
0
LINE
8
Layer 2
10
216.784677
20
11.083400
11
216.930940
21
11.437000
0
LINE
8
Layer 2
10
216.930940
20
11.437000
11
216.930940
21
24.437240
0
LINE
8
Layer 2
10
216.930940
20
24.437240
11
216.784493
21
24.790503
0
LINE
8
Layer 2
10
216.784493
20
24.790503
11
216.431230
21
24.936950
0
LINE
8
Layer 2
10
216.431230
20
24.936950
11
211.050170
21
24.936950
0
LINE
8
Layer 2
10
211.050170
20
24.936950
11
211.050170
21
26.437120
0
LINE
8
Layer 2
10
211.050170
20
26.437120
11
210.903540
21
26.790567
0
LINE
8
Layer 2
10
210.903540
20
26.790567
11
210.549940
21
26.936830
0
LINE
8
Layer 2
10
210.549940
20
26.936830
11
204.549790
21
26.936830
0
LINE
8
Layer 2
10
85.494006
20
26.936830
11
85.140408
21
26.790567
0
LINE
8
Layer 2
10
85.140408
20
26.790567
11
84.993778
21
26.437120
0
LINE
8
Layer 2
10
84.993778
20
26.437120
11
84.993778
21
12.436940
0
LINE
8
Layer 2
10
84.993778
20
12.436940
11
85.140408
21
12.083493
0
LINE
8
Layer 2
10
85.140408
20
12.083493
11
85.494006
21
11.937230
0
LINE
8
Layer 2
10
85.494006
20
11.937230
11
90.249788
21
11.937230
0
LINE
8
Layer 2
10
90.249788
20
11.937230
11
91.494157
21
11.937230
0
LINE
8
Layer 2
10
91.494157
20
11.937230
11
96.249939
21
11.937230
0
LINE
8
Layer 2
10
96.249939
20
11.937230
11
96.603537
21
12.083493
0
LINE
8
Layer 2
10
96.603537
20
12.083493
11
96.750167
21
12.436940
0
LINE
8
Layer 2
10
96.750167
20
12.436940
11
96.750167
21
26.437120
0
LINE
8
Layer 2
10
96.750167
20
26.437120
11
96.603537
21
26.790567
0
LINE
8
Layer 2
10
96.603537
20
26.790567
11
96.249939
21
26.936830
0
LINE
8
Layer 2
10
96.249939
20
26.936830
11
91.494157
21
26.936830
0
LINE
8
Layer 2
10
91.494157
20
26.936830
11
90.249788
21
26.936830
0
LINE
8
Layer 2
10
90.249788
20
26.936830
11
85.494006
21
26.936830
0
LINE
8
Layer 2
10
185.494100
20
26.936830
11
185.140507
21
26.790564
0
LINE
8
Layer 2
10
185.140507
20
26.790564
11
184.993880
21
26.437120
0
LINE
8
Layer 2
10
184.993880
20
26.437120
11
184.993880
21
24.936950
0
LINE
8
Layer 2
10
184.993880
20
24.936950
11
181.999740
21
24.936950
0
LINE
8
Layer 2
10
181.999740
20
24.936950
11
181.646477
21
24.790503
0
LINE
8
Layer 2
10
181.646477
20
24.790503
11
181.500030
21
24.437240
0
LINE
8
Layer 2
10
181.500030
20
24.437240
11
181.500030
21
11.437000
0
LINE
8
Layer 2
10
181.500030
20
11.437000
11
181.646293
21
11.083400
0
LINE
8
Layer 2
10
181.646293
20
11.083400
11
181.999740
21
10.936770
0
LINE
8
Layer 2
10
181.999740
20
10.936770
11
194.999980
21
10.936770
0
LINE
8
Layer 2
10
194.999980
20
10.936770
11
195.353763
21
11.083217
0
LINE
8
Layer 2
10
195.353763
20
11.083217
11
195.500210
21
11.437000
0
LINE
8
Layer 2
10
195.500210
20
11.437000
11
195.500210
21
24.437240
0
LINE
8
Layer 2
10
195.500210
20
24.437240
11
195.353580
21
24.790687
0
LINE
8
Layer 2
10
195.353580
20
24.790687
11
194.999980
21
24.936950
0
LINE
8
Layer 2
10
194.999980
20
24.936950
11
191.993970
21
24.936950
0
LINE
8
Layer 2
10
191.993970
20
24.936950
11
191.993970
21
26.437120
0
LINE
8
Layer 2
10
191.993970
20
26.437120
11
191.847520
21
26.790387
0
LINE
8
Layer 2
10
191.847520
20
26.790387
11
191.494250
21
26.936830
0
LINE
8
Layer 2
10
191.494250
20
26.936830
11
185.494100
21
26.936830
0
LINE
8
Layer 2
10
251.055990
20
43.986951
11
250.702397
21
43.840684
0
LINE
8
Layer 2
10
250.702397
20
43.840684
11
250.555770
21
43.487240
0
LINE
8
Layer 2
10
250.555770
20
43.487240
11
250.555770
21
30.487000
0
LINE
8
Layer 2
10
250.555770
20
30.487000
11
250.702213
21
30.133220
0
LINE
8
Layer 2
10
250.702213
20
30.133220
11
251.055990
21
29.986770
0
LINE
8
Layer 2
10
251.055990
20
29.986770
11
251.643040
21
29.986770
0
LINE
8
Layer 2
10
251.643040
20
29.986770
11
251.643040
21
28.487120
0
LINE
8
Layer 2
10
251.643040
20
28.487120
11
251.789303
21
28.133520
0
LINE
8
Layer 2
10
251.789303
20
28.133520
11
252.142750
21
27.986890
0
LINE
8
Layer 2
10
252.142750
20
27.986890
11
258.142900
21
27.986890
0
LINE
8
Layer 2
10
258.142900
20
27.986890
11
258.496683
21
28.133337
0
LINE
8
Layer 2
10
258.496683
20
28.133337
11
258.643130
21
28.487120
0
LINE
8
Layer 2
10
258.643130
20
28.487120
11
258.643130
21
29.986770
0
LINE
8
Layer 2
10
258.643130
20
29.986770
11
260.580990
21
29.986770
0
LINE
8
Layer 2
10
260.580990
20
29.986770
11
264.056230
21
29.986770
0
LINE
8
Layer 2
10
264.056230
20
29.986770
11
272.598860
21
29.986770
0
LINE
8
Layer 2
10
272.598860
20
29.986770
11
273.581230
21
29.986770
0
LINE
8
Layer 2
10
273.581230
20
29.986770
11
275.519100
21
29.986770
0
LINE
8
Layer 2
10
275.519100
20
29.986770
11
275.519100
21
28.487120
0
LINE
8
Layer 2
10
275.519100
20
28.487120
11
275.665363
21
28.133520
0
LINE
8
Layer 2
10
275.665363
20
28.133520
11
276.018810
21
27.986890
0
LINE
8
Layer 2
10
276.018810
20
27.986890
11
282.018960
21
27.986890
0
LINE
8
Layer 2
10
282.018960
20
27.986890
11
282.372743
21
28.133337
0
LINE
8
Layer 2
10
282.372743
20
28.133337
11
282.519190
21
28.487120
0
LINE
8
Layer 2
10
282.519190
20
28.487120
11
282.519190
21
29.986770
0
LINE
8
Layer 2
10
282.519190
20
29.986770
11
290.249980
21
29.986770
0
LINE
8
Layer 2
10
290.249980
20
29.986770
11
290.603763
21
30.133217
0
LINE
8
Layer 2
10
290.603763
20
30.133217
11
290.750210
21
30.487000
0
LINE
8
Layer 2
10
290.750210
20
30.487000
11
290.750210
21
43.487240
0
LINE
8
Layer 2
10
290.750210
20
43.487240
11
290.603580
21
43.840688
0
LINE
8
Layer 2
10
290.603580
20
43.840688
11
290.249980
21
43.986951
0
LINE
8
Layer 2
10
290.249980
20
43.986951
11
278.652760
21
43.986951
0
LINE
8
Layer 2
10
278.652760
20
43.986951
11
277.249740
21
43.986951
0
LINE
8
Layer 2
10
277.249740
20
43.986951
11
273.581230
21
43.986951
0
LINE
8
Layer 2
10
273.581230
20
43.986951
11
272.598860
21
43.986951
0
LINE
8
Layer 2
10
272.598860
20
43.986951
11
264.056230
21
43.986951
0
LINE
8
Layer 2
10
264.056230
20
43.986951
11
260.580990
21
43.986951
0
LINE
8
Layer 2
10
260.580990
20
43.986951
11
251.055990
21
43.986951
0
LINE
8
Layer 2
10
14.017749
20
45.986829
11
13.664485
21
45.840382
0
LINE
8
Layer 2
10
13.664485
20
45.840382
11
13.518038
21
45.487118
0
LINE
8
Layer 2
10
13.518038
20
45.487118
11
13.518038
21
43.986951
0
LINE
8
Layer 2
10
13.518038
20
43.986951
11
12.930994
21
43.986951
0
LINE
8
Layer 2
10
12.930994
20
43.986951
11
12.577395
21
43.840687
0
LINE
8
Layer 2
10
12.577395
20
43.840687
11
12.430766
21
43.487240
0
LINE
8
Layer 2
10
12.430766
20
43.487240
11
12.430766
21
30.487000
0
LINE
8
Layer 2
10
12.430766
20
30.487000
11
12.577212
21
30.133217
0
LINE
8
Layer 2
10
12.577212
20
30.133217
11
12.930994
21
29.986770
0
LINE
8
Layer 2
10
12.930994
20
29.986770
11
22.455994
21
29.986770
0
LINE
8
Layer 2
10
22.455994
20
29.986770
11
25.931234
21
29.986770
0
LINE
8
Layer 2
10
25.931234
20
29.986770
11
34.362760
21
29.986770
0
LINE
8
Layer 2
10
34.362760
20
29.986770
11
35.456234
21
29.986770
0
LINE
8
Layer 2
10
35.456234
20
29.986770
11
47.363000
21
29.986770
0
LINE
8
Layer 2
10
47.363000
20
29.986770
11
47.716782
21
30.133217
0
LINE
8
Layer 2
10
47.716782
20
30.133217
11
47.863228
21
30.487000
0
LINE
8
Layer 2
10
47.863228
20
30.487000
11
47.863228
21
43.487240
0
LINE
8
Layer 2
10
47.863228
20
43.487240
11
47.716599
21
43.840687
0
LINE
8
Layer 2
10
47.716599
20
43.840687
11
47.363000
21
43.986951
0
LINE
8
Layer 2
10
47.363000
20
43.986951
11
44.394189
21
43.986951
0
LINE
8
Layer 2
10
44.394189
20
43.986951
11
44.394189
21
45.487118
0
LINE
8
Layer 2
10
44.394189
20
45.487118
11
44.247560
21
45.840565
0
LINE
8
Layer 2
10
44.247560
20
45.840565
11
43.893962
21
45.986829
0
LINE
8
Layer 2
10
43.893962
20
45.986829
11
37.893811
21
45.986829
0
LINE
8
Layer 2
10
37.893811
20
45.986829
11
37.540547
21
45.840382
0
LINE
8
Layer 2
10
37.540547
20
45.840382
11
37.394100
21
45.487118
0
LINE
8
Layer 2
10
37.394100
20
45.487118
11
37.394100
21
43.986951
0
LINE
8
Layer 2
10
37.394100
20
43.986951
11
35.456234
21
43.986951
0
LINE
8
Layer 2
10
35.456234
20
43.986951
11
34.362760
21
43.986951
0
LINE
8
Layer 2
10
34.362760
20
43.986951
11
25.931234
21
43.986951
0
LINE
8
Layer 2
10
25.931234
20
43.986951
11
22.455994
21
43.986951
0
LINE
8
Layer 2
10
22.455994
20
43.986951
11
20.518127
21
43.986951
0
LINE
8
Layer 2
10
20.518127
20
43.986951
11
20.518127
21
45.487118
0
LINE
8
Layer 2
10
20.518127
20
45.487118
11
20.371498
21
45.840565
0
LINE
8
Layer 2
10
20.371498
20
45.840565
11
20.017900
21
45.986829
0
LINE
8
Layer 2
10
20.017900
20
45.986829
11
14.017749
21
45.986829
0
LINE
8
Layer 2
10
259.287020
20
85.136943
11
258.933420
21
85.283206
0
LINE
8
Layer 2
10
258.933420
20
85.283206
11
258.786790
21
85.636654
0
LINE
8
Layer 2
10
258.786790
20
85.636654
11
258.786790
21
87.136821
0
LINE
8
Layer 2
10
258.786790
20
87.136821
11
258.199740
21
87.136821
0
LINE
8
Layer 2
10
258.199740
20
87.136821
11
257.846476
21
87.283268
0
LINE
8
Layer 2
10
257.846476
20
87.283268
11
257.700030
21
87.636532
0
LINE
8
Layer 2
10
257.700030
20
87.636532
11
257.700030
21
100.636772
0
LINE
8
Layer 2
10
257.700030
20
100.636772
11
257.846293
21
100.990370
0
LINE
8
Layer 2
10
257.846293
20
100.990370
11
258.199740
21
101.137000
0
LINE
8
Layer 2
10
258.199740
20
101.137000
11
267.724740
21
101.137000
0
LINE
8
Layer 2
10
267.724740
20
101.137000
11
271.199980
21
101.137000
0
LINE
8
Layer 2
10
271.199980
20
101.137000
11
277.249740
21
101.137000
0
LINE
8
Layer 2
10
277.249740
20
101.137000
11
280.724980
21
101.137000
0
LINE
8
Layer 2
10
280.724980
20
101.137000
11
290.249980
21
101.137000
0
LINE
8
Layer 2
10
290.249980
20
101.137000
11
290.603763
21
100.990554
0
LINE
8
Layer 2
10
290.603763
20
100.990554
11
290.750210
21
100.636772
0
LINE
8
Layer 2
10
290.750210
20
100.636772
11
290.750210
21
87.636532
0
LINE
8
Layer 2
10
290.750210
20
87.636532
11
290.603580
21
87.283084
0
LINE
8
Layer 2
10
290.603580
20
87.283084
11
290.249980
21
87.136821
0
LINE
8
Layer 2
10
290.249980
20
87.136821
11
289.662940
21
87.136821
0
LINE
8
Layer 2
10
289.662940
20
87.136821
11
289.662940
21
85.636654
0
LINE
8
Layer 2
10
289.662940
20
85.636654
11
289.516494
21
85.283390
0
LINE
8
Layer 2
10
289.516494
20
85.283390
11
289.163230
21
85.136943
0
LINE
8
Layer 2
10
289.163230
20
85.136943
11
283.163080
21
85.136943
0
LINE
8
Layer 2
10
283.163080
20
85.136943
11
282.809480
21
85.283206
0
LINE
8
Layer 2
10
282.809480
20
85.283206
11
282.662850
21
85.636654
0
LINE
8
Layer 2
10
282.662850
20
85.636654
11
282.662850
21
87.136821
0
LINE
8
Layer 2
10
282.662850
20
87.136821
11
280.724980
21
87.136821
0
LINE
8
Layer 2
10
280.724980
20
87.136821
11
277.249740
21
87.136821
0
LINE
8
Layer 2
10
277.249740
20
87.136821
11
271.199980
21
87.136821
0
LINE
8
Layer 2
10
271.199980
20
87.136821
11
267.724740
21
87.136821
0
LINE
8
Layer 2
10
267.724740
20
87.136821
11
265.786880
21
87.136821
0
LINE
8
Layer 2
10
265.786880
20
87.136821
11
265.786880
21
85.636654
0
LINE
8
Layer 2
10
265.786880
20
85.636654
11
265.640434
21
85.283390
0
LINE
8
Layer 2
10
265.640434
20
85.283390
11
265.287170
21
85.136943
0
LINE
8
Layer 2
10
265.287170
20
85.136943
11
259.287020
21
85.136943
0
LINE
8
Layer 2
10
124.850000
20
101.137000
11
137.850000
21
101.137000
0
LINE
8
Layer 2
10
137.850000
20
101.137000
11
138.203553
21
100.990553
0
LINE
8
Layer 2
10
138.203553
20
100.990553
11
138.350000
21
100.637000
0
LINE
8
Layer 2
10
138.350000
20
100.637000
11
138.350000
21
87.637000
0
LINE
8
Layer 2
10
138.350000
20
87.637000
11
138.203553
21
87.283447
0
LINE
8
Layer 2
10
138.203553
20
87.283447
11
137.850000
21
87.137000
0
LINE
8
Layer 2
10
137.850000
20
87.137000
11
124.850000
21
87.137000
0
LINE
8
Layer 2
10
124.850000
20
87.137000
11
124.496447
21
87.283447
0
LINE
8
Layer 2
10
124.496447
20
87.283447
11
124.350000
21
87.637000
0
LINE
8
Layer 2
10
124.350000
20
87.637000
11
124.350000
21
100.637000
0
LINE
8
Layer 2
10
124.350000
20
100.637000
11
124.496447
21
100.990553
0
LINE
8
Layer 2
10
124.496447
20
100.990553
11
124.850000
21
101.137000
0
LINE
8
Layer 2
10
124.850000
20
101.137000
11
124.850000
21
101.137000
0
LINE
8
Layer 2
10
60.555994
20
24.936950
11
60.202396
21
24.790687
0
LINE
8
Layer 2
10
60.202396
20
24.790687
11
60.055766
21
24.437240
0
LINE
8
Layer 2
10
60.055766
20
24.437240
11
60.055766
21
11.437000
0
LINE
8
Layer 2
10
60.055766
20
11.437000
11
60.202212
21
11.083217
0
LINE
8
Layer 2
10
60.202212
20
11.083217
11
60.555994
21
10.936770
0
LINE
8
Layer 2
10
60.555994
20
10.936770
11
62.937760
21
10.936770
0
LINE
8
Layer 2
10
62.937760
20
10.936770
11
73.556234
21
10.936770
0
LINE
8
Layer 2
10
73.556234
20
10.936770
11
75.938000
21
10.936770
0
LINE
8
Layer 2
10
75.938000
20
10.936770
11
76.291782
21
11.083217
0
LINE
8
Layer 2
10
76.291782
20
11.083217
11
76.438228
21
11.437000
0
LINE
8
Layer 2
10
76.438228
20
11.437000
11
76.438228
21
24.437240
0
LINE
8
Layer 2
10
76.438228
20
24.437240
11
76.291598
21
24.790687
0
LINE
8
Layer 2
10
76.291598
20
24.790687
11
75.938000
21
24.936950
0
LINE
8
Layer 2
10
75.938000
20
24.936950
11
73.556234
21
24.936950
0
LINE
8
Layer 2
10
73.556234
20
24.936950
11
62.937760
21
24.936950
0
LINE
8
Layer 2
10
62.937760
20
24.936950
11
60.555994
21
24.936950
0
LINE
8
Layer 2
10
10.550000
20
101.137000
11
23.550000
21
101.137000
0
LINE
8
Layer 2
10
23.550000
20
101.137000
11
23.903553
21
100.990553
0
LINE
8
Layer 2
10
23.903553
20
100.990553
11
24.050000
21
100.637000
0
LINE
8
Layer 2
10
24.050000
20
100.637000
11
24.050000
21
87.637000
0
LINE
8
Layer 2
10
24.050000
20
87.637000
11
23.903553
21
87.283447
0
LINE
8
Layer 2
10
23.903553
20
87.283447
11
23.550000
21
87.137000
0
LINE
8
Layer 2
10
23.550000
20
87.137000
11
10.550000
21
87.137000
0
LINE
8
Layer 2
10
10.550000
20
87.137000
11
10.196447
21
87.283447
0
LINE
8
Layer 2
10
10.196447
20
87.283447
11
10.050000
21
87.637000
0
LINE
8
Layer 2
10
10.050000
20
87.637000
11
10.050000
21
100.637000
0
LINE
8
Layer 2
10
10.050000
20
100.637000
11
10.196447
21
100.990553
0
LINE
8
Layer 2
10
10.196447
20
100.990553
11
10.550000
21
101.137000
0
LINE
8
Layer 2
10
10.550000
20
101.137000
11
10.550000
21
101.137000
0
LINE
8
Layer 2
10
339.163000
20
124.950000
11
352.163000
21
124.950000
0
LINE
8
Layer 2
10
352.163000
20
124.950000
11
352.516553
21
124.803553
0
LINE
8
Layer 2
10
352.516553
20
124.803553
11
352.663000
21
124.450000
0
LINE
8
Layer 2
10
352.663000
20
124.450000
11
352.663000
21
111.450000
0
LINE
8
Layer 2
10
352.663000
20
111.450000
11
352.516553
21
111.096447
0
LINE
8
Layer 2
10
352.516553
20
111.096447
11
352.163000
21
110.950000
0
LINE
8
Layer 2
10
352.163000
20
110.950000
11
339.163000
21
110.950000
0
LINE
8
Layer 2
10
339.163000
20
110.950000
11
338.809447
21
111.096447
0
LINE
8
Layer 2
10
338.809447
20
111.096447
11
338.663000
21
111.450000
0
LINE
8
Layer 2
10
338.663000
20
111.450000
11
338.663000
21
124.450000
0
LINE
8
Layer 2
10
338.663000
20
124.450000
11
338.809447
21
124.803553
0
LINE
8
Layer 2
10
338.809447
20
124.803553
11
339.163000
21
124.950000
0
LINE
8
Layer 2
10
339.163000
20
124.950000
11
339.163000
21
124.950000
0
LINE
8
Layer 2
10
62.938000
20
63.037000
11
75.938000
21
63.037000
0
LINE
8
Layer 2
10
75.938000
20
63.037000
11
76.291553
21
62.890553
0
LINE
8
Layer 2
10
76.291553
20
62.890553
11
76.438000
21
62.537000
0
LINE
8
Layer 2
10
76.438000
20
62.537000
11
76.438000
21
49.537000
0
LINE
8
Layer 2
10
76.438000
20
49.537000
11
76.291553
21
49.183447
0
LINE
8
Layer 2
10
76.291553
20
49.183447
11
75.938000
21
49.037000
0
LINE
8
Layer 2
10
75.938000
20
49.037000
11
62.938000
21
49.037000
0
LINE
8
Layer 2
10
62.938000
20
49.037000
11
62.584447
21
49.183447
0
LINE
8
Layer 2
10
62.584447
20
49.183447
11
62.438000
21
49.537000
0
LINE
8
Layer 2
10
62.438000
20
49.537000
11
62.438000
21
62.537000
0
LINE
8
Layer 2
10
62.438000
20
62.537000
11
62.584447
21
62.890553
0
LINE
8
Layer 2
10
62.584447
20
62.890553
11
62.938000
21
63.037000
0
LINE
8
Layer 2
10
62.938000
20
63.037000
11
62.938000
21
63.037000
0
LINE
8
Layer 2
10
320.113000
20
124.950000
11
333.113000
21
124.950000
0
LINE
8
Layer 2
10
333.113000
20
124.950000
11
333.466553
21
124.803553
0
LINE
8
Layer 2
10
333.466553
20
124.803553
11
333.613000
21
124.450000
0
LINE
8
Layer 2
10
333.613000
20
124.450000
11
333.613000
21
111.450000
0
LINE
8
Layer 2
10
333.613000
20
111.450000
11
333.466553
21
111.096447
0
LINE
8
Layer 2
10
333.466553
20
111.096447
11
333.113000
21
110.950000
0
LINE
8
Layer 2
10
333.113000
20
110.950000
11
320.113000
21
110.950000
0
LINE
8
Layer 2
10
320.113000
20
110.950000
11
319.759447
21
111.096447
0
LINE
8
Layer 2
10
319.759447
20
111.096447
11
319.613000
21
111.450000
0
LINE
8
Layer 2
10
319.613000
20
111.450000
11
319.613000
21
124.450000
0
LINE
8
Layer 2
10
319.613000
20
124.450000
11
319.759447
21
124.803553
0
LINE
8
Layer 2
10
319.759447
20
124.803553
11
320.113000
21
124.950000
0
LINE
8
Layer 2
10
320.113000
20
124.950000
11
320.113000
21
124.950000
0
LINE
8
Layer 2
10
277.250000
20
124.950000
11
290.250000
21
124.950000
0
LINE
8
Layer 2
10
290.250000
20
124.950000
11
290.603553
21
124.803553
0
LINE
8
Layer 2
10
290.603553
20
124.803553
11
290.750000
21
124.450000
0
LINE
8
Layer 2
10
290.750000
20
124.450000
11
290.750000
21
111.450000
0
LINE
8
Layer 2
10
290.750000
20
111.450000
11
290.603553
21
111.096447
0
LINE
8
Layer 2
10
290.603553
20
111.096447
11
290.250000
21
110.950000
0
LINE
8
Layer 2
10
290.250000
20
110.950000
11
277.250000
21
110.950000
0
LINE
8
Layer 2
10
277.250000
20
110.950000
11
276.896447
21
111.096447
0
LINE
8
Layer 2
10
276.896447
20
111.096447
11
276.750000
21
111.450000
0
LINE
8
Layer 2
10
276.750000
20
111.450000
11
276.750000
21
124.450000
0
LINE
8
Layer 2
10
276.750000
20
124.450000
11
276.896447
21
124.803553
0
LINE
8
Layer 2
10
276.896447
20
124.803553
11
277.250000
21
124.950000
0
LINE
8
Layer 2
10
277.250000
20
124.950000
11
277.250000
21
124.950000
0
LINE
8
Layer 2
10
258.200000
20
124.950000
11
271.200000
21
124.950000
0
LINE
8
Layer 2
10
271.200000
20
124.950000
11
271.553553
21
124.803553
0
LINE
8
Layer 2
10
271.553553
20
124.803553
11
271.700000
21
124.450000
0
LINE
8
Layer 2
10
271.700000
20
124.450000
11
271.700000
21
111.450000
0
LINE
8
Layer 2
10
271.700000
20
111.450000
11
271.553553
21
111.096447
0
LINE
8
Layer 2
10
271.553553
20
111.096447
11
271.200000
21
110.950000
0
LINE
8
Layer 2
10
271.200000
20
110.950000
11
258.200000
21
110.950000
0
LINE
8
Layer 2
10
258.200000
20
110.950000
11
257.846447
21
111.096447
0
LINE
8
Layer 2
10
257.846447
20
111.096447
11
257.700000
21
111.450000
0
LINE
8
Layer 2
10
257.700000
20
111.450000
11
257.700000
21
124.450000
0
LINE
8
Layer 2
10
257.700000
20
124.450000
11
257.846447
21
124.803553
0
LINE
8
Layer 2
10
257.846447
20
124.803553
11
258.200000
21
124.950000
0
LINE
8
Layer 2
10
258.200000
20
124.950000
11
258.200000
21
124.950000
0
LINE
8
Layer 2
10
301.063000
20
124.950000
11
314.063000
21
124.950000
0
LINE
8
Layer 2
10
314.063000
20
124.950000
11
314.416553
21
124.803553
0
LINE
8
Layer 2
10
314.416553
20
124.803553
11
314.563000
21
124.450000
0
LINE
8
Layer 2
10
314.563000
20
124.450000
11
314.563000
21
111.450000
0
LINE
8
Layer 2
10
314.563000
20
111.450000
11
314.416553
21
111.096447
0
LINE
8
Layer 2
10
314.416553
20
111.096447
11
314.063000
21
110.950000
0
LINE
8
Layer 2
10
314.063000
20
110.950000
11
301.063000
21
110.950000
0
LINE
8
Layer 2
10
301.063000
20
110.950000
11
300.709447
21
111.096447
0
LINE
8
Layer 2
10
300.709447
20
111.096447
11
300.563000
21
111.450000
0
LINE
8
Layer 2
10
300.563000
20
111.450000
11
300.563000
21
124.450000
0
LINE
8
Layer 2
10
300.563000
20
124.450000
11
300.709447
21
124.803553
0
LINE
8
Layer 2
10
300.709447
20
124.803553
11
301.063000
21
124.950000
0
LINE
8
Layer 2
10
301.063000
20
124.950000
11
301.063000
21
124.950000
0
LINE
8
Layer 2
10
239.150000
20
124.950000
11
252.150000
21
124.950000
0
LINE
8
Layer 2
10
252.150000
20
124.950000
11
252.503553
21
124.803553
0
LINE
8
Layer 2
10
252.503553
20
124.803553
11
252.650000
21
124.450000
0
LINE
8
Layer 2
10
252.650000
20
124.450000
11
252.650000
21
111.450000
0
LINE
8
Layer 2
10
252.650000
20
111.450000
11
252.503553
21
111.096447
0
LINE
8
Layer 2
10
252.503553
20
111.096447
11
252.150000
21
110.950000
0
LINE
8
Layer 2
10
252.150000
20
110.950000
11
239.150000
21
110.950000
0
LINE
8
Layer 2
10
239.150000
20
110.950000
11
238.796447
21
111.096447
0
LINE
8
Layer 2
10
238.796447
20
111.096447
11
238.650000
21
111.450000
0
LINE
8
Layer 2
10
238.650000
20
111.450000
11
238.650000
21
124.450000
0
LINE
8
Layer 2
10
238.650000
20
124.450000
11
238.796447
21
124.803553
0
LINE
8
Layer 2
10
238.796447
20
124.803553
11
239.150000
21
124.950000
0
LINE
8
Layer 2
10
239.150000
20
124.950000
11
239.150000
21
124.950000
0
LINE
8
Layer 2
10
220.100000
20
124.950000
11
233.100000
21
124.950000
0
LINE
8
Layer 2
10
233.100000
20
124.950000
11
233.453553
21
124.803553
0
LINE
8
Layer 2
10
233.453553
20
124.803553
11
233.600000
21
124.450000
0
LINE
8
Layer 2
10
233.600000
20
124.450000
11
233.600000
21
111.450000
0
LINE
8
Layer 2
10
233.600000
20
111.450000
11
233.453553
21
111.096447
0
LINE
8
Layer 2
10
233.453553
20
111.096447
11
233.100000
21
110.950000
0
LINE
8
Layer 2
10
233.100000
20
110.950000
11
220.100000
21
110.950000
0
LINE
8
Layer 2
10
220.100000
20
110.950000
11
219.746447
21
111.096447
0
LINE
8
Layer 2
10
219.746447
20
111.096447
11
219.600000
21
111.450000
0
LINE
8
Layer 2
10
219.600000
20
111.450000
11
219.600000
21
124.450000
0
LINE
8
Layer 2
10
219.600000
20
124.450000
11
219.746447
21
124.803553
0
LINE
8
Layer 2
10
219.746447
20
124.803553
11
220.100000
21
124.950000
0
LINE
8
Layer 2
10
220.100000
20
124.950000
11
220.100000
21
124.950000
0
LINE
8
Layer 2
10
191.525000
20
124.950000
11
204.525000
21
124.950000
0
LINE
8
Layer 2
10
204.525000
20
124.950000
11
204.878553
21
124.803553
0
LINE
8
Layer 2
10
204.878553
20
124.803553
11
205.025000
21
124.450000
0
LINE
8
Layer 2
10
205.025000
20
124.450000
11
205.025000
21
111.450000
0
LINE
8
Layer 2
10
205.025000
20
111.450000
11
204.878553
21
111.096447
0
LINE
8
Layer 2
10
204.878553
20
111.096447
11
204.525000
21
110.950000
0
LINE
8
Layer 2
10
204.525000
20
110.950000
11
191.525000
21
110.950000
0
LINE
8
Layer 2
10
191.525000
20
110.950000
11
191.171447
21
111.096447
0
LINE
8
Layer 2
10
191.171447
20
111.096447
11
191.025000
21
111.450000
0
LINE
8
Layer 2
10
191.025000
20
111.450000
11
191.025000
21
124.450000
0
LINE
8
Layer 2
10
191.025000
20
124.450000
11
191.171447
21
124.803553
0
LINE
8
Layer 2
10
191.171447
20
124.803553
11
191.525000
21
124.950000
0
LINE
8
Layer 2
10
191.525000
20
124.950000
11
191.525000
21
124.950000
0
LINE
8
Layer 2
10
172.475000
20
124.950000
11
185.475000
21
124.950000
0
LINE
8
Layer 2
10
185.475000
20
124.950000
11
185.828553
21
124.803553
0
LINE
8
Layer 2
10
185.828553
20
124.803553
11
185.975000
21
124.450000
0
LINE
8
Layer 2
10
185.975000
20
124.450000
11
185.975000
21
111.450000
0
LINE
8
Layer 2
10
185.975000
20
111.450000
11
185.828553
21
111.096447
0
LINE
8
Layer 2
10
185.828553
20
111.096447
11
185.475000
21
110.950000
0
LINE
8
Layer 2
10
185.475000
20
110.950000
11
172.475000
21
110.950000
0
LINE
8
Layer 2
10
172.475000
20
110.950000
11
172.121447
21
111.096447
0
LINE
8
Layer 2
10
172.121447
20
111.096447
11
171.975000
21
111.450000
0
LINE
8
Layer 2
10
171.975000
20
111.450000
11
171.975000
21
124.450000
0
LINE
8
Layer 2
10
171.975000
20
124.450000
11
172.121447
21
124.803553
0
LINE
8
Layer 2
10
172.121447
20
124.803553
11
172.475000
21
124.950000
0
LINE
8
Layer 2
10
172.475000
20
124.950000
11
172.475000
21
124.950000
0
LINE
8
Layer 2
10
153.425000
20
124.950000
11
166.425000
21
124.950000
0
LINE
8
Layer 2
10
166.425000
20
124.950000
11
166.778553
21
124.803553
0
LINE
8
Layer 2
10
166.778553
20
124.803553
11
166.925000
21
124.450000
0
LINE
8
Layer 2
10
166.925000
20
124.450000
11
166.925000
21
111.450000
0
LINE
8
Layer 2
10
166.925000
20
111.450000
11
166.778553
21
111.096447
0
LINE
8
Layer 2
10
166.778553
20
111.096447
11
166.425000
21
110.950000
0
LINE
8
Layer 2
10
166.425000
20
110.950000
11
153.425000
21
110.950000
0
LINE
8
Layer 2
10
153.425000
20
110.950000
11
153.071447
21
111.096447
0
LINE
8
Layer 2
10
153.071447
20
111.096447
11
152.925000
21
111.450000
0
LINE
8
Layer 2
10
152.925000
20
111.450000
11
152.925000
21
124.450000
0
LINE
8
Layer 2
10
152.925000
20
124.450000
11
153.071447
21
124.803553
0
LINE
8
Layer 2
10
153.071447
20
124.803553
11
153.425000
21
124.950000
0
LINE
8
Layer 2
10
153.425000
20
124.950000
11
153.425000
21
124.950000
0
LINE
8
Layer 2
10
134.375000
20
124.950000
11
147.375000
21
124.950000
0
LINE
8
Layer 2
10
147.375000
20
124.950000
11
147.728553
21
124.803553
0
LINE
8
Layer 2
10
147.728553
20
124.803553
11
147.875000
21
124.450000
0
LINE
8
Layer 2
10
147.875000
20
124.450000
11
147.875000
21
111.450000
0
LINE
8
Layer 2
10
147.875000
20
111.450000
11
147.728553
21
111.096447
0
LINE
8
Layer 2
10
147.728553
20
111.096447
11
147.375000
21
110.950000
0
LINE
8
Layer 2
10
147.375000
20
110.950000
11
134.375000
21
110.950000
0
LINE
8
Layer 2
10
134.375000
20
110.950000
11
134.021447
21
111.096447
0
LINE
8
Layer 2
10
134.021447
20
111.096447
11
133.875000
21
111.450000
0
LINE
8
Layer 2
10
133.875000
20
111.450000
11
133.875000
21
124.450000
0
LINE
8
Layer 2
10
133.875000
20
124.450000
11
134.021447
21
124.803553
0
LINE
8
Layer 2
10
134.021447
20
124.803553
11
134.375000
21
124.950000
0
LINE
8
Layer 2
10
134.375000
20
124.950000
11
134.375000
21
124.950000
0
LINE
8
Layer 2
10
105.800000
20
124.950000
11
118.800000
21
124.950000
0
LINE
8
Layer 2
10
118.800000
20
124.950000
11
119.153553
21
124.803553
0
LINE
8
Layer 2
10
119.153553
20
124.803553
11
119.300000
21
124.450000
0
LINE
8
Layer 2
10
119.300000
20
124.450000
11
119.300000
21
111.450000
0
LINE
8
Layer 2
10
119.300000
20
111.450000
11
119.153553
21
111.096447
0
LINE
8
Layer 2
10
119.153553
20
111.096447
11
118.800000
21
110.950000
0
LINE
8
Layer 2
10
118.800000
20
110.950000
11
105.800000
21
110.950000
0
LINE
8
Layer 2
10
105.800000
20
110.950000
11
105.446447
21
111.096447
0
LINE
8
Layer 2
10
105.446447
20
111.096447
11
105.300000
21
111.450000
0
LINE
8
Layer 2
10
105.300000
20
111.450000
11
105.300000
21
124.450000
0
LINE
8
Layer 2
10
105.300000
20
124.450000
11
105.446447
21
124.803553
0
LINE
8
Layer 2
10
105.446447
20
124.803553
11
105.800000
21
124.950000
0
LINE
8
Layer 2
10
105.800000
20
124.950000
11
105.800000
21
124.950000
0
LINE
8
Layer 2
10
86.750000
20
124.950000
11
99.750000
21
124.950000
0
LINE
8
Layer 2
10
99.750000
20
124.950000
11
100.103553
21
124.803553
0
LINE
8
Layer 2
10
100.103553
20
124.803553
11
100.250000
21
124.450000
0
LINE
8
Layer 2
10
100.250000
20
124.450000
11
100.250000
21
111.450000
0
LINE
8
Layer 2
10
100.250000
20
111.450000
11
100.103553
21
111.096447
0
LINE
8
Layer 2
10
100.103553
20
111.096447
11
99.750000
21
110.950000
0
LINE
8
Layer 2
10
99.750000
20
110.950000
11
86.750000
21
110.950000
0
LINE
8
Layer 2
10
86.750000
20
110.950000
11
86.396447
21
111.096447
0
LINE
8
Layer 2
10
86.396447
20
111.096447
11
86.250000
21
111.450000
0
LINE
8
Layer 2
10
86.250000
20
111.450000
11
86.250000
21
124.450000
0
LINE
8
Layer 2
10
86.250000
20
124.450000
11
86.396447
21
124.803553
0
LINE
8
Layer 2
10
86.396447
20
124.803553
11
86.750000
21
124.950000
0
LINE
8
Layer 2
10
86.750000
20
124.950000
11
86.750000
21
124.950000
0
LINE
8
Layer 2
10
67.700000
20
124.950000
11
80.700000
21
124.950000
0
LINE
8
Layer 2
10
80.700000
20
124.950000
11
81.053553
21
124.803553
0
LINE
8
Layer 2
10
81.053553
20
124.803553
11
81.200000
21
124.450000
0
LINE
8
Layer 2
10
81.200000
20
124.450000
11
81.200000
21
111.450000
0
LINE
8
Layer 2
10
81.200000
20
111.450000
11
81.053553
21
111.096447
0
LINE
8
Layer 2
10
81.053553
20
111.096447
11
80.700000
21
110.950000
0
LINE
8
Layer 2
10
80.700000
20
110.950000
11
67.700000
21
110.950000
0
LINE
8
Layer 2
10
67.700000
20
110.950000
11
67.346447
21
111.096447
0
LINE
8
Layer 2
10
67.346447
20
111.096447
11
67.200000
21
111.450000
0
LINE
8
Layer 2
10
67.200000
20
111.450000
11
67.200000
21
124.450000
0
LINE
8
Layer 2
10
67.200000
20
124.450000
11
67.346447
21
124.803553
0
LINE
8
Layer 2
10
67.346447
20
124.803553
11
67.700000
21
124.950000
0
LINE
8
Layer 2
10
67.700000
20
124.950000
11
67.700000
21
124.950000
0
LINE
8
Layer 2
10
48.650000
20
124.950000
11
61.650000
21
124.950000
0
LINE
8
Layer 2
10
61.650000
20
124.950000
11
62.003553
21
124.803553
0
LINE
8
Layer 2
10
62.003553
20
124.803553
11
62.150000
21
124.450000
0
LINE
8
Layer 2
10
62.150000
20
124.450000
11
62.150000
21
111.450000
0
LINE
8
Layer 2
10
62.150000
20
111.450000
11
62.003553
21
111.096447
0
LINE
8
Layer 2
10
62.003553
20
111.096447
11
61.650000
21
110.950000
0
LINE
8
Layer 2
10
61.650000
20
110.950000
11
48.650000
21
110.950000
0
LINE
8
Layer 2
10
48.650000
20
110.950000
11
48.296447
21
111.096447
0
LINE
8
Layer 2
10
48.296447
20
111.096447
11
48.150000
21
111.450000
0
LINE
8
Layer 2
10
48.150000
20
111.450000
11
48.150000
21
124.450000
0
LINE
8
Layer 2
10
48.150000
20
124.450000
11
48.296447
21
124.803553
0
LINE
8
Layer 2
10
48.296447
20
124.803553
11
48.650000
21
124.950000
0
LINE
8
Layer 2
10
48.650000
20
124.950000
11
48.650000
21
124.950000
0
LINE
8
Layer 2
10
10.550000
20
124.950000
11
23.550000
21
124.950000
0
LINE
8
Layer 2
10
23.550000
20
124.950000
11
23.903553
21
124.803553
0
LINE
8
Layer 2
10
23.903553
20
124.803553
11
24.050000
21
124.450000
0
LINE
8
Layer 2
10
24.050000
20
124.450000
11
24.050000
21
111.450000
0
LINE
8
Layer 2
10
24.050000
20
111.450000
11
23.903553
21
111.096447
0
LINE
8
Layer 2
10
23.903553
20
111.096447
11
23.550000
21
110.950000
0
LINE
8
Layer 2
10
23.550000
20
110.950000
11
10.550000
21
110.950000
0
LINE
8
Layer 2
10
10.550000
20
110.950000
11
10.196447
21
111.096447
0
LINE
8
Layer 2
10
10.196447
20
111.096447
11
10.050000
21
111.450000
0
LINE
8
Layer 2
10
10.050000
20
111.450000
11
10.050000
21
124.450000
0
LINE
8
Layer 2
10
10.050000
20
124.450000
11
10.196447
21
124.803553
0
LINE
8
Layer 2
10
10.196447
20
124.803553
11
10.550000
21
124.950000
0
LINE
8
Layer 2
10
10.550000
20
124.950000
11
10.550000
21
124.950000
0
LINE
8
Layer 2
10
12.930994
20
63.036951
11
12.577395
21
62.890687
0
LINE
8
Layer 2
10
12.577395
20
62.890687
11
12.430766
21
62.537240
0
LINE
8
Layer 2
10
12.430766
20
62.537240
11
12.430766
21
49.537000
0
LINE
8
Layer 2
10
12.430766
20
49.537000
11
12.577213
21
49.183219
0
LINE
8
Layer 2
10
12.577213
20
49.183219
11
12.930994
21
49.036772
0
LINE
8
Layer 2
10
12.930994
20
49.036772
11
17.694010
21
49.036772
0
LINE
8
Layer 2
10
17.694010
20
49.036772
11
25.931234
21
49.036772
0
LINE
8
Layer 2
10
25.931234
20
49.036772
11
30.694250
21
49.036772
0
LINE
8
Layer 2
10
30.694250
20
49.036772
11
31.047698
21
49.183401
0
LINE
8
Layer 2
10
31.047698
20
49.183401
11
31.193962
21
49.537000
0
LINE
8
Layer 2
10
31.193962
20
49.537000
11
31.193962
21
62.537240
0
LINE
8
Layer 2
10
31.193962
20
62.537240
11
31.047515
21
62.890505
0
LINE
8
Layer 2
10
31.047515
20
62.890505
11
30.694250
21
63.036951
0
LINE
8
Layer 2
10
30.694250
20
63.036951
11
25.931234
21
63.036951
0
LINE
8
Layer 2
10
25.931234
20
63.036951
11
17.694010
21
63.036951
0
LINE
8
Layer 2
10
17.694010
20
63.036951
11
12.930994
21
63.036951
0
LINE
8
Layer 2
10
272.487760
20
24.936950
11
272.134497
21
24.790503
0
LINE
8
Layer 2
10
272.134497
20
24.790503
11
271.988050
21
24.437240
0
LINE
8
Layer 2
10
271.988050
20
24.437240
11
271.988050
21
11.437000
0
LINE
8
Layer 2
10
271.988050
20
11.437000
11
272.134313
21
11.083400
0
LINE
8
Layer 2
10
272.134313
20
11.083400
11
272.487760
21
10.936770
0
LINE
8
Layer 2
10
272.487760
20
10.936770
11
274.869010
21
10.936770
0
LINE
8
Layer 2
10
274.869010
20
10.936770
11
285.488000
21
10.936770
0
LINE
8
Layer 2
10
285.488000
20
10.936770
11
287.869250
21
10.936770
0
LINE
8
Layer 2
10
287.869250
20
10.936770
11
288.222697
21
11.083400
0
LINE
8
Layer 2
10
288.222697
20
11.083400
11
288.368960
21
11.437000
0
LINE
8
Layer 2
10
288.368960
20
11.437000
11
288.368960
21
24.437240
0
LINE
8
Layer 2
10
288.368960
20
24.437240
11
288.222513
21
24.790503
0
LINE
8
Layer 2
10
288.222513
20
24.790503
11
287.869250
21
24.936950
0
LINE
8
Layer 2
10
287.869250
20
24.936950
11
285.488000
21
24.936950
0
LINE
8
Layer 2
10
285.488000
20
24.936950
11
274.869010
21
24.936950
0
LINE
8
Layer 2
10
274.869010
20
24.936950
11
272.487760
21
24.936950
0
LINE
8
Layer 2
10
248.674740
20
24.936950
11
248.321477
21
24.790503
0
LINE
8
Layer 2
10
248.321477
20
24.790503
11
248.175030
21
24.437240
0
LINE
8
Layer 2
10
248.175030
20
24.437240
11
248.175030
21
11.437000
0
LINE
8
Layer 2
10
248.175030
20
11.437000
11
248.321293
21
11.083400
0
LINE
8
Layer 2
10
248.321293
20
11.083400
11
248.674740
21
10.936770
0
LINE
8
Layer 2
10
248.674740
20
10.936770
11
251.055990
21
10.936770
0
LINE
8
Layer 2
10
251.055990
20
10.936770
11
261.674980
21
10.936770
0
LINE
8
Layer 2
10
261.674980
20
10.936770
11
264.056230
21
10.936770
0
LINE
8
Layer 2
10
264.056230
20
10.936770
11
264.409677
21
11.083400
0
LINE
8
Layer 2
10
264.409677
20
11.083400
11
264.555940
21
11.437000
0
LINE
8
Layer 2
10
264.555940
20
11.437000
11
264.555940
21
24.437240
0
LINE
8
Layer 2
10
264.555940
20
24.437240
11
264.409493
21
24.790503
0
LINE
8
Layer 2
10
264.409493
20
24.790503
11
264.056230
21
24.936950
0
LINE
8
Layer 2
10
264.056230
20
24.936950
11
261.674980
21
24.936950
0
LINE
8
Layer 2
10
261.674980
20
24.936950
11
251.055990
21
24.936950
0
LINE
8
Layer 2
10
251.055990
20
24.936950
11
248.674740
21
24.936950
0
LINE
8
Layer 2
10
224.862760
20
24.936950
11
224.509497
21
24.790503
0
LINE
8
Layer 2
10
224.509497
20
24.790503
11
224.363050
21
24.437240
0
LINE
8
Layer 2
10
224.363050
20
24.437240
11
224.363050
21
11.437000
0
LINE
8
Layer 2
10
224.363050
20
11.437000
11
224.509313
21
11.083400
0
LINE
8
Layer 2
10
224.509313
20
11.083400
11
224.862760
21
10.936770
0
LINE
8
Layer 2
10
224.862760
20
10.936770
11
227.244010
21
10.936770
0
LINE
8
Layer 2
10
227.244010
20
10.936770
11
237.863000
21
10.936770
0
LINE
8
Layer 2
10
237.863000
20
10.936770
11
240.244250
21
10.936770
0
LINE
8
Layer 2
10
240.244250
20
10.936770
11
240.597697
21
11.083400
0
LINE
8
Layer 2
10
240.597697
20
11.083400
11
240.743960
21
11.437000
0
LINE
8
Layer 2
10
240.743960
20
11.437000
11
240.743960
21
24.437240
0
LINE
8
Layer 2
10
240.743960
20
24.437240
11
240.597513
21
24.790503
0
LINE
8
Layer 2
10
240.597513
20
24.790503
11
240.244250
21
24.936950
0
LINE
8
Layer 2
10
240.244250
20
24.936950
11
237.863000
21
24.936950
0
LINE
8
Layer 2
10
237.863000
20
24.936950
11
227.244010
21
24.936950
0
LINE
8
Layer 2
10
227.244010
20
24.936950
11
224.862760
21
24.936950
0
LINE
8
Layer 2
10
128.349790
20
26.936830
11
127.996527
21
26.790383
0
LINE
8
Layer 2
10
127.996527
20
26.790383
11
127.850080
21
26.437120
0
LINE
8
Layer 2
10
127.850080
20
26.437120
11
127.850080
21
12.436940
0
LINE
8
Layer 2
10
127.850080
20
12.436940
11
127.996527
21
12.083677
0
LINE
8
Layer 2
10
127.996527
20
12.083677
11
128.349790
21
11.937230
0
LINE
8
Layer 2
10
128.349790
20
11.937230
11
131.493780
21
11.937230
0
LINE
8
Layer 2
10
131.493780
20
11.937230
11
131.493780
21
11.437000
0
LINE
8
Layer 2
10
131.493780
20
11.437000
11
131.640227
21
11.083217
0
LINE
8
Layer 2
10
131.640227
20
11.083217
11
131.994010
21
10.936770
0
LINE
8
Layer 2
10
131.994010
20
10.936770
11
143.899740
21
10.936770
0
LINE
8
Layer 2
10
143.899740
20
10.936770
11
144.994250
21
10.936770
0
LINE
8
Layer 2
10
144.994250
20
10.936770
11
156.899980
21
10.936770
0
LINE
8
Layer 2
10
156.899980
20
10.936770
11
157.253763
21
11.083217
0
LINE
8
Layer 2
10
157.253763
20
11.083217
11
157.400210
21
11.437000
0
LINE
8
Layer 2
10
157.400210
20
11.437000
11
157.400210
21
24.437240
0
LINE
8
Layer 2
10
157.400210
20
24.437240
11
157.253580
21
24.790687
0
LINE
8
Layer 2
10
157.253580
20
24.790687
11
156.899980
21
24.936950
0
LINE
8
Layer 2
10
156.899980
20
24.936950
11
144.994250
21
24.936950
0
LINE
8
Layer 2
10
144.994250
20
24.936950
11
143.899740
21
24.936950
0
LINE
8
Layer 2
10
143.899740
20
24.936950
11
134.850170
21
24.936950
0
LINE
8
Layer 2
10
134.850170
20
24.936950
11
134.850170
21
26.437120
0
LINE
8
Layer 2
10
134.850170
20
26.437120
11
134.703540
21
26.790567
0
LINE
8
Layer 2
10
134.703540
20
26.790567
11
134.349940
21
26.936830
0
LINE
8
Layer 2
10
134.349940
20
26.936830
11
128.349790
21
26.936830
0
LINE
8
Layer 2
10
36.744010
20
24.936950
11
36.390412
21
24.790686
0
LINE
8
Layer 2
10
36.390412
20
24.790686
11
36.243783
21
24.437240
0
LINE
8
Layer 2
10
36.243783
20
24.437240
11
36.243783
21
11.437000
0
LINE
8
Layer 2
10
36.243783
20
11.437000
11
36.390228
21
11.083218
0
LINE
8
Layer 2
10
36.390228
20
11.083218
11
36.744010
21
10.936770
0
LINE
8
Layer 2
10
36.744010
20
10.936770
11
39.124744
21
10.936770
0
LINE
8
Layer 2
10
39.124744
20
10.936770
11
49.744250
21
10.936770
0
LINE
8
Layer 2
10
49.744250
20
10.936770
11
52.124984
21
10.936770
0
LINE
8
Layer 2
10
52.124984
20
10.936770
11
52.478766
21
11.083217
0
LINE
8
Layer 2
10
52.478766
20
11.083217
11
52.625212
21
11.437000
0
LINE
8
Layer 2
10
52.625212
20
11.437000
11
52.625212
21
24.437240
0
LINE
8
Layer 2
10
52.625212
20
24.437240
11
52.478582
21
24.790687
0
LINE
8
Layer 2
10
52.478582
20
24.790687
11
52.124984
21
24.936950
0
LINE
8
Layer 2
10
52.124984
20
24.936950
11
49.744250
21
24.936950
0
LINE
8
Layer 2
10
49.744250
20
24.936950
11
39.124744
21
24.936950
0
LINE
8
Layer 2
10
39.124744
20
24.936950
11
36.744010
21
24.936950
0
LINE
8
Layer 2
10
12.930994
20
24.936950
11
12.577396
21
24.790687
0
LINE
8
Layer 2
10
12.577396
20
24.790687
11
12.430766
21
24.437240
0
LINE
8
Layer 2
10
12.430766
20
24.437240
11
12.430766
21
11.437000
0
LINE
8
Layer 2
10
12.430766
20
11.437000
11
12.577212
21
11.083217
0
LINE
8
Layer 2
10
12.577212
20
11.083217
11
12.930994
21
10.936770
0
LINE
8
Layer 2
10
12.930994
20
10.936770
11
15.312760
21
10.936770
0
LINE
8
Layer 2
10
15.312760
20
10.936770
11
25.931234
21
10.936770
0
LINE
8
Layer 2
10
25.931234
20
10.936770
11
28.313000
21
10.936770
0
LINE
8
Layer 2
10
28.313000
20
10.936770
11
28.666782
21
11.083217
0
LINE
8
Layer 2
10
28.666782
20
11.083217
11
28.813228
21
11.437000
0
LINE
8
Layer 2
10
28.813228
20
11.437000
11
28.813228
21
24.437240
0
LINE
8
Layer 2
10
28.813228
20
24.437240
11
28.666598
21
24.790687
0
LINE
8
Layer 2
10
28.666598
20
24.790687
11
28.313000
21
24.936950
0
LINE
8
Layer 2
10
28.313000
20
24.936950
11
25.931234
21
24.936950
0
LINE
8
Layer 2
10
25.931234
20
24.936950
11
15.312760
21
24.936950
0
LINE
8
Layer 2
10
15.312760
20
24.936950
11
12.930994
21
24.936950
0
LINE
8
Layer 2
10
339.163000
20
24.937000
11
352.163000
21
24.937000
0
LINE
8
Layer 2
10
352.163000
20
24.937000
11
352.516553
21
24.790553
0
LINE
8
Layer 2
10
352.516553
20
24.790553
11
352.663000
21
24.437000
0
LINE
8
Layer 2
10
352.663000
20
24.437000
11
352.663000
21
11.437000
0
LINE
8
Layer 2
10
352.663000
20
11.437000
11
352.516553
21
11.083447
0
LINE
8
Layer 2
10
352.516553
20
11.083447
11
352.163000
21
10.937000
0
LINE
8
Layer 2
10
352.163000
20
10.937000
11
339.163000
21
10.937000
0
LINE
8
Layer 2
10
339.163000
20
10.937000
11
338.809447
21
11.083447
0
LINE
8
Layer 2
10
338.809447
20
11.083447
11
338.663000
21
11.437000
0
LINE
8
Layer 2
10
338.663000
20
11.437000
11
338.663000
21
24.437000
0
LINE
8
Layer 2
10
338.663000
20
24.437000
11
338.809447
21
24.790553
0
LINE
8
Layer 2
10
338.809447
20
24.790553
11
339.163000
21
24.937000
0
LINE
8
Layer 2
10
339.163000
20
24.937000
11
339.163000
21
24.937000
0
LINE
8
Layer 2
10
320.113000
20
24.937000
11
333.113000
21
24.937000
0
LINE
8
Layer 2
10
333.113000
20
24.937000
11
333.466553
21
24.790553
0
LINE
8
Layer 2
10
333.466553
20
24.790553
11
333.613000
21
24.437000
0
LINE
8
Layer 2
10
333.613000
20
24.437000
11
333.613000
21
11.437000
0
LINE
8
Layer 2
10
333.613000
20
11.437000
11
333.466553
21
11.083447
0
LINE
8
Layer 2
10
333.466553
20
11.083447
11
333.113000
21
10.937000
0
LINE
8
Layer 2
10
333.113000
20
10.937000
11
320.113000
21
10.937000
0
LINE
8
Layer 2
10
320.113000
20
10.937000
11
319.759447
21
11.083447
0
LINE
8
Layer 2
10
319.759447
20
11.083447
11
319.613000
21
11.437000
0
LINE
8
Layer 2
10
319.613000
20
11.437000
11
319.613000
21
24.437000
0
LINE
8
Layer 2
10
319.613000
20
24.437000
11
319.759447
21
24.790553
0
LINE
8
Layer 2
10
319.759447
20
24.790553
11
320.113000
21
24.937000
0
LINE
8
Layer 2
10
320.113000
20
24.937000
11
320.113000
21
24.937000
0
LINE
8
Layer 2
10
301.063000
20
24.937000
11
314.063000
21
24.937000
0
LINE
8
Layer 2
10
314.063000
20
24.937000
11
314.416553
21
24.790553
0
LINE
8
Layer 2
10
314.416553
20
24.790553
11
314.563000
21
24.437000
0
LINE
8
Layer 2
10
314.563000
20
24.437000
11
314.563000
21
11.437000
0
LINE
8
Layer 2
10
314.563000
20
11.437000
11
314.416553
21
11.083447
0
LINE
8
Layer 2
10
314.416553
20
11.083447
11
314.063000
21
10.937000
0
LINE
8
Layer 2
10
314.063000
20
10.937000
11
301.063000
21
10.937000
0
LINE
8
Layer 2
10
301.063000
20
10.937000
11
300.709447
21
11.083447
0
LINE
8
Layer 2
10
300.709447
20
11.083447
11
300.563000
21
11.437000
0
LINE
8
Layer 2
10
300.563000
20
11.437000
11
300.563000
21
24.437000
0
LINE
8
Layer 2
10
300.563000
20
24.437000
11
300.709447
21
24.790553
0
LINE
8
Layer 2
10
300.709447
20
24.790553
11
301.063000
21
24.937000
0
LINE
8
Layer 2
10
301.063000
20
24.937000
11
301.063000
21
24.937000
0
LINE
8
Layer 2
10
320.113000
20
43.987000
11
333.113000
21
43.987000
0
LINE
8
Layer 2
10
333.113000
20
43.987000
11
333.466553
21
43.840553
0
LINE
8
Layer 2
10
333.466553
20
43.840553
11
333.613000
21
43.487000
0
LINE
8
Layer 2
10
333.613000
20
43.487000
11
333.613000
21
30.487000
0
LINE
8
Layer 2
10
333.613000
20
30.487000
11
333.466553
21
30.133447
0
LINE
8
Layer 2
10
333.466553
20
30.133447
11
333.113000
21
29.987000
0
LINE
8
Layer 2
10
333.113000
20
29.987000
11
320.113000
21
29.987000
0
LINE
8
Layer 2
10
320.113000
20
29.987000
11
319.759447
21
30.133447
0
LINE
8
Layer 2
10
319.759447
20
30.133447
11
319.613000
21
30.487000
0
LINE
8
Layer 2
10
319.613000
20
30.487000
11
319.613000
21
43.487000
0
LINE
8
Layer 2
10
319.613000
20
43.487000
11
319.759447
21
43.840553
0
LINE
8
Layer 2
10
319.759447
20
43.840553
11
320.113000
21
43.987000
0
LINE
8
Layer 2
10
320.113000
20
43.987000
11
320.113000
21
43.987000
0
LINE
8
Layer 2
10
224.863000
20
43.987000
11
237.863000
21
43.987000
0
LINE
8
Layer 2
10
237.863000
20
43.987000
11
238.216553
21
43.840553
0
LINE
8
Layer 2
10
238.216553
20
43.840553
11
238.363000
21
43.487000
0
LINE
8
Layer 2
10
238.363000
20
43.487000
11
238.363000
21
30.487000
0
LINE
8
Layer 2
10
238.363000
20
30.487000
11
238.216553
21
30.133447
0
LINE
8
Layer 2
10
238.216553
20
30.133447
11
237.863000
21
29.987000
0
LINE
8
Layer 2
10
237.863000
20
29.987000
11
224.863000
21
29.987000
0
LINE
8
Layer 2
10
224.863000
20
29.987000
11
224.509447
21
30.133447
0
LINE
8
Layer 2
10
224.509447
20
30.133447
11
224.363000
21
30.487000
0
LINE
8
Layer 2
10
224.363000
20
30.487000
11
224.363000
21
43.487000
0
LINE
8
Layer 2
10
224.363000
20
43.487000
11
224.509447
21
43.840553
0
LINE
8
Layer 2
10
224.509447
20
43.840553
11
224.863000
21
43.987000
0
LINE
8
Layer 2
10
224.863000
20
43.987000
11
224.863000
21
43.987000
0
LINE
8
Layer 2
10
205.813000
20
43.987000
11
218.813000
21
43.987000
0
LINE
8
Layer 2
10
218.813000
20
43.987000
11
219.166553
21
43.840553
0
LINE
8
Layer 2
10
219.166553
20
43.840553
11
219.313000
21
43.487000
0
LINE
8
Layer 2
10
219.313000
20
43.487000
11
219.313000
21
30.487000
0
LINE
8
Layer 2
10
219.313000
20
30.487000
11
219.166553
21
30.133447
0
LINE
8
Layer 2
10
219.166553
20
30.133447
11
218.813000
21
29.987000
0
LINE
8
Layer 2
10
218.813000
20
29.987000
11
205.813000
21
29.987000
0
LINE
8
Layer 2
10
205.813000
20
29.987000
11
205.459447
21
30.133447
0
LINE
8
Layer 2
10
205.459447
20
30.133447
11
205.313000
21
30.487000
0
LINE
8
Layer 2
10
205.313000
20
30.487000
11
205.313000
21
43.487000
0
LINE
8
Layer 2
10
205.313000
20
43.487000
11
205.459447
21
43.840553
0
LINE
8
Layer 2
10
205.459447
20
43.840553
11
205.813000
21
43.987000
0
LINE
8
Layer 2
10
205.813000
20
43.987000
11
205.813000
21
43.987000
0
LINE
8
Layer 2
10
186.763000
20
43.987000
11
199.763000
21
43.987000
0
LINE
8
Layer 2
10
199.763000
20
43.987000
11
200.116553
21
43.840553
0
LINE
8
Layer 2
10
200.116553
20
43.840553
11
200.263000
21
43.487000
0
LINE
8
Layer 2
10
200.263000
20
43.487000
11
200.263000
21
30.487000
0
LINE
8
Layer 2
10
200.263000
20
30.487000
11
200.116553
21
30.133447
0
LINE
8
Layer 2
10
200.116553
20
30.133447
11
199.763000
21
29.987000
0
LINE
8
Layer 2
10
199.763000
20
29.987000
11
186.763000
21
29.987000
0
LINE
8
Layer 2
10
186.763000
20
29.987000
11
186.409447
21
30.133447
0
LINE
8
Layer 2
10
186.409447
20
30.133447
11
186.263000
21
30.487000
0
LINE
8
Layer 2
10
186.263000
20
30.487000
11
186.263000
21
43.487000
0
LINE
8
Layer 2
10
186.263000
20
43.487000
11
186.409447
21
43.840553
0
LINE
8
Layer 2
10
186.409447
20
43.840553
11
186.763000
21
43.987000
0
LINE
8
Layer 2
10
186.763000
20
43.987000
11
186.763000
21
43.987000
0
LINE
8
Layer 2
10
167.713000
20
43.987000
11
180.713000
21
43.987000
0
LINE
8
Layer 2
10
180.713000
20
43.987000
11
181.066553
21
43.840553
0
LINE
8
Layer 2
10
181.066553
20
43.840553
11
181.213000
21
43.487000
0
LINE
8
Layer 2
10
181.213000
20
43.487000
11
181.213000
21
30.487000
0
LINE
8
Layer 2
10
181.213000
20
30.487000
11
181.066553
21
30.133447
0
LINE
8
Layer 2
10
181.066553
20
30.133447
11
180.713000
21
29.987000
0
LINE
8
Layer 2
10
180.713000
20
29.987000
11
167.713000
21
29.987000
0
LINE
8
Layer 2
10
167.713000
20
29.987000
11
167.359447
21
30.133447
0
LINE
8
Layer 2
10
167.359447
20
30.133447
11
167.213000
21
30.487000
0
LINE
8
Layer 2
10
167.213000
20
30.487000
11
167.213000
21
43.487000
0
LINE
8
Layer 2
10
167.213000
20
43.487000
11
167.359447
21
43.840553
0
LINE
8
Layer 2
10
167.359447
20
43.840553
11
167.713000
21
43.987000
0
LINE
8
Layer 2
10
167.713000
20
43.987000
11
167.713000
21
43.987000
0
LINE
8
Layer 2
10
148.663000
20
43.987000
11
161.663000
21
43.987000
0
LINE
8
Layer 2
10
161.663000
20
43.987000
11
162.016553
21
43.840553
0
LINE
8
Layer 2
10
162.016553
20
43.840553
11
162.163000
21
43.487000
0
LINE
8
Layer 2
10
162.163000
20
43.487000
11
162.163000
21
30.487000
0
LINE
8
Layer 2
10
162.163000
20
30.487000
11
162.016553
21
30.133447
0
LINE
8
Layer 2
10
162.016553
20
30.133447
11
161.663000
21
29.987000
0
LINE
8
Layer 2
10
161.663000
20
29.987000
11
148.663000
21
29.987000
0
LINE
8
Layer 2
10
148.663000
20
29.987000
11
148.309447
21
30.133447
0
LINE
8
Layer 2
10
148.309447
20
30.133447
11
148.163000
21
30.487000
0
LINE
8
Layer 2
10
148.163000
20
30.487000
11
148.163000
21
43.487000
0
LINE
8
Layer 2
10
148.163000
20
43.487000
11
148.309447
21
43.840553
0
LINE
8
Layer 2
10
148.309447
20
43.840553
11
148.663000
21
43.987000
0
LINE
8
Layer 2
10
148.663000
20
43.987000
11
148.663000
21
43.987000
0
LINE
8
Layer 2
10
129.613000
20
43.987000
11
142.613000
21
43.987000
0
LINE
8
Layer 2
10
142.613000
20
43.987000
11
142.966553
21
43.840553
0
LINE
8
Layer 2
10
142.966553
20
43.840553
11
143.113000
21
43.487000
0
LINE
8
Layer 2
10
143.113000
20
43.487000
11
143.113000
21
30.487000
0
LINE
8
Layer 2
10
143.113000
20
30.487000
11
142.966553
21
30.133447
0
LINE
8
Layer 2
10
142.966553
20
30.133447
11
142.613000
21
29.987000
0
LINE
8
Layer 2
10
142.613000
20
29.987000
11
129.613000
21
29.987000
0
LINE
8
Layer 2
10
129.613000
20
29.987000
11
129.259447
21
30.133447
0
LINE
8
Layer 2
10
129.259447
20
30.133447
11
129.113000
21
30.487000
0
LINE
8
Layer 2
10
129.113000
20
30.487000
11
129.113000
21
43.487000
0
LINE
8
Layer 2
10
129.113000
20
43.487000
11
129.259447
21
43.840553
0
LINE
8
Layer 2
10
129.259447
20
43.840553
11
129.613000
21
43.987000
0
LINE
8
Layer 2
10
129.613000
20
43.987000
11
129.613000
21
43.987000
0
LINE
8
Layer 2
10
110.563000
20
43.987000
11
123.563000
21
43.987000
0
LINE
8
Layer 2
10
123.563000
20
43.987000
11
123.916553
21
43.840553
0
LINE
8
Layer 2
10
123.916553
20
43.840553
11
124.063000
21
43.487000
0
LINE
8
Layer 2
10
124.063000
20
43.487000
11
124.063000
21
30.487000
0
LINE
8
Layer 2
10
124.063000
20
30.487000
11
123.916553
21
30.133447
0
LINE
8
Layer 2
10
123.916553
20
30.133447
11
123.563000
21
29.987000
0
LINE
8
Layer 2
10
123.563000
20
29.987000
11
110.563000
21
29.987000
0
LINE
8
Layer 2
10
110.563000
20
29.987000
11
110.209447
21
30.133447
0
LINE
8
Layer 2
10
110.209447
20
30.133447
11
110.063000
21
30.487000
0
LINE
8
Layer 2
10
110.063000
20
30.487000
11
110.063000
21
43.487000
0
LINE
8
Layer 2
10
110.063000
20
43.487000
11
110.209447
21
43.840553
0
LINE
8
Layer 2
10
110.209447
20
43.840553
11
110.563000
21
43.987000
0
LINE
8
Layer 2
10
110.563000
20
43.987000
11
110.563000
21
43.987000
0
LINE
8
Layer 2
10
91.513000
20
43.987000
11
104.513000
21
43.987000
0
LINE
8
Layer 2
10
104.513000
20
43.987000
11
104.866553
21
43.840553
0
LINE
8
Layer 2
10
104.866553
20
43.840553
11
105.013000
21
43.487000
0
LINE
8
Layer 2
10
105.013000
20
43.487000
11
105.013000
21
30.487000
0
LINE
8
Layer 2
10
105.013000
20
30.487000
11
104.866553
21
30.133447
0
LINE
8
Layer 2
10
104.866553
20
30.133447
11
104.513000
21
29.987000
0
LINE
8
Layer 2
10
104.513000
20
29.987000
11
91.513000
21
29.987000
0
LINE
8
Layer 2
10
91.513000
20
29.987000
11
91.159447
21
30.133447
0
LINE
8
Layer 2
10
91.159447
20
30.133447
11
91.013000
21
30.487000
0
LINE
8
Layer 2
10
91.013000
20
30.487000
11
91.013000
21
43.487000
0
LINE
8
Layer 2
10
91.013000
20
43.487000
11
91.159447
21
43.840553
0
LINE
8
Layer 2
10
91.159447
20
43.840553
11
91.513000
21
43.987000
0
LINE
8
Layer 2
10
91.513000
20
43.987000
11
91.513000
21
43.987000
0
LINE
8
Layer 2
10
72.463000
20
43.987000
11
85.463000
21
43.987000
0
LINE
8
Layer 2
10
85.463000
20
43.987000
11
85.816553
21
43.840553
0
LINE
8
Layer 2
10
85.816553
20
43.840553
11
85.963000
21
43.487000
0
LINE
8
Layer 2
10
85.963000
20
43.487000
11
85.963000
21
30.487000
0
LINE
8
Layer 2
10
85.963000
20
30.487000
11
85.816553
21
30.133447
0
LINE
8
Layer 2
10
85.816553
20
30.133447
11
85.463000
21
29.987000
0
LINE
8
Layer 2
10
85.463000
20
29.987000
11
72.463000
21
29.987000
0
LINE
8
Layer 2
10
72.463000
20
29.987000
11
72.109447
21
30.133447
0
LINE
8
Layer 2
10
72.109447
20
30.133447
11
71.963000
21
30.487000
0
LINE
8
Layer 2
10
71.963000
20
30.487000
11
71.963000
21
43.487000
0
LINE
8
Layer 2
10
71.963000
20
43.487000
11
72.109447
21
43.840553
0
LINE
8
Layer 2
10
72.109447
20
43.840553
11
72.463000
21
43.987000
0
LINE
8
Layer 2
10
72.463000
20
43.987000
11
72.463000
21
43.987000
0
LINE
8
Layer 2
10
53.413000
20
43.987000
11
66.413000
21
43.987000
0
LINE
8
Layer 2
10
66.413000
20
43.987000
11
66.766553
21
43.840553
0
LINE
8
Layer 2
10
66.766553
20
43.840553
11
66.913000
21
43.487000
0
LINE
8
Layer 2
10
66.913000
20
43.487000
11
66.913000
21
30.487000
0
LINE
8
Layer 2
10
66.913000
20
30.487000
11
66.766553
21
30.133447
0
LINE
8
Layer 2
10
66.766553
20
30.133447
11
66.413000
21
29.987000
0
LINE
8
Layer 2
10
66.413000
20
29.987000
11
53.413000
21
29.987000
0
LINE
8
Layer 2
10
53.413000
20
29.987000
11
53.059447
21
30.133447
0
LINE
8
Layer 2
10
53.059447
20
30.133447
11
52.913000
21
30.487000
0
LINE
8
Layer 2
10
52.913000
20
30.487000
11
52.913000
21
43.487000
0
LINE
8
Layer 2
10
52.913000
20
43.487000
11
53.059447
21
43.840553
0
LINE
8
Layer 2
10
53.059447
20
43.840553
11
53.413000
21
43.987000
0
LINE
8
Layer 2
10
53.413000
20
43.987000
11
53.413000
21
43.987000
0
LINE
8
Layer 2
10
234.388000
20
63.037000
11
247.388000
21
63.037000
0
LINE
8
Layer 2
10
247.388000
20
63.037000
11
247.741553
21
62.890553
0
LINE
8
Layer 2
10
247.741553
20
62.890553
11
247.888000
21
62.537000
0
LINE
8
Layer 2
10
247.888000
20
62.537000
11
247.888000
21
49.537000
0
LINE
8
Layer 2
10
247.888000
20
49.537000
11
247.741553
21
49.183447
0
LINE
8
Layer 2
10
247.741553
20
49.183447
11
247.388000
21
49.037000
0
LINE
8
Layer 2
10
247.388000
20
49.037000
11
234.388000
21
49.037000
0
LINE
8
Layer 2
10
234.388000
20
49.037000
11
234.034447
21
49.183447
0
LINE
8
Layer 2
10
234.034447
20
49.183447
11
233.888000
21
49.537000
0
LINE
8
Layer 2
10
233.888000
20
49.537000
11
233.888000
21
62.537000
0
LINE
8
Layer 2
10
233.888000
20
62.537000
11
234.034447
21
62.890553
0
LINE
8
Layer 2
10
234.034447
20
62.890553
11
234.388000
21
63.037000
0
LINE
8
Layer 2
10
234.388000
20
63.037000
11
234.388000
21
63.037000
0
LINE
8
Layer 2
10
215.338000
20
63.037000
11
228.338000
21
63.037000
0
LINE
8
Layer 2
10
228.338000
20
63.037000
11
228.691553
21
62.890553
0
LINE
8
Layer 2
10
228.691553
20
62.890553
11
228.838000
21
62.537000
0
LINE
8
Layer 2
10
228.838000
20
62.537000
11
228.838000
21
49.537000
0
LINE
8
Layer 2
10
228.838000
20
49.537000
11
228.691553
21
49.183447
0
LINE
8
Layer 2
10
228.691553
20
49.183447
11
228.338000
21
49.037000
0
LINE
8
Layer 2
10
228.338000
20
49.037000
11
215.338000
21
49.037000
0
LINE
8
Layer 2
10
215.338000
20
49.037000
11
214.984447
21
49.183447
0
LINE
8
Layer 2
10
214.984447
20
49.183447
11
214.838000
21
49.537000
0
LINE
8
Layer 2
10
214.838000
20
49.537000
11
214.838000
21
62.537000
0
LINE
8
Layer 2
10
214.838000
20
62.537000
11
214.984447
21
62.890553
0
LINE
8
Layer 2
10
214.984447
20
62.890553
11
215.338000
21
63.037000
0
LINE
8
Layer 2
10
215.338000
20
63.037000
11
215.338000
21
63.037000
0
LINE
8
Layer 2
10
196.288000
20
63.037000
11
209.288000
21
63.037000
0
LINE
8
Layer 2
10
209.288000
20
63.037000
11
209.641553
21
62.890553
0
LINE
8
Layer 2
10
209.641553
20
62.890553
11
209.788000
21
62.537000
0
LINE
8
Layer 2
10
209.788000
20
62.537000
11
209.788000
21
49.537000
0
LINE
8
Layer 2
10
209.788000
20
49.537000
11
209.641553
21
49.183447
0
LINE
8
Layer 2
10
209.641553
20
49.183447
11
209.288000
21
49.037000
0
LINE
8
Layer 2
10
209.288000
20
49.037000
11
196.288000
21
49.037000
0
LINE
8
Layer 2
10
196.288000
20
49.037000
11
195.934447
21
49.183447
0
LINE
8
Layer 2
10
195.934447
20
49.183447
11
195.788000
21
49.537000
0
LINE
8
Layer 2
10
195.788000
20
49.537000
11
195.788000
21
62.537000
0
LINE
8
Layer 2
10
195.788000
20
62.537000
11
195.934447
21
62.890553
0
LINE
8
Layer 2
10
195.934447
20
62.890553
11
196.288000
21
63.037000
0
LINE
8
Layer 2
10
196.288000
20
63.037000
11
196.288000
21
63.037000
0
LINE
8
Layer 2
10
177.238000
20
63.037000
11
190.238000
21
63.037000
0
LINE
8
Layer 2
10
190.238000
20
63.037000
11
190.591553
21
62.890553
0
LINE
8
Layer 2
10
190.591553
20
62.890553
11
190.738000
21
62.537000
0
LINE
8
Layer 2
10
190.738000
20
62.537000
11
190.738000
21
49.537000
0
LINE
8
Layer 2
10
190.738000
20
49.537000
11
190.591553
21
49.183447
0
LINE
8
Layer 2
10
190.591553
20
49.183447
11
190.238000
21
49.037000
0
LINE
8
Layer 2
10
190.238000
20
49.037000
11
177.238000
21
49.037000
0
LINE
8
Layer 2
10
177.238000
20
49.037000
11
176.884447
21
49.183447
0
LINE
8
Layer 2
10
176.884447
20
49.183447
11
176.738000
21
49.537000
0
LINE
8
Layer 2
10
176.738000
20
49.537000
11
176.738000
21
62.537000
0
LINE
8
Layer 2
10
176.738000
20
62.537000
11
176.884447
21
62.890553
0
LINE
8
Layer 2
10
176.884447
20
62.890553
11
177.238000
21
63.037000
0
LINE
8
Layer 2
10
177.238000
20
63.037000
11
177.238000
21
63.037000
0
LINE
8
Layer 2
10
158.188000
20
63.037000
11
171.188000
21
63.037000
0
LINE
8
Layer 2
10
171.188000
20
63.037000
11
171.541553
21
62.890553
0
LINE
8
Layer 2
10
171.541553
20
62.890553
11
171.688000
21
62.537000
0
LINE
8
Layer 2
10
171.688000
20
62.537000
11
171.688000
21
49.537000
0
LINE
8
Layer 2
10
171.688000
20
49.537000
11
171.541553
21
49.183447
0
LINE
8
Layer 2
10
171.541553
20
49.183447
11
171.188000
21
49.037000
0
LINE
8
Layer 2
10
171.188000
20
49.037000
11
158.188000
21
49.037000
0
LINE
8
Layer 2
10
158.188000
20
49.037000
11
157.834447
21
49.183447
0
LINE
8
Layer 2
10
157.834447
20
49.183447
11
157.688000
21
49.537000
0
LINE
8
Layer 2
10
157.688000
20
49.537000
11
157.688000
21
62.537000
0
LINE
8
Layer 2
10
157.688000
20
62.537000
11
157.834447
21
62.890553
0
LINE
8
Layer 2
10
157.834447
20
62.890553
11
158.188000
21
63.037000
0
LINE
8
Layer 2
10
158.188000
20
63.037000
11
158.188000
21
63.037000
0
LINE
8
Layer 2
10
139.138000
20
63.037000
11
152.138000
21
63.037000
0
LINE
8
Layer 2
10
152.138000
20
63.037000
11
152.491553
21
62.890553
0
LINE
8
Layer 2
10
152.491553
20
62.890553
11
152.638000
21
62.537000
0
LINE
8
Layer 2
10
152.638000
20
62.537000
11
152.638000
21
49.537000
0
LINE
8
Layer 2
10
152.638000
20
49.537000
11
152.491553
21
49.183447
0
LINE
8
Layer 2
10
152.491553
20
49.183447
11
152.138000
21
49.037000
0
LINE
8
Layer 2
10
152.138000
20
49.037000
11
139.138000
21
49.037000
0
LINE
8
Layer 2
10
139.138000
20
49.037000
11
138.784447
21
49.183447
0
LINE
8
Layer 2
10
138.784447
20
49.183447
11
138.638000
21
49.537000
0
LINE
8
Layer 2
10
138.638000
20
49.537000
11
138.638000
21
62.537000
0
LINE
8
Layer 2
10
138.638000
20
62.537000
11
138.784447
21
62.890553
0
LINE
8
Layer 2
10
138.784447
20
62.890553
11
139.138000
21
63.037000
0
LINE
8
Layer 2
10
139.138000
20
63.037000
11
139.138000
21
63.037000
0
LINE
8
Layer 2
10
120.088000
20
63.037000
11
133.088000
21
63.037000
0
LINE
8
Layer 2
10
133.088000
20
63.037000
11
133.441553
21
62.890553
0
LINE
8
Layer 2
10
133.441553
20
62.890553
11
133.588000
21
62.537000
0
LINE
8
Layer 2
10
133.588000
20
62.537000
11
133.588000
21
49.537000
0
LINE
8
Layer 2
10
133.588000
20
49.537000
11
133.441553
21
49.183447
0
LINE
8
Layer 2
10
133.441553
20
49.183447
11
133.088000
21
49.037000
0
LINE
8
Layer 2
10
133.088000
20
49.037000
11
120.088000
21
49.037000
0
LINE
8
Layer 2
10
120.088000
20
49.037000
11
119.734447
21
49.183447
0
LINE
8
Layer 2
10
119.734447
20
49.183447
11
119.588000
21
49.537000
0
LINE
8
Layer 2
10
119.588000
20
49.537000
11
119.588000
21
62.537000
0
LINE
8
Layer 2
10
119.588000
20
62.537000
11
119.734447
21
62.890553
0
LINE
8
Layer 2
10
119.734447
20
62.890553
11
120.088000
21
63.037000
0
LINE
8
Layer 2
10
120.088000
20
63.037000
11
120.088000
21
63.037000
0
LINE
8
Layer 2
10
101.038000
20
63.037000
11
114.038000
21
63.037000
0
LINE
8
Layer 2
10
114.038000
20
63.037000
11
114.391553
21
62.890553
0
LINE
8
Layer 2
10
114.391553
20
62.890553
11
114.538000
21
62.537000
0
LINE
8
Layer 2
10
114.538000
20
62.537000
11
114.538000
21
49.537000
0
LINE
8
Layer 2
10
114.538000
20
49.537000
11
114.391553
21
49.183447
0
LINE
8
Layer 2
10
114.391553
20
49.183447
11
114.038000
21
49.037000
0
LINE
8
Layer 2
10
114.038000
20
49.037000
11
101.038000
21
49.037000
0
LINE
8
Layer 2
10
101.038000
20
49.037000
11
100.684447
21
49.183447
0
LINE
8
Layer 2
10
100.684447
20
49.183447
11
100.538000
21
49.537000
0
LINE
8
Layer 2
10
100.538000
20
49.537000
11
100.538000
21
62.537000
0
LINE
8
Layer 2
10
100.538000
20
62.537000
11
100.684447
21
62.890553
0
LINE
8
Layer 2
10
100.684447
20
62.890553
11
101.038000
21
63.037000
0
LINE
8
Layer 2
10
101.038000
20
63.037000
11
101.038000
21
63.037000
0
LINE
8
Layer 2
10
81.988000
20
63.037000
11
94.988000
21
63.037000
0
LINE
8
Layer 2
10
94.988000
20
63.037000
11
95.341553
21
62.890553
0
LINE
8
Layer 2
10
95.341553
20
62.890553
11
95.488000
21
62.537000
0
LINE
8
Layer 2
10
95.488000
20
62.537000
11
95.488000
21
49.537000
0
LINE
8
Layer 2
10
95.488000
20
49.537000
11
95.341553
21
49.183447
0
LINE
8
Layer 2
10
95.341553
20
49.183447
11
94.988000
21
49.037000
0
LINE
8
Layer 2
10
94.988000
20
49.037000
11
81.988000
21
49.037000
0
LINE
8
Layer 2
10
81.988000
20
49.037000
11
81.634447
21
49.183447
0
LINE
8
Layer 2
10
81.634447
20
49.183447
11
81.488000
21
49.537000
0
LINE
8
Layer 2
10
81.488000
20
49.537000
11
81.488000
21
62.537000
0
LINE
8
Layer 2
10
81.488000
20
62.537000
11
81.634447
21
62.890553
0
LINE
8
Layer 2
10
81.634447
20
62.890553
11
81.988000
21
63.037000
0
LINE
8
Layer 2
10
81.988000
20
63.037000
11
81.988000
21
63.037000
0
LINE
8
Layer 2
10
43.888000
20
63.037000
11
56.888000
21
63.037000
0
LINE
8
Layer 2
10
56.888000
20
63.037000
11
57.241553
21
62.890553
0
LINE
8
Layer 2
10
57.241553
20
62.890553
11
57.388000
21
62.537000
0
LINE
8
Layer 2
10
57.388000
20
62.537000
11
57.388000
21
49.537000
0
LINE
8
Layer 2
10
57.388000
20
49.537000
11
57.241553
21
49.183447
0
LINE
8
Layer 2
10
57.241553
20
49.183447
11
56.888000
21
49.037000
0
LINE
8
Layer 2
10
56.888000
20
49.037000
11
43.888000
21
49.037000
0
LINE
8
Layer 2
10
43.888000
20
49.037000
11
43.534447
21
49.183447
0
LINE
8
Layer 2
10
43.534447
20
49.183447
11
43.388000
21
49.537000
0
LINE
8
Layer 2
10
43.388000
20
49.537000
11
43.388000
21
62.537000
0
LINE
8
Layer 2
10
43.388000
20
62.537000
11
43.534447
21
62.890553
0
LINE
8
Layer 2
10
43.534447
20
62.890553
11
43.888000
21
63.037000
0
LINE
8
Layer 2
10
43.888000
20
63.037000
11
43.888000
21
63.037000
0
LINE
8
Layer 2
10
339.163000
20
82.087000
11
352.163000
21
82.087000
0
LINE
8
Layer 2
10
352.163000
20
82.087000
11
352.516553
21
81.940553
0
LINE
8
Layer 2
10
352.516553
20
81.940553
11
352.663000
21
81.587000
0
LINE
8
Layer 2
10
352.663000
20
81.587000
11
352.663000
21
68.587000
0
LINE
8
Layer 2
10
352.663000
20
68.587000
11
352.516553
21
68.233447
0
LINE
8
Layer 2
10
352.516553
20
68.233447
11
352.163000
21
68.087000
0
LINE
8
Layer 2
10
352.163000
20
68.087000
11
339.163000
21
68.087000
0
LINE
8
Layer 2
10
339.163000
20
68.087000
11
338.809447
21
68.233447
0
LINE
8
Layer 2
10
338.809447
20
68.233447
11
338.663000
21
68.587000
0
LINE
8
Layer 2
10
338.663000
20
68.587000
11
338.663000
21
81.587000
0
LINE
8
Layer 2
10
338.663000
20
81.587000
11
338.809447
21
81.940553
0
LINE
8
Layer 2
10
338.809447
20
81.940553
11
339.163000
21
82.087000
0
LINE
8
Layer 2
10
339.163000
20
82.087000
11
339.163000
21
82.087000
0
LINE
8
Layer 2
10
320.113000
20
82.087000
11
333.113000
21
82.087000
0
LINE
8
Layer 2
10
333.113000
20
82.087000
11
333.466553
21
81.940553
0
LINE
8
Layer 2
10
333.466553
20
81.940553
11
333.613000
21
81.587000
0
LINE
8
Layer 2
10
333.613000
20
81.587000
11
333.613000
21
68.587000
0
LINE
8
Layer 2
10
333.613000
20
68.587000
11
333.466553
21
68.233447
0
LINE
8
Layer 2
10
333.466553
20
68.233447
11
333.113000
21
68.087000
0
LINE
8
Layer 2
10
333.113000
20
68.087000
11
320.113000
21
68.087000
0
LINE
8
Layer 2
10
320.113000
20
68.087000
11
319.759447
21
68.233447
0
LINE
8
Layer 2
10
319.759447
20
68.233447
11
319.613000
21
68.587000
0
LINE
8
Layer 2
10
319.613000
20
68.587000
11
319.613000
21
81.587000
0
LINE
8
Layer 2
10
319.613000
20
81.587000
11
319.759447
21
81.940553
0
LINE
8
Layer 2
10
319.759447
20
81.940553
11
320.113000
21
82.087000
0
LINE
8
Layer 2
10
320.113000
20
82.087000
11
320.113000
21
82.087000
0
LINE
8
Layer 2
10
301.063000
20
82.087000
11
314.063000
21
82.087000
0
LINE
8
Layer 2
10
314.063000
20
82.087000
11
314.416553
21
81.940553
0
LINE
8
Layer 2
10
314.416553
20
81.940553
11
314.563000
21
81.587000
0
LINE
8
Layer 2
10
314.563000
20
81.587000
11
314.563000
21
68.587000
0
LINE
8
Layer 2
10
314.563000
20
68.587000
11
314.416553
21
68.233447
0
LINE
8
Layer 2
10
314.416553
20
68.233447
11
314.063000
21
68.087000
0
LINE
8
Layer 2
10
314.063000
20
68.087000
11
301.063000
21
68.087000
0
LINE
8
Layer 2
10
301.063000
20
68.087000
11
300.709447
21
68.233447
0
LINE
8
Layer 2
10
300.709447
20
68.233447
11
300.563000
21
68.587000
0
LINE
8
Layer 2
10
300.563000
20
68.587000
11
300.563000
21
81.587000
0
LINE
8
Layer 2
10
300.563000
20
81.587000
11
300.709447
21
81.940553
0
LINE
8
Layer 2
10
300.709447
20
81.940553
11
301.063000
21
82.087000
0
LINE
8
Layer 2
10
301.063000
20
82.087000
11
301.063000
21
82.087000
0
LINE
8
Layer 2
10
248.675000
20
82.087000
11
261.675000
21
82.087000
0
LINE
8
Layer 2
10
261.675000
20
82.087000
11
262.028553
21
81.940553
0
LINE
8
Layer 2
10
262.028553
20
81.940553
11
262.175000
21
81.587000
0
LINE
8
Layer 2
10
262.175000
20
81.587000
11
262.175000
21
68.587000
0
LINE
8
Layer 2
10
262.175000
20
68.587000
11
262.028553
21
68.233447
0
LINE
8
Layer 2
10
262.028553
20
68.233447
11
261.675000
21
68.087000
0
LINE
8
Layer 2
10
261.675000
20
68.087000
11
248.675000
21
68.087000
0
LINE
8
Layer 2
10
248.675000
20
68.087000
11
248.321447
21
68.233447
0
LINE
8
Layer 2
10
248.321447
20
68.233447
11
248.175000
21
68.587000
0
LINE
8
Layer 2
10
248.175000
20
68.587000
11
248.175000
21
81.587000
0
LINE
8
Layer 2
10
248.175000
20
81.587000
11
248.321447
21
81.940553
0
LINE
8
Layer 2
10
248.321447
20
81.940553
11
248.675000
21
82.087000
0
LINE
8
Layer 2
10
248.675000
20
82.087000
11
248.675000
21
82.087000
0
LINE
8
Layer 2
10
229.625000
20
82.087000
11
242.625000
21
82.087000
0
LINE
8
Layer 2
10
242.625000
20
82.087000
11
242.978553
21
81.940553
0
LINE
8
Layer 2
10
242.978553
20
81.940553
11
243.125000
21
81.587000
0
LINE
8
Layer 2
10
243.125000
20
81.587000
11
243.125000
21
68.587000
0
LINE
8
Layer 2
10
243.125000
20
68.587000
11
242.978553
21
68.233447
0
LINE
8
Layer 2
10
242.978553
20
68.233447
11
242.625000
21
68.087000
0
LINE
8
Layer 2
10
242.625000
20
68.087000
11
229.625000
21
68.087000
0
LINE
8
Layer 2
10
229.625000
20
68.087000
11
229.271447
21
68.233447
0
LINE
8
Layer 2
10
229.271447
20
68.233447
11
229.125000
21
68.587000
0
LINE
8
Layer 2
10
229.125000
20
68.587000
11
229.125000
21
81.587000
0
LINE
8
Layer 2
10
229.125000
20
81.587000
11
229.271447
21
81.940553
0
LINE
8
Layer 2
10
229.271447
20
81.940553
11
229.625000
21
82.087000
0
LINE
8
Layer 2
10
229.625000
20
82.087000
11
229.625000
21
82.087000
0
LINE
8
Layer 2
10
210.575000
20
82.087000
11
223.575000
21
82.087000
0
LINE
8
Layer 2
10
223.575000
20
82.087000
11
223.928553
21
81.940553
0
LINE
8
Layer 2
10
223.928553
20
81.940553
11
224.075000
21
81.587000
0
LINE
8
Layer 2
10
224.075000
20
81.587000
11
224.075000
21
68.587000
0
LINE
8
Layer 2
10
224.075000
20
68.587000
11
223.928553
21
68.233447
0
LINE
8
Layer 2
10
223.928553
20
68.233447
11
223.575000
21
68.087000
0
LINE
8
Layer 2
10
223.575000
20
68.087000
11
210.575000
21
68.087000
0
LINE
8
Layer 2
10
210.575000
20
68.087000
11
210.221447
21
68.233447
0
LINE
8
Layer 2
10
210.221447
20
68.233447
11
210.075000
21
68.587000
0
LINE
8
Layer 2
10
210.075000
20
68.587000
11
210.075000
21
81.587000
0
LINE
8
Layer 2
10
210.075000
20
81.587000
11
210.221447
21
81.940553
0
LINE
8
Layer 2
10
210.221447
20
81.940553
11
210.575000
21
82.087000
0
LINE
8
Layer 2
10
210.575000
20
82.087000
11
210.575000
21
82.087000
0
LINE
8
Layer 2
10
191.525000
20
82.087000
11
204.525000
21
82.087000
0
LINE
8
Layer 2
10
204.525000
20
82.087000
11
204.878553
21
81.940553
0
LINE
8
Layer 2
10
204.878553
20
81.940553
11
205.025000
21
81.587000
0
LINE
8
Layer 2
10
205.025000
20
81.587000
11
205.025000
21
68.587000
0
LINE
8
Layer 2
10
205.025000
20
68.587000
11
204.878553
21
68.233447
0
LINE
8
Layer 2
10
204.878553
20
68.233447
11
204.525000
21
68.087000
0
LINE
8
Layer 2
10
204.525000
20
68.087000
11
191.525000
21
68.087000
0
LINE
8
Layer 2
10
191.525000
20
68.087000
11
191.171447
21
68.233447
0
LINE
8
Layer 2
10
191.171447
20
68.233447
11
191.025000
21
68.587000
0
LINE
8
Layer 2
10
191.025000
20
68.587000
11
191.025000
21
81.587000
0
LINE
8
Layer 2
10
191.025000
20
81.587000
11
191.171447
21
81.940553
0
LINE
8
Layer 2
10
191.171447
20
81.940553
11
191.525000
21
82.087000
0
LINE
8
Layer 2
10
191.525000
20
82.087000
11
191.525000
21
82.087000
0
LINE
8
Layer 2
10
172.475000
20
82.087000
11
185.475000
21
82.087000
0
LINE
8
Layer 2
10
185.475000
20
82.087000
11
185.828553
21
81.940553
0
LINE
8
Layer 2
10
185.828553
20
81.940553
11
185.975000
21
81.587000
0
LINE
8
Layer 2
10
185.975000
20
81.587000
11
185.975000
21
68.587000
0
LINE
8
Layer 2
10
185.975000
20
68.587000
11
185.828553
21
68.233447
0
LINE
8
Layer 2
10
185.828553
20
68.233447
11
185.475000
21
68.087000
0
LINE
8
Layer 2
10
185.475000
20
68.087000
11
172.475000
21
68.087000
0
LINE
8
Layer 2
10
172.475000
20
68.087000
11
172.121447
21
68.233447
0
LINE
8
Layer 2
10
172.121447
20
68.233447
11
171.975000
21
68.587000
0
LINE
8
Layer 2
10
171.975000
20
68.587000
11
171.975000
21
81.587000
0
LINE
8
Layer 2
10
171.975000
20
81.587000
11
172.121447
21
81.940553
0
LINE
8
Layer 2
10
172.121447
20
81.940553
11
172.475000
21
82.087000
0
LINE
8
Layer 2
10
172.475000
20
82.087000
11
172.475000
21
82.087000
0
LINE
8
Layer 2
10
153.425000
20
82.087000
11
166.425000
21
82.087000
0
LINE
8
Layer 2
10
166.425000
20
82.087000
11
166.778553
21
81.940553
0
LINE
8
Layer 2
10
166.778553
20
81.940553
11
166.925000
21
81.587000
0
LINE
8
Layer 2
10
166.925000
20
81.587000
11
166.925000
21
68.587000
0
LINE
8
Layer 2
10
166.925000
20
68.587000
11
166.778553
21
68.233447
0
LINE
8
Layer 2
10
166.778553
20
68.233447
11
166.425000
21
68.087000
0
LINE
8
Layer 2
10
166.425000
20
68.087000
11
153.425000
21
68.087000
0
LINE
8
Layer 2
10
153.425000
20
68.087000
11
153.071447
21
68.233447
0
LINE
8
Layer 2
10
153.071447
20
68.233447
11
152.925000
21
68.587000
0
LINE
8
Layer 2
10
152.925000
20
68.587000
11
152.925000
21
81.587000
0
LINE
8
Layer 2
10
152.925000
20
81.587000
11
153.071447
21
81.940553
0
LINE
8
Layer 2
10
153.071447
20
81.940553
11
153.425000
21
82.087000
0
LINE
8
Layer 2
10
153.425000
20
82.087000
11
153.425000
21
82.087000
0
LINE
8
Layer 2
10
134.375000
20
82.087000
11
147.375000
21
82.087000
0
LINE
8
Layer 2
10
147.375000
20
82.087000
11
147.728553
21
81.940553
0
LINE
8
Layer 2
10
147.728553
20
81.940553
11
147.875000
21
81.587000
0
LINE
8
Layer 2
10
147.875000
20
81.587000
11
147.875000
21
68.587000
0
LINE
8
Layer 2
10
147.875000
20
68.587000
11
147.728553
21
68.233447
0
LINE
8
Layer 2
10
147.728553
20
68.233447
11
147.375000
21
68.087000
0
LINE
8
Layer 2
10
147.375000
20
68.087000
11
134.375000
21
68.087000
0
LINE
8
Layer 2
10
134.375000
20
68.087000
11
134.021447
21
68.233447
0
LINE
8
Layer 2
10
134.021447
20
68.233447
11
133.875000
21
68.587000
0
LINE
8
Layer 2
10
133.875000
20
68.587000
11
133.875000
21
81.587000
0
LINE
8
Layer 2
10
133.875000
20
81.587000
11
134.021447
21
81.940553
0
LINE
8
Layer 2
10
134.021447
20
81.940553
11
134.375000
21
82.087000
0
LINE
8
Layer 2
10
134.375000
20
82.087000
11
134.375000
21
82.087000
0
LINE
8
Layer 2
10
115.325000
20
82.087000
11
128.325000
21
82.087000
0
LINE
8
Layer 2
10
128.325000
20
82.087000
11
128.678553
21
81.940553
0
LINE
8
Layer 2
10
128.678553
20
81.940553
11
128.825000
21
81.587000
0
LINE
8
Layer 2
10
128.825000
20
81.587000
11
128.825000
21
68.587000
0
LINE
8
Layer 2
10
128.825000
20
68.587000
11
128.678553
21
68.233447
0
LINE
8
Layer 2
10
128.678553
20
68.233447
11
128.325000
21
68.087000
0
LINE
8
Layer 2
10
128.325000
20
68.087000
11
115.325000
21
68.087000
0
LINE
8
Layer 2
10
115.325000
20
68.087000
11
114.971447
21
68.233447
0
LINE
8
Layer 2
10
114.971447
20
68.233447
11
114.825000
21
68.587000
0
LINE
8
Layer 2
10
114.825000
20
68.587000
11
114.825000
21
81.587000
0
LINE
8
Layer 2
10
114.825000
20
81.587000
11
114.971447
21
81.940553
0
LINE
8
Layer 2
10
114.971447
20
81.940553
11
115.325000
21
82.087000
0
LINE
8
Layer 2
10
115.325000
20
82.087000
11
115.325000
21
82.087000
0
LINE
8
Layer 2
10
96.275000
20
82.087000
11
109.275000
21
82.087000
0
LINE
8
Layer 2
10
109.275000
20
82.087000
11
109.628553
21
81.940553
0
LINE
8
Layer 2
10
109.628553
20
81.940553
11
109.775000
21
81.587000
0
LINE
8
Layer 2
10
109.775000
20
81.587000
11
109.775000
21
68.587000
0
LINE
8
Layer 2
10
109.775000
20
68.587000
11
109.628553
21
68.233447
0
LINE
8
Layer 2
10
109.628553
20
68.233447
11
109.275000
21
68.087000
0
LINE
8
Layer 2
10
109.275000
20
68.087000
11
96.275000
21
68.087000
0
LINE
8
Layer 2
10
96.275000
20
68.087000
11
95.921447
21
68.233447
0
LINE
8
Layer 2
10
95.921447
20
68.233447
11
95.775000
21
68.587000
0
LINE
8
Layer 2
10
95.775000
20
68.587000
11
95.775000
21
81.587000
0
LINE
8
Layer 2
10
95.775000
20
81.587000
11
95.921447
21
81.940553
0
LINE
8
Layer 2
10
95.921447
20
81.940553
11
96.275000
21
82.087000
0
LINE
8
Layer 2
10
96.275000
20
82.087000
11
96.275000
21
82.087000
0
LINE
8
Layer 2
10
77.225000
20
82.087000
11
90.225000
21
82.087000
0
LINE
8
Layer 2
10
90.225000
20
82.087000
11
90.578553
21
81.940553
0
LINE
8
Layer 2
10
90.578553
20
81.940553
11
90.725000
21
81.587000
0
LINE
8
Layer 2
10
90.725000
20
81.587000
11
90.725000
21
68.587000
0
LINE
8
Layer 2
10
90.725000
20
68.587000
11
90.578553
21
68.233447
0
LINE
8
Layer 2
10
90.578553
20
68.233447
11
90.225000
21
68.087000
0
LINE
8
Layer 2
10
90.225000
20
68.087000
11
77.225000
21
68.087000
0
LINE
8
Layer 2
10
77.225000
20
68.087000
11
76.871447
21
68.233447
0
LINE
8
Layer 2
10
76.871447
20
68.233447
11
76.725000
21
68.587000
0
LINE
8
Layer 2
10
76.725000
20
68.587000
11
76.725000
21
81.587000
0
LINE
8
Layer 2
10
76.725000
20
81.587000
11
76.871447
21
81.940553
0
LINE
8
Layer 2
10
76.871447
20
81.940553
11
77.225000
21
82.087000
0
LINE
8
Layer 2
10
77.225000
20
82.087000
11
77.225000
21
82.087000
0
LINE
8
Layer 2
10
58.175000
20
82.087000
11
71.175000
21
82.087000
0
LINE
8
Layer 2
10
71.175000
20
82.087000
11
71.528553
21
81.940553
0
LINE
8
Layer 2
10
71.528553
20
81.940553
11
71.675000
21
81.587000
0
LINE
8
Layer 2
10
71.675000
20
81.587000
11
71.675000
21
68.587000
0
LINE
8
Layer 2
10
71.675000
20
68.587000
11
71.528553
21
68.233447
0
LINE
8
Layer 2
10
71.528553
20
68.233447
11
71.175000
21
68.087000
0
LINE
8
Layer 2
10
71.175000
20
68.087000
11
58.175000
21
68.087000
0
LINE
8
Layer 2
10
58.175000
20
68.087000
11
57.821447
21
68.233447
0
LINE
8
Layer 2
10
57.821447
20
68.233447
11
57.675000
21
68.587000
0
LINE
8
Layer 2
10
57.675000
20
68.587000
11
57.675000
21
81.587000
0
LINE
8
Layer 2
10
57.675000
20
81.587000
11
57.821447
21
81.940553
0
LINE
8
Layer 2
10
57.821447
20
81.940553
11
58.175000
21
82.087000
0
LINE
8
Layer 2
10
58.175000
20
82.087000
11
58.175000
21
82.087000
0
LINE
8
Layer 2
10
39.125000
20
82.087000
11
52.125000
21
82.087000
0
LINE
8
Layer 2
10
52.125000
20
82.087000
11
52.478553
21
81.940553
0
LINE
8
Layer 2
10
52.478553
20
81.940553
11
52.625000
21
81.587000
0
LINE
8
Layer 2
10
52.625000
20
81.587000
11
52.625000
21
68.587000
0
LINE
8
Layer 2
10
52.625000
20
68.587000
11
52.478553
21
68.233447
0
LINE
8
Layer 2
10
52.478553
20
68.233447
11
52.125000
21
68.087000
0
LINE
8
Layer 2
10
52.125000
20
68.087000
11
39.125000
21
68.087000
0
LINE
8
Layer 2
10
39.125000
20
68.087000
11
38.771447
21
68.233447
0
LINE
8
Layer 2
10
38.771447
20
68.233447
11
38.625000
21
68.587000
0
LINE
8
Layer 2
10
38.625000
20
68.587000
11
38.625000
21
81.587000
0
LINE
8
Layer 2
10
38.625000
20
81.587000
11
38.771447
21
81.940553
0
LINE
8
Layer 2
10
38.771447
20
81.940553
11
39.125000
21
82.087000
0
LINE
8
Layer 2
10
39.125000
20
82.087000
11
39.125000
21
82.087000
0
LINE
8
Layer 2
10
15.313000
20
82.087000
11
28.313000
21
82.087000
0
LINE
8
Layer 2
10
28.313000
20
82.087000
11
28.666553
21
81.940553
0
LINE
8
Layer 2
10
28.666553
20
81.940553
11
28.813000
21
81.587000
0
LINE
8
Layer 2
10
28.813000
20
81.587000
11
28.813000
21
68.587000
0
LINE
8
Layer 2
10
28.813000
20
68.587000
11
28.666553
21
68.233447
0
LINE
8
Layer 2
10
28.666553
20
68.233447
11
28.313000
21
68.087000
0
LINE
8
Layer 2
10
28.313000
20
68.087000
11
15.313000
21
68.087000
0
LINE
8
Layer 2
10
15.313000
20
68.087000
11
14.959447
21
68.233447
0
LINE
8
Layer 2
10
14.959447
20
68.233447
11
14.813000
21
68.587000
0
LINE
8
Layer 2
10
14.813000
20
68.587000
11
14.813000
21
81.587000
0
LINE
8
Layer 2
10
14.813000
20
81.587000
11
14.959447
21
81.940553
0
LINE
8
Layer 2
10
14.959447
20
81.940553
11
15.313000
21
82.087000
0
LINE
8
Layer 2
10
15.313000
20
82.087000
11
15.313000
21
82.087000
0
LINE
8
Layer 2
10
339.163000
20
101.137000
11
352.163000
21
101.137000
0
LINE
8
Layer 2
10
352.163000
20
101.137000
11
352.516553
21
100.990553
0
LINE
8
Layer 2
10
352.516553
20
100.990553
11
352.663000
21
100.637000
0
LINE
8
Layer 2
10
352.663000
20
100.637000
11
352.663000
21
87.637000
0
LINE
8
Layer 2
10
352.663000
20
87.637000
11
352.516553
21
87.283447
0
LINE
8
Layer 2
10
352.516553
20
87.283447
11
352.163000
21
87.137000
0
LINE
8
Layer 2
10
352.163000
20
87.137000
11
339.163000
21
87.137000
0
LINE
8
Layer 2
10
339.163000
20
87.137000
11
338.809447
21
87.283447
0
LINE
8
Layer 2
10
338.809447
20
87.283447
11
338.663000
21
87.637000
0
LINE
8
Layer 2
10
338.663000
20
87.637000
11
338.663000
21
100.637000
0
LINE
8
Layer 2
10
338.663000
20
100.637000
11
338.809447
21
100.990553
0
LINE
8
Layer 2
10
338.809447
20
100.990553
11
339.163000
21
101.137000
0
LINE
8
Layer 2
10
339.163000
20
101.137000
11
339.163000
21
101.137000
0
LINE
8
Layer 2
10
320.113000
20
101.137000
11
333.113000
21
101.137000
0
LINE
8
Layer 2
10
333.113000
20
101.137000
11
333.466553
21
100.990553
0
LINE
8
Layer 2
10
333.466553
20
100.990553
11
333.613000
21
100.637000
0
LINE
8
Layer 2
10
333.613000
20
100.637000
11
333.613000
21
87.637000
0
LINE
8
Layer 2
10
333.613000
20
87.637000
11
333.466553
21
87.283447
0
LINE
8
Layer 2
10
333.466553
20
87.283447
11
333.113000
21
87.137000
0
LINE
8
Layer 2
10
333.113000
20
87.137000
11
320.113000
21
87.137000
0
LINE
8
Layer 2
10
320.113000
20
87.137000
11
319.759447
21
87.283447
0
LINE
8
Layer 2
10
319.759447
20
87.283447
11
319.613000
21
87.637000
0
LINE
8
Layer 2
10
319.613000
20
87.637000
11
319.613000
21
100.637000
0
LINE
8
Layer 2
10
319.613000
20
100.637000
11
319.759447
21
100.990553
0
LINE
8
Layer 2
10
319.759447
20
100.990553
11
320.113000
21
101.137000
0
LINE
8
Layer 2
10
320.113000
20
101.137000
11
320.113000
21
101.137000
0
LINE
8
Layer 2
10
301.063000
20
101.137000
11
314.063000
21
101.137000
0
LINE
8
Layer 2
10
314.063000
20
101.137000
11
314.416553
21
100.990553
0
LINE
8
Layer 2
10
314.416553
20
100.990553
11
314.563000
21
100.637000
0
LINE
8
Layer 2
10
314.563000
20
100.637000
11
314.563000
21
87.637000
0
LINE
8
Layer 2
10
314.563000
20
87.637000
11
314.416553
21
87.283447
0
LINE
8
Layer 2
10
314.416553
20
87.283447
11
314.063000
21
87.137000
0
LINE
8
Layer 2
10
314.063000
20
87.137000
11
301.063000
21
87.137000
0
LINE
8
Layer 2
10
301.063000
20
87.137000
11
300.709447
21
87.283447
0
LINE
8
Layer 2
10
300.709447
20
87.283447
11
300.563000
21
87.637000
0
LINE
8
Layer 2
10
300.563000
20
87.637000
11
300.563000
21
100.637000
0
LINE
8
Layer 2
10
300.563000
20
100.637000
11
300.709447
21
100.990553
0
LINE
8
Layer 2
10
300.709447
20
100.990553
11
301.063000
21
101.137000
0
LINE
8
Layer 2
10
301.063000
20
101.137000
11
301.063000
21
101.137000
0
LINE
8
Layer 2
10
239.150000
20
101.137000
11
252.150000
21
101.137000
0
LINE
8
Layer 2
10
252.150000
20
101.137000
11
252.503553
21
100.990553
0
LINE
8
Layer 2
10
252.503553
20
100.990553
11
252.650000
21
100.637000
0
LINE
8
Layer 2
10
252.650000
20
100.637000
11
252.650000
21
87.637000
0
LINE
8
Layer 2
10
252.650000
20
87.637000
11
252.503553
21
87.283447
0
LINE
8
Layer 2
10
252.503553
20
87.283447
11
252.150000
21
87.137000
0
LINE
8
Layer 2
10
252.150000
20
87.137000
11
239.150000
21
87.137000
0
LINE
8
Layer 2
10
239.150000
20
87.137000
11
238.796447
21
87.283447
0
LINE
8
Layer 2
10
238.796447
20
87.283447
11
238.650000
21
87.637000
0
LINE
8
Layer 2
10
238.650000
20
87.637000
11
238.650000
21
100.637000
0
LINE
8
Layer 2
10
238.650000
20
100.637000
11
238.796447
21
100.990553
0
LINE
8
Layer 2
10
238.796447
20
100.990553
11
239.150000
21
101.137000
0
LINE
8
Layer 2
10
239.150000
20
101.137000
11
239.150000
21
101.137000
0
LINE
8
Layer 2
10
220.100000
20
101.137000
11
233.100000
21
101.137000
0
LINE
8
Layer 2
10
233.100000
20
101.137000
11
233.453553
21
100.990553
0
LINE
8
Layer 2
10
233.453553
20
100.990553
11
233.600000
21
100.637000
0
LINE
8
Layer 2
10
233.600000
20
100.637000
11
233.600000
21
87.637000
0
LINE
8
Layer 2
10
233.600000
20
87.637000
11
233.453553
21
87.283447
0
LINE
8
Layer 2
10
233.453553
20
87.283447
11
233.100000
21
87.137000
0
LINE
8
Layer 2
10
233.100000
20
87.137000
11
220.100000
21
87.137000
0
LINE
8
Layer 2
10
220.100000
20
87.137000
11
219.746447
21
87.283447
0
LINE
8
Layer 2
10
219.746447
20
87.283447
11
219.600000
21
87.637000
0
LINE
8
Layer 2
10
219.600000
20
87.637000
11
219.600000
21
100.637000
0
LINE
8
Layer 2
10
219.600000
20
100.637000
11
219.746447
21
100.990553
0
LINE
8
Layer 2
10
219.746447
20
100.990553
11
220.100000
21
101.137000
0
LINE
8
Layer 2
10
220.100000
20
101.137000
11
220.100000
21
101.137000
0
LINE
8
Layer 2
10
201.050000
20
101.137000
11
214.050000
21
101.137000
0
LINE
8
Layer 2
10
214.050000
20
101.137000
11
214.403553
21
100.990553
0
LINE
8
Layer 2
10
214.403553
20
100.990553
11
214.550000
21
100.637000
0
LINE
8
Layer 2
10
214.550000
20
100.637000
11
214.550000
21
87.637000
0
LINE
8
Layer 2
10
214.550000
20
87.637000
11
214.403553
21
87.283447
0
LINE
8
Layer 2
10
214.403553
20
87.283447
11
214.050000
21
87.137000
0
LINE
8
Layer 2
10
214.050000
20
87.137000
11
201.050000
21
87.137000
0
LINE
8
Layer 2
10
201.050000
20
87.137000
11
200.696447
21
87.283447
0
LINE
8
Layer 2
10
200.696447
20
87.283447
11
200.550000
21
87.637000
0
LINE
8
Layer 2
10
200.550000
20
87.637000
11
200.550000
21
100.637000
0
LINE
8
Layer 2
10
200.550000
20
100.637000
11
200.696447
21
100.990553
0
LINE
8
Layer 2
10
200.696447
20
100.990553
11
201.050000
21
101.137000
0
LINE
8
Layer 2
10
201.050000
20
101.137000
11
201.050000
21
101.137000
0
LINE
8
Layer 2
10
182.000000
20
101.137000
11
195.000000
21
101.137000
0
LINE
8
Layer 2
10
195.000000
20
101.137000
11
195.353553
21
100.990553
0
LINE
8
Layer 2
10
195.353553
20
100.990553
11
195.500000
21
100.637000
0
LINE
8
Layer 2
10
195.500000
20
100.637000
11
195.500000
21
87.637000
0
LINE
8
Layer 2
10
195.500000
20
87.637000
11
195.353553
21
87.283447
0
LINE
8
Layer 2
10
195.353553
20
87.283447
11
195.000000
21
87.137000
0
LINE
8
Layer 2
10
195.000000
20
87.137000
11
182.000000
21
87.137000
0
LINE
8
Layer 2
10
182.000000
20
87.137000
11
181.646447
21
87.283447
0
LINE
8
Layer 2
10
181.646447
20
87.283447
11
181.500000
21
87.637000
0
LINE
8
Layer 2
10
181.500000
20
87.637000
11
181.500000
21
100.637000
0
LINE
8
Layer 2
10
181.500000
20
100.637000
11
181.646447
21
100.990553
0
LINE
8
Layer 2
10
181.646447
20
100.990553
11
182.000000
21
101.137000
0
LINE
8
Layer 2
10
182.000000
20
101.137000
11
182.000000
21
101.137000
0
LINE
8
Layer 2
10
162.950000
20
101.137000
11
175.950000
21
101.137000
0
LINE
8
Layer 2
10
175.950000
20
101.137000
11
176.303553
21
100.990553
0
LINE
8
Layer 2
10
176.303553
20
100.990553
11
176.450000
21
100.637000
0
LINE
8
Layer 2
10
176.450000
20
100.637000
11
176.450000
21
87.637000
0
LINE
8
Layer 2
10
176.450000
20
87.637000
11
176.303553
21
87.283447
0
LINE
8
Layer 2
10
176.303553
20
87.283447
11
175.950000
21
87.137000
0
LINE
8
Layer 2
10
175.950000
20
87.137000
11
162.950000
21
87.137000
0
LINE
8
Layer 2
10
162.950000
20
87.137000
11
162.596447
21
87.283447
0
LINE
8
Layer 2
10
162.596447
20
87.283447
11
162.450000
21
87.637000
0
LINE
8
Layer 2
10
162.450000
20
87.637000
11
162.450000
21
100.637000
0
LINE
8
Layer 2
10
162.450000
20
100.637000
11
162.596447
21
100.990553
0
LINE
8
Layer 2
10
162.596447
20
100.990553
11
162.950000
21
101.137000
0
LINE
8
Layer 2
10
162.950000
20
101.137000
11
162.950000
21
101.137000
0
LINE
8
Layer 2
10
143.900000
20
101.137000
11
156.900000
21
101.137000
0
LINE
8
Layer 2
10
156.900000
20
101.137000
11
157.253553
21
100.990553
0
LINE
8
Layer 2
10
157.253553
20
100.990553
11
157.400000
21
100.637000
0
LINE
8
Layer 2
10
157.400000
20
100.637000
11
157.400000
21
87.637000
0
LINE
8
Layer 2
10
157.400000
20
87.637000
11
157.253553
21
87.283447
0
LINE
8
Layer 2
10
157.253553
20
87.283447
11
156.900000
21
87.137000
0
LINE
8
Layer 2
10
156.900000
20
87.137000
11
143.900000
21
87.137000
0
LINE
8
Layer 2
10
143.900000
20
87.137000
11
143.546447
21
87.283447
0
LINE
8
Layer 2
10
143.546447
20
87.283447
11
143.400000
21
87.637000
0
LINE
8
Layer 2
10
143.400000
20
87.637000
11
143.400000
21
100.637000
0
LINE
8
Layer 2
10
143.400000
20
100.637000
11
143.546447
21
100.990553
0
LINE
8
Layer 2
10
143.546447
20
100.990553
11
143.900000
21
101.137000
0
LINE
8
Layer 2
10
143.900000
20
101.137000
11
143.900000
21
101.137000
0
LINE
8
Layer 2
10
105.800000
20
101.137000
11
118.800000
21
101.137000
0
LINE
8
Layer 2
10
118.800000
20
101.137000
11
119.153553
21
100.990553
0
LINE
8
Layer 2
10
119.153553
20
100.990553
11
119.300000
21
100.637000
0
LINE
8
Layer 2
10
119.300000
20
100.637000
11
119.300000
21
87.637000
0
LINE
8
Layer 2
10
119.300000
20
87.637000
11
119.153553
21
87.283447
0
LINE
8
Layer 2
10
119.153553
20
87.283447
11
118.800000
21
87.137000
0
LINE
8
Layer 2
10
118.800000
20
87.137000
11
105.800000
21
87.137000
0
LINE
8
Layer 2
10
105.800000
20
87.137000
11
105.446447
21
87.283447
0
LINE
8
Layer 2
10
105.446447
20
87.283447
11
105.300000
21
87.637000
0
LINE
8
Layer 2
10
105.300000
20
87.637000
11
105.300000
21
100.637000
0
LINE
8
Layer 2
10
105.300000
20
100.637000
11
105.446447
21
100.990553
0
LINE
8
Layer 2
10
105.446447
20
100.990553
11
105.800000
21
101.137000
0
LINE
8
Layer 2
10
105.800000
20
101.137000
11
105.800000
21
101.137000
0
LINE
8
Layer 2
10
86.750000
20
101.137000
11
99.750000
21
101.137000
0
LINE
8
Layer 2
10
99.750000
20
101.137000
11
100.103553
21
100.990553
0
LINE
8
Layer 2
10
100.103553
20
100.990553
11
100.250000
21
100.637000
0
LINE
8
Layer 2
10
100.250000
20
100.637000
11
100.250000
21
87.637000
0
LINE
8
Layer 2
10
100.250000
20
87.637000
11
100.103553
21
87.283447
0
LINE
8
Layer 2
10
100.103553
20
87.283447
11
99.750000
21
87.137000
0
LINE
8
Layer 2
10
99.750000
20
87.137000
11
86.750000
21
87.137000
0
LINE
8
Layer 2
10
86.750000
20
87.137000
11
86.396447
21
87.283447
0
LINE
8
Layer 2
10
86.396447
20
87.283447
11
86.250000
21
87.637000
0
LINE
8
Layer 2
10
86.250000
20
87.637000
11
86.250000
21
100.637000
0
LINE
8
Layer 2
10
86.250000
20
100.637000
11
86.396447
21
100.990553
0
LINE
8
Layer 2
10
86.396447
20
100.990553
11
86.750000
21
101.137000
0
LINE
8
Layer 2
10
86.750000
20
101.137000
11
86.750000
21
101.137000
0
LINE
8
Layer 2
10
67.700000
20
101.137000
11
80.700000
21
101.137000
0
LINE
8
Layer 2
10
80.700000
20
101.137000
11
81.053553
21
100.990553
0
LINE
8
Layer 2
10
81.053553
20
100.990553
11
81.200000
21
100.637000
0
LINE
8
Layer 2
10
81.200000
20
100.637000
11
81.200000
21
87.637000
0
LINE
8
Layer 2
10
81.200000
20
87.637000
11
81.053553
21
87.283447
0
LINE
8
Layer 2
10
81.053553
20
87.283447
11
80.700000
21
87.137000
0
LINE
8
Layer 2
10
80.700000
20
87.137000
11
67.700000
21
87.137000
0
LINE
8
Layer 2
10
67.700000
20
87.137000
11
67.346447
21
87.283447
0
LINE
8
Layer 2
10
67.346447
20
87.283447
11
67.200000
21
87.637000
0
LINE
8
Layer 2
10
67.200000
20
87.637000
11
67.200000
21
100.637000
0
LINE
8
Layer 2
10
67.200000
20
100.637000
11
67.346447
21
100.990553
0
LINE
8
Layer 2
10
67.346447
20
100.990553
11
67.700000
21
101.137000
0
LINE
8
Layer 2
10
67.700000
20
101.137000
11
67.700000
21
101.137000
0
LINE
8
Layer 2
10
48.650000
20
101.137000
11
61.650000
21
101.137000
0
LINE
8
Layer 2
10
61.650000
20
101.137000
11
62.003553
21
100.990553
0
LINE
8
Layer 2
10
62.003553
20
100.990553
11
62.150000
21
100.637000
0
LINE
8
Layer 2
10
62.150000
20
100.637000
11
62.150000
21
87.637000
0
LINE
8
Layer 2
10
62.150000
20
87.637000
11
62.003553
21
87.283447
0
LINE
8
Layer 2
10
62.003553
20
87.283447
11
61.650000
21
87.137000
0
LINE
8
Layer 2
10
61.650000
20
87.137000
11
48.650000
21
87.137000
0
LINE
8
Layer 2
10
48.650000
20
87.137000
11
48.296447
21
87.283447
0
LINE
8
Layer 2
10
48.296447
20
87.283447
11
48.150000
21
87.637000
0
LINE
8
Layer 2
10
48.150000
20
87.637000
11
48.150000
21
100.637000
0
LINE
8
Layer 2
10
48.150000
20
100.637000
11
48.296447
21
100.990553
0
LINE
8
Layer 2
10
48.296447
20
100.990553
11
48.650000
21
101.137000
0
LINE
8
Layer 2
10
48.650000
20
101.137000
11
48.650000
21
101.137000
0
LINE
8
Layer 2
10
29.600000
20
101.137000
11
42.600000
21
101.137000
0
LINE
8
Layer 2
10
42.600000
20
101.137000
11
42.953553
21
100.990553
0
LINE
8
Layer 2
10
42.953553
20
100.990553
11
43.100000
21
100.637000
0
LINE
8
Layer 2
10
43.100000
20
100.637000
11
43.100000
21
87.637000
0
LINE
8
Layer 2
10
43.100000
20
87.637000
11
42.953553
21
87.283447
0
LINE
8
Layer 2
10
42.953553
20
87.283447
11
42.600000
21
87.137000
0
LINE
8
Layer 2
10
42.600000
20
87.137000
11
29.600000
21
87.137000
0
LINE
8
Layer 2
10
29.600000
20
87.137000
11
29.246447
21
87.283447
0
LINE
8
Layer 2
10
29.246447
20
87.283447
11
29.100000
21
87.637000
0
LINE
8
Layer 2
10
29.100000
20
87.637000
11
29.100000
21
100.637000
0
LINE
8
Layer 2
10
29.100000
20
100.637000
11
29.246447
21
100.990553
0
LINE
8
Layer 2
10
29.246447
20
100.990553
11
29.600000
21
101.137000
0
LINE
8
Layer 2
10
29.600000
20
101.137000
11
29.600000
21
101.137000
0
LINE
8
Layer 2
10
166.450000
20
26.937000
11
172.450000
21
26.937000
0
LINE
8
Layer 2
10
172.450000
20
26.937000
11
172.803553
21
26.790553
0
LINE
8
Layer 2
10
172.803553
20
26.790553
11
172.950000
21
26.437000
0
LINE
8
Layer 2
10
172.950000
20
26.437000
11
172.950000
21
12.437000
0
LINE
8
Layer 2
10
172.950000
20
12.437000
11
172.803553
21
12.083447
0
LINE
8
Layer 2
10
172.803553
20
12.083447
11
172.450000
21
11.937000
0
LINE
8
Layer 2
10
172.450000
20
11.937000
11
166.450000
21
11.937000
0
LINE
8
Layer 2
10
166.450000
20
11.937000
11
166.096447
21
12.083447
0
LINE
8
Layer 2
10
166.096447
20
12.083447
11
165.950000
21
12.437000
0
LINE
8
Layer 2
10
165.950000
20
12.437000
11
165.950000
21
26.437000
0
LINE
8
Layer 2
10
165.950000
20
26.437000
11
166.096447
21
26.790553
0
LINE
8
Layer 2
10
166.096447
20
26.790553
11
166.450000
21
26.937000
0
LINE
8
Layer 2
10
166.450000
20
26.937000
11
166.450000
21
26.937000
0
LINE
8
Layer 2
10
105.800000
20
24.937000
11
118.800000
21
24.937000
0
LINE
8
Layer 2
10
118.800000
20
24.937000
11
119.153553
21
24.790553
0
LINE
8
Layer 2
10
119.153553
20
24.790553
11
119.300000
21
24.437000
0
LINE
8
Layer 2
10
119.300000
20
24.437000
11
119.300000
21
11.437000
0
LINE
8
Layer 2
10
119.300000
20
11.437000
11
119.153553
21
11.083447
0
LINE
8
Layer 2
10
119.153553
20
11.083447
11
118.800000
21
10.937000
0
LINE
8
Layer 2
10
118.800000
20
10.937000
11
105.800000
21
10.937000
0
LINE
8
Layer 2
10
105.800000
20
10.937000
11
105.446447
21
11.083447
0
LINE
8
Layer 2
10
105.446447
20
11.083447
11
105.300000
21
11.437000
0
LINE
8
Layer 2
10
105.300000
20
11.437000
11
105.300000
21
24.437000
0
LINE
8
Layer 2
10
105.300000
20
24.437000
11
105.446447
21
24.790553
0
LINE
8
Layer 2
10
105.446447
20
24.790553
11
105.800000
21
24.937000
0
LINE
8
Layer 2
10
105.800000
20
24.937000
11
105.800000
21
24.937000
 0 
ENDSEC
 0 
EOF