  0
SECTION
  2
HEADER
  9
$ACADVER
  1
AC1014
  9
$HANDSEED
  5
FFFF
  9
$INSUNITS
 70
     4
  9
$MEASUREMENT
 70
     1
  0
ENDSEC
  0
SECTION
  2
TABLES
  0
TABLE
  2
VPORT
  5
8
330
0
100
AcDbSymbolTable
 70
     4
  0
VPORT
  5
2E
330
8
100
AcDbSymbolTableRecord
100
AcDbViewportTableRecord
  2
*ACTIVE
 70
     0
 10
0.0
 20
0.0
 11
1.0
 21
1.0
 12
210.0
 22
148.5
 13
0.0
 23
0.0
 14
10.0
 24
10.0
 15
10.0
 25
10.0
 16
0.0
 26
0.0
 36
1.0
 17
0.0
 27
0.0
 37
0.0
 40
341.0
 41
1.24
 42
50.0
 43
0.0
 44
0.0
 50
0.0
 51
0.0
 71
     0
 72
   100
 73
     1
 74
     3
 75
     0
 76
     0
 77
     0
 78
     0
  0
ENDTAB
  0
TABLE
  2
LTYPE
  5
5
330
0
100
AcDbSymbolTable
 70
     1
  0
LTYPE
  5
14
330
5
100
AcDbSymbolTableRecord
100
AcDbLinetypeTableRecord
  2
BYBLOCK
 70
     0
  3

 72
    65
 73
     0
 40
0.0
  0
LTYPE
  5
15
330
5
100
AcDbSymbolTableRecord
100
AcDbLinetypeTableRecord
  2
BYLAYER
 70
     0
  3

 72
    65
 73
     0
 40
0.0
  0
LTYPE
  5
16
330
5
100
AcDbSymbolTableRecord
100
AcDbLinetypeTableRecord
  2
CONTINUOUS
 70
     0
  3
Solid line
 72
    65
 73
     0
 40
0.0
  0
ENDTAB
  0
TABLE
  2
LAYER
  5
2
100
AcDbSymbolTable
 70
2
  0
LAYER
  5
50
100
AcDbSymbolTableRecord
100
AcDbLayerTableRecord
  2
0
 70
0
  6
CONTINUOUS
  0
LAYER
  5
51
100
AcDbSymbolTableRecord
100
AcDbLayerTableRecord
  2
Layer_1
 70
0
  6
CONTINUOUS
  0
ENDTAB
  0
TABLE
  2
STYLE
  5
3
330
0
100
AcDbSymbolTable
 70
     1
  0
STYLE
  5
11
330
3
100
AcDbSymbolTableRecord
100
AcDbTextStyleTableRecord
  2
STANDARD
 70
     0
 40
0.0
 41
1.0
 50
0.0
 71
     0
 42
2.5
  3
txt
  4

  0
ENDTAB
  0
TABLE
  2
VIEW
  5
6
330
0
100
AcDbSymbolTable
 70
     0
  0
ENDTAB
  0
TABLE
  2
UCS
  5
7
330
0
100
AcDbSymbolTable
 70
     0
  0
ENDTAB
  0
TABLE
  2
APPID
  5
9
330
0
100
AcDbSymbolTable
 70
     2
  0
APPID
  5
12
330
9
100
AcDbSymbolTableRecord
100
AcDbRegAppTableRecord
  2
ACAD
 70
     0
  0
ENDTAB
  0
TABLE
  2
DIMSTYLE
  5
A
330
0
100
AcDbSymbolTable
 70
     1
  0
DIMSTYLE
105
27
330
A
100
AcDbSymbolTableRecord
100
AcDbDimStyleTableRecord
  2
ISO-25
 70
     0
  3

  4

  5

  6

  7

 40
1.0
 41
2.5
 42
0.625
 43
3.75
 44
1.25
 45
0.0
 46
0.0
 47
0.0
 48
0.0
140
2.5
141
2.5
142
0.0
143
0.03937007874016
144
1.0
145
0.0
146
1.0
147
0.625
 71
     0
 72
     0
 73
     0
 74
     0
 75
     0
 76
     0
 77
     1
 78
     8
170
     0
171
     3
172
     1
173
     0
174
     0
175
     0
176
     0
177
     0
178
     0
270
     2
271
     2
272
     2
273
     2
274
     3
340
11
275
     0
280
     0
281
     0
282
     0
283
     0
284
     8
285
     0
286
     0
287
     3
288
     0
  0
ENDTAB
  0
TABLE
  2
BLOCK_RECORD
  5
1
330
0
100
AcDbSymbolTable
 70
     1
  0
BLOCK_RECORD
  5
1F
330
1
100
AcDbSymbolTableRecord
100
AcDbBlockTableRecord
  2
*MODEL_SPACE
  0
BLOCK_RECORD
  5
1B
330
1
100
AcDbSymbolTableRecord
100
AcDbBlockTableRecord
  2
*PAPER_SPACE
  0
ENDTAB
  0
ENDSEC
  0
SECTION
  2
BLOCKS
  0
BLOCK
  5
20
330
1F
100
AcDbEntity
  8
0
100
AcDbBlockBegin
  2
*MODEL_SPACE
 70
     0
 10
0.0
 20
0.0
 30
0.0
  3
*MODEL_SPACE
  1

  0
ENDBLK
  5
21
330
1F
100
AcDbEntity
  8
0
100
AcDbBlockEnd
  0
BLOCK
  5
1C
330
1B
100
AcDbEntity
 67
     1
  8
0
100
AcDbBlockBegin
  2
*PAPER_SPACE
  1

  0
ENDBLK
  5
1D
330
1B
100
AcDbEntity
 67
     1
  8
0
100
AcDbBlockEnd
  0
ENDSEC
  0
SECTION
  2
ENTITIES
  0
SPLINE
  5
100
100
AcDbEntity
  8
Layer_1
 62
7
100
AcDbSpline
 70
8
 71
3
 72
8
 73
4
 74
0
 40
0
 40
0
 40
0
 40
0
 40
1
 40
1
 40
1
 40
1
 10
122.967275
 20
120.000000
 30
0.0
 10
124.567256
 20
120.000000
 30
0.0
 10
126.101706
 20
119.363519
 30
0.0
 10
127.233063
 20
118.230576
 30
0.0
  0
SPLINE
  5
101
100
AcDbEntity
  8
Layer_1
 62
7
100
AcDbSpline
 70
8
 71
3
 72
8
 73
4
 74
0
 40
0
 40
0
 40
0
 40
0
 40
1
 40
1
 40
1
 40
1
 10
127.233063
 20
118.230576
 30
0.0
 10
128.364421
 20
117.097633
 30
0.0
 10
129.000011
 20
115.561033
 30
0.0
 10
129.000011
 20
113.958810
 30
0.0
  0
LWPOLYLINE
  5
102
100
AcDbEntity
  8
Layer_1
 62
7
100
AcDbPolyline
 90
2
 70
0
 10
6.032736
 20
120.000000
 30
0.0
 10
122.967275
 20
120.000000
 30
0.0
  0
SPLINE
  5
103
100
AcDbEntity
  8
Layer_1
 62
7
100
AcDbSpline
 70
8
 71
3
 72
8
 73
4
 74
0
 40
0
 40
0
 40
0
 40
0
 40
1
 40
1
 40
1
 40
1
 10
129.000011
 20
16.041181
 30
0.0
 10
129.000011
 20
14.438958
 30
0.0
 10
128.364421
 20
12.902357
 30
0.0
 10
127.233063
 20
11.769414
 30
0.0
  0
SPLINE
  5
104
100
AcDbEntity
  8
Layer_1
 62
7
100
AcDbSpline
 70
8
 71
3
 72
8
 73
4
 74
0
 40
0
 40
0
 40
0
 40
0
 40
1
 40
1
 40
1
 40
1
 10
127.233063
 20
11.769414
 30
0.0
 10
126.101706
 20
10.636472
 30
0.0
 10
124.567256
 20
9.999991
 30
0.0
 10
122.967275
 20
9.999991
 30
0.0
  0
LWPOLYLINE
  5
105
100
AcDbEntity
  8
Layer_1
 62
7
100
AcDbPolyline
 90
2
 70
0
 10
129.000011
 20
113.958810
 30
0.0
 10
129.000011
 20
16.041181
 30
0.0
  0
SPLINE
  5
106
100
AcDbEntity
  8
Layer_1
 62
7
100
AcDbSpline
 70
8
 71
3
 72
8
 73
4
 74
0
 40
0
 40
0
 40
0
 40
0
 40
1
 40
1
 40
1
 40
1
 10
6.032736
 20
9.999991
 30
0.0
 10
4.432755
 20
9.999991
 30
0.0
 10
2.898305
 20
10.636472
 30
0.0
 10
1.766947
 20
11.769414
 30
0.0
  0
SPLINE
  5
107
100
AcDbEntity
  8
Layer_1
 62
7
100
AcDbSpline
 70
8
 71
3
 72
8
 73
4
 74
0
 40
0
 40
0
 40
0
 40
0
 40
1
 40
1
 40
1
 40
1
 10
1.766947
 20
11.769414
 30
0.0
 10
0.635590
 20
12.902357
 30
0.0
 10
-0.000000
 20
14.438958
 30
0.0
 10
-0.000000
 20
16.041181
 30
0.0
  0
LWPOLYLINE
  5
108
100
AcDbEntity
  8
Layer_1
 62
7
100
AcDbPolyline
 90
2
 70
0
 10
122.967275
 20
9.999991
 30
0.0
 10
6.032736
 20
9.999991
 30
0.0
  0
SPLINE
  5
109
100
AcDbEntity
  8
Layer_1
 62
7
100
AcDbSpline
 70
8
 71
3
 72
8
 73
4
 74
0
 40
0
 40
0
 40
0
 40
0
 40
1
 40
1
 40
1
 40
1
 10
-0.000000
 20
113.958810
 30
0.0
 10
-0.000000
 20
115.561033
 30
0.0
 10
0.635590
 20
117.097633
 30
0.0
 10
1.766947
 20
118.230576
 30
0.0
  0
SPLINE
  5
10a
100
AcDbEntity
  8
Layer_1
 62
7
100
AcDbSpline
 70
8
 71
3
 72
8
 73
4
 74
0
 40
0
 40
0
 40
0
 40
0
 40
1
 40
1
 40
1
 40
1
 10
1.766947
 20
118.230576
 30
0.0
 10
2.898305
 20
119.363519
 30
0.0
 10
4.432755
 20
120.000000
 30
0.0
 10
6.032736
 20
120.000000
 30
0.0
  0
LWPOLYLINE
  5
10b
100
AcDbEntity
  8
Layer_1
 62
7
100
AcDbPolyline
 90
2
 70
0
 10
-0.000000
 20
16.041181
 30
0.0
 10
-0.000000
 20
113.958810
 30
0.0
  0
LWPOLYLINE
  5
10c
100
AcDbEntity
  8
Layer_1
 62
7
100
AcDbPolyline
 90
1
 70
1
 10
6.032736
 20
120.000000
 30
0.0
  0
LWPOLYLINE
  5
10d
100
AcDbEntity
  8
Layer_1
 62
7
100
AcDbPolyline
 90
4
 70
1
 10
10.000001
 20
109.999999
 30
0.0
 10
24.000002
 20
109.999999
 30
0.0
 10
24.000002
 20
95.999998
 30
0.0
 10
10.000001
 20
95.999998
 30
0.0
  0
LWPOLYLINE
  5
10e
100
AcDbEntity
  8
Layer_1
 62
7
100
AcDbPolyline
 90
4
 70
1
 10
29.050002
 20
109.999999
 30
0.0
 10
43.050004
 20
109.999999
 30
0.0
 10
43.050004
 20
95.999998
 30
0.0
 10
29.050002
 20
95.999998
 30
0.0
  0
LWPOLYLINE
  5
10f
100
AcDbEntity
  8
Layer_1
 62
7
100
AcDbPolyline
 90
4
 70
1
 10
48.100003
 20
109.999999
 30
0.0
 10
62.100004
 20
109.999999
 30
0.0
 10
62.100004
 20
95.999998
 30
0.0
 10
48.100003
 20
95.999998
 30
0.0
  0
LWPOLYLINE
  5
110
100
AcDbEntity
  8
Layer_1
 62
7
100
AcDbPolyline
 90
4
 70
1
 10
67.150005
 20
109.999999
 30
0.0
 10
81.150006
 20
109.999999
 30
0.0
 10
81.150006
 20
95.999998
 30
0.0
 10
67.150005
 20
95.999998
 30
0.0
  0
LWPOLYLINE
  5
111
100
AcDbEntity
  8
Layer_1
 62
7
100
AcDbPolyline
 90
4
 70
1
 10
86.200006
 20
109.999999
 30
0.0
 10
100.200007
 20
109.999999
 30
0.0
 10
100.200007
 20
95.999998
 30
0.0
 10
86.200006
 20
95.999998
 30
0.0
  0
LWPOLYLINE
  5
112
100
AcDbEntity
  8
Layer_1
 62
7
100
AcDbPolyline
 90
4
 70
1
 10
105.250008
 20
109.999999
 30
0.0
 10
119.250009
 20
109.999999
 30
0.0
 10
119.250009
 20
95.999998
 30
0.0
 10
105.250008
 20
95.999998
 30
0.0
  0
LWPOLYLINE
  5
113
100
AcDbEntity
  8
Layer_1
 62
7
100
AcDbPolyline
 90
4
 70
1
 10
10.000001
 20
90.949995
 30
0.0
 10
24.000002
 20
90.949995
 30
0.0
 10
24.000002
 20
76.949993
 30
0.0
 10
10.000001
 20
76.949993
 30
0.0
  0
LWPOLYLINE
  5
114
100
AcDbEntity
  8
Layer_1
 62
7
100
AcDbPolyline
 90
4
 70
1
 10
29.050005
 20
90.949995
 30
0.0
 10
43.050007
 20
90.949995
 30
0.0
 10
43.050007
 20
76.949993
 30
0.0
 10
29.050005
 20
76.949993
 30
0.0
  0
LWPOLYLINE
  5
115
100
AcDbEntity
  8
Layer_1
 62
7
100
AcDbPolyline
 90
4
 70
1
 10
48.100010
 20
90.949995
 30
0.0
 10
62.100011
 20
90.949995
 30
0.0
 10
62.100011
 20
76.949993
 30
0.0
 10
48.100010
 20
76.949993
 30
0.0
  0
LWPOLYLINE
  5
116
100
AcDbEntity
  8
Layer_1
 62
7
100
AcDbPolyline
 90
4
 70
1
 10
67.150000
 20
90.949995
 30
0.0
 10
81.150001
 20
90.949995
 30
0.0
 10
81.150001
 20
76.949993
 30
0.0
 10
67.150000
 20
76.949993
 30
0.0
  0
LWPOLYLINE
  5
117
100
AcDbEntity
  8
Layer_1
 62
7
100
AcDbPolyline
 90
4
 70
1
 10
86.200004
 20
90.949995
 30
0.0
 10
100.200005
 20
90.949995
 30
0.0
 10
100.200005
 20
76.949993
 30
0.0
 10
86.200004
 20
76.949993
 30
0.0
  0
LWPOLYLINE
  5
118
100
AcDbEntity
  8
Layer_1
 62
7
100
AcDbPolyline
 90
4
 70
1
 10
105.250009
 20
90.949995
 30
0.0
 10
119.250010
 20
90.949995
 30
0.0
 10
119.250010
 20
76.949993
 30
0.0
 10
105.250009
 20
76.949993
 30
0.0
  0
LWPOLYLINE
  5
119
100
AcDbEntity
  8
Layer_1
 62
7
100
AcDbPolyline
 90
4
 70
1
 10
10.000001
 20
71.899998
 30
0.0
 10
24.000002
 20
71.899998
 30
0.0
 10
24.000002
 20
57.899997
 30
0.0
 10
10.000001
 20
57.899997
 30
0.0
  0
LWPOLYLINE
  5
11a
100
AcDbEntity
  8
Layer_1
 62
7
100
AcDbPolyline
 90
4
 70
1
 10
29.050001
 20
71.899998
 30
0.0
 10
43.050003
 20
71.899998
 30
0.0
 10
43.050003
 20
57.899997
 30
0.0
 10
29.050001
 20
57.899997
 30
0.0
  0
LWPOLYLINE
  5
11b
100
AcDbEntity
  8
Layer_1
 62
7
100
AcDbPolyline
 90
4
 70
1
 10
48.099999
 20
71.899998
 30
0.0
 10
62.100000
 20
71.899998
 30
0.0
 10
62.100000
 20
57.899997
 30
0.0
 10
48.099999
 20
57.899997
 30
0.0
  0
LWPOLYLINE
  5
11c
100
AcDbEntity
  8
Layer_1
 62
7
100
AcDbPolyline
 90
4
 70
1
 10
67.150000
 20
71.899998
 30
0.0
 10
81.150001
 20
71.899998
 30
0.0
 10
81.150001
 20
57.899997
 30
0.0
 10
67.150000
 20
57.899997
 30
0.0
  0
LWPOLYLINE
  5
11d
100
AcDbEntity
  8
Layer_1
 62
7
100
AcDbPolyline
 90
4
 70
1
 10
86.200004
 20
71.899998
 30
0.0
 10
100.200005
 20
71.899998
 30
0.0
 10
100.200005
 20
57.899997
 30
0.0
 10
86.200004
 20
57.899997
 30
0.0
  0
LWPOLYLINE
  5
11e
100
AcDbEntity
  8
Layer_1
 62
7
100
AcDbPolyline
 90
4
 70
1
 10
105.250009
 20
71.899998
 30
0.0
 10
119.250010
 20
71.899998
 30
0.0
 10
119.250010
 20
57.899997
 30
0.0
 10
105.250009
 20
57.899997
 30
0.0
  0
LWPOLYLINE
  5
11f
100
AcDbEntity
  8
Layer_1
 62
7
100
AcDbPolyline
 90
4
 70
1
 10
10.000001
 20
52.849994
 30
0.0
 10
24.000002
 20
52.849994
 30
0.0
 10
24.000002
 20
38.849993
 30
0.0
 10
10.000001
 20
38.849993
 30
0.0
  0
LWPOLYLINE
  5
120
100
AcDbEntity
  8
Layer_1
 62
7
100
AcDbPolyline
 90
4
 70
1
 10
29.049997
 20
52.849994
 30
0.0
 10
43.049999
 20
52.849994
 30
0.0
 10
43.049999
 20
38.849993
 30
0.0
 10
29.049997
 20
38.849993
 30
0.0
  0
LWPOLYLINE
  5
121
100
AcDbEntity
  8
Layer_1
 62
7
100
AcDbPolyline
 90
4
 70
1
 10
48.100002
 20
52.849994
 30
0.0
 10
62.100003
 20
52.849994
 30
0.0
 10
62.100003
 20
38.849993
 30
0.0
 10
48.100002
 20
38.849993
 30
0.0
  0
LWPOLYLINE
  5
122
100
AcDbEntity
  8
Layer_1
 62
7
100
AcDbPolyline
 90
4
 70
1
 10
67.149992
 20
52.849994
 30
0.0
 10
81.149993
 20
52.849994
 30
0.0
 10
81.149993
 20
38.849993
 30
0.0
 10
67.149992
 20
38.849993
 30
0.0
  0
LWPOLYLINE
  5
123
100
AcDbEntity
  8
Layer_1
 62
7
100
AcDbPolyline
 90
4
 70
1
 10
86.199996
 20
52.849994
 30
0.0
 10
100.199997
 20
52.849994
 30
0.0
 10
100.199997
 20
38.849993
 30
0.0
 10
86.199996
 20
38.849993
 30
0.0
  0
LWPOLYLINE
  5
124
100
AcDbEntity
  8
Layer_1
 62
7
100
AcDbPolyline
 90
4
 70
1
 10
105.249989
 20
52.849994
 30
0.0
 10
119.249990
 20
52.849994
 30
0.0
 10
119.249990
 20
38.849993
 30
0.0
 10
105.249989
 20
38.849993
 30
0.0
  0
LWPOLYLINE
  5
125
100
AcDbEntity
  8
Layer_1
 62
7
100
AcDbPolyline
 90
4
 70
1
 10
10.000001
 20
33.799993
 30
0.0
 10
24.000002
 20
33.799993
 30
0.0
 10
24.000002
 20
19.799992
 30
0.0
 10
10.000001
 20
19.799992
 30
0.0
  0
LWPOLYLINE
  5
126
100
AcDbEntity
  8
Layer_1
 62
7
100
AcDbPolyline
 90
4
 70
1
 10
29.049997
 20
33.799993
 30
0.0
 10
43.049999
 20
33.799993
 30
0.0
 10
43.049999
 20
19.799992
 30
0.0
 10
29.049997
 20
19.799992
 30
0.0
  0
LWPOLYLINE
  5
127
100
AcDbEntity
  8
Layer_1
 62
7
100
AcDbPolyline
 90
4
 70
1
 10
48.099999
 20
33.799993
 30
0.0
 10
62.100000
 20
33.799993
 30
0.0
 10
62.100000
 20
19.799992
 30
0.0
 10
48.099999
 20
19.799992
 30
0.0
  0
LWPOLYLINE
  5
128
100
AcDbEntity
  8
Layer_1
 62
7
100
AcDbPolyline
 90
4
 70
1
 10
67.149985
 20
33.799993
 30
0.0
 10
81.149986
 20
33.799993
 30
0.0
 10
81.149986
 20
19.799992
 30
0.0
 10
67.149985
 20
19.799992
 30
0.0
  0
LWPOLYLINE
  5
129
100
AcDbEntity
  8
Layer_1
 62
7
100
AcDbPolyline
 90
4
 70
1
 10
86.199989
 20
33.799993
 30
0.0
 10
100.199990
 20
33.799993
 30
0.0
 10
100.199990
 20
19.799992
 30
0.0
 10
86.199989
 20
19.799992
 30
0.0
  0
SPLINE
  5
12a
100
AcDbEntity
  8
Layer_1
 62
7
100
AcDbSpline
 70
8
 71
3
 72
8
 73
4
 74
0
 40
0
 40
0
 40
0
 40
0
 40
1
 40
1
 40
1
 40
1
 10
4.500000
 20
117.000000
 30
0.0
 10
3.893307
 20
117.000000
 30
0.0
 10
3.346352
 20
116.634536
 30
0.0
 10
3.114181
 20
116.074025
 30
0.0
  0
SPLINE
  5
12b
100
AcDbEntity
  8
Layer_1
 62
7
100
AcDbSpline
 70
8
 71
3
 72
8
 73
4
 74
0
 40
0
 40
0
 40
0
 40
0
 40
1
 40
1
 40
1
 40
1
 10
3.114181
 20
116.074025
 30
0.0
 10
2.882009
 20
115.513513
 30
0.0
 10
3.010343
 20
114.868336
 30
0.0
 10
3.439340
 20
114.439339
 30
0.0
  0
SPLINE
  5
12c
100
AcDbEntity
  8
Layer_1
 62
7
100
AcDbSpline
 70
8
 71
3
 72
8
 73
4
 74
0
 40
0
 40
0
 40
0
 40
0
 40
1
 40
1
 40
1
 40
1
 10
3.439340
 20
114.439339
 30
0.0
 10
3.868337
 20
114.010342
 30
0.0
 10
4.513514
 20
113.882009
 30
0.0
 10
5.074026
 20
114.114180
 30
0.0
  0
SPLINE
  5
12d
100
AcDbEntity
  8
Layer_1
 62
7
100
AcDbSpline
 70
8
 71
3
 72
8
 73
4
 74
0
 40
0
 40
0
 40
0
 40
0
 40
1
 40
1
 40
1
 40
1
 10
5.074026
 20
114.114180
 30
0.0
 10
5.634537
 20
114.346352
 30
0.0
 10
6.000001
 20
114.893306
 30
0.0
 10
6.000001
 20
115.500000
 30
0.0
  0
SPLINE
  5
12e
100
AcDbEntity
  8
Layer_1
 62
7
100
AcDbSpline
 70
8
 71
3
 72
8
 73
4
 74
0
 40
0
 40
0
 40
0
 40
0
 40
1
 40
1
 40
1
 40
1
 10
6.000001
 20
115.500000
 30
0.0
 10
6.000001
 20
115.897824
 30
0.0
 10
5.841965
 20
116.279355
 30
0.0
 10
5.560661
 20
116.560660
 30
0.0
  0
SPLINE
  5
12f
100
AcDbEntity
  8
Layer_1
 62
7
100
AcDbSpline
 70
8
 71
3
 72
8
 73
4
 74
0
 40
0
 40
0
 40
0
 40
0
 40
1
 40
1
 40
1
 40
1
 10
5.560661
 20
116.560660
 30
0.0
 10
5.279356
 20
116.841964
 30
0.0
 10
4.897825
 20
117.000000
 30
0.0
 10
4.500000
 20
117.000000
 30
0.0
  0
LWPOLYLINE
  5
130
100
AcDbEntity
  8
Layer_1
 62
7
100
AcDbPolyline
 90
4
 70
1
 10
105.249989
 20
33.799993
 30
0.0
 10
119.249990
 20
33.799993
 30
0.0
 10
119.249990
 20
19.799992
 30
0.0
 10
105.249989
 20
19.799992
 30
0.0
  0
SPLINE
  5
131
100
AcDbEntity
  8
Layer_1
 62
7
100
AcDbSpline
 70
8
 71
3
 72
8
 73
4
 74
0
 40
0
 40
0
 40
0
 40
0
 40
1
 40
1
 40
1
 40
1
 10
4.500000
 20
15.999991
 30
0.0
 10
3.893307
 20
15.999991
 30
0.0
 10
3.346352
 20
15.634528
 30
0.0
 10
3.114181
 20
15.074016
 30
0.0
  0
SPLINE
  5
132
100
AcDbEntity
  8
Layer_1
 62
7
100
AcDbSpline
 70
8
 71
3
 72
8
 73
4
 74
0
 40
0
 40
0
 40
0
 40
0
 40
1
 40
1
 40
1
 40
1
 10
3.114181
 20
15.074016
 30
0.0
 10
2.882009
 20
14.513505
 30
0.0
 10
3.010343
 20
13.868328
 30
0.0
 10
3.439340
 20
13.439331
 30
0.0
  0
SPLINE
  5
133
100
AcDbEntity
  8
Layer_1
 62
7
100
AcDbSpline
 70
8
 71
3
 72
8
 73
4
 74
0
 40
0
 40
0
 40
0
 40
0
 40
1
 40
1
 40
1
 40
1
 10
3.439340
 20
13.439331
 30
0.0
 10
3.868337
 20
13.010334
 30
0.0
 10
4.513514
 20
12.882000
 30
0.0
 10
5.074026
 20
13.114172
 30
0.0
  0
SPLINE
  5
134
100
AcDbEntity
  8
Layer_1
 62
7
100
AcDbSpline
 70
8
 71
3
 72
8
 73
4
 74
0
 40
0
 40
0
 40
0
 40
0
 40
1
 40
1
 40
1
 40
1
 10
5.074026
 20
13.114172
 30
0.0
 10
5.634537
 20
13.346343
 30
0.0
 10
6.000001
 20
13.893298
 30
0.0
 10
6.000001
 20
14.499991
 30
0.0
  0
SPLINE
  5
135
100
AcDbEntity
  8
Layer_1
 62
7
100
AcDbSpline
 70
8
 71
3
 72
8
 73
4
 74
0
 40
0
 40
0
 40
0
 40
0
 40
1
 40
1
 40
1
 40
1
 10
6.000001
 20
14.499991
 30
0.0
 10
6.000001
 20
14.897816
 30
0.0
 10
5.841965
 20
15.279347
 30
0.0
 10
5.560661
 20
15.560651
 30
0.0
  0
SPLINE
  5
136
100
AcDbEntity
  8
Layer_1
 62
7
100
AcDbSpline
 70
8
 71
3
 72
8
 73
4
 74
0
 40
0
 40
0
 40
0
 40
0
 40
1
 40
1
 40
1
 40
1
 10
5.560661
 20
15.560651
 30
0.0
 10
5.279356
 20
15.841956
 30
0.0
 10
4.897825
 20
15.999991
 30
0.0
 10
4.500000
 20
15.999991
 30
0.0
  0
LWPOLYLINE
  5
137
100
AcDbEntity
  8
Layer_1
 62
7
100
AcDbPolyline
 90
1
 70
1
 10
4.500000
 20
117.000000
 30
0.0
  0
SPLINE
  5
138
100
AcDbEntity
  8
Layer_1
 62
7
100
AcDbSpline
 70
8
 71
3
 72
8
 73
4
 74
0
 40
0
 40
0
 40
0
 40
0
 40
1
 40
1
 40
1
 40
1
 10
124.500010
 20
15.999991
 30
0.0
 10
123.893317
 20
15.999991
 30
0.0
 10
123.346362
 20
15.634528
 30
0.0
 10
123.114191
 20
15.074016
 30
0.0
  0
SPLINE
  5
139
100
AcDbEntity
  8
Layer_1
 62
7
100
AcDbSpline
 70
8
 71
3
 72
8
 73
4
 74
0
 40
0
 40
0
 40
0
 40
0
 40
1
 40
1
 40
1
 40
1
 10
123.114191
 20
15.074016
 30
0.0
 10
122.882019
 20
14.513505
 30
0.0
 10
123.010353
 20
13.868328
 30
0.0
 10
123.439350
 20
13.439331
 30
0.0
  0
SPLINE
  5
13a
100
AcDbEntity
  8
Layer_1
 62
7
100
AcDbSpline
 70
8
 71
3
 72
8
 73
4
 74
0
 40
0
 40
0
 40
0
 40
0
 40
1
 40
1
 40
1
 40
1
 10
123.439350
 20
13.439331
 30
0.0
 10
123.868347
 20
13.010334
 30
0.0
 10
124.513524
 20
12.882000
 30
0.0
 10
125.074036
 20
13.114172
 30
0.0
  0
SPLINE
  5
13b
100
AcDbEntity
  8
Layer_1
 62
7
100
AcDbSpline
 70
8
 71
3
 72
8
 73
4
 74
0
 40
0
 40
0
 40
0
 40
0
 40
1
 40
1
 40
1
 40
1
 10
125.074036
 20
13.114172
 30
0.0
 10
125.634547
 20
13.346343
 30
0.0
 10
126.000011
 20
13.893298
 30
0.0
 10
126.000011
 20
14.499991
 30
0.0
  0
SPLINE
  5
13c
100
AcDbEntity
  8
Layer_1
 62
7
100
AcDbSpline
 70
8
 71
3
 72
8
 73
4
 74
0
 40
0
 40
0
 40
0
 40
0
 40
1
 40
1
 40
1
 40
1
 10
126.000011
 20
14.499991
 30
0.0
 10
126.000011
 20
14.897816
 30
0.0
 10
125.841975
 20
15.279347
 30
0.0
 10
125.560671
 20
15.560651
 30
0.0
  0
SPLINE
  5
13d
100
AcDbEntity
  8
Layer_1
 62
7
100
AcDbSpline
 70
8
 71
3
 72
8
 73
4
 74
0
 40
0
 40
0
 40
0
 40
0
 40
1
 40
1
 40
1
 40
1
 10
125.560671
 20
15.560651
 30
0.0
 10
125.279366
 20
15.841956
 30
0.0
 10
124.897835
 20
15.999991
 30
0.0
 10
124.500010
 20
15.999991
 30
0.0
  0
LWPOLYLINE
  5
13e
100
AcDbEntity
  8
Layer_1
 62
7
100
AcDbPolyline
 90
1
 70
1
 10
4.500000
 20
15.999991
 30
0.0
  0
SPLINE
  5
13f
100
AcDbEntity
  8
Layer_1
 62
7
100
AcDbSpline
 70
8
 71
3
 72
8
 73
4
 74
0
 40
0
 40
0
 40
0
 40
0
 40
1
 40
1
 40
1
 40
1
 10
124.500010
 20
117.000000
 30
0.0
 10
123.893317
 20
117.000000
 30
0.0
 10
123.346362
 20
116.634536
 30
0.0
 10
123.114191
 20
116.074025
 30
0.0
  0
SPLINE
  5
140
100
AcDbEntity
  8
Layer_1
 62
7
100
AcDbSpline
 70
8
 71
3
 72
8
 73
4
 74
0
 40
0
 40
0
 40
0
 40
0
 40
1
 40
1
 40
1
 40
1
 10
123.114191
 20
116.074025
 30
0.0
 10
122.882019
 20
115.513513
 30
0.0
 10
123.010353
 20
114.868336
 30
0.0
 10
123.439350
 20
114.439339
 30
0.0
  0
SPLINE
  5
141
100
AcDbEntity
  8
Layer_1
 62
7
100
AcDbSpline
 70
8
 71
3
 72
8
 73
4
 74
0
 40
0
 40
0
 40
0
 40
0
 40
1
 40
1
 40
1
 40
1
 10
123.439350
 20
114.439339
 30
0.0
 10
123.868347
 20
114.010342
 30
0.0
 10
124.513524
 20
113.882009
 30
0.0
 10
125.074036
 20
114.114180
 30
0.0
  0
SPLINE
  5
142
100
AcDbEntity
  8
Layer_1
 62
7
100
AcDbSpline
 70
8
 71
3
 72
8
 73
4
 74
0
 40
0
 40
0
 40
0
 40
0
 40
1
 40
1
 40
1
 40
1
 10
125.074036
 20
114.114180
 30
0.0
 10
125.634547
 20
114.346352
 30
0.0
 10
126.000011
 20
114.893306
 30
0.0
 10
126.000011
 20
115.500000
 30
0.0
  0
SPLINE
  5
143
100
AcDbEntity
  8
Layer_1
 62
7
100
AcDbSpline
 70
8
 71
3
 72
8
 73
4
 74
0
 40
0
 40
0
 40
0
 40
0
 40
1
 40
1
 40
1
 40
1
 10
126.000011
 20
115.500000
 30
0.0
 10
126.000011
 20
115.897824
 30
0.0
 10
125.841975
 20
116.279355
 30
0.0
 10
125.560671
 20
116.560660
 30
0.0
  0
SPLINE
  5
144
100
AcDbEntity
  8
Layer_1
 62
7
100
AcDbSpline
 70
8
 71
3
 72
8
 73
4
 74
0
 40
0
 40
0
 40
0
 40
0
 40
1
 40
1
 40
1
 40
1
 10
125.560671
 20
116.560660
 30
0.0
 10
125.279366
 20
116.841964
 30
0.0
 10
124.897835
 20
117.000000
 30
0.0
 10
124.500010
 20
117.000000
 30
0.0
  0
LWPOLYLINE
  5
145
100
AcDbEntity
  8
Layer_1
 62
7
100
AcDbPolyline
 90
1
 70
1
 10
124.500010
 20
15.999991
 30
0.0
  0
LWPOLYLINE
  5
146
100
AcDbEntity
  8
Layer_1
 62
7
100
AcDbPolyline
 90
1
 70
1
 10
124.500010
 20
117.000000
 30
0.0
  0
ENDSEC
  0
SECTION
  2
OBJECTS
  0
DICTIONARY
  5
C
330
0
100
AcDbDictionary
  3
ACAD_GROUP
350
D
  3
ACAD_MLINESTYLE
350
17
  0
DICTIONARY
  5
D
330
C
100
AcDbDictionary
  0
DICTIONARY
  5
1A
330
C
100
AcDbDictionary
  0
DICTIONARY
  5
17
330
C
100
AcDbDictionary
  3
STANDARD
350
18
  0
DICTIONARY
  5
19
330
C
100
AcDbDictionary
  0
ENDSEC
  0
EOF
