999
"DXF R12 Output" (www.mydxf.blogspot.com)
 0 
SECTION
 2 
HEADER
 9 
$ACADVER
 1 
AC1009
 9 
$EXTMIN
 10 
 0 
 20 
 0 
 9 
$EXTMAX
 10 
 8.5 
 20 
 11 
 0 
ENDSEC
 0 
SECTION
 2 
ENTITIES
0
LINE
8
Layer 1
10
6.032735
20
120.000000
11
122.967265
21
120.000000
0
LINE
8
Layer 1
10
122.967265
20
120.000000
11
124.149689
21
119.882848
0
LINE
8
Layer 1
10
124.149689
20
119.882848
11
125.275893
21
119.540142
0
LINE
8
Layer 1
10
125.275893
20
119.540142
11
126.314229
21
118.985009
0
LINE
8
Layer 1
10
126.314229
20
118.985009
11
127.233053
21
118.230577
0
LINE
8
Layer 1
10
127.233053
20
118.230577
11
127.986430
21
117.310465
0
LINE
8
Layer 1
10
127.986430
20
117.310465
11
128.540785
21
116.270674
0
LINE
8
Layer 1
10
128.540785
20
116.270674
11
128.883012
21
115.142892
0
LINE
8
Layer 1
10
128.883012
20
115.142892
11
129.000000
21
113.958810
0
LINE
8
Layer 1
10
129.000000
20
113.958810
11
129.000000
21
16.041190
0
LINE
8
Layer 1
10
129.000000
20
16.041190
11
128.883012
21
14.857108
0
LINE
8
Layer 1
10
128.883012
20
14.857108
11
128.540785
21
13.729326
0
LINE
8
Layer 1
10
128.540785
20
13.729326
11
127.986430
21
12.689535
0
LINE
8
Layer 1
10
127.986430
20
12.689535
11
127.233053
21
11.769423
0
LINE
8
Layer 1
10
127.233053
20
11.769423
11
126.314229
21
11.014991
0
LINE
8
Layer 1
10
126.314229
20
11.014991
11
125.275893
21
10.459858
0
LINE
8
Layer 1
10
125.275893
20
10.459858
11
124.149689
21
10.117152
0
LINE
8
Layer 1
10
124.149689
20
10.117152
11
122.967265
21
10.000000
0
LINE
8
Layer 1
10
122.967265
20
10.000000
11
6.032735
21
10.000000
0
LINE
8
Layer 1
10
6.032735
20
10.000000
11
4.850311
21
10.117152
0
LINE
8
Layer 1
10
4.850311
20
10.117152
11
3.724107
21
10.459858
0
LINE
8
Layer 1
10
3.724107
20
10.459858
11
2.685771
21
11.014991
0
LINE
8
Layer 1
10
2.685771
20
11.014991
11
1.766947
21
11.769423
0
LINE
8
Layer 1
10
1.766947
20
11.769423
11
1.013570
21
12.689535
0
LINE
8
Layer 1
10
1.013570
20
12.689535
11
0.459215
21
13.729326
0
LINE
8
Layer 1
10
0.459215
20
13.729326
11
0.116988
21
14.857108
0
LINE
8
Layer 1
10
0.116988
20
14.857108
11
-0.000000
21
16.041190
0
LINE
8
Layer 1
10
-0.000000
20
16.041190
11
-0.000000
21
113.958810
0
LINE
8
Layer 1
10
-0.000000
20
113.958810
11
0.116988
21
115.142892
0
LINE
8
Layer 1
10
0.116988
20
115.142892
11
0.459215
21
116.270674
0
LINE
8
Layer 1
10
0.459215
20
116.270674
11
1.013570
21
117.310465
0
LINE
8
Layer 1
10
1.013570
20
117.310465
11
1.766947
21
118.230577
0
LINE
8
Layer 1
10
1.766947
20
118.230577
11
2.685771
21
118.985009
0
LINE
8
Layer 1
10
2.685771
20
118.985009
11
3.724107
21
119.540142
0
LINE
8
Layer 1
10
3.724107
20
119.540142
11
4.850311
21
119.882848
0
LINE
8
Layer 1
10
4.850311
20
119.882848
11
6.032735
21
120.000000
0
LINE
8
Layer 1
10
6.032735
20
120.000000
11
6.032735
21
120.000000
0
LINE
8
switch-cutout-locations
10
10.000000
20
110.000000
11
24.000000
21
110.000000
0
LINE
8
switch-cutout-locations
10
24.000000
20
110.000000
11
24.000000
21
96.000000
0
LINE
8
switch-cutout-locations
10
24.000000
20
96.000000
11
10.000000
21
96.000000
0
LINE
8
switch-cutout-locations
10
10.000000
20
96.000000
11
10.000000
21
110.000000
0
LINE
8
switch-cutout-locations
10
29.050000
20
110.000000
11
43.050000
21
110.000000
0
LINE
8
switch-cutout-locations
10
43.050000
20
110.000000
11
43.050000
21
96.000000
0
LINE
8
switch-cutout-locations
10
43.050000
20
96.000000
11
29.050000
21
96.000000
0
LINE
8
switch-cutout-locations
10
29.050000
20
96.000000
11
29.050000
21
110.000000
0
LINE
8
switch-cutout-locations
10
48.100000
20
110.000000
11
62.100000
21
110.000000
0
LINE
8
switch-cutout-locations
10
62.100000
20
110.000000
11
62.100000
21
96.000000
0
LINE
8
switch-cutout-locations
10
62.100000
20
96.000000
11
48.100000
21
96.000000
0
LINE
8
switch-cutout-locations
10
48.100000
20
96.000000
11
48.100000
21
110.000000
0
LINE
8
switch-cutout-locations
10
67.150000
20
110.000000
11
81.150000
21
110.000000
0
LINE
8
switch-cutout-locations
10
81.150000
20
110.000000
11
81.150000
21
96.000000
0
LINE
8
switch-cutout-locations
10
81.150000
20
96.000000
11
67.150000
21
96.000000
0
LINE
8
switch-cutout-locations
10
67.150000
20
96.000000
11
67.150000
21
110.000000
0
LINE
8
switch-cutout-locations
10
86.200000
20
110.000000
11
100.200000
21
110.000000
0
LINE
8
switch-cutout-locations
10
100.200000
20
110.000000
11
100.200000
21
96.000000
0
LINE
8
switch-cutout-locations
10
100.200000
20
96.000000
11
86.200000
21
96.000000
0
LINE
8
switch-cutout-locations
10
86.200000
20
96.000000
11
86.200000
21
110.000000
0
LINE
8
switch-cutout-locations
10
105.250000
20
110.000000
11
119.250000
21
110.000000
0
LINE
8
switch-cutout-locations
10
119.250000
20
110.000000
11
119.250000
21
96.000000
0
LINE
8
switch-cutout-locations
10
119.250000
20
96.000000
11
105.250000
21
96.000000
0
LINE
8
switch-cutout-locations
10
105.250000
20
96.000000
11
105.250000
21
110.000000
0
LINE
8
switch-cutout-locations
10
10.000000
20
90.949997
11
24.000000
21
90.949997
0
LINE
8
switch-cutout-locations
10
24.000000
20
90.949997
11
24.000000
21
76.949997
0
LINE
8
switch-cutout-locations
10
24.000000
20
76.949997
11
10.000000
21
76.949997
0
LINE
8
switch-cutout-locations
10
10.000000
20
76.949997
11
10.000000
21
90.949997
0
LINE
8
switch-cutout-locations
10
29.050003
20
90.949997
11
43.050003
21
90.949997
0
LINE
8
switch-cutout-locations
10
43.050003
20
90.949997
11
43.050003
21
76.949997
0
LINE
8
switch-cutout-locations
10
43.050003
20
76.949997
11
29.050003
21
76.949997
0
LINE
8
switch-cutout-locations
10
29.050003
20
76.949997
11
29.050003
21
90.949997
0
LINE
8
switch-cutout-locations
10
48.100006
20
90.949997
11
62.100006
21
90.949997
0
LINE
8
switch-cutout-locations
10
62.100006
20
90.949997
11
62.100006
21
76.949997
0
LINE
8
switch-cutout-locations
10
62.100006
20
76.949997
11
48.100006
21
76.949997
0
LINE
8
switch-cutout-locations
10
48.100006
20
76.949997
11
48.100006
21
90.949997
0
LINE
8
switch-cutout-locations
10
67.149994
20
90.949997
11
81.149994
21
90.949997
0
LINE
8
switch-cutout-locations
10
81.149994
20
90.949997
11
81.149994
21
76.949997
0
LINE
8
switch-cutout-locations
10
81.149994
20
76.949997
11
67.149994
21
76.949997
0
LINE
8
switch-cutout-locations
10
67.149994
20
76.949997
11
67.149994
21
90.949997
0
LINE
8
switch-cutout-locations
10
86.199997
20
90.949997
11
100.199997
21
90.949997
0
LINE
8
switch-cutout-locations
10
100.199997
20
90.949997
11
100.199997
21
76.949997
0
LINE
8
switch-cutout-locations
10
100.199997
20
76.949997
11
86.199997
21
76.949997
0
LINE
8
switch-cutout-locations
10
86.199997
20
76.949997
11
86.199997
21
90.949997
0
LINE
8
switch-cutout-locations
10
105.250000
20
90.949997
11
119.250000
21
90.949997
0
LINE
8
switch-cutout-locations
10
119.250000
20
90.949997
11
119.250000
21
76.949997
0
LINE
8
switch-cutout-locations
10
119.250000
20
76.949997
11
105.250000
21
76.949997
0
LINE
8
switch-cutout-locations
10
105.250000
20
76.949997
11
105.250000
21
90.949997
0
LINE
8
switch-cutout-locations
10
10.000000
20
71.900002
11
24.000000
21
71.900002
0
LINE
8
switch-cutout-locations
10
24.000000
20
71.900002
11
24.000000
21
57.900002
0
LINE
8
switch-cutout-locations
10
24.000000
20
57.900002
11
10.000000
21
57.900002
0
LINE
8
switch-cutout-locations
10
10.000000
20
57.900002
11
10.000000
21
71.900002
0
LINE
8
switch-cutout-locations
10
29.049999
20
71.900002
11
43.049999
21
71.900002
0
LINE
8
switch-cutout-locations
10
43.049999
20
71.900002
11
43.049999
21
57.900002
0
LINE
8
switch-cutout-locations
10
43.049999
20
57.900002
11
29.049999
21
57.900002
0
LINE
8
switch-cutout-locations
10
29.049999
20
57.900002
11
29.049999
21
71.900002
0
LINE
8
switch-cutout-locations
10
48.099995
20
71.900002
11
62.099995
21
71.900002
0
LINE
8
switch-cutout-locations
10
62.099995
20
71.900002
11
62.099995
21
57.900002
0
LINE
8
switch-cutout-locations
10
62.099995
20
57.900002
11
48.099995
21
57.900002
0
LINE
8
switch-cutout-locations
10
48.099995
20
57.900002
11
48.099995
21
71.900002
0
LINE
8
switch-cutout-locations
10
67.149994
20
71.900002
11
81.149994
21
71.900002
0
LINE
8
switch-cutout-locations
10
81.149994
20
71.900002
11
81.149994
21
57.900002
0
LINE
8
switch-cutout-locations
10
81.149994
20
57.900002
11
67.149994
21
57.900002
0
LINE
8
switch-cutout-locations
10
67.149994
20
57.900002
11
67.149994
21
71.900002
0
LINE
8
switch-cutout-locations
10
86.199997
20
71.900002
11
100.199997
21
71.900002
0
LINE
8
switch-cutout-locations
10
100.199997
20
71.900002
11
100.199997
21
57.900002
0
LINE
8
switch-cutout-locations
10
100.199997
20
57.900002
11
86.199997
21
57.900002
0
LINE
8
switch-cutout-locations
10
86.199997
20
57.900002
11
86.199997
21
71.900002
0
LINE
8
switch-cutout-locations
10
105.250000
20
71.900002
11
119.250000
21
71.900002
0
LINE
8
switch-cutout-locations
10
119.250000
20
71.900002
11
119.250000
21
57.900002
0
LINE
8
switch-cutout-locations
10
119.250000
20
57.900002
11
105.250000
21
57.900002
0
LINE
8
switch-cutout-locations
10
105.250000
20
57.900002
11
105.250000
21
71.900002
0
LINE
8
switch-cutout-locations
10
10.000000
20
52.850000
11
24.000000
21
52.850000
0
LINE
8
switch-cutout-locations
10
24.000000
20
52.850000
11
24.000000
21
38.850000
0
LINE
8
switch-cutout-locations
10
24.000000
20
38.850000
11
10.000000
21
38.850000
0
LINE
8
switch-cutout-locations
10
10.000000
20
38.850000
11
10.000000
21
52.850000
0
LINE
8
switch-cutout-locations
10
29.049995
20
52.850000
11
43.049995
21
52.850000
0
LINE
8
switch-cutout-locations
10
43.049995
20
52.850000
11
43.049995
21
38.850000
0
LINE
8
switch-cutout-locations
10
43.049995
20
38.850000
11
29.049995
21
38.850000
0
LINE
8
switch-cutout-locations
10
29.049995
20
38.850000
11
29.049995
21
52.850000
0
LINE
8
switch-cutout-locations
10
48.099998
20
52.850000
11
62.099998
21
52.850000
0
LINE
8
switch-cutout-locations
10
62.099998
20
52.850000
11
62.099998
21
38.850000
0
LINE
8
switch-cutout-locations
10
62.099998
20
38.850000
11
48.099998
21
38.850000
0
LINE
8
switch-cutout-locations
10
48.099998
20
38.850000
11
48.099998
21
52.850000
0
LINE
8
switch-cutout-locations
10
67.149986
20
52.850000
11
81.149986
21
52.850000
0
LINE
8
switch-cutout-locations
10
81.149986
20
52.850000
11
81.149986
21
38.850000
0
LINE
8
switch-cutout-locations
10
81.149986
20
38.850000
11
67.149986
21
38.850000
0
LINE
8
switch-cutout-locations
10
67.149986
20
38.850000
11
67.149986
21
52.850000
0
LINE
8
switch-cutout-locations
10
86.199989
20
52.850000
11
100.199989
21
52.850000
0
LINE
8
switch-cutout-locations
10
100.199989
20
52.850000
11
100.199989
21
38.850000
0
LINE
8
switch-cutout-locations
10
100.199989
20
38.850000
11
86.199989
21
38.850000
0
LINE
8
switch-cutout-locations
10
86.199989
20
38.850000
11
86.199989
21
52.850000
0
LINE
8
switch-cutout-locations
10
105.249980
20
52.850000
11
119.249980
21
52.850000
0
LINE
8
switch-cutout-locations
10
119.249980
20
52.850000
11
119.249980
21
38.850000
0
LINE
8
switch-cutout-locations
10
119.249980
20
38.850000
11
105.249980
21
38.850000
0
LINE
8
switch-cutout-locations
10
105.249980
20
38.850000
11
105.249980
21
52.850000
0
LINE
8
switch-cutout-locations
10
10.000000
20
33.800000
11
24.000000
21
33.800000
0
LINE
8
switch-cutout-locations
10
24.000000
20
33.800000
11
24.000000
21
19.800000
0
LINE
8
switch-cutout-locations
10
24.000000
20
19.800000
11
10.000000
21
19.800000
0
LINE
8
switch-cutout-locations
10
10.000000
20
19.800000
11
10.000000
21
33.800000
0
LINE
8
switch-cutout-locations
10
29.049995
20
33.800000
11
43.049995
21
33.800000
0
LINE
8
switch-cutout-locations
10
43.049995
20
33.800000
11
43.049995
21
19.800000
0
LINE
8
switch-cutout-locations
10
43.049995
20
19.800000
11
29.049995
21
19.800000
0
LINE
8
switch-cutout-locations
10
29.049995
20
19.800000
11
29.049995
21
33.800000
0
LINE
8
switch-cutout-locations
10
48.099995
20
33.800000
11
62.099995
21
33.800000
0
LINE
8
switch-cutout-locations
10
62.099995
20
33.800000
11
62.099995
21
19.800000
0
LINE
8
switch-cutout-locations
10
62.099995
20
19.800000
11
48.099995
21
19.800000
0
LINE
8
switch-cutout-locations
10
48.099995
20
19.800000
11
48.099995
21
33.800000
0
LINE
8
switch-cutout-locations
10
67.149979
20
33.800000
11
81.149979
21
33.800000
0
LINE
8
switch-cutout-locations
10
81.149979
20
33.800000
11
81.149979
21
19.800000
0
LINE
8
switch-cutout-locations
10
81.149979
20
19.800000
11
67.149979
21
19.800000
0
LINE
8
switch-cutout-locations
10
67.149979
20
19.800000
11
67.149979
21
33.800000
0
LINE
8
switch-cutout-locations
10
86.199982
20
33.800000
11
100.199982
21
33.800000
0
LINE
8
switch-cutout-locations
10
100.199982
20
33.800000
11
100.199982
21
19.800000
0
LINE
8
switch-cutout-locations
10
100.199982
20
19.800000
11
86.199982
21
19.800000
0
LINE
8
switch-cutout-locations
10
86.199982
20
19.800000
11
86.199982
21
33.800000
0
LINE
8
switch-cutout-locations
10
105.249980
20
33.800000
11
119.249980
21
33.800000
0
LINE
8
switch-cutout-locations
10
119.249980
20
33.800000
11
119.249980
21
19.800000
0
LINE
8
switch-cutout-locations
10
119.249980
20
19.800000
11
105.249980
21
19.800000
0
LINE
8
switch-cutout-locations
10
105.249980
20
19.800000
11
105.249980
21
33.800000
0
LINE
8
Layer 1
10
4.500000
20
117.000000
11
3.666645
21
116.747204
0
LINE
8
Layer 1
10
3.666645
20
116.747204
11
3.114181
21
116.074025
0
LINE
8
Layer 1
10
3.114181
20
116.074025
11
3.028822
21
115.207365
0
LINE
8
Layer 1
10
3.028822
20
115.207365
11
3.439340
21
114.439340
0
LINE
8
Layer 1
10
3.439340
20
114.439340
11
4.207365
21
114.028822
0
LINE
8
Layer 1
10
4.207365
20
114.028822
11
5.074025
21
114.114181
0
LINE
8
Layer 1
10
5.074025
20
114.114181
11
5.747204
21
114.666645
0
LINE
8
Layer 1
10
5.747204
20
114.666645
11
6.000000
21
115.500000
0
LINE
8
Layer 1
10
6.000000
20
115.500000
11
5.885819
21
116.074025
0
LINE
8
Layer 1
10
5.885819
20
116.074025
11
5.560660
21
116.560660
0
LINE
8
Layer 1
10
5.560660
20
116.560660
11
5.074025
21
116.885819
0
LINE
8
Layer 1
10
5.074025
20
116.885819
11
4.500000
21
117.000000
0
LINE
8
Layer 1
10
4.500000
20
117.000000
11
4.500000
21
117.000000
0
LINE
8
Layer 1
10
4.500000
20
16.000000
11
3.666645
21
15.747204
0
LINE
8
Layer 1
10
3.666645
20
15.747204
11
3.114181
21
15.074025
0
LINE
8
Layer 1
10
3.114181
20
15.074025
11
3.028822
21
14.207365
0
LINE
8
Layer 1
10
3.028822
20
14.207365
11
3.439340
21
13.439340
0
LINE
8
Layer 1
10
3.439340
20
13.439340
11
4.207365
21
13.028822
0
LINE
8
Layer 1
10
4.207365
20
13.028822
11
5.074025
21
13.114181
0
LINE
8
Layer 1
10
5.074025
20
13.114181
11
5.747204
21
13.666645
0
LINE
8
Layer 1
10
5.747204
20
13.666645
11
6.000000
21
14.500000
0
LINE
8
Layer 1
10
6.000000
20
14.500000
11
5.885819
21
15.074025
0
LINE
8
Layer 1
10
5.885819
20
15.074025
11
5.560660
21
15.560660
0
LINE
8
Layer 1
10
5.560660
20
15.560660
11
5.074025
21
15.885819
0
LINE
8
Layer 1
10
5.074025
20
15.885819
11
4.500000
21
16.000000
0
LINE
8
Layer 1
10
4.500000
20
16.000000
11
4.500000
21
16.000000
0
LINE
8
Layer 1
10
124.500000
20
16.000000
11
123.666645
21
15.747204
0
LINE
8
Layer 1
10
123.666645
20
15.747204
11
123.114181
21
15.074025
0
LINE
8
Layer 1
10
123.114181
20
15.074025
11
123.028822
21
14.207365
0
LINE
8
Layer 1
10
123.028822
20
14.207365
11
123.439340
21
13.439340
0
LINE
8
Layer 1
10
123.439340
20
13.439340
11
124.207365
21
13.028822
0
LINE
8
Layer 1
10
124.207365
20
13.028822
11
125.074025
21
13.114181
0
LINE
8
Layer 1
10
125.074025
20
13.114181
11
125.747204
21
13.666645
0
LINE
8
Layer 1
10
125.747204
20
13.666645
11
126.000000
21
14.500000
0
LINE
8
Layer 1
10
126.000000
20
14.500000
11
125.885819
21
15.074025
0
LINE
8
Layer 1
10
125.885819
20
15.074025
11
125.560660
21
15.560660
0
LINE
8
Layer 1
10
125.560660
20
15.560660
11
125.074025
21
15.885819
0
LINE
8
Layer 1
10
125.074025
20
15.885819
11
124.500000
21
16.000000
0
LINE
8
Layer 1
10
124.500000
20
16.000000
11
124.500000
21
16.000000
0
LINE
8
Layer 1
10
124.500000
20
117.000000
11
123.666645
21
116.747204
0
LINE
8
Layer 1
10
123.666645
20
116.747204
11
123.114181
21
116.074025
0
LINE
8
Layer 1
10
123.114181
20
116.074025
11
123.028822
21
115.207365
0
LINE
8
Layer 1
10
123.028822
20
115.207365
11
123.439340
21
114.439340
0
LINE
8
Layer 1
10
123.439340
20
114.439340
11
124.207365
21
114.028822
0
LINE
8
Layer 1
10
124.207365
20
114.028822
11
125.074025
21
114.114181
0
LINE
8
Layer 1
10
125.074025
20
114.114181
11
125.747204
21
114.666645
0
LINE
8
Layer 1
10
125.747204
20
114.666645
11
126.000000
21
115.500000
0
LINE
8
Layer 1
10
126.000000
20
115.500000
11
125.885819
21
116.074025
0
LINE
8
Layer 1
10
125.885819
20
116.074025
11
125.560660
21
116.560660
0
LINE
8
Layer 1
10
125.560660
20
116.560660
11
125.074025
21
116.885819
0
LINE
8
Layer 1
10
125.074025
20
116.885819
11
124.500000
21
117.000000
0
LINE
8
Layer 1
10
124.500000
20
117.000000
11
124.500000
21
117.000000
 0 
ENDSEC
 0 
EOF