<?xml version="1.0" encoding="UTF-8" standalone="no"?>
<!-- Created with Inkscape (http://www.inkscape.org/) -->

<svg
   width="160mm"
   height="140mm"
   viewBox="0 0 160 139.99999"
   version="1.1"
   id="svg1"
   inkscape:version="1.4 (86a8ad7, 2024-10-11)"
   sodipodi:docname="bottom-inserts-adjusted.svg"
   xml:space="preserve"
   xmlns:inkscape="http://www.inkscape.org/namespaces/inkscape"
   xmlns:sodipodi="http://sodipodi.sourceforge.net/DTD/sodipodi-0.dtd"
   xmlns="http://www.w3.org/2000/svg"
   xmlns:svg="http://www.w3.org/2000/svg"><sodipodi:namedview
     id="namedview1"
     pagecolor="#ffffff"
     bordercolor="#000000"
     borderopacity="0.25"
     inkscape:showpageshadow="2"
     inkscape:pageopacity="0.0"
     inkscape:pagecheckerboard="0"
     inkscape:deskcolor="#d1d1d1"
     inkscape:document-units="mm"
     showgrid="true"
     inkscape:zoom="1.6122035"
     inkscape:cx="160.64969"
     inkscape:cy="188.25167"
     inkscape:window-width="1920"
     inkscape:window-height="1009"
     inkscape:window-x="1912"
     inkscape:window-y="-8"
     inkscape:window-maximized="1"
     inkscape:current-layer="layer2"><inkscape:grid
       id="grid1"
       units="mm"
       originx="0"
       originy="0"
       spacingx="0.99999998"
       spacingy="0.99999998"
       empcolor="#0099e5"
       empopacity="0.30196078"
       color="#0099e5"
       opacity="0.14901961"
       empspacing="5"
       dotted="false"
       gridanglex="30"
       gridanglez="30"
       visible="true" /></sodipodi:namedview><defs
     id="defs1"><linearGradient
       id="linearGradient24"
       inkscape:swatch="gradient"><stop
         style="stop-color:#000000;stop-opacity:1;"
         offset="0"
         id="stop25" /><stop
         style="stop-color:#000000;stop-opacity:0;"
         offset="1"
         id="stop26" /></linearGradient><linearGradient
       id="swatch20"
       inkscape:swatch="solid"><stop
         style="stop-color:#000000;stop-opacity:1;"
         offset="0"
         id="stop20" /></linearGradient><linearGradient
       id="swatch5"
       inkscape:swatch="solid"><stop
         style="stop-color:#3f3f3f;stop-opacity:1;"
         offset="0"
         id="stop5" /></linearGradient></defs><g
     inkscape:groupmode="layer"
     id="layer2"
     inkscape:label="Layer 1"><path
       id="rect16-8"
       style="fill:#808080;fill-opacity:1;stroke:none;stroke-width:0.105115;stroke-dasharray:none;stroke-opacity:1"
       inkscape:label="case"
       d="M 6.0327067 -0.30024007 C 2.6905747 -0.30024007 -0.30024007 2.6941589 -0.30024007 6.0409749 L -0.30024007 103.95903 C -0.30024007 107.30584 2.6905747 110.30024 6.0327067 110.30024 L 122.96717 110.30024 C 126.3093 110.30024 129.30012 107.30584 129.30012 103.95903 L 129.30012 6.0409749 C 129.30012 2.6941589 126.3093 -0.30024007 122.96717 -0.30024007 L 84.149902 -0.30024007 L 84.149902 37.999748 L 64.15009 37.999748 L 64.15009 -0.30024007 L 6.0327067 -0.30024007 z M 4.4999837 2.7000936 A 1.8 1.8 0 0 1 6.2998739 4.4999837 A 1.8 1.8 0 0 1 4.4999837 6.2998739 A 1.8 1.8 0 0 1 2.7000936 4.4999837 A 1.8 1.8 0 0 1 4.4999837 2.7000936 z M 124.49989 2.7000936 A 1.8 1.8 0 0 1 126.29978 4.4999837 A 1.8 1.8 0 0 1 124.49989 6.2998739 A 1.8 1.8 0 0 1 122.7 4.4999837 A 1.8 1.8 0 0 1 124.49989 2.7000936 z M 4.4999837 103.70013 A 1.8 1.8 0 0 1 6.2998739 105.50002 A 1.8 1.8 0 0 1 4.4999837 107.29991 A 1.8 1.8 0 0 1 2.7000936 105.50002 A 1.8 1.8 0 0 1 4.4999837 103.70013 z M 124.49989 103.70013 A 1.8 1.8 0 0 1 126.29978 105.50002 A 1.8 1.8 0 0 1 124.49989 107.29991 A 1.8 1.8 0 0 1 122.7 105.50002 A 1.8 1.8 0 0 1 124.49989 103.70013 z " /></g></svg>
