G04 #@! TF.GenerationSoftware,KiCad,Pcbnew,7.0.10*
G04 #@! TF.CreationDate,2024-03-13T13:30:19+01:00*
G04 #@! TF.ProjectId,bb-pcb-v1,62622d70-6362-42d7-9631-2e6b69636164,rev?*
G04 #@! TF.SameCoordinates,Original*
G04 #@! TF.FileFunction,Paste,Bot*
G04 #@! TF.FilePolarity,Positive*
%FSLAX46Y46*%
G04 Gerber Fmt 4.6, Leading zero omitted, Abs format (unit mm)*
G04 Created by KiCad (PCBNEW 7.0.10) date 2024-03-13 13:30:19*
%MOMM*%
%LPD*%
G01*
G04 APERTURE LIST*
G04 Aperture macros list*
%AMRoundRect*
0 Rectangle with rounded corners*
0 $1 Rounding radius*
0 $2 $3 $4 $5 $6 $7 $8 $9 X,Y pos of 4 corners*
0 Add a 4 corners polygon primitive as box body*
4,1,4,$2,$3,$4,$5,$6,$7,$8,$9,$2,$3,0*
0 Add four circle primitives for the rounded corners*
1,1,$1+$1,$2,$3*
1,1,$1+$1,$4,$5*
1,1,$1+$1,$6,$7*
1,1,$1+$1,$8,$9*
0 Add four rect primitives between the rounded corners*
20,1,$1+$1,$2,$3,$4,$5,0*
20,1,$1+$1,$4,$5,$6,$7,0*
20,1,$1+$1,$6,$7,$8,$9,0*
20,1,$1+$1,$8,$9,$2,$3,0*%
G04 Aperture macros list end*
%ADD10RoundRect,0.250000X-1.025000X-1.000000X1.025000X-1.000000X1.025000X1.000000X-1.025000X1.000000X0*%
%ADD11RoundRect,0.250000X1.025000X1.000000X-1.025000X1.000000X-1.025000X-1.000000X1.025000X-1.000000X0*%
G04 APERTURE END LIST*
D10*
X331052500Y-26035000D03*
X343979500Y-23495000D03*
X207227500Y-87947500D03*
X220154500Y-85407500D03*
X21490000Y-26035000D03*
X34417000Y-23495000D03*
X135790000Y-49847500D03*
X148717000Y-47307500D03*
X350102500Y-49847500D03*
X363029500Y-47307500D03*
X107215000Y-68897500D03*
X120142000Y-66357500D03*
X59590000Y-49847500D03*
X72517000Y-47307500D03*
X64352500Y-106997500D03*
X77279500Y-104457500D03*
X142933750Y-126047500D03*
X155860750Y-123507500D03*
X259615000Y-126047500D03*
X272542000Y-123507500D03*
X240565000Y-68897500D03*
X253492000Y-66357500D03*
D11*
X169010000Y-131127500D03*
X156083000Y-133667500D03*
D10*
X283427500Y-68897500D03*
X296354500Y-66357500D03*
X116740000Y-49847500D03*
X129667000Y-47307500D03*
D11*
X47566250Y-112077500D03*
X34639250Y-114617500D03*
D10*
X312002500Y-49847500D03*
X324929500Y-47307500D03*
X126265000Y-68897500D03*
X139192000Y-66357500D03*
X259615000Y-68897500D03*
X272542000Y-66357500D03*
X23871250Y-126047500D03*
X36798250Y-123507500D03*
X23871250Y-87947500D03*
X36798250Y-85407500D03*
X78640000Y-49847500D03*
X91567000Y-47307500D03*
X269140000Y-26035000D03*
X282067000Y-23495000D03*
X288190000Y-26035000D03*
X301117000Y-23495000D03*
X250090000Y-26035000D03*
X263017000Y-23495000D03*
D11*
X40422500Y-131127500D03*
X27495500Y-133667500D03*
D10*
X21490000Y-49847500D03*
X34417000Y-47307500D03*
X350102500Y-126047500D03*
X363029500Y-123507500D03*
X226277500Y-87947500D03*
X239204500Y-85407500D03*
X250090000Y-49847500D03*
X263017000Y-47307500D03*
X164365000Y-26035000D03*
X177292000Y-23495000D03*
X350102500Y-68897500D03*
X363029500Y-66357500D03*
X97690000Y-26035000D03*
X110617000Y-23495000D03*
X140552500Y-106997500D03*
X153479500Y-104457500D03*
X331052500Y-126047500D03*
X343979500Y-123507500D03*
X173890000Y-49847500D03*
X186817000Y-47307500D03*
D11*
X252353750Y-131127500D03*
X239426750Y-133667500D03*
D10*
X183415000Y-26035000D03*
X196342000Y-23495000D03*
X216752500Y-106997500D03*
X229679500Y-104457500D03*
X202465000Y-68897500D03*
X215392000Y-66357500D03*
X59590000Y-26035000D03*
X72517000Y-23495000D03*
X88165000Y-68897500D03*
X101092000Y-66357500D03*
X285808750Y-78422500D03*
X298735750Y-75882500D03*
X276283750Y-87947500D03*
X289210750Y-85407500D03*
X131027500Y-87947500D03*
X143954500Y-85407500D03*
D11*
X64235000Y-131127500D03*
X51308000Y-133667500D03*
D10*
X71496250Y-126047500D03*
X84423250Y-123507500D03*
D11*
X299978750Y-131127500D03*
X287051750Y-133667500D03*
X276166250Y-131127500D03*
X263239250Y-133667500D03*
D10*
X154840000Y-49847500D03*
X167767000Y-47307500D03*
D11*
X302360000Y-54927500D03*
X289433000Y-57467500D03*
D10*
X169127500Y-87947500D03*
X182054500Y-85407500D03*
X312002500Y-126047500D03*
X324929500Y-123507500D03*
X183415000Y-68897500D03*
X196342000Y-66357500D03*
X23871250Y-106997500D03*
X36798250Y-104457500D03*
X235802500Y-126047500D03*
X248729500Y-123507500D03*
X331052500Y-106997500D03*
X343979500Y-104457500D03*
X121502500Y-106997500D03*
X134429500Y-104457500D03*
X254852500Y-106997500D03*
X267779500Y-104457500D03*
X288190000Y-106997500D03*
X301117000Y-104457500D03*
X47683750Y-126047500D03*
X60610750Y-123507500D03*
X45302500Y-106997500D03*
X58229500Y-104457500D03*
X214371250Y-126047500D03*
X227298250Y-123507500D03*
X164365000Y-68897500D03*
X177292000Y-66357500D03*
X178652500Y-106997500D03*
X191579500Y-104457500D03*
D11*
X88047500Y-131127500D03*
X75120500Y-133667500D03*
D10*
X26252500Y-68897500D03*
X39179500Y-66357500D03*
X331052500Y-49847500D03*
X343979500Y-47307500D03*
X69115000Y-68897500D03*
X82042000Y-66357500D03*
D11*
X283310000Y-112077500D03*
X270383000Y-114617500D03*
D10*
X350102500Y-26035000D03*
X363029500Y-23495000D03*
X211990000Y-49847500D03*
X224917000Y-47307500D03*
X83402500Y-106997500D03*
X96329500Y-104457500D03*
X116740000Y-26035000D03*
X129667000Y-23495000D03*
X145315000Y-68897500D03*
X158242000Y-66357500D03*
X245327500Y-87947500D03*
X258254500Y-85407500D03*
X145315000Y-26035000D03*
X158242000Y-23495000D03*
X331052500Y-68897500D03*
X343979500Y-66357500D03*
D11*
X42803750Y-93027500D03*
X29876750Y-95567500D03*
D10*
X221515000Y-68897500D03*
X234442000Y-66357500D03*
X150077500Y-87947500D03*
X163004500Y-85407500D03*
X97690000Y-49847500D03*
X110617000Y-47307500D03*
X188177500Y-87947500D03*
X201104500Y-85407500D03*
X283427500Y-126047500D03*
X296354500Y-123507500D03*
X312002500Y-26035000D03*
X324929500Y-23495000D03*
X54827500Y-87947500D03*
X67754500Y-85407500D03*
X197702500Y-106997500D03*
X210629500Y-104457500D03*
X202465000Y-26035000D03*
X215392000Y-23495000D03*
X231040000Y-49847500D03*
X243967000Y-47307500D03*
X235802500Y-106997500D03*
X248729500Y-104457500D03*
D11*
X278547500Y-93027500D03*
X265620500Y-95567500D03*
D10*
X192940000Y-49847500D03*
X205867000Y-47307500D03*
X312002500Y-68897500D03*
X324929500Y-66357500D03*
X73877500Y-87947500D03*
X86804500Y-85407500D03*
X50065000Y-68897500D03*
X62992000Y-66357500D03*
X231040000Y-26035000D03*
X243967000Y-23495000D03*
X78640000Y-26035000D03*
X91567000Y-23495000D03*
X278665000Y-49847500D03*
X291592000Y-47307500D03*
X111977500Y-87947500D03*
X124904500Y-85407500D03*
D11*
X283310000Y-54927500D03*
X270383000Y-57467500D03*
D10*
X159602500Y-106997500D03*
X172529500Y-104457500D03*
X92927500Y-87947500D03*
X105854500Y-85407500D03*
X102452500Y-106997500D03*
X115379500Y-104457500D03*
X40540000Y-49847500D03*
X53467000Y-47307500D03*
M02*
