<?xml version="1.0" encoding="UTF-8" standalone="no"?>
<!-- Created with Inkscape (http://www.inkscape.org/) -->

<svg
   width="375mm"
   height="320mm"
   viewBox="0 0 375 320"
   version="1.1"
   id="svg1"
   inkscape:version="1.4 (86a8ad7, 2024-10-11)"
   sodipodi:docname="combined.svg"
   xmlns:inkscape="http://www.inkscape.org/namespaces/inkscape"
   xmlns:sodipodi="http://sodipodi.sourceforge.net/DTD/sodipodi-0.dtd"
   xmlns="http://www.w3.org/2000/svg"
   xmlns:svg="http://www.w3.org/2000/svg">
  <sodipodi:namedview
     id="namedview1"
     pagecolor="#505050"
     bordercolor="#eeeeee"
     borderopacity="1"
     inkscape:showpageshadow="0"
     inkscape:pageopacity="0"
     inkscape:pagecheckerboard="0"
     inkscape:deskcolor="#505050"
     inkscape:document-units="mm"
     showgrid="true"
     inkscape:zoom="3.839995"
     inkscape:cx="1234.8975"
     inkscape:cy="65.234461"
     inkscape:window-width="1920"
     inkscape:window-height="1009"
     inkscape:window-x="1912"
     inkscape:window-y="-8"
     inkscape:window-maximized="1"
     inkscape:current-layer="layer4">
    <inkscape:grid
       id="grid1"
       units="mm"
       originx="0"
       originy="0"
       spacingx="0.99999999"
       spacingy="1"
       empcolor="#0099e5"
       empopacity="0.30196078"
       color="#0099e5"
       opacity="0.14901961"
       empspacing="5"
       dotted="false"
       gridanglex="30"
       gridanglez="30"
       visible="true" />
  </sodipodi:namedview>
  <defs
     id="defs1">
    <inkscape:path-effect
       effect="fillet_chamfer"
       id="path-effect1"
       is_visible="true"
       lpeversion="1"
       nodesatellites_param="F,0,0,1,0,0,0,1 @ F,0,0,1,0,0,0,1 @ F,0,0,1,0,0,0,1 @ F,0,0,1,0,0,0,1 @ F,0,0,1,0,0,0,1 @ F,0,0,1,0,0,0,1 @ F,0,0,1,0,0,0,1 @ F,0,0,1,0,0,0,1 | F,0,0,1,0,0,0,1 @ F,0,0,1,0,0,0,1 @ F,0,0,1,0,0,0,1 @ F,0,0,1,0,0,0,1 | F,0,0,1,0,0,0,1 @ F,0,0,1,0,0,0,1 @ F,0,0,1,0,0,0,1 @ F,0,0,1,0,0,0,1 | F,0,0,1,0,0,0,1 @ F,0,0,1,0,0,0,1 @ F,0,0,1,0,0,0,1 @ F,0,0,1,0,0,0,1 | F,0,0,1,0,0,0,1 @ F,0,0,1,0,0,0,1 @ F,0,0,1,0,0,0,1 @ F,0,0,1,0,0,0,1 | F,0,0,1,0,0,0,1 @ F,0,1,1,0,0.99999997,0,1 @ F,0,1,1,0,0.99999997,0,1 @ F,0,1,1,0,0.99999997,0,1 @ F,0,0,1,0,0,0,1 | F,0,1,1,0,0.99999997,0,1 @ F,0,1,1,0,0.99999997,0,1 @ F,0,1,1,0,0.99999997,0,1 @ F,0,1,1,0,0.99999997,0,1 | F,0,1,1,0,0.99999997,0,1 @ F,0,1,1,0,0.99999997,0,1 @ F,0,1,1,0,0.99999997,0,1 @ F,0,1,1,0,0.99999997,0,1 | F,0,1,1,0,0.99999997,0,1 @ F,0,1,1,0,0.99999997,0,1 @ F,0,1,1,0,0.99999997,0,1 @ F,0,1,1,0,0.99999997,0,1 | F,0,1,1,0,0.99999997,0,1 @ F,0,0,1,0,0,0,1 @ F,0,0,1,0,0,0,1 @ F,0,1,1,0,0.99999997,0,1 @ F,0,1,1,0,0.99999997,0,1 | F,0,1,1,0,0.99999997,0,1 @ F,0,1,1,0,0.99999997,0,1 @ F,0,0,1,0,0,0,1 @ F,0,1,1,0,0.99999997,0,1 @ F,0,0,1,0,0,0,1 @ F,0,0,1,0,0,0,1 @ F,0,1,1,0,0.99999997,0,1 @ F,0,1,1,0,0.99999997,0,1 @ F,0,0,1,0,0,0,1 @ F,0,0,1,0,0,0,1 @ F,0,1,1,0,0.99999997,0,1 @ F,0,0,1,0,0,0,1 @ F,0,0,1,0,0,0,1 | F,0,1,1,0,0.99999997,0,1 @ F,0,1,1,0,0.99999997,0,1 @ F,0,1,1,0,0.99999997,0,1 @ F,0,1,1,0,0.99999997,0,1 | F,0,1,1,0,0.99999997,0,1 @ F,0,1,1,0,0.99999997,0,1 @ F,0,0,1,0,0,0,1 @ F,0,1,1,0,0.99999997,0,1 @ F,0,0,1,0,0,0,1 @ F,0,0,1,0,0,0,1 @ F,0,1,1,0,0.99999997,0,1 @ F,0,1,1,0,0.99999997,0,1 @ F,0,0,1,0,0,0,1 | F,0,0,1,0,0,0,1 @ F,0,0,1,0,0,0,1 @ F,0,0,1,0,0,0,1 @ F,0,0,1,0,0,0,1 | F,0,0,1,0,0,0,1 @ F,0,0,1,0,0,0,1 @ F,0,0,1,0,0,0,1 @ F,0,0,1,0,0,0,1 | F,0,0,1,0,0,0,1 @ F,0,0,1,0,0,0,1 @ F,0,0,1,0,0,0,1 @ F,0,0,1,0,0,0,1 | F,0,0,1,0,0,0,1 @ F,0,0,1,0,0,0,1 @ F,0,0,1,0,0,0,1 @ F,0,0,1,0,0,0,1"
       radius="1"
       unit="mm"
       method="auto"
       mode="F"
       chamfer_steps="1"
       flexible="false"
       use_knot_distance="true"
       apply_no_radius="true"
       apply_with_radius="true"
       only_selected="true"
       hide_knots="false" />
    <inkscape:path-effect
       effect="fillet_chamfer"
       id="path-effect1-2"
       is_visible="true"
       lpeversion="1"
       nodesatellites_param="F,0,0,1,0,0,0,1 @ F,0,0,1,0,0,0,1 @ F,0,0,1,0,0,0,1 @ F,0,0,1,0,0,0,1 @ F,0,0,1,0,0,0,1 @ F,0,0,1,0,0,0,1 @ F,0,0,1,0,0,0,1 @ F,0,0,1,0,0,0,1 | F,0,0,1,0,0,0,1 @ F,0,0,1,0,0,0,1 @ F,0,0,1,0,0,0,1 @ F,0,0,1,0,0,0,1 | F,0,0,1,0,0,0,1 @ F,0,0,1,0,0,0,1 @ F,0,0,1,0,0,0,1 @ F,0,0,1,0,0,0,1 | F,0,0,1,0,0,0,1 @ F,0,0,1,0,0,0,1 @ F,0,0,1,0,0,0,1 @ F,0,0,1,0,0,0,1 | F,0,0,1,0,0,0,1 @ F,0,0,1,0,0,0,1 @ F,0,0,1,0,0,0,1 @ F,0,0,1,0,0,0,1 | F,0,0,1,0,0,0,1 @ F,0,1,1,0,0.99999997,0,1 @ F,0,1,1,0,0.99999997,0,1 @ F,0,1,1,0,0.99999997,0,1 @ F,0,0,1,0,0,0,1 | F,0,1,1,0,0.99999997,0,1 @ F,0,1,1,0,0.99999997,0,1 @ F,0,1,1,0,0.99999997,0,1 @ F,0,1,1,0,0.99999997,0,1 | F,0,1,1,0,0.99999997,0,1 @ F,0,1,1,0,0.99999997,0,1 @ F,0,1,1,0,0.99999997,0,1 @ F,0,1,1,0,0.99999997,0,1 | F,0,1,1,0,0.99999997,0,1 @ F,0,1,1,0,0.99999997,0,1 @ F,0,1,1,0,0.99999997,0,1 @ F,0,1,1,0,0.99999997,0,1 | F,0,1,1,0,0.99999997,0,1 @ F,0,0,1,0,0,0,1 @ F,0,0,1,0,0,0,1 @ F,0,1,1,0,0.99999997,0,1 @ F,0,1,1,0,0.99999997,0,1 | F,0,1,1,0,0.99999997,0,1 @ F,0,1,1,0,0.99999997,0,1 @ F,0,0,1,0,0,0,1 @ F,0,0,1,0,0,0,1 @ F,0,0,1,0,0,0,1 | F,0,1,1,0,0.99999997,0,1 @ F,0,1,1,0,0.99999997,0,1 @ F,0,1,1,0,0.99999997,0,1 @ F,0,1,1,0,0.99999997,0,1 | F,0,1,1,0,0.99999997,0,1 @ F,0,1,1,0,0.99999997,0,1 @ F,0,0,1,0,0,0,1 @ F,0,1,1,0,0.99999997,0,1 @ F,0,0,1,0,0,0,1 @ F,0,0,1,0,0,0,1 @ F,0,1,1,0,0.99999997,0,1 @ F,0,1,1,0,0.99999997,0,1 @ F,0,0,1,0,0,0,1 | F,0,0,1,0,0,0,1 @ F,0,0,1,0,0,0,1 @ F,0,0,1,0,0,0,1 @ F,0,0,1,0,0,0,1 | F,0,0,1,0,0,0,1 @ F,0,0,1,0,0,0,1 @ F,0,0,1,0,0,0,1 @ F,0,0,1,0,0,0,1 | F,0,0,1,0,0,0,1 @ F,0,0,1,0,0,0,1 @ F,0,0,1,0,0,0,1 @ F,0,0,1,0,0,0,1 | F,0,0,1,0,0,0,1 @ F,0,0,1,0,0,0,1 @ F,0,0,1,0,0,0,1 @ F,0,0,1,0,0,0,1"
       radius="1"
       unit="mm"
       method="auto"
       mode="F"
       chamfer_steps="1"
       flexible="false"
       use_knot_distance="true"
       apply_no_radius="true"
       apply_with_radius="true"
       only_selected="true"
       hide_knots="false" />
    <inkscape:path-effect
       effect="fillet_chamfer"
       id="path-effect1-27"
       is_visible="true"
       lpeversion="1"
       nodesatellites_param="F,0,0,1,0,0,0,1 @ F,0,0,1,0,0,0,1 @ F,0,0,1,0,0,0,1 @ F,0,0,1,0,0,0,1 @ F,0,0,1,0,0,0,1 @ F,0,0,1,0,0,0,1 @ F,0,0,1,0,0,0,1 @ F,0,0,1,0,0,0,1 | F,0,0,1,0,0,0,1 @ F,0,0,1,0,0,0,1 @ F,0,0,1,0,0,0,1 @ F,0,0,1,0,0,0,1 | F,0,0,1,0,0,0,1 @ F,0,0,1,0,0,0,1 @ F,0,0,1,0,0,0,1 @ F,0,0,1,0,0,0,1 | F,0,0,1,0,0,0,1 @ F,0,0,1,0,0,0,1 @ F,0,0,1,0,0,0,1 @ F,0,0,1,0,0,0,1 | F,0,0,1,0,0,0,1 @ F,0,0,1,0,0,0,1 @ F,0,0,1,0,0,0,1 @ F,0,0,1,0,0,0,1 | F,0,0,1,0,0,0,1 @ F,0,1,1,0,0.99999997,0,1 @ F,0,1,1,0,0.99999997,0,1 @ F,0,1,1,0,0.99999997,0,1 @ F,0,0,1,0,0,0,1 | F,0,1,1,0,0.99999997,0,1 @ F,0,1,1,0,0.99999997,0,1 @ F,0,1,1,0,0.99999997,0,1 @ F,0,1,1,0,0.99999997,0,1 | F,0,1,1,0,0.99999997,0,1 @ F,0,1,1,0,0.99999997,0,1 @ F,0,1,1,0,0.99999997,0,1 @ F,0,1,1,0,0.99999997,0,1 | F,0,1,1,0,0.99999997,0,1 @ F,0,1,1,0,0.99999997,0,1 @ F,0,1,1,0,0.99999997,0,1 @ F,0,1,1,0,0.99999997,0,1 | F,0,1,1,0,0.99999997,0,1 @ F,0,0,1,0,0,0,1 @ F,0,0,1,0,0,0,1 @ F,0,1,1,0,0.99999997,0,1 @ F,0,1,1,0,0.99999997,0,1 | F,0,1,1,0,0.99999997,0,1 @ F,0,1,1,0,0.99999997,0,1 @ F,0,0,1,0,0,0,1 @ F,0,1,1,0,0.99999997,0,1 @ F,0,0,1,0,0,0,1 @ F,0,0,1,0,0,0,1 @ F,0,1,1,0,0.99999997,0,1 @ F,0,1,1,0,0.99999997,0,1 @ F,0,0,1,0,0,0,1 @ F,0,0,1,0,0,0,1 @ F,0,1,1,0,0.99999997,0,1 @ F,0,0,1,0,0,0,1 @ F,0,0,1,0,0,0,1 | F,0,1,1,0,0.99999997,0,1 @ F,0,1,1,0,0.99999997,0,1 @ F,0,1,1,0,0.99999997,0,1 @ F,0,1,1,0,0.99999997,0,1 | F,0,1,1,0,0.99999997,0,1 @ F,0,1,1,0,0.99999997,0,1 @ F,0,0,1,0,0,0,1 @ F,0,1,1,0,0.99999997,0,1 @ F,0,0,1,0,0,0,1 @ F,0,0,1,0,0,0,1 @ F,0,1,1,0,0.99999997,0,1 @ F,0,1,1,0,0.99999997,0,1 @ F,0,0,1,0,0,0,1 | F,0,0,1,0,0,0,1 @ F,0,0,1,0,0,0,1 @ F,0,0,1,0,0,0,1 @ F,0,0,1,0,0,0,1 | F,0,0,1,0,0,0,1 @ F,0,0,1,0,0,0,1 @ F,0,0,1,0,0,0,1 @ F,0,0,1,0,0,0,1 | F,0,0,1,0,0,0,1 @ F,0,0,1,0,0,0,1 @ F,0,0,1,0,0,0,1 @ F,0,0,1,0,0,0,1 | F,0,0,1,0,0,0,1 @ F,0,0,1,0,0,0,1 @ F,0,0,1,0,0,0,1 @ F,0,0,1,0,0,0,1"
       radius="1"
       unit="mm"
       method="auto"
       mode="F"
       chamfer_steps="1"
       flexible="false"
       use_knot_distance="true"
       apply_no_radius="true"
       apply_with_radius="true"
       only_selected="true"
       hide_knots="false" />
    <inkscape:path-effect
       effect="fillet_chamfer"
       id="path-effect1-8"
       is_visible="true"
       lpeversion="1"
       nodesatellites_param="F,0,0,1,0,0,0,1 @ F,0,0,1,0,0,0,1 @ F,0,0,1,0,0,0,1 @ F,0,0,1,0,0,0,1 @ F,0,1,1,0,3,0,1 @ F,0,1,1,0,3,0,1 @ F,0,1,1,0,3,0,1 @ F,0,1,1,0,3,0,1 @ F,0,1,1,0,3,0,1 @ F,0,1,1,0,3,0,1 @ F,0,1,1,0,3,0,1 @ F,0,1,1,0,3,0,1 @ F,0,0,1,0,0,0,1 @ F,0,0,1,0,0,0,1 @ F,0,0,1,0,0,0,1 @ F,0,0,1,0,0,0,1 | F,0,0,1,0,0,0,1 @ F,0,0,1,0,0,0,1 @ F,0,0,1,0,0,0,1 @ F,0,0,1,0,0,0,1 | F,0,0,1,0,0,0,1 @ F,0,0,1,0,0,0,1 @ F,0,0,1,0,0,0,1 @ F,0,0,1,0,0,0,1 | F,0,0,1,0,0,0,1 @ F,0,0,1,0,0,0,1 @ F,0,0,1,0,0,0,1 @ F,0,0,1,0,0,0,1 | F,0,0,1,0,0,0,1 @ F,0,0,1,0,0,0,1 @ F,0,0,1,0,0,0,1 @ F,0,0,1,0,0,0,1 | F,0,0,1,0,0,0,1 @ F,0,0,1,0,0,0,1 @ F,0,0,1,0,0,0,1 @ F,0,0,1,0,0,0,1 | F,0,0,1,0,0,0,1 @ F,0,0,1,0,0,0,1 @ F,0,0,1,0,0,0,1 @ F,0,0,1,0,0,0,1"
       radius="3"
       unit="mm"
       method="auto"
       mode="F"
       chamfer_steps="1"
       flexible="false"
       use_knot_distance="true"
       apply_no_radius="true"
       apply_with_radius="true"
       only_selected="true"
       hide_knots="false" />
    <inkscape:path-effect
       effect="fillet_chamfer"
       id="path-effect1-2-1"
       is_visible="true"
       lpeversion="1"
       nodesatellites_param="F,0,0,1,0,0,0,1 @ F,0,0,1,0,0,0,1 @ F,0,0,1,0,0,0,1 @ F,0,0,1,0,0,0,1 @ F,0,1,1,0,3,0,1 @ F,0,1,1,0,3,0,1 @ F,0,1,1,0,3,0,1 @ F,0,1,1,0,3,0,1 @ F,0,1,1,0,3,0,1 @ F,0,1,1,0,3,0,1 @ F,0,1,1,0,3,0,1 @ F,0,1,1,0,3,0,1 @ F,0,0,1,0,0,0,1 @ F,0,0,1,0,0,0,1 @ F,0,0,1,0,0,0,1 @ F,0,0,1,0,0,0,1 | F,0,0,1,0,0,0,1 @ F,0,0,1,0,0,0,1 @ F,0,0,1,0,0,0,1 @ F,0,0,1,0,0,0,1 | F,0,0,1,0,0,0,1 @ F,0,0,1,0,0,0,1 @ F,0,0,1,0,0,0,1 @ F,0,0,1,0,0,0,1 | F,0,0,1,0,0,0,1 @ F,0,0,1,0,0,0,1 @ F,0,0,1,0,0,0,1 @ F,0,0,1,0,0,0,1 | F,0,0,1,0,0,0,1 @ F,0,0,1,0,0,0,1 @ F,0,0,1,0,0,0,1 @ F,0,0,1,0,0,0,1 | F,0,0,1,0,0,0,1 @ F,0,0,1,0,0,0,1 @ F,0,0,1,0,0,0,1 @ F,0,0,1,0,0,0,1 | F,0,0,1,0,0,0,1 @ F,0,0,1,0,0,0,1 @ F,0,0,1,0,0,0,1 @ F,0,0,1,0,0,0,1"
       radius="3"
       unit="mm"
       method="auto"
       mode="F"
       chamfer_steps="1"
       flexible="false"
       use_knot_distance="true"
       apply_no_radius="true"
       apply_with_radius="true"
       only_selected="true"
       hide_knots="false" />
    <inkscape:path-effect
       effect="offset"
       id="path-effect2"
       is_visible="true"
       lpeversion="1.3"
       linejoin_type="miter"
       unit="mm"
       offset="0"
       miter_limit="4"
       attempt_force_join="false"
       update_on_knot_move="true" />
  </defs>
  <g
     inkscape:groupmode="layer"
     id="layer2-8"
     inkscape:label="top-wk"
     style="display:inline;stroke:#ec00f3;stroke-opacity:1;fill:none"
     transform="translate(34.914549,31.183511)">
    <path
       id="rect1-5-8"
       style="fill:none;fill-opacity:1;stroke:#ec00f3;stroke-width:0.0999998;stroke-opacity:1"
       inkscape:label="wall-outter"
       d="m -21.864732,-26.133511 c -1.662,0 -2.999817,1.338334 -2.999817,3.000334 V 113.26677 c 0,1.662 1.337817,2.99981 2.999817,2.99981 H 331.73539 c 1.662,0 2.99982,-1.33781 2.99982,-2.99981 V -23.133177 c 0,-1.662 -1.33782,-3.000334 -2.99982,-3.000334 z m 2.150256,4.150134 c 0.828356,1.93e-4 1.499742,0.671811 1.49965,1.500167 -1.93e-4,0.828154 -0.671496,1.499457 -1.49965,1.49965 -0.828356,9.2e-5 -1.499974,-0.671294 -1.500167,-1.49965 -9.2e-5,-0.828558 0.671609,-1.500259 1.500167,-1.500167 z m 98.499935,0 c 0.828555,-8.8e-5 1.500252,0.671612 1.50016,1.500167 -1.93e-4,0.828353 -0.671807,1.499738 -1.50016,1.49965 -0.828357,9.4e-5 -1.499977,-0.671293 -1.50017,-1.49965 -9.2e-5,-0.828559 0.671611,-1.500261 1.50017,-1.500167 z m 151.699781,0 c 0.82856,-9.4e-5 1.50026,0.671608 1.50017,1.500167 -1.9e-4,0.828357 -0.67181,1.499744 -1.50017,1.49965 -0.82815,-1.93e-4 -1.49946,-0.671496 -1.49965,-1.49965 -9e-5,-0.828356 0.67129,-1.499974 1.49965,-1.500167 z m 99.10041,0 c 0.82836,1.93e-4 1.49974,0.671811 1.49965,1.500167 -1.9e-4,0.828154 -0.6715,1.499457 -1.49965,1.49965 -0.82836,9.4e-5 -1.49998,-0.671293 -1.50017,-1.49965 -9e-5,-0.828559 0.67161,-1.500261 1.50017,-1.500167 z m -348.050073,7.250204 h 17.65054083 a 0.99999997,0.99999997 45 0 1 0.99999997,1 l 0,17.6499629 a 0.99999997,0.99999997 135 0 1 -0.99999997,1 H -18.464362 a 0.99999997,0.99999997 45 0 1 -1,-1 V -13.733234 c 0,-0.554 0.445939,-0.999939 0.999939,-0.999939 z m 37.999292,0 74.90073,0 a 0.99999997,0.99999997 45 0 1 1,1 V 3.9167899 a 0.99999997,0.99999997 135 0 1 -1,1 h -74.90073 a 0.99999997,0.99999997 45 0 1 -1,-1 V -13.733173 a 0.99999997,0.99999997 135 0 1 1,-1 z m 85.725001,0 74.90125,0 a 0.99999997,0.99999997 45 0 1 1,1 V 3.9167899 a 0.99999997,0.99999997 135 0 1 -1,1 h -74.90125 a 0.99999997,0.99999997 45 0 1 -1,-1 l 0,-17.6499629 a 0.99999997,0.99999997 135 0 1 1,-1 z m 85.72448,0 75.20098,0 a 0.99999997,0.99999997 45 0 1 1,1 V 3.9167899 a 0.99999997,0.99999997 135 0 1 -1,1 h -75.20098 a 0.99999997,0.99999997 45 0 1 -1,-1 V -13.733173 a 0.99999997,0.99999997 135 0 1 1,-1 z m 81.26326,0 h 56.08799 c 0.554,0 0.99994,0.445939 0.99994,0.999939 V 3.9167899 a 0.99999997,0.99999997 135 0 1 -1,1 h -56.08793 a 0.99999997,0.99999997 45 0 1 -1,-1 l 0,-17.6499629 a 0.99999997,0.99999997 135 0 1 1,-1 z M -18.464362,8.9785579 H 266.18533 a 0.99999997,0.99999997 45 0 1 1,1 V 104.86676 h -28.57494 a 0.99999997,0.99999997 45 0 1 -1,-1 l 0,-17.987982 H 219.2606 v 17.987982 a 0.99999997,0.99999997 135 0 1 -1,1 H 29.060386 a 0.99999997,0.99999997 45 0 1 -1,-1 V 85.878778 H 9.7106018 v 17.987982 a 0.99999997,0.99999997 135 0 1 -1,1 H -18.464423 c -0.554,0 -0.999939,-0.44594 -0.999939,-0.99994 V 9.9785579 a 0.99999997,0.99999997 135 0 1 1,-1 z m 290.711972,0 h 56.08793 a 0.99999997,0.99999997 45 0 1 1,1 V 46.778773 a 0.99999997,0.99999997 135 0 1 -1,1 h -56.08793 a 0.99999997,0.99999997 45 0 1 -1,-1 V 9.9785579 a 0.99999997,0.99999997 135 0 1 1,-1 z m 19.04897,57.1500001 h 17.75176 a 0.99999997,0.99999997 45 0 1 1,1 v 18.04897 h 18.2872 a 0.99999997,0.99999997 45 0 1 1,1 l 0,17.689292 c 0,0.554 -0.44594,0.99994 -0.99994,0.99994 h -56.08799 a 0.99999997,0.99999997 45 0 1 -1,-1 V 86.177528 a 0.99999997,0.99999997 135 0 1 1,-1 h 18.04897 v -18.04897 a 0.99999997,0.99999997 135 0 1 1,-1 z M -19.714476,109.0169 c 0.828154,1.9e-4 1.499457,0.6715 1.49965,1.49965 8.8e-5,0.82835 -0.671297,1.49997 -1.49965,1.50016 -0.828555,9e-5 -1.500255,-0.67161 -1.500167,-1.50016 1.93e-4,-0.82836 0.671811,-1.49974 1.500167,-1.49965 z m 98.499935,0 c 0.828353,-9e-5 1.499967,0.6713 1.50016,1.49965 8.8e-5,0.82855 -0.671608,1.50025 -1.50016,1.50016 -0.828556,9e-5 -1.500258,-0.6716 -1.50017,-1.50016 1.93e-4,-0.82836 0.671813,-1.49974 1.50017,-1.49965 z m 111.700151,0 c 0.82815,1.9e-4 1.49946,0.6715 1.49965,1.49965 9e-5,0.82835 -0.6713,1.49997 -1.49965,1.50016 -0.82855,9e-5 -1.50025,-0.67161 -1.50016,-1.50016 1.9e-4,-0.82835 0.67181,-1.49974 1.50016,-1.49965 z m 139.10004,0 c 0.82815,1.9e-4 1.49946,0.6715 1.49965,1.49965 9e-5,0.82835 -0.6713,1.49997 -1.49965,1.50016 -0.82856,9e-5 -1.50026,-0.6716 -1.50017,-1.50016 1.9e-4,-0.82836 0.67181,-1.49974 1.50017,-1.49965 z"
       inkscape:path-effect="#path-effect1"
       inkscape:original-d="m -21.864732,-26.133511 c -1.662,0 -2.999817,1.338334 -2.999817,3.000334 V 113.26677 c 0,1.662 1.337817,2.99981 2.999817,2.99981 H 331.73539 c 1.662,0 2.99982,-1.33781 2.99982,-2.99981 V -23.133177 c 0,-1.662 -1.33782,-3.000334 -2.99982,-3.000334 z m 2.150256,4.150134 a 1.5,1.5 0 0 1 1.49965,1.500167 1.5,1.5 0 0 1 -1.49965,1.49965 1.5,1.5 0 0 1 -1.500167,-1.49965 1.5,1.5 0 0 1 1.500167,-1.500167 z m 98.499935,0 a 1.5,1.5 0 0 1 1.50016,1.500167 1.5,1.5 0 0 1 -1.50016,1.49965 1.5,1.5 0 0 1 -1.50017,-1.49965 1.5,1.5 0 0 1 1.50017,-1.500167 z m 151.699781,0 a 1.5,1.5 0 0 1 1.50017,1.500167 1.5,1.5 0 0 1 -1.50017,1.49965 1.5,1.5 0 0 1 -1.49965,-1.49965 1.5,1.5 0 0 1 1.49965,-1.500167 z m 99.10041,0 a 1.5,1.5 0 0 1 1.49965,1.500167 1.5,1.5 0 0 1 -1.49965,1.49965 1.5,1.5 0 0 1 -1.50017,-1.49965 1.5,1.5 0 0 1 1.50017,-1.500167 z m -348.050073,7.250204 H 0.1861178 V 4.9167899 H -19.464362 V -13.733234 c 0,-0.554 0.445939,-0.999939 0.999939,-0.999939 z m 36.999292,0 h 76.90073 V 4.9167899 h -76.90073 z m 85.725001,0 h 76.90125 V 4.9167899 h -76.90125 z m 85.72448,0 h 77.20098 V 4.9167899 h -77.20098 z m 81.26326,0 h 57.08799 c 0.554,0 0.99994,0.445939 0.99994,0.999939 V 4.9167899 H 271.24761 Z M -19.464362,8.9785579 H 267.18533 V 104.86676 H 237.61039 V 85.878778 H 219.2606 V 104.86676 H 28.060386 V 85.878778 H 9.7106018 V 104.86676 H -18.464423 c -0.554,0 -0.999939,-0.44594 -0.999939,-0.99994 z m 290.711972,0 h 58.08793 V 47.778773 h -58.08793 z m 19.04897,57.1500001 h 19.75176 v 19.04897 h 19.2872 v 18.689292 c 0,0.554 -0.44594,0.99994 -0.99994,0.99994 H 271.24761 V 85.177528 h 19.04897 z M -19.714476,109.0169 a 1.5,1.5 0 0 1 1.49965,1.49965 1.5,1.5 0 0 1 -1.49965,1.50016 1.5,1.5 0 0 1 -1.500167,-1.50016 1.5,1.5 0 0 1 1.500167,-1.49965 z m 98.499935,0 a 1.5,1.5 0 0 1 1.50016,1.49965 1.5,1.5 0 0 1 -1.50016,1.50016 1.5,1.5 0 0 1 -1.50017,-1.50016 1.5,1.5 0 0 1 1.50017,-1.49965 z m 111.700151,0 a 1.5,1.5 0 0 1 1.49965,1.49965 1.5,1.5 0 0 1 -1.49965,1.50016 1.5,1.5 0 0 1 -1.50016,-1.50016 1.5,1.5 0 0 1 1.50016,-1.49965 z m 139.10004,0 a 1.5,1.5 0 0 1 1.49965,1.49965 1.5,1.5 0 0 1 -1.49965,1.50016 1.5,1.5 0 0 1 -1.50017,-1.50016 1.5,1.5 0 0 1 1.50017,-1.49965 z" />
  </g>
  <g
     inkscape:groupmode="layer"
     id="layer2-8-8"
     inkscape:label="bottom"
     style="display:inline;stroke:#ec00f3;stroke-opacity:1;fill:none"
     transform="translate(0.2000005,-0.2)">
    <path
       id="rect1-5-8-8"
       style="fill:none;fill-opacity:1;stroke:#ec00f3;stroke-width:0.0999998;stroke-opacity:1"
       inkscape:label="wall-outter"
       d="m 12.849816,5.2499999 c -1.662,0 -2.9998166,1.3383336 -2.9998166,3.0003336 V 144.65028 c 0,1.662 1.3378166,2.99982 2.9998166,2.99982 H 366.44994 c 1.662,0 2.99982,-1.33782 2.99982,-2.99982 V 8.2503335 c 0,-1.662 -1.33782,-3.0003336 -2.99982,-3.0003336 H 196.95021 V 26.553093 c 0,1.662 -1.33833,2.999817 -3.00033,2.999817 h -11.90005 c -1.662,0 -2.99982,-1.337817 -2.99982,-2.999817 V 5.2499999 Z m 2.150256,4.1501343 a 1.5,1.5 0 0 1 1.49965,1.5001668 1.5,1.5 0 0 1 -1.49965,1.499651 1.5,1.5 0 0 1 -1.500167,-1.499651 1.5,1.5 0 0 1 1.500167,-1.5001668 z m 98.499938,0 a 1.5,1.5 0 0 1 1.50016,1.5001668 1.5,1.5 0 0 1 -1.50016,1.499651 1.5,1.5 0 0 1 -1.50017,-1.499651 1.5,1.5 0 0 1 1.50017,-1.5001668 z m 151.69978,0 a 1.5,1.5 0 0 1 1.50017,1.5001668 1.5,1.5 0 0 1 -1.50017,1.499651 1.5,1.5 0 0 1 -1.49965,-1.499651 1.5,1.5 0 0 1 1.49965,-1.5001668 z m 99.10041,0 a 1.5,1.5 0 0 1 1.49965,1.5001668 1.5,1.5 0 0 1 -1.49965,1.499651 1.5,1.5 0 0 1 -1.50017,-1.499651 1.5,1.5 0 0 1 1.50017,-1.5001668 z M 15.000072,140.10017 a 1.8000001,1.8000002 0 0 1 1.79989,1.79989 1.8000001,1.8000002 0 0 1 -1.79989,1.79989 1.8000001,1.8000002 0 0 1 -1.79989,-1.79989 1.8000001,1.8000002 0 0 1 1.79989,-1.79989 z m 98.499938,0 a 1.8000001,1.8000002 0 0 1 1.79989,1.79989 1.8000001,1.8000002 0 0 1 -1.79989,1.79989 1.8000001,1.8000002 0 0 1 -1.79989,-1.79989 1.8000001,1.8000002 0 0 1 1.79989,-1.79989 z m 111.70015,0 a 1.8000001,1.8000002 0 0 1 1.79989,1.79989 1.8000001,1.8000002 0 0 1 -1.79989,1.79989 1.8000001,1.8000002 0 0 1 -1.8004,-1.79989 1.8000001,1.8000002 0 0 1 1.8004,-1.79989 z m 139.10004,0 a 1.8000001,1.8000002 0 0 1 1.79989,1.79989 1.8000001,1.8000002 0 0 1 -1.79989,1.79989 1.8000001,1.8000002 0 0 1 -1.80041,-1.79989 1.8000001,1.8000002 0 0 1 1.80041,-1.79989 z" />
  </g>
  <g
     inkscape:groupmode="layer"
     id="layer2-8-5"
     inkscape:label="bottom-db2"
     style="display:inline;stroke:#ec00f3;stroke-opacity:1;fill:none"
     transform="translate(0.1999678,-0.2)">
    <path
       id="rect1-5-8-1"
       style="fill:none;fill-opacity:1;stroke:#ec00f3;stroke-width:0.0999998;stroke-opacity:1"
       inkscape:label="wall-outter"
       d="m 12.849849,5.2499999 c -1.662,0 -2.9998169,1.3383336 -2.9998169,3.0003336 V 144.65027 c 0,1.662 1.3378169,2.99982 2.9998169,2.99982 H 366.44997 c 1.662,0 2.99982,-1.33782 2.99982,-2.99982 V 8.2503335 c 0,-1.662 -1.33782,-3.0003336 -2.99982,-3.0003336 H 198.60337 V 23.213245 c 0,1.108 -0.8924,1.999878 -2.0004,1.999878 h -17.27594 c -1.108,0 -1.99988,-0.891878 -1.99988,-1.999878 V 5.2499999 Z m 2.150256,4.1501343 a 1.5,1.5 0 0 1 1.49965,1.5001668 1.5,1.5 0 0 1 -1.49965,1.499651 1.5,1.5 0 0 1 -1.500167,-1.499651 1.5,1.5 0 0 1 1.500167,-1.5001668 z m 98.499935,0 a 1.5,1.5 0 0 1 1.50016,1.5001668 1.5,1.5 0 0 1 -1.50016,1.499651 1.5,1.5 0 0 1 -1.50017,-1.499651 1.5,1.5 0 0 1 1.50017,-1.5001668 z m 151.69978,0 a 1.5,1.5 0 0 1 1.50017,1.5001668 1.5,1.5 0 0 1 -1.50017,1.499651 1.5,1.5 0 0 1 -1.49965,-1.499651 1.5,1.5 0 0 1 1.49965,-1.5001668 z m 99.10041,0 a 1.5,1.5 0 0 1 1.49965,1.5001668 1.5,1.5 0 0 1 -1.49965,1.499651 1.5,1.5 0 0 1 -1.50017,-1.499651 1.5,1.5 0 0 1 1.50017,-1.5001668 z M 15.000105,140.10016 a 1.8000001,1.8000002 0 0 1 1.79989,1.79989 1.8000001,1.8000002 0 0 1 -1.79989,1.79989 1.8000001,1.8000002 0 0 1 -1.79989,-1.79989 1.8000001,1.8000002 0 0 1 1.79989,-1.79989 z m 98.499935,0 a 1.8000001,1.8000002 0 0 1 1.79989,1.79989 1.8000001,1.8000002 0 0 1 -1.79989,1.79989 1.8000001,1.8000002 0 0 1 -1.79989,-1.79989 1.8000001,1.8000002 0 0 1 1.79989,-1.79989 z m 111.70015,0 a 1.8000001,1.8000002 0 0 1 1.79989,1.79989 1.8000001,1.8000002 0 0 1 -1.79989,1.79989 1.8000001,1.8000002 0 0 1 -1.8004,-1.79989 1.8000001,1.8000002 0 0 1 1.8004,-1.79989 z m 139.10004,0 a 1.8000001,1.8000002 0 0 1 1.79989,1.79989 1.8000001,1.8000002 0 0 1 -1.79989,1.79989 1.8000001,1.8000002 0 0 1 -1.80041,-1.79989 1.8000001,1.8000002 0 0 1 1.80041,-1.79989 z" />
  </g>
  <g
     inkscape:groupmode="layer"
     id="layer2-5"
     inkscape:label="side-1"
     style="display:inline;stroke:#ec00f3;stroke-opacity:1;fill:none"
     transform="translate(0.1999678,3.8)">
    <path
       id="rect1-5-1"
       style="fill:none;fill-opacity:1;stroke:#ec00f3;stroke-width:0.0999998;stroke-opacity:1"
       inkscape:label="wall-outter"
       d="m 12.849849,1.2499999 c -1.662,0 -2.9998169,1.3378169 -2.9998169,2.9998169 V 140.64976 c 0,1.662 1.3378169,3.00033 2.9998169,3.00033 H 366.44997 c 1.662,0 2.99982,-1.33833 2.99982,-3.00033 V 4.2498168 c 0,-1.662 -1.33782,-2.9998169 -2.99982,-2.9998169 H 196.95024 V 11.649882 h 166.09994 c 0.554,0 0.99994,0.445939 0.99994,0.999939 V 132.24975 c 0,0.554 -0.44594,0.99994 -0.99994,0.99994 H 16.250158 c -0.554,0 -0.999939,-0.44594 -0.999939,-0.99994 V 12.649821 c 0,-0.554 0.445939,-0.999939 0.999939,-0.999939 H 179.05004 V 1.2499999 Z m 2.150256,4.1501343 a 1.5,1.5 0 0 1 1.49965,1.4996497 1.5,1.5 0 0 1 -1.49965,1.500167 1.5,1.5 0 0 1 -1.500167,-1.500167 1.5,1.5 0 0 1 1.500167,-1.4996497 z m 98.499935,0 a 1.5,1.5 0 0 1 1.50016,1.4996497 1.5,1.5 0 0 1 -1.50016,1.500167 1.5,1.5 0 0 1 -1.50017,-1.500167 1.5,1.5 0 0 1 1.50017,-1.4996497 z m 151.69978,0 a 1.5,1.5 0 0 1 1.50017,1.4996497 1.5,1.5 0 0 1 -1.50017,1.500167 1.5,1.5 0 0 1 -1.49965,-1.500167 1.5,1.5 0 0 1 1.49965,-1.4996497 z m 99.10041,0 a 1.5,1.5 0 0 1 1.49965,1.4996497 1.5,1.5 0 0 1 -1.49965,1.500167 1.5,1.5 0 0 1 -1.50017,-1.500167 1.5,1.5 0 0 1 1.50017,-1.4996497 z M 15.000105,136.39989 a 1.5,1.5 0 0 1 1.49965,1.50016 1.5,1.5 0 0 1 -1.49965,1.49966 1.5,1.5 0 0 1 -1.500167,-1.49966 1.5,1.5 0 0 1 1.500167,-1.50016 z m 98.499935,0 a 1.5,1.5 0 0 1 1.50016,1.50016 1.5,1.5 0 0 1 -1.50016,1.49966 1.5,1.5 0 0 1 -1.50017,-1.49966 1.5,1.5 0 0 1 1.50017,-1.50016 z m 111.70015,0 a 1.5,1.5 0 0 1 1.49965,1.50016 1.5,1.5 0 0 1 -1.49965,1.49966 1.5,1.5 0 0 1 -1.50016,-1.49966 1.5,1.5 0 0 1 1.50016,-1.50016 z m 139.10004,0 a 1.5,1.5 0 0 1 1.49965,1.50016 1.5,1.5 0 0 1 -1.49965,1.49966 1.5,1.5 0 0 1 -1.50017,-1.49966 1.5,1.5 0 0 1 1.50017,-1.50016 z" />
  </g>
  <g
     inkscape:groupmode="layer"
     id="layer2-5-6"
     inkscape:label="side-1-db2"
     style="display:inline;stroke:#ec00f3;stroke-opacity:1;fill:none"
     transform="translate(0.1999678,3.8)">
    <path
       id="rect1-5-1-1"
       style="fill:none;fill-opacity:1;stroke:#ec00f3;stroke-width:0.0999998;stroke-opacity:1"
       inkscape:label="wall-outter"
       d="m 12.849849,1.2499999 c -1.662,0 -2.9998169,1.3378169 -2.9998169,2.9998169 V 140.64976 c 0,1.662 1.3378169,3.00033 2.9998169,3.00033 H 366.44997 c 1.662,0 2.99982,-1.33833 2.99982,-3.00033 V 4.2498168 c 0,-1.662 -1.33782,-2.9998169 -2.99982,-2.9998169 H 198.60337 V 11.649882 h 164.44681 c 0.554,0 0.99994,0.445939 0.99994,0.999939 V 132.24975 c 0,0.554 -0.44594,0.99994 -0.99994,0.99994 H 16.250158 c -0.554,0 -0.999939,-0.44594 -0.999939,-0.99994 V 12.649821 c 0,-0.554 0.445939,-0.999939 0.999939,-0.999939 H 177.32715 V 1.2499999 Z m 2.150256,4.1501343 a 1.5,1.5 0 0 1 1.49965,1.4996497 1.5,1.5 0 0 1 -1.49965,1.500167 1.5,1.5 0 0 1 -1.500167,-1.500167 1.5,1.5 0 0 1 1.500167,-1.4996497 z m 98.499935,0 a 1.5,1.5 0 0 1 1.50016,1.4996497 1.5,1.5 0 0 1 -1.50016,1.500167 1.5,1.5 0 0 1 -1.50017,-1.500167 1.5,1.5 0 0 1 1.50017,-1.4996497 z m 151.69978,0 a 1.5,1.5 0 0 1 1.50017,1.4996497 1.5,1.5 0 0 1 -1.50017,1.500167 1.5,1.5 0 0 1 -1.49965,-1.500167 1.5,1.5 0 0 1 1.49965,-1.4996497 z m 99.10041,0 a 1.5,1.5 0 0 1 1.49965,1.4996497 1.5,1.5 0 0 1 -1.49965,1.500167 1.5,1.5 0 0 1 -1.50017,-1.500167 1.5,1.5 0 0 1 1.50017,-1.4996497 z M 15.000105,136.39989 a 1.5,1.5 0 0 1 1.49965,1.50016 1.5,1.5 0 0 1 -1.49965,1.49966 1.5,1.5 0 0 1 -1.500167,-1.49966 1.5,1.5 0 0 1 1.500167,-1.50016 z m 98.499935,0 a 1.5,1.5 0 0 1 1.50016,1.50016 1.5,1.5 0 0 1 -1.50016,1.49966 1.5,1.5 0 0 1 -1.50017,-1.49966 1.5,1.5 0 0 1 1.50017,-1.50016 z m 111.70015,0 a 1.5,1.5 0 0 1 1.49965,1.50016 1.5,1.5 0 0 1 -1.49965,1.49966 1.5,1.5 0 0 1 -1.50016,-1.49966 1.5,1.5 0 0 1 1.50016,-1.50016 z m 139.10004,0 a 1.5,1.5 0 0 1 1.49965,1.50016 1.5,1.5 0 0 1 -1.49965,1.49966 1.5,1.5 0 0 1 -1.50017,-1.49966 1.5,1.5 0 0 1 1.50017,-1.50016 z" />
  </g>
  <g
     inkscape:groupmode="layer"
     id="layer2-5-2"
     inkscape:label="side-2"
     style="display:inline;stroke:#ec00f3;stroke-opacity:1;fill:none"
     transform="translate(0.2000005,3.8)">
    <path
       id="rect1-5-2"
       style="fill:none;fill-opacity:1;stroke:#ec00f3;stroke-width:0.0999998;stroke-opacity:1"
       inkscape:label="wall-outter"
       d="m 12.849816,1.2499999 c -1.662,0 -2.9998166,1.3378169 -2.9998166,2.9998169 V 140.64976 c 0,1.662 1.3378166,3.00033 2.9998166,3.00033 H 366.44994 c 1.662,0 2.99982,-1.33833 2.99982,-3.00033 V 4.2498168 c 0,-1.662 -1.33782,-2.9998169 -2.99982,-2.9998169 z m 2.150256,4.1501343 a 1.5,1.5 0 0 1 1.49965,1.4996497 1.5,1.5 0 0 1 -1.49965,1.500167 1.5,1.5 0 0 1 -1.500167,-1.500167 1.5,1.5 0 0 1 1.500167,-1.4996497 z m 98.499938,0 a 1.5,1.5 0 0 1 1.50016,1.4996497 1.5,1.5 0 0 1 -1.50016,1.500167 1.5,1.5 0 0 1 -1.50017,-1.500167 1.5,1.5 0 0 1 1.50017,-1.4996497 z m 151.69978,0 a 1.5,1.5 0 0 1 1.50017,1.4996497 1.5,1.5 0 0 1 -1.50017,1.500167 1.5,1.5 0 0 1 -1.49965,-1.500167 1.5,1.5 0 0 1 1.49965,-1.4996497 z m 99.10041,0 a 1.5,1.5 0 0 1 1.49965,1.4996497 1.5,1.5 0 0 1 -1.49965,1.500167 1.5,1.5 0 0 1 -1.50017,-1.500167 1.5,1.5 0 0 1 1.50017,-1.4996497 z M 16.250125,11.649882 H 363.05015 c 0.554,0 0.99994,0.445939 0.99994,0.999939 V 132.24975 c 0,0.554 -0.44594,0.99994 -0.99994,0.99994 H 16.250125 c -0.554,0 -0.999939,-0.44594 -0.999939,-0.99994 V 12.649821 c 0,-0.554 0.445939,-0.999939 0.999939,-0.999939 z M 15.000072,136.39989 a 1.5,1.5 0 0 1 1.49965,1.50016 1.5,1.5 0 0 1 -1.49965,1.49966 1.5,1.5 0 0 1 -1.500167,-1.49966 1.5,1.5 0 0 1 1.500167,-1.50016 z m 98.499938,0 a 1.5,1.5 0 0 1 1.50016,1.50016 1.5,1.5 0 0 1 -1.50016,1.49966 1.5,1.5 0 0 1 -1.50017,-1.49966 1.5,1.5 0 0 1 1.50017,-1.50016 z m 111.70015,0 a 1.5,1.5 0 0 1 1.49965,1.50016 1.5,1.5 0 0 1 -1.49965,1.49966 1.5,1.5 0 0 1 -1.50016,-1.49966 1.5,1.5 0 0 1 1.50016,-1.50016 z m 139.10004,0 a 1.5,1.5 0 0 1 1.49965,1.50016 1.5,1.5 0 0 1 -1.49965,1.49966 1.5,1.5 0 0 1 -1.50017,-1.49966 1.5,1.5 0 0 1 1.50017,-1.50016 z" />
  </g>
  <g
     inkscape:groupmode="layer"
     id="layer2-4"
     inkscape:label="side-3"
     style="display:inline;stroke:#ec00f3;stroke-opacity:1;fill:none"
     transform="translate(0.1999678,3.8)">
    <path
       id="rect1-5-2-8"
       style="fill:none;fill-opacity:1;stroke:#ec00f3;stroke-width:0.0999998;stroke-opacity:1"
       inkscape:label="wall-outter"
       d="m 12.849849,1.2499999 c -1.662,0 -2.9998169,1.3378169 -2.9998169,2.9998169 V 140.64976 c 0,1.662 1.3378169,3.00033 2.9998169,3.00033 H 366.44997 c 1.662,0 2.99982,-1.33833 2.99982,-3.00033 V 4.2498168 c 0,-1.662 -1.33782,-2.9998169 -2.99982,-2.9998169 z m 2.150256,4.1501343 c 0.828154,1.932e-4 1.499457,0.671496 1.49965,1.4996497 9.2e-5,0.8283557 -0.671294,1.4999737 -1.49965,1.500167 -0.828558,9.23e-5 -1.500259,-0.6716094 -1.500167,-1.500167 1.93e-4,-0.8283555 0.671811,-1.4997419 1.500167,-1.4996497 z m 98.499935,0 c 0.82835,-8.84e-5 1.49997,0.6712969 1.50016,1.4996497 9e-5,0.8285548 -0.67161,1.5002554 -1.50016,1.500167 -0.82856,9.39e-5 -1.50026,-0.6716083 -1.50017,-1.500167 1.9e-4,-0.8283567 0.67181,-1.4997436 1.50017,-1.4996497 z m 151.69978,0 c 0.82836,-9.39e-5 1.49998,0.671293 1.50017,1.4996497 9e-5,0.8285587 -0.67161,1.5002609 -1.50017,1.500167 -0.82836,-1.933e-4 -1.49974,-0.6718113 -1.49965,-1.500167 1.9e-4,-0.8281537 0.6715,-1.4994565 1.49965,-1.4996497 z m 99.10041,0 c 0.82815,1.932e-4 1.49946,0.671496 1.49965,1.4996497 9e-5,0.8283557 -0.67129,1.4999737 -1.49965,1.500167 -0.82856,9.39e-5 -1.50026,-0.6716083 -1.50017,-1.500167 1.9e-4,-0.8283567 0.67181,-1.4997436 1.50017,-1.4996497 z M 21.299979,6.6997969 h 38.499976 c 0.554,0 0.999939,0.445939 0.999939,0.999939 V 11.649882 H 119.3002 V 7.6997359 c 0,-0.554 0.44594,-0.999939 0.99994,-0.999939 h 38.49997 c 0.554,0 0.99994,0.445939 0.99994,0.999939 v 3.9501461 h 58.49979 V 7.6997359 c 0,-0.554 0.44594,-0.999939 0.99994,-0.999939 h 38.49998 c 0.554,0 1.00045,0.445939 1.00045,0.999939 V 11.649882 H 317.3 V 7.6997359 c 0,-0.554 0.44594,-0.999939 0.99994,-0.999939 h 39.00009 c 0.554,0 0.99994,0.445939 0.99994,0.999939 v 3.9501461 h 4.75021 c 0.554,0 0.99994,0.445939 0.99994,0.999939 V 132.24975 c 0,0.554 -0.44594,0.99994 -0.99994,0.99994 h -4.75021 v 3.98942 c 0,0.554 -0.44594,0.99994 -0.99994,0.99994 h -39.00009 c -0.554,0 -0.99994,-0.44594 -0.99994,-0.99994 v -3.98942 h -45.50007 v 3.98942 c 0,0.554 -0.44593,0.99994 -0.99993,0.99994 h -38.49998 c -0.554,0 -0.99994,-0.44594 -0.99994,-0.99994 v -3.98942 H 73.800134 v 3.98942 c 0,0.554 -0.445939,0.99994 -0.999939,0.99994 H 34.300219 c -0.554,0 -1.000455,-0.44594 -1.000455,-0.99994 v -3.98942 H 16.250158 c -0.554,0 -0.999939,-0.44594 -0.999939,-0.99994 V 12.649821 c 0,-0.554 0.445939,-0.999939 0.999939,-0.999939 H 20.30004 V 7.6997359 c 0,-0.554 0.445939,-0.999939 0.999939,-0.999939 z M 15.000105,136.39989 c 0.828353,1.9e-4 1.499738,0.67181 1.49965,1.50016 -1.88e-4,0.82816 -0.671492,1.49947 -1.49965,1.49966 -0.82836,9e-5 -1.499979,-0.6713 -1.500167,-1.49966 -8.8e-5,-0.82855 0.671612,-1.50025 1.500167,-1.50016 z m 98.499935,0 c 0.82855,-9e-5 1.50025,0.67161 1.50016,1.50016 -1.9e-4,0.82836 -0.6718,1.49975 -1.50016,1.49966 -0.82836,9e-5 -1.49998,-0.6713 -1.50017,-1.49966 -9e-5,-0.82856 0.67161,-1.50025 1.50017,-1.50016 z m 111.70015,0 c 0.82835,1.9e-4 1.49974,0.67181 1.49965,1.50016 -1.9e-4,0.82816 -0.67149,1.49947 -1.49965,1.49966 -0.82836,9e-5 -1.49997,-0.6713 -1.50016,-1.49966 -9e-5,-0.82855 0.67161,-1.50025 1.50016,-1.50016 z m 139.10004,0 c 0.82835,1.9e-4 1.49974,0.67181 1.49965,1.50016 -1.9e-4,0.82816 -0.67149,1.49947 -1.49965,1.49966 -0.82836,9e-5 -1.49998,-0.6713 -1.50017,-1.49966 -9e-5,-0.82856 0.67161,-1.50025 1.50017,-1.50016 z"
       sodipodi:nodetypes="sssssssssccccccccccccccccccccsssccssssccssssccsssscsssscssssccssssccsssscsssscsscccccccccccccccccccc" />
  </g>
  <g
     inkscape:groupmode="layer"
     id="layer2-8-1"
     inkscape:label="top-wk"
     style="display:inline;stroke:#ec00f3;stroke-opacity:1;fill:none"
     transform="translate(0.2000009,0.1999999)">
    <path
       id="rect1-5-8-5"
       style="display:inline;fill:none;fill-opacity:1;stroke:#ec00f3;stroke-width:0.0999998;stroke-opacity:1"
       inkscape:label="wall-outter"
       d="m -21.864732,-26.133511 c -1.662,0 -2.999817,1.338334 -2.999817,3.000334 V 113.26677 c 0,1.662 1.337817,2.99981 2.999817,2.99981 H 331.73539 c 1.662,0 2.99982,-1.33781 2.99982,-2.99981 V -23.133177 c 0,-1.662 -1.33782,-3.000334 -2.99982,-3.000334 z m 2.150256,4.150134 c 0.828356,1.93e-4 1.499742,0.671811 1.49965,1.500167 -1.93e-4,0.828154 -0.671496,1.499457 -1.49965,1.49965 -0.828356,9.2e-5 -1.499974,-0.671294 -1.500167,-1.49965 -9.2e-5,-0.828558 0.671609,-1.500259 1.500167,-1.500167 z m 98.499935,0 c 0.828555,-8.8e-5 1.500252,0.671612 1.50016,1.500167 -1.93e-4,0.828353 -0.671807,1.499738 -1.50016,1.49965 -0.828357,9.4e-5 -1.499977,-0.671293 -1.50017,-1.49965 -9.2e-5,-0.828559 0.671611,-1.500261 1.50017,-1.500167 z m 151.699781,0 c 0.82856,-9.4e-5 1.50026,0.671608 1.50017,1.500167 -1.9e-4,0.828357 -0.67181,1.499744 -1.50017,1.49965 -0.82815,-1.93e-4 -1.49946,-0.671496 -1.49965,-1.49965 -9e-5,-0.828356 0.67129,-1.499974 1.49965,-1.500167 z m 99.10041,0 c 0.82836,1.93e-4 1.49974,0.671811 1.49965,1.500167 -1.9e-4,0.828154 -0.6715,1.499457 -1.49965,1.49965 -0.82836,9.4e-5 -1.49998,-0.671293 -1.50017,-1.49965 -9e-5,-0.828559 0.67161,-1.500261 1.50017,-1.500167 z m -348.050073,7.250204 h 17.65054083 a 0.99999997,0.99999997 45 0 1 0.99999997,1 l 0,17.6499629 a 0.99999997,0.99999997 135 0 1 -0.99999997,1 H -18.464362 a 0.99999997,0.99999997 45 0 1 -1,-1 V -13.733234 c 0,-0.554 0.445939,-0.999939 0.999939,-0.999939 z m 37.999292,0 74.90073,0 a 0.99999997,0.99999997 45 0 1 1,1 V 3.9167899 a 0.99999997,0.99999997 135 0 1 -1,1 h -74.90073 a 0.99999997,0.99999997 45 0 1 -1,-1 V -13.733173 a 0.99999997,0.99999997 135 0 1 1,-1 z m 85.725001,0 74.90125,0 a 0.99999997,0.99999997 45 0 1 1,1 V 3.9167899 a 0.99999997,0.99999997 135 0 1 -1,1 h -74.90125 a 0.99999997,0.99999997 45 0 1 -1,-1 l 0,-17.6499629 a 0.99999997,0.99999997 135 0 1 1,-1 z m 85.72448,0 75.20098,0 a 0.99999997,0.99999997 45 0 1 1,1 V 3.9167899 a 0.99999997,0.99999997 135 0 1 -1,1 h -75.20098 a 0.99999997,0.99999997 45 0 1 -1,-1 V -13.733173 a 0.99999997,0.99999997 135 0 1 1,-1 z m 81.26326,0 h 56.08799 c 0.554,0 0.99994,0.445939 0.99994,0.999939 V 3.9167899 a 0.99999997,0.99999997 135 0 1 -1,1 h -56.08793 a 0.99999997,0.99999997 45 0 1 -1,-1 l 0,-17.6499629 a 0.99999997,0.99999997 135 0 1 1,-1 z M -18.464362,8.9785579 H 266.18533 a 0.99999997,0.99999997 45 0 1 1,1 V 104.86676 H -18.464423 c -0.554,0 -0.999939,-0.44594 -0.999939,-0.99994 V 9.9785579 a 0.99999997,0.99999997 135 0 1 1,-1 z m 290.711972,0 h 56.08793 a 0.99999997,0.99999997 45 0 1 1,1 V 46.778773 a 0.99999997,0.99999997 135 0 1 -1,1 h -56.08793 a 0.99999997,0.99999997 45 0 1 -1,-1 V 9.9785579 a 0.99999997,0.99999997 135 0 1 1,-1 z m 19.04897,57.1500001 h 17.75176 a 0.99999997,0.99999997 45 0 1 1,1 v 18.04897 h 18.2872 a 0.99999997,0.99999997 45 0 1 1,1 l 0,17.689292 c 0,0.554 -0.44594,0.99994 -0.99994,0.99994 h -56.08799 a 0.99999997,0.99999997 45 0 1 -1,-1 V 86.177528 a 0.99999997,0.99999997 135 0 1 1,-1 h 18.04897 v -18.04897 a 0.99999997,0.99999997 135 0 1 1,-1 z M -19.714476,109.0169 c 0.828154,1.9e-4 1.499457,0.6715 1.49965,1.49965 8.8e-5,0.82835 -0.671297,1.49997 -1.49965,1.50016 -0.828555,9e-5 -1.500255,-0.67161 -1.500167,-1.50016 1.93e-4,-0.82836 0.671811,-1.49974 1.500167,-1.49965 z m 98.499935,0 c 0.828353,-9e-5 1.499967,0.6713 1.50016,1.49965 8.8e-5,0.82855 -0.671608,1.50025 -1.50016,1.50016 -0.828556,9e-5 -1.500258,-0.6716 -1.50017,-1.50016 1.93e-4,-0.82836 0.671813,-1.49974 1.50017,-1.49965 z m 111.700151,0 c 0.82815,1.9e-4 1.49946,0.6715 1.49965,1.49965 9e-5,0.82835 -0.6713,1.49997 -1.49965,1.50016 -0.82855,9e-5 -1.50025,-0.67161 -1.50016,-1.50016 1.9e-4,-0.82835 0.67181,-1.49974 1.50016,-1.49965 z m 139.10004,0 c 0.82815,1.9e-4 1.49946,0.6715 1.49965,1.49965 9e-5,0.82835 -0.6713,1.49997 -1.49965,1.50016 -0.82856,9e-5 -1.50026,-0.6716 -1.50017,-1.50016 1.9e-4,-0.82836 0.67181,-1.49974 1.50017,-1.49965 z"
       inkscape:path-effect="#path-effect1-2"
       inkscape:original-d="m -21.864732,-26.133511 c -1.662,0 -2.999817,1.338334 -2.999817,3.000334 V 113.26677 c 0,1.662 1.337817,2.99981 2.999817,2.99981 H 331.73539 c 1.662,0 2.99982,-1.33781 2.99982,-2.99981 V -23.133177 c 0,-1.662 -1.33782,-3.000334 -2.99982,-3.000334 z m 2.150256,4.150134 c 0.828356,1.93e-4 1.499742,0.671811 1.49965,1.500167 -1.93e-4,0.828154 -0.671496,1.499457 -1.49965,1.49965 -0.828356,9.2e-5 -1.499974,-0.671294 -1.500167,-1.49965 -9.2e-5,-0.828558 0.671609,-1.500259 1.500167,-1.500167 z m 98.499935,0 c 0.828555,-8.8e-5 1.500252,0.671612 1.50016,1.500167 -1.93e-4,0.828353 -0.671807,1.499738 -1.50016,1.49965 -0.828357,9.4e-5 -1.499977,-0.671293 -1.50017,-1.49965 -9.2e-5,-0.828559 0.671611,-1.500261 1.50017,-1.500167 z m 151.699781,0 c 0.82856,-9.4e-5 1.50026,0.671608 1.50017,1.500167 -1.9e-4,0.828357 -0.67181,1.499744 -1.50017,1.49965 -0.82815,-1.93e-4 -1.49946,-0.671496 -1.49965,-1.49965 -9e-5,-0.828356 0.67129,-1.499974 1.49965,-1.500167 z m 99.10041,0 c 0.82836,1.93e-4 1.49974,0.671811 1.49965,1.500167 -1.9e-4,0.828154 -0.6715,1.499457 -1.49965,1.49965 -0.82836,9.4e-5 -1.49998,-0.671293 -1.50017,-1.49965 -9e-5,-0.828559 0.67161,-1.500261 1.50017,-1.500167 z m -348.050073,7.250204 H 0.1861178 V 4.9167899 H -19.464362 V -13.733234 c 0,-0.554 0.445939,-0.999939 0.999939,-0.999939 z m 36.999292,0 h 76.90073 V 4.9167899 h -76.90073 z m 85.725001,0 h 76.90125 V 4.9167899 h -76.90125 z m 85.72448,0 h 77.20098 V 4.9167899 h -77.20098 z m 81.26326,0 h 57.08799 c 0.554,0 0.99994,0.445939 0.99994,0.999939 V 4.9167899 H 271.24761 Z M -19.464362,8.9785579 H 267.18533 V 104.86676 H -18.464423 c -0.554,0 -0.999939,-0.44594 -0.999939,-0.99994 z m 290.711972,0 h 58.08793 V 47.778773 h -58.08793 z m 19.04897,57.1500001 h 19.75176 v 19.04897 h 19.2872 v 18.689292 c 0,0.554 -0.44594,0.99994 -0.99994,0.99994 H 271.24761 V 85.177528 h 19.04897 z M -19.714476,109.0169 c 0.828154,1.9e-4 1.499457,0.6715 1.49965,1.49965 8.8e-5,0.82835 -0.671297,1.49997 -1.49965,1.50016 -0.828555,9e-5 -1.500255,-0.67161 -1.500167,-1.50016 1.93e-4,-0.82836 0.671811,-1.49974 1.500167,-1.49965 z m 98.499935,0 c 0.828353,-9e-5 1.499967,0.6713 1.50016,1.49965 8.8e-5,0.82855 -0.671608,1.50025 -1.50016,1.50016 -0.828556,9e-5 -1.500258,-0.6716 -1.50017,-1.50016 1.93e-4,-0.82836 0.671813,-1.49974 1.50017,-1.49965 z m 111.700151,0 c 0.82815,1.9e-4 1.49946,0.6715 1.49965,1.49965 9e-5,0.82835 -0.6713,1.49997 -1.49965,1.50016 -0.82855,9e-5 -1.50025,-0.67161 -1.50016,-1.50016 1.9e-4,-0.82835 0.67181,-1.49974 1.50016,-1.49965 z m 139.10004,0 c 0.82815,1.9e-4 1.49946,0.6715 1.49965,1.49965 9e-5,0.82835 -0.6713,1.49997 -1.49965,1.50016 -0.82856,9e-5 -1.50026,-0.6716 -1.50017,-1.50016 1.9e-4,-0.82836 0.67181,-1.49974 1.50017,-1.49965 z"
       transform="translate(34.714548,30.983511)"
       sodipodi:nodetypes="sssssssssccccccccccccccccccccscccssccccccccccccccccssccccccssccccccccccsscccccccccccccccccccccccc" />
  </g>
  <g
     inkscape:groupmode="layer"
     id="layer2-8-54"
     inkscape:label="top-wkl"
     style="display:inline;stroke:#ec00f3;stroke-opacity:1;fill:none"
     transform="translate(34.914549,31.183511)">
    <path
       id="rect1-5-8-3"
       style="fill:none;fill-opacity:1;stroke:#ec00f3;stroke-width:0.0999998;stroke-opacity:1"
       inkscape:label="wall-outter"
       d="m -21.864732,-26.133511 c -1.662,0 -2.999817,1.338334 -2.999817,3.000334 V 113.26677 c 0,1.662 1.337817,2.99981 2.999817,2.99981 H 331.73539 c 1.662,0 2.99982,-1.33781 2.99982,-2.99981 V -23.133177 c 0,-1.662 -1.33782,-3.000334 -2.99982,-3.000334 z m 2.150256,4.150134 c 0.828356,1.93e-4 1.499742,0.671811 1.49965,1.500167 -1.93e-4,0.828154 -0.671496,1.499457 -1.49965,1.49965 -0.828356,9.2e-5 -1.499974,-0.671294 -1.500167,-1.49965 -9.2e-5,-0.828558 0.671609,-1.500259 1.500167,-1.500167 z m 98.499935,0 c 0.828555,-8.8e-5 1.500252,0.671612 1.50016,1.500167 -1.93e-4,0.828353 -0.671807,1.499738 -1.50016,1.49965 -0.828357,9.4e-5 -1.499977,-0.671293 -1.50017,-1.49965 -9.2e-5,-0.828559 0.671611,-1.500261 1.50017,-1.500167 z m 151.699781,0 c 0.82856,-9.4e-5 1.50026,0.671608 1.50017,1.500167 -1.9e-4,0.828357 -0.67181,1.499744 -1.50017,1.49965 -0.82815,-1.93e-4 -1.49946,-0.671496 -1.49965,-1.49965 -9e-5,-0.828356 0.67129,-1.499974 1.49965,-1.500167 z m 99.10041,0 c 0.82836,1.93e-4 1.49974,0.671811 1.49965,1.500167 -1.9e-4,0.828154 -0.6715,1.499457 -1.49965,1.49965 -0.82836,9.4e-5 -1.49998,-0.671293 -1.50017,-1.49965 -9e-5,-0.828559 0.67161,-1.500261 1.50017,-1.500167 z m -348.050073,7.250204 h 17.65054083 a 0.99999997,0.99999997 45 0 1 0.99999997,1 l 0,17.6499629 a 0.99999997,0.99999997 135 0 1 -0.99999997,1 H -18.464362 a 0.99999997,0.99999997 45 0 1 -1,-1 V -13.733234 c 0,-0.554 0.445939,-0.999939 0.999939,-0.999939 z m 37.999292,0 74.90073,0 a 0.99999997,0.99999997 45 0 1 1,1 V 3.9167899 a 0.99999997,0.99999997 135 0 1 -1,1 h -74.90073 a 0.99999997,0.99999997 45 0 1 -1,-1 V -13.733173 a 0.99999997,0.99999997 135 0 1 1,-1 z m 85.725001,0 74.90125,0 a 0.99999997,0.99999997 45 0 1 1,1 V 3.9167899 a 0.99999997,0.99999997 135 0 1 -1,1 h -74.90125 a 0.99999997,0.99999997 45 0 1 -1,-1 l 0,-17.6499629 a 0.99999997,0.99999997 135 0 1 1,-1 z m 85.72448,0 75.20098,0 a 0.99999997,0.99999997 45 0 1 1,1 V 3.9167899 a 0.99999997,0.99999997 135 0 1 -1,1 h -75.20098 a 0.99999997,0.99999997 45 0 1 -1,-1 V -13.733173 a 0.99999997,0.99999997 135 0 1 1,-1 z m 81.26326,0 h 56.08799 c 0.554,0 0.99994,0.445939 0.99994,0.999939 V 3.9167899 a 0.99999997,0.99999997 135 0 1 -1,1 h -56.08793 a 0.99999997,0.99999997 45 0 1 -1,-1 l 0,-17.6499629 a 0.99999997,0.99999997 135 0 1 1,-1 z M -18.464362,8.9785579 H 266.18533 a 0.99999997,0.99999997 45 0 1 1,1 V 104.86676 h -28.57494 a 0.99999997,0.99999997 45 0 1 -1,-1 l 0,-17.987982 H 219.2606 v 17.987982 a 0.99999997,0.99999997 135 0 1 -1,1 H 29.060386 a 0.99999997,0.99999997 45 0 1 -1,-1 V 85.878778 H 9.7106018 v 17.987982 a 0.99999997,0.99999997 135 0 1 -1,1 H -18.464423 c -0.554,0 -0.999939,-0.44594 -0.999939,-0.99994 V 9.9785579 a 0.99999997,0.99999997 135 0 1 1,-1 z m 290.711972,0 h 56.08793 a 0.99999997,0.99999997 45 0 1 1,1 V 46.778773 a 0.99999997,0.99999997 135 0 1 -1,1 h -56.08793 a 0.99999997,0.99999997 45 0 1 -1,-1 V 9.9785579 a 0.99999997,0.99999997 135 0 1 1,-1 z m 19.04897,57.1500001 h 17.75176 a 0.99999997,0.99999997 45 0 1 1,1 v 18.04897 h 18.2872 a 0.99999997,0.99999997 45 0 1 1,1 l 0,17.689292 c 0,0.554 -0.44594,0.99994 -0.99994,0.99994 h -56.08799 a 0.99999997,0.99999997 45 0 1 -1,-1 V 86.177528 a 0.99999997,0.99999997 135 0 1 1,-1 h 18.04897 v -18.04897 a 0.99999997,0.99999997 135 0 1 1,-1 z M -19.714476,109.0169 c 0.828154,1.9e-4 1.499457,0.6715 1.49965,1.49965 8.8e-5,0.82835 -0.671297,1.49997 -1.49965,1.50016 -0.828555,9e-5 -1.500255,-0.67161 -1.500167,-1.50016 1.93e-4,-0.82836 0.671811,-1.49974 1.500167,-1.49965 z m 98.499935,0 c 0.828353,-9e-5 1.499967,0.6713 1.50016,1.49965 8.8e-5,0.82855 -0.671608,1.50025 -1.50016,1.50016 -0.828556,9e-5 -1.500258,-0.6716 -1.50017,-1.50016 1.93e-4,-0.82836 0.671813,-1.49974 1.50017,-1.49965 z m 111.700151,0 c 0.82815,1.9e-4 1.49946,0.6715 1.49965,1.49965 9e-5,0.82835 -0.6713,1.49997 -1.49965,1.50016 -0.82855,9e-5 -1.50025,-0.67161 -1.50016,-1.50016 1.9e-4,-0.82835 0.67181,-1.49974 1.50016,-1.49965 z m 139.10004,0 c 0.82815,1.9e-4 1.49946,0.6715 1.49965,1.49965 9e-5,0.82835 -0.6713,1.49997 -1.49965,1.50016 -0.82856,9e-5 -1.50026,-0.6716 -1.50017,-1.50016 1.9e-4,-0.82836 0.67181,-1.49974 1.50017,-1.49965 z"
       inkscape:path-effect="#path-effect1-27"
       inkscape:original-d="m -21.864732,-26.133511 c -1.662,0 -2.999817,1.338334 -2.999817,3.000334 V 113.26677 c 0,1.662 1.337817,2.99981 2.999817,2.99981 H 331.73539 c 1.662,0 2.99982,-1.33781 2.99982,-2.99981 V -23.133177 c 0,-1.662 -1.33782,-3.000334 -2.99982,-3.000334 z m 2.150256,4.150134 a 1.5,1.5 0 0 1 1.49965,1.500167 1.5,1.5 0 0 1 -1.49965,1.49965 1.5,1.5 0 0 1 -1.500167,-1.49965 1.5,1.5 0 0 1 1.500167,-1.500167 z m 98.499935,0 a 1.5,1.5 0 0 1 1.50016,1.500167 1.5,1.5 0 0 1 -1.50016,1.49965 1.5,1.5 0 0 1 -1.50017,-1.49965 1.5,1.5 0 0 1 1.50017,-1.500167 z m 151.699781,0 a 1.5,1.5 0 0 1 1.50017,1.500167 1.5,1.5 0 0 1 -1.50017,1.49965 1.5,1.5 0 0 1 -1.49965,-1.49965 1.5,1.5 0 0 1 1.49965,-1.500167 z m 99.10041,0 a 1.5,1.5 0 0 1 1.49965,1.500167 1.5,1.5 0 0 1 -1.49965,1.49965 1.5,1.5 0 0 1 -1.50017,-1.49965 1.5,1.5 0 0 1 1.50017,-1.500167 z m -348.050073,7.250204 H 0.1861178 V 4.9167899 H -19.464362 V -13.733234 c 0,-0.554 0.445939,-0.999939 0.999939,-0.999939 z m 36.999292,0 h 76.90073 V 4.9167899 h -76.90073 z m 85.725001,0 h 76.90125 V 4.9167899 h -76.90125 z m 85.72448,0 h 77.20098 V 4.9167899 h -77.20098 z m 81.26326,0 h 57.08799 c 0.554,0 0.99994,0.445939 0.99994,0.999939 V 4.9167899 H 271.24761 Z M -19.464362,8.9785579 H 267.18533 V 104.86676 H 237.61039 V 85.878778 H 219.2606 V 104.86676 H 28.060386 V 85.878778 H 9.7106018 V 104.86676 H -18.464423 c -0.554,0 -0.999939,-0.44594 -0.999939,-0.99994 z m 290.711972,0 h 58.08793 V 47.778773 h -58.08793 z m 19.04897,57.1500001 h 19.75176 v 19.04897 h 19.2872 v 18.689292 c 0,0.554 -0.44594,0.99994 -0.99994,0.99994 H 271.24761 V 85.177528 h 19.04897 z M -19.714476,109.0169 a 1.5,1.5 0 0 1 1.49965,1.49965 1.5,1.5 0 0 1 -1.49965,1.50016 1.5,1.5 0 0 1 -1.500167,-1.50016 1.5,1.5 0 0 1 1.500167,-1.49965 z m 98.499935,0 a 1.5,1.5 0 0 1 1.50016,1.49965 1.5,1.5 0 0 1 -1.50016,1.50016 1.5,1.5 0 0 1 -1.50017,-1.50016 1.5,1.5 0 0 1 1.50017,-1.49965 z m 111.700151,0 a 1.5,1.5 0 0 1 1.49965,1.49965 1.5,1.5 0 0 1 -1.49965,1.50016 1.5,1.5 0 0 1 -1.50016,-1.50016 1.5,1.5 0 0 1 1.50016,-1.49965 z m 139.10004,0 a 1.5,1.5 0 0 1 1.49965,1.49965 1.5,1.5 0 0 1 -1.49965,1.50016 1.5,1.5 0 0 1 -1.50017,-1.50016 1.5,1.5 0 0 1 1.50017,-1.49965 z" />
  </g>
  <g
     inkscape:groupmode="layer"
     id="g27"
     inkscape:label="foot-1"
     style="display:inline;fill:none;stroke:#23ff00;stroke-opacity:1"
     transform="translate(1.2,-19.01)">
    <path
       id="rect36-2"
       style="display:inline;fill:none;fill-opacity:1;stroke:#23ff00;stroke-width:0.0999999;stroke-opacity:1"
       inkscape:label="foot-2"
       d="m 13.050366,29.662789 c -1.38499,0 -2.500106,1.115114 -2.500106,2.500106 v 30.499947 c 0,1.384984 1.115116,2.500106 2.500106,2.500106 h 25.054619 a 4.3881986,4.3881986 145.64146 0 0 4.088921,-2.795398 l 1.717527,-4.409111 a 4.3881986,4.3881986 145.64146 0 1 4.088921,-2.795398 h 31.199797 a 4.3881986,4.3881986 34.358535 0 1 4.088921,2.795398 l 1.717527,4.409111 a 4.3881986,4.3881986 34.358535 0 0 4.088921,2.795398 H 289.0783 a 4.3879864,4.3879864 145.64017 0 0 4.08879,-2.795447 l 1.71727,-4.409013 a 4.3879864,4.3879864 145.64017 0 1 4.08879,-2.795447 h 31.20031 a 4.3879864,4.3879864 34.359826 0 1 4.08879,2.795447 l 1.71727,4.409013 a 4.3879864,4.3879864 34.359826 0 0 4.08879,2.795447 h 25.58172 c 1.385,0 2.50011,-1.115122 2.50011,-2.500106 V 32.162895 c 0,-1.384992 -1.11511,-2.500106 -2.50011,-2.500106 z m 1.650029,3.300057 c 0.745619,1.17e-4 1.349956,0.604686 1.349788,1.350305 -1.17e-4,0.745417 -0.604371,1.349671 -1.349788,1.349788 -0.745621,1.68e-4 -1.350188,-0.604169 -1.350305,-1.349788 -1.68e-4,-0.745821 0.604482,-1.350473 1.350305,-1.350305 z m 98.498205,0 c 0.74562,1.16e-4 1.34996,0.604685 1.34979,1.350305 -1.2e-4,0.745418 -0.60437,1.349672 -1.34979,1.349788 -0.74562,1.71e-4 -1.35019,-0.604167 -1.35031,-1.349788 -1.7e-4,-0.745823 0.60449,-1.350476 1.35031,-1.350305 z m 151.7089,0 c 0.74582,-1.71e-4 1.35048,0.604482 1.35031,1.350305 -1.2e-4,0.745621 -0.60469,1.349959 -1.35031,1.349788 -0.74542,-1.16e-4 -1.34967,-0.60437 -1.34979,-1.349788 -1.7e-4,-0.74562 0.60417,-1.350189 1.34979,-1.350305 z m 99.0925,0 c 0.74582,-1.71e-4 1.35048,0.604482 1.35031,1.350305 -1.2e-4,0.745621 -0.60469,1.349959 -1.35031,1.349788 -0.74542,-1.21e-4 -1.34966,-0.604374 -1.34978,-1.349788 -1.7e-4,-0.745616 0.60416,-1.350184 1.34978,-1.350305 z m -182.31695,4.737178 c 0.71811,-9.9e-5 1.30028,0.582071 1.30018,1.300179 -1.9e-4,0.717909 -0.58227,1.299762 -1.30018,1.299663 -0.71771,-1.88e-4 -1.29947,-0.581957 -1.29966,-1.299663 -1e-4,-0.717905 0.58175,-1.299991 1.29966,-1.300179 z m 12.0003,0 c 0.71811,-9.9e-5 1.30028,0.582071 1.30018,1.300179 -1.9e-4,0.717909 -0.58227,1.299762 -1.30018,1.299663 -0.71788,9.4e-5 -1.29998,-0.581758 -1.30017,-1.299663 -1e-4,-0.718104 0.58208,-1.300273 1.30017,-1.300179 z"
       inkscape:path-effect="#path-effect1-8"
       inkscape:original-d="m 13.050366,29.662789 c -1.38499,0 -2.500106,1.115114 -2.500106,2.500106 v 30.499947 c 0,1.384984 1.115116,2.500106 2.500106,2.500106 h 28.054619 l 3.895369,-9.999907 h 37.199797 l 3.895369,9.999907 H 292.0783 l 3.89485,-9.999907 h 37.20031 l 3.89485,9.999907 h 28.58172 c 1.385,0 2.50011,-1.115122 2.50011,-2.500106 V 32.162895 c 0,-1.384992 -1.11511,-2.500106 -2.50011,-2.500106 z m 1.650029,3.300057 c 0.745619,1.17e-4 1.349956,0.604686 1.349788,1.350305 -1.17e-4,0.745417 -0.604371,1.349671 -1.349788,1.349788 -0.745621,1.68e-4 -1.350188,-0.604169 -1.350305,-1.349788 -1.68e-4,-0.745821 0.604482,-1.350473 1.350305,-1.350305 z m 98.498205,0 c 0.74562,1.16e-4 1.34996,0.604685 1.34979,1.350305 -1.2e-4,0.745418 -0.60437,1.349672 -1.34979,1.349788 -0.74562,1.71e-4 -1.35019,-0.604167 -1.35031,-1.349788 -1.7e-4,-0.745823 0.60449,-1.350476 1.35031,-1.350305 z m 151.7089,0 c 0.74582,-1.71e-4 1.35048,0.604482 1.35031,1.350305 -1.2e-4,0.745621 -0.60469,1.349959 -1.35031,1.349788 -0.74542,-1.16e-4 -1.34967,-0.60437 -1.34979,-1.349788 -1.7e-4,-0.74562 0.60417,-1.350189 1.34979,-1.350305 z m 99.0925,0 c 0.74582,-1.71e-4 1.35048,0.604482 1.35031,1.350305 -1.2e-4,0.745621 -0.60469,1.349959 -1.35031,1.349788 -0.74542,-1.21e-4 -1.34966,-0.604374 -1.34978,-1.349788 -1.7e-4,-0.745616 0.60416,-1.350184 1.34978,-1.350305 z m -182.31695,4.737178 c 0.71811,-9.9e-5 1.30028,0.582071 1.30018,1.300179 -1.9e-4,0.717909 -0.58227,1.299762 -1.30018,1.299663 -0.71771,-1.88e-4 -1.29947,-0.581957 -1.29966,-1.299663 -1e-4,-0.717905 0.58175,-1.299991 1.29966,-1.300179 z m 12.0003,0 c 0.71811,-9.9e-5 1.30028,0.582071 1.30018,1.300179 -1.9e-4,0.717909 -0.58227,1.299762 -1.30018,1.299663 -0.71788,9.4e-5 -1.29998,-0.581758 -1.30017,-1.299663 -1e-4,-0.718104 0.58208,-1.300273 1.30017,-1.300179 z"
       transform="translate(-0.70026005,-4.6027891)"
       sodipodi:nodetypes="ssssccccccccssssscccccccccccscscssssscccccccccc" />
  </g>
  <g
     inkscape:groupmode="layer"
     id="layer1"
     inkscape:label="foot-1-db2">
    <path
       id="rect36-5-9"
       style="display:inline;fill:none;fill-opacity:1;stroke:#23ff00;stroke-width:0.0999999;stroke-opacity:1"
       inkscape:label="foot-1"
       d="m 13.050366,29.662789 c -1.38499,0 -2.500106,1.115114 -2.500106,2.500106 v 30.499947 c 0,1.384984 1.115116,2.500106 2.500106,2.500106 h 25.054619 a 4.3881986,4.3881986 145.64146 0 0 4.088921,-2.795398 l 1.717527,-4.409111 a 4.3881986,4.3881986 145.64146 0 1 4.088921,-2.795398 h 31.199797 a 4.3881986,4.3881986 34.358535 0 1 4.088921,2.795398 l 1.717527,4.409111 a 4.3881986,4.3881986 34.358535 0 0 4.088921,2.795398 H 289.0783 a 4.3879864,4.3879864 145.64017 0 0 4.08879,-2.795447 l 1.71727,-4.409013 a 4.3879864,4.3879864 145.64017 0 1 4.08879,-2.795447 h 31.20031 a 4.3879864,4.3879864 34.359826 0 1 4.08879,2.795447 l 1.71727,4.409013 a 4.3879864,4.3879864 34.359826 0 0 4.08879,2.795447 h 25.58172 c 1.385,0 2.50011,-1.115122 2.50011,-2.500106 V 32.162895 c 0,-1.384992 -1.11511,-2.500106 -2.50011,-2.500106 z m 1.650029,3.300057 c 0.745619,1.17e-4 1.349956,0.604686 1.349788,1.350305 -1.17e-4,0.745417 -0.604371,1.349671 -1.349788,1.349788 -0.745621,1.68e-4 -1.350188,-0.604169 -1.350305,-1.349788 -1.68e-4,-0.745821 0.604482,-1.350473 1.350305,-1.350305 z m 98.507325,0 c 0.74562,1.16e-4 1.34996,0.604685 1.34979,1.350305 -1.2e-4,0.745418 -0.60437,1.349672 -1.34979,1.349788 -0.74562,1.71e-4 -1.35019,-0.604167 -1.35031,-1.349788 -1.7e-4,-0.745823 0.60449,-1.350476 1.35031,-1.350305 z m 151.72414,0.02436 c 0.74582,-1.71e-4 1.35048,0.604482 1.35031,1.350305 -1.2e-4,0.745621 -0.60469,1.349959 -1.35031,1.349788 -0.74542,-1.16e-4 -1.34967,-0.60437 -1.34979,-1.349788 -1.7e-4,-0.74562 0.60417,-1.350189 1.34979,-1.350305 z M 364,32.962846 c 0.74582,-1.71e-4 1.35048,0.604482 1.35031,1.350305 -1.2e-4,0.745621 -0.60469,1.349959 -1.35031,1.349788 -0.74542,-1.21e-4 -1.34966,-0.604374 -1.34978,-1.349788 -1.7e-4,-0.745616 0.60416,-1.350184 1.34978,-1.350305 z M 179.81409,32.194467 c 0.71811,-9.9e-5 1.30028,0.582071 1.30018,1.300179 -1.9e-4,0.717909 -0.58227,1.299762 -1.30018,1.299663 -0.71771,-1.88e-4 -1.29947,-0.581957 -1.29966,-1.299663 -1e-4,-0.717905 0.58175,-1.299991 1.29966,-1.300179 z m 15.50025,0 c 0.71811,-9.9e-5 1.30028,0.582071 1.30018,1.300179 -1.9e-4,0.717909 -0.58227,1.299762 -1.30018,1.299663 -0.71788,9.4e-5 -1.29998,-0.581758 -1.30017,-1.299663 -1e-4,-0.718104 0.58208,-1.300273 1.30017,-1.300179 z"
       inkscape:path-effect="#path-effect1-2-1"
       inkscape:original-d="m 13.050366,29.662789 c -1.38499,0 -2.500106,1.115114 -2.500106,2.500106 v 30.499947 c 0,1.384984 1.115116,2.500106 2.500106,2.500106 h 28.054619 l 3.895369,-9.999907 h 37.199797 l 3.895369,9.999907 H 292.0783 l 3.89485,-9.999907 h 37.20031 l 3.89485,9.999907 h 28.58172 c 1.385,0 2.50011,-1.115122 2.50011,-2.500106 V 32.162895 c 0,-1.384992 -1.11511,-2.500106 -2.50011,-2.500106 z m 1.650029,3.300057 c 0.745619,1.17e-4 1.349956,0.604686 1.349788,1.350305 -1.17e-4,0.745417 -0.604371,1.349671 -1.349788,1.349788 -0.745621,1.68e-4 -1.350188,-0.604169 -1.350305,-1.349788 -1.68e-4,-0.745821 0.604482,-1.350473 1.350305,-1.350305 z m 98.507325,0 c 0.74562,1.16e-4 1.34996,0.604685 1.34979,1.350305 -1.2e-4,0.745418 -0.60437,1.349672 -1.34979,1.349788 -0.74562,1.71e-4 -1.35019,-0.604167 -1.35031,-1.349788 -1.7e-4,-0.745823 0.60449,-1.350476 1.35031,-1.350305 z m 151.72414,0.02436 c 0.74582,-1.71e-4 1.35048,0.604482 1.35031,1.350305 -1.2e-4,0.745621 -0.60469,1.349959 -1.35031,1.349788 -0.74542,-1.16e-4 -1.34967,-0.60437 -1.34979,-1.349788 -1.7e-4,-0.74562 0.60417,-1.350189 1.34979,-1.350305 z M 364,32.962846 c 0.74582,-1.71e-4 1.35048,0.604482 1.35031,1.350305 -1.2e-4,0.745621 -0.60469,1.349959 -1.35031,1.349788 -0.74542,-1.21e-4 -1.34966,-0.604374 -1.34978,-1.349788 -1.7e-4,-0.745616 0.60416,-1.350184 1.34978,-1.350305 z M 179.81409,32.194467 c 0.71811,-9.9e-5 1.30028,0.582071 1.30018,1.300179 -1.9e-4,0.717909 -0.58227,1.299762 -1.30018,1.299663 -0.71771,-1.88e-4 -1.29947,-0.581957 -1.29966,-1.299663 -1e-4,-0.717905 0.58175,-1.299991 1.29966,-1.300179 z m 15.50025,0 c 0.71811,-9.9e-5 1.30028,0.582071 1.30018,1.300179 -1.9e-4,0.717909 -0.58227,1.299762 -1.30018,1.299663 -0.71788,9.4e-5 -1.29998,-0.581758 -1.30017,-1.299663 -1e-4,-0.718104 0.58208,-1.300273 1.30017,-1.300179 z"
       transform="translate(0.49973995,-23.612789)"
       sodipodi:nodetypes="ssssccccccccssssscccccccccccscscssssscccccccccc" />
  </g>
  <g
     inkscape:groupmode="layer"
     id="layer2"
     inkscape:label="foot-2"
     style="fill:none;stroke:#23ff00;stroke-opacity:1">
    <path
       id="rect12-3-9"
       style="display:inline;fill:none;fill-opacity:1;stroke:#23ff00;stroke-width:0.0999999;stroke-opacity:1"
       inkscape:label="foot-1"
       d="m 13.550106,6.0499999 c -1.384994,0 -2.500106,1.115112 -2.500106,2.500106 V 29.050146 c 0,1.384994 1.115112,2.500106 2.500106,2.500106 H 366.14992 c 1.38499,0 2.50011,-1.115112 2.50011,-2.500106 V 8.5501059 c 0,-1.384994 -1.11512,-2.500106 -2.50011,-2.500106 z m 1.650028,2.849955 c 0.994228,6.1e-5 1.800115,0.806178 1.79989,1.8004071 -6.1e-5,0.994027 -0.805863,1.799829 -1.79989,1.79989 -0.994027,-6.1e-5 -1.799829,-0.805863 -1.79989,-1.79989 -2.25e-4,-0.9942291 0.805662,-1.8003461 1.79989,-1.8004071 z m 98.507596,-0.02436 c 0.99423,6.1e-5 1.80011,0.806178 1.79989,1.8004071 -6e-5,0.994027 -0.80586,1.799829 -1.79989,1.79989 -0.99403,-6.1e-5 -1.79983,-0.805863 -1.79989,-1.79989 -2.2e-4,-0.9942291 0.80566,-1.8003461 1.79989,-1.8004071 z m 151.6476,0.02436 c 0.99443,-2.26e-4 1.80063,0.805975 1.80041,1.8004071 -6e-5,0.99423 -0.80618,1.800116 -1.80041,1.79989 -0.99403,-6.1e-5 -1.79983,-0.805863 -1.79989,-1.79989 -2.2e-4,-0.9942291 0.80566,-1.8003461 1.79989,-1.8004071 z m 99.14456,0 c 0.99443,-2.26e-4 1.80063,0.805975 1.80041,1.8004071 -7e-5,0.99423 -0.80619,1.800116 -1.80041,1.79989 -0.99403,-6.1e-5 -1.79983,-0.805863 -1.79989,-1.79989 -2.3e-4,-0.9942291 0.80566,-1.8003461 1.79989,-1.8004071 z M 182.1587,14.075055 c 0.71811,-9.9e-5 1.30028,0.582069 1.30018,1.300179 -1.9e-4,0.717909 -0.58227,1.299762 -1.30018,1.299663 -0.71771,-1.88e-4 -1.29947,-0.581957 -1.29966,-1.299663 -1e-4,-0.717907 0.58175,-1.299991 1.29966,-1.300179 z m 12.0003,0 c 0.71811,-9.9e-5 1.30028,0.582069 1.30018,1.300179 -1.9e-4,0.717909 -0.58227,1.299762 -1.30018,1.299663 -0.7179,9.4e-5 -1.29998,-0.581758 -1.30017,-1.299663 -1e-4,-0.718106 0.58206,-1.300273 1.30017,-1.300179 z"
       sodipodi:nodetypes="ssssssssscccccccccccccccccccccccccccccc" />
  </g>
  <g
     inkscape:groupmode="layer"
     id="layer3"
     inkscape:label="foot-2-db2">
    <path
       id="rect12-3-9-4"
       style="display:inline;fill:none;fill-opacity:1;stroke:#23ff00;stroke-width:0.0999999;stroke-opacity:1"
       inkscape:label="foot-2"
       d="m 13.421875,29.732422 c -1.384994,0 -2.5,1.115006 -2.5,2.5 v 20.5 c 0,1.384994 1.115006,2.5 2.5,2.5 H 366.02148 c 1.38499,0 2.5,-1.115006 2.5,-2.5 v -20.5 c 0,-1.384994 -1.11501,-2.5 -2.5,-2.5 z m 166.746095,2.583984 c 0.71811,-9.9e-5 1.30088,0.582672 1.30078,1.300781 -1.9e-4,0.717909 -0.58287,1.298928 -1.30078,1.298829 -0.71771,-1.88e-4 -1.29864,-0.581123 -1.29883,-1.298829 -10e-5,-0.717906 0.58092,-1.300593 1.29883,-1.300781 z m 15.5,0 c 0.71811,-9.9e-5 1.30086,0.582672 1.30078,1.300781 -1.9e-4,0.717909 -0.58286,1.298928 -1.30078,1.298829 -0.71789,9.4e-5 -1.29864,-0.580923 -1.29883,-1.298829 -1.1e-4,-0.718106 0.58072,-1.300875 1.29883,-1.300781 z M 15.070313,32.582031 c 0.994227,6.1e-5 1.801006,0.806553 1.800781,1.800781 -6.1e-5,0.994028 -0.806755,1.798768 -1.800781,1.798829 -0.994028,-6.1e-5 -1.798768,-0.804802 -1.798829,-1.798829 -2.25e-4,-0.994228 0.804601,-1.80072 1.798829,-1.800781 z m 98.457027,0 c 0.99423,6.1e-5 1.79905,0.806553 1.79883,1.800781 -6e-5,0.994028 -0.8048,1.798768 -1.79883,1.798829 -0.99403,-6.1e-5 -1.80072,-0.804802 -1.80078,-1.798829 -2.2e-4,-0.994228 0.80655,-1.80072 1.80078,-1.800781 z m 250.84375,0 c 0.99443,-2.26e-4 1.80101,0.80635 1.80078,1.800781 -7e-5,0.994231 -0.80656,1.799055 -1.80078,1.798829 -0.99403,-6.1e-5 -1.80072,-0.804802 -1.80078,-1.798829 -2.3e-4,-0.994228 0.80655,-1.80072 1.80078,-1.800781 z m -99.04101,0.03516 c 0.99443,-2.25e-4 1.801,0.804397 1.80078,1.798829 -6e-5,0.99423 -0.80655,1.801007 -1.80078,1.800781 -0.99403,-6.1e-5 -1.80072,-0.806754 -1.80078,-1.800781 -2.2e-4,-0.994229 0.80655,-1.798767 1.80078,-1.798829 z"
       sodipodi:nodetypes="ssssssssscccccccccccccccccccccccccccccc"
       inkscape:path-effect="#path-effect2"
       inkscape:original-d="m 13.421106,29.732 c -1.384994,0 -2.500106,1.115112 -2.500106,2.500106 v 20.50004 c 0,1.384994 1.115112,2.500106 2.500106,2.500106 H 366.02092 c 1.38499,0 2.50011,-1.115112 2.50011,-2.500106 v -20.50004 c 0,-1.384994 -1.11512,-2.500106 -2.50011,-2.500106 z m 1.650028,2.849955 c 0.994228,6.1e-5 1.800115,0.806178 1.79989,1.800407 -6.1e-5,0.994027 -0.805863,1.799829 -1.79989,1.79989 -0.994027,-6.1e-5 -1.799829,-0.805863 -1.79989,-1.79989 -2.25e-4,-0.994229 0.805662,-1.800346 1.79989,-1.800407 z m 98.455416,0 c 0.99423,6.1e-5 1.80011,0.806178 1.79989,1.800407 -6e-5,0.994027 -0.80586,1.799829 -1.79989,1.79989 -0.99403,-6.1e-5 -1.79983,-0.805863 -1.79989,-1.79989 -2.2e-4,-0.994229 0.80566,-1.800346 1.79989,-1.800407 z m 151.80313,0.03445 c 0.99443,-2.26e-4 1.80063,0.805975 1.80041,1.800407 -6e-5,0.99423 -0.80618,1.800116 -1.80041,1.79989 -0.99403,-6.1e-5 -1.79983,-0.805863 -1.79989,-1.79989 -2.2e-4,-0.994229 0.80566,-1.800346 1.79989,-1.800407 z m 99.04121,-0.03445 c 0.99443,-2.26e-4 1.80063,0.805975 1.80041,1.800407 -7e-5,0.99423 -0.80619,1.800116 -1.80041,1.79989 -0.99403,-6.1e-5 -1.79983,-0.805863 -1.79989,-1.79989 -2.3e-4,-0.994229 0.80566,-1.800346 1.79989,-1.800407 z M 180.16864,32.316962 c 0.71811,-9.9e-5 1.30028,0.582069 1.30018,1.300179 -1.9e-4,0.717909 -0.58227,1.299762 -1.30018,1.299663 -0.71771,-1.88e-4 -1.29947,-0.581957 -1.29966,-1.299663 -1e-4,-0.717907 0.58175,-1.299991 1.29966,-1.300179 z m 15.50024,0 c 0.71811,-9.9e-5 1.30028,0.582069 1.3002,1.300179 -1.9e-4,0.717909 -0.58228,1.299762 -1.3002,1.299663 -0.71789,9.4e-5 -1.29997,-0.581758 -1.30016,-1.299663 -1.1e-4,-0.718106 0.58205,-1.300273 1.30016,-1.300179 z"
       transform="translate(0.12812495,-23.682422)" />
  </g>
  <g
     inkscape:groupmode="layer"
     id="layer4"
     inkscape:label="frl-wall-3">
    <path
       id="rect7-5"
       style="display:inline;fill:none;fill-opacity:1;stroke:#ff0101;stroke-width:0.0911037;stroke-opacity:1"
       inkscape:label="wall-outter"
       d="m 13.045892,5.0455519 c -1.662,0 -3.00034,1.337817 -3.00034,2.999817 V 120.6416 c 0,1.662 1.33834,2.99981 3.00034,2.99981 H 366.65479 c 1.662,0 2.99982,-1.33781 2.99982,-2.99981 V 8.0453689 c 0,-1.662 -1.33782,-2.999817 -2.99982,-2.999817 z m 2.15439,4.154268 a 1.5,1.5 0 0 1 1.49965,1.5001671 1.5,1.5 0 0 1 -1.49965,1.500167 1.5,1.5 0 0 1 -1.50017,-1.500167 1.5,1.5 0 0 1 1.50017,-1.5001671 z m 98.499928,0 a 1.5,1.5 0 0 1 1.50017,1.5001671 1.5,1.5 0 0 1 -1.50017,1.500167 1.5,1.5 0 0 1 -1.50017,-1.500167 1.5,1.5 0 0 1 1.50017,-1.5001671 z m 151.69978,0 a 1.5,1.5 0 0 1 1.50017,1.5001671 1.5,1.5 0 0 1 -1.50017,1.500167 1.5,1.5 0 0 1 -1.49965,-1.500167 1.5,1.5 0 0 1 1.49965,-1.5001671 z m 99.0999,0 a 1.5,1.5 0 0 1 1.50016,1.5001671 1.5,1.5 0 0 1 -1.50016,1.500167 1.5,1.5 0 0 1 -1.49965,-1.500167 1.5,1.5 0 0 1 1.49965,-1.5001671 z M 21.500152,10.499999 h 38.49998 c 0.554,0 0.99994,0.445939 0.99994,0.999939 v 3.944979 h 58.500298 v -3.944979 c 0,-0.554 0.44594,-0.999939 0.99994,-0.999939 h 38.49998 c 0.554,0 0.99993,0.445939 0.99993,0.999939 v 3.944979 h 58.49979 v -3.944979 c 0,-0.554 0.44594,-0.999939 0.99994,-0.999939 h 38.49998 c 0.554,0 1.00045,0.445939 1.00045,0.999939 v 3.944979 h 58.49979 v -3.944979 c 0,-0.554 0.44594,-0.999939 0.99994,-0.999939 h 38.49998 c 0.554,0 0.99994,0.445939 0.99994,0.999939 v 3.944979 h 5.25549 c 0.554,0 0.99994,0.445939 0.99994,0.999939 v 95.797254 c 0,0.554 -0.44594,0.99994 -0.99994,0.99994 h -5.25549 v 3.98373 c 0,0.554 -0.44594,1.00046 -0.99994,1.00046 h -38.49998 c -0.554,0 -0.99994,-0.44646 -0.99994,-1.00046 v -3.98373 h -45.50006 v 3.98373 c 0,0.554 -0.44594,1.00046 -0.99994,1.00046 h -38.49998 c -0.554,0 -0.99994,-0.44646 -0.99994,-1.00046 v -3.98373 H 74.000312 v 3.98373 c 0,0.554 -0.44594,1.00046 -0.99994,1.00046 h -38.49998 c -0.554,0 -1.00045,-0.44646 -1.00045,-1.00046 v -3.98373 h -17.05478 c -0.554,0 -1.00045,-0.44594 -1.00045,-0.99994 V 16.444856 c 0,-0.554 0.44645,-0.999939 1.00045,-0.999939 h 4.05505 v -3.944979 c 0,-0.554 0.44594,-0.999939 0.99994,-0.999939 z m -6.29987,105.887081 a 1.5,1.5 0 0 1 1.49965,1.50016 1.5,1.5 0 0 1 -1.49965,1.49965 1.5,1.5 0 0 1 -1.50017,-1.49965 1.5,1.5 0 0 1 1.50017,-1.50016 z m 98.499928,0 a 1.5,1.5 0 0 1 1.50017,1.50016 1.5,1.5 0 0 1 -1.50017,1.49965 1.5,1.5 0 0 1 -1.50017,-1.49965 1.5,1.5 0 0 1 1.50017,-1.50016 z m 111.70016,0 a 1.5,1.5 0 0 1 1.49965,1.50016 1.5,1.5 0 0 1 -1.49965,1.49965 1.5,1.5 0 0 1 -1.50017,-1.49965 1.5,1.5 0 0 1 1.50017,-1.50016 z m 139.10003,0 a 1.5,1.5 0 0 1 1.49965,1.50016 1.5,1.5 0 0 1 -1.49965,1.49965 1.5,1.5 0 0 1 -1.50016,-1.49965 1.5,1.5 0 0 1 1.50016,-1.50016 z" />
  </g>
</svg>
