<?xml version="1.0" encoding="UTF-8" standalone="no"?>
<!-- Created with Inkscape (http://www.inkscape.org/) -->

<svg
   width="375mm"
   height="320mm"
   viewBox="0 0 375 320"
   version="1.1"
   id="svg1"
   inkscape:version="1.3.2 (091e20e, 2023-11-25, custom)"
   sodipodi:docname="tkl-top-wk.svg"
   xmlns:inkscape="http://www.inkscape.org/namespaces/inkscape"
   xmlns:sodipodi="http://sodipodi.sourceforge.net/DTD/sodipodi-0.dtd"
   xmlns="http://www.w3.org/2000/svg"
   xmlns:svg="http://www.w3.org/2000/svg">
  <sodipodi:namedview
     id="namedview1"
     pagecolor="#505050"
     bordercolor="#eeeeee"
     borderopacity="1"
     inkscape:showpageshadow="0"
     inkscape:pageopacity="0"
     inkscape:pagecheckerboard="0"
     inkscape:deskcolor="#505050"
     inkscape:document-units="mm"
     showgrid="true"
     inkscape:zoom="0.95999874"
     inkscape:cx="731.25096"
     inkscape:cy="406.77137"
     inkscape:window-width="1920"
     inkscape:window-height="1017"
     inkscape:window-x="-8"
     inkscape:window-y="-8"
     inkscape:window-maximized="1"
     inkscape:current-layer="layer2">
    <inkscape:grid
       id="grid1"
       units="mm"
       originx="0"
       originy="0"
       spacingx="0.99999999"
       spacingy="1"
       empcolor="#0099e5"
       empopacity="0.30196078"
       color="#0099e5"
       opacity="0.14901961"
       empspacing="5"
       dotted="false"
       gridanglex="30"
       gridanglez="30"
       visible="true" />
  </sodipodi:namedview>
  <defs
     id="defs1" />
  <g
     inkscape:groupmode="layer"
     id="layer2"
     inkscape:label="Case-TKL"
     style="display:inline">
    <path
       id="rect1-5"
       style="fill:none;fill-opacity:0.248963;stroke:#00ffff;stroke-width:0.0999998;stroke-opacity:1"
       inkscape:label="wall-outter"
       d="m 12.549887,4.8498332 c -1.661983,0 -2.9998176,1.3383625 -2.9998176,3.0003336 V 144.25011 c 0,1.662 1.3378346,2.99982 2.9998176,2.99982 H 366.15011 c 1.662,0 2.99982,-1.33782 2.99982,-2.99982 V 7.8501668 c 0,-1.6619711 -1.33782,-3.0003336 -2.99982,-3.0003336 z m 2.150256,4.2999959 c 0.74562,1.171e-4 1.349956,0.6046842 1.349788,1.3503049 -1.17e-4,0.745419 -0.604369,1.349672 -1.349788,1.349789 -0.745621,1.68e-4 -1.350189,-0.604168 -1.350305,-1.349789 -1.69e-4,-0.7458227 0.604482,-1.3504734 1.350305,-1.3503049 z m 98.799907,0 c 0.74562,1.16e-4 1.34996,0.6046834 1.34979,1.3503049 -1.2e-4,0.74542 -0.60437,1.349673 -1.34979,1.349789 -0.74562,1.71e-4 -1.35019,-0.604166 -1.35031,-1.349789 -1.7e-4,-0.7458246 0.60449,-1.3504762 1.35031,-1.3503049 z m 151.69978,0 c 0.74582,-1.713e-4 1.35048,0.6044803 1.35031,1.3503049 -1.2e-4,0.745623 -0.60469,1.34996 -1.35031,1.349789 -0.74542,-1.16e-4 -1.34967,-0.604369 -1.34979,-1.349789 -1.7e-4,-0.7456215 0.60417,-1.3501889 1.34979,-1.3503049 z m 98.80002,0 c 0.74582,-1.713e-4 1.35048,0.6044803 1.35031,1.3503049 -1.2e-4,0.745623 -0.60469,1.34996 -1.35031,1.349789 -0.74542,-1.21e-4 -1.34966,-0.604373 -1.34978,-1.349789 -1.7e-4,-0.7456176 0.60416,-1.3501834 1.34978,-1.3503049 z M 15.950196,16.250171 H 34.900195 V 35.900134 H 14.950257 V 17.25011 c 0,-0.554 0.445939,-0.999939 0.999939,-0.999939 z m 37.299784,0 H 130.1502 V 35.900134 H 53.24998 Z m 85.725,0 h 76.90022 v 19.649963 h -76.90022 z m 85.725,0 h 76.90022 v 19.649963 h -76.90022 z m 80.96198,0 h 57.08836 c 0.554,0 0.99994,0.445939 0.99994,0.999939 v 18.650024 h -58.0883 z M 14.950257,39.961902 H 301.6002 V 135.85011 H 15.950196 c -0.554,0 -0.999939,-0.44594 -0.999939,-0.99994 z m 290.711703,0 h 58.0883 v 38.800216 h -58.0883 z m 19.05,57.15 h 19.75022 V 116.1619 h 19.28808 v 18.68827 c 0,0.554 -0.44594,0.99994 -0.99994,0.99994 H 305.66196 V 116.1619 h 19.05 z M 14.700143,140.1501 c 0.745419,1.2e-4 1.349671,0.60437 1.349788,1.34979 1.71e-4,0.74562 -0.604166,1.35019 -1.349788,1.35031 -0.745825,1.7e-4 -1.350477,-0.60449 -1.350305,-1.35031 1.16e-4,-0.74562 0.604683,-1.34996 1.350305,-1.34979 z m 98.799907,0 c 0.74542,1.2e-4 1.34967,0.60437 1.34979,1.34979 1.7e-4,0.74562 -0.60417,1.35019 -1.34979,1.35031 -0.74583,1.7e-4 -1.35048,-0.60448 -1.35031,-1.35031 1.2e-4,-0.74562 0.60469,-1.34996 1.35031,-1.34979 z m 111.70016,0 c 0.74542,1.2e-4 1.34967,0.60437 1.34979,1.34979 1.7e-4,0.74562 -0.60417,1.35019 -1.34979,1.35031 -0.74583,1.7e-4 -1.35048,-0.60448 -1.35031,-1.35031 1.2e-4,-0.74562 0.60469,-1.34996 1.35031,-1.34979 z m 138.79964,0 c 0.74562,-1.7e-4 1.35019,0.60417 1.35031,1.34979 1.7e-4,0.74583 -0.60448,1.35048 -1.35031,1.35031 -0.74562,-1.2e-4 -1.34995,-0.60469 -1.34978,-1.35031 1.2e-4,-0.74542 0.60436,-1.34967 1.34978,-1.34979 z"
       sodipodi:nodetypes="ssssssssscccccccccccscscsssssscccssccccccccccccccccssccccccssccccccccccsscccccccccccccccccccsssss" />
  </g>
</svg>
