<?xml version="1.0" encoding="UTF-8" standalone="no"?>
<!-- Created with Inkscape (http://www.inkscape.org/) -->

<svg
   width="375mm"
   height="320mm"
   viewBox="0 0 375 320"
   version="1.1"
   id="svg1"
   inkscape:version="1.3.2 (091e20e, 2023-11-25, custom)"
   sodipodi:docname="tkl-mid-3.svg"
   xmlns:inkscape="http://www.inkscape.org/namespaces/inkscape"
   xmlns:sodipodi="http://sodipodi.sourceforge.net/DTD/sodipodi-0.dtd"
   xmlns="http://www.w3.org/2000/svg"
   xmlns:svg="http://www.w3.org/2000/svg">
  <sodipodi:namedview
     id="namedview1"
     pagecolor="#505050"
     bordercolor="#eeeeee"
     borderopacity="1"
     inkscape:showpageshadow="0"
     inkscape:pageopacity="0"
     inkscape:pagecheckerboard="0"
     inkscape:deskcolor="#505050"
     inkscape:document-units="mm"
     showgrid="true"
     inkscape:zoom="1"
     inkscape:cx="712"
     inkscape:cy="171.5"
     inkscape:window-width="2560"
     inkscape:window-height="1369"
     inkscape:window-x="3832"
     inkscape:window-y="-8"
     inkscape:window-maximized="1"
     inkscape:current-layer="layer2">
    <inkscape:grid
       id="grid1"
       units="mm"
       originx="0"
       originy="0"
       spacingx="0.99999999"
       spacingy="1"
       empcolor="#0099e5"
       empopacity="0.30196078"
       color="#0099e5"
       opacity="0.14901961"
       empspacing="5"
       dotted="false"
       gridanglex="30"
       gridanglez="30"
       visible="true" />
  </sodipodi:namedview>
  <defs
     id="defs1" />
  <g
     inkscape:groupmode="layer"
     id="layer2"
     inkscape:label="Case-TKL"
     style="display:inline">
    <path
       id="rect1-5"
       style="display:inline;fill:none;fill-opacity:0.0923077;stroke:#ffd500;stroke-width:0.0999998;stroke-opacity:1"
       d="M 12.875183 4.8751546 C 12.321191 4.8751546 11.875244 5.3210976 11.875244 5.8750936 L 11.875244 146.22518 C 11.875244 146.77918 12.321191 147.22512 12.875183 147.22512 L 365.82522 147.22512 C 366.37922 147.22512 366.82515 146.77918 366.82515 146.22518 L 366.82515 5.8750936 C 366.82515 5.3210976 366.37922 4.8751546 365.82522 4.8751546 L 12.875183 4.8751546 z M 21.475175 10.474813 L 59.975151 10.474813 C 60.529144 10.474813 60.97509 10.920752 60.97509 11.474752 L 60.97509 15.22491 L 119.47488 15.22491 L 119.47488 11.474752 C 119.47488 10.920752 119.92082 10.474813 120.47482 10.474813 L 158.97479 10.474813 C 159.52879 10.474813 159.97525 10.920752 159.97525 11.474752 L 159.97525 15.22491 L 218.47504 15.22491 L 218.47504 11.474752 C 218.47504 10.920752 218.92098 10.474813 219.47498 10.474813 L 257.97495 10.474813 C 258.52895 10.474813 258.97489 10.920752 258.97489 11.474752 L 258.97489 15.22491 L 317.4752 15.22491 L 317.4752 11.474752 C 317.4752 10.920752 317.92113 10.474813 318.47513 10.474813 L 356.97511 10.474813 C 357.52911 10.474813 357.97505 10.920752 357.97505 11.474752 L 357.97505 15.22491 L 362.47503 15.22491 C 363.02903 15.22491 363.47497 15.670857 363.47497 16.224849 L 363.47497 135.87491 C 363.47497 136.42891 363.02903 136.87485 362.47503 136.87485 L 357.97505 136.87485 L 357.97505 140.66377 C 357.97505 141.21776 357.52911 141.66422 356.97511 141.66422 L 318.47513 141.66422 C 317.92113 141.66422 317.4752 141.21776 317.4752 140.66377 L 317.4752 136.87485 L 271.97513 136.87485 L 271.97513 140.66377 C 271.97513 141.21775 271.52919 141.66422 270.97519 141.66422 L 232.47522 141.66422 C 231.92122 141.66422 231.47476 141.21775 231.47476 140.66377 L 231.47476 136.87485 L 73.974813 136.87485 L 73.974813 140.66377 C 73.974813 141.21774 73.528871 141.66422 72.974874 141.66422 L 34.474898 141.66422 C 33.920901 141.66422 33.474959 141.21774 33.474959 140.66377 L 33.474959 136.87485 L 16.224849 136.87485 C 15.670857 136.87485 15.22491 136.42891 15.22491 135.87491 L 15.22491 16.224849 C 15.22491 15.670857 15.670857 15.22491 16.224849 15.22491 L 20.475236 15.22491 L 20.475236 11.474752 C 20.475236 10.920752 20.921182 10.474813 21.475175 10.474813 z " />
    <circle
       style="fill:none;fill-opacity:0.0108108;stroke:#ffd500;stroke-width:0.0999999;stroke-opacity:1"
       id="path2"
       cx="16.5"
       cy="10"
       inkscape:label="d1"
       r="1.2750001" />
    <circle
       style="fill:none;fill-opacity:0.0108108;stroke:#ffd500;stroke-width:0.0999999;stroke-opacity:1"
       id="path2-0"
       cx="362.20001"
       cy="10"
       inkscape:label="d4"
       r="1.2750001" />
    <circle
       style="fill:none;fill-opacity:0.0108108;stroke:#ffd500;stroke-width:0.0999999;stroke-opacity:1"
       id="path2-0-1"
       cx="265.20001"
       cy="10"
       inkscape:label="d3"
       r="1.2750001" />
    <circle
       style="fill:none;fill-opacity:0.0108108;stroke:#ffd500;stroke-width:0.0999999;stroke-opacity:1"
       id="path2-4"
       cx="113.5"
       cy="10"
       inkscape:label="d2"
       r="1.2750001" />
    <circle
       style="fill:none;fill-opacity:0.0108108;stroke:#ffd500;stroke-width:0.0999999;stroke-opacity:1"
       id="path2-9"
       cx="16.5"
       cy="142"
       inkscape:label="d5"
       r="1.2750001" />
    <circle
       style="fill:none;fill-opacity:0.0108108;stroke:#ffd500;stroke-width:0.0999999;stroke-opacity:1"
       id="path2-0-4"
       cx="362.19998"
       cy="142"
       inkscape:label="d8"
       r="1.2750001" />
    <circle
       style="fill:none;fill-opacity:0.0108108;stroke:#ffd500;stroke-width:0.0999999;stroke-opacity:1"
       id="path2-0-1-1"
       cx="225.2"
       cy="142"
       inkscape:label="d7"
       r="1.2750001" />
    <circle
       style="fill:none;fill-opacity:0.0108108;stroke:#ffd500;stroke-width:0.0999999;stroke-opacity:1"
       id="path2-4-0"
       cx="113.5"
       cy="142"
       inkscape:label="d6"
       r="1.2750001" />
  </g>
</svg>
