<?xml version="1.0" encoding="UTF-8" standalone="no"?>
<!-- Created with Inkscape (http://www.inkscape.org/) -->

<svg
   width="375mm"
   height="320mm"
   viewBox="0 0 375 320"
   version="1.1"
   id="svg1"
   inkscape:version="1.3.2 (091e20e, 2023-11-25, custom)"
   sodipodi:docname="tkl-side-2.svg"
   xmlns:inkscape="http://www.inkscape.org/namespaces/inkscape"
   xmlns:sodipodi="http://sodipodi.sourceforge.net/DTD/sodipodi-0.dtd"
   xmlns="http://www.w3.org/2000/svg"
   xmlns:svg="http://www.w3.org/2000/svg">
  <sodipodi:namedview
     id="namedview1"
     pagecolor="#505050"
     bordercolor="#eeeeee"
     borderopacity="1"
     inkscape:showpageshadow="0"
     inkscape:pageopacity="0"
     inkscape:pagecheckerboard="0"
     inkscape:deskcolor="#505050"
     inkscape:document-units="mm"
     showgrid="true"
     inkscape:zoom="0.67882162"
     inkscape:cx="623.87524"
     inkscape:cy="243.80485"
     inkscape:window-width="1920"
     inkscape:window-height="1017"
     inkscape:window-x="-8"
     inkscape:window-y="-8"
     inkscape:window-maximized="1"
     inkscape:current-layer="layer2">
    <inkscape:grid
       id="grid1"
       units="mm"
       originx="0"
       originy="0"
       spacingx="0.99999999"
       spacingy="1"
       empcolor="#0099e5"
       empopacity="0.30196078"
       color="#0099e5"
       opacity="0.14901961"
       empspacing="5"
       dotted="false"
       gridanglex="30"
       gridanglez="30"
       visible="true" />
  </sodipodi:namedview>
  <defs
     id="defs1" />
  <g
     inkscape:groupmode="layer"
     id="layer2"
     inkscape:label="Case-TKL"
     style="display:inline">
    <path
       id="rect1-5"
       style="fill:none;fill-opacity:0.248963;stroke:#00ffff;stroke-width:0.0999998;stroke-opacity:1"
       inkscape:label="wall-outter"
       d="M 12.849862 4.8498332 C 11.187871 4.8498332 9.8500448 6.1881821 9.8500448 7.8501668 L 9.8500448 144.25011 C 9.8500448 145.91211 11.187871 147.24993 12.849862 147.24993 L 365.85002 147.24993 C 367.51202 147.24993 368.84984 145.91211 368.84984 144.25011 L 368.84984 7.8501668 C 368.84984 6.1881821 367.51202 4.8498332 365.85002 4.8498332 L 12.849862 4.8498332 z M 15.000118 9.1498291 A 1.35 1.3500003 0 0 1 16.349906 10.500134 A 1.35 1.3500003 0 0 1 15.000118 11.849923 A 1.35 1.3500003 0 0 1 13.649813 10.500134 A 1.35 1.3500003 0 0 1 15.000118 9.1498291 z M 113.50005 9.1498291 A 1.35 1.3500003 0 0 1 114.84984 10.500134 A 1.35 1.3500003 0 0 1 113.50005 11.849923 A 1.35 1.3500003 0 0 1 112.14974 10.500134 A 1.35 1.3500003 0 0 1 113.50005 9.1498291 z M 265.19983 9.1498291 A 1.35 1.3500003 0 0 1 266.55014 10.500134 A 1.35 1.3500003 0 0 1 265.19983 11.849923 A 1.35 1.3500003 0 0 1 263.85004 10.500134 A 1.35 1.3500003 0 0 1 265.19983 9.1498291 z M 363.69976 9.1498291 A 1.35 1.3500003 0 0 1 365.05007 10.500134 A 1.35 1.3500003 0 0 1 363.69976 11.849923 A 1.35 1.3500003 0 0 1 362.34998 10.500134 A 1.35 1.3500003 0 0 1 363.69976 9.1498291 z M 16.250171 15.250232 L 362.45023 15.250232 C 363.00423 15.250232 363.45017 15.696171 363.45017 16.250171 L 363.45017 135.85011 C 363.45017 136.40411 363.00423 136.85004 362.45023 136.85004 L 16.250171 136.85004 C 15.696171 136.85004 15.250232 136.40411 15.250232 135.85011 L 15.250232 16.250171 C 15.250232 15.696171 15.696171 15.250232 16.250171 15.250232 z M 15.000118 140.1501 A 1.35 1.3500003 0 0 1 16.349906 141.49989 A 1.35 1.3500003 0 0 1 15.000118 142.8502 A 1.35 1.3500003 0 0 1 13.649813 141.49989 A 1.35 1.3500003 0 0 1 15.000118 140.1501 z M 113.50005 140.1501 A 1.35 1.3500003 0 0 1 114.84984 141.49989 A 1.35 1.3500003 0 0 1 113.50005 142.8502 A 1.35 1.3500003 0 0 1 112.14974 141.49989 A 1.35 1.3500003 0 0 1 113.50005 140.1501 z M 225.20021 140.1501 A 1.35 1.3500003 0 0 1 226.55 141.49989 A 1.35 1.3500003 0 0 1 225.20021 142.8502 A 1.35 1.3500003 0 0 1 223.8499 141.49989 A 1.35 1.3500003 0 0 1 225.20021 140.1501 z M 363.69976 140.1501 A 1.3500003 1.3500003 0 0 1 365.05007 141.49989 A 1.3500003 1.3500003 0 0 1 363.69976 142.8502 A 1.3500003 1.3500003 0 0 1 362.34998 141.49989 A 1.3500003 1.3500003 0 0 1 363.69976 140.1501 z " />
  </g>
</svg>
