<?xml version="1.0" encoding="UTF-8" standalone="no"?>
<!-- Created with Inkscape (http://www.inkscape.org/) -->

<svg
   width="375mm"
   height="320mm"
   viewBox="0 0 375 320"
   version="1.1"
   id="svg1"
   inkscape:version="1.4 (86a8ad7, 2024-10-11)"
   sodipodi:docname="tkl-side-3.svg"
   xmlns:inkscape="http://www.inkscape.org/namespaces/inkscape"
   xmlns:sodipodi="http://sodipodi.sourceforge.net/DTD/sodipodi-0.dtd"
   xmlns="http://www.w3.org/2000/svg"
   xmlns:svg="http://www.w3.org/2000/svg">
  <sodipodi:namedview
     id="namedview1"
     pagecolor="#505050"
     bordercolor="#eeeeee"
     borderopacity="1"
     inkscape:showpageshadow="0"
     inkscape:pageopacity="0"
     inkscape:pagecheckerboard="0"
     inkscape:deskcolor="#505050"
     inkscape:document-units="mm"
     showgrid="true"
     inkscape:zoom="0.47999937"
     inkscape:cx="312.50041"
     inkscape:cy="80.208438"
     inkscape:window-width="1920"
     inkscape:window-height="1009"
     inkscape:window-x="1912"
     inkscape:window-y="-8"
     inkscape:window-maximized="1"
     inkscape:current-layer="svg1">
    <inkscape:grid
       id="grid1"
       units="mm"
       originx="0"
       originy="0"
       spacingx="0.99999999"
       spacingy="1"
       empcolor="#0099e5"
       empopacity="0.30196078"
       color="#0099e5"
       opacity="0.14901961"
       empspacing="5"
       dotted="false"
       gridanglex="30"
       gridanglez="30"
       visible="true" />
  </sodipodi:namedview>
  <defs
     id="defs1" />
  <g
     inkscape:groupmode="layer"
     id="layer2-4"
     inkscape:label="Case-TKL"
     style="display:inline"
     transform="translate(0.20000047,3.8)">
    <path
       id="rect1-5-2"
       style="fill:#808080;fill-opacity:1;stroke:#808080;stroke-width:0.0999998;stroke-opacity:1"
       inkscape:label="wall-outter"
       d="m 12.849849,1.2499999 c -1.662,0 -2.9998169,1.3378169 -2.9998169,2.9998169 V 140.64976 c 0,1.662 1.3378169,3.00033 2.9998169,3.00033 H 366.44997 c 1.662,0 2.99982,-1.33833 2.99982,-3.00033 V 4.2498168 c 0,-1.662 -1.33782,-2.9998169 -2.99982,-2.9998169 z m 2.150256,4.1501343 c 0.828154,1.932e-4 1.499457,0.671496 1.49965,1.4996497 9.2e-5,0.8283557 -0.671294,1.4999737 -1.49965,1.500167 -0.828558,9.23e-5 -1.500259,-0.6716094 -1.500167,-1.500167 1.93e-4,-0.8283555 0.671811,-1.4997419 1.500167,-1.4996497 z m 98.499935,0 c 0.82835,-8.84e-5 1.49997,0.6712969 1.50016,1.4996497 9e-5,0.8285548 -0.67161,1.5002554 -1.50016,1.500167 -0.82856,9.39e-5 -1.50026,-0.6716083 -1.50017,-1.500167 1.9e-4,-0.8283567 0.67181,-1.4997436 1.50017,-1.4996497 z m 151.69978,0 c 0.82836,-9.39e-5 1.49998,0.671293 1.50017,1.4996497 9e-5,0.8285587 -0.67161,1.5002609 -1.50017,1.500167 -0.82836,-1.933e-4 -1.49974,-0.6718113 -1.49965,-1.500167 1.9e-4,-0.8281537 0.6715,-1.4994565 1.49965,-1.4996497 z m 99.10041,0 c 0.82815,1.932e-4 1.49946,0.671496 1.49965,1.4996497 9e-5,0.8283557 -0.67129,1.4999737 -1.49965,1.500167 -0.82856,9.39e-5 -1.50026,-0.6716083 -1.50017,-1.500167 1.9e-4,-0.8283567 0.67181,-1.4997436 1.50017,-1.4996497 z M 21.299979,6.6997969 h 38.499976 c 0.554,0 0.999939,0.445939 0.999939,0.999939 V 11.649882 H 119.3002 V 7.6997359 c 0,-0.554 0.44594,-0.999939 0.99994,-0.999939 h 38.49997 c 0.554,0 0.99994,0.445939 0.99994,0.999939 v 3.9501461 h 58.49979 V 7.6997359 c 0,-0.554 0.44594,-0.999939 0.99994,-0.999939 h 38.49998 c 0.554,0 1.00045,0.445939 1.00045,0.999939 V 11.649882 H 317.3 V 7.6997359 c 0,-0.554 0.44594,-0.999939 0.99994,-0.999939 h 39.00009 c 0.554,0 0.99994,0.445939 0.99994,0.999939 v 3.9501461 h 4.75021 c 0.554,0 0.99994,0.445939 0.99994,0.999939 V 132.24975 c 0,0.554 -0.44594,0.99994 -0.99994,0.99994 h -4.75021 v 3.98942 c 0,0.554 -0.44594,0.99994 -0.99994,0.99994 h -39.00009 c -0.554,0 -0.99994,-0.44594 -0.99994,-0.99994 v -3.98942 h -45.50007 v 3.98942 c 0,0.554 -0.44593,0.99994 -0.99993,0.99994 h -38.49998 c -0.554,0 -0.99994,-0.44594 -0.99994,-0.99994 v -3.98942 H 73.800134 v 3.98942 c 0,0.554 -0.445939,0.99994 -0.999939,0.99994 H 34.300219 c -0.554,0 -1.000455,-0.44594 -1.000455,-0.99994 v -3.98942 H 16.250158 c -0.554,0 -0.999939,-0.44594 -0.999939,-0.99994 V 12.649821 c 0,-0.554 0.445939,-0.999939 0.999939,-0.999939 H 20.30004 V 7.6997359 c 0,-0.554 0.445939,-0.999939 0.999939,-0.999939 z M 15.000105,136.39989 c 0.828353,1.9e-4 1.499738,0.67181 1.49965,1.50016 -1.88e-4,0.82816 -0.671492,1.49947 -1.49965,1.49966 -0.82836,9e-5 -1.499979,-0.6713 -1.500167,-1.49966 -8.8e-5,-0.82855 0.671612,-1.50025 1.500167,-1.50016 z m 98.499935,0 c 0.82855,-9e-5 1.50025,0.67161 1.50016,1.50016 -1.9e-4,0.82836 -0.6718,1.49975 -1.50016,1.49966 -0.82836,9e-5 -1.49998,-0.6713 -1.50017,-1.49966 -9e-5,-0.82856 0.67161,-1.50025 1.50017,-1.50016 z m 111.70015,0 c 0.82835,1.9e-4 1.49974,0.67181 1.49965,1.50016 -1.9e-4,0.82816 -0.67149,1.49947 -1.49965,1.49966 -0.82836,9e-5 -1.49997,-0.6713 -1.50016,-1.49966 -9e-5,-0.82855 0.67161,-1.50025 1.50016,-1.50016 z m 139.10004,0 c 0.82835,1.9e-4 1.49974,0.67181 1.49965,1.50016 -1.9e-4,0.82816 -0.67149,1.49947 -1.49965,1.49966 -0.82836,9e-5 -1.49998,-0.6713 -1.50017,-1.49966 -9e-5,-0.82856 0.67161,-1.50025 1.50017,-1.50016 z"
       sodipodi:nodetypes="sssssssssccccccccccccccccccccsssccssssccssssccsssscsssscssssccssssccsssscsssscsscccccccccccccccccccc" />
  </g>
</svg>
