<?xml version="1.0" encoding="UTF-8" standalone="no"?>
<!-- Created with Inkscape (http://www.inkscape.org/) -->

<svg
   width="375mm"
   height="320mm"
   viewBox="0 0 375 320"
   version="1.1"
   id="svg1"
   inkscape:version="1.3.2 (091e20e, 2023-11-25, custom)"
   sodipodi:docname="tkl-top-wk.svg"
   xmlns:inkscape="http://www.inkscape.org/namespaces/inkscape"
   xmlns:sodipodi="http://sodipodi.sourceforge.net/DTD/sodipodi-0.dtd"
   xmlns="http://www.w3.org/2000/svg"
   xmlns:svg="http://www.w3.org/2000/svg">
  <sodipodi:namedview
     id="namedview1"
     pagecolor="#505050"
     bordercolor="#eeeeee"
     borderopacity="1"
     inkscape:showpageshadow="0"
     inkscape:pageopacity="0"
     inkscape:pagecheckerboard="0"
     inkscape:deskcolor="#505050"
     inkscape:document-units="mm"
     showgrid="true"
     inkscape:zoom="0.67882162"
     inkscape:cx="788.13047"
     inkscape:cy="156.88952"
     inkscape:window-width="1920"
     inkscape:window-height="1017"
     inkscape:window-x="-8"
     inkscape:window-y="-8"
     inkscape:window-maximized="1"
     inkscape:current-layer="layer2">
    <inkscape:grid
       id="grid1"
       units="mm"
       originx="0"
       originy="0"
       spacingx="0.99999999"
       spacingy="1"
       empcolor="#0099e5"
       empopacity="0.30196078"
       color="#0099e5"
       opacity="0.14901961"
       empspacing="5"
       dotted="false"
       gridanglex="30"
       gridanglez="30"
       visible="true" />
  </sodipodi:namedview>
  <defs
     id="defs1">
    <inkscape:path-effect
       effect="fillet_chamfer"
       id="path-effect1"
       is_visible="true"
       lpeversion="1"
       nodesatellites_param="F,0,0,1,0,0.26458333,0,1 @ F,0,0,1,0,0.26458333,0,1 @ F,0,0,1,0,0.26458333,0,1 @ F,0,0,1,0,0.26458333,0,1 @ F,0,0,1,0,0.26458333,0,1 @ F,0,0,1,0,0.26458333,0,1 @ F,0,0,1,0,0.26458333,0,1 @ F,0,0,1,0,0.26458333,0,1 | F,0,0,1,0,0.26458333,0,1 @ F,0,0,1,0,0.26458333,0,1 @ F,0,0,1,0,0.26458333,0,1 @ F,0,0,1,0,0.26458333,0,1 | F,0,0,1,0,0.26458333,0,1 @ F,0,0,1,0,0.26458333,0,1 @ F,0,0,1,0,0.26458333,0,1 @ F,0,0,1,0,0.26458333,0,1 | F,0,0,1,0,0.26458333,0,1 @ F,0,0,1,0,0.26458333,0,1 @ F,0,0,1,0,0.26458333,0,1 @ F,0,0,1,0,0.26458333,0,1 | F,0,0,1,0,0.26458333,0,1 @ F,0,0,1,0,0.26458333,0,1 @ F,0,0,1,0,0.26458333,0,1 @ F,0,0,1,0,0.26458333,0,1 | F,0,0,1,0,0.26458333,0,1 @ F,0,0,1,0,1,0,1 @ F,0,0,1,0,1,0,1 @ F,0,0,1,0,1,0,1 @ F,0,0,1,0,0.26458333,0,1 | F,0,0,1,0,1,0,1 @ F,0,1,1,0,1,0,1 @ F,0,1,1,0,1,0,1 @ F,0,0,1,0,1,0,1 | F,0,1,1,0,1,0,1 @ F,0,1,1,0,1,0,1 @ F,0,1,1,0,1,0,1 @ F,0,1,1,0,1,0,1 | F,0,1,1,0,1,0,1 @ F,0,0,1,0,1,0,1 @ F,0,0,1,0,1,0,1 @ F,0,1,1,0,1,0,1 | F,0,0,1,0,1,0,1 @ F,0,0,1,0,0.26458333,0,1 @ F,0,0,1,0,0.26458333,0,1 @ F,0,0,1,0,1,0,1 @ F,0,0,1,0,1,0,1 | F,0,0,1,0,1,0,1 @ F,0,0,1,0,1,0,1 @ F,0,0,1,0,1,0,1 @ F,0,0,1,0,0.26458333,0,1 @ F,0,0,1,0,0.26458333,0,1 | F,0,0,1,0,1,0,1 @ F,0,0,1,0,1,0,1 @ F,0,0,1,0,1,0,1 @ F,0,0,1,0,1,0,1 | F,0,0,1,0,1,0,1 @ F,0,0,1,0,1,0,1 @ F,0,0,1,0,0.26458333,0,1 @ F,0,0,1,0,1,0,1 @ F,0,0,1,0,0.26458333,0,1 @ F,0,0,1,0,0.26458333,0,1 @ F,0,0,1,0,1,0,1 @ F,0,0,1,0,1,0,1 @ F,0,0,1,0,0.26458333,0,1 | F,0,0,1,0,0.26458333,0,1 @ F,0,0,1,0,0.26458333,0,1 @ F,0,0,1,0,0.26458333,0,1 @ F,0,0,1,0,0.26458333,0,1 | F,0,0,1,0,0.26458333,0,1 @ F,0,0,1,0,0.26458333,0,1 @ F,0,0,1,0,0.26458333,0,1 @ F,0,0,1,0,0.26458333,0,1 | F,0,0,1,0,0.26458333,0,1 @ F,0,0,1,0,0.26458333,0,1 @ F,0,0,1,0,0.26458333,0,1 @ F,0,0,1,0,0.26458333,0,1 | F,0,0,1,0,0.26458333,0,1 @ F,0,0,1,0,0.26458333,0,1 @ F,0,0,1,0,0.26458333,0,1 @ F,0,0,1,0,0.26458333,0,1"
       radius="1"
       unit="mm"
       method="auto"
       mode="F"
       chamfer_steps="1"
       flexible="false"
       use_knot_distance="true"
       apply_no_radius="true"
       apply_with_radius="true"
       only_selected="true"
       hide_knots="false" />
  </defs>
  <g
     inkscape:groupmode="layer"
     id="layer2"
     inkscape:label="Case-TKL"
     style="display:inline">
    <path
       id="rect1-5"
       style="fill:none;fill-opacity:0.248963;stroke:#00ffff;stroke-width:0.0999998;stroke-opacity:1"
       inkscape:label="wall-outter"
       d="m 12.285631,4.8612086 c -1.45021,0.1254711 -2.5987372,1.274405 -2.7241859,2.7246451 -0.012592,0.1455677 -0.011376,0.3827711 -0.011376,0.5288964 l 0,135.8707799 c 0,0.14612 -0.00122,0.3833 0.011371,0.52884 0.1254224,1.45022 1.2739328,2.59874 2.7241348,2.72418 0.145567,0.0126 0.38277,0.0114 0.528895,0.0114 h 353.07106 c 0.14612,0 0.3833,0.001 0.52884,-0.0114 1.45022,-0.12542 2.59874,-1.27392 2.72418,-2.72414 0.0126,-0.14557 0.0114,-0.38277 0.0114,-0.52889 V 8.1147501 c 0,-0.1461253 0.001,-0.3833033 -0.0114,-0.5288401 -0.12542,-1.4502487 -1.27392,-2.5992002 -2.72414,-2.7246967 -0.14556,-0.012597 -0.38277,-0.01138 -0.52889,-0.01138 l -353.07106,0 c -0.146125,0 -0.383303,-0.00122 -0.528839,0.011375 z m 2.67743,4.3142497 c 0.534685,0.1056336 0.955884,0.5269808 1.061332,1.0616997 0.02823,0.143164 0.02819,0.382767 -9.1e-5,0.525894 -0.105599,0.534503 -0.526697,0.955615 -1.061193,1.061232 -0.143153,0.02829 -0.382756,0.02833 -0.525894,1.1e-4 -0.534726,-0.105429 -0.956087,-0.526615 -1.061739,-1.061294 -0.02829,-0.143153 -0.02833,-0.382756 -1.1e-4,-0.525894 0.105464,-0.5349094 0.526898,-0.9563566 1.061801,-1.0618393 0.143164,-0.028232 0.382767,-0.028185 0.525894,9.16e-5 z m 98.799909,-3e-7 c 0.53468,0.1056329 0.95589,0.5269804 1.06133,1.0617 0.0282,0.143164 0.0282,0.382767 -9e-5,0.525894 -0.1056,0.534504 -0.5267,0.955616 -1.06119,1.061232 -0.14316,0.02829 -0.38276,0.02833 -0.5259,1.11e-4 -0.53472,-0.105427 -0.95609,-0.526614 -1.06174,-1.061295 -0.0283,-0.143153 -0.0283,-0.382756 -1.1e-4,-0.525894 0.10546,-0.5349107 0.5269,-0.9563585 1.0618,-1.06184 0.14317,-0.028232 0.38277,-0.028184 0.5259,9.2e-5 z m 151.69979,-1.015e-4 c 0.53491,0.1054627 0.95636,0.5268978 1.06184,1.0618015 0.0282,0.143164 0.0282,0.382767 -9e-5,0.525894 -0.10564,0.534688 -0.52698,0.955887 -1.0617,1.061334 -0.14317,0.02823 -0.38277,0.02818 -0.5259,-9.2e-5 -0.5345,-0.105598 -0.95561,-0.526697 -1.06123,-1.061194 -0.0283,-0.143153 -0.0283,-0.382756 -1.1e-4,-0.525894 0.10543,-0.5347266 0.52661,-0.9560868 1.06129,-1.0617386 0.14316,-0.028287 0.38276,-0.028332 0.5259,-1.109e-4 z m 98.80002,0 c 0.53491,0.1054627 0.95636,0.5268978 1.06184,1.0618015 0.0282,0.143164 0.0282,0.382767 -9e-5,0.525894 -0.10564,0.534688 -0.52698,0.955887 -1.0617,1.061334 -0.14317,0.02823 -0.38277,0.02818 -0.5259,-9.4e-5 -0.5345,-0.1056 -0.9556,-0.526699 -1.06122,-1.061192 -0.0283,-0.143153 -0.0283,-0.382756 -1.1e-4,-0.525894 0.10543,-0.5347234 0.52661,-0.9560822 1.06128,-1.0617369 0.14316,-0.028288 0.38276,-0.028334 0.5259,-1.126e-4 z M 16.214779,16.250171 h 17.685416 a 1,1 45 0 1 1,1 v 17.649963 a 1,1 135 0 1 -1,1 H 15.950257 a 1,1 45 0 1 -1,-1 V 17.514693 c 0,-0.146125 -0.0035,-0.385445 0.03428,-0.52617 0.09206,-0.342985 0.361076,-0.612005 0.704059,-0.704065 0.14073,-0.03777 0.380054,-0.03429 0.526179,-0.03429 z m 38.035201,0 h 74.90022 a 1,1 45 0 1 1,1 v 17.649963 a 1,1 135 0 1 -1,1 H 54.24998 a 1,1 45 0 1 -1,-1 V 17.250171 a 1,1 135 0 1 1,-1 z m 85.725,0 h 74.90022 a 1,1 45 0 1 1,1 v 17.649963 a 1,1 135 0 1 -1,1 h -74.90022 a 1,1 45 0 1 -1,-1 l 0,-17.649963 a 1,1 135 0 1 1,-1 z m 85.725,0 h 74.90022 a 1,1 45 0 1 1,1 v 17.649963 a 1,1 135 0 1 -1,1 h -74.90022 a 1,1 45 0 1 -1,-1 V 17.250171 a 1,1 135 0 1 1,-1 z m 80.96198,0 h 55.82378 c 0.14612,0 0.38544,-0.0035 0.52617,0.03428 0.34298,0.09206 0.612,0.361076 0.70406,0.704059 0.0378,0.14073 0.0343,0.380054 0.0343,0.526179 v 17.385441 a 1,1 135 0 1 -1,1 h -56.0883 a 1,1 45 0 1 -1,-1 V 17.250171 a 1,1 135 0 1 1,-1 z m -290.711703,23.711731 284.649943,0 a 1,1 45 0 1 1,1 v 93.888208 a 1,1 135 0 1 -1,1 H 16.214779 c -0.146125,0 -0.385445,0.003 -0.52617,-0.0343 -0.342985,-0.0921 -0.612005,-0.36108 -0.704065,-0.70406 -0.03777,-0.14073 -0.03429,-0.38006 -0.03429,-0.52618 V 40.961902 a 1,1 135 0 1 1,-1 z m 290.711703,0 h 56.0883 a 1,1 45 0 1 1,1 l 0,36.800216 a 1,1 135 0 1 -1,1 h -56.0883 a 1,1 45 0 1 -1,-1 V 40.961902 a 1,1 135 0 1 1,-1 z m 19.05,57.15 h 17.75022 a 1,1 45 0 1 1,1 v 17.785418 a 0.26458333,0.26458333 45 0 0 0.26458,0.26458 h 18.0235 a 1,1 45 0 1 1,1 v 17.42369 c 0,0.14612 0.003,0.38544 -0.0343,0.52617 -0.0921,0.34298 -0.36108,0.612 -0.70406,0.70406 -0.14073,0.0378 -0.38006,0.0343 -0.52618,0.0343 h -55.82378 a 1,1 45 0 1 -1,-1 V 117.1619 a 1,1 135 0 1 1,-1 h 17.78542 a 0.26458333,0.26458333 135 0 0 0.26458,-0.26458 V 98.111902 a 1,1 135 0 1 1,-1 z M 14.963061,140.17573 c 0.534503,0.1056 0.955614,0.5267 1.061231,1.06119 0.02829,0.14316 0.02833,0.38276 1.11e-4,0.5259 -0.105427,0.53472 -0.526614,0.95609 -1.061294,1.06174 -0.143153,0.0283 -0.382756,0.0283 -0.525894,1.1e-4 -0.534911,-0.10546 -0.956359,-0.5269 -1.06184,-1.0618 -0.02823,-0.14317 -0.02819,-0.38277 9.2e-5,-0.5259 0.105633,-0.53468 0.52698,-0.95589 1.0617,-1.06133 0.143164,-0.0282 0.382767,-0.0282 0.525894,9e-5 z m 98.799909,0 c 0.5345,0.1056 0.95561,0.5267 1.06123,1.06119 0.0283,0.14316 0.0283,0.38276 1.1e-4,0.5259 -0.10543,0.53472 -0.52662,0.95609 -1.06129,1.06174 -0.14316,0.0283 -0.38276,0.0283 -0.5259,1.1e-4 -0.53491,-0.10546 -0.95636,-0.5269 -1.06184,-1.0618 -0.0282,-0.14317 -0.0282,-0.38277 9e-5,-0.5259 0.10564,-0.53468 0.52698,-0.95589 1.0617,-1.06133 0.14317,-0.0282 0.38277,-0.0282 0.5259,9e-5 z m 111.70016,0 c 0.5345,0.1056 0.95561,0.5267 1.06123,1.06119 0.0283,0.14316 0.0283,0.38276 1.1e-4,0.5259 -0.10543,0.53472 -0.52662,0.95609 -1.06129,1.06174 -0.14316,0.0283 -0.38276,0.0283 -0.5259,1.1e-4 -0.53491,-0.10546 -0.95636,-0.5269 -1.06184,-1.0618 -0.0282,-0.14317 -0.0282,-0.38277 9e-5,-0.5259 0.10564,-0.53468 0.52698,-0.95589 1.0617,-1.06133 0.14317,-0.0282 0.38277,-0.0282 0.5259,9e-5 z m 138.79965,-10e-5 c 0.53472,0.10543 0.95609,0.52662 1.06174,1.06129 0.0283,0.14316 0.0283,0.38276 1.1e-4,0.5259 -0.10546,0.53491 -0.5269,0.95636 -1.0618,1.06184 -0.14317,0.0282 -0.38277,0.0282 -0.5259,-9e-5 -0.53468,-0.10564 -0.95588,-0.52699 -1.06132,-1.0617 -0.0282,-0.14317 -0.0282,-0.38277 9e-5,-0.5259 0.1056,-0.5345 0.52669,-0.95561 1.06118,-1.06123 0.14316,-0.0283 0.38276,-0.0283 0.5259,-1.1e-4 z"
       sodipodi:nodetypes="ssssssssscccccccccccscscsssssscccssccccccccccccccccssccccccssccccccccccsscccccccccccccccccccsssss"
       inkscape:path-effect="#path-effect1"
       inkscape:original-d="m 12.549887,4.8498332 c -1.661983,0 -2.9998176,1.3383625 -2.9998176,3.0003336 V 144.25011 c 0,1.662 1.3378346,2.99982 2.9998176,2.99982 H 366.15011 c 1.662,0 2.99982,-1.33782 2.99982,-2.99982 V 7.8501668 c 0,-1.6619711 -1.33782,-3.0003336 -2.99982,-3.0003336 z m 2.150256,4.2999959 c 0.74562,1.171e-4 1.349956,0.6046842 1.349788,1.3503049 -1.17e-4,0.745419 -0.604369,1.349672 -1.349788,1.349789 -0.745621,1.68e-4 -1.350189,-0.604168 -1.350305,-1.349789 -1.69e-4,-0.7458227 0.604482,-1.3504734 1.350305,-1.3503049 z m 98.799907,0 c 0.74562,1.16e-4 1.34996,0.6046834 1.34979,1.3503049 -1.2e-4,0.74542 -0.60437,1.349673 -1.34979,1.349789 -0.74562,1.71e-4 -1.35019,-0.604166 -1.35031,-1.349789 -1.7e-4,-0.7458246 0.60449,-1.3504762 1.35031,-1.3503049 z m 151.69978,0 c 0.74582,-1.713e-4 1.35048,0.6044803 1.35031,1.3503049 -1.2e-4,0.745623 -0.60469,1.34996 -1.35031,1.349789 -0.74542,-1.16e-4 -1.34967,-0.604369 -1.34979,-1.349789 -1.7e-4,-0.7456215 0.60417,-1.3501889 1.34979,-1.3503049 z m 98.80002,0 c 0.74582,-1.713e-4 1.35048,0.6044803 1.35031,1.3503049 -1.2e-4,0.745623 -0.60469,1.34996 -1.35031,1.349789 -0.74542,-1.21e-4 -1.34966,-0.604373 -1.34978,-1.349789 -1.7e-4,-0.7456176 0.60416,-1.3501834 1.34978,-1.3503049 z M 15.950196,16.250171 H 34.900195 V 35.900134 H 14.950257 V 17.25011 c 0,-0.554 0.445939,-0.999939 0.999939,-0.999939 z m 37.299784,0 H 130.1502 V 35.900134 H 53.24998 Z m 85.725,0 h 76.90022 v 19.649963 h -76.90022 z m 85.725,0 h 76.90022 v 19.649963 h -76.90022 z m 80.96198,0 h 57.08836 c 0.554,0 0.99994,0.445939 0.99994,0.999939 v 18.650024 h -58.0883 z M 14.950257,39.961902 H 301.6002 V 135.85011 H 15.950196 c -0.554,0 -0.999939,-0.44594 -0.999939,-0.99994 z m 290.711703,0 h 58.0883 v 38.800216 h -58.0883 z m 19.05,57.15 h 19.75022 V 116.1619 h 19.28808 v 18.68827 c 0,0.554 -0.44594,0.99994 -0.99994,0.99994 H 305.66196 V 116.1619 h 19.05 z M 14.700143,140.1501 c 0.745419,1.2e-4 1.349671,0.60437 1.349788,1.34979 1.71e-4,0.74562 -0.604166,1.35019 -1.349788,1.35031 -0.745825,1.7e-4 -1.350477,-0.60449 -1.350305,-1.35031 1.16e-4,-0.74562 0.604683,-1.34996 1.350305,-1.34979 z m 98.799907,0 c 0.74542,1.2e-4 1.34967,0.60437 1.34979,1.34979 1.7e-4,0.74562 -0.60417,1.35019 -1.34979,1.35031 -0.74583,1.7e-4 -1.35048,-0.60448 -1.35031,-1.35031 1.2e-4,-0.74562 0.60469,-1.34996 1.35031,-1.34979 z m 111.70016,0 c 0.74542,1.2e-4 1.34967,0.60437 1.34979,1.34979 1.7e-4,0.74562 -0.60417,1.35019 -1.34979,1.35031 -0.74583,1.7e-4 -1.35048,-0.60448 -1.35031,-1.35031 1.2e-4,-0.74562 0.60469,-1.34996 1.35031,-1.34979 z m 138.79964,0 c 0.74562,-1.7e-4 1.35019,0.60417 1.35031,1.34979 1.7e-4,0.74583 -0.60448,1.35048 -1.35031,1.35031 -0.74562,-1.2e-4 -1.34995,-0.60469 -1.34978,-1.35031 1.2e-4,-0.74542 0.60436,-1.34967 1.34978,-1.34979 z" />
  </g>
</svg>
