<?xml version="1.0" encoding="UTF-8" standalone="no"?>
<!-- Created with Inkscape (http://www.inkscape.org/) -->

<svg
   width="375mm"
   height="320mm"
   viewBox="0 0 375 320"
   version="1.1"
   id="svg1"
   inkscape:version="1.4 (86a8ad7, 2024-10-11)"
   sodipodi:docname="tkl-top-wkl.svg"
   xmlns:inkscape="http://www.inkscape.org/namespaces/inkscape"
   xmlns:sodipodi="http://sodipodi.sourceforge.net/DTD/sodipodi-0.dtd"
   xmlns="http://www.w3.org/2000/svg"
   xmlns:svg="http://www.w3.org/2000/svg">
  <sodipodi:namedview
     id="namedview1"
     pagecolor="#505050"
     bordercolor="#eeeeee"
     borderopacity="1"
     inkscape:showpageshadow="0"
     inkscape:pageopacity="0"
     inkscape:pagecheckerboard="0"
     inkscape:deskcolor="#505050"
     inkscape:document-units="mm"
     showgrid="true"
     inkscape:zoom="7.6799899"
     inkscape:cx="1178.6474"
     inkscape:cy="486.39387"
     inkscape:window-width="1920"
     inkscape:window-height="1009"
     inkscape:window-x="1912"
     inkscape:window-y="-8"
     inkscape:window-maximized="1"
     inkscape:current-layer="layer2-8">
    <inkscape:grid
       id="grid1"
       units="mm"
       originx="0"
       originy="0"
       spacingx="0.99999999"
       spacingy="1"
       empcolor="#0099e5"
       empopacity="0.30196078"
       color="#0099e5"
       opacity="0.14901961"
       empspacing="5"
       dotted="false"
       gridanglex="30"
       gridanglez="30"
       visible="true" />
  </sodipodi:namedview>
  <defs
     id="defs1">
    <inkscape:path-effect
       effect="fillet_chamfer"
       id="path-effect1"
       is_visible="true"
       lpeversion="1"
       nodesatellites_param="F,0,0,1,0,0,0,1 @ F,0,0,1,0,0,0,1 @ F,0,0,1,0,0,0,1 @ F,0,0,1,0,0,0,1 @ F,0,0,1,0,0,0,1 @ F,0,0,1,0,0,0,1 @ F,0,0,1,0,0,0,1 @ F,0,0,1,0,0,0,1 | F,0,0,1,0,0,0,1 @ F,0,0,1,0,0,0,1 @ F,0,0,1,0,0,0,1 @ F,0,0,1,0,0,0,1 | F,0,0,1,0,0,0,1 @ F,0,0,1,0,0,0,1 @ F,0,0,1,0,0,0,1 @ F,0,0,1,0,0,0,1 | F,0,0,1,0,0,0,1 @ F,0,0,1,0,0,0,1 @ F,0,0,1,0,0,0,1 @ F,0,0,1,0,0,0,1 | F,0,0,1,0,0,0,1 @ F,0,0,1,0,0,0,1 @ F,0,0,1,0,0,0,1 @ F,0,0,1,0,0,0,1 | F,0,0,1,0,0,0,1 @ F,0,0,1,0,0.99999997,0,1 @ F,0,0,1,0,0.99999997,0,1 @ F,0,0,1,0,0.99999997,0,1 @ F,0,0,1,0,0,0,1 | F,0,0,1,0,0.99999997,0,1 @ F,0,0,1,0,0.99999997,0,1 @ F,0,0,1,0,0.99999997,0,1 @ F,0,0,1,0,0.99999997,0,1 | F,0,0,1,0,0.99999997,0,1 @ F,0,0,1,0,0.99999997,0,1 @ F,0,0,1,0,0.99999997,0,1 @ F,0,0,1,0,0.99999997,0,1 | F,0,0,1,0,0.99999997,0,1 @ F,0,0,1,0,0.99999997,0,1 @ F,0,0,1,0,0.99999997,0,1 @ F,0,0,1,0,0.99999997,0,1 | F,0,0,1,0,0.99999997,0,1 @ F,0,0,1,0,0,0,1 @ F,0,0,1,0,0,0,1 @ F,0,0,1,0,0.99999997,0,1 @ F,0,0,1,0,0.99999997,0,1 | F,0,0,1,0,0.99999997,0,1 @ F,0,0,1,0,0.99999997,0,1 @ F,0,0,1,0,1.028238,0,1 @ F,0,0,1,0,0.99999997,0,1 @ F,0,0,1,0,0,0,1 @ F,0,0,1,0,0,0,1 @ F,0,0,1,0,0.99999997,0,1 @ F,0,0,1,0,0.99999997,0,1 @ F,0,0,1,0,0,0,1 @ F,0,0,1,0,0,0,1 @ F,0,0,1,0,0.99999997,0,1 @ F,0,0,1,0,0,0,1 @ F,0,0,1,0,0,0,1 | F,0,0,1,0,0.99999997,0,1 @ F,0,0,1,0,0.99999997,0,1 @ F,0,0,1,0,0.99999997,0,1 @ F,0,0,1,0,0.99999997,0,1 | F,0,0,1,0,0.99999997,0,1 @ F,0,0,1,0,0.99999997,0,1 @ F,0,0,1,0,0,0,1 @ F,0,0,1,0,0.99999997,0,1 @ F,0,0,1,0,0,0,1 @ F,0,0,1,0,0,0,1 @ F,0,0,1,0,0.99999997,0,1 @ F,0,0,1,0,0.99999997,0,1 @ F,0,0,1,0,0,0,1 | F,0,0,1,0,0,0,1 @ F,0,0,1,0,0,0,1 @ F,0,0,1,0,0,0,1 @ F,0,0,1,0,0,0,1 | F,0,0,1,0,0,0,1 @ F,0,0,1,0,0,0,1 @ F,0,0,1,0,0,0,1 @ F,0,0,1,0,0,0,1 | F,0,0,1,0,0,0,1 @ F,0,0,1,0,0,0,1 @ F,0,0,1,0,0,0,1 @ F,0,0,1,0,0,0,1 | F,0,0,1,0,0,0,1 @ F,0,0,1,0,0,0,1 @ F,0,0,1,0,0,0,1 @ F,0,0,1,0,0,0,1"
       radius="1"
       unit="mm"
       method="auto"
       mode="F"
       chamfer_steps="1"
       flexible="false"
       use_knot_distance="true"
       apply_no_radius="true"
       apply_with_radius="true"
       only_selected="true"
       hide_knots="false" />
  </defs>
  <g
     inkscape:groupmode="layer"
     id="layer2-8"
     inkscape:label="Case-TKL"
     style="display:inline"
     transform="translate(34.914549,31.183511)">
    <path
       id="rect1-5-8"
       style="fill:#808080;fill-opacity:1;stroke:#808080;stroke-width:0.0999998;stroke-opacity:1"
       inkscape:label="wall-outter"
       d="m -21.864732,-26.133511 c -1.662,0 -2.999817,1.338334 -2.999817,3.000334 V 113.26677 c 0,1.662 1.337817,2.99981 2.999817,2.99981 H 331.73539 c 1.662,0 2.99982,-1.33781 2.99982,-2.99981 V -23.133177 c 0,-1.662 -1.33782,-3.000334 -2.99982,-3.000334 z m 2.150256,4.150134 c 0.828356,1.93e-4 1.499742,0.671811 1.49965,1.500167 -1.93e-4,0.828154 -0.671496,1.499457 -1.49965,1.49965 -0.828356,9.2e-5 -1.499974,-0.671294 -1.500167,-1.49965 -9.2e-5,-0.828558 0.671609,-1.500259 1.500167,-1.500167 z m 98.499935,0 c 0.828555,-8.8e-5 1.500252,0.671612 1.50016,1.500167 -1.93e-4,0.828353 -0.671807,1.499738 -1.50016,1.49965 -0.828357,9.4e-5 -1.499977,-0.671293 -1.50017,-1.49965 -9.2e-5,-0.828559 0.671611,-1.500261 1.50017,-1.500167 z m 151.699781,0 c 0.82856,-9.4e-5 1.50026,0.671608 1.50017,1.500167 -1.9e-4,0.828357 -0.67181,1.499744 -1.50017,1.49965 -0.82815,-1.93e-4 -1.49946,-0.671496 -1.49965,-1.49965 -9e-5,-0.828356 0.67129,-1.499974 1.49965,-1.500167 z m 99.10041,0 c 0.82836,1.93e-4 1.49974,0.671811 1.49965,1.500167 -1.9e-4,0.828154 -0.6715,1.499457 -1.49965,1.49965 -0.82836,9.4e-5 -1.49998,-0.671293 -1.50017,-1.49965 -9e-5,-0.828559 0.67161,-1.500261 1.50017,-1.500167 z m -348.050073,7.250204 h 17.65054083 a 0.99999997,0.99999997 45 0 1 0.99999997,1 l 0,17.6499629 a 0.99999997,0.99999997 135 0 1 -0.99999997,1 H -18.464362 a 0.99999997,0.99999997 45 0 1 -1,-1 V -13.733234 c 0,-0.554 0.445939,-0.999939 0.999939,-0.999939 z m 37.999292,0 74.90073,0 a 0.99999997,0.99999997 45 0 1 1,1 V 3.9167899 a 0.99999997,0.99999997 135 0 1 -1,1 h -74.90073 a 0.99999997,0.99999997 45 0 1 -1,-1 V -13.733173 a 0.99999997,0.99999997 135 0 1 1,-1 z m 85.725001,0 74.90125,0 a 0.99999997,0.99999997 45 0 1 1,1 V 3.9167899 a 0.99999997,0.99999997 135 0 1 -1,1 h -74.90125 a 0.99999997,0.99999997 45 0 1 -1,-1 l 0,-17.6499629 a 0.99999997,0.99999997 135 0 1 1,-1 z m 85.72448,0 75.20098,0 a 0.99999997,0.99999997 45 0 1 1,1 V 3.9167899 a 0.99999997,0.99999997 135 0 1 -1,1 h -75.20098 a 0.99999997,0.99999997 45 0 1 -1,-1 V -13.733173 a 0.99999997,0.99999997 135 0 1 1,-1 z m 81.26326,0 h 56.08799 c 0.554,0 0.99994,0.445939 0.99994,0.999939 V 3.9167899 a 0.99999997,0.99999997 135 0 1 -1,1 h -56.08793 a 0.99999997,0.99999997 45 0 1 -1,-1 l 0,-17.6499629 a 0.99999997,0.99999997 135 0 1 1,-1 z M -18.464362,8.9785579 H 266.18533 a 0.99999997,0.99999997 45 0 1 1,1 V 103.83852 a 1.028238,1.028238 135 0 1 -1.02824,1.02824 h -27.5467 a 0.99999997,0.99999997 45 0 1 -1,-1 l 0,-17.987982 H 219.2606 v 17.987982 a 0.99999997,0.99999997 135 0 1 -1,1 H 29.060386 a 0.99999997,0.99999997 45 0 1 -1,-1 V 85.878778 H 9.7106018 v 17.987982 a 0.99999997,0.99999997 135 0 1 -1,1 H -18.464423 c -0.554,0 -0.999939,-0.44594 -0.999939,-0.99994 V 9.9785579 a 0.99999997,0.99999997 135 0 1 1,-1 z m 290.711972,0 h 56.08793 a 0.99999997,0.99999997 45 0 1 1,1 V 46.778773 a 0.99999997,0.99999997 135 0 1 -1,1 h -56.08793 a 0.99999997,0.99999997 45 0 1 -1,-1 V 9.9785579 a 0.99999997,0.99999997 135 0 1 1,-1 z m 19.04897,57.1500001 h 17.75176 a 0.99999997,0.99999997 45 0 1 1,1 v 18.04897 h 18.2872 a 0.99999997,0.99999997 45 0 1 1,1 l 0,17.689292 c 0,0.554 -0.44594,0.99994 -0.99994,0.99994 h -56.08799 a 0.99999997,0.99999997 45 0 1 -1,-1 V 86.177528 a 0.99999997,0.99999997 135 0 1 1,-1 h 18.04897 v -18.04897 a 0.99999997,0.99999997 135 0 1 1,-1 z M -19.714476,109.0169 c 0.828154,1.9e-4 1.499457,0.6715 1.49965,1.49965 8.8e-5,0.82835 -0.671297,1.49997 -1.49965,1.50016 -0.828555,9e-5 -1.500255,-0.67161 -1.500167,-1.50016 1.93e-4,-0.82836 0.671811,-1.49974 1.500167,-1.49965 z m 98.499935,0 c 0.828353,-9e-5 1.499967,0.6713 1.50016,1.49965 8.8e-5,0.82855 -0.671608,1.50025 -1.50016,1.50016 -0.828556,9e-5 -1.500258,-0.6716 -1.50017,-1.50016 1.93e-4,-0.82836 0.671813,-1.49974 1.50017,-1.49965 z m 111.700151,0 c 0.82815,1.9e-4 1.49946,0.6715 1.49965,1.49965 9e-5,0.82835 -0.6713,1.49997 -1.49965,1.50016 -0.82855,9e-5 -1.50025,-0.67161 -1.50016,-1.50016 1.9e-4,-0.82835 0.67181,-1.49974 1.50016,-1.49965 z m 139.10004,0 c 0.82815,1.9e-4 1.49946,0.6715 1.49965,1.49965 9e-5,0.82835 -0.6713,1.49997 -1.49965,1.50016 -0.82856,9e-5 -1.50026,-0.6716 -1.50017,-1.50016 1.9e-4,-0.82836 0.67181,-1.49974 1.50017,-1.49965 z"
       inkscape:path-effect="#path-effect1"
       inkscape:original-d="m -21.864732,-26.133511 c -1.662,0 -2.999817,1.338334 -2.999817,3.000334 V 113.26677 c 0,1.662 1.337817,2.99981 2.999817,2.99981 H 331.73539 c 1.662,0 2.99982,-1.33781 2.99982,-2.99981 V -23.133177 c 0,-1.662 -1.33782,-3.000334 -2.99982,-3.000334 z m 2.150256,4.150134 a 1.5,1.5 0 0 1 1.49965,1.500167 1.5,1.5 0 0 1 -1.49965,1.49965 1.5,1.5 0 0 1 -1.500167,-1.49965 1.5,1.5 0 0 1 1.500167,-1.500167 z m 98.499935,0 a 1.5,1.5 0 0 1 1.50016,1.500167 1.5,1.5 0 0 1 -1.50016,1.49965 1.5,1.5 0 0 1 -1.50017,-1.49965 1.5,1.5 0 0 1 1.50017,-1.500167 z m 151.699781,0 a 1.5,1.5 0 0 1 1.50017,1.500167 1.5,1.5 0 0 1 -1.50017,1.49965 1.5,1.5 0 0 1 -1.49965,-1.49965 1.5,1.5 0 0 1 1.49965,-1.500167 z m 99.10041,0 a 1.5,1.5 0 0 1 1.49965,1.500167 1.5,1.5 0 0 1 -1.49965,1.49965 1.5,1.5 0 0 1 -1.50017,-1.49965 1.5,1.5 0 0 1 1.50017,-1.500167 z m -348.050073,7.250204 H 0.1861178 V 4.9167899 H -19.464362 V -13.733234 c 0,-0.554 0.445939,-0.999939 0.999939,-0.999939 z m 36.999292,0 h 76.90073 V 4.9167899 h -76.90073 z m 85.725001,0 h 76.90125 V 4.9167899 h -76.90125 z m 85.72448,0 h 77.20098 V 4.9167899 h -77.20098 z m 81.26326,0 h 57.08799 c 0.554,0 0.99994,0.445939 0.99994,0.999939 V 4.9167899 H 271.24761 Z M -19.464362,8.9785579 H 267.18533 V 104.86676 H 237.61039 V 85.878778 H 219.2606 V 104.86676 H 28.060386 V 85.878778 H 9.7106018 V 104.86676 H -18.464423 c -0.554,0 -0.999939,-0.44594 -0.999939,-0.99994 z m 290.711972,0 h 58.08793 V 47.778773 h -58.08793 z m 19.04897,57.1500001 h 19.75176 v 19.04897 h 19.2872 v 18.689292 c 0,0.554 -0.44594,0.99994 -0.99994,0.99994 H 271.24761 V 85.177528 h 19.04897 z M -19.714476,109.0169 a 1.5,1.5 0 0 1 1.49965,1.49965 1.5,1.5 0 0 1 -1.49965,1.50016 1.5,1.5 0 0 1 -1.500167,-1.50016 1.5,1.5 0 0 1 1.500167,-1.49965 z m 98.499935,0 a 1.5,1.5 0 0 1 1.50016,1.49965 1.5,1.5 0 0 1 -1.50016,1.50016 1.5,1.5 0 0 1 -1.50017,-1.50016 1.5,1.5 0 0 1 1.50017,-1.49965 z m 111.700151,0 a 1.5,1.5 0 0 1 1.49965,1.49965 1.5,1.5 0 0 1 -1.49965,1.50016 1.5,1.5 0 0 1 -1.50016,-1.50016 1.5,1.5 0 0 1 1.50016,-1.49965 z m 139.10004,0 a 1.5,1.5 0 0 1 1.49965,1.49965 1.5,1.5 0 0 1 -1.49965,1.50016 1.5,1.5 0 0 1 -1.50017,-1.50016 1.5,1.5 0 0 1 1.50017,-1.49965 z" />
  </g>
</svg>
