<?xml version="1.0" encoding="UTF-8" standalone="no"?>
<!-- Created with Inkscape (http://www.inkscape.org/) -->

<svg
   width="375mm"
   height="320mm"
   viewBox="0 0 375 320"
   version="1.1"
   id="svg1"
   inkscape:version="1.3.2 (091e20e, 2023-11-25, custom)"
   sodipodi:docname="tkl-top-wk.svg"
   xmlns:inkscape="http://www.inkscape.org/namespaces/inkscape"
   xmlns:sodipodi="http://sodipodi.sourceforge.net/DTD/sodipodi-0.dtd"
   xmlns="http://www.w3.org/2000/svg"
   xmlns:svg="http://www.w3.org/2000/svg">
  <sodipodi:namedview
     id="namedview1"
     pagecolor="#505050"
     bordercolor="#eeeeee"
     borderopacity="1"
     inkscape:showpageshadow="0"
     inkscape:pageopacity="0"
     inkscape:pagecheckerboard="0"
     inkscape:deskcolor="#505050"
     inkscape:document-units="mm"
     showgrid="true"
     inkscape:zoom="0.75024448"
     inkscape:cx="306.56674"
     inkscape:cy="337.88986"
     inkscape:window-width="2560"
     inkscape:window-height="1369"
     inkscape:window-x="3832"
     inkscape:window-y="-8"
     inkscape:window-maximized="1"
     inkscape:current-layer="layer2"
     showguides="false">
    <inkscape:grid
       id="grid1"
       units="mm"
       originx="0"
       originy="0"
       spacingx="0.99999999"
       spacingy="1"
       empcolor="#0099e5"
       empopacity="0.30196078"
       color="#0099e5"
       opacity="0.14901961"
       empspacing="5"
       dotted="false"
       gridanglex="30"
       gridanglez="30"
       visible="true" />
  </sodipodi:namedview>
  <defs
     id="defs1" />
  <g
     inkscape:groupmode="layer"
     id="layer2"
     inkscape:label="Case-TKL"
     style="display:inline">
    <path
       id="rect1-5"
       style="fill:none;fill-opacity:0.0923077;stroke:#ffd400;stroke-width:0.0999998;stroke-opacity:1"
       d="M 12.875183 4.8751546 C 12.321185 4.8751546 11.875244 5.3210946 11.875244 5.8750936 L 11.875244 146.22518 C 11.875244 146.77918 12.321185 147.22512 12.875183 147.22512 L 365.82522 147.22512 C 366.37922 147.22512 366.82515 146.77918 366.82515 146.22518 L 366.82515 5.8750936 C 366.82515 5.3210946 366.37922 4.8751546 365.82522 4.8751546 L 12.875183 4.8751546 z M 16.224849 15.22491 L 34.424772 15.22491 L 34.424772 35.425228 L 15.22491 35.425228 L 15.22491 16.224849 C 15.22491 15.670851 15.670851 15.22491 16.224849 15.22491 z M 53.724886 15.22491 L 129.67477 15.22491 L 129.67477 35.425228 L 53.724886 35.425228 L 53.724886 15.22491 z M 139.44989 15.22491 L 215.39977 15.22491 L 215.39977 35.425228 L 139.44989 35.425228 L 139.44989 15.22491 z M 225.17489 15.22491 L 301.12477 15.22491 L 301.12477 35.425228 L 225.17489 35.425228 L 225.17489 15.22491 z M 306.13687 15.22491 L 362.47503 15.22491 C 363.02903 15.22491 363.47497 15.670851 363.47497 16.224849 L 363.47497 35.425228 L 306.13687 35.425228 L 306.13687 15.22491 z M 15.22491 40.436808 L 301.12477 40.436808 L 301.12477 136.87485 L 16.224849 136.87485 C 15.670851 136.87485 15.22491 136.42891 15.22491 135.87491 L 15.22491 40.436808 z M 306.13687 40.436808 L 363.47497 40.436808 L 363.47497 78.285144 L 306.13687 78.285144 L 306.13687 40.436808 z M 325.18687 97.585258 L 343.98676 97.585258 L 343.98676 116.63474 L 363.47497 116.63474 L 363.47497 135.87491 C 363.47497 136.42891 363.02903 136.87485 362.47503 136.87485 L 306.13687 136.87485 L 306.13687 116.63474 L 325.18687 116.63474 L 325.18687 97.585258 z " />
    <circle
       style="fill:none;fill-opacity:0.0108108;stroke:#ffd400;stroke-width:0.0999999;stroke-opacity:1"
       id="path2"
       cx="16.5"
       cy="10"
       r="1.2750001" />
    <circle
       style="fill:none;fill-opacity:0.0108108;stroke:#ffd400;stroke-width:0.0999999;stroke-opacity:1"
       id="path2-0"
       cx="362.20001"
       cy="10"
       r="1.2750001" />
    <circle
       style="fill:none;fill-opacity:0.0108108;stroke:#ffd400;stroke-width:0.0999999;stroke-opacity:1"
       id="path2-0-1"
       cx="265.20001"
       cy="10"
       r="1.2750001" />
    <circle
       style="fill:none;fill-opacity:0.0108108;stroke:#ffd400;stroke-width:0.0999999;stroke-opacity:1"
       id="path2-4"
       cx="113.5"
       cy="10"
       r="1.2750001" />
    <circle
       style="fill:none;fill-opacity:0.0108108;stroke:#ffd400;stroke-width:0.0999999;stroke-opacity:1"
       id="path2-9"
       cx="16.5"
       cy="142"
       r="1.2750001" />
    <circle
       style="fill:none;fill-opacity:0.0108108;stroke:#ffd400;stroke-width:0.0999999;stroke-opacity:1"
       id="path2-0-4"
       cx="362.19998"
       cy="142"
       r="1.2750001" />
    <circle
       style="fill:none;fill-opacity:0.0108108;stroke:#ffd400;stroke-width:0.0999999;stroke-opacity:1"
       id="path2-0-1-1"
       cx="225.2"
       cy="142"
       r="1.2750001" />
    <circle
       style="fill:none;fill-opacity:0.0108108;stroke:#ffd400;stroke-width:0.0999999;stroke-opacity:1"
       id="path2-4-0"
       cx="113.5"
       cy="142"
       r="1.2750001" />
  </g>
</svg>
