<?xml version="1.0" encoding="UTF-8" standalone="no"?>
<!-- Created with Inkscape (http://www.inkscape.org/) -->

<svg
   width="375mm"
   height="320mm"
   viewBox="0 0 375 320"
   version="1.1"
   id="svg1"
   inkscape:version="1.3.2 (091e20e, 2023-11-25, custom)"
   sodipodi:docname="tkl-side-3.svg"
   xmlns:inkscape="http://www.inkscape.org/namespaces/inkscape"
   xmlns:sodipodi="http://sodipodi.sourceforge.net/DTD/sodipodi-0.dtd"
   xmlns="http://www.w3.org/2000/svg"
   xmlns:svg="http://www.w3.org/2000/svg">
  <sodipodi:namedview
     id="namedview1"
     pagecolor="#505050"
     bordercolor="#eeeeee"
     borderopacity="1"
     inkscape:showpageshadow="0"
     inkscape:pageopacity="0"
     inkscape:pagecheckerboard="0"
     inkscape:deskcolor="#505050"
     inkscape:document-units="mm"
     showgrid="true"
     inkscape:zoom="0.67882162"
     inkscape:cx="623.87524"
     inkscape:cy="243.80485"
     inkscape:window-width="1920"
     inkscape:window-height="1017"
     inkscape:window-x="-8"
     inkscape:window-y="-8"
     inkscape:window-maximized="1"
     inkscape:current-layer="layer2">
    <inkscape:grid
       id="grid1"
       units="mm"
       originx="0"
       originy="0"
       spacingx="0.99999999"
       spacingy="1"
       empcolor="#0099e5"
       empopacity="0.30196078"
       color="#0099e5"
       opacity="0.14901961"
       empspacing="5"
       dotted="false"
       gridanglex="30"
       gridanglez="30"
       visible="true" />
  </sodipodi:namedview>
  <defs
     id="defs1" />
  <g
     inkscape:groupmode="layer"
     id="layer2"
     inkscape:label="Case-TKL"
     style="display:inline">
    <path
       id="rect1-5"
       style="fill:none;fill-opacity:0.248963;stroke:#00ffff;stroke-width:0.0999998;stroke-opacity:1"
       inkscape:label="wall-outter"
       d="M 12.849862 4.8498332 C 11.187878 4.8498332 9.8500448 6.188194 9.8500448 7.8501668 L 9.8500448 144.25011 C 9.8500448 145.91211 11.187878 147.24993 12.849862 147.24993 L 365.85002 147.24993 C 367.51202 147.24993 368.84984 145.91211 368.84984 144.25011 L 368.84984 7.8501668 C 368.84984 6.188194 367.51202 4.8498332 365.85002 4.8498332 L 12.849862 4.8498332 z M 15.000118 9.1498291 A 1.35 1.3500003 0 0 1 16.349906 10.500134 A 1.35 1.3500003 0 0 1 15.000118 11.849923 A 1.35 1.3500003 0 0 1 13.649813 10.500134 A 1.35 1.3500003 0 0 1 15.000118 9.1498291 z M 113.50005 9.1498291 A 1.35 1.3500003 0 0 1 114.84984 10.500134 A 1.35 1.3500003 0 0 1 113.50005 11.849923 A 1.35 1.3500003 0 0 1 112.14974 10.500134 A 1.35 1.3500003 0 0 1 113.50005 9.1498291 z M 265.19983 9.1498291 A 1.35 1.3500003 0 0 1 266.55014 10.500134 A 1.35 1.3500003 0 0 1 265.19983 11.849923 A 1.35 1.3500003 0 0 1 263.85004 10.500134 A 1.35 1.3500003 0 0 1 265.19983 9.1498291 z M 363.69976 9.1498291 A 1.35 1.3500003 0 0 1 365.05007 10.500134 A 1.35 1.3500003 0 0 1 363.69976 11.849923 A 1.35 1.3500003 0 0 1 362.34998 10.500134 A 1.35 1.3500003 0 0 1 363.69976 9.1498291 z M 21.299992 10.300146 L 59.799967 10.300146 C 60.353967 10.300146 60.799906 10.7461 60.799906 11.300085 L 60.799906 15.250232 L 119.30021 15.250232 L 119.30021 11.300085 C 119.30021 10.746099 119.74615 10.300146 120.30015 10.300146 L 158.80013 10.300146 C 159.35413 10.300146 159.80007 10.746099 159.80007 11.300085 L 159.80007 15.250232 L 218.29985 15.250232 L 218.29985 11.300085 C 218.29985 10.746098 218.74579 10.300146 219.29979 10.300146 L 257.79977 10.300146 C 258.35377 10.300146 258.80022 10.746098 258.80022 11.300085 L 258.80022 15.250232 L 317.30001 15.250232 L 317.30001 11.300085 C 317.30001 10.746097 317.74595 10.300146 318.29995 10.300146 L 356.79993 10.300146 C 357.35393 10.300146 357.79987 10.746097 357.79987 11.300085 L 357.79987 15.250232 L 362.45023 15.250232 C 363.00423 15.250232 363.45017 15.696171 363.45017 16.250171 L 363.45017 135.85011 C 363.45017 136.40411 363.00423 136.85004 362.45023 136.85004 L 357.79987 136.85004 L 357.79987 140.83895 C 357.79987 141.39295 357.35393 141.83889 356.79993 141.83889 L 318.29995 141.83889 C 317.74595 141.83889 317.30001 141.39295 317.30001 140.83895 L 317.30001 136.85004 L 271.79995 136.85004 L 271.79995 140.83895 C 271.79995 141.39295 271.35401 141.83889 270.80001 141.83889 L 232.30003 141.83889 C 231.74603 141.83889 231.30009 141.39295 231.30009 140.83895 L 231.30009 136.85004 L 73.800146 136.85004 L 73.800146 140.83895 C 73.800146 141.39295 73.354197 141.83889 72.800208 141.83889 L 34.300232 141.83889 C 33.746232 141.83889 33.299776 141.39295 33.299776 140.83895 L 33.299776 136.85004 L 16.250171 136.85004 C 15.696171 136.85004 15.250232 136.40411 15.250232 135.85011 L 15.250232 16.250171 C 15.250232 15.696171 15.696171 15.250232 16.250171 15.250232 L 20.300053 15.250232 L 20.300053 11.300085 C 20.300053 10.7461 20.745992 10.300146 21.299992 10.300146 z M 15.000118 140.1501 A 1.35 1.3500003 0 0 1 16.349906 141.49989 A 1.35 1.3500003 0 0 1 15.000118 142.8502 A 1.35 1.3500003 0 0 1 13.649813 141.49989 A 1.35 1.3500003 0 0 1 15.000118 140.1501 z M 113.50005 140.1501 A 1.35 1.3500003 0 0 1 114.84984 141.49989 A 1.35 1.3500003 0 0 1 113.50005 142.8502 A 1.35 1.3500003 0 0 1 112.14974 141.49989 A 1.35 1.3500003 0 0 1 113.50005 140.1501 z M 225.20021 140.1501 A 1.35 1.3500003 0 0 1 226.55 141.49989 A 1.35 1.3500003 0 0 1 225.20021 142.8502 A 1.35 1.3500003 0 0 1 223.8499 141.49989 A 1.35 1.3500003 0 0 1 225.20021 140.1501 z M 363.69976 140.1501 A 1.3500003 1.3500003 0 0 1 365.05007 141.49989 A 1.3500003 1.3500003 0 0 1 363.69976 142.8502 A 1.3500003 1.3500003 0 0 1 362.34998 141.49989 A 1.3500003 1.3500003 0 0 1 363.69976 140.1501 z " />
  </g>
</svg>
