<?xml version="1.0" encoding="UTF-8" standalone="no"?>
<!-- Created with Inkscape (http://www.inkscape.org/) -->

<svg
   width="375mm"
   height="320mm"
   viewBox="0 0 375 320"
   version="1.1"
   id="svg1"
   inkscape:version="1.4 (86a8ad7, 2024-10-11)"
   sodipodi:docname="tkl-bottom.svg"
   xmlns:inkscape="http://www.inkscape.org/namespaces/inkscape"
   xmlns:sodipodi="http://sodipodi.sourceforge.net/DTD/sodipodi-0.dtd"
   xmlns="http://www.w3.org/2000/svg"
   xmlns:svg="http://www.w3.org/2000/svg">
  <sodipodi:namedview
     id="namedview1"
     pagecolor="#505050"
     bordercolor="#eeeeee"
     borderopacity="1"
     inkscape:showpageshadow="0"
     inkscape:pageopacity="0"
     inkscape:pagecheckerboard="0"
     inkscape:deskcolor="#505050"
     inkscape:document-units="mm"
     showgrid="true"
     inkscape:zoom="0.95999871"
     inkscape:cx="488.54232"
     inkscape:cy="123.43767"
     inkscape:window-width="1920"
     inkscape:window-height="1009"
     inkscape:window-x="1912"
     inkscape:window-y="-8"
     inkscape:window-maximized="1"
     inkscape:current-layer="layer2-8"
     showguides="false">
    <inkscape:grid
       id="grid1"
       units="mm"
       originx="0"
       originy="0"
       spacingx="0.99999999"
       spacingy="1"
       empcolor="#0099e5"
       empopacity="0.30196078"
       color="#0099e5"
       opacity="0.14901961"
       empspacing="5"
       dotted="false"
       gridanglex="30"
       gridanglez="30"
       visible="true" />
  </sodipodi:namedview>
  <defs
     id="defs1" />
  <g
     inkscape:groupmode="layer"
     id="layer2-8"
     inkscape:label="Case-TKL"
     style="display:inline"
     transform="translate(0.20000047,-0.2)">
    <path
       id="rect1-5-8"
       style="fill:#808080;fill-opacity:1;stroke:#808080;stroke-width:0.0999998;stroke-opacity:1"
       inkscape:label="wall-outter"
       d="m 12.849816,5.2499999 c -1.662,0 -2.9998166,1.3383336 -2.9998166,3.0003336 V 144.65028 c 0,1.662 1.3378166,2.99982 2.9998166,2.99982 H 366.44994 c 1.662,0 2.99982,-1.33782 2.99982,-2.99982 V 8.2503335 c 0,-1.662 -1.33782,-3.0003336 -2.99982,-3.0003336 H 196.95021 V 26.553093 c 0,1.662 -1.33833,2.999817 -3.00033,2.999817 h -11.90005 c -1.662,0 -2.99982,-1.337817 -2.99982,-2.999817 V 5.2499999 Z m 2.150256,4.1501343 a 1.5,1.5 0 0 1 1.49965,1.5001668 1.5,1.5 0 0 1 -1.49965,1.499651 1.5,1.5 0 0 1 -1.500167,-1.499651 1.5,1.5 0 0 1 1.500167,-1.5001668 z m 98.499938,0 a 1.5,1.5 0 0 1 1.50016,1.5001668 1.5,1.5 0 0 1 -1.50016,1.499651 1.5,1.5 0 0 1 -1.50017,-1.499651 1.5,1.5 0 0 1 1.50017,-1.5001668 z m 151.69978,0 a 1.5,1.5 0 0 1 1.50017,1.5001668 1.5,1.5 0 0 1 -1.50017,1.499651 1.5,1.5 0 0 1 -1.49965,-1.499651 1.5,1.5 0 0 1 1.49965,-1.5001668 z m 99.10041,0 a 1.5,1.5 0 0 1 1.49965,1.5001668 1.5,1.5 0 0 1 -1.49965,1.499651 1.5,1.5 0 0 1 -1.50017,-1.499651 1.5,1.5 0 0 1 1.50017,-1.5001668 z M 15.000072,140.10017 a 1.8000001,1.8000002 0 0 1 1.79989,1.79989 1.8000001,1.8000002 0 0 1 -1.79989,1.79989 1.8000001,1.8000002 0 0 1 -1.79989,-1.79989 1.8000001,1.8000002 0 0 1 1.79989,-1.79989 z m 98.499938,0 a 1.8000001,1.8000002 0 0 1 1.79989,1.79989 1.8000001,1.8000002 0 0 1 -1.79989,1.79989 1.8000001,1.8000002 0 0 1 -1.79989,-1.79989 1.8000001,1.8000002 0 0 1 1.79989,-1.79989 z m 111.70015,0 a 1.8000001,1.8000002 0 0 1 1.79989,1.79989 1.8000001,1.8000002 0 0 1 -1.79989,1.79989 1.8000001,1.8000002 0 0 1 -1.8004,-1.79989 1.8000001,1.8000002 0 0 1 1.8004,-1.79989 z m 139.10004,0 a 1.8000001,1.8000002 0 0 1 1.79989,1.79989 1.8000001,1.8000002 0 0 1 -1.79989,1.79989 1.8000001,1.8000002 0 0 1 -1.80041,-1.79989 1.8000001,1.8000002 0 0 1 1.80041,-1.79989 z" />
  </g>
</svg>
