<?xml version="1.0" encoding="UTF-8" standalone="no"?>
<!-- Created with Inkscape (http://www.inkscape.org/) -->

<svg
   width="375mm"
   height="320mm"
   viewBox="0 0 375 320"
   version="1.1"
   id="svg1"
   inkscape:version="1.3.2 (091e20e, 2023-11-25, custom)"
   sodipodi:docname="tkl-bottom.svg"
   xmlns:inkscape="http://www.inkscape.org/namespaces/inkscape"
   xmlns:sodipodi="http://sodipodi.sourceforge.net/DTD/sodipodi-0.dtd"
   xmlns="http://www.w3.org/2000/svg"
   xmlns:svg="http://www.w3.org/2000/svg">
  <sodipodi:namedview
     id="namedview1"
     pagecolor="#505050"
     bordercolor="#eeeeee"
     borderopacity="1"
     inkscape:showpageshadow="0"
     inkscape:pageopacity="0"
     inkscape:pagecheckerboard="0"
     inkscape:deskcolor="#505050"
     inkscape:document-units="mm"
     showgrid="true"
     inkscape:zoom="0.6788216"
     inkscape:cx="685.01061"
     inkscape:cy="146.57754"
     inkscape:window-width="1920"
     inkscape:window-height="1017"
     inkscape:window-x="-8"
     inkscape:window-y="-8"
     inkscape:window-maximized="1"
     inkscape:current-layer="layer2"
     showguides="false">
    <inkscape:grid
       id="grid1"
       units="mm"
       originx="0"
       originy="0"
       spacingx="0.99999999"
       spacingy="1"
       empcolor="#0099e5"
       empopacity="0.30196078"
       color="#0099e5"
       opacity="0.14901961"
       empspacing="5"
       dotted="false"
       gridanglex="30"
       gridanglez="30"
       visible="true" />
  </sodipodi:namedview>
  <defs
     id="defs1" />
  <g
     inkscape:groupmode="layer"
     id="layer2"
     inkscape:label="Case-TKL"
     style="display:inline">
    <path
       id="rect1-5"
       style="fill:none;fill-opacity:0.248963;stroke:#00ffff;stroke-width:0.0999998;stroke-opacity:1"
       inkscape:label="wall-outter"
       d="m 12.549836,4.8498332 c -1.661991,0 -2.9998176,1.3383489 -2.9998176,3.0003336 V 144.25011 c 0,1.662 1.3378266,2.99982 2.9998176,2.99982 H 366.15017 c 1.662,0 2.99982,-1.33782 2.99982,-2.99982 V 7.8501668 c 0,-1.6619847 -1.33782,-3.0003336 -2.99982,-3.0003336 H 196.95025 V 24.952482 c 0,1.661982 -1.33833,3.000334 -3.00033,3.000334 h -11.90005 c -1.662,0 -2.99982,-1.338352 -2.99982,-3.000334 V 4.8498332 Z m 2.150256,4.2999959 c 0.74562,1.171e-4 1.349956,0.6046842 1.349788,1.3503049 -1.17e-4,0.745419 -0.604369,1.349672 -1.349788,1.349789 -0.745621,1.68e-4 -1.350189,-0.604168 -1.350305,-1.349789 -1.69e-4,-0.7458227 0.604482,-1.3504734 1.350305,-1.3503049 z m 98.799958,0 c 0.74562,1.16e-4 1.34996,0.6046834 1.34979,1.3503049 -1.2e-4,0.74542 -0.60437,1.349673 -1.34979,1.349789 -0.74562,1.71e-4 -1.35019,-0.604166 -1.35031,-1.349789 -1.7e-4,-0.7458246 0.60449,-1.3504762 1.35031,-1.3503049 z m 151.69978,0 c 0.74582,-1.713e-4 1.35048,0.6044803 1.35031,1.3503049 -1.2e-4,0.745623 -0.60469,1.34996 -1.35031,1.349789 -0.74542,-1.16e-4 -1.34967,-0.604369 -1.34979,-1.349789 -1.7e-4,-0.7456215 0.60417,-1.3501889 1.34979,-1.3503049 z m 98.80008,0 c 0.74582,-1.713e-4 1.35047,0.6044803 1.35031,1.3503049 -1.2e-4,0.745623 -0.60469,1.34996 -1.35031,1.349789 -0.74542,-1.21e-4 -1.34967,-0.604373 -1.34978,-1.349789 -1.7e-4,-0.7456176 0.60416,-1.3501834 1.34978,-1.3503049 z M 14.700092,139.7 c 0.994026,6e-5 1.799829,0.80586 1.79989,1.79989 -6.1e-5,0.99403 -0.805864,1.79983 -1.79989,1.79989 -0.994027,-6e-5 -1.79983,-0.80586 -1.79989,-1.79989 6e-5,-0.99403 0.805863,-1.79983 1.79989,-1.79989 z m 98.799958,0 c 0.99403,6e-5 1.79983,0.80586 1.79989,1.79989 -6e-5,0.99403 -0.80586,1.79983 -1.79989,1.79989 -0.99403,-6e-5 -1.79983,-0.80586 -1.79989,-1.79989 6e-5,-0.99403 0.80586,-1.79983 1.79989,-1.79989 z m 111.70016,0 c 0.99403,6e-5 1.79983,0.80586 1.79989,1.79989 -6e-5,0.99403 -0.80586,1.79983 -1.79989,1.79989 -0.99423,2.3e-4 -1.80035,-0.80566 -1.80041,-1.79989 6e-5,-0.99423 0.80618,-1.80012 1.80041,-1.79989 z m 138.7997,0 c 0.99422,-2.3e-4 1.80034,0.80566 1.80041,1.79989 -7e-5,0.99423 -0.80619,1.80012 -1.80041,1.79989 -0.99403,-6e-5 -1.79983,-0.80586 -1.79989,-1.79989 6e-5,-0.99403 0.80586,-1.79983 1.79989,-1.79989 z"
       sodipodi:nodetypes="sssssssscsssscscccccccccccscscssssscccccccccccccccccccc" />
  </g>
</svg>
