<?xml version="1.0" encoding="UTF-8" standalone="no"?>
<!-- Created with Inkscape (http://www.inkscape.org/) -->

<svg
   width="375mm"
   height="320mm"
   viewBox="0 0 375 320"
   version="1.1"
   id="svg1"
   inkscape:version="1.3.2 (091e20e, 2023-11-25, custom)"
   sodipodi:docname="tkl-bottom.svg"
   xmlns:inkscape="http://www.inkscape.org/namespaces/inkscape"
   xmlns:sodipodi="http://sodipodi.sourceforge.net/DTD/sodipodi-0.dtd"
   xmlns="http://www.w3.org/2000/svg"
   xmlns:svg="http://www.w3.org/2000/svg">
  <sodipodi:namedview
     id="namedview1"
     pagecolor="#505050"
     bordercolor="#eeeeee"
     borderopacity="1"
     inkscape:showpageshadow="0"
     inkscape:pageopacity="0"
     inkscape:pagecheckerboard="0"
     inkscape:deskcolor="#505050"
     inkscape:document-units="mm"
     showgrid="true"
     inkscape:zoom="1.3576432"
     inkscape:cx="711.89542"
     inkscape:cy="78.444761"
     inkscape:window-width="1920"
     inkscape:window-height="1017"
     inkscape:window-x="-8"
     inkscape:window-y="-8"
     inkscape:window-maximized="1"
     inkscape:current-layer="layer2"
     showguides="false">
    <inkscape:grid
       id="grid1"
       units="mm"
       originx="0"
       originy="0"
       spacingx="0.99999999"
       spacingy="1"
       empcolor="#0099e5"
       empopacity="0.30196078"
       color="#0099e5"
       opacity="0.14901961"
       empspacing="5"
       dotted="false"
       gridanglex="30"
       gridanglez="30"
       visible="true" />
  </sodipodi:namedview>
  <defs
     id="defs1" />
  <g
     inkscape:groupmode="layer"
     id="layer2"
     inkscape:label="Case-TKL"
     style="display:inline">
    <path
       id="rect1-5"
       style="fill:none;fill-opacity:0.248963;stroke:#00ffff;stroke-width:0.0999998;stroke-opacity:1"
       inkscape:label="wall-outter"
       d="M 12.849862 4.8498332 C 11.187871 4.8498332 9.8500448 6.1881821 9.8500448 7.8501668 L 9.8500448 144.25011 C 9.8500448 145.91211 11.187871 147.24993 12.849862 147.24993 L 365.85002 147.24993 C 367.51202 147.24993 368.84984 145.91211 368.84984 144.25011 L 368.84984 7.8501668 C 368.84984 6.1881821 367.51202 4.8498332 365.85002 4.8498332 L 196.95025 4.8498332 L 196.95025 24.952482 C 196.95025 26.614464 195.61192 27.952816 193.94992 27.952816 L 182.04987 27.952816 C 180.38787 27.952816 179.05005 26.614464 179.05005 24.952482 L 179.05005 4.8498332 L 12.849862 4.8498332 z M 15.000118 9.1498291 A 1.35 1.3500003 0 0 1 16.349906 10.500134 A 1.35 1.3500003 0 0 1 15.000118 11.849923 A 1.35 1.3500003 0 0 1 13.649813 10.500134 A 1.35 1.3500003 0 0 1 15.000118 9.1498291 z M 113.50005 9.1498291 A 1.35 1.3500003 0 0 1 114.84984 10.500134 A 1.35 1.3500003 0 0 1 113.50005 11.849923 A 1.35 1.3500003 0 0 1 112.14974 10.500134 A 1.35 1.3500003 0 0 1 113.50005 9.1498291 z M 265.19983 9.1498291 A 1.35 1.3500003 0 0 1 266.55014 10.500134 A 1.35 1.3500003 0 0 1 265.19983 11.849923 A 1.35 1.3500003 0 0 1 263.85004 10.500134 A 1.35 1.3500003 0 0 1 265.19983 9.1498291 z M 363.69976 9.1498291 A 1.35 1.3500003 0 0 1 365.05007 10.500134 A 1.35 1.3500003 0 0 1 363.69976 11.849923 A 1.35 1.3500003 0 0 1 362.34998 10.500134 A 1.35 1.3500003 0 0 1 363.69976 9.1498291 z M 15.000118 139.7 A 1.8000001 1.8000002 0 0 1 16.800008 141.49989 A 1.8000001 1.8000002 0 0 1 15.000118 143.29978 A 1.8000001 1.8000002 0 0 1 13.200228 141.49989 A 1.8000001 1.8000002 0 0 1 15.000118 139.7 z M 113.50005 139.7 A 1.8000001 1.8000002 0 0 1 115.29994 141.49989 A 1.8000001 1.8000002 0 0 1 113.50005 143.29978 A 1.8000001 1.8000002 0 0 1 111.70016 141.49989 A 1.8000001 1.8000002 0 0 1 113.50005 139.7 z M 225.20021 139.7 A 1.8000001 1.8000002 0 0 1 227.0001 141.49989 A 1.8000001 1.8000002 0 0 1 225.20021 143.29978 A 1.8000001 1.8000002 0 0 1 223.3998 141.49989 A 1.8000001 1.8000002 0 0 1 225.20021 139.7 z M 363.69976 139.7 A 1.8000001 1.8000002 0 0 1 365.50017 141.49989 A 1.8000001 1.8000002 0 0 1 363.69976 143.29978 A 1.8000001 1.8000002 0 0 1 361.89987 141.49989 A 1.8000001 1.8000002 0 0 1 363.69976 139.7 z " />
  </g>
</svg>
