G04 #@! TF.GenerationSoftware,KiCad,Pcbnew,7.0.10*
G04 #@! TF.CreationDate,2024-03-13T13:30:19+01:00*
G04 #@! TF.ProjectId,bb-pcb-v1,62622d70-6362-42d7-9631-2e6b69636164,rev?*
G04 #@! TF.SameCoordinates,Original*
G04 #@! TF.FileFunction,Soldermask,Bot*
G04 #@! TF.FilePolarity,Negative*
%FSLAX46Y46*%
G04 Gerber Fmt 4.6, Leading zero omitted, Abs format (unit mm)*
G04 Created by KiCad (PCBNEW 7.0.10) date 2024-03-13 13:30:19*
%MOMM*%
%LPD*%
G01*
G04 APERTURE LIST*
G04 Aperture macros list*
%AMRoundRect*
0 Rectangle with rounded corners*
0 $1 Rounding radius*
0 $2 $3 $4 $5 $6 $7 $8 $9 X,Y pos of 4 corners*
0 Add a 4 corners polygon primitive as box body*
4,1,4,$2,$3,$4,$5,$6,$7,$8,$9,$2,$3,0*
0 Add four circle primitives for the rounded corners*
1,1,$1+$1,$2,$3*
1,1,$1+$1,$4,$5*
1,1,$1+$1,$6,$7*
1,1,$1+$1,$8,$9*
0 Add four rect primitives between the rounded corners*
20,1,$1+$1,$2,$3,$4,$5,0*
20,1,$1+$1,$4,$5,$6,$7,0*
20,1,$1+$1,$6,$7,$8,$9,0*
20,1,$1+$1,$8,$9,$2,$3,0*%
G04 Aperture macros list end*
%ADD10C,5.000000*%
%ADD11C,1.750000*%
%ADD12C,3.050000*%
%ADD13C,4.000000*%
%ADD14RoundRect,0.250000X-1.025000X-1.000000X1.025000X-1.000000X1.025000X1.000000X-1.025000X1.000000X0*%
%ADD15C,3.000000*%
%ADD16RoundRect,0.250000X1.025000X1.000000X-1.025000X1.000000X-1.025000X-1.000000X1.025000X-1.000000X0*%
%ADD17C,0.600000*%
%ADD18O,1.700000X1.700000*%
%ADD19R,1.700000X3.500000*%
%ADD20R,1.700000X1.700000*%
%ADD21R,1.600000X1.600000*%
%ADD22O,1.600000X1.600000*%
G04 APERTURE END LIST*
D10*
X334565558Y-92273459D03*
D11*
X333057500Y-28575000D03*
D12*
X334327500Y-26035000D03*
D13*
X338137500Y-28575000D03*
D12*
X340677500Y-23495000D03*
D11*
X343217500Y-28575000D03*
D14*
X331052500Y-26035000D03*
X343979500Y-23495000D03*
D11*
X209232500Y-90487500D03*
D12*
X210502500Y-87947500D03*
D13*
X214312500Y-90487500D03*
D12*
X216852500Y-85407500D03*
D11*
X219392500Y-90487500D03*
D14*
X207227500Y-87947500D03*
X220154500Y-85407500D03*
D11*
X23495000Y-28575000D03*
D12*
X24765000Y-26035000D03*
D13*
X28575000Y-28575000D03*
D12*
X31115000Y-23495000D03*
D11*
X33655000Y-28575000D03*
D14*
X21490000Y-26035000D03*
X34417000Y-23495000D03*
D11*
X137795000Y-52387500D03*
D12*
X139065000Y-49847500D03*
D13*
X142875000Y-52387500D03*
D12*
X145415000Y-47307500D03*
D11*
X147955000Y-52387500D03*
D14*
X135790000Y-49847500D03*
X148717000Y-47307500D03*
D11*
X352107500Y-52387500D03*
D12*
X353377500Y-49847500D03*
D13*
X357187500Y-52387500D03*
D12*
X359727500Y-47307500D03*
D11*
X362267500Y-52387500D03*
D14*
X350102500Y-49847500D03*
X363029500Y-47307500D03*
D11*
X109220000Y-71437500D03*
D12*
X110490000Y-68897500D03*
D13*
X114300000Y-71437500D03*
D12*
X116840000Y-66357500D03*
D11*
X119380000Y-71437500D03*
D14*
X107215000Y-68897500D03*
X120142000Y-66357500D03*
D11*
X61595000Y-52387500D03*
D12*
X62865000Y-49847500D03*
D13*
X66675000Y-52387500D03*
D12*
X69215000Y-47307500D03*
D11*
X71755000Y-52387500D03*
D14*
X59590000Y-49847500D03*
X72517000Y-47307500D03*
D11*
X66357500Y-109537500D03*
D12*
X67627500Y-106997500D03*
D13*
X71437500Y-109537500D03*
D12*
X73977500Y-104457500D03*
D11*
X76517500Y-109537500D03*
D14*
X64352500Y-106997500D03*
X77279500Y-104457500D03*
D13*
X100018750Y-120587500D03*
D15*
X100018750Y-135587500D03*
D11*
X144938750Y-128587500D03*
D12*
X146208750Y-126047500D03*
D13*
X150018750Y-128587500D03*
D12*
X152558750Y-123507500D03*
D11*
X155098750Y-128587500D03*
D13*
X200018750Y-120587500D03*
D15*
X200018750Y-135587500D03*
D14*
X142933750Y-126047500D03*
X155860750Y-123507500D03*
D11*
X261620000Y-128587500D03*
D12*
X262890000Y-126047500D03*
D13*
X266700000Y-128587500D03*
D12*
X269240000Y-123507500D03*
D11*
X271780000Y-128587500D03*
D14*
X259615000Y-126047500D03*
X272542000Y-123507500D03*
D11*
X242570000Y-71437500D03*
D12*
X243840000Y-68897500D03*
D13*
X247650000Y-71437500D03*
D12*
X250190000Y-66357500D03*
D11*
X252730000Y-71437500D03*
D14*
X240565000Y-68897500D03*
X253492000Y-66357500D03*
D15*
X219175000Y-135587500D03*
D13*
X219175000Y-120587500D03*
D11*
X167005000Y-128587500D03*
D12*
X165735000Y-131127500D03*
D13*
X161925000Y-128587500D03*
D12*
X159385000Y-133667500D03*
D11*
X156845000Y-128587500D03*
D15*
X104675000Y-135587500D03*
D13*
X104675000Y-120587500D03*
D16*
X169010000Y-131127500D03*
X156083000Y-133667500D03*
D11*
X285432500Y-71437500D03*
D12*
X286702500Y-68897500D03*
D13*
X290512500Y-71437500D03*
D12*
X293052500Y-66357500D03*
D11*
X295592500Y-71437500D03*
D14*
X283427500Y-68897500D03*
X296354500Y-66357500D03*
D11*
X118745000Y-52387500D03*
D12*
X120015000Y-49847500D03*
D13*
X123825000Y-52387500D03*
D12*
X126365000Y-47307500D03*
D11*
X128905000Y-52387500D03*
D14*
X116740000Y-49847500D03*
X129667000Y-47307500D03*
D17*
X25574676Y-42267167D03*
X26574676Y-42267167D03*
X27574676Y-42267167D03*
X28574676Y-42267167D03*
X29574676Y-42267167D03*
X30574676Y-42267167D03*
X31574676Y-42267167D03*
D15*
X52481250Y-116537500D03*
D13*
X52481250Y-101537500D03*
D11*
X45561250Y-109537500D03*
D12*
X44291250Y-112077500D03*
D13*
X40481250Y-109537500D03*
D12*
X37941250Y-114617500D03*
D11*
X35401250Y-109537500D03*
D15*
X28481250Y-116537500D03*
D13*
X28481250Y-101537500D03*
D16*
X47566250Y-112077500D03*
X34639250Y-114617500D03*
D11*
X314007500Y-52387500D03*
D12*
X315277500Y-49847500D03*
D13*
X319087500Y-52387500D03*
D12*
X321627500Y-47307500D03*
D11*
X324167500Y-52387500D03*
D14*
X312002500Y-49847500D03*
X324929500Y-47307500D03*
D11*
X128270000Y-71437500D03*
D12*
X129540000Y-68897500D03*
D13*
X133350000Y-71437500D03*
D12*
X135890000Y-66357500D03*
D11*
X138430000Y-71437500D03*
D14*
X126265000Y-68897500D03*
X139192000Y-66357500D03*
D11*
X261620000Y-71437500D03*
D12*
X262890000Y-68897500D03*
D13*
X266700000Y-71437500D03*
D12*
X269240000Y-66357500D03*
D11*
X271780000Y-71437500D03*
D14*
X259615000Y-68897500D03*
X272542000Y-66357500D03*
D11*
X25876250Y-128587500D03*
D12*
X27146250Y-126047500D03*
D13*
X30956250Y-128587500D03*
D12*
X33496250Y-123507500D03*
D11*
X36036250Y-128587500D03*
D14*
X23871250Y-126047500D03*
X36798250Y-123507500D03*
D18*
X362584916Y-81637215D03*
D19*
X362584916Y-80737215D03*
D18*
X360044916Y-81637215D03*
D19*
X360044916Y-80737215D03*
D20*
X357504916Y-81637215D03*
D19*
X357504916Y-80737215D03*
D18*
X354964916Y-81637215D03*
D19*
X354964916Y-80737215D03*
D18*
X352424916Y-81637215D03*
D19*
X352424916Y-80737215D03*
D18*
X349884916Y-81637215D03*
D19*
X349884916Y-80737215D03*
D18*
X347344916Y-81637215D03*
D19*
X347344916Y-80737215D03*
D20*
X344804916Y-81637215D03*
D19*
X344804916Y-80737215D03*
D18*
X342264916Y-81637215D03*
D19*
X342264916Y-80737215D03*
D18*
X339724916Y-81637215D03*
D19*
X339724916Y-80737215D03*
D18*
X337184916Y-81637215D03*
D19*
X337184916Y-80737215D03*
D18*
X334644916Y-81637215D03*
D19*
X334644916Y-80737215D03*
D20*
X332104916Y-81637215D03*
D19*
X332104916Y-80737215D03*
D18*
X329564916Y-81637215D03*
D19*
X329564916Y-80737215D03*
D18*
X327024916Y-81637215D03*
D19*
X327024916Y-80737215D03*
D18*
X324484916Y-81637215D03*
D19*
X324484916Y-80737215D03*
D18*
X321944916Y-81637215D03*
D19*
X321944916Y-80737215D03*
D20*
X319404916Y-81637215D03*
D19*
X319404916Y-80737215D03*
D18*
X316864916Y-81637215D03*
D19*
X316864916Y-80737215D03*
D18*
X314324916Y-81637215D03*
D19*
X314324916Y-80737215D03*
D18*
X314324916Y-99417215D03*
D19*
X314324916Y-100317215D03*
D18*
X316864916Y-99417215D03*
D19*
X316864916Y-100317215D03*
D20*
X319404916Y-99417215D03*
D19*
X319404916Y-100317215D03*
D18*
X321944916Y-99417215D03*
D19*
X321944916Y-100317215D03*
D18*
X324484916Y-99417215D03*
D19*
X324484916Y-100317215D03*
D18*
X327024916Y-99417215D03*
D19*
X327024916Y-100317215D03*
D18*
X329564916Y-99417215D03*
D19*
X329564916Y-100317215D03*
D20*
X332104916Y-99417215D03*
D19*
X332104916Y-100317215D03*
D18*
X334644916Y-99417215D03*
D19*
X334644916Y-100317215D03*
D18*
X337184916Y-99417215D03*
D19*
X337184916Y-100317215D03*
D18*
X339724916Y-99417215D03*
D19*
X339724916Y-100317215D03*
D18*
X342264916Y-99417215D03*
D19*
X342264916Y-100317215D03*
D20*
X344804916Y-99417215D03*
D19*
X344804916Y-100317215D03*
D18*
X347344916Y-99417215D03*
D19*
X347344916Y-100317215D03*
D18*
X349884916Y-99417215D03*
D19*
X349884916Y-100317215D03*
D18*
X352424916Y-99417215D03*
D19*
X352424916Y-100317215D03*
D18*
X354964916Y-99417215D03*
D19*
X354964916Y-100317215D03*
D20*
X357504916Y-99417215D03*
D19*
X357504916Y-100317215D03*
D18*
X360044916Y-99417215D03*
D19*
X360044916Y-100317215D03*
D18*
X362584916Y-99417215D03*
D19*
X362584916Y-100317215D03*
D11*
X25876250Y-90487500D03*
D12*
X27146250Y-87947500D03*
D13*
X30956250Y-90487500D03*
D12*
X33496250Y-85407500D03*
D11*
X36036250Y-90487500D03*
D14*
X23871250Y-87947500D03*
X36798250Y-85407500D03*
D11*
X80645000Y-52387500D03*
D12*
X81915000Y-49847500D03*
D13*
X85725000Y-52387500D03*
D12*
X88265000Y-47307500D03*
D11*
X90805000Y-52387500D03*
D14*
X78640000Y-49847500D03*
X91567000Y-47307500D03*
D11*
X271145000Y-28575000D03*
D12*
X272415000Y-26035000D03*
D13*
X276225000Y-28575000D03*
D12*
X278765000Y-23495000D03*
D11*
X281305000Y-28575000D03*
D14*
X269140000Y-26035000D03*
X282067000Y-23495000D03*
D11*
X290195000Y-28575000D03*
D12*
X291465000Y-26035000D03*
D13*
X295275000Y-28575000D03*
D12*
X297815000Y-23495000D03*
D11*
X300355000Y-28575000D03*
D14*
X288190000Y-26035000D03*
X301117000Y-23495000D03*
D11*
X252095000Y-28575000D03*
D12*
X253365000Y-26035000D03*
D13*
X257175000Y-28575000D03*
D12*
X259715000Y-23495000D03*
D11*
X262255000Y-28575000D03*
D14*
X250090000Y-26035000D03*
X263017000Y-23495000D03*
D11*
X38417500Y-128587500D03*
D12*
X37147500Y-131127500D03*
D13*
X33337500Y-128587500D03*
D12*
X30797500Y-133667500D03*
D11*
X28257500Y-128587500D03*
D16*
X40422500Y-131127500D03*
X27495500Y-133667500D03*
D11*
X23495000Y-52387500D03*
D12*
X24765000Y-49847500D03*
D13*
X28575000Y-52387500D03*
D12*
X31115000Y-47307500D03*
D11*
X33655000Y-52387500D03*
D14*
X21490000Y-49847500D03*
X34417000Y-47307500D03*
D11*
X352107500Y-128587500D03*
D12*
X353377500Y-126047500D03*
D13*
X357187500Y-128587500D03*
D12*
X359727500Y-123507500D03*
D11*
X362267500Y-128587500D03*
D14*
X350102500Y-126047500D03*
X363029500Y-123507500D03*
D17*
X254174868Y-42267167D03*
X255174868Y-42267167D03*
X256174868Y-42267167D03*
X257174868Y-42267167D03*
X258174868Y-42267167D03*
X259174868Y-42267167D03*
X260174868Y-42267167D03*
D11*
X228282500Y-90487500D03*
D12*
X229552500Y-87947500D03*
D13*
X233362500Y-90487500D03*
D12*
X235902500Y-85407500D03*
D11*
X238442500Y-90487500D03*
D14*
X226277500Y-87947500D03*
X239204500Y-85407500D03*
D17*
X139874772Y-42267167D03*
X140874772Y-42267167D03*
X141874772Y-42267167D03*
X142874772Y-42267167D03*
X143874772Y-42267167D03*
X144874772Y-42267167D03*
X145874772Y-42267167D03*
D11*
X252095000Y-52387500D03*
D12*
X253365000Y-49847500D03*
D13*
X257175000Y-52387500D03*
D12*
X259715000Y-47307500D03*
D11*
X262255000Y-52387500D03*
D14*
X250090000Y-49847500D03*
X263017000Y-47307500D03*
D11*
X166370000Y-28575000D03*
D12*
X167640000Y-26035000D03*
D13*
X171450000Y-28575000D03*
D12*
X173990000Y-23495000D03*
D11*
X176530000Y-28575000D03*
D14*
X164365000Y-26035000D03*
X177292000Y-23495000D03*
D11*
X352107500Y-71437500D03*
D12*
X353377500Y-68897500D03*
D13*
X357187500Y-71437500D03*
D12*
X359727500Y-66357500D03*
D11*
X362267500Y-71437500D03*
D14*
X350102500Y-68897500D03*
X363029500Y-66357500D03*
D11*
X99695000Y-28575000D03*
D12*
X100965000Y-26035000D03*
D13*
X104775000Y-28575000D03*
D12*
X107315000Y-23495000D03*
D11*
X109855000Y-28575000D03*
D14*
X97690000Y-26035000D03*
X110617000Y-23495000D03*
D11*
X142557500Y-109537500D03*
D12*
X143827500Y-106997500D03*
D13*
X147637500Y-109537500D03*
D12*
X150177500Y-104457500D03*
D11*
X152717500Y-109537500D03*
D14*
X140552500Y-106997500D03*
X153479500Y-104457500D03*
D11*
X333057500Y-128587500D03*
D12*
X334327500Y-126047500D03*
D13*
X338137500Y-128587500D03*
D12*
X340677500Y-123507500D03*
D11*
X343217500Y-128587500D03*
D14*
X331052500Y-126047500D03*
X343979500Y-123507500D03*
D11*
X175895000Y-52387500D03*
D12*
X177165000Y-49847500D03*
D13*
X180975000Y-52387500D03*
D12*
X183515000Y-47307500D03*
D11*
X186055000Y-52387500D03*
D14*
X173890000Y-49847500D03*
X186817000Y-47307500D03*
D11*
X250348750Y-128587500D03*
D12*
X249078750Y-131127500D03*
D13*
X245268750Y-128587500D03*
D12*
X242728750Y-133667500D03*
D11*
X240188750Y-128587500D03*
D16*
X252353750Y-131127500D03*
X239426750Y-133667500D03*
D11*
X185420000Y-28575000D03*
D12*
X186690000Y-26035000D03*
D13*
X190500000Y-28575000D03*
D12*
X193040000Y-23495000D03*
D11*
X195580000Y-28575000D03*
D14*
X183415000Y-26035000D03*
X196342000Y-23495000D03*
D11*
X218757500Y-109537500D03*
D12*
X220027500Y-106997500D03*
D13*
X223837500Y-109537500D03*
D12*
X226377500Y-104457500D03*
D11*
X228917500Y-109537500D03*
D14*
X216752500Y-106997500D03*
X229679500Y-104457500D03*
D11*
X204470000Y-71437500D03*
D12*
X205740000Y-68897500D03*
D13*
X209550000Y-71437500D03*
D12*
X212090000Y-66357500D03*
D11*
X214630000Y-71437500D03*
D14*
X202465000Y-68897500D03*
X215392000Y-66357500D03*
D11*
X61595000Y-28575000D03*
D12*
X62865000Y-26035000D03*
D13*
X66675000Y-28575000D03*
D12*
X69215000Y-23495000D03*
D11*
X71755000Y-28575000D03*
D14*
X59590000Y-26035000D03*
X72517000Y-23495000D03*
D11*
X90170000Y-71437500D03*
D12*
X91440000Y-68897500D03*
D13*
X95250000Y-71437500D03*
D12*
X97790000Y-66357500D03*
D11*
X100330000Y-71437500D03*
D14*
X88165000Y-68897500D03*
X101092000Y-66357500D03*
D15*
X285893750Y-68962500D03*
X285893750Y-92962500D03*
D11*
X287813750Y-80962500D03*
D12*
X289083750Y-78422500D03*
D13*
X292893750Y-80962500D03*
D12*
X295433750Y-75882500D03*
D11*
X297973750Y-80962500D03*
D13*
X300893750Y-68962500D03*
X300893750Y-92962500D03*
D14*
X285808750Y-78422500D03*
X298735750Y-75882500D03*
D13*
X271368750Y-82487500D03*
D15*
X271368750Y-97487500D03*
D11*
X278288750Y-90487500D03*
D12*
X279558750Y-87947500D03*
D13*
X283368750Y-90487500D03*
D12*
X285908750Y-85407500D03*
D11*
X288448750Y-90487500D03*
D13*
X295368750Y-82487500D03*
D15*
X295368750Y-97487500D03*
D14*
X276283750Y-87947500D03*
X289210750Y-85407500D03*
D11*
X133032500Y-90487500D03*
D12*
X134302500Y-87947500D03*
D13*
X138112500Y-90487500D03*
D12*
X140652500Y-85407500D03*
D11*
X143192500Y-90487500D03*
D14*
X131027500Y-87947500D03*
X143954500Y-85407500D03*
D11*
X62230000Y-128587500D03*
D12*
X60960000Y-131127500D03*
D13*
X57150000Y-128587500D03*
D12*
X54610000Y-133667500D03*
D11*
X52070000Y-128587500D03*
D16*
X64235000Y-131127500D03*
X51308000Y-133667500D03*
D11*
X73501250Y-128587500D03*
D12*
X74771250Y-126047500D03*
D13*
X78581250Y-128587500D03*
D12*
X81121250Y-123507500D03*
D11*
X83661250Y-128587500D03*
D14*
X71496250Y-126047500D03*
X84423250Y-123507500D03*
D11*
X297973750Y-128587500D03*
D12*
X296703750Y-131127500D03*
D13*
X292893750Y-128587500D03*
D12*
X290353750Y-133667500D03*
D11*
X287813750Y-128587500D03*
D16*
X299978750Y-131127500D03*
X287051750Y-133667500D03*
D11*
X274161250Y-128587500D03*
D12*
X272891250Y-131127500D03*
D13*
X269081250Y-128587500D03*
D12*
X266541250Y-133667500D03*
D11*
X264001250Y-128587500D03*
D16*
X276166250Y-131127500D03*
X263239250Y-133667500D03*
D11*
X156845000Y-52387500D03*
D12*
X158115000Y-49847500D03*
D13*
X161925000Y-52387500D03*
D12*
X164465000Y-47307500D03*
D11*
X167005000Y-52387500D03*
D14*
X154840000Y-49847500D03*
X167767000Y-47307500D03*
D11*
X300355000Y-52387500D03*
D12*
X299085000Y-54927500D03*
D13*
X295275000Y-52387500D03*
D12*
X292735000Y-57467500D03*
D11*
X290195000Y-52387500D03*
D16*
X302360000Y-54927500D03*
X289433000Y-57467500D03*
D11*
X171132500Y-90487500D03*
D12*
X172402500Y-87947500D03*
D13*
X176212500Y-90487500D03*
D12*
X178752500Y-85407500D03*
D11*
X181292500Y-90487500D03*
D14*
X169127500Y-87947500D03*
X182054500Y-85407500D03*
D11*
X314007500Y-128587500D03*
D12*
X315277500Y-126047500D03*
D13*
X319087500Y-128587500D03*
D12*
X321627500Y-123507500D03*
D11*
X324167500Y-128587500D03*
D14*
X312002500Y-126047500D03*
X324929500Y-123507500D03*
D11*
X185420000Y-71437500D03*
D12*
X186690000Y-68897500D03*
D13*
X190500000Y-71437500D03*
D12*
X193040000Y-66357500D03*
D11*
X195580000Y-71437500D03*
D14*
X183415000Y-68897500D03*
X196342000Y-66357500D03*
D11*
X25876250Y-109537500D03*
D12*
X27146250Y-106997500D03*
D13*
X30956250Y-109537500D03*
D12*
X33496250Y-104457500D03*
D11*
X36036250Y-109537500D03*
D14*
X23871250Y-106997500D03*
X36798250Y-104457500D03*
D11*
X237807500Y-128587500D03*
D12*
X239077500Y-126047500D03*
D13*
X242887500Y-128587500D03*
D12*
X245427500Y-123507500D03*
D11*
X247967500Y-128587500D03*
D14*
X235802500Y-126047500D03*
X248729500Y-123507500D03*
D11*
X333057500Y-109537500D03*
D12*
X334327500Y-106997500D03*
D13*
X338137500Y-109537500D03*
D12*
X340677500Y-104457500D03*
D11*
X343217500Y-109537500D03*
D14*
X331052500Y-106997500D03*
X343979500Y-104457500D03*
D11*
X123507500Y-109537500D03*
D12*
X124777500Y-106997500D03*
D13*
X128587500Y-109537500D03*
D12*
X131127500Y-104457500D03*
D11*
X133667500Y-109537500D03*
D14*
X121502500Y-106997500D03*
X134429500Y-104457500D03*
D11*
X256857500Y-109537500D03*
D12*
X258127500Y-106997500D03*
D13*
X261937500Y-109537500D03*
D12*
X264477500Y-104457500D03*
D11*
X267017500Y-109537500D03*
D14*
X254852500Y-106997500D03*
X267779500Y-104457500D03*
D11*
X290195000Y-109537500D03*
D12*
X291465000Y-106997500D03*
D13*
X295275000Y-109537500D03*
D12*
X297815000Y-104457500D03*
D11*
X300355000Y-109537500D03*
D14*
X288190000Y-106997500D03*
X301117000Y-104457500D03*
D11*
X49688750Y-128587500D03*
D12*
X50958750Y-126047500D03*
D13*
X54768750Y-128587500D03*
D12*
X57308750Y-123507500D03*
D11*
X59848750Y-128587500D03*
D14*
X47683750Y-126047500D03*
X60610750Y-123507500D03*
D11*
X47307500Y-109537500D03*
D12*
X48577500Y-106997500D03*
D13*
X52387500Y-109537500D03*
D12*
X54927500Y-104457500D03*
D11*
X57467500Y-109537500D03*
D14*
X45302500Y-106997500D03*
X58229500Y-104457500D03*
D11*
X216376250Y-128587500D03*
D12*
X217646250Y-126047500D03*
D13*
X221456250Y-128587500D03*
D12*
X223996250Y-123507500D03*
D11*
X226536250Y-128587500D03*
D14*
X214371250Y-126047500D03*
X227298250Y-123507500D03*
D11*
X166370000Y-71437500D03*
D12*
X167640000Y-68897500D03*
D13*
X171450000Y-71437500D03*
D12*
X173990000Y-66357500D03*
D11*
X176530000Y-71437500D03*
D14*
X164365000Y-68897500D03*
X177292000Y-66357500D03*
D17*
X304181160Y-42267167D03*
X305181160Y-42267167D03*
X306181160Y-42267167D03*
X307181160Y-42267167D03*
X308181160Y-42267167D03*
X309181160Y-42267167D03*
X310181160Y-42267167D03*
D11*
X180657500Y-109537500D03*
D12*
X181927500Y-106997500D03*
D13*
X185737500Y-109537500D03*
D12*
X188277500Y-104457500D03*
D11*
X190817500Y-109537500D03*
D14*
X178652500Y-106997500D03*
X191579500Y-104457500D03*
D17*
X63079395Y-42267167D03*
X64079395Y-42267167D03*
X65079395Y-42267167D03*
X66079395Y-42267167D03*
X67079395Y-42267167D03*
X68079395Y-42267167D03*
X69079395Y-42267167D03*
D11*
X86042500Y-128587500D03*
D12*
X84772500Y-131127500D03*
D13*
X80962500Y-128587500D03*
D12*
X78422500Y-133667500D03*
D11*
X75882500Y-128587500D03*
D16*
X88047500Y-131127500D03*
X75120500Y-133667500D03*
D11*
X28257500Y-71437500D03*
D12*
X29527500Y-68897500D03*
D13*
X33337500Y-71437500D03*
D12*
X35877500Y-66357500D03*
D11*
X38417500Y-71437500D03*
D14*
X26252500Y-68897500D03*
X39179500Y-66357500D03*
D11*
X333057500Y-52387500D03*
D12*
X334327500Y-49847500D03*
D13*
X338137500Y-52387500D03*
D12*
X340677500Y-47307500D03*
D11*
X343217500Y-52387500D03*
D14*
X331052500Y-49847500D03*
X343979500Y-47307500D03*
D11*
X71120000Y-71437500D03*
D12*
X72390000Y-68897500D03*
D13*
X76200000Y-71437500D03*
D12*
X78740000Y-66357500D03*
D11*
X81280000Y-71437500D03*
D14*
X69115000Y-68897500D03*
X82042000Y-66357500D03*
D17*
X342281192Y-42267167D03*
X343281192Y-42267167D03*
X344281192Y-42267167D03*
X345281192Y-42267167D03*
X346281192Y-42267167D03*
X347281192Y-42267167D03*
X348281192Y-42267167D03*
D13*
X288225000Y-117537500D03*
D15*
X288225000Y-102537500D03*
D11*
X281305000Y-109537500D03*
D12*
X280035000Y-112077500D03*
D13*
X276225000Y-109537500D03*
D12*
X273685000Y-114617500D03*
D11*
X271145000Y-109537500D03*
D13*
X264225000Y-117537500D03*
D15*
X264225000Y-102537500D03*
D16*
X283310000Y-112077500D03*
X270383000Y-114617500D03*
D17*
X177974804Y-42267167D03*
X178974804Y-42267167D03*
X179974804Y-42267167D03*
X180974804Y-42267167D03*
X181974804Y-42267167D03*
X182974804Y-42267167D03*
X183974804Y-42267167D03*
D11*
X352107500Y-28575000D03*
D12*
X353377500Y-26035000D03*
D13*
X357187500Y-28575000D03*
D12*
X359727500Y-23495000D03*
D11*
X362267500Y-28575000D03*
D14*
X350102500Y-26035000D03*
X363029500Y-23495000D03*
D11*
X213995000Y-52387500D03*
D12*
X215265000Y-49847500D03*
D13*
X219075000Y-52387500D03*
D12*
X221615000Y-47307500D03*
D11*
X224155000Y-52387500D03*
D14*
X211990000Y-49847500D03*
X224917000Y-47307500D03*
D11*
X85407500Y-109537500D03*
D12*
X86677500Y-106997500D03*
D13*
X90487500Y-109537500D03*
D12*
X93027500Y-104457500D03*
D11*
X95567500Y-109537500D03*
D14*
X83402500Y-106997500D03*
X96329500Y-104457500D03*
D11*
X118745000Y-28575000D03*
D12*
X120015000Y-26035000D03*
D13*
X123825000Y-28575000D03*
D12*
X126365000Y-23495000D03*
D11*
X128905000Y-28575000D03*
D14*
X116740000Y-26035000D03*
X129667000Y-23495000D03*
D11*
X147320000Y-71437500D03*
D12*
X148590000Y-68897500D03*
D13*
X152400000Y-71437500D03*
D12*
X154940000Y-66357500D03*
D11*
X157480000Y-71437500D03*
D14*
X145315000Y-68897500D03*
X158242000Y-66357500D03*
D11*
X247332500Y-90487500D03*
D12*
X248602500Y-87947500D03*
D13*
X252412500Y-90487500D03*
D12*
X254952500Y-85407500D03*
D11*
X257492500Y-90487500D03*
D14*
X245327500Y-87947500D03*
X258254500Y-85407500D03*
D11*
X147320000Y-28575000D03*
D12*
X148590000Y-26035000D03*
D13*
X152400000Y-28575000D03*
D12*
X154940000Y-23495000D03*
D11*
X157480000Y-28575000D03*
D14*
X145315000Y-26035000D03*
X158242000Y-23495000D03*
D11*
X333057500Y-71437500D03*
D12*
X334327500Y-68897500D03*
D13*
X338137500Y-71437500D03*
D12*
X340677500Y-66357500D03*
D11*
X343217500Y-71437500D03*
D14*
X331052500Y-68897500D03*
X343979500Y-66357500D03*
D11*
X40798750Y-90487500D03*
D12*
X39528750Y-93027500D03*
D13*
X35718750Y-90487500D03*
D12*
X33178750Y-95567500D03*
D11*
X30638750Y-90487500D03*
D16*
X42803750Y-93027500D03*
X29876750Y-95567500D03*
D11*
X223520000Y-71437500D03*
D12*
X224790000Y-68897500D03*
D13*
X228600000Y-71437500D03*
D12*
X231140000Y-66357500D03*
D11*
X233680000Y-71437500D03*
D14*
X221515000Y-68897500D03*
X234442000Y-66357500D03*
D17*
X216074836Y-42267167D03*
X217074836Y-42267167D03*
X218074836Y-42267167D03*
X219074836Y-42267167D03*
X220074836Y-42267167D03*
X221074836Y-42267167D03*
X222074836Y-42267167D03*
D11*
X152082500Y-90487500D03*
D12*
X153352500Y-87947500D03*
D13*
X157162500Y-90487500D03*
D12*
X159702500Y-85407500D03*
D11*
X162242500Y-90487500D03*
D14*
X150077500Y-87947500D03*
X163004500Y-85407500D03*
D11*
X99695000Y-52387500D03*
D12*
X100965000Y-49847500D03*
D13*
X104775000Y-52387500D03*
D12*
X107315000Y-47307500D03*
D11*
X109855000Y-52387500D03*
D14*
X97690000Y-49847500D03*
X110617000Y-47307500D03*
D11*
X190182500Y-90487500D03*
D12*
X191452500Y-87947500D03*
D13*
X195262500Y-90487500D03*
D12*
X197802500Y-85407500D03*
D11*
X200342500Y-90487500D03*
D14*
X188177500Y-87947500D03*
X201104500Y-85407500D03*
D11*
X285432500Y-128587500D03*
D12*
X286702500Y-126047500D03*
D13*
X290512500Y-128587500D03*
D12*
X293052500Y-123507500D03*
D11*
X295592500Y-128587500D03*
D14*
X283427500Y-126047500D03*
X296354500Y-123507500D03*
D11*
X314007500Y-28575000D03*
D12*
X315277500Y-26035000D03*
D13*
X319087500Y-28575000D03*
D12*
X321627500Y-23495000D03*
D11*
X324167500Y-28575000D03*
D14*
X312002500Y-26035000D03*
X324929500Y-23495000D03*
D11*
X56832500Y-90487500D03*
D12*
X58102500Y-87947500D03*
D13*
X61912500Y-90487500D03*
D12*
X64452500Y-85407500D03*
D11*
X66992500Y-90487500D03*
D14*
X54827500Y-87947500D03*
X67754500Y-85407500D03*
D11*
X199707500Y-109537500D03*
D12*
X200977500Y-106997500D03*
D13*
X204787500Y-109537500D03*
D12*
X207327500Y-104457500D03*
D11*
X209867500Y-109537500D03*
D14*
X197702500Y-106997500D03*
X210629500Y-104457500D03*
D11*
X204470000Y-28575000D03*
D12*
X205740000Y-26035000D03*
D13*
X209550000Y-28575000D03*
D12*
X212090000Y-23495000D03*
D11*
X214630000Y-28575000D03*
D14*
X202465000Y-26035000D03*
X215392000Y-23495000D03*
D11*
X233045000Y-52387500D03*
D12*
X234315000Y-49847500D03*
D13*
X238125000Y-52387500D03*
D12*
X240665000Y-47307500D03*
D11*
X243205000Y-52387500D03*
D14*
X231040000Y-49847500D03*
X243967000Y-47307500D03*
D11*
X237807500Y-109537500D03*
D12*
X239077500Y-106997500D03*
D13*
X242887500Y-109537500D03*
D12*
X245427500Y-104457500D03*
D11*
X247967500Y-109537500D03*
D14*
X235802500Y-106997500D03*
X248729500Y-104457500D03*
D11*
X276542500Y-90487500D03*
D12*
X275272500Y-93027500D03*
D13*
X271462500Y-90487500D03*
D12*
X268922500Y-95567500D03*
D11*
X266382500Y-90487500D03*
D16*
X278547500Y-93027500D03*
X265620500Y-95567500D03*
D11*
X194945000Y-52387500D03*
D12*
X196215000Y-49847500D03*
D13*
X200025000Y-52387500D03*
D12*
X202565000Y-47307500D03*
D11*
X205105000Y-52387500D03*
D14*
X192940000Y-49847500D03*
X205867000Y-47307500D03*
D11*
X314007500Y-71437500D03*
D12*
X315277500Y-68897500D03*
D13*
X319087500Y-71437500D03*
D12*
X321627500Y-66357500D03*
D11*
X324167500Y-71437500D03*
D14*
X312002500Y-68897500D03*
X324929500Y-66357500D03*
D11*
X75882500Y-90487500D03*
D12*
X77152500Y-87947500D03*
D13*
X80962500Y-90487500D03*
D12*
X83502500Y-85407500D03*
D11*
X86042500Y-90487500D03*
D14*
X73877500Y-87947500D03*
X86804500Y-85407500D03*
D11*
X52070000Y-71437500D03*
D12*
X53340000Y-68897500D03*
D13*
X57150000Y-71437500D03*
D12*
X59690000Y-66357500D03*
D11*
X62230000Y-71437500D03*
D14*
X50065000Y-68897500D03*
X62992000Y-66357500D03*
D11*
X233045000Y-28575000D03*
D12*
X234315000Y-26035000D03*
D13*
X238125000Y-28575000D03*
D12*
X240665000Y-23495000D03*
D11*
X243205000Y-28575000D03*
D14*
X231040000Y-26035000D03*
X243967000Y-23495000D03*
D11*
X80645000Y-28575000D03*
D12*
X81915000Y-26035000D03*
D13*
X85725000Y-28575000D03*
D12*
X88265000Y-23495000D03*
D11*
X90805000Y-28575000D03*
D14*
X78640000Y-26035000D03*
X91567000Y-23495000D03*
D15*
X273750000Y-45387500D03*
D13*
X273750000Y-60387500D03*
D11*
X280670000Y-52387500D03*
D12*
X281940000Y-49847500D03*
D13*
X285750000Y-52387500D03*
D12*
X288290000Y-47307500D03*
D11*
X290830000Y-52387500D03*
D15*
X297750000Y-45387500D03*
D13*
X297750000Y-60387500D03*
D14*
X278665000Y-49847500D03*
X291592000Y-47307500D03*
D11*
X113982500Y-90487500D03*
D12*
X115252500Y-87947500D03*
D13*
X119062500Y-90487500D03*
D12*
X121602500Y-85407500D03*
D11*
X124142500Y-90487500D03*
D14*
X111977500Y-87947500D03*
X124904500Y-85407500D03*
D11*
X281305000Y-52387500D03*
D12*
X280035000Y-54927500D03*
D13*
X276225000Y-52387500D03*
D12*
X273685000Y-57467500D03*
D11*
X271145000Y-52387500D03*
D16*
X283310000Y-54927500D03*
X270383000Y-57467500D03*
D11*
X161607500Y-109537500D03*
D12*
X162877500Y-106997500D03*
D13*
X166687500Y-109537500D03*
D12*
X169227500Y-104457500D03*
D11*
X171767500Y-109537500D03*
D14*
X159602500Y-106997500D03*
X172529500Y-104457500D03*
D17*
X101774740Y-42267167D03*
X102774740Y-42267167D03*
X103774740Y-42267167D03*
X104774740Y-42267167D03*
X105774740Y-42267167D03*
X106774740Y-42267167D03*
X107774740Y-42267167D03*
D11*
X94932500Y-90487500D03*
D12*
X96202500Y-87947500D03*
D13*
X100012500Y-90487500D03*
D12*
X102552500Y-85407500D03*
D11*
X105092500Y-90487500D03*
D14*
X92927500Y-87947500D03*
X105854500Y-85407500D03*
D11*
X104457500Y-109537500D03*
D12*
X105727500Y-106997500D03*
D13*
X109537500Y-109537500D03*
D12*
X112077500Y-104457500D03*
D11*
X114617500Y-109537500D03*
D14*
X102452500Y-106997500D03*
X115379500Y-104457500D03*
D11*
X42545000Y-52387500D03*
D12*
X43815000Y-49847500D03*
D13*
X47625000Y-52387500D03*
D12*
X50165000Y-47307500D03*
D11*
X52705000Y-52387500D03*
D14*
X40540000Y-49847500D03*
X53467000Y-47307500D03*
D21*
X269081250Y-29289375D03*
D22*
X269081250Y-36909375D03*
D21*
X211931250Y-53101875D03*
D22*
X211931250Y-60721875D03*
D21*
X173831250Y-53101875D03*
D22*
X173831250Y-60721875D03*
D21*
X214312500Y-129301875D03*
D22*
X214312500Y-136921875D03*
D21*
X282178125Y-72151875D03*
D22*
X282178125Y-79771875D03*
D21*
X116681250Y-53101875D03*
D22*
X116681250Y-60721875D03*
D21*
X121443750Y-110251875D03*
D22*
X121443750Y-117871875D03*
D21*
X207168750Y-91201875D03*
D22*
X207168750Y-98821875D03*
D21*
X116681250Y-29289375D03*
D22*
X116681250Y-36909375D03*
D21*
X83343750Y-110251875D03*
D22*
X83343750Y-117871875D03*
D21*
X169068750Y-91201875D03*
D22*
X169068750Y-98821875D03*
D21*
X97631250Y-53101875D03*
D22*
X97631250Y-60721875D03*
D21*
X221456250Y-72151875D03*
D22*
X221456250Y-79771875D03*
D21*
X226218750Y-91201875D03*
D22*
X226218750Y-98821875D03*
D21*
X150018750Y-91201875D03*
D22*
X150018750Y-98821875D03*
D21*
X40481250Y-53101875D03*
D22*
X40481250Y-60721875D03*
D21*
X312261250Y-129301875D03*
D22*
X312261250Y-136921875D03*
D21*
X92868750Y-91201875D03*
D22*
X92868750Y-98821875D03*
D21*
X202406250Y-72151875D03*
D22*
X202406250Y-79771875D03*
D21*
X250031250Y-53101875D03*
D22*
X250031250Y-60721875D03*
D21*
X259556250Y-72151875D03*
D22*
X259556250Y-79771875D03*
D21*
X73818750Y-91201875D03*
D22*
X73818750Y-98821875D03*
D21*
X331311250Y-29289375D03*
D22*
X331311250Y-36909375D03*
D21*
X64293750Y-110251875D03*
D22*
X64293750Y-117871875D03*
D21*
X26193750Y-72151875D03*
D22*
X26193750Y-79771875D03*
D21*
X266700000Y-53101875D03*
D22*
X266700000Y-60721875D03*
D21*
X259556250Y-129301875D03*
D22*
X259556250Y-136921875D03*
D21*
X331311250Y-53101875D03*
D22*
X331311250Y-60721875D03*
D21*
X102393750Y-110251875D03*
D22*
X102393750Y-117871875D03*
D21*
X154781250Y-53101875D03*
D22*
X154781250Y-60721875D03*
D21*
X50006250Y-72151875D03*
D22*
X50006250Y-79771875D03*
D21*
X111918750Y-91201875D03*
D22*
X111918750Y-98821875D03*
D21*
X97631250Y-29289375D03*
D22*
X97631250Y-36909375D03*
D21*
X254793750Y-110251875D03*
D22*
X254793750Y-117871875D03*
D21*
X240506250Y-72151875D03*
D22*
X240506250Y-79771875D03*
D21*
X350361250Y-29289375D03*
D22*
X350361250Y-36909375D03*
D21*
X47625000Y-129301875D03*
D22*
X47625000Y-136921875D03*
D21*
X130968750Y-91201875D03*
D22*
X130968750Y-98821875D03*
D21*
X230981250Y-53101875D03*
D22*
X230981250Y-60721875D03*
D21*
X142875000Y-129301875D03*
D22*
X142875000Y-136921875D03*
D21*
X178593750Y-110251875D03*
D22*
X178593750Y-117871875D03*
D21*
X183356250Y-72151875D03*
D22*
X183356250Y-79771875D03*
D21*
X197643750Y-110251875D03*
D22*
X197643750Y-117871875D03*
D21*
X328612500Y-69770625D03*
D22*
X328612500Y-77390625D03*
D21*
X159543750Y-110251875D03*
D22*
X159543750Y-117871875D03*
D21*
X59531250Y-29289375D03*
D22*
X59531250Y-36909375D03*
D21*
X135731250Y-53101875D03*
D22*
X135731250Y-60721875D03*
D21*
X192881250Y-53101875D03*
D22*
X192881250Y-60721875D03*
D21*
X245268750Y-91201875D03*
D22*
X245268750Y-98821875D03*
D21*
X140493750Y-110251875D03*
D22*
X140493750Y-117871875D03*
D21*
X20741414Y-110223185D03*
D22*
X20741414Y-117843185D03*
D21*
X59531250Y-53101875D03*
D22*
X59531250Y-60721875D03*
D21*
X309562500Y-69770625D03*
D22*
X309562500Y-77390625D03*
D21*
X347662500Y-69770625D03*
D22*
X347662500Y-77390625D03*
D21*
X69056250Y-72151875D03*
D22*
X69056250Y-79771875D03*
D21*
X235743750Y-129301875D03*
D22*
X235743750Y-136921875D03*
D21*
X23812500Y-110251875D03*
D22*
X23812500Y-117871875D03*
D21*
X312261250Y-53101875D03*
D22*
X312261250Y-60721875D03*
D21*
X126206250Y-72151875D03*
D22*
X126206250Y-79771875D03*
D21*
X164306250Y-72151875D03*
D22*
X164306250Y-79771875D03*
D21*
X164306250Y-29289375D03*
D22*
X164306250Y-36909375D03*
D21*
X202406250Y-29289375D03*
D22*
X202406250Y-36909375D03*
D21*
X107156250Y-72151875D03*
D22*
X107156250Y-79771875D03*
D21*
X21431250Y-29289375D03*
D22*
X21431250Y-36909375D03*
D21*
X250031250Y-29289375D03*
D22*
X250031250Y-36909375D03*
D21*
X188118750Y-91201875D03*
D22*
X188118750Y-98821875D03*
D21*
X78581250Y-29289375D03*
D22*
X78581250Y-36909375D03*
D21*
X283368750Y-129301875D03*
D22*
X283368750Y-136921875D03*
D21*
X145256250Y-72151875D03*
D22*
X145256250Y-79771875D03*
D21*
X312261250Y-29289375D03*
D22*
X312261250Y-36909375D03*
D21*
X350361250Y-53101875D03*
D22*
X350361250Y-60721875D03*
D21*
X331311250Y-129301875D03*
D22*
X331311250Y-136921875D03*
D21*
X23812500Y-129301875D03*
D22*
X23812500Y-136921875D03*
D21*
X88106250Y-72151875D03*
D22*
X88106250Y-79771875D03*
D21*
X230981250Y-29289375D03*
D22*
X230981250Y-36909375D03*
D21*
X350361250Y-129301875D03*
D22*
X350361250Y-136921875D03*
D21*
X78581250Y-53101875D03*
D22*
X78581250Y-60721875D03*
D21*
X71437500Y-129301875D03*
D22*
X71437500Y-136921875D03*
D21*
X145256250Y-29289375D03*
D22*
X145256250Y-36909375D03*
D21*
X54768750Y-91201875D03*
D22*
X54768750Y-98821875D03*
D21*
X21431250Y-53101875D03*
D22*
X21431250Y-60721875D03*
D21*
X288131250Y-29289375D03*
D22*
X288131250Y-36909375D03*
D21*
X288131144Y-44053106D03*
D22*
X280511144Y-44053106D03*
D21*
X216693750Y-110251875D03*
D22*
X216693750Y-117871875D03*
D21*
X331311250Y-110251875D03*
D22*
X331311250Y-117871875D03*
D21*
X285154579Y-107870666D03*
D22*
X285154579Y-115490666D03*
D21*
X183356250Y-29289375D03*
D22*
X183356250Y-36909375D03*
D21*
X264318750Y-91201875D03*
D22*
X264318750Y-98821875D03*
D21*
X23812500Y-91201875D03*
D22*
X23812500Y-98821875D03*
D21*
X235743750Y-110251875D03*
D22*
X235743750Y-117871875D03*
M02*
