M48
; DRILL file {KiCad 7.0.10} date Wed Mar 13 13:31:18 2024
; FORMAT={-:-/ absolute / metric / decimal}
; #@! TF.CreationDate,2024-03-13T13:31:18+01:00
; #@! TF.GenerationSoftware,Kicad,Pcbnew,7.0.10
; #@! TF.FileFunction,NonPlated,1,2,NPTH
FMAT,2
METRIC
; #@! TA.AperFunction,NonPlated,NPTH,ComponentDrill
T1C0.600
; #@! TA.AperFunction,NonPlated,NPTH,ComponentDrill
T2C1.750
; #@! TA.AperFunction,NonPlated,NPTH,ComponentDrill
T3C3.050
; #@! TA.AperFunction,NonPlated,NPTH,ComponentDrill
T4C4.000
; #@! TA.AperFunction,NonPlated,NPTH,ComponentDrill
T5C5.000
%
G90
G05
T1
X25.575Y-42.267
X26.575Y-42.267
X27.575Y-42.267
X28.575Y-42.267
X29.575Y-42.267
X30.575Y-42.267
X31.575Y-42.267
X63.079Y-42.267
X64.079Y-42.267
X65.079Y-42.267
X66.079Y-42.267
X67.079Y-42.267
X68.079Y-42.267
X69.079Y-42.267
X101.775Y-42.267
X102.775Y-42.267
X103.775Y-42.267
X104.775Y-42.267
X105.775Y-42.267
X106.775Y-42.267
X107.775Y-42.267
X139.875Y-42.267
X140.875Y-42.267
X141.875Y-42.267
X142.875Y-42.267
X143.875Y-42.267
X144.875Y-42.267
X145.875Y-42.267
X177.975Y-42.267
X178.975Y-42.267
X179.975Y-42.267
X180.975Y-42.267
X181.975Y-42.267
X182.975Y-42.267
X183.975Y-42.267
X216.075Y-42.267
X217.075Y-42.267
X218.075Y-42.267
X219.075Y-42.267
X220.075Y-42.267
X221.075Y-42.267
X222.075Y-42.267
X254.175Y-42.267
X255.175Y-42.267
X256.175Y-42.267
X257.175Y-42.267
X258.175Y-42.267
X259.175Y-42.267
X260.175Y-42.267
X304.181Y-42.267
X305.181Y-42.267
X306.181Y-42.267
X307.181Y-42.267
X308.181Y-42.267
X309.181Y-42.267
X310.181Y-42.267
X342.281Y-42.267
X343.281Y-42.267
X344.281Y-42.267
X345.281Y-42.267
X346.281Y-42.267
X347.281Y-42.267
X348.281Y-42.267
T2
X23.495Y-28.575
X23.495Y-52.387
X25.876Y-90.487
X25.876Y-109.537
X25.876Y-128.588
X28.258Y-71.438
X28.258Y-128.588
X30.639Y-90.487
X33.655Y-28.575
X33.655Y-52.387
X35.401Y-109.537
X36.036Y-90.487
X36.036Y-109.537
X36.036Y-128.588
X38.417Y-71.438
X38.417Y-128.588
X40.799Y-90.487
X42.545Y-52.387
X45.561Y-109.537
X47.307Y-109.537
X49.689Y-128.588
X52.07Y-71.438
X52.07Y-128.588
X52.705Y-52.387
X56.832Y-90.487
X57.467Y-109.537
X59.849Y-128.588
X61.595Y-28.575
X61.595Y-52.387
X62.23Y-71.438
X62.23Y-128.588
X66.358Y-109.537
X66.992Y-90.487
X71.12Y-71.438
X71.755Y-28.575
X71.755Y-52.387
X73.501Y-128.588
X75.882Y-90.487
X75.882Y-128.588
X76.517Y-109.537
X80.645Y-28.575
X80.645Y-52.387
X81.28Y-71.438
X83.661Y-128.588
X85.407Y-109.537
X86.042Y-90.487
X86.042Y-128.588
X90.17Y-71.438
X90.805Y-28.575
X90.805Y-52.387
X94.932Y-90.487
X95.567Y-109.537
X99.695Y-28.575
X99.695Y-52.387
X100.33Y-71.438
X104.457Y-109.537
X105.093Y-90.487
X109.22Y-71.438
X109.855Y-28.575
X109.855Y-52.387
X113.983Y-90.487
X114.617Y-109.537
X118.745Y-28.575
X118.745Y-52.387
X119.38Y-71.438
X123.507Y-109.537
X124.142Y-90.487
X128.27Y-71.438
X128.905Y-28.575
X128.905Y-52.387
X133.032Y-90.487
X133.667Y-109.537
X137.795Y-52.387
X138.43Y-71.438
X142.558Y-109.537
X143.192Y-90.487
X144.939Y-128.588
X147.32Y-28.575
X147.32Y-71.438
X147.955Y-52.387
X152.082Y-90.487
X152.718Y-109.537
X155.099Y-128.588
X156.845Y-52.387
X156.845Y-128.588
X157.48Y-28.575
X157.48Y-71.438
X161.607Y-109.537
X162.243Y-90.487
X166.37Y-28.575
X166.37Y-71.438
X167.005Y-52.387
X167.005Y-128.588
X171.132Y-90.487
X171.767Y-109.537
X175.895Y-52.387
X176.53Y-28.575
X176.53Y-71.438
X180.657Y-109.537
X181.292Y-90.487
X185.42Y-28.575
X185.42Y-71.438
X186.055Y-52.387
X190.183Y-90.487
X190.817Y-109.537
X194.945Y-52.387
X195.58Y-28.575
X195.58Y-71.438
X199.707Y-109.537
X200.343Y-90.487
X204.47Y-28.575
X204.47Y-71.438
X205.105Y-52.387
X209.232Y-90.487
X209.867Y-109.537
X213.995Y-52.387
X214.63Y-28.575
X214.63Y-71.438
X216.376Y-128.588
X218.757Y-109.537
X219.392Y-90.487
X223.52Y-71.438
X224.155Y-52.387
X226.536Y-128.588
X228.282Y-90.487
X228.917Y-109.537
X233.045Y-28.575
X233.045Y-52.387
X233.68Y-71.438
X237.807Y-109.537
X237.807Y-128.588
X238.442Y-90.487
X240.189Y-128.588
X242.57Y-71.438
X243.205Y-28.575
X243.205Y-52.387
X247.332Y-90.487
X247.968Y-109.537
X247.968Y-128.588
X250.349Y-128.588
X252.095Y-28.575
X252.095Y-52.387
X252.73Y-71.438
X256.858Y-109.537
X257.493Y-90.487
X261.62Y-71.438
X261.62Y-128.588
X262.255Y-28.575
X262.255Y-52.387
X264.001Y-128.588
X266.382Y-90.487
X267.017Y-109.537
X271.145Y-28.575
X271.145Y-52.387
X271.145Y-109.537
X271.78Y-71.438
X271.78Y-128.588
X274.161Y-128.588
X276.542Y-90.487
X278.289Y-90.487
X280.67Y-52.387
X281.305Y-28.575
X281.305Y-52.387
X281.305Y-109.537
X285.433Y-71.438
X285.433Y-128.588
X287.814Y-80.962
X287.814Y-128.588
X288.449Y-90.487
X290.195Y-28.575
X290.195Y-52.387
X290.195Y-109.537
X290.83Y-52.387
X295.592Y-71.438
X295.592Y-128.588
X297.974Y-80.962
X297.974Y-128.588
X300.355Y-28.575
X300.355Y-52.387
X300.355Y-109.537
X314.007Y-28.575
X314.007Y-52.387
X314.007Y-71.438
X314.007Y-128.588
X324.167Y-28.575
X324.167Y-52.387
X324.167Y-71.438
X324.167Y-128.588
X333.058Y-28.575
X333.058Y-52.387
X333.058Y-71.438
X333.058Y-109.537
X333.058Y-128.588
X343.217Y-28.575
X343.217Y-52.387
X343.217Y-71.438
X343.217Y-109.537
X343.217Y-128.588
X352.107Y-28.575
X352.107Y-52.387
X352.107Y-71.438
X352.107Y-128.588
X362.267Y-28.575
X362.267Y-52.387
X362.267Y-71.438
X362.267Y-128.588
T3
X24.765Y-26.035
X24.765Y-49.847
X27.146Y-87.947
X27.146Y-106.997
X27.146Y-126.047
X28.481Y-116.537
X29.527Y-68.897
X30.797Y-133.667
X31.115Y-23.495
X31.115Y-47.307
X33.179Y-95.567
X33.496Y-85.407
X33.496Y-104.457
X33.496Y-123.507
X35.877Y-66.358
X37.148Y-131.127
X37.941Y-114.617
X39.529Y-93.027
X43.815Y-49.847
X44.291Y-112.078
X48.578Y-106.997
X50.165Y-47.307
X50.959Y-126.047
X52.481Y-116.537
X53.34Y-68.897
X54.61Y-133.667
X54.927Y-104.457
X57.309Y-123.507
X58.102Y-87.947
X59.69Y-66.358
X60.96Y-131.127
X62.865Y-26.035
X62.865Y-49.847
X64.453Y-85.407
X67.627Y-106.997
X69.215Y-23.495
X69.215Y-47.307
X72.39Y-68.897
X73.977Y-104.457
X74.771Y-126.047
X77.153Y-87.947
X78.422Y-133.667
X78.74Y-66.358
X81.121Y-123.507
X81.915Y-26.035
X81.915Y-49.847
X83.502Y-85.407
X84.772Y-131.127
X86.677Y-106.997
X88.265Y-23.495
X88.265Y-47.307
X91.44Y-68.897
X93.027Y-104.457
X96.203Y-87.947
X97.79Y-66.358
X100.019Y-135.588
X100.965Y-26.035
X100.965Y-49.847
X102.552Y-85.407
X104.675Y-135.588
X105.727Y-106.997
X107.315Y-23.495
X107.315Y-47.307
X110.49Y-68.897
X112.078Y-104.457
X115.252Y-87.947
X116.84Y-66.358
X120.015Y-26.035
X120.015Y-49.847
X121.602Y-85.407
X124.777Y-106.997
X126.365Y-23.495
X126.365Y-47.307
X129.54Y-68.897
X131.127Y-104.457
X134.302Y-87.947
X135.89Y-66.358
X139.065Y-49.847
X140.653Y-85.407
X143.827Y-106.997
X145.415Y-47.307
X146.209Y-126.047
X148.59Y-26.035
X148.59Y-68.897
X150.177Y-104.457
X152.559Y-123.507
X153.352Y-87.947
X154.94Y-23.495
X154.94Y-66.358
X158.115Y-49.847
X159.385Y-133.667
X159.702Y-85.407
X162.877Y-106.997
X164.465Y-47.307
X165.735Y-131.127
X167.64Y-26.035
X167.64Y-68.897
X169.227Y-104.457
X172.403Y-87.947
X173.99Y-23.495
X173.99Y-66.358
X177.165Y-49.847
X178.752Y-85.407
X181.927Y-106.997
X183.515Y-47.307
X186.69Y-26.035
X186.69Y-68.897
X188.278Y-104.457
X191.452Y-87.947
X193.04Y-23.495
X193.04Y-66.358
X196.215Y-49.847
X197.802Y-85.407
X200.019Y-135.588
X200.977Y-106.997
X202.565Y-47.307
X205.74Y-26.035
X205.74Y-68.897
X207.327Y-104.457
X210.502Y-87.947
X212.09Y-23.495
X212.09Y-66.358
X215.265Y-49.847
X216.852Y-85.407
X217.646Y-126.047
X219.175Y-135.588
X220.028Y-106.997
X221.615Y-47.307
X223.996Y-123.507
X224.79Y-68.897
X226.377Y-104.457
X229.552Y-87.947
X231.14Y-66.358
X234.315Y-26.035
X234.315Y-49.847
X235.903Y-85.407
X239.077Y-106.997
X239.077Y-126.047
X240.665Y-23.495
X240.665Y-47.307
X242.729Y-133.667
X243.84Y-68.897
X245.427Y-104.457
X245.427Y-123.507
X248.602Y-87.947
X249.079Y-131.127
X250.19Y-66.358
X253.365Y-26.035
X253.365Y-49.847
X254.952Y-85.407
X258.127Y-106.997
X259.715Y-23.495
X259.715Y-47.307
X262.89Y-68.897
X262.89Y-126.047
X264.225Y-102.537
X264.477Y-104.457
X266.541Y-133.667
X268.923Y-95.567
X269.24Y-66.358
X269.24Y-123.507
X271.369Y-97.487
X272.415Y-26.035
X272.891Y-131.127
X273.685Y-57.467
X273.685Y-114.617
X273.75Y-45.387
X275.272Y-93.027
X278.765Y-23.495
X279.559Y-87.947
X280.035Y-54.927
X280.035Y-112.078
X281.94Y-49.847
X285.894Y-68.962
X285.894Y-92.962
X285.909Y-85.407
X286.702Y-68.897
X286.702Y-126.047
X288.225Y-102.537
X288.29Y-47.307
X289.084Y-78.422
X290.354Y-133.667
X291.465Y-26.035
X291.465Y-106.997
X292.735Y-57.467
X293.053Y-66.358
X293.053Y-123.507
X295.369Y-97.487
X295.434Y-75.882
X296.704Y-131.127
X297.75Y-45.387
X297.815Y-23.495
X297.815Y-104.457
X299.085Y-54.927
X315.277Y-26.035
X315.277Y-49.847
X315.277Y-68.897
X315.277Y-126.047
X321.627Y-23.495
X321.627Y-47.307
X321.627Y-66.358
X321.627Y-123.507
X334.327Y-26.035
X334.327Y-49.847
X334.327Y-68.897
X334.327Y-106.997
X334.327Y-126.047
X340.678Y-23.495
X340.678Y-47.307
X340.678Y-66.358
X340.678Y-104.457
X340.678Y-123.507
X353.377Y-26.035
X353.377Y-49.847
X353.377Y-68.897
X353.377Y-126.047
X359.727Y-23.495
X359.727Y-47.307
X359.727Y-66.358
X359.727Y-123.507
T4
X28.481Y-101.537
X28.575Y-28.575
X28.575Y-52.387
X30.956Y-90.487
X30.956Y-109.537
X30.956Y-128.588
X33.337Y-71.438
X33.337Y-128.588
X35.719Y-90.487
X40.481Y-109.537
X47.625Y-52.387
X52.387Y-109.537
X52.481Y-101.537
X54.769Y-128.588
X57.15Y-71.438
X57.15Y-128.588
X61.912Y-90.487
X66.675Y-28.575
X66.675Y-52.387
X71.438Y-109.537
X76.2Y-71.438
X78.581Y-128.588
X80.962Y-90.487
X80.962Y-128.588
X85.725Y-28.575
X85.725Y-52.387
X90.487Y-109.537
X95.25Y-71.438
X100.012Y-90.487
X100.019Y-120.587
X104.675Y-120.587
X104.775Y-28.575
X104.775Y-52.387
X109.537Y-109.537
X114.3Y-71.438
X119.062Y-90.487
X123.825Y-28.575
X123.825Y-52.387
X128.588Y-109.537
X133.35Y-71.438
X138.112Y-90.487
X142.875Y-52.387
X147.637Y-109.537
X150.019Y-128.588
X152.4Y-28.575
X152.4Y-71.438
X157.162Y-90.487
X161.925Y-52.387
X161.925Y-128.588
X166.688Y-109.537
X171.45Y-28.575
X171.45Y-71.438
X176.213Y-90.487
X180.975Y-52.387
X185.737Y-109.537
X190.5Y-28.575
X190.5Y-71.438
X195.262Y-90.487
X200.019Y-120.587
X200.025Y-52.387
X204.787Y-109.537
X209.55Y-28.575
X209.55Y-71.438
X214.312Y-90.487
X219.075Y-52.387
X219.175Y-120.587
X221.456Y-128.588
X223.837Y-109.537
X228.6Y-71.438
X233.362Y-90.487
X238.125Y-28.575
X238.125Y-52.387
X242.887Y-109.537
X242.887Y-128.588
X245.269Y-128.588
X247.65Y-71.438
X252.412Y-90.487
X257.175Y-28.575
X257.175Y-52.387
X261.938Y-109.537
X264.225Y-117.537
X266.7Y-71.438
X266.7Y-128.588
X269.081Y-128.588
X271.369Y-82.487
X271.462Y-90.487
X273.75Y-60.387
X276.225Y-28.575
X276.225Y-52.387
X276.225Y-109.537
X283.369Y-90.487
X285.75Y-52.387
X288.225Y-117.537
X290.512Y-71.438
X290.512Y-128.588
X292.894Y-80.962
X292.894Y-128.588
X295.275Y-28.575
X295.275Y-52.387
X295.275Y-109.537
X295.369Y-82.487
X297.75Y-60.387
X300.894Y-68.962
X300.894Y-92.962
X319.087Y-28.575
X319.087Y-52.387
X319.087Y-71.438
X319.087Y-128.588
X338.137Y-28.575
X338.137Y-52.387
X338.137Y-71.438
X338.137Y-109.537
X338.137Y-128.588
X357.188Y-28.575
X357.188Y-52.387
X357.188Y-71.438
X357.188Y-128.588
T5
X334.566Y-92.273
M30
