M48
; DRILL file {KiCad 7.0.10} date Wed Mar 13 13:31:18 2024
; FORMAT={-:-/ absolute / metric / decimal}
; #@! TF.CreationDate,2024-03-13T13:31:18+01:00
; #@! TF.GenerationSoftware,Kicad,Pcbnew,7.0.10
; #@! TF.FileFunction,Plated,1,2,PTH
FMAT,2
METRIC
; #@! TA.AperFunction,Plated,PTH,ViaDrill
T1C0.400
; #@! TA.AperFunction,Plated,PTH,ComponentDrill
T2C0.800
; #@! TA.AperFunction,Plated,PTH,ComponentDrill
T3C1.020
%
G90
G05
T1
X28.575Y-111.919
X32.147Y-43.458
X35.719Y-101.203
X38.1Y-111.919
X40.481Y-101.203
X60.126Y-44.648
X70.247Y-45.244
X97.631Y-45.839
X117.276Y-63.698
X117.872Y-100.012
X117.872Y-104.775
X119.062Y-122.039
X119.062Y-125.016
X137.517Y-63.698
X145.256Y-134.541
X147.637Y-122.634
X150.019Y-125.016
X150.019Y-134.541
X155.972Y-132.159
X158.353Y-64.294
X158.353Y-124.42
X165.497Y-135.731
X167.878Y-135.731
X176.808Y-64.889
X183.356Y-101.203
X200.62Y-81.558
X203.001Y-130.969
X211.931Y-135.731
X215.503Y-132.159
X220.154Y-82.283
X230.386Y-130.969
X239.204Y-82.878
X252.412Y-116.681
X252.412Y-119.062
X259.556Y-88.106
X264.319Y-79.047
X267.891Y-87.222
X267.891Y-88.702
X268.486Y-111.188
X268.486Y-112.637
X273.844Y-80.367
X275.63Y-75.009
X276.82Y-73.819
X276.82Y-77.391
X276.82Y-78.581
X278.011Y-69.056
X279.201Y-67.866
X279.201Y-78.581
X279.797Y-133.35
X280.392Y-72.033
X280.987Y-98.227
X280.987Y-100.608
X283.369Y-77.391
X291.108Y-91.678
X291.355Y-50.783
X292.298Y-90.488
X298.251Y-94.655
X298.529Y-123.507
X301.823Y-82.748
X302.419Y-123.825
X303.609Y-43.458
X303.609Y-104.18
X304.205Y-63.698
X304.205Y-92.869
X304.8Y-51.197
X304.8Y-62.508
X304.8Y-91.808
X305.266Y-61.317
X305.861Y-50.006
X306.058Y-106.628
X306.456Y-48.22
X307.051Y-45.839
X308.501Y-51.197
X308.501Y-61.317
X308.501Y-64.889
X308.501Y-82.748
X309.562Y-90.358
X309.562Y-39.291
X310.158Y-93.464
X310.158Y-94.655
X310.753Y-82.748
X310.753Y-102.394
X313.134Y-39.291
X321.945Y-104.775
X324.445Y-106.628
X326.231Y-103.584
X328.017Y-75.009
X339.923Y-75.009
X364.927Y-102.394
X364.927Y-136.922
T2
X20.741Y-110.223
X20.741Y-117.843
X21.431Y-29.289
X21.431Y-36.909
X21.431Y-53.102
X21.431Y-60.722
X23.812Y-91.202
X23.812Y-98.822
X23.812Y-110.252
X23.812Y-117.872
X23.812Y-129.302
X23.812Y-136.922
X26.194Y-72.152
X26.194Y-79.772
X40.481Y-53.102
X40.481Y-60.722
X47.625Y-129.302
X47.625Y-136.922
X50.006Y-72.152
X50.006Y-79.772
X54.769Y-91.202
X54.769Y-98.822
X59.531Y-29.289
X59.531Y-36.909
X59.531Y-53.102
X59.531Y-60.722
X64.294Y-110.252
X64.294Y-117.872
X69.056Y-72.152
X69.056Y-79.772
X71.438Y-129.302
X71.438Y-136.922
X73.819Y-91.202
X73.819Y-98.822
X78.581Y-29.289
X78.581Y-36.909
X78.581Y-53.102
X78.581Y-60.722
X83.344Y-110.252
X83.344Y-117.872
X88.106Y-72.152
X88.106Y-79.772
X92.869Y-91.202
X92.869Y-98.822
X97.631Y-29.289
X97.631Y-36.909
X97.631Y-53.102
X97.631Y-60.722
X102.394Y-110.252
X102.394Y-117.872
X107.156Y-72.152
X107.156Y-79.772
X111.919Y-91.202
X111.919Y-98.822
X116.681Y-29.289
X116.681Y-36.909
X116.681Y-53.102
X116.681Y-60.722
X121.444Y-110.252
X121.444Y-117.872
X126.206Y-72.152
X126.206Y-79.772
X130.969Y-91.202
X130.969Y-98.822
X135.731Y-53.102
X135.731Y-60.722
X140.494Y-110.252
X140.494Y-117.872
X142.875Y-129.302
X142.875Y-136.922
X145.256Y-29.289
X145.256Y-36.909
X145.256Y-72.152
X145.256Y-79.772
X150.019Y-91.202
X150.019Y-98.822
X154.781Y-53.102
X154.781Y-60.722
X159.544Y-110.252
X159.544Y-117.872
X164.306Y-29.289
X164.306Y-36.909
X164.306Y-72.152
X164.306Y-79.772
X169.069Y-91.202
X169.069Y-98.822
X173.831Y-53.102
X173.831Y-60.722
X178.594Y-110.252
X178.594Y-117.872
X183.356Y-29.289
X183.356Y-36.909
X183.356Y-72.152
X183.356Y-79.772
X188.119Y-91.202
X188.119Y-98.822
X192.881Y-53.102
X192.881Y-60.722
X197.644Y-110.252
X197.644Y-117.872
X202.406Y-29.289
X202.406Y-36.909
X202.406Y-72.152
X202.406Y-79.772
X207.169Y-91.202
X207.169Y-98.822
X211.931Y-53.102
X211.931Y-60.722
X214.312Y-129.302
X214.312Y-136.922
X216.694Y-110.252
X216.694Y-117.872
X221.456Y-72.152
X221.456Y-79.772
X226.219Y-91.202
X226.219Y-98.822
X230.981Y-29.289
X230.981Y-36.909
X230.981Y-53.102
X230.981Y-60.722
X235.744Y-110.252
X235.744Y-117.872
X235.744Y-129.302
X235.744Y-136.922
X240.506Y-72.152
X240.506Y-79.772
X245.269Y-91.202
X245.269Y-98.822
X250.031Y-29.289
X250.031Y-36.909
X250.031Y-53.102
X250.031Y-60.722
X254.794Y-110.252
X254.794Y-117.872
X259.556Y-72.152
X259.556Y-79.772
X259.556Y-129.302
X259.556Y-136.922
X264.319Y-91.202
X264.319Y-98.822
X266.7Y-53.102
X266.7Y-60.722
X269.081Y-29.289
X269.081Y-36.909
X280.511Y-44.053
X282.178Y-72.152
X282.178Y-79.772
X283.369Y-129.302
X283.369Y-136.922
X285.155Y-107.871
X285.155Y-115.491
X288.131Y-44.053
X288.131Y-29.289
X288.131Y-36.909
X309.562Y-69.771
X309.562Y-77.391
X312.261Y-29.289
X312.261Y-36.909
X312.261Y-53.102
X312.261Y-60.722
X312.261Y-129.302
X312.261Y-136.922
X328.613Y-69.771
X328.613Y-77.391
X331.311Y-29.289
X331.311Y-36.909
X331.311Y-53.102
X331.311Y-60.722
X331.311Y-110.252
X331.311Y-117.872
X331.311Y-129.302
X331.311Y-136.922
X347.662Y-69.771
X347.662Y-77.391
X350.361Y-29.289
X350.361Y-36.909
X350.361Y-53.102
X350.361Y-60.722
X350.361Y-129.302
X350.361Y-136.922
T3
X314.325Y-81.637
X314.325Y-99.417
X316.865Y-81.637
X316.865Y-99.417
X319.405Y-81.637
X319.405Y-99.417
X321.945Y-81.637
X321.945Y-99.417
X324.485Y-81.637
X324.485Y-99.417
X327.025Y-81.637
X327.025Y-99.417
X329.565Y-81.637
X329.565Y-99.417
X332.105Y-81.637
X332.105Y-99.417
X334.645Y-81.637
X334.645Y-99.417
X337.185Y-81.637
X337.185Y-99.417
X339.725Y-81.637
X339.725Y-99.417
X342.265Y-81.637
X342.265Y-99.417
X344.805Y-81.637
X344.805Y-99.417
X347.345Y-81.637
X347.345Y-99.417
X349.885Y-81.637
X349.885Y-99.417
X352.425Y-81.637
X352.425Y-99.417
X354.965Y-81.637
X354.965Y-99.417
X357.505Y-81.637
X357.505Y-99.417
X360.045Y-81.637
X360.045Y-99.417
X362.585Y-81.637
X362.585Y-99.417
M30
