<?xml version="1.0" encoding="UTF-8" standalone="no"?>
<!-- Created with Inkscape (http://www.inkscape.org/) -->

<svg
   width="375mm"
   height="320mm"
   viewBox="0 0 375 320"
   version="1.1"
   id="svg1"
   inkscape:version="1.3.2 (091e20e, 2023-11-25, custom)"
   sodipodi:docname="combined.svg"
   xmlns:inkscape="http://www.inkscape.org/namespaces/inkscape"
   xmlns:sodipodi="http://sodipodi.sourceforge.net/DTD/sodipodi-0.dtd"
   xmlns="http://www.w3.org/2000/svg"
   xmlns:svg="http://www.w3.org/2000/svg">
  <sodipodi:namedview
     id="namedview1"
     pagecolor="#505050"
     bordercolor="#eeeeee"
     borderopacity="1"
     inkscape:showpageshadow="0"
     inkscape:pageopacity="0"
     inkscape:pagecheckerboard="0"
     inkscape:deskcolor="#505050"
     inkscape:document-units="mm"
     showgrid="true"
     inkscape:zoom="0.75024447"
     inkscape:cx="650.45465"
     inkscape:cy="540.49049"
     inkscape:window-width="2560"
     inkscape:window-height="1369"
     inkscape:window-x="3832"
     inkscape:window-y="-8"
     inkscape:window-maximized="1"
     inkscape:current-layer="layer5">
    <inkscape:grid
       id="grid1"
       units="mm"
       originx="0"
       originy="0"
       spacingx="0.99999999"
       spacingy="1"
       empcolor="#0099e5"
       empopacity="0.30196078"
       color="#0099e5"
       opacity="0.14901961"
       empspacing="5"
       dotted="false"
       gridanglex="30"
       gridanglez="30"
       visible="true" />
  </sodipodi:namedview>
  <defs
     id="defs1" />
  <g
     inkscape:groupmode="layer"
     id="g27"
     inkscape:label="bottom"
     style="display:inline"
     sodipodi:insensitive="true">
    <path
       id="rect7"
       style="fill:none;fill-opacity:0.0923077;stroke:#fffe00;stroke-width:0.0911037;stroke-opacity:1"
       d="m 12.871478,28.683553 c -0.554546,0 -1.000926,0.44726 -1.000926,1.0029 V 146.22655 c 0,0.55564 0.44638,1.0029 1.000926,1.0029 H 365.82851 c 0.55454,0 1.00092,-0.44726 1.00092,-1.0029 V 29.686453 c 0,-0.55564 -0.44638,-1.0029 -1.00092,-1.0029 H 196.95755 v 18.157934 c 0,0.555639 -0.44689,1.0029 -1.00144,1.0029 h -15.9155 c -0.55455,0 -1.00093,-0.447261 -1.00093,-1.0029 V 28.683553 Z" />
    <ellipse
       style="fill:none;fill-opacity:0.0108108;stroke:#fffe00;stroke-width:0.1;stroke-opacity:1"
       id="ellipse14"
       cx="16.5"
       cy="33.813"
       rx="1.7750001"
       ry="1.775" />
    <ellipse
       style="fill:none;fill-opacity:0.0108108;stroke:#fffe00;stroke-width:0.1;stroke-opacity:1"
       id="ellipse15"
       cx="362.20001"
       cy="33.813"
       rx="1.7750001"
       ry="1.775" />
    <ellipse
       style="fill:none;fill-opacity:0.0108108;stroke:#fffe00;stroke-width:0.1;stroke-opacity:1"
       id="ellipse16"
       cx="265.20001"
       cy="33.813"
       rx="1.7750001"
       ry="1.775" />
    <ellipse
       style="fill:none;fill-opacity:0.0108108;stroke:#fffe00;stroke-width:0.1;stroke-opacity:1"
       id="circle16"
       cx="113.5"
       cy="33.813"
       rx="1.7750001"
       ry="1.775" />
    <ellipse
       style="fill:none;fill-opacity:0.0108108;stroke:#fffe00;stroke-width:0.1;stroke-opacity:1"
       id="ellipse17"
       cx="16.5"
       cy="142"
       rx="1.7750001"
       ry="1.775" />
    <ellipse
       style="fill:none;fill-opacity:0.0108108;stroke:#fffe00;stroke-width:0.1;stroke-opacity:1"
       id="ellipse18"
       cx="362.19998"
       cy="141.5"
       rx="1.7750001"
       ry="1.775" />
    <ellipse
       style="fill:none;fill-opacity:0.0108108;stroke:#fffe00;stroke-width:0.1;stroke-opacity:1"
       id="ellipse19"
       cx="225.2"
       cy="142"
       rx="1.7750001"
       ry="1.775" />
    <circle
       style="fill:none;fill-opacity:0.0108108;stroke:#fffe00;stroke-width:0.1;stroke-opacity:1"
       id="circle19"
       cx="113.5"
       cy="142"
       r="1.775" />
  </g>
  <g
     inkscape:groupmode="layer"
     id="layer1"
     inkscape:label="foot"
     style="display:inline"
     sodipodi:insensitive="true">
    <rect
       style="display:inline;fill:none;fill-opacity:0.0108108;stroke:#04ff6b;stroke-width:0.0999999;stroke-opacity:1"
       id="rect12-3-9"
       width="352.94998"
       height="21.450001"
       x="12.875"
       y="29.688"
       rx="0.99999994"
       ry="0.99999988" />
    <circle
       style="display:inline;fill:none;fill-opacity:0.0108108;stroke:#04ff6b;stroke-width:0.1;stroke-opacity:1"
       id="ellipse14-3"
       cx="16.5"
       cy="33.812992"
       r="1.775" />
    <ellipse
       style="display:inline;fill:none;fill-opacity:0.0108108;stroke:#04ff6b;stroke-width:0.1;stroke-opacity:1"
       id="ellipse15-2"
       cx="362.20001"
       cy="33.812992"
       rx="1.7750001"
       ry="1.775" />
    <ellipse
       style="display:inline;fill:none;fill-opacity:0.0108108;stroke:#04ff6b;stroke-width:0.1;stroke-opacity:1"
       id="ellipse16-7"
       cx="265.20001"
       cy="33.812992"
       rx="1.7750001"
       ry="1.775" />
    <ellipse
       style="display:inline;fill:none;fill-opacity:0.0108108;stroke:#04ff6b;stroke-width:0.1;stroke-opacity:1"
       id="circle16-4"
       cx="113.49999"
       cy="33.812992"
       rx="1.7750001"
       ry="1.775" />
    <circle
       style="display:inline;fill:none;fill-opacity:1;stroke:#04ff6b;stroke-width:0.1;stroke-dasharray:none;stroke-dashoffset:0;stroke-opacity:1"
       id="path18"
       cx="193.995"
       cy="38.994991"
       r="1.375" />
    <circle
       style="display:inline;fill:none;fill-opacity:1;stroke:#04ff6b;stroke-width:0.1;stroke-dasharray:none;stroke-dashoffset:0;stroke-opacity:1"
       id="path18-3"
       cx="181.995"
       cy="38.994991"
       inkscape:label="path18-3"
       r="1.375" />
  </g>
  <g
     inkscape:groupmode="layer"
     id="layer2"
     inkscape:label="mid-1"
     sodipodi:insensitive="true"
     style="display:none">
    <path
       id="rect7-7"
       style="display:inline;fill:none;fill-opacity:0.0923077;stroke:#ff9300;stroke-width:0.0911037;stroke-opacity:1"
       d="m 12.870491,28.683552 c -0.553998,0 -0.999939,0.44594 -0.999939,0.999938 v 116.54586 c 0,0.554 0.445941,0.99994 0.999939,0.99994 H 365.82931 c 0.554,0 0.99994,-0.44594 0.99994,-0.99994 V 29.68349 c 0,-0.553998 -0.44594,-0.999938 -0.99994,-0.999938 h -168.8791 v 10.349239 h 165.52995 c 0.554,0 0.99994,0.445939 0.99994,0.999939 v 95.84738 c 0,0.554 -0.44594,0.99994 -0.99994,0.99994 H 16.219641 c -0.554,0 -0.999939,-0.44594 -0.999939,-0.99994 V 40.03273 c 0,-0.554 0.445939,-0.999939 0.999939,-0.999939 H 179.05001 V 28.683552 Z" />
    <circle
       style="display:inline;fill:none;fill-opacity:0.0108108;stroke:#ff9300;stroke-width:0.0999999;stroke-opacity:1"
       id="ellipse14-7"
       cx="16.49996"
       cy="33.813034"
       r="1.2750001" />
    <circle
       style="display:inline;fill:none;fill-opacity:0.0108108;stroke:#ff9300;stroke-width:0.0999999;stroke-opacity:1"
       id="ellipse15-7"
       cx="362.19998"
       cy="33.813034"
       r="1.2750001" />
    <circle
       style="display:inline;fill:none;fill-opacity:0.0108108;stroke:#ff9300;stroke-width:0.0999999;stroke-opacity:1"
       id="ellipse16-0"
       cx="265.19998"
       cy="33.813034"
       r="1.2750001" />
    <circle
       style="display:inline;fill:none;fill-opacity:0.0108108;stroke:#ff9300;stroke-width:0.0999999;stroke-opacity:1"
       id="circle16-6"
       cx="113.49995"
       cy="33.813034"
       r="1.2750001" />
    <circle
       style="display:inline;fill:none;fill-opacity:0.0108108;stroke:#ff9300;stroke-width:0.0999999;stroke-opacity:1"
       id="ellipse17-4"
       cx="16.49996"
       cy="142.00003"
       r="1.2750001" />
    <circle
       style="display:inline;fill:none;fill-opacity:0.0108108;stroke:#ff9300;stroke-width:0.0999999;stroke-opacity:1"
       id="ellipse18-7"
       cx="362.19995"
       cy="141.50003"
       r="1.2750001" />
    <circle
       style="display:inline;fill:none;fill-opacity:0.0108108;stroke:#ff9300;stroke-width:0.0999999;stroke-opacity:1"
       id="ellipse19-4"
       cx="225.19995"
       cy="142.00003"
       r="1.2750001" />
    <circle
       style="display:inline;fill:none;fill-opacity:0.0108108;stroke:#ff9300;stroke-width:0.0999999;stroke-opacity:1"
       id="circle19-2"
       cx="113.49995"
       cy="142.00003"
       r="1.2750001" />
  </g>
  <g
     inkscape:groupmode="layer"
     id="layer3"
     inkscape:label="mid-2"
     style="display:none"
     sodipodi:insensitive="true">
    <rect
       style="display:inline;fill:none;fill-opacity:0.0108108;stroke:#1fffa5;stroke-width:0.0895358;stroke-opacity:1"
       id="rect6"
       width="348.26047"
       height="97.847466"
       x="15.219769"
       y="39.032768"
       rx="1"
       ry="1" />
    <rect
       style="display:inline;fill:none;fill-opacity:0.0923077;stroke:#1fffa5;stroke-width:0.0911037;stroke-opacity:1"
       id="rect7-9"
       width="354.95889"
       height="118.5459"
       x="11.870552"
       y="28.683552"
       rx="0.99999994"
       ry="1.0000001" />
    <circle
       style="display:inline;fill:none;fill-opacity:0.0108108;stroke:#1fffa5;stroke-width:0.0999999;stroke-opacity:1"
       id="ellipse14-1"
       cx="16.500002"
       cy="33.813"
       r="1.2750001" />
    <circle
       style="display:inline;fill:none;fill-opacity:0.0108108;stroke:#1fffa5;stroke-width:0.0999999;stroke-opacity:1"
       id="ellipse15-20"
       cx="362.20001"
       cy="33.813"
       r="1.2750001" />
    <circle
       style="display:inline;fill:none;fill-opacity:0.0108108;stroke:#1fffa5;stroke-width:0.0999999;stroke-opacity:1"
       id="ellipse16-8"
       cx="265.20001"
       cy="33.813"
       r="1.2750001" />
    <circle
       style="display:inline;fill:none;fill-opacity:0.0108108;stroke:#1fffa5;stroke-width:0.0999999;stroke-opacity:1"
       id="circle16-9"
       cx="113.5"
       cy="33.813"
       r="1.2750001" />
    <circle
       style="display:inline;fill:none;fill-opacity:0.0108108;stroke:#1fffa5;stroke-width:0.0999999;stroke-opacity:1"
       id="ellipse17-7"
       cx="16.500002"
       cy="142"
       r="1.2750001" />
    <circle
       style="display:inline;fill:none;fill-opacity:0.0108108;stroke:#1fffa5;stroke-width:0.0999999;stroke-opacity:1"
       id="ellipse18-8"
       cx="362.19998"
       cy="141.5"
       r="1.2750001" />
    <circle
       style="display:inline;fill:none;fill-opacity:0.0108108;stroke:#1fffa5;stroke-width:0.0999999;stroke-opacity:1"
       id="ellipse19-5"
       cx="225.2"
       cy="142"
       r="1.2750001" />
    <circle
       style="display:inline;fill:none;fill-opacity:0.0108108;stroke:#1fffa5;stroke-width:0.0999999;stroke-opacity:1"
       id="circle19-8"
       cx="113.5"
       cy="142"
       r="1.2750001" />
  </g>
  <g
     inkscape:groupmode="layer"
     id="layer4"
     inkscape:label="mid-3"
     style="display:none"
     sodipodi:insensitive="true">
    <path
       id="rect6-2"
       style="display:inline;fill:none;fill-opacity:0.0108108;stroke:#ff1e1e;stroke-width:0.0895358;stroke-opacity:1"
       d="m 21.475175,34.287829 c -0.553994,0 -0.999939,0.445939 -0.999939,0.999939 v 3.569807 h -4.43022 c -0.553993,0 -1.000455,0.445946 -1.000455,0.999939 v 96.197736 c 0,0.554 0.446462,0.99994 1.000455,0.99994 h 17.429943 v 3.60857 c 0,0.55393 0.445946,1.00045 0.999939,1.00045 h 38.150126 c 0.554,0 0.999939,-0.44652 0.999939,-1.00045 v -3.60857 H 231.47476 v 3.60857 c 0,0.55398 0.44646,1.00045 1.00046,1.00045 h 38.14961 c 0.55398,0 0.99993,-0.44647 0.99993,-1.00045 v -3.60857 h 45.85044 v 3.60857 c 0,0.55399 0.44593,1.00045 0.99993,1.00045 h 38.14961 c 0.554,0 1.00046,-0.44646 1.00046,-1.00045 v -3.60857 h 5.03018 c 0.554,0 0.99994,-0.44594 0.99994,-0.99994 V 39.857514 c 0,-0.553993 -0.44594,-0.999939 -0.99994,-0.999939 h -5.03018 v -3.569807 c 0,-0.554 -0.44646,-0.999939 -1.00046,-0.999939 h -38.14961 c -0.554,0 -0.99993,0.445939 -0.99993,0.999939 v 3.569807 h -58.85016 v -3.569807 c 0,-0.554 -0.44594,-0.999939 -0.99994,-0.999939 h -38.15012 c -0.554,0 -0.99994,0.445939 -0.99994,0.999939 v 3.569807 h -58.85016 v -3.569807 c 0,-0.554 -0.44594,-0.999939 -0.99994,-0.999939 h -38.15012 c -0.554,0 -0.99994,0.445939 -0.99994,0.999939 v 3.569807 H 60.62524 v -3.569807 c 0,-0.554 -0.446456,-0.999939 -1.000456,-0.999939 z" />
    <rect
       style="display:inline;fill:none;fill-opacity:0.0923077;stroke:#ff1e1e;stroke-width:0.0911037;stroke-opacity:1"
       id="rect7-8"
       width="354.95889"
       height="118.5459"
       x="11.870552"
       y="28.683552"
       rx="0.99999994"
       ry="1.0000001" />
    <circle
       style="display:inline;fill:none;fill-opacity:0.0108108;stroke:#ff1e1e;stroke-width:0.0999999;stroke-opacity:1"
       id="ellipse14-71"
       cx="16.500002"
       cy="33.813"
       r="1.2750001" />
    <circle
       style="display:inline;fill:none;fill-opacity:0.0108108;stroke:#ff1e1e;stroke-width:0.0999999;stroke-opacity:1"
       id="ellipse15-23"
       cx="362.20001"
       cy="33.813"
       r="1.2750001" />
    <circle
       style="display:inline;fill:none;fill-opacity:0.0108108;stroke:#ff1e1e;stroke-width:0.0999999;stroke-opacity:1"
       id="ellipse16-70"
       cx="265.20001"
       cy="33.813"
       r="1.2750001" />
    <circle
       style="display:inline;fill:none;fill-opacity:0.0108108;stroke:#ff1e1e;stroke-width:0.0999999;stroke-opacity:1"
       id="circle16-2"
       cx="113.5"
       cy="33.813"
       r="1.2750001" />
    <circle
       style="display:inline;fill:none;fill-opacity:0.0108108;stroke:#ff1e1e;stroke-width:0.0999999;stroke-opacity:1"
       id="ellipse17-2"
       cx="16.500002"
       cy="142"
       r="1.2750001" />
    <circle
       style="display:inline;fill:none;fill-opacity:0.0108108;stroke:#ff1e1e;stroke-width:0.0999999;stroke-opacity:1"
       id="ellipse18-5"
       cx="362.19998"
       cy="141.5"
       r="1.2750001" />
    <circle
       style="display:inline;fill:none;fill-opacity:0.0108108;stroke:#ff1e1e;stroke-width:0.0999999;stroke-opacity:1"
       id="ellipse19-3"
       cx="225.2"
       cy="142"
       r="1.2750001" />
    <circle
       style="display:inline;fill:none;fill-opacity:0.0108108;stroke:#ff1e1e;stroke-width:0.0999999;stroke-opacity:1"
       id="circle19-4"
       cx="113.5"
       cy="142"
       r="1.2750001" />
  </g>
  <g
     inkscape:groupmode="layer"
     id="layer5"
     inkscape:label="top-wk"
     style="display:none"
     sodipodi:insensitive="true">
    <path
       id="rect6-8"
       style="display:inline;fill:none;fill-opacity:0.0108108;stroke:#33fcff;stroke-width:0.0895358;stroke-opacity:1"
       d="m 16.21968,39.032758 c -0.554,0 -0.999939,0.445939 -0.999939,0.999939 v 95.847373 c 0,0.554 0.445939,0.99994 0.999939,0.99994 H 301.12529 V 39.032758 Z m 289.91719,0 v 39.252384 h 57.34327 V 40.032697 c 0,-0.554 -0.44594,-0.999939 -0.99994,-0.999939 z m 19.05,58.377315 v 19.225187 h -19.05 v 20.24475 h 56.34333 c 0.554,0 0.99994,-0.44594 0.99994,-0.99994 V 116.63526 H 343.98676 V 97.410073 Z" />
    <rect
       style="display:inline;fill:none;fill-opacity:0.0923077;stroke:#33fcff;stroke-width:0.0911037;stroke-opacity:1"
       id="rect7-99"
       width="354.95889"
       height="118.5459"
       x="11.870552"
       y="28.683552"
       rx="0.99999994"
       ry="1.0000001" />
    <circle
       style="display:inline;fill:none;fill-opacity:0.0108108;stroke:#33fcff;stroke-width:0.0999999;stroke-opacity:1"
       id="ellipse14-0"
       cx="16.5"
       cy="33.812996"
       r="1.2750001" />
    <circle
       style="display:inline;fill:none;fill-opacity:0.0108108;stroke:#33fcff;stroke-width:0.0999999;stroke-opacity:1"
       id="ellipse15-8"
       cx="362.20001"
       cy="33.812996"
       r="1.2750001" />
    <circle
       style="display:inline;fill:none;fill-opacity:0.0108108;stroke:#33fcff;stroke-width:0.0999999;stroke-opacity:1"
       id="ellipse16-3"
       cx="265.20001"
       cy="33.812996"
       r="1.2750001" />
    <circle
       style="display:inline;fill:none;fill-opacity:0.0108108;stroke:#33fcff;stroke-width:0.0999999;stroke-opacity:1"
       id="circle16-8"
       cx="113.49999"
       cy="33.812996"
       r="1.2750001" />
    <circle
       style="display:inline;fill:none;fill-opacity:0.0108108;stroke:#33fcff;stroke-width:0.0999999;stroke-opacity:1"
       id="ellipse17-9"
       cx="16.5"
       cy="142"
       r="1.2750001" />
    <circle
       style="display:inline;fill:none;fill-opacity:0.0108108;stroke:#33fcff;stroke-width:0.0999999;stroke-opacity:1"
       id="ellipse18-1"
       cx="362.19998"
       cy="141.5"
       r="1.2750001" />
    <circle
       style="display:inline;fill:none;fill-opacity:0.0108108;stroke:#33fcff;stroke-width:0.0999999;stroke-opacity:1"
       id="ellipse19-8"
       cx="225.2"
       cy="142"
       r="1.2750001" />
    <circle
       style="display:inline;fill:none;fill-opacity:0.0108108;stroke:#33fcff;stroke-width:0.0999999;stroke-opacity:1"
       id="circle19-27"
       cx="113.49999"
       cy="142"
       r="1.2750001" />
  </g>
</svg>
