<?xml version="1.0" encoding="UTF-8" standalone="no"?>
<!-- Created with Inkscape (http://www.inkscape.org/) -->

<svg
   width="375mm"
   height="320mm"
   viewBox="0 0 375 320"
   version="1.1"
   id="svg1"
   inkscape:version="1.3.2 (091e20e, 2023-11-25, custom)"
   sodipodi:docname="frl-side-3.svg"
   xmlns:inkscape="http://www.inkscape.org/namespaces/inkscape"
   xmlns:sodipodi="http://sodipodi.sourceforge.net/DTD/sodipodi-0.dtd"
   xmlns="http://www.w3.org/2000/svg"
   xmlns:svg="http://www.w3.org/2000/svg">
  <sodipodi:namedview
     id="namedview1"
     pagecolor="#505050"
     bordercolor="#eeeeee"
     borderopacity="1"
     inkscape:showpageshadow="0"
     inkscape:pageopacity="0"
     inkscape:pagecheckerboard="0"
     inkscape:deskcolor="#505050"
     inkscape:document-units="mm"
     showgrid="true"
     inkscape:zoom="0.95999871"
     inkscape:cx="700.00094"
     inkscape:cy="354.68798"
     inkscape:window-width="1920"
     inkscape:window-height="1017"
     inkscape:window-x="-8"
     inkscape:window-y="-8"
     inkscape:window-maximized="1"
     inkscape:current-layer="g27">
    <inkscape:grid
       id="grid1"
       units="mm"
       originx="0"
       originy="0"
       spacingx="0.99999999"
       spacingy="1"
       empcolor="#0099e5"
       empopacity="0.30196078"
       color="#0099e5"
       opacity="0.14901961"
       empspacing="5"
       dotted="false"
       gridanglex="30"
       gridanglez="30"
       visible="true" />
  </sodipodi:namedview>
  <defs
     id="defs1" />
  <g
     inkscape:groupmode="layer"
     id="g27"
     inkscape:label="Case-FRL"
     style="display:inline">
    <path
       id="rect7"
       style="fill:none;fill-opacity:0.248963;stroke:#00ffff;stroke-width:0.0911037;stroke-opacity:1"
       inkscape:label="wall-outter"
       d="m 12.545915,28.658716 c -1.661984,0 -3.000334,1.337834 -3.000334,2.999817 V 144.25424 c 0,1.662 1.33835,3.00034 3.000334,3.00034 H 366.15446 c 1.662,0 2.99982,-1.33834 2.99982,-3.00034 V 31.658533 c 0,-1.661983 -1.33782,-2.999817 -2.99982,-2.999817 z m 2.15439,4.30413 c 0.745621,1.17e-4 1.349956,0.604684 1.349788,1.350305 -1.17e-4,0.745419 -0.604369,1.349671 -1.349788,1.349788 -0.745621,1.68e-4 -1.350188,-0.604167 -1.350305,-1.349788 -1.68e-4,-0.745823 0.604482,-1.350473 1.350305,-1.350305 z m 98.799745,0 c 0.74562,1.16e-4 1.34996,0.604683 1.34979,1.350305 -1.2e-4,0.74542 -0.60437,1.349672 -1.34979,1.349788 -0.74562,1.71e-4 -1.35019,-0.604165 -1.35031,-1.349788 -1.7e-4,-0.745825 0.60449,-1.350476 1.35031,-1.350305 z m 151.69978,0 c 0.74582,-1.71e-4 1.35048,0.60448 1.35031,1.350305 -1.2e-4,0.745623 -0.60469,1.349959 -1.35031,1.349788 -0.74542,-1.16e-4 -1.34967,-0.604368 -1.34979,-1.349788 -1.7e-4,-0.745622 0.60417,-1.350189 1.34979,-1.350305 z m 98.79972,0 c 0.74582,-1.71e-4 1.35048,0.60448 1.35031,1.350305 -1.2e-4,0.745623 -0.60469,1.349959 -1.35031,1.349788 -0.74542,-1.21e-4 -1.34966,-0.604372 -1.34978,-1.349788 -1.7e-4,-0.745618 0.60416,-1.350184 1.34978,-1.350305 z M 21.000179,34.113163 h 38.799788 c 0.554,0 0.999939,0.445954 0.999939,0.999939 v 3.944462 h 58.500304 v -3.944462 c 0,-0.553986 0.44594,-0.999939 0.99994,-0.999939 h 38.49998 c 0.554,0 0.99994,0.445953 0.99994,0.999939 v 3.944462 h 58.49978 v -3.944462 c 0,-0.553987 0.44594,-0.999939 0.99994,-0.999939 h 38.49998 c 0.554,0 1.00045,0.445952 1.00045,0.999939 v 3.944462 h 58.49979 v -3.944462 c 0,-0.553988 0.44594,-0.999939 0.99994,-0.999939 h 38.79977 c 0.554,0 0.99994,0.445951 0.99994,0.999939 v 3.944462 h 4.65553 c 0.55384,0 0.99993,0.446472 0.99993,1.000456 v 95.79725 c 0,0.554 -0.44609,0.99994 -0.99993,0.99994 h -4.65553 v 3.98374 c 0,0.554 -0.44594,0.99994 -0.99994,0.99994 h -38.79977 c -0.554,0 -0.99994,-0.44594 -0.99994,-0.99994 v -3.98374 h -45.50006 v 3.98374 c 0,0.554 -0.44594,0.99994 -0.99994,0.99994 h -38.49998 c -0.554,0 -0.99994,-0.44594 -0.99994,-0.99994 v -3.98374 H 73.800146 v 3.98374 c 0,0.554 -0.445949,0.99994 -0.999938,0.99994 H 34.000419 c -0.554,0 -1.000456,-0.44594 -1.000456,-0.99994 v -3.98374 H 15.94519 c -0.553984,0 -1.000455,-0.44594 -1.000455,-0.99994 V 40.05802 c 0,-0.553984 0.446471,-1.000456 1.000455,-1.000456 h 4.05505 v -3.944462 c 0,-0.553985 0.445939,-0.999939 0.999939,-0.999939 z M 14.700305,140.1501 c 0.74542,1.2e-4 1.349672,0.60437 1.349788,1.34979 1.71e-4,0.74562 -0.604165,1.35019 -1.349788,1.35031 -0.745824,1.7e-4 -1.350476,-0.60449 -1.350305,-1.35031 1.16e-4,-0.74562 0.604684,-1.34996 1.350305,-1.34979 z m 98.799745,0 c 0.74542,1.2e-4 1.34967,0.60437 1.34979,1.34979 1.7e-4,0.74562 -0.60417,1.35019 -1.34979,1.35031 -0.74583,1.7e-4 -1.35048,-0.60448 -1.35031,-1.35031 1.2e-4,-0.74562 0.60469,-1.34996 1.35031,-1.34979 z m 111.70016,0 c 0.74542,1.2e-4 1.34967,0.60437 1.34979,1.34979 1.7e-4,0.74562 -0.60417,1.35019 -1.34979,1.35031 -0.74583,1.7e-4 -1.35048,-0.60448 -1.35031,-1.35031 1.2e-4,-0.74562 0.60469,-1.34996 1.35031,-1.34979 z m 138.79934,0 c 0.74562,-1.7e-4 1.35019,0.60417 1.35031,1.34979 1.7e-4,0.74583 -0.60448,1.35048 -1.35031,1.35031 -0.74562,-1.2e-4 -1.34995,-0.60469 -1.34978,-1.35031 1.2e-4,-0.74542 0.60436,-1.34967 1.34978,-1.34979 z"
       sodipodi:nodetypes="ssssssssscccccccccccscscssssssssccssssccssssccsssscsssscssssccssssccsssscsssscsscccccccccccccccsssss" />
  </g>
</svg>
