<?xml version="1.0" encoding="UTF-8" standalone="no"?>
<!-- Created with Inkscape (http://www.inkscape.org/) -->

<svg
   width="375mm"
   height="320mm"
   viewBox="0 0 375 320"
   version="1.1"
   id="svg1"
   inkscape:version="1.3.2 (091e20e, 2023-11-25, custom)"
   sodipodi:docname="frl-bottom.svg"
   xmlns:inkscape="http://www.inkscape.org/namespaces/inkscape"
   xmlns:sodipodi="http://sodipodi.sourceforge.net/DTD/sodipodi-0.dtd"
   xmlns="http://www.w3.org/2000/svg"
   xmlns:svg="http://www.w3.org/2000/svg">
  <sodipodi:namedview
     id="namedview1"
     pagecolor="#505050"
     bordercolor="#eeeeee"
     borderopacity="1"
     inkscape:showpageshadow="0"
     inkscape:pageopacity="0"
     inkscape:pagecheckerboard="0"
     inkscape:deskcolor="#505050"
     inkscape:document-units="mm"
     showgrid="true"
     inkscape:zoom="0.6788216"
     inkscape:cx="760.14081"
     inkscape:cy="-28.726252"
     inkscape:window-width="1920"
     inkscape:window-height="1017"
     inkscape:window-x="-8"
     inkscape:window-y="-8"
     inkscape:window-maximized="1"
     inkscape:current-layer="g27">
    <inkscape:grid
       id="grid1"
       units="mm"
       originx="0"
       originy="0"
       spacingx="0.99999999"
       spacingy="1"
       empcolor="#0099e5"
       empopacity="0.30196078"
       color="#0099e5"
       opacity="0.14901961"
       empspacing="5"
       dotted="false"
       gridanglex="30"
       gridanglez="30"
       visible="true" />
  </sodipodi:namedview>
  <defs
     id="defs1" />
  <g
     inkscape:groupmode="layer"
     id="g27"
     inkscape:label="Case-FRL"
     style="display:inline">
    <path
       id="rect7"
       style="fill:none;fill-opacity:0;stroke:#00ffff;stroke-width:0.0911037;stroke-opacity:1"
       inkscape:label="wall-outter"
       d="M 12.845728 28.658716 C 11.183737 28.658716 9.8453939 29.996543 9.8453939 31.658533 L 9.8453939 144.25424 C 9.8453939 145.91624 11.183737 147.25458 12.845728 147.25458 L 365.85467 147.25458 C 367.51667 147.25458 368.85449 145.91624 368.85449 144.25424 L 368.85449 31.658533 C 368.85449 29.996543 367.51667 28.658716 365.85467 28.658716 L 196.95025 28.658716 L 196.95025 49.962842 C 196.95025 51.62484 195.61192 52.963175 193.94992 52.963175 L 182.04987 52.963175 C 180.38787 52.963175 179.05005 51.62484 179.05005 49.962842 L 179.05005 28.658716 L 12.845728 28.658716 z M 15.000118 32.962846 A 1.3500003 1.3500003 0 0 1 16.349906 34.313151 A 1.3500003 1.3500003 0 0 1 15.000118 35.662939 A 1.3500003 1.3500003 0 0 1 13.649813 34.313151 A 1.3500003 1.3500003 0 0 1 15.000118 32.962846 z M 113.50005 32.962846 A 1.35 1.3500003 0 0 1 114.84984 34.313151 A 1.35 1.3500003 0 0 1 113.50005 35.662939 A 1.35 1.3500003 0 0 1 112.14974 34.313151 A 1.35 1.3500003 0 0 1 113.50005 32.962846 z M 265.19983 32.962846 A 1.35 1.3500003 0 0 1 266.55014 34.313151 A 1.35 1.3500003 0 0 1 265.19983 35.662939 A 1.35 1.3500003 0 0 1 263.85004 34.313151 A 1.35 1.3500003 0 0 1 265.19983 32.962846 z M 363.69976 32.962846 A 1.35 1.3500003 0 0 1 365.05007 34.313151 A 1.35 1.3500003 0 0 1 363.69976 35.662939 A 1.35 1.3500003 0 0 1 362.34998 34.313151 A 1.35 1.3500003 0 0 1 363.69976 32.962846 z M 15.000118 139.7 A 1.8000001 1.8000002 0 0 1 16.800008 141.49989 A 1.8000001 1.8000002 0 0 1 15.000118 143.29978 A 1.8000001 1.8000002 0 0 1 13.200228 141.49989 A 1.8000001 1.8000002 0 0 1 15.000118 139.7 z M 113.50005 139.7 A 1.8000001 1.8000002 0 0 1 115.29994 141.49989 A 1.8000001 1.8000002 0 0 1 113.50005 143.29978 A 1.8000001 1.8000002 0 0 1 111.70016 141.49989 A 1.8000001 1.8000002 0 0 1 113.50005 139.7 z M 225.20021 139.7 A 1.8000001 1.8000002 0 0 1 227.0001 141.49989 A 1.8000001 1.8000002 0 0 1 225.20021 143.29978 A 1.8000001 1.8000002 0 0 1 223.3998 141.49989 A 1.8000001 1.8000002 0 0 1 225.20021 139.7 z M 363.69976 139.7 A 1.8000001 1.8000002 0 0 1 365.50017 141.49989 A 1.8000001 1.8000002 0 0 1 363.69976 143.29978 A 1.8000001 1.8000002 0 0 1 361.89987 141.49989 A 1.8000001 1.8000002 0 0 1 363.69976 139.7 z " />
  </g>
</svg>
