<?xml version="1.0" encoding="UTF-8" standalone="no"?>
<!-- Created with Inkscape (http://www.inkscape.org/) -->

<svg
   width="375mm"
   height="320mm"
   viewBox="0 0 375 320"
   version="1.1"
   id="svg1"
   inkscape:version="1.3.2 (091e20e, 2023-11-25, custom)"
   sodipodi:docname="frl-mid-3.svg"
   xmlns:inkscape="http://www.inkscape.org/namespaces/inkscape"
   xmlns:sodipodi="http://sodipodi.sourceforge.net/DTD/sodipodi-0.dtd"
   xmlns="http://www.w3.org/2000/svg"
   xmlns:svg="http://www.w3.org/2000/svg">
  <sodipodi:namedview
     id="namedview1"
     pagecolor="#505050"
     bordercolor="#eeeeee"
     borderopacity="1"
     inkscape:showpageshadow="0"
     inkscape:pageopacity="0"
     inkscape:pagecheckerboard="0"
     inkscape:deskcolor="#505050"
     inkscape:document-units="mm"
     showgrid="true"
     inkscape:zoom="1.5004889"
     inkscape:cx="824.39797"
     inkscape:cy="311.56512"
     inkscape:window-width="2560"
     inkscape:window-height="1369"
     inkscape:window-x="3832"
     inkscape:window-y="-8"
     inkscape:window-maximized="1"
     inkscape:current-layer="g27">
    <inkscape:grid
       id="grid1"
       units="mm"
       originx="0"
       originy="0"
       spacingx="0.99999999"
       spacingy="1"
       empcolor="#0099e5"
       empopacity="0.30196078"
       color="#0099e5"
       opacity="0.14901961"
       empspacing="5"
       dotted="false"
       gridanglex="30"
       gridanglez="30"
       visible="true" />
  </sodipodi:namedview>
  <defs
     id="defs1" />
  <g
     inkscape:groupmode="layer"
     id="g27"
     inkscape:label="Case-FRL"
     style="display:inline">
    <path
       id="rect6"
       style="fill:none;fill-opacity:0.0108108;stroke:#fdff1e;stroke-width:0.0895358;stroke-opacity:1"
       d="M 21.475175 34.28783 C 20.921181 34.28783 20.475236 34.733769 20.475236 35.287769 L 20.475236 38.857576 L 16.045015 38.857576 C 15.491022 38.857576 15.04456 39.303522 15.04456 39.857515 L 15.04456 136.05526 C 15.04456 136.60926 15.491022 137.0552 16.045015 137.0552 L 33.474959 137.0552 L 33.474959 140.66377 C 33.474959 141.2177 33.920905 141.66422 34.474898 141.66422 L 72.625024 141.66422 C 73.179024 141.66422 73.624963 141.2177 73.624963 140.66377 L 73.624963 137.0552 L 231.47476 137.0552 L 231.47476 140.66377 C 231.47476 141.21775 231.92122 141.66422 232.47522 141.66422 L 270.62483 141.66422 C 271.17881 141.66422 271.62476 141.21775 271.62476 140.66377 L 271.62476 137.0552 L 317.4752 137.0552 L 317.4752 140.66377 C 317.4752 141.21776 317.92113 141.66422 318.47513 141.66422 L 356.62474 141.66422 C 357.17874 141.66422 357.6252 141.21776 357.6252 140.66377 L 357.6252 137.0552 L 362.65538 137.0552 C 363.20938 137.0552 363.65532 136.60926 363.65532 136.05526 L 363.65532 39.857515 C 363.65532 39.303522 363.20938 38.857576 362.65538 38.857576 L 357.6252 38.857576 L 357.6252 35.287769 C 357.6252 34.733769 357.17874 34.28783 356.62474 34.28783 L 318.47513 34.28783 C 317.92113 34.28783 317.4752 34.733769 317.4752 35.287769 L 317.4752 38.857576 L 258.62504 38.857576 L 258.62504 35.287769 C 258.62504 34.733769 258.1791 34.28783 257.6251 34.28783 L 219.47498 34.28783 C 218.92098 34.28783 218.47504 34.733769 218.47504 35.287769 L 218.47504 38.857576 L 159.62488 38.857576 L 159.62488 35.287769 C 159.62488 34.733769 159.17894 34.28783 158.62494 34.28783 L 120.47482 34.28783 C 119.92082 34.28783 119.47488 34.733769 119.47488 35.287769 L 119.47488 38.857576 L 60.62524 38.857576 L 60.62524 35.287769 C 60.62524 34.733769 60.178784 34.28783 59.624784 34.28783 L 21.475175 34.28783 z " />
    <rect
       style="fill:none;fill-opacity:0.0923077;stroke:#fdff1e;stroke-width:0.0911037;stroke-opacity:1"
       id="rect7"
       width="354.95889"
       height="118.5459"
       x="11.870551"
       y="28.683554"
       rx="0.99999994"
       ry="1.0000001" />
    <circle
       style="fill:none;fill-opacity:0.0108108;stroke:#fdff1e;stroke-width:0.0999999;stroke-opacity:1"
       id="ellipse14"
       cx="16.5"
       cy="33.813"
       r="1.2750001" />
    <circle
       style="fill:none;fill-opacity:0.0108108;stroke:#fdff1e;stroke-width:0.0999999;stroke-opacity:1"
       id="ellipse15"
       cx="362.20001"
       cy="33.813"
       r="1.2750001" />
    <circle
       style="fill:none;fill-opacity:0.0108108;stroke:#fdff1e;stroke-width:0.0999999;stroke-opacity:1"
       id="ellipse16"
       cx="265.20001"
       cy="33.813"
       r="1.2750001" />
    <circle
       style="fill:none;fill-opacity:0.0108108;stroke:#fdff1e;stroke-width:0.0999999;stroke-opacity:1"
       id="circle16"
       cx="113.5"
       cy="33.813"
       r="1.2750001" />
    <circle
       style="fill:none;fill-opacity:0.0108108;stroke:#fdff1e;stroke-width:0.0999999;stroke-opacity:1"
       id="ellipse17"
       cx="16.5"
       cy="142"
       r="1.2750001" />
    <circle
       style="fill:none;fill-opacity:0.0108108;stroke:#fdff1e;stroke-width:0.0999999;stroke-opacity:1"
       id="ellipse18"
       cx="362.19998"
       cy="141.5"
       r="1.2750001" />
    <circle
       style="fill:none;fill-opacity:0.0108108;stroke:#fdff1e;stroke-width:0.0999999;stroke-opacity:1"
       id="ellipse19"
       cx="225.2"
       cy="142"
       r="1.2750001" />
    <circle
       style="fill:none;fill-opacity:0.0108108;stroke:#fdff1e;stroke-width:0.0999999;stroke-opacity:1"
       id="circle19"
       cx="113.5"
       cy="142"
       r="1.2750001" />
  </g>
</svg>
