<?xml version="1.0" encoding="UTF-8" standalone="no"?>
<!-- Created with Inkscape (http://www.inkscape.org/) -->

<svg
   width="375mm"
   height="320mm"
   viewBox="0 0 375 320"
   version="1.1"
   id="svg1"
   inkscape:version="1.3.2 (091e20e, 2023-11-25, custom)"
   sodipodi:docname="frl-side-1.svg"
   xmlns:inkscape="http://www.inkscape.org/namespaces/inkscape"
   xmlns:sodipodi="http://sodipodi.sourceforge.net/DTD/sodipodi-0.dtd"
   xmlns="http://www.w3.org/2000/svg"
   xmlns:svg="http://www.w3.org/2000/svg">
  <sodipodi:namedview
     id="namedview1"
     pagecolor="#505050"
     bordercolor="#eeeeee"
     borderopacity="1"
     inkscape:showpageshadow="0"
     inkscape:pageopacity="0"
     inkscape:pagecheckerboard="0"
     inkscape:deskcolor="#505050"
     inkscape:document-units="mm"
     showgrid="true"
     inkscape:zoom="0.6788216"
     inkscape:cx="474.35143"
     inkscape:cy="480.98057"
     inkscape:window-width="1920"
     inkscape:window-height="1017"
     inkscape:window-x="-8"
     inkscape:window-y="-8"
     inkscape:window-maximized="1"
     inkscape:current-layer="g27">
    <inkscape:grid
       id="grid1"
       units="mm"
       originx="0"
       originy="0"
       spacingx="0.99999999"
       spacingy="1"
       empcolor="#0099e5"
       empopacity="0.30196078"
       color="#0099e5"
       opacity="0.14901961"
       empspacing="5"
       dotted="false"
       gridanglex="30"
       gridanglez="30"
       visible="true" />
  </sodipodi:namedview>
  <defs
     id="defs1" />
  <g
     inkscape:groupmode="layer"
     id="g27"
     inkscape:label="Case-FRL"
     style="display:inline">
    <path
       id="rect7"
       style="fill:none;fill-opacity:0.248963;stroke:#00ffff;stroke-width:0.0911037;stroke-opacity:1"
       inkscape:label="wall-outter"
       d="m 12.546078,28.658716 c -1.66199,0 -3.0003341,1.337828 -3.0003341,2.999817 V 144.25424 c 0,1.662 1.3383441,3.00034 3.0003341,3.00034 H 366.15443 c 1.662,0 2.99982,-1.33834 2.99982,-3.00034 V 31.658533 c 0,-1.661989 -1.33782,-2.999817 -2.99982,-2.999817 H 196.95025 v 10.398848 h 165.80491 c 0.5539,0 0.99993,0.446466 0.99993,1.000456 v 95.79725 c 0,0.554 -0.44603,0.99994 -0.99993,0.99994 H 15.945353 c -0.55399,0 -1.000455,-0.44594 -1.000455,-0.99994 V 40.05802 c 0,-0.55399 0.446465,-1.000456 1.000455,-1.000456 H 179.05005 V 28.658716 Z m 2.15439,4.30413 c 0.745621,1.17e-4 1.349956,0.604684 1.349788,1.350305 -1.17e-4,0.745419 -0.604369,1.349671 -1.349788,1.349788 -0.745621,1.68e-4 -1.350188,-0.604167 -1.350305,-1.349788 -1.68e-4,-0.745823 0.604482,-1.350473 1.350305,-1.350305 z m 98.799582,0 c 0.74562,1.16e-4 1.34996,0.604683 1.34979,1.350305 -1.2e-4,0.74542 -0.60437,1.349672 -1.34979,1.349788 -0.74562,1.71e-4 -1.35019,-0.604165 -1.35031,-1.349788 -1.7e-4,-0.745825 0.60449,-1.350476 1.35031,-1.350305 z m 151.69978,0 c 0.74582,-1.71e-4 1.35048,0.60448 1.35031,1.350305 -1.2e-4,0.745623 -0.60469,1.349959 -1.35031,1.349788 -0.74542,-1.16e-4 -1.34967,-0.604368 -1.34979,-1.349788 -1.7e-4,-0.745622 0.60417,-1.350189 1.34979,-1.350305 z m 98.79969,0 c 0.74583,-1.71e-4 1.35048,0.60448 1.35031,1.350305 -1.1e-4,0.745623 -0.60468,1.349959 -1.35031,1.349788 -0.74541,-1.21e-4 -1.34966,-0.604372 -1.34978,-1.349788 -1.6e-4,-0.745618 0.60417,-1.350184 1.34978,-1.350305 z M 14.700468,140.1501 c 0.74542,1.2e-4 1.349672,0.60437 1.349788,1.34979 1.71e-4,0.74562 -0.604165,1.35019 -1.349788,1.35031 -0.745824,1.7e-4 -1.350476,-0.60449 -1.350305,-1.35031 1.16e-4,-0.74562 0.604684,-1.34996 1.350305,-1.34979 z m 98.799582,0 c 0.74542,1.2e-4 1.34967,0.60437 1.34979,1.34979 1.7e-4,0.74562 -0.60417,1.35019 -1.34979,1.35031 -0.74583,1.7e-4 -1.35048,-0.60448 -1.35031,-1.35031 1.2e-4,-0.74562 0.60469,-1.34996 1.35031,-1.34979 z m 111.70016,0 c 0.74542,1.2e-4 1.34967,0.60437 1.34979,1.34979 1.7e-4,0.74562 -0.60417,1.35019 -1.34979,1.35031 -0.74583,1.7e-4 -1.35048,-0.60448 -1.35031,-1.35031 1.2e-4,-0.74562 0.60469,-1.34996 1.35031,-1.34979 z m 138.79931,0 c 0.74563,-1.7e-4 1.3502,0.60417 1.35031,1.34979 1.8e-4,0.74583 -0.60448,1.35048 -1.35031,1.35031 -0.74561,-1.2e-4 -1.34995,-0.60469 -1.34978,-1.35031 1.2e-4,-0.74542 0.60437,-1.34967 1.34978,-1.34979 z"
       sodipodi:nodetypes="ssssssssccssssssssccscccccccccccscscssssscccccccccccccccsssss" />
  </g>
</svg>
