<?xml version="1.0" encoding="UTF-8" standalone="no"?>
<!-- Created with Inkscape (http://www.inkscape.org/) -->

<svg
   width="375mm"
   height="320mm"
   viewBox="0 0 375 320"
   version="1.1"
   id="svg1"
   inkscape:version="1.3.2 (091e20e, 2023-11-25, custom)"
   sodipodi:docname="frl-bottom.svg"
   xmlns:inkscape="http://www.inkscape.org/namespaces/inkscape"
   xmlns:sodipodi="http://sodipodi.sourceforge.net/DTD/sodipodi-0.dtd"
   xmlns="http://www.w3.org/2000/svg"
   xmlns:svg="http://www.w3.org/2000/svg">
  <sodipodi:namedview
     id="namedview1"
     pagecolor="#505050"
     bordercolor="#eeeeee"
     borderopacity="1"
     inkscape:showpageshadow="0"
     inkscape:pageopacity="0"
     inkscape:pagecheckerboard="0"
     inkscape:deskcolor="#505050"
     inkscape:document-units="mm"
     showgrid="true"
     inkscape:zoom="0.6788216"
     inkscape:cx="760.14081"
     inkscape:cy="87.651896"
     inkscape:window-width="1920"
     inkscape:window-height="1017"
     inkscape:window-x="-8"
     inkscape:window-y="-8"
     inkscape:window-maximized="1"
     inkscape:current-layer="g27">
    <inkscape:grid
       id="grid1"
       units="mm"
       originx="0"
       originy="0"
       spacingx="0.99999999"
       spacingy="1"
       empcolor="#0099e5"
       empopacity="0.30196078"
       color="#0099e5"
       opacity="0.14901961"
       empspacing="5"
       dotted="false"
       gridanglex="30"
       gridanglez="30"
       visible="true" />
  </sodipodi:namedview>
  <defs
     id="defs1" />
  <g
     inkscape:groupmode="layer"
     id="g27"
     inkscape:label="Case-FRL"
     style="display:inline">
    <path
       id="rect7"
       style="fill:none;fill-opacity:0;stroke:#00ffff;stroke-width:0.0911037;stroke-opacity:1"
       inkscape:label="wall-outter"
       d="m 12.546027,28.658716 c -1.661991,0 -3.0003341,1.337827 -3.0003341,2.999817 V 144.25424 c 0,1.662 1.3383431,3.00034 3.0003341,3.00034 H 366.15449 c 1.662,0 2.99982,-1.33834 2.99982,-3.00034 V 31.658533 c 0,-1.66199 -1.33782,-2.999817 -2.99982,-2.999817 H 196.95025 v 21.304126 c 0,1.661998 -1.33833,3.000333 -3.00033,3.000333 h -11.90005 c -1.662,0 -2.99982,-1.338335 -2.99982,-3.000333 V 28.658716 Z m 2.15439,4.30413 c 0.745621,1.17e-4 1.349956,0.604684 1.349788,1.350305 -1.17e-4,0.745419 -0.604369,1.349671 -1.349788,1.349788 -0.745621,1.68e-4 -1.350188,-0.604167 -1.350305,-1.349788 -1.68e-4,-0.745823 0.604482,-1.350473 1.350305,-1.350305 z m 98.799633,0 c 0.74562,1.16e-4 1.34996,0.604683 1.34979,1.350305 -1.2e-4,0.74542 -0.60437,1.349672 -1.34979,1.349788 -0.74562,1.71e-4 -1.35019,-0.604165 -1.35031,-1.349788 -1.7e-4,-0.745825 0.60449,-1.350476 1.35031,-1.350305 z m 151.69978,0 c 0.74582,-1.71e-4 1.35048,0.60448 1.35031,1.350305 -1.2e-4,0.745623 -0.60469,1.349959 -1.35031,1.349788 -0.74542,-1.16e-4 -1.34967,-0.604368 -1.34979,-1.349788 -1.7e-4,-0.745622 0.60417,-1.350189 1.34979,-1.350305 z m 98.79975,0 c 0.74582,-1.71e-4 1.35048,0.60448 1.35031,1.350305 -1.2e-4,0.745623 -0.60469,1.349959 -1.35031,1.349788 -0.74542,-1.21e-4 -1.34966,-0.604372 -1.34978,-1.349788 -1.7e-4,-0.745618 0.60416,-1.350184 1.34978,-1.350305 z M 14.700417,139.7 c 0.994027,6e-5 1.799829,0.80586 1.79989,1.79989 -6.1e-5,0.99403 -0.805863,1.79983 -1.79989,1.79989 -0.994027,-6e-5 -1.799829,-0.80586 -1.79989,-1.79989 6.1e-5,-0.99403 0.805863,-1.79983 1.79989,-1.79989 z m 98.799633,0 c 0.99403,6e-5 1.79983,0.80586 1.79989,1.79989 -6e-5,0.99403 -0.80586,1.79983 -1.79989,1.79989 -0.99403,-6e-5 -1.79983,-0.80586 -1.79989,-1.79989 6e-5,-0.99403 0.80586,-1.79983 1.79989,-1.79989 z m 111.70016,0 c 0.99403,6e-5 1.79983,0.80586 1.79989,1.79989 -6e-5,0.99403 -0.80586,1.79983 -1.79989,1.79989 -0.99423,2.3e-4 -1.80035,-0.80566 -1.80041,-1.79989 6e-5,-0.99423 0.80618,-1.80012 1.80041,-1.79989 z m 138.79937,0 c 0.99423,-2.3e-4 1.80035,0.80566 1.80041,1.79989 -6e-5,0.99423 -0.80618,1.80012 -1.80041,1.79989 -0.99403,-6e-5 -1.79983,-0.80586 -1.79989,-1.79989 6e-5,-0.99403 0.80586,-1.79983 1.79989,-1.79989 z"
       sodipodi:nodetypes="sssssssscsssscscccccccccccscscssssscccccccccccccccccccc" />
  </g>
</svg>
