<?xml version="1.0" encoding="UTF-8" standalone="no"?>
<!-- Created with Inkscape (http://www.inkscape.org/) -->

<svg
   width="375mm"
   height="320mm"
   viewBox="0 0 375 320"
   version="1.1"
   id="svg1"
   inkscape:version="1.3.2 (091e20e, 2023-11-25, custom)"
   sodipodi:docname="frl-side-2.svg"
   xmlns:inkscape="http://www.inkscape.org/namespaces/inkscape"
   xmlns:sodipodi="http://sodipodi.sourceforge.net/DTD/sodipodi-0.dtd"
   xmlns="http://www.w3.org/2000/svg"
   xmlns:svg="http://www.w3.org/2000/svg">
  <sodipodi:namedview
     id="namedview1"
     pagecolor="#505050"
     bordercolor="#eeeeee"
     borderopacity="1"
     inkscape:showpageshadow="0"
     inkscape:pageopacity="0"
     inkscape:pagecheckerboard="0"
     inkscape:deskcolor="#505050"
     inkscape:document-units="mm"
     showgrid="true"
     inkscape:zoom="0.95999871"
     inkscape:cx="699.4801"
     inkscape:cy="355.72964"
     inkscape:window-width="1920"
     inkscape:window-height="1017"
     inkscape:window-x="-8"
     inkscape:window-y="-8"
     inkscape:window-maximized="1"
     inkscape:current-layer="g27">
    <inkscape:grid
       id="grid1"
       units="mm"
       originx="0"
       originy="0"
       spacingx="0.99999999"
       spacingy="1"
       empcolor="#0099e5"
       empopacity="0.30196078"
       color="#0099e5"
       opacity="0.14901961"
       empspacing="5"
       dotted="false"
       gridanglex="30"
       gridanglez="30"
       visible="true" />
  </sodipodi:namedview>
  <defs
     id="defs1" />
  <g
     inkscape:groupmode="layer"
     id="g27"
     inkscape:label="Case-FRL"
     style="display:inline">
    <path
       id="rect7"
       style="fill:none;fill-opacity:0.248963;stroke:#00ffff;stroke-width:0.0911037;stroke-opacity:1"
       inkscape:label="wall-outter"
       d="M 12.845728 28.658716 C 11.183744 28.658716 9.8453939 29.99655 9.8453939 31.658533 L 9.8453939 144.25424 C 9.8453939 145.91624 11.183744 147.25458 12.845728 147.25458 L 365.85467 147.25458 C 367.51667 147.25458 368.85449 145.91624 368.85449 144.25424 L 368.85449 31.658533 C 368.85449 29.99655 367.51667 28.658716 365.85467 28.658716 L 12.845728 28.658716 z M 15.000118 32.962846 A 1.3500003 1.3500003 0 0 1 16.349906 34.313151 A 1.3500003 1.3500003 0 0 1 15.000118 35.662939 A 1.3500003 1.3500003 0 0 1 13.649813 34.313151 A 1.3500003 1.3500003 0 0 1 15.000118 32.962846 z M 113.50005 32.962846 A 1.35 1.3500003 0 0 1 114.84984 34.313151 A 1.35 1.3500003 0 0 1 113.50005 35.662939 A 1.35 1.3500003 0 0 1 112.14974 34.313151 A 1.35 1.3500003 0 0 1 113.50005 32.962846 z M 265.19983 32.962846 A 1.35 1.3500003 0 0 1 266.55014 34.313151 A 1.35 1.3500003 0 0 1 265.19983 35.662939 A 1.35 1.3500003 0 0 1 263.85004 34.313151 A 1.35 1.3500003 0 0 1 265.19983 32.962846 z M 363.69976 32.962846 A 1.35 1.3500003 0 0 1 365.05007 34.313151 A 1.35 1.3500003 0 0 1 363.69976 35.662939 A 1.35 1.3500003 0 0 1 362.34998 34.313151 A 1.35 1.3500003 0 0 1 363.69976 32.962846 z M 21.299992 34.113163 L 59.799967 34.113163 C 60.353967 34.113163 60.799906 34.559117 60.799906 35.113102 L 60.799906 39.057564 L 119.30021 39.057564 L 119.30021 35.113102 C 119.30021 34.559116 119.74615 34.113163 120.30015 34.113163 L 158.80013 34.113163 C 159.35413 34.113163 159.80007 34.559116 159.80007 35.113102 L 159.80007 39.057564 L 218.29985 39.057564 L 218.29985 35.113102 C 218.29985 34.559115 218.74579 34.113163 219.29979 34.113163 L 257.79977 34.113163 C 258.35377 34.113163 258.80022 34.559115 258.80022 35.113102 L 258.80022 39.057564 L 317.30001 39.057564 L 317.30001 35.113102 C 317.30001 34.559114 317.74595 34.113163 318.29995 34.113163 L 356.79993 34.113163 C 357.35393 34.113163 357.79987 34.559114 357.79987 35.113102 L 357.79987 39.057564 L 362.4554 39.057564 C 363.00924 39.057564 363.45533 39.504036 363.45533 40.05802 L 363.45533 135.85527 C 363.45533 136.40927 363.00924 136.85521 362.4554 136.85521 L 357.79987 136.85521 L 357.79987 140.83895 C 357.79987 141.39295 357.35393 141.83889 356.79993 141.83889 L 318.29995 141.83889 C 317.74595 141.83889 317.30001 141.39295 317.30001 140.83895 L 317.30001 136.85521 L 271.79995 136.85521 L 271.79995 140.83895 C 271.79995 141.39295 271.35401 141.83889 270.80001 141.83889 L 232.30003 141.83889 C 231.74603 141.83889 231.30009 141.39295 231.30009 140.83895 L 231.30009 136.85521 L 73.800146 136.85521 L 73.800146 140.83895 C 73.800146 141.39295 73.354197 141.83889 72.800208 141.83889 L 34.300232 141.83889 C 33.746232 141.83889 33.299776 141.39295 33.299776 140.83895 L 33.299776 136.85521 L 16.245003 136.85521 C 15.691019 136.85521 15.244548 136.40927 15.244548 135.85527 L 15.244548 40.05802 C 15.244548 39.504036 15.691019 39.057564 16.245003 39.057564 L 20.300053 39.057564 L 20.300053 35.113102 C 20.300053 34.559117 20.745992 34.113163 21.299992 34.113163 z M 15.000118 140.1501 A 1.35 1.3500003 0 0 1 16.349906 141.49989 A 1.35 1.3500003 0 0 1 15.000118 142.8502 A 1.35 1.3500003 0 0 1 13.649813 141.49989 A 1.35 1.3500003 0 0 1 15.000118 140.1501 z M 113.50005 140.1501 A 1.35 1.3500003 0 0 1 114.84984 141.49989 A 1.35 1.3500003 0 0 1 113.50005 142.8502 A 1.35 1.3500003 0 0 1 112.14974 141.49989 A 1.35 1.3500003 0 0 1 113.50005 140.1501 z M 225.20021 140.1501 A 1.35 1.3500003 0 0 1 226.55 141.49989 A 1.35 1.3500003 0 0 1 225.20021 142.8502 A 1.35 1.3500003 0 0 1 223.8499 141.49989 A 1.35 1.3500003 0 0 1 225.20021 140.1501 z M 363.69976 140.1501 A 1.35 1.3500003 0 0 1 365.05007 141.49989 A 1.35 1.3500003 0 0 1 363.69976 142.8502 A 1.35 1.3500003 0 0 1 362.34998 141.49989 A 1.35 1.3500003 0 0 1 363.69976 140.1501 z " />
  </g>
</svg>
