<?xml version="1.0" encoding="UTF-8" standalone="no"?>
<svg
   width="357.66299mm"
   height="112mm"
   viewBox="0 0 357.663 112"
   version="1.1"
   id="svg1"
   sodipodi:docname="bb-plate-frl.svg"
   inkscape:version="1.3.2 (091e20e, 2023-11-25, custom)"
   xmlns:inkscape="http://www.inkscape.org/namespaces/inkscape"
   xmlns:sodipodi="http://sodipodi.sourceforge.net/DTD/sodipodi-0.dtd"
   xmlns="http://www.w3.org/2000/svg"
   xmlns:svg="http://www.w3.org/2000/svg">
  <defs
     id="defs1" />
  <sodipodi:namedview
     id="namedview1"
     pagecolor="#505050"
     bordercolor="#eeeeee"
     borderopacity="1"
     inkscape:showpageshadow="0"
     inkscape:pageopacity="0"
     inkscape:pagecheckerboard="0"
     inkscape:deskcolor="#505050"
     inkscape:document-units="mm"
     showgrid="true"
     inkscape:zoom="1.0192225"
     inkscape:cx="839.85587"
     inkscape:cy="72.113793"
     inkscape:window-width="2560"
     inkscape:window-height="1369"
     inkscape:window-x="3832"
     inkscape:window-y="-8"
     inkscape:window-maximized="1"
     inkscape:current-layer="layer3"
     showguides="true">
    <inkscape:grid
       id="grid1"
       units="mm"
       originx="0"
       originy="0"
       spacingx="1"
       spacingy="1"
       empcolor="#0099e5"
       empopacity="0.30196078"
       color="#0099e5"
       opacity="0.14901961"
       empspacing="5"
       dotted="false"
       gridanglex="30"
       gridanglez="30"
       visible="true" />
  </sodipodi:namedview>
  <g
     inkscape:groupmode="layer"
     id="layer1"
     inkscape:label="Layer 1"
     sodipodi:insensitive="true">
    <path
       id="rect118"
       style="fill:#383838;fill-opacity:1;stroke:#00ffff;stroke-width:0.1;stroke-dasharray:none;stroke-opacity:1"
       d="m 13.524756,1.5249247 c -0.554,0 -0.999939,0.4459431 -0.999939,0.999939 V 6.424884 c 0,0.034362 0.007,0.066802 0.01033,0.1002524 H 8.525061 c -0.5539958,0 -0.9999389,0.4459431 -0.9999389,0.9999388 V 102.7832 c 0,0.554 0.4459431,0.99994 0.9999389,0.99994 h 17.009814 c -0.0033,0.0333 -0.0098,0.0656 -0.0098,0.0997 v 3.90002 c 0,0.554 0.445939,0.99994 0.999939,0.99994 h 37.900012 c 0.554,0 0.999939,-0.44594 0.999939,-0.99994 v -3.90002 c 0,-0.0342 -0.0065,-0.0665 -0.0098,-0.0997 H 223.53468 c -0.003,0.0333 -0.01,0.0656 -0.01,0.0997 v 3.90002 c 0,0.554 0.44594,0.99994 0.99994,0.99994 h 37.90001 c 0.554,0 0.99994,-0.44594 0.99994,-0.99994 v -3.90002 c 0,-0.0342 -0.007,-0.0665 -0.01,-0.0997 h 46.12018 c -0.003,0.0333 -0.0103,0.0655 -0.0103,0.0997 v 3.90002 c 0,0.554 0.44645,0.99994 1.00045,0.99994 h 37.90001 c 0.554,0 0.99994,-0.44594 0.99994,-0.99994 v -3.90002 c 0,-0.0342 -0.007,-0.0665 -0.0103,-0.0997 h 4.7103 c 0.554,0 0.99994,-0.44594 0.99994,-0.99994 V 7.5250753 c 0,-0.5539958 -0.44594,-0.9999389 -0.99994,-0.9999389 h -4.7103 c 0.003,-0.03345 0.0103,-0.06589 0.0103,-0.1002523 V 2.5248637 c 0,-0.5539976 -0.44594,-0.999939 -0.99994,-0.999939 H 310.5249 c -0.554,0 -1.00045,0.4459413 -1.00045,0.999939 V 6.424884 c 0,0.034362 0.007,0.066802 0.0103,0.1002524 h -59.1199 c 0.003,-0.033442 0.01,-0.065899 0.01,-0.1002524 V 2.5248637 c 0,-0.5539971 -0.44598,-0.999939 -0.99993,-0.999939 H 211.5249 c -0.554,0 -0.99994,0.4459419 -0.99994,0.999939 V 6.424884 c 0,0.034353 0.006,0.06681 0.01,0.1002524 h -59.1199 c 0.003,-0.033442 0.01,-0.065899 0.01,-0.1002524 V 2.5248637 c 0,-0.5539965 -0.44594,-0.999939 -0.99994,-0.999939 H 112.5251 c -0.55394,0 -0.99993,0.4459425 -0.99993,0.999939 V 6.424884 c 0,0.034353 0.006,0.06681 0.01,0.1002524 H 52.414889 c 0.0034,-0.03345 0.01033,-0.06589 0.01033,-0.1002524 V 2.5248637 c 0,-0.5539959 -0.446456,-0.999939 -1.000456,-0.999939 z"
       inkscape:label="edge-cut"
       sodipodi:nodetypes="ssscsssscssssssccssssssccsssssscsssscssssssccssssssccssssssccssss" />
  </g>
  <g
     inkscape:groupmode="layer"
     id="layer3"
     inkscape:label="Layer 3"
     sodipodi:insensitive="true">
    <rect
       style="fill:none;fill-opacity:0.0108108;stroke:#ff00ff;stroke-width:0.0999997;stroke-dasharray:none;stroke-opacity:1"
       id="rect119-2-1-1"
       width="1.9"
       height="12"
       x="36.335999"
       y="49.238003"
       rx="1"
       ry="0.99999994"
       inkscape:label="acoutsic-5" />
    <rect
       style="fill:none;fill-opacity:0.0108108;stroke:#ff00ff;stroke-width:0.0999995;stroke-dasharray:none;stroke-opacity:1"
       id="rect119-2-1-5"
       width="1.9"
       height="29"
       x="294.79999"
       y="69.200996"
       rx="1"
       ry="0.99999994"
       inkscape:label="acoutsic-6" />
    <rect
       style="fill:none;fill-opacity:0.0108108;stroke:#ff00ff;stroke-width:0.0999997;stroke-dasharray:none;stroke-opacity:1"
       id="rect119-2-1-5-5"
       width="1.9"
       height="12"
       x="294.79999"
       y="11.050999"
       rx="1"
       ry="0.99999994"
       inkscape:label="acoutsic-12" />
    <rect
       style="fill:none;fill-opacity:0.0108108;stroke:#ff00ff;stroke-width:0.0999997;stroke-dasharray:none;stroke-opacity:1"
       id="rect119-2-1-2"
       width="1.9"
       height="26.058001"
       x="294.79999"
       y="32.100998"
       rx="1"
       ry="1"
       inkscape:label="acoutsic-14" />
    <path
       style="fill:none;stroke:#ed00ff;stroke-width:0.0916937"
       d="M 314.46724,81.1052 V 67.261684 L 300.62368,81.1052 Z"
       id="path1"
       sodipodi:nodetypes="cccc"
       inkscape:label="acoustic-arrow-1" />
    <path
       style="fill:none;stroke:#ed00ff;stroke-width:0.0916937"
       d="M 338.65885,81.1052 V 67.261684 L 352.50241,81.1052 Z"
       id="path1-4"
       sodipodi:nodetypes="cccc"
       inkscape:label="acoustic-arrow2" />
  </g>
  <g
     inkscape:groupmode="layer"
     id="layer2"
     inkscape:label="Layer 2"
     transform="translate(0,-23.812)"
     sodipodi:insensitive="true">
    <path
       id="path234"
       style="font-size:12px;fill:none;fill-rule:evenodd;stroke:#ffff00;stroke-width:0.1;stroke-linecap:round;stroke-dasharray:none;stroke-opacity:1"
       d="m 272.48776,52.913049 c -0.27592,1.6e-4 -0.49955,0.223795 -0.49971,0.499711 V 66.413 c -1.3e-4,0.276118 0.22359,0.500068 0.49971,0.500228 h 1.88102 v 5.049821 h -7.93078 -1.09399 -1.93787 v -1.500167 c -1.6e-4,-0.276115 -0.2241,-0.499833 -0.50022,-0.499711 h -6.00015 c -0.27592,1.54e-4 -0.49956,0.223791 -0.49972,0.499711 v 1.500167 h -2.96829 c -0.27592,1.6e-4 -0.49955,0.223795 -0.49971,0.499711 V 85.463 c -1.3e-4,0.276118 0.22359,0.500068 0.49971,0.500228 h 11.90625 1.09399 11.90625 c 0.27612,-1.6e-4 0.49984,-0.22411 0.49971,-0.500228 v -0.587044 h 1.72806 c 0.0623,0.04465 0.13414,0.07435 0.20981,0.08682 h 6.00015 c 0.0757,-0.01247 0.14745,-0.04217 0.2098,-0.08682 h 2.87735 c 0.27592,-1.6e-4 0.49955,-0.223795 0.49971,-0.499711 v -6.00015 c 1.3e-4,-0.276118 -0.22359,-0.500068 -0.49971,-0.500228 h -2.58692 v -1.437639 h 0.58704 c 0.27612,-1.6e-4 0.49984,-0.22411 0.49971,-0.500228 V 62.93776 c -1.6e-4,-0.275916 -0.22379,-0.499551 -0.49971,-0.499711 h -1.88102 v -1.438155 h 3.8809 c 0.27592,-1.6e-4 0.49955,-0.223795 0.49971,-0.499711 v -6.00015 c 1.3e-4,-0.276118 -0.22359,-0.500068 -0.49971,-0.500228 h -3.8809 V 53.41276 c -1.6e-4,-0.276119 -0.22411,-0.499838 -0.50023,-0.499711 z"
       sodipodi:nodetypes="ccccccccccccccccccccccccccccccccccccccccccccccc" />
    <path
       id="path232"
       style="font-size:12px;fill:none;fill-rule:evenodd;stroke:#ffff00;stroke-width:0.1;stroke-linecap:round;stroke-dasharray:none;stroke-opacity:1"
       d="m 204.54979,108.06317 a 0.5,0.5 0 0 0 -0.49971,0.49971 v 1.50017 h -0.61909 a 0.5,0.5 0 0 0 -0.50022,0.49971 V 123.563 a 0.5,0.5 0 0 0 0.50022,0.50023 h 13.00024 a 0.5,0.5 0 0 0 0.49971,-0.50023 v -13.00024 a 0.5,0.5 0 0 0 -0.49971,-0.49971 h -5.38106 v -1.50017 a 0.5,0.5 0 0 0 -0.50023,-0.49971 z" />
    <path
       id="path231"
       style="font-size:12px;fill:none;fill-rule:evenodd;stroke:#ffff00;stroke-width:0.1;stroke-linecap:round;stroke-dasharray:none;stroke-opacity:1"
       d="m 85.494006,108.06317 a 0.5,0.5 0 0 0 -0.500228,0.49971 v 14.00018 a 0.5,0.5 0 0 0 0.500228,0.49971 h 4.755782 1.244369 4.755782 a 0.5,0.5 0 0 0 0.500228,-0.49971 v -14.00018 a 0.5,0.5 0 0 0 -0.500228,-0.49971 h -4.755782 -1.244369 z" />
    <path
       id="path230"
       style="font-size:12px;fill:none;fill-rule:evenodd;stroke:#ffff00;stroke-width:0.1;stroke-linecap:round;stroke-dasharray:none;stroke-opacity:1"
       d="m 185.4941,108.06317 a 0.5,0.5 0 0 0 -0.50022,0.49971 v 1.50017 h -2.99414 a 0.5,0.5 0 0 0 -0.49971,0.49971 V 123.563 a 0.5,0.5 0 0 0 0.49971,0.50023 h 13.00024 a 0.5,0.5 0 0 0 0.50023,-0.50023 v -13.00024 a 0.5,0.5 0 0 0 -0.50023,-0.49971 h -3.00601 v -1.50017 a 0.5,0.5 0 0 0 -0.49972,-0.49971 z" />
    <path
       id="path228"
       style="font-size:12px;fill:none;fill-rule:evenodd;stroke:#ffff00;stroke-width:0.1;stroke-linecap:round;stroke-dasharray:none;stroke-opacity:1"
       d="m 251.05599,91.013049 a 0.5,0.5 0 0 0 -0.50022,0.499711 V 104.513 a 0.5,0.5 0 0 0 0.50022,0.50023 h 0.58705 v 1.49965 a 0.5,0.5 0 0 0 0.49971,0.50023 h 6.00015 a 0.5,0.5 0 0 0 0.50023,-0.50023 v -1.49965 h 1.93786 3.47524 8.54263 0.98237 1.93787 v 1.49965 a 0.5,0.5 0 0 0 0.49971,0.50023 h 6.00015 a 0.5,0.5 0 0 0 0.50023,-0.50023 v -1.49965 h 7.73079 a 0.5,0.5 0 0 0 0.50023,-0.50023 V 91.51276 a 0.5,0.5 0 0 0 -0.50023,-0.499711 h -11.59722 -1.40302 -3.66851 -0.98237 -8.54263 -3.47524 z" />
    <path
       id="path226"
       style="font-size:12px;fill:none;fill-rule:evenodd;stroke:#ffff00;stroke-width:0.1;stroke-linecap:round;stroke-dasharray:none;stroke-opacity:1"
       d="m 14.017749,89.013171 a 0.5,0.5 0 0 0 -0.499711,0.499711 v 1.500167 H 12.930994 A 0.5,0.5 0 0 0 12.430766,91.51276 V 104.513 a 0.5,0.5 0 0 0 0.500228,0.50023 h 9.525 3.47524 8.431526 1.093474 H 47.363 A 0.5,0.5 0 0 0 47.863228,104.513 V 91.51276 A 0.5,0.5 0 0 0 47.363,91.013049 H 44.394189 V 89.512882 A 0.5,0.5 0 0 0 43.893962,89.013171 H 37.893811 A 0.5,0.5 0 0 0 37.3941,89.512882 v 1.500167 H 35.456234 34.36276 25.931234 22.455994 20.518127 V 89.512882 A 0.5,0.5 0 0 0 20.0179,89.013171 Z" />
    <path
       id="path222"
       style="font-size:12px;fill:none;fill-rule:evenodd;stroke:#ffff00;stroke-width:0.1;stroke-linecap:round;stroke-dasharray:none;stroke-opacity:1"
       d="m 259.28702,49.863057 a 0.5,0.5 0 0 1 -0.50023,-0.499711 v -1.500167 h -0.58705 a 0.5,0.5 0 0 1 -0.49971,-0.499711 V 34.363228 A 0.5,0.5 0 0 1 258.19974,33.863 h 9.525 3.47524 6.04976 3.47524 9.525 a 0.5,0.5 0 0 1 0.50023,0.500228 v 13.00024 a 0.5,0.5 0 0 1 -0.50023,0.499711 h -0.58704 v 1.500167 a 0.5,0.5 0 0 1 -0.49971,0.499711 h -6.00015 a 0.5,0.5 0 0 1 -0.50023,-0.499711 v -1.500167 h -1.93787 -3.47524 -6.04976 -3.47524 -1.93786 v 1.500167 a 0.5,0.5 0 0 1 -0.49971,0.499711 z" />
    <path
       style="font-size:12px;fill:none;fill-rule:evenodd;stroke:#ffff00;stroke-width:0.1;stroke-linecap:round;stroke-dasharray:none;stroke-opacity:1"
       d="m 124.85,33.863 h 13 a 0.5,0.5 0 0 1 0.5,0.5 v 13 a 0.5,0.5 0 0 1 -0.5,0.5 h -13 a 0.5,0.5 0 0 1 -0.5,-0.5 v -13 a 0.5,0.5 0 0 1 0.5,-0.5 z"
       id="path220"
       inkscape:label="path220" />
    <path
       id="path219"
       style="font-size:12px;fill:none;fill-rule:evenodd;stroke:#ffff00;stroke-width:0.1;stroke-linecap:round;stroke-dasharray:none;stroke-opacity:1"
       d="m 60.555994,110.06305 a 0.5,0.5 0 0 0 -0.500228,0.49971 V 123.563 a 0.5,0.5 0 0 0 0.500228,0.50023 H 62.93776 73.556234 75.938 A 0.5,0.5 0 0 0 76.438228,123.563 V 110.56276 A 0.5,0.5 0 0 0 75.938,110.06305 H 73.556234 62.93776 Z" />
    <path
       style="font-size:12px;fill:none;fill-rule:evenodd;stroke:#ffff00;stroke-width:0.1;stroke-linecap:round;stroke-dasharray:none;stroke-opacity:1"
       d="m 10.55,33.863 h 13 a 0.5,0.5 0 0 1 0.5,0.5 v 13 a 0.5,0.5 0 0 1 -0.5,0.5 h -13 a 0.5,0.5 0 0 1 -0.5,-0.5 v -13 a 0.5,0.5 0 0 1 0.5,-0.5 z"
       id="path217" />
    <path
       style="font-size:12px;fill:none;fill-rule:evenodd;stroke:#ffff00;stroke-width:0.1;stroke-linecap:round;stroke-dasharray:none;stroke-opacity:1"
       d="m 62.938,71.963 h 13 a 0.5,0.5 0 0 1 0.5,0.5 v 13 a 0.5,0.5 0 0 1 -0.5,0.5 h -13 a 0.5,0.5 0 0 1 -0.5,-0.5 v -13 a 0.5,0.5 0 0 1 0.5,-0.5 z"
       id="path218" />
    <path
       id="path197"
       style="font-size:12px;fill:none;fill-rule:evenodd;stroke:#ffff00;stroke-width:0.1;stroke-linecap:round;stroke-dasharray:none;stroke-opacity:1"
       d="M 12.930994,71.963049 A 0.5,0.5 0 0 0 12.430766,72.46276 V 85.463 a 0.5,0.5 0 0 0 0.500228,0.500228 h 4.763016 8.237224 4.763016 A 0.5,0.5 0 0 0 31.193962,85.463 V 72.46276 A 0.5,0.5 0 0 0 30.69425,71.963049 H 25.931234 17.69401 Z" />
    <path
       id="path192"
       style="font-size:12px;fill:none;fill-rule:evenodd;stroke:#ffff00;stroke-width:0.1;stroke-linecap:round;stroke-dasharray:none;stroke-opacity:1"
       d="m 272.48776,110.06305 a 0.5,0.5 0 0 0 -0.49971,0.49971 V 123.563 a 0.5,0.5 0 0 0 0.49971,0.50023 h 2.38125 10.61899 2.38125 a 0.5,0.5 0 0 0 0.49971,-0.50023 v -13.00024 a 0.5,0.5 0 0 0 -0.49971,-0.49971 H 285.488 274.86901 Z" />
    <path
       id="path191"
       style="font-size:12px;fill:none;fill-rule:evenodd;stroke:#ffff00;stroke-width:0.1;stroke-linecap:round;stroke-dasharray:none;stroke-opacity:1"
       d="m 248.67474,110.06305 a 0.5,0.5 0 0 0 -0.49971,0.49971 V 123.563 a 0.5,0.5 0 0 0 0.49971,0.50023 h 2.38125 10.61899 2.38125 a 0.5,0.5 0 0 0 0.49971,-0.50023 v -13.00024 a 0.5,0.5 0 0 0 -0.49971,-0.49971 h -2.38125 -10.61899 z" />
    <path
       id="path190"
       style="font-size:12px;fill:none;fill-rule:evenodd;stroke:#ffff00;stroke-width:0.1;stroke-linecap:round;stroke-dasharray:none;stroke-opacity:1"
       d="m 224.86276,110.06305 a 0.5,0.5 0 0 0 -0.49971,0.49971 V 123.563 a 0.5,0.5 0 0 0 0.49971,0.50023 h 2.38125 10.61899 2.38125 a 0.5,0.5 0 0 0 0.49971,-0.50023 v -13.00024 a 0.5,0.5 0 0 0 -0.49971,-0.49971 H 237.863 227.24401 Z" />
    <path
       id="path189"
       style="font-size:12px;fill:none;fill-rule:evenodd;stroke:#ffff00;stroke-width:0.1;stroke-linecap:round;stroke-dasharray:none;stroke-opacity:1"
       d="m 128.34979,108.06317 a 0.5,0.5 0 0 0 -0.49971,0.49971 v 14.00018 a 0.5,0.5 0 0 0 0.49971,0.49971 h 3.14399 v 0.50023 a 0.5,0.5 0 0 0 0.50023,0.50023 h 11.90573 1.09451 11.90573 a 0.5,0.5 0 0 0 0.50023,-0.50023 v -13.00024 a 0.5,0.5 0 0 0 -0.50023,-0.49971 h -11.90573 -1.09451 -9.04957 v -1.50017 a 0.5,0.5 0 0 0 -0.50023,-0.49971 z" />
    <path
       id="path188"
       style="font-size:12px;fill:none;fill-rule:evenodd;stroke:#ffff00;stroke-width:0.1;stroke-linecap:round;stroke-dasharray:none;stroke-opacity:1"
       d="m 36.74401,110.06305 a 0.5,0.5 0 0 0 -0.500227,0.49971 V 123.563 a 0.5,0.5 0 0 0 0.500227,0.50023 h 2.380734 10.619506 2.380734 a 0.5,0.5 0 0 0 0.500228,-0.50023 v -13.00024 a 0.5,0.5 0 0 0 -0.500228,-0.49971 H 49.74425 39.124744 Z" />
    <path
       id="path187"
       style="font-size:12px;fill:none;fill-rule:evenodd;stroke:#ffff00;stroke-width:0.1;stroke-linecap:round;stroke-dasharray:none;stroke-opacity:1"
       d="m 12.930994,110.06305 a 0.5,0.5 0 0 0 -0.500228,0.49971 V 123.563 a 0.5,0.5 0 0 0 0.500228,0.50023 H 15.31276 25.931234 28.313 A 0.5,0.5 0 0 0 28.813228,123.563 V 110.56276 A 0.5,0.5 0 0 0 28.313,110.06305 H 25.931234 15.31276 Z" />
    <path
       style="font-size:12px;fill:none;fill-rule:evenodd;stroke:#ffff00;stroke-width:0.1;stroke-linecap:round;stroke-dasharray:none;stroke-opacity:1"
       d="m 339.163,110.063 h 13 a 0.5,0.5 0 0 1 0.5,0.5 v 13 a 0.5,0.5 0 0 1 -0.5,0.5 h -13 a 0.5,0.5 0 0 1 -0.5,-0.5 v -13 a 0.5,0.5 0 0 1 0.5,-0.5 z"
       id="path186" />
    <path
       style="font-size:12px;fill:none;fill-rule:evenodd;stroke:#ffff00;stroke-width:0.1;stroke-linecap:round;stroke-dasharray:none;stroke-opacity:1"
       d="m 320.113,110.063 h 13 a 0.5,0.5 0 0 1 0.5,0.5 v 13 a 0.5,0.5 0 0 1 -0.5,0.5 h -13 a 0.5,0.5 0 0 1 -0.5,-0.5 v -13 a 0.5,0.5 0 0 1 0.5,-0.5 z"
       id="path185" />
    <path
       style="font-size:12px;fill:none;fill-rule:evenodd;stroke:#ffff00;stroke-width:0.1;stroke-linecap:round;stroke-dasharray:none;stroke-opacity:1"
       d="m 301.063,110.063 h 13 a 0.5,0.5 0 0 1 0.5,0.5 v 13 a 0.5,0.5 0 0 1 -0.5,0.5 h -13 a 0.5,0.5 0 0 1 -0.5,-0.5 v -13 a 0.5,0.5 0 0 1 0.5,-0.5 z"
       id="path184" />
    <path
       style="font-size:12px;fill:none;fill-rule:evenodd;stroke:#ffff00;stroke-width:0.1;stroke-linecap:round;stroke-dasharray:none;stroke-opacity:1"
       d="m 320.113,91.013 h 13 a 0.5,0.5 0 0 1 0.5,0.5 v 13 a 0.5,0.5 0 0 1 -0.5,0.5 h -13 a 0.5,0.5 0 0 1 -0.5,-0.5 v -13 a 0.5,0.5 0 0 1 0.5,-0.5 z"
       id="path175" />
    <path
       style="font-size:12px;fill:none;fill-rule:evenodd;stroke:#ffff00;stroke-width:0.1;stroke-linecap:round;stroke-dasharray:none;stroke-opacity:1"
       d="m 224.863,91.013 h 13 a 0.5,0.5 0 0 1 0.5,0.5 v 13 a 0.5,0.5 0 0 1 -0.5,0.5 h -13 a 0.5,0.5 0 0 1 -0.5,-0.5 v -13 a 0.5,0.5 0 0 1 0.5,-0.5 z"
       id="path173" />
    <path
       style="font-size:12px;fill:none;fill-rule:evenodd;stroke:#ffff00;stroke-width:0.1;stroke-linecap:round;stroke-dasharray:none;stroke-opacity:1"
       d="m 205.813,91.013 h 13 a 0.5,0.5 0 0 1 0.5,0.5 v 13 a 0.5,0.5 0 0 1 -0.5,0.5 h -13 a 0.5,0.5 0 0 1 -0.5,-0.5 v -13 a 0.5,0.5 0 0 1 0.5,-0.5 z"
       id="path172" />
    <path
       style="font-size:12px;fill:none;fill-rule:evenodd;stroke:#ffff00;stroke-width:0.1;stroke-linecap:round;stroke-dasharray:none;stroke-opacity:1"
       d="m 186.763,91.013 h 13 a 0.5,0.5 0 0 1 0.5,0.5 v 13 a 0.5,0.5 0 0 1 -0.5,0.5 h -13 a 0.5,0.5 0 0 1 -0.5,-0.5 v -13 a 0.5,0.5 0 0 1 0.5,-0.5 z"
       id="path171" />
    <path
       style="font-size:12px;fill:none;fill-rule:evenodd;stroke:#ffff00;stroke-width:0.1;stroke-linecap:round;stroke-dasharray:none;stroke-opacity:1"
       d="m 167.713,91.013 h 13 a 0.5,0.5 0 0 1 0.5,0.5 v 13 a 0.5,0.5 0 0 1 -0.5,0.5 h -13 a 0.5,0.5 0 0 1 -0.5,-0.5 v -13 a 0.5,0.5 0 0 1 0.5,-0.5 z"
       id="path170" />
    <path
       style="font-size:12px;fill:none;fill-rule:evenodd;stroke:#ffff00;stroke-width:0.1;stroke-linecap:round;stroke-dasharray:none;stroke-opacity:1"
       d="m 148.663,91.013 h 13 a 0.5,0.5 0 0 1 0.5,0.5 v 13 a 0.5,0.5 0 0 1 -0.5,0.5 h -13 a 0.5,0.5 0 0 1 -0.5,-0.5 v -13 a 0.5,0.5 0 0 1 0.5,-0.5 z"
       id="path169" />
    <path
       style="font-size:12px;fill:none;fill-rule:evenodd;stroke:#ffff00;stroke-width:0.1;stroke-linecap:round;stroke-dasharray:none;stroke-opacity:1"
       d="m 129.613,91.013 h 13 a 0.5,0.5 0 0 1 0.5,0.5 v 13 a 0.5,0.5 0 0 1 -0.5,0.5 h -13 a 0.5,0.5 0 0 1 -0.5,-0.5 v -13 a 0.5,0.5 0 0 1 0.5,-0.5 z"
       id="path168" />
    <path
       style="font-size:12px;fill:none;fill-rule:evenodd;stroke:#ffff00;stroke-width:0.1;stroke-linecap:round;stroke-dasharray:none;stroke-opacity:1"
       d="m 110.563,91.013 h 13 a 0.5,0.5 0 0 1 0.5,0.5 v 13 a 0.5,0.5 0 0 1 -0.5,0.5 h -13 a 0.5,0.5 0 0 1 -0.5,-0.5 v -13 a 0.5,0.5 0 0 1 0.5,-0.5 z"
       id="path167" />
    <path
       style="font-size:12px;fill:none;fill-rule:evenodd;stroke:#ffff00;stroke-width:0.1;stroke-linecap:round;stroke-dasharray:none;stroke-opacity:1"
       d="m 91.513,91.013 h 13 a 0.5,0.5 0 0 1 0.5,0.5 v 13 a 0.5,0.5 0 0 1 -0.5,0.5 h -13 a 0.5,0.5 0 0 1 -0.5,-0.5 v -13 a 0.5,0.5 0 0 1 0.5,-0.5 z"
       id="path166" />
    <path
       style="font-size:12px;fill:none;fill-rule:evenodd;stroke:#ffff00;stroke-width:0.1;stroke-linecap:round;stroke-dasharray:none;stroke-opacity:1"
       d="m 72.463,91.013 h 13 a 0.5,0.5 0 0 1 0.5,0.5 v 13 a 0.5,0.5 0 0 1 -0.5,0.5 h -13 a 0.5,0.5 0 0 1 -0.5,-0.5 v -13 a 0.5,0.5 0 0 1 0.5,-0.5 z"
       id="path165" />
    <path
       style="font-size:12px;fill:none;fill-rule:evenodd;stroke:#ffff00;stroke-width:0.1;stroke-linecap:round;stroke-dasharray:none;stroke-opacity:1"
       d="m 53.413,91.013 h 13 a 0.5,0.5 0 0 1 0.5,0.5 v 13 a 0.5,0.5 0 0 1 -0.5,0.5 h -13 a 0.5,0.5 0 0 1 -0.5,-0.5 v -13 a 0.5,0.5 0 0 1 0.5,-0.5 z"
       id="path164" />
    <path
       style="font-size:12px;fill:none;fill-rule:evenodd;stroke:#ffff00;stroke-width:0.1;stroke-linecap:round;stroke-dasharray:none;stroke-opacity:1"
       d="m 234.388,71.963 h 13 a 0.5,0.5 0 0 1 0.5,0.5 v 13 a 0.5,0.5 0 0 1 -0.5,0.5 h -13 a 0.5,0.5 0 0 1 -0.5,-0.5 v -13 a 0.5,0.5 0 0 1 0.5,-0.5 z"
       id="path161" />
    <path
       style="font-size:12px;fill:none;fill-rule:evenodd;stroke:#ffff00;stroke-width:0.1;stroke-linecap:round;stroke-dasharray:none;stroke-opacity:1"
       d="m 215.338,71.963 h 13 a 0.5,0.5 0 0 1 0.5,0.5 v 13 a 0.5,0.5 0 0 1 -0.5,0.5 h -13 a 0.5,0.5 0 0 1 -0.5,-0.5 v -13 a 0.5,0.5 0 0 1 0.5,-0.5 z"
       id="path160" />
    <path
       style="font-size:12px;fill:none;fill-rule:evenodd;stroke:#ffff00;stroke-width:0.1;stroke-linecap:round;stroke-dasharray:none;stroke-opacity:1"
       d="m 196.288,71.963 h 13 a 0.5,0.5 0 0 1 0.5,0.5 v 13 a 0.5,0.5 0 0 1 -0.5,0.5 h -13 a 0.5,0.5 0 0 1 -0.5,-0.5 v -13 a 0.5,0.5 0 0 1 0.5,-0.5 z"
       id="path159" />
    <path
       style="font-size:12px;fill:none;fill-rule:evenodd;stroke:#ffff00;stroke-width:0.1;stroke-linecap:round;stroke-dasharray:none;stroke-opacity:1"
       d="m 177.238,71.963 h 13 a 0.5,0.5 0 0 1 0.5,0.5 v 13 a 0.5,0.5 0 0 1 -0.5,0.5 h -13 a 0.5,0.5 0 0 1 -0.5,-0.5 v -13 a 0.5,0.5 0 0 1 0.5,-0.5 z"
       id="path158" />
    <path
       style="font-size:12px;fill:none;fill-rule:evenodd;stroke:#ffff00;stroke-width:0.1;stroke-linecap:round;stroke-dasharray:none;stroke-opacity:1"
       d="m 158.188,71.963 h 13 a 0.5,0.5 0 0 1 0.5,0.5 v 13 a 0.5,0.5 0 0 1 -0.5,0.5 h -13 a 0.5,0.5 0 0 1 -0.5,-0.5 v -13 a 0.5,0.5 0 0 1 0.5,-0.5 z"
       id="path157" />
    <path
       style="font-size:12px;fill:none;fill-rule:evenodd;stroke:#ffff00;stroke-width:0.1;stroke-linecap:round;stroke-dasharray:none;stroke-opacity:1"
       d="m 139.138,71.963 h 13 a 0.5,0.5 0 0 1 0.5,0.5 v 13 a 0.5,0.5 0 0 1 -0.5,0.5 h -13 a 0.5,0.5 0 0 1 -0.5,-0.5 v -13 a 0.5,0.5 0 0 1 0.5,-0.5 z"
       id="path156" />
    <path
       style="font-size:12px;fill:none;fill-rule:evenodd;stroke:#ffff00;stroke-width:0.1;stroke-linecap:round;stroke-dasharray:none;stroke-opacity:1"
       d="m 120.088,71.963 h 13 a 0.5,0.5 0 0 1 0.5,0.5 v 13 a 0.5,0.5 0 0 1 -0.5,0.5 h -13 a 0.5,0.5 0 0 1 -0.5,-0.5 v -13 a 0.5,0.5 0 0 1 0.5,-0.5 z"
       id="path155" />
    <path
       style="font-size:12px;fill:none;fill-rule:evenodd;stroke:#ffff00;stroke-width:0.1;stroke-linecap:round;stroke-dasharray:none;stroke-opacity:1"
       d="m 101.038,71.963 h 13 a 0.5,0.5 0 0 1 0.5,0.5 v 13 a 0.5,0.5 0 0 1 -0.5,0.5 h -13 a 0.5,0.5 0 0 1 -0.5,-0.5 v -13 a 0.5,0.5 0 0 1 0.5,-0.5 z"
       id="path154" />
    <path
       style="font-size:12px;fill:none;fill-rule:evenodd;stroke:#ffff00;stroke-width:0.1;stroke-linecap:round;stroke-dasharray:none;stroke-opacity:1"
       d="m 81.988,71.963 h 13 a 0.5,0.5 0 0 1 0.5,0.5 v 13 a 0.5,0.5 0 0 1 -0.5,0.5 h -13 a 0.5,0.5 0 0 1 -0.5,-0.5 v -13 a 0.5,0.5 0 0 1 0.5,-0.5 z"
       id="path153" />
    <path
       style="font-size:12px;fill:none;fill-rule:evenodd;stroke:#ffff00;stroke-width:0.1;stroke-linecap:round;stroke-dasharray:none;stroke-opacity:1"
       d="m 43.888,71.963 h 13 a 0.5,0.5 0 0 1 0.5,0.5 v 13 a 0.5,0.5 0 0 1 -0.5,0.5 h -13 a 0.5,0.5 0 0 1 -0.5,-0.5 v -13 a 0.5,0.5 0 0 1 0.5,-0.5 z"
       id="path152" />
    <path
       style="font-size:12px;fill:none;fill-rule:evenodd;stroke:#ffff00;stroke-width:0.1;stroke-linecap:round;stroke-dasharray:none;stroke-opacity:1"
       d="m 339.163,52.913 h 13 a 0.5,0.5 0 0 1 0.5,0.5 v 13 a 0.5,0.5 0 0 1 -0.5,0.5 h -13 a 0.5,0.5 0 0 1 -0.5,-0.5 v -13 a 0.5,0.5 0 0 1 0.5,-0.5 z"
       id="path150" />
    <path
       style="font-size:12px;fill:none;fill-rule:evenodd;stroke:#ffff00;stroke-width:0.1;stroke-linecap:round;stroke-dasharray:none;stroke-opacity:1"
       d="m 320.113,52.913 h 13 a 0.5,0.5 0 0 1 0.5,0.5 v 13 a 0.5,0.5 0 0 1 -0.5,0.5 h -13 a 0.5,0.5 0 0 1 -0.5,-0.5 v -13 a 0.5,0.5 0 0 1 0.5,-0.5 z"
       id="path149" />
    <path
       style="font-size:12px;fill:none;fill-rule:evenodd;stroke:#ffff00;stroke-width:0.1;stroke-linecap:round;stroke-dasharray:none;stroke-opacity:1"
       d="m 301.063,52.913 h 13 a 0.5,0.5 0 0 1 0.5,0.5 v 13 a 0.5,0.5 0 0 1 -0.5,0.5 h -13 a 0.5,0.5 0 0 1 -0.5,-0.5 v -13 a 0.5,0.5 0 0 1 0.5,-0.5 z"
       id="path148" />
    <path
       style="font-size:12px;fill:none;fill-rule:evenodd;stroke:#ffff00;stroke-width:0.1;stroke-linecap:round;stroke-dasharray:none;stroke-opacity:1"
       d="m 248.675,52.913 h 13 a 0.5,0.5 0 0 1 0.5,0.5 v 13 a 0.5,0.5 0 0 1 -0.5,0.5 h -13 a 0.5,0.5 0 0 1 -0.5,-0.5 v -13 a 0.5,0.5 0 0 1 0.5,-0.5 z"
       id="path146" />
    <path
       style="font-size:12px;fill:none;fill-rule:evenodd;stroke:#ffff00;stroke-width:0.1;stroke-linecap:round;stroke-dasharray:none;stroke-opacity:1"
       d="m 229.625,52.913 h 13 a 0.5,0.5 0 0 1 0.5,0.5 v 13 a 0.5,0.5 0 0 1 -0.5,0.5 h -13 a 0.5,0.5 0 0 1 -0.5,-0.5 v -13 a 0.5,0.5 0 0 1 0.5,-0.5 z"
       id="path145" />
    <path
       style="font-size:12px;fill:none;fill-rule:evenodd;stroke:#ffff00;stroke-width:0.1;stroke-linecap:round;stroke-dasharray:none;stroke-opacity:1"
       d="m 210.575,52.913 h 13 a 0.5,0.5 0 0 1 0.5,0.5 v 13 a 0.5,0.5 0 0 1 -0.5,0.5 h -13 a 0.5,0.5 0 0 1 -0.5,-0.5 v -13 a 0.5,0.5 0 0 1 0.5,-0.5 z"
       id="path144" />
    <path
       style="font-size:12px;fill:none;fill-rule:evenodd;stroke:#ffff00;stroke-width:0.1;stroke-linecap:round;stroke-dasharray:none;stroke-opacity:1"
       d="m 191.525,52.913 h 13 a 0.5,0.5 0 0 1 0.5,0.5 v 13 a 0.5,0.5 0 0 1 -0.5,0.5 h -13 a 0.5,0.5 0 0 1 -0.5,-0.5 v -13 a 0.5,0.5 0 0 1 0.5,-0.5 z"
       id="path143" />
    <path
       style="font-size:12px;fill:none;fill-rule:evenodd;stroke:#ffff00;stroke-width:0.1;stroke-linecap:round;stroke-dasharray:none;stroke-opacity:1"
       d="m 172.475,52.913 h 13 a 0.5,0.5 0 0 1 0.5,0.5 v 13 a 0.5,0.5 0 0 1 -0.5,0.5 h -13 a 0.5,0.5 0 0 1 -0.5,-0.5 v -13 a 0.5,0.5 0 0 1 0.5,-0.5 z"
       id="path142" />
    <path
       style="font-size:12px;fill:none;fill-rule:evenodd;stroke:#ffff00;stroke-width:0.1;stroke-linecap:round;stroke-dasharray:none;stroke-opacity:1"
       d="m 153.425,52.913 h 13 a 0.5,0.5 0 0 1 0.5,0.5 v 13 a 0.5,0.5 0 0 1 -0.5,0.5 h -13 a 0.5,0.5 0 0 1 -0.5,-0.5 v -13 a 0.5,0.5 0 0 1 0.5,-0.5 z"
       id="path141" />
    <path
       style="font-size:12px;fill:none;fill-rule:evenodd;stroke:#ffff00;stroke-width:0.1;stroke-linecap:round;stroke-dasharray:none;stroke-opacity:1"
       d="m 134.375,52.913 h 13 a 0.5,0.5 0 0 1 0.5,0.5 v 13 a 0.5,0.5 0 0 1 -0.5,0.5 h -13 a 0.5,0.5 0 0 1 -0.5,-0.5 v -13 a 0.5,0.5 0 0 1 0.5,-0.5 z"
       id="path140" />
    <path
       style="font-size:12px;fill:none;fill-rule:evenodd;stroke:#ffff00;stroke-width:0.1;stroke-linecap:round;stroke-dasharray:none;stroke-opacity:1"
       d="m 115.325,52.913 h 13 a 0.5,0.5 0 0 1 0.5,0.5 v 13 a 0.5,0.5 0 0 1 -0.5,0.5 h -13 a 0.5,0.5 0 0 1 -0.5,-0.5 v -13 a 0.5,0.5 0 0 1 0.5,-0.5 z"
       id="path139" />
    <path
       style="font-size:12px;fill:none;fill-rule:evenodd;stroke:#ffff00;stroke-width:0.1;stroke-linecap:round;stroke-dasharray:none;stroke-opacity:1"
       d="m 96.275,52.913 h 13 a 0.5,0.5 0 0 1 0.5,0.5 v 13 a 0.5,0.5 0 0 1 -0.5,0.5 h -13 a 0.5,0.5 0 0 1 -0.5,-0.5 v -13 a 0.5,0.5 0 0 1 0.5,-0.5 z"
       id="path138" />
    <path
       style="font-size:12px;fill:none;fill-rule:evenodd;stroke:#ffff00;stroke-width:0.1;stroke-linecap:round;stroke-dasharray:none;stroke-opacity:1"
       d="m 77.225,52.913 h 13 a 0.5,0.5 0 0 1 0.5,0.5 v 13 a 0.5,0.5 0 0 1 -0.5,0.5 h -13 a 0.5,0.5 0 0 1 -0.5,-0.5 v -13 a 0.5,0.5 0 0 1 0.5,-0.5 z"
       id="path137" />
    <path
       style="font-size:12px;fill:none;fill-rule:evenodd;stroke:#ffff00;stroke-width:0.1;stroke-linecap:round;stroke-dasharray:none;stroke-opacity:1"
       d="m 58.175,52.913 h 13 a 0.5,0.5 0 0 1 0.5,0.5 v 13 a 0.5,0.5 0 0 1 -0.5,0.5 h -13 a 0.5,0.5 0 0 1 -0.5,-0.5 v -13 a 0.5,0.5 0 0 1 0.5,-0.5 z"
       id="path136" />
    <path
       style="font-size:12px;fill:none;fill-rule:evenodd;stroke:#ffff00;stroke-width:0.1;stroke-linecap:round;stroke-dasharray:none;stroke-opacity:1"
       d="m 39.125,52.913 h 13 a 0.5,0.5 0 0 1 0.5,0.5 v 13 a 0.5,0.5 0 0 1 -0.5,0.5 h -13 a 0.5,0.5 0 0 1 -0.5,-0.5 v -13 a 0.5,0.5 0 0 1 0.5,-0.5 z"
       id="path135" />
    <path
       style="font-size:12px;fill:none;fill-rule:evenodd;stroke:#ffff00;stroke-width:0.1;stroke-linecap:round;stroke-dasharray:none;stroke-opacity:1"
       d="m 15.313,52.913 h 13 a 0.5,0.5 0 0 1 0.5,0.5 v 13 a 0.5,0.5 0 0 1 -0.5,0.5 h -13 a 0.5,0.5 0 0 1 -0.5,-0.5 v -13 a 0.5,0.5 0 0 1 0.5,-0.5 z"
       id="path134" />
    <path
       style="font-size:12px;fill:none;fill-rule:evenodd;stroke:#ffff00;stroke-width:0.1;stroke-linecap:round;stroke-dasharray:none;stroke-opacity:1"
       d="m 339.163,33.863 h 13 a 0.5,0.5 0 0 1 0.5,0.5 v 13 a 0.5,0.5 0 0 1 -0.5,0.5 h -13 a 0.5,0.5 0 0 1 -0.5,-0.5 v -13 a 0.5,0.5 0 0 1 0.5,-0.5 z"
       id="path133" />
    <path
       style="font-size:12px;fill:none;fill-rule:evenodd;stroke:#ffff00;stroke-width:0.1;stroke-linecap:round;stroke-dasharray:none;stroke-opacity:1"
       d="m 320.113,33.863 h 13 a 0.5,0.5 0 0 1 0.5,0.5 v 13 a 0.5,0.5 0 0 1 -0.5,0.5 h -13 a 0.5,0.5 0 0 1 -0.5,-0.5 v -13 a 0.5,0.5 0 0 1 0.5,-0.5 z"
       id="path132" />
    <path
       style="font-size:12px;fill:none;fill-rule:evenodd;stroke:#ffff00;stroke-width:0.1;stroke-linecap:round;stroke-dasharray:none;stroke-opacity:1"
       d="m 301.063,33.863 h 13 a 0.5,0.5 0 0 1 0.5,0.5 v 13 a 0.5,0.5 0 0 1 -0.5,0.5 h -13 a 0.5,0.5 0 0 1 -0.5,-0.5 v -13 a 0.5,0.5 0 0 1 0.5,-0.5 z"
       id="path131" />
    <path
       style="font-size:12px;fill:none;fill-rule:evenodd;stroke:#ffff00;stroke-width:0.1;stroke-linecap:round;stroke-dasharray:none;stroke-opacity:1"
       d="m 239.15,33.863 h 13 a 0.5,0.5 0 0 1 0.5,0.5 v 13 a 0.5,0.5 0 0 1 -0.5,0.5 h -13 a 0.5,0.5 0 0 1 -0.5,-0.5 v -13 a 0.5,0.5 0 0 1 0.5,-0.5 z"
       id="path129" />
    <path
       style="font-size:12px;fill:none;fill-rule:evenodd;stroke:#ffff00;stroke-width:0.1;stroke-linecap:round;stroke-dasharray:none;stroke-opacity:1"
       d="m 220.1,33.863 h 13 a 0.5,0.5 0 0 1 0.5,0.5 v 13 a 0.5,0.5 0 0 1 -0.5,0.5 h -13 a 0.5,0.5 0 0 1 -0.5,-0.5 v -13 a 0.5,0.5 0 0 1 0.5,-0.5 z"
       id="path128" />
    <path
       style="font-size:12px;fill:none;fill-rule:evenodd;stroke:#ffff00;stroke-width:0.1;stroke-linecap:round;stroke-dasharray:none;stroke-opacity:1"
       d="m 201.05,33.863 h 13 a 0.5,0.5 0 0 1 0.5,0.5 v 13 a 0.5,0.5 0 0 1 -0.5,0.5 h -13 a 0.5,0.5 0 0 1 -0.5,-0.5 v -13 a 0.5,0.5 0 0 1 0.5,-0.5 z"
       id="path127" />
    <path
       style="font-size:12px;fill:none;fill-rule:evenodd;stroke:#ffff00;stroke-width:0.1;stroke-linecap:round;stroke-dasharray:none;stroke-opacity:1"
       d="m 182,33.863 h 13 a 0.5,0.5 0 0 1 0.5,0.5 v 13 a 0.5,0.5 0 0 1 -0.5,0.5 h -13 a 0.5,0.5 0 0 1 -0.5,-0.5 v -13 a 0.5,0.5 0 0 1 0.5,-0.5 z"
       id="path126" />
    <path
       style="font-size:12px;fill:none;fill-rule:evenodd;stroke:#ffff00;stroke-width:0.1;stroke-linecap:round;stroke-dasharray:none;stroke-opacity:1"
       d="m 162.95,33.863 h 13 a 0.5,0.5 0 0 1 0.5,0.5 v 13 a 0.5,0.5 0 0 1 -0.5,0.5 h -13 a 0.5,0.5 0 0 1 -0.5,-0.5 v -13 a 0.5,0.5 0 0 1 0.5,-0.5 z"
       id="path125" />
    <path
       style="font-size:12px;fill:none;fill-rule:evenodd;stroke:#ffff00;stroke-width:0.1;stroke-linecap:round;stroke-dasharray:none;stroke-opacity:1"
       d="m 143.9,33.863 h 13 a 0.5,0.5 0 0 1 0.5,0.5 v 13 a 0.5,0.5 0 0 1 -0.5,0.5 h -13 a 0.5,0.5 0 0 1 -0.5,-0.5 v -13 a 0.5,0.5 0 0 1 0.5,-0.5 z"
       id="path124" />
    <path
       style="font-size:12px;fill:none;fill-rule:evenodd;stroke:#ffff00;stroke-width:0.1;stroke-linecap:round;stroke-dasharray:none;stroke-opacity:1"
       d="m 105.8,33.863 h 13 a 0.5,0.5 0 0 1 0.5,0.5 v 13 a 0.5,0.5 0 0 1 -0.5,0.5 h -13 a 0.5,0.5 0 0 1 -0.5,-0.5 v -13 a 0.5,0.5 0 0 1 0.5,-0.5 z"
       id="path123" />
    <path
       style="font-size:12px;fill:none;fill-rule:evenodd;stroke:#ffff00;stroke-width:0.1;stroke-linecap:round;stroke-dasharray:none;stroke-opacity:1"
       d="m 86.75,33.863 h 13 a 0.5,0.5 0 0 1 0.5,0.5 v 13 a 0.5,0.5 0 0 1 -0.5,0.5 h -13 a 0.5,0.5 0 0 1 -0.5,-0.5 v -13 a 0.5,0.5 0 0 1 0.5,-0.5 z"
       id="path122" />
    <path
       style="font-size:12px;fill:none;fill-rule:evenodd;stroke:#ffff00;stroke-width:0.1;stroke-linecap:round;stroke-dasharray:none;stroke-opacity:1"
       d="m 67.7,33.863 h 13 a 0.5,0.5 0 0 1 0.5,0.5 v 13 a 0.5,0.5 0 0 1 -0.5,0.5 h -13 a 0.5,0.5 0 0 1 -0.5,-0.5 v -13 a 0.5,0.5 0 0 1 0.5,-0.5 z"
       id="path121" />
    <path
       style="font-size:12px;fill:none;fill-rule:evenodd;stroke:#ffff00;stroke-width:0.1;stroke-linecap:round;stroke-dasharray:none;stroke-opacity:1"
       d="m 48.65,33.863 h 13 a 0.5,0.5 0 0 1 0.5,0.5 v 13 a 0.5,0.5 0 0 1 -0.5,0.5 h -13 a 0.5,0.5 0 0 1 -0.5,-0.5 v -13 a 0.5,0.5 0 0 1 0.5,-0.5 z"
       id="path120" />
    <path
       style="font-size:12px;fill:none;fill-rule:evenodd;stroke:#ffff00;stroke-width:0.1;stroke-linecap:round;stroke-dasharray:none;stroke-opacity:1"
       d="m 29.6,33.863 h 13 a 0.5,0.5 0 0 1 0.5,0.5 v 13 a 0.5,0.5 0 0 1 -0.5,0.5 h -13 a 0.5,0.5 0 0 1 -0.5,-0.5 v -13 a 0.5,0.5 0 0 1 0.5,-0.5 z"
       id="path119" />
    <path
       style="font-size:12px;fill:none;fill-rule:evenodd;stroke:#ffff00;stroke-width:0.1;stroke-linecap:round;stroke-dasharray:none;stroke-opacity:1"
       d="m 166.45,108.063 h 6 a 0.5,0.5 0 0 1 0.5,0.5 v 14 a 0.5,0.5 0 0 1 -0.5,0.5 h -6 a 0.5,0.5 0 0 1 -0.5,-0.5 v -14 a 0.5,0.5 0 0 1 0.5,-0.5 z"
       id="path128-8" />
    <path
       style="font-size:12px;fill:none;fill-rule:evenodd;stroke:#ffff00;stroke-width:0.1;stroke-linecap:round;stroke-dasharray:none;stroke-opacity:1"
       d="m 105.8,110.063 h 13 a 0.5,0.5 0 0 1 0.5,0.5 v 13 a 0.5,0.5 0 0 1 -0.5,0.5 h -13 a 0.5,0.5 0 0 1 -0.5,-0.5 v -13 a 0.5,0.5 0 0 1 0.5,-0.5 z"
       id="path79" />
  </g>
</svg>
