999
"DXF R12 Output" (www.mydxf.blogspot.com)
 0 
SECTION
 2 
HEADER
 9 
$ACADVER
 1 
AC1009
 9 
$EXTMIN
 10 
 0 
 20 
 0 
 9 
$EXTMAX
 10 
 8.5 
 20 
 11 
 0 
ENDSEC
 0 
SECTION
 2 
ENTITIES
0
LINE
8
Layer 1
10
13.524756
20
132.475089
11
13.134797
21
132.396755
0
LINE
8
Layer 1
10
13.134797
20
132.396755
11
12.817037
21
132.182868
0
LINE
8
Layer 1
10
12.817037
20
132.182868
11
12.603151
21
131.865108
0
LINE
8
Layer 1
10
12.603151
20
131.865108
11
12.524817
21
131.475151
0
LINE
8
Layer 1
10
12.524817
20
131.475151
11
12.524817
21
127.575130
0
LINE
8
Layer 1
10
12.524817
20
127.575130
11
12.535147
21
127.474878
0
LINE
8
Layer 1
10
12.535147
20
127.474878
11
8.525061
21
127.474878
0
LINE
8
Layer 1
10
8.525061
20
127.474878
11
8.135104
21
127.396543
0
LINE
8
Layer 1
10
8.135104
20
127.396543
11
7.817343
21
127.182657
0
LINE
8
Layer 1
10
7.817343
20
127.182657
11
7.603457
21
126.864896
0
LINE
8
Layer 1
10
7.603457
20
126.864896
11
7.525122
21
126.474939
0
LINE
8
Layer 1
10
7.525122
20
126.474939
11
7.525122
21
33.287800
0
LINE
8
Layer 1
10
7.525122
20
33.287800
11
7.603457
21
32.897841
0
LINE
8
Layer 1
10
7.603457
20
32.897841
11
7.817343
21
32.580080
0
LINE
8
Layer 1
10
7.817343
20
32.580080
11
8.135104
21
32.366194
0
LINE
8
Layer 1
10
8.135104
20
32.366194
11
8.525061
21
32.287860
0
LINE
8
Layer 1
10
8.525061
20
32.287860
11
25.534875
21
32.287860
0
LINE
8
Layer 1
10
25.534875
20
32.287860
11
25.525075
21
32.188160
0
LINE
8
Layer 1
10
25.525075
20
32.188160
11
25.525075
21
28.288140
0
LINE
8
Layer 1
10
25.525075
20
28.288140
11
25.603409
21
27.898181
0
LINE
8
Layer 1
10
25.603409
20
27.898181
11
25.817295
21
27.580420
0
LINE
8
Layer 1
10
25.817295
20
27.580420
11
26.135055
21
27.366534
0
LINE
8
Layer 1
10
26.135055
20
27.366534
11
26.525014
21
27.288200
0
LINE
8
Layer 1
10
26.525014
20
27.288200
11
64.425026
21
27.288200
0
LINE
8
Layer 1
10
64.425026
20
27.288200
11
64.814985
21
27.366534
0
LINE
8
Layer 1
10
64.814985
20
27.366534
11
65.132745
21
27.580420
0
LINE
8
Layer 1
10
65.132745
20
27.580420
11
65.346631
21
27.898181
0
LINE
8
Layer 1
10
65.346631
20
27.898181
11
65.424965
21
28.288140
0
LINE
8
Layer 1
10
65.424965
20
28.288140
11
65.424965
21
32.188160
0
LINE
8
Layer 1
10
65.424965
20
32.188160
11
65.415165
21
32.287860
0
LINE
8
Layer 1
10
65.415165
20
32.287860
11
223.534680
21
32.287860
0
LINE
8
Layer 1
10
223.534680
20
32.287860
11
223.524680
21
32.188160
0
LINE
8
Layer 1
10
223.524680
20
32.188160
11
223.524680
21
28.288140
0
LINE
8
Layer 1
10
223.524680
20
28.288140
11
223.603014
21
27.898181
0
LINE
8
Layer 1
10
223.603014
20
27.898181
11
223.816900
21
27.580420
0
LINE
8
Layer 1
10
223.816900
20
27.580420
11
224.134661
21
27.366534
0
LINE
8
Layer 1
10
224.134661
20
27.366534
11
224.524620
21
27.288200
0
LINE
8
Layer 1
10
224.524620
20
27.288200
11
262.424630
21
27.288200
0
LINE
8
Layer 1
10
262.424630
20
27.288200
11
262.814589
21
27.366534
0
LINE
8
Layer 1
10
262.814589
20
27.366534
11
263.132350
21
27.580420
0
LINE
8
Layer 1
10
263.132350
20
27.580420
11
263.346236
21
27.898181
0
LINE
8
Layer 1
10
263.346236
20
27.898181
11
263.424570
21
28.288140
0
LINE
8
Layer 1
10
263.424570
20
28.288140
11
263.424570
21
32.188160
0
LINE
8
Layer 1
10
263.424570
20
32.188160
11
263.414570
21
32.287860
0
LINE
8
Layer 1
10
263.414570
20
32.287860
11
309.534750
21
32.287860
0
LINE
8
Layer 1
10
309.534750
20
32.287860
11
309.524450
21
32.188160
0
LINE
8
Layer 1
10
309.524450
20
32.188160
11
309.524450
21
28.288140
0
LINE
8
Layer 1
10
309.524450
20
28.288140
11
309.602864
21
27.898181
0
LINE
8
Layer 1
10
309.602864
20
27.898181
11
309.816925
21
27.580420
0
LINE
8
Layer 1
10
309.816925
20
27.580420
11
310.134861
21
27.366534
0
LINE
8
Layer 1
10
310.134861
20
27.366534
11
310.524900
21
27.288200
0
LINE
8
Layer 1
10
310.524900
20
27.288200
11
348.424910
21
27.288200
0
LINE
8
Layer 1
10
348.424910
20
27.288200
11
348.814869
21
27.366534
0
LINE
8
Layer 1
10
348.814869
20
27.366534
11
349.132630
21
27.580420
0
LINE
8
Layer 1
10
349.132630
20
27.580420
11
349.346516
21
27.898181
0
LINE
8
Layer 1
10
349.346516
20
27.898181
11
349.424850
21
28.288140
0
LINE
8
Layer 1
10
349.424850
20
28.288140
11
349.424850
21
32.188160
0
LINE
8
Layer 1
10
349.424850
20
32.188160
11
349.414550
21
32.287860
0
LINE
8
Layer 1
10
349.414550
20
32.287860
11
354.124850
21
32.287860
0
LINE
8
Layer 1
10
354.124850
20
32.287860
11
354.514809
21
32.366194
0
LINE
8
Layer 1
10
354.514809
20
32.366194
11
354.832570
21
32.580080
0
LINE
8
Layer 1
10
354.832570
20
32.580080
11
355.046456
21
32.897841
0
LINE
8
Layer 1
10
355.046456
20
32.897841
11
355.124790
21
33.287800
0
LINE
8
Layer 1
10
355.124790
20
33.287800
11
355.124790
21
126.474939
0
LINE
8
Layer 1
10
355.124790
20
126.474939
11
355.046456
21
126.864896
0
LINE
8
Layer 1
10
355.046456
20
126.864896
11
354.832570
21
127.182657
0
LINE
8
Layer 1
10
354.832570
20
127.182657
11
354.514809
21
127.396543
0
LINE
8
Layer 1
10
354.514809
20
127.396543
11
354.124850
21
127.474878
0
LINE
8
Layer 1
10
354.124850
20
127.474878
11
349.414550
21
127.474878
0
LINE
8
Layer 1
10
349.414550
20
127.474878
11
349.424850
21
127.575130
0
LINE
8
Layer 1
10
349.424850
20
127.575130
11
349.424850
21
131.475151
0
LINE
8
Layer 1
10
349.424850
20
131.475151
11
349.346516
21
131.865109
0
LINE
8
Layer 1
10
349.346516
20
131.865109
11
349.132630
21
132.182869
0
LINE
8
Layer 1
10
349.132630
20
132.182869
11
348.814869
21
132.396755
0
LINE
8
Layer 1
10
348.814869
20
132.396755
11
348.424910
21
132.475089
0
LINE
8
Layer 1
10
348.424910
20
132.475089
11
310.524900
21
132.475089
0
LINE
8
Layer 1
10
310.524900
20
132.475089
11
310.134861
21
132.396755
0
LINE
8
Layer 1
10
310.134861
20
132.396755
11
309.816925
21
132.182869
0
LINE
8
Layer 1
10
309.816925
20
132.182869
11
309.602864
21
131.865109
0
LINE
8
Layer 1
10
309.602864
20
131.865109
11
309.524450
21
131.475151
0
LINE
8
Layer 1
10
309.524450
20
131.475151
11
309.524450
21
127.575130
0
LINE
8
Layer 1
10
309.524450
20
127.575130
11
309.534750
21
127.474878
0
LINE
8
Layer 1
10
309.534750
20
127.474878
11
250.414850
21
127.474878
0
LINE
8
Layer 1
10
250.414850
20
127.474878
11
250.424850
21
127.575130
0
LINE
8
Layer 1
10
250.424850
20
127.575130
11
250.424850
21
131.475151
0
LINE
8
Layer 1
10
250.424850
20
131.475151
11
250.346510
21
131.865109
0
LINE
8
Layer 1
10
250.346510
20
131.865109
11
250.132616
21
132.182869
0
LINE
8
Layer 1
10
250.132616
20
132.182869
11
249.814857
21
132.396755
0
LINE
8
Layer 1
10
249.814857
20
132.396755
11
249.424920
21
132.475089
0
LINE
8
Layer 1
10
249.424920
20
132.475089
11
211.524900
21
132.475089
0
LINE
8
Layer 1
10
211.524900
20
132.475089
11
211.134941
21
132.396755
0
LINE
8
Layer 1
10
211.134941
20
132.396755
11
210.817180
21
132.182869
0
LINE
8
Layer 1
10
210.817180
20
132.182869
11
210.603294
21
131.865109
0
LINE
8
Layer 1
10
210.603294
20
131.865109
11
210.524960
21
131.475151
0
LINE
8
Layer 1
10
210.524960
20
131.475151
11
210.524960
21
127.575130
0
LINE
8
Layer 1
10
210.524960
20
127.575130
11
210.534960
21
127.474878
0
LINE
8
Layer 1
10
210.534960
20
127.474878
11
151.415060
21
127.474878
0
LINE
8
Layer 1
10
151.415060
20
127.474878
11
151.425060
21
127.575130
0
LINE
8
Layer 1
10
151.425060
20
127.575130
11
151.425060
21
131.475151
0
LINE
8
Layer 1
10
151.425060
20
131.475151
11
151.346726
21
131.865108
0
LINE
8
Layer 1
10
151.346726
20
131.865108
11
151.132840
21
132.182869
0
LINE
8
Layer 1
10
151.132840
20
132.182869
11
150.815079
21
132.396755
0
LINE
8
Layer 1
10
150.815079
20
132.396755
11
150.425120
21
132.475089
0
LINE
8
Layer 1
10
150.425120
20
132.475089
11
112.525100
21
132.475089
0
LINE
8
Layer 1
10
112.525100
20
132.475089
11
112.135168
21
132.396755
0
LINE
8
Layer 1
10
112.135168
20
132.396755
11
111.817408
21
132.182869
0
LINE
8
Layer 1
10
111.817408
20
132.182869
11
111.603511
21
131.865108
0
LINE
8
Layer 1
10
111.603511
20
131.865108
11
111.525170
21
131.475151
0
LINE
8
Layer 1
10
111.525170
20
131.475151
11
111.525170
21
127.575130
0
LINE
8
Layer 1
10
111.525170
20
127.575130
11
111.535170
21
127.474878
0
LINE
8
Layer 1
10
111.535170
20
127.474878
11
52.414889
21
127.474878
0
LINE
8
Layer 1
10
52.414889
20
127.474878
11
52.425219
21
127.575130
0
LINE
8
Layer 1
10
52.425219
20
127.575130
11
52.425219
21
131.475151
0
LINE
8
Layer 1
10
52.425219
20
131.475151
11
52.346804
21
131.865108
0
LINE
8
Layer 1
10
52.346804
20
131.865108
11
52.132741
21
132.182868
0
LINE
8
Layer 1
10
52.132741
20
132.182868
11
51.814803
21
132.396755
0
LINE
8
Layer 1
10
51.814803
20
132.396755
11
51.424763
21
132.475089
0
LINE
8
Layer 1
10
51.424763
20
132.475089
11
13.524756
21
132.475089
0
LINE
8
Layer 3
10
110.494000
20
48.749496
11
124.491000
21
48.749496
0
LINE
8
Layer 3
10
124.491000
20
48.749496
11
125.256367
21
48.597255
0
LINE
8
Layer 3
10
125.256367
20
48.597255
11
125.905214
21
48.163710
0
LINE
8
Layer 3
10
125.905214
20
48.163710
11
126.338759
21
47.514863
0
LINE
8
Layer 3
10
126.338759
20
47.514863
11
126.491000
21
46.749496
0
LINE
8
Layer 3
10
126.491000
20
46.749496
11
126.491000
21
38.749496
0
LINE
8
Layer 3
10
126.491000
20
38.749496
11
126.338759
21
37.984129
0
LINE
8
Layer 3
10
126.338759
20
37.984129
11
125.905214
21
37.335282
0
LINE
8
Layer 3
10
125.905214
20
37.335282
11
125.256367
21
36.901737
0
LINE
8
Layer 3
10
125.256367
20
36.901737
11
124.491000
21
36.749496
0
LINE
8
Layer 3
10
124.491000
20
36.749496
11
110.494000
21
36.749496
0
LINE
8
Layer 3
10
110.494000
20
36.749496
11
109.728633
21
36.901737
0
LINE
8
Layer 3
10
109.728633
20
36.901737
11
109.079786
21
37.335282
0
LINE
8
Layer 3
10
109.079786
20
37.335282
11
108.646241
21
37.984129
0
LINE
8
Layer 3
10
108.646241
20
37.984129
11
108.494000
21
38.749496
0
LINE
8
Layer 3
10
108.494000
20
38.749496
11
108.494000
21
46.749496
0
LINE
8
Layer 3
10
108.494000
20
46.749496
11
108.646241
21
47.514863
0
LINE
8
Layer 3
10
108.646241
20
47.514863
11
109.079786
21
48.163710
0
LINE
8
Layer 3
10
109.079786
20
48.163710
11
109.728633
21
48.597255
0
LINE
8
Layer 3
10
109.728633
20
48.597255
11
110.494000
21
48.749496
0
LINE
8
Layer 3
10
110.494000
20
48.749496
11
110.494000
21
48.749496
0
LINE
8
Layer 3
10
164.399990
20
48.749496
11
178.396990
21
48.749496
0
LINE
8
Layer 3
10
178.396990
20
48.749496
11
179.162357
21
48.597255
0
LINE
8
Layer 3
10
179.162357
20
48.597255
11
179.811204
21
48.163710
0
LINE
8
Layer 3
10
179.811204
20
48.163710
11
180.244749
21
47.514863
0
LINE
8
Layer 3
10
180.244749
20
47.514863
11
180.396990
21
46.749496
0
LINE
8
Layer 3
10
180.396990
20
46.749496
11
180.396990
21
38.749496
0
LINE
8
Layer 3
10
180.396990
20
38.749496
11
180.244749
21
37.984129
0
LINE
8
Layer 3
10
180.244749
20
37.984129
11
179.811204
21
37.335282
0
LINE
8
Layer 3
10
179.811204
20
37.335282
11
179.162357
21
36.901737
0
LINE
8
Layer 3
10
179.162357
20
36.901737
11
178.396990
21
36.749496
0
LINE
8
Layer 3
10
178.396990
20
36.749496
11
164.399990
21
36.749496
0
LINE
8
Layer 3
10
164.399990
20
36.749496
11
163.634623
21
36.901737
0
LINE
8
Layer 3
10
163.634623
20
36.901737
11
162.985776
21
37.335282
0
LINE
8
Layer 3
10
162.985776
20
37.335282
11
162.552231
21
37.984129
0
LINE
8
Layer 3
10
162.552231
20
37.984129
11
162.399990
21
38.749496
0
LINE
8
Layer 3
10
162.399990
20
38.749496
11
162.399990
21
46.749496
0
LINE
8
Layer 3
10
162.399990
20
46.749496
11
162.552231
21
47.514863
0
LINE
8
Layer 3
10
162.552231
20
47.514863
11
162.985776
21
48.163710
0
LINE
8
Layer 3
10
162.985776
20
48.163710
11
163.634623
21
48.597255
0
LINE
8
Layer 3
10
163.634623
20
48.597255
11
164.399990
21
48.749496
0
LINE
8
Layer 3
10
164.399990
20
48.749496
11
164.399990
21
48.749496
0
LINE
8
Layer 3
10
295.749990
20
65.799500
11
295.749990
21
65.799500
0
LINE
8
Layer 3
10
295.749990
20
65.799500
11
296.113539
21
65.723380
0
LINE
8
Layer 3
10
296.113539
20
65.723380
11
296.421741
21
65.506607
0
LINE
8
Layer 3
10
296.421741
20
65.506607
11
296.699990
21
64.799500
0
LINE
8
Layer 3
10
296.699990
20
64.799500
11
296.699990
21
37.799500
0
LINE
8
Layer 3
10
296.699990
20
37.799500
11
296.421741
21
37.092393
0
LINE
8
Layer 3
10
296.421741
20
37.092393
11
296.113539
21
36.875620
0
LINE
8
Layer 3
10
296.113539
20
36.875620
11
295.749990
21
36.799500
0
LINE
8
Layer 3
10
295.749990
20
36.799500
11
295.749990
21
36.799500
0
LINE
8
Layer 3
10
295.749990
20
36.799500
11
295.386441
21
36.875620
0
LINE
8
Layer 3
10
295.386441
20
36.875620
11
295.078239
21
37.092393
0
LINE
8
Layer 3
10
295.078239
20
37.092393
11
294.799990
21
37.799500
0
LINE
8
Layer 3
10
294.799990
20
37.799500
11
294.799990
21
64.799500
0
LINE
8
Layer 3
10
294.799990
20
64.799500
11
295.078239
21
65.506607
0
LINE
8
Layer 3
10
295.078239
20
65.506607
11
295.386441
21
65.723380
0
LINE
8
Layer 3
10
295.386441
20
65.723380
11
295.749990
21
65.799500
0
LINE
8
Layer 3
10
295.749990
20
65.799500
11
295.749990
21
65.799500
0
LINE
8
Layer 3
10
36.862999
20
85.849503
11
37.762999
21
85.849503
0
LINE
8
Layer 3
10
37.762999
20
85.849503
11
38.145683
21
85.773383
0
LINE
8
Layer 3
10
38.145683
20
85.773383
11
38.470106
21
85.556610
0
LINE
8
Layer 3
10
38.470106
20
85.556610
11
38.686879
21
85.232186
0
LINE
8
Layer 3
10
38.686879
20
85.232186
11
38.762999
21
84.849503
0
LINE
8
Layer 3
10
38.762999
20
84.849503
11
38.762999
21
74.849503
0
LINE
8
Layer 3
10
38.762999
20
74.849503
11
38.686879
21
74.466820
0
LINE
8
Layer 3
10
38.686879
20
74.466820
11
38.470106
21
74.142396
0
LINE
8
Layer 3
10
38.470106
20
74.142396
11
38.145683
21
73.925623
0
LINE
8
Layer 3
10
38.145683
20
73.925623
11
37.762999
21
73.849503
0
LINE
8
Layer 3
10
37.762999
20
73.849503
11
36.862999
21
73.849503
0
LINE
8
Layer 3
10
36.862999
20
73.849503
11
36.480316
21
73.925623
0
LINE
8
Layer 3
10
36.480316
20
73.925623
11
36.155892
21
74.142396
0
LINE
8
Layer 3
10
36.155892
20
74.142396
11
35.939119
21
74.466820
0
LINE
8
Layer 3
10
35.939119
20
74.466820
11
35.862999
21
74.849503
0
LINE
8
Layer 3
10
35.862999
20
74.849503
11
35.862999
21
84.849503
0
LINE
8
Layer 3
10
35.862999
20
84.849503
11
35.939119
21
85.232186
0
LINE
8
Layer 3
10
35.939119
20
85.232186
11
36.155892
21
85.556610
0
LINE
8
Layer 3
10
36.155892
20
85.556610
11
36.480316
21
85.773383
0
LINE
8
Layer 3
10
36.480316
20
85.773383
11
36.862999
21
85.849503
0
LINE
8
Layer 3
10
36.862999
20
85.849503
11
36.862999
21
85.849503
0
LINE
8
Layer 3
10
295.749990
20
123.949501
11
295.749990
21
123.949501
0
LINE
8
Layer 3
10
295.749990
20
123.949501
11
296.113539
21
123.873381
0
LINE
8
Layer 3
10
296.113539
20
123.873381
11
296.421741
21
123.656608
0
LINE
8
Layer 3
10
296.421741
20
123.656608
11
296.699990
21
122.949501
0
LINE
8
Layer 3
10
296.699990
20
122.949501
11
296.699990
21
112.949501
0
LINE
8
Layer 3
10
296.699990
20
112.949501
11
296.421741
21
112.242394
0
LINE
8
Layer 3
10
296.421741
20
112.242394
11
296.113539
21
112.025621
0
LINE
8
Layer 3
10
296.113539
20
112.025621
11
295.749990
21
111.949501
0
LINE
8
Layer 3
10
295.749990
20
111.949501
11
295.749990
21
111.949501
0
LINE
8
Layer 3
10
295.749990
20
111.949501
11
295.386441
21
112.025621
0
LINE
8
Layer 3
10
295.386441
20
112.025621
11
295.078239
21
112.242394
0
LINE
8
Layer 3
10
295.078239
20
112.242394
11
294.799990
21
112.949501
0
LINE
8
Layer 3
10
294.799990
20
112.949501
11
294.799990
21
122.949501
0
LINE
8
Layer 3
10
294.799990
20
122.949501
11
295.078239
21
123.656608
0
LINE
8
Layer 3
10
295.078239
20
123.656608
11
295.386441
21
123.873381
0
LINE
8
Layer 3
10
295.386441
20
123.873381
11
295.749990
21
123.949501
0
LINE
8
Layer 3
10
295.749990
20
123.949501
11
295.749990
21
123.949501
0
LINE
8
Layer 3
10
295.749990
20
102.899502
11
295.749990
21
102.899502
0
LINE
8
Layer 3
10
295.749990
20
102.899502
11
296.113539
21
102.823382
0
LINE
8
Layer 3
10
296.113539
20
102.823382
11
296.421741
21
102.606609
0
LINE
8
Layer 3
10
296.421741
20
102.606609
11
296.699990
21
101.899502
0
LINE
8
Layer 3
10
296.699990
20
101.899502
11
296.699990
21
77.841501
0
LINE
8
Layer 3
10
296.699990
20
77.841501
11
296.421741
21
77.134394
0
LINE
8
Layer 3
10
296.421741
20
77.134394
11
296.113539
21
76.917621
0
LINE
8
Layer 3
10
296.113539
20
76.917621
11
295.749990
21
76.841501
0
LINE
8
Layer 3
10
295.749990
20
76.841501
11
295.749990
21
76.841501
0
LINE
8
Layer 3
10
295.749990
20
76.841501
11
295.386441
21
76.917621
0
LINE
8
Layer 3
10
295.386441
20
76.917621
11
295.078239
21
77.134394
0
LINE
8
Layer 3
10
295.078239
20
77.134394
11
294.799990
21
77.841501
0
LINE
8
Layer 3
10
294.799990
20
77.841501
11
294.799990
21
101.899502
0
LINE
8
Layer 3
10
294.799990
20
101.899502
11
295.078239
21
102.606609
0
LINE
8
Layer 3
10
295.078239
20
102.606609
11
295.386441
21
102.823382
0
LINE
8
Layer 3
10
295.386441
20
102.823382
11
295.749990
21
102.899502
0
LINE
8
Layer 3
10
295.749990
20
102.899502
11
295.749990
21
102.899502
0
LINE
8
Layer 3
10
314.467240
20
53.895300
11
314.467240
21
67.738816
0
LINE
8
Layer 3
10
314.467240
20
67.738816
11
300.623680
21
53.895300
0
LINE
8
Layer 3
10
300.623680
20
53.895300
11
314.467240
21
53.895300
0
LINE
8
Layer 3
10
338.658850
20
53.895300
11
338.658850
21
67.738816
0
LINE
8
Layer 3
10
338.658850
20
67.738816
11
352.502410
21
53.895300
0
LINE
8
Layer 3
10
352.502410
20
53.895300
11
338.658850
21
53.895300
0
LINE
8
Layer 2
10
272.487760
20
105.899951
11
272.134495
21
105.753504
0
LINE
8
Layer 2
10
272.134495
20
105.753504
11
271.988050
21
105.400240
0
LINE
8
Layer 2
10
271.988050
20
105.400240
11
271.988050
21
92.400000
0
LINE
8
Layer 2
10
271.988050
20
92.400000
11
272.134311
21
92.046402
0
LINE
8
Layer 2
10
272.134311
20
92.046402
11
272.487760
21
91.899772
0
LINE
8
Layer 2
10
272.487760
20
91.899772
11
274.368780
21
91.899772
0
LINE
8
Layer 2
10
274.368780
20
91.899772
11
274.368780
21
86.849951
0
LINE
8
Layer 2
10
274.368780
20
86.849951
11
266.438000
21
86.849951
0
LINE
8
Layer 2
10
266.438000
20
86.849951
11
265.344010
21
86.849951
0
LINE
8
Layer 2
10
265.344010
20
86.849951
11
263.406140
21
86.849951
0
LINE
8
Layer 2
10
263.406140
20
86.849951
11
263.406140
21
88.350118
0
LINE
8
Layer 2
10
263.406140
20
88.350118
11
263.259515
21
88.703562
0
LINE
8
Layer 2
10
263.259515
20
88.703562
11
262.905920
21
88.849829
0
LINE
8
Layer 2
10
262.905920
20
88.849829
11
256.905770
21
88.849829
0
LINE
8
Layer 2
10
256.905770
20
88.849829
11
256.552500
21
88.703386
0
LINE
8
Layer 2
10
256.552500
20
88.703386
11
256.406050
21
88.350118
0
LINE
8
Layer 2
10
256.406050
20
88.350118
11
256.406050
21
86.849951
0
LINE
8
Layer 2
10
256.406050
20
86.849951
11
253.437760
21
86.849951
0
LINE
8
Layer 2
10
253.437760
20
86.849951
11
253.084495
21
86.703504
0
LINE
8
Layer 2
10
253.084495
20
86.703504
11
252.938050
21
86.350240
0
LINE
8
Layer 2
10
252.938050
20
86.350240
11
252.938050
21
73.350000
0
LINE
8
Layer 2
10
252.938050
20
73.350000
11
253.084311
21
72.996402
0
LINE
8
Layer 2
10
253.084311
20
72.996402
11
253.437760
21
72.849772
0
LINE
8
Layer 2
10
253.437760
20
72.849772
11
265.344010
21
72.849772
0
LINE
8
Layer 2
10
265.344010
20
72.849772
11
266.438000
21
72.849772
0
LINE
8
Layer 2
10
266.438000
20
72.849772
11
278.344250
21
72.849772
0
LINE
8
Layer 2
10
278.344250
20
72.849772
11
278.697699
21
72.996402
0
LINE
8
Layer 2
10
278.697699
20
72.996402
11
278.843960
21
73.350000
0
LINE
8
Layer 2
10
278.843960
20
73.350000
11
278.843960
21
73.937044
0
LINE
8
Layer 2
10
278.843960
20
73.937044
11
280.572020
21
73.937044
0
LINE
8
Layer 2
10
280.572020
20
73.937044
11
280.781830
21
73.850224
0
LINE
8
Layer 2
10
280.781830
20
73.850224
11
286.781980
21
73.850224
0
LINE
8
Layer 2
10
286.781980
20
73.850224
11
286.991780
21
73.937044
0
LINE
8
Layer 2
10
286.991780
20
73.937044
11
289.869130
21
73.937044
0
LINE
8
Layer 2
10
289.869130
20
73.937044
11
290.222395
21
74.083491
0
LINE
8
Layer 2
10
290.222395
20
74.083491
11
290.368840
21
74.436755
0
LINE
8
Layer 2
10
290.368840
20
74.436755
11
290.368840
21
80.436905
0
LINE
8
Layer 2
10
290.368840
20
80.436905
11
290.222579
21
80.790503
0
LINE
8
Layer 2
10
290.222579
20
80.790503
11
289.869130
21
80.937133
0
LINE
8
Layer 2
10
289.869130
20
80.937133
11
287.282210
21
80.937133
0
LINE
8
Layer 2
10
287.282210
20
80.937133
11
287.282210
21
82.374772
0
LINE
8
Layer 2
10
287.282210
20
82.374772
11
287.869250
21
82.374772
0
LINE
8
Layer 2
10
287.869250
20
82.374772
11
288.222699
21
82.521402
0
LINE
8
Layer 2
10
288.222699
20
82.521402
11
288.368960
21
82.875000
0
LINE
8
Layer 2
10
288.368960
20
82.875000
11
288.368960
21
95.875240
0
LINE
8
Layer 2
10
288.368960
20
95.875240
11
288.222515
21
96.228504
0
LINE
8
Layer 2
10
288.222515
20
96.228504
11
287.869250
21
96.374951
0
LINE
8
Layer 2
10
287.869250
20
96.374951
11
285.988230
21
96.374951
0
LINE
8
Layer 2
10
285.988230
20
96.374951
11
285.988230
21
97.813106
0
LINE
8
Layer 2
10
285.988230
20
97.813106
11
289.869130
21
97.813106
0
LINE
8
Layer 2
10
289.869130
20
97.813106
11
290.222395
21
97.959553
0
LINE
8
Layer 2
10
290.222395
20
97.959553
11
290.368840
21
98.312817
0
LINE
8
Layer 2
10
290.368840
20
98.312817
11
290.368840
21
104.312967
0
LINE
8
Layer 2
10
290.368840
20
104.312967
11
290.222579
21
104.666565
0
LINE
8
Layer 2
10
290.222579
20
104.666565
11
289.869130
21
104.813195
0
LINE
8
Layer 2
10
289.869130
20
104.813195
11
285.988230
21
104.813195
0
LINE
8
Layer 2
10
285.988230
20
104.813195
11
285.988230
21
105.400240
0
LINE
8
Layer 2
10
285.988230
20
105.400240
11
285.841600
21
105.753688
0
LINE
8
Layer 2
10
285.841600
20
105.753688
11
285.488000
21
105.899951
0
LINE
8
Layer 2
10
285.488000
20
105.899951
11
272.487760
21
105.899951
0
LINE
8
Layer 2
10
204.549790
20
50.749830
11
204.196527
21
50.603383
0
LINE
8
Layer 2
10
204.196527
20
50.603383
11
204.050080
21
50.250120
0
LINE
8
Layer 2
10
204.050080
20
50.250120
11
204.050080
21
48.749950
0
LINE
8
Layer 2
10
204.050080
20
48.749950
11
203.430990
21
48.749950
0
LINE
8
Layer 2
10
203.430990
20
48.749950
11
203.077397
21
48.603684
0
LINE
8
Layer 2
10
203.077397
20
48.603684
11
202.930770
21
48.250240
0
LINE
8
Layer 2
10
202.930770
20
48.250240
11
202.930770
21
35.250000
0
LINE
8
Layer 2
10
202.930770
20
35.250000
11
203.077213
21
34.896220
0
LINE
8
Layer 2
10
203.077213
20
34.896220
11
203.430990
21
34.749770
0
LINE
8
Layer 2
10
203.430990
20
34.749770
11
216.431230
21
34.749770
0
LINE
8
Layer 2
10
216.431230
20
34.749770
11
216.784677
21
34.896400
0
LINE
8
Layer 2
10
216.784677
20
34.896400
11
216.930940
21
35.250000
0
LINE
8
Layer 2
10
216.930940
20
35.250000
11
216.930940
21
48.250240
0
LINE
8
Layer 2
10
216.930940
20
48.250240
11
216.784493
21
48.603503
0
LINE
8
Layer 2
10
216.784493
20
48.603503
11
216.431230
21
48.749950
0
LINE
8
Layer 2
10
216.431230
20
48.749950
11
211.050170
21
48.749950
0
LINE
8
Layer 2
10
211.050170
20
48.749950
11
211.050170
21
50.250120
0
LINE
8
Layer 2
10
211.050170
20
50.250120
11
210.903540
21
50.603567
0
LINE
8
Layer 2
10
210.903540
20
50.603567
11
210.549940
21
50.749830
0
LINE
8
Layer 2
10
210.549940
20
50.749830
11
204.549790
21
50.749830
0
LINE
8
Layer 2
10
85.494006
20
50.749830
11
85.140408
21
50.603567
0
LINE
8
Layer 2
10
85.140408
20
50.603567
11
84.993778
21
50.250120
0
LINE
8
Layer 2
10
84.993778
20
50.250120
11
84.993778
21
36.249940
0
LINE
8
Layer 2
10
84.993778
20
36.249940
11
85.140408
21
35.896493
0
LINE
8
Layer 2
10
85.140408
20
35.896493
11
85.494006
21
35.750230
0
LINE
8
Layer 2
10
85.494006
20
35.750230
11
90.249788
21
35.750230
0
LINE
8
Layer 2
10
90.249788
20
35.750230
11
91.494157
21
35.750230
0
LINE
8
Layer 2
10
91.494157
20
35.750230
11
96.249939
21
35.750230
0
LINE
8
Layer 2
10
96.249939
20
35.750230
11
96.603537
21
35.896493
0
LINE
8
Layer 2
10
96.603537
20
35.896493
11
96.750167
21
36.249940
0
LINE
8
Layer 2
10
96.750167
20
36.249940
11
96.750167
21
50.250120
0
LINE
8
Layer 2
10
96.750167
20
50.250120
11
96.603537
21
50.603567
0
LINE
8
Layer 2
10
96.603537
20
50.603567
11
96.249939
21
50.749830
0
LINE
8
Layer 2
10
96.249939
20
50.749830
11
91.494157
21
50.749830
0
LINE
8
Layer 2
10
91.494157
20
50.749830
11
90.249788
21
50.749830
0
LINE
8
Layer 2
10
90.249788
20
50.749830
11
85.494006
21
50.749830
0
LINE
8
Layer 2
10
185.494000
20
50.750000
11
191.494000
21
50.750000
0
LINE
8
Layer 2
10
191.494000
20
50.750000
11
191.847553
21
50.603553
0
LINE
8
Layer 2
10
191.847553
20
50.603553
11
191.994000
21
50.250000
0
LINE
8
Layer 2
10
191.994000
20
50.250000
11
191.994000
21
36.250000
0
LINE
8
Layer 2
10
191.994000
20
36.250000
11
191.847553
21
35.896447
0
LINE
8
Layer 2
10
191.847553
20
35.896447
11
191.494000
21
35.750000
0
LINE
8
Layer 2
10
191.494000
20
35.750000
11
185.494000
21
35.750000
0
LINE
8
Layer 2
10
185.494000
20
35.750000
11
185.140447
21
35.896447
0
LINE
8
Layer 2
10
185.140447
20
35.896447
11
184.994000
21
36.250000
0
LINE
8
Layer 2
10
184.994000
20
36.250000
11
184.994000
21
50.250000
0
LINE
8
Layer 2
10
184.994000
20
50.250000
11
185.140447
21
50.603553
0
LINE
8
Layer 2
10
185.140447
20
50.603553
11
185.494000
21
50.750000
0
LINE
8
Layer 2
10
185.494000
20
50.750000
11
185.494000
21
50.750000
0
LINE
8
Layer 2
10
251.055990
20
67.799951
11
250.702397
21
67.653684
0
LINE
8
Layer 2
10
250.702397
20
67.653684
11
250.555770
21
67.300240
0
LINE
8
Layer 2
10
250.555770
20
67.300240
11
250.555770
21
54.300000
0
LINE
8
Layer 2
10
250.555770
20
54.300000
11
250.702213
21
53.946220
0
LINE
8
Layer 2
10
250.702213
20
53.946220
11
251.055990
21
53.799770
0
LINE
8
Layer 2
10
251.055990
20
53.799770
11
251.643040
21
53.799770
0
LINE
8
Layer 2
10
251.643040
20
53.799770
11
251.643040
21
52.300120
0
LINE
8
Layer 2
10
251.643040
20
52.300120
11
251.789303
21
51.946520
0
LINE
8
Layer 2
10
251.789303
20
51.946520
11
252.142750
21
51.799890
0
LINE
8
Layer 2
10
252.142750
20
51.799890
11
258.142900
21
51.799890
0
LINE
8
Layer 2
10
258.142900
20
51.799890
11
258.496683
21
51.946337
0
LINE
8
Layer 2
10
258.496683
20
51.946337
11
258.643130
21
52.300120
0
LINE
8
Layer 2
10
258.643130
20
52.300120
11
258.643130
21
53.799770
0
LINE
8
Layer 2
10
258.643130
20
53.799770
11
260.580990
21
53.799770
0
LINE
8
Layer 2
10
260.580990
20
53.799770
11
264.056230
21
53.799770
0
LINE
8
Layer 2
10
264.056230
20
53.799770
11
272.598860
21
53.799770
0
LINE
8
Layer 2
10
272.598860
20
53.799770
11
273.581230
21
53.799770
0
LINE
8
Layer 2
10
273.581230
20
53.799770
11
275.519100
21
53.799770
0
LINE
8
Layer 2
10
275.519100
20
53.799770
11
275.519100
21
52.300120
0
LINE
8
Layer 2
10
275.519100
20
52.300120
11
275.665363
21
51.946520
0
LINE
8
Layer 2
10
275.665363
20
51.946520
11
276.018810
21
51.799890
0
LINE
8
Layer 2
10
276.018810
20
51.799890
11
282.018960
21
51.799890
0
LINE
8
Layer 2
10
282.018960
20
51.799890
11
282.372743
21
51.946337
0
LINE
8
Layer 2
10
282.372743
20
51.946337
11
282.519190
21
52.300120
0
LINE
8
Layer 2
10
282.519190
20
52.300120
11
282.519190
21
53.799770
0
LINE
8
Layer 2
10
282.519190
20
53.799770
11
290.249980
21
53.799770
0
LINE
8
Layer 2
10
290.249980
20
53.799770
11
290.603763
21
53.946217
0
LINE
8
Layer 2
10
290.603763
20
53.946217
11
290.750210
21
54.300000
0
LINE
8
Layer 2
10
290.750210
20
54.300000
11
290.750210
21
67.300240
0
LINE
8
Layer 2
10
290.750210
20
67.300240
11
290.603580
21
67.653688
0
LINE
8
Layer 2
10
290.603580
20
67.653688
11
290.249980
21
67.799951
0
LINE
8
Layer 2
10
290.249980
20
67.799951
11
278.652760
21
67.799951
0
LINE
8
Layer 2
10
278.652760
20
67.799951
11
277.249740
21
67.799951
0
LINE
8
Layer 2
10
277.249740
20
67.799951
11
273.581230
21
67.799951
0
LINE
8
Layer 2
10
273.581230
20
67.799951
11
272.598860
21
67.799951
0
LINE
8
Layer 2
10
272.598860
20
67.799951
11
264.056230
21
67.799951
0
LINE
8
Layer 2
10
264.056230
20
67.799951
11
260.580990
21
67.799951
0
LINE
8
Layer 2
10
260.580990
20
67.799951
11
251.055990
21
67.799951
0
LINE
8
Layer 2
10
14.017749
20
69.799829
11
13.664485
21
69.653382
0
LINE
8
Layer 2
10
13.664485
20
69.653382
11
13.518038
21
69.300118
0
LINE
8
Layer 2
10
13.518038
20
69.300118
11
13.518038
21
67.799951
0
LINE
8
Layer 2
10
13.518038
20
67.799951
11
12.930994
21
67.799951
0
LINE
8
Layer 2
10
12.930994
20
67.799951
11
12.577395
21
67.653687
0
LINE
8
Layer 2
10
12.577395
20
67.653687
11
12.430766
21
67.300240
0
LINE
8
Layer 2
10
12.430766
20
67.300240
11
12.430766
21
54.300000
0
LINE
8
Layer 2
10
12.430766
20
54.300000
11
12.577212
21
53.946217
0
LINE
8
Layer 2
10
12.577212
20
53.946217
11
12.930994
21
53.799770
0
LINE
8
Layer 2
10
12.930994
20
53.799770
11
22.455994
21
53.799770
0
LINE
8
Layer 2
10
22.455994
20
53.799770
11
25.931234
21
53.799770
0
LINE
8
Layer 2
10
25.931234
20
53.799770
11
34.362760
21
53.799770
0
LINE
8
Layer 2
10
34.362760
20
53.799770
11
35.456234
21
53.799770
0
LINE
8
Layer 2
10
35.456234
20
53.799770
11
47.363000
21
53.799770
0
LINE
8
Layer 2
10
47.363000
20
53.799770
11
47.716782
21
53.946217
0
LINE
8
Layer 2
10
47.716782
20
53.946217
11
47.863228
21
54.300000
0
LINE
8
Layer 2
10
47.863228
20
54.300000
11
47.863228
21
67.300240
0
LINE
8
Layer 2
10
47.863228
20
67.300240
11
47.716599
21
67.653687
0
LINE
8
Layer 2
10
47.716599
20
67.653687
11
47.363000
21
67.799951
0
LINE
8
Layer 2
10
47.363000
20
67.799951
11
44.394189
21
67.799951
0
LINE
8
Layer 2
10
44.394189
20
67.799951
11
44.394189
21
69.300118
0
LINE
8
Layer 2
10
44.394189
20
69.300118
11
44.247560
21
69.653565
0
LINE
8
Layer 2
10
44.247560
20
69.653565
11
43.893962
21
69.799829
0
LINE
8
Layer 2
10
43.893962
20
69.799829
11
37.893811
21
69.799829
0
LINE
8
Layer 2
10
37.893811
20
69.799829
11
37.540547
21
69.653382
0
LINE
8
Layer 2
10
37.540547
20
69.653382
11
37.394100
21
69.300118
0
LINE
8
Layer 2
10
37.394100
20
69.300118
11
37.394100
21
67.799951
0
LINE
8
Layer 2
10
37.394100
20
67.799951
11
35.456234
21
67.799951
0
LINE
8
Layer 2
10
35.456234
20
67.799951
11
34.362760
21
67.799951
0
LINE
8
Layer 2
10
34.362760
20
67.799951
11
25.931234
21
67.799951
0
LINE
8
Layer 2
10
25.931234
20
67.799951
11
22.455994
21
67.799951
0
LINE
8
Layer 2
10
22.455994
20
67.799951
11
20.518127
21
67.799951
0
LINE
8
Layer 2
10
20.518127
20
67.799951
11
20.518127
21
69.300118
0
LINE
8
Layer 2
10
20.518127
20
69.300118
11
20.371498
21
69.653565
0
LINE
8
Layer 2
10
20.371498
20
69.653565
11
20.017900
21
69.799829
0
LINE
8
Layer 2
10
20.017900
20
69.799829
11
14.017749
21
69.799829
0
LINE
8
Layer 2
10
259.287020
20
108.949943
11
258.933420
21
109.096206
0
LINE
8
Layer 2
10
258.933420
20
109.096206
11
258.786790
21
109.449654
0
LINE
8
Layer 2
10
258.786790
20
109.449654
11
258.786790
21
110.949821
0
LINE
8
Layer 2
10
258.786790
20
110.949821
11
258.199740
21
110.949821
0
LINE
8
Layer 2
10
258.199740
20
110.949821
11
257.846476
21
111.096268
0
LINE
8
Layer 2
10
257.846476
20
111.096268
11
257.700030
21
111.449532
0
LINE
8
Layer 2
10
257.700030
20
111.449532
11
257.700030
21
124.449772
0
LINE
8
Layer 2
10
257.700030
20
124.449772
11
257.846293
21
124.803370
0
LINE
8
Layer 2
10
257.846293
20
124.803370
11
258.199740
21
124.950000
0
LINE
8
Layer 2
10
258.199740
20
124.950000
11
267.724740
21
124.950000
0
LINE
8
Layer 2
10
267.724740
20
124.950000
11
271.199980
21
124.950000
0
LINE
8
Layer 2
10
271.199980
20
124.950000
11
277.249740
21
124.950000
0
LINE
8
Layer 2
10
277.249740
20
124.950000
11
280.724980
21
124.950000
0
LINE
8
Layer 2
10
280.724980
20
124.950000
11
290.249980
21
124.950000
0
LINE
8
Layer 2
10
290.249980
20
124.950000
11
290.603763
21
124.803554
0
LINE
8
Layer 2
10
290.603763
20
124.803554
11
290.750210
21
124.449772
0
LINE
8
Layer 2
10
290.750210
20
124.449772
11
290.750210
21
111.449532
0
LINE
8
Layer 2
10
290.750210
20
111.449532
11
290.603580
21
111.096084
0
LINE
8
Layer 2
10
290.603580
20
111.096084
11
290.249980
21
110.949821
0
LINE
8
Layer 2
10
290.249980
20
110.949821
11
289.662940
21
110.949821
0
LINE
8
Layer 2
10
289.662940
20
110.949821
11
289.662940
21
109.449654
0
LINE
8
Layer 2
10
289.662940
20
109.449654
11
289.516494
21
109.096390
0
LINE
8
Layer 2
10
289.516494
20
109.096390
11
289.163230
21
108.949943
0
LINE
8
Layer 2
10
289.163230
20
108.949943
11
283.163080
21
108.949943
0
LINE
8
Layer 2
10
283.163080
20
108.949943
11
282.809480
21
109.096206
0
LINE
8
Layer 2
10
282.809480
20
109.096206
11
282.662850
21
109.449654
0
LINE
8
Layer 2
10
282.662850
20
109.449654
11
282.662850
21
110.949821
0
LINE
8
Layer 2
10
282.662850
20
110.949821
11
280.724980
21
110.949821
0
LINE
8
Layer 2
10
280.724980
20
110.949821
11
277.249740
21
110.949821
0
LINE
8
Layer 2
10
277.249740
20
110.949821
11
271.199980
21
110.949821
0
LINE
8
Layer 2
10
271.199980
20
110.949821
11
267.724740
21
110.949821
0
LINE
8
Layer 2
10
267.724740
20
110.949821
11
265.786880
21
110.949821
0
LINE
8
Layer 2
10
265.786880
20
110.949821
11
265.786880
21
109.449654
0
LINE
8
Layer 2
10
265.786880
20
109.449654
11
265.640434
21
109.096390
0
LINE
8
Layer 2
10
265.640434
20
109.096390
11
265.287170
21
108.949943
0
LINE
8
Layer 2
10
265.287170
20
108.949943
11
259.287020
21
108.949943
0
LINE
8
Layer 2
10
124.850000
20
124.950000
11
137.850000
21
124.950000
0
LINE
8
Layer 2
10
137.850000
20
124.950000
11
138.203553
21
124.803553
0
LINE
8
Layer 2
10
138.203553
20
124.803553
11
138.350000
21
124.450000
0
LINE
8
Layer 2
10
138.350000
20
124.450000
11
138.350000
21
111.450000
0
LINE
8
Layer 2
10
138.350000
20
111.450000
11
138.203553
21
111.096447
0
LINE
8
Layer 2
10
138.203553
20
111.096447
11
137.850000
21
110.950000
0
LINE
8
Layer 2
10
137.850000
20
110.950000
11
124.850000
21
110.950000
0
LINE
8
Layer 2
10
124.850000
20
110.950000
11
124.496447
21
111.096447
0
LINE
8
Layer 2
10
124.496447
20
111.096447
11
124.350000
21
111.450000
0
LINE
8
Layer 2
10
124.350000
20
111.450000
11
124.350000
21
124.450000
0
LINE
8
Layer 2
10
124.350000
20
124.450000
11
124.496447
21
124.803553
0
LINE
8
Layer 2
10
124.496447
20
124.803553
11
124.850000
21
124.950000
0
LINE
8
Layer 2
10
124.850000
20
124.950000
11
124.850000
21
124.950000
0
LINE
8
Layer 2
10
60.555994
20
48.749950
11
60.202396
21
48.603687
0
LINE
8
Layer 2
10
60.202396
20
48.603687
11
60.055766
21
48.250240
0
LINE
8
Layer 2
10
60.055766
20
48.250240
11
60.055766
21
35.250000
0
LINE
8
Layer 2
10
60.055766
20
35.250000
11
60.202212
21
34.896217
0
LINE
8
Layer 2
10
60.202212
20
34.896217
11
60.555994
21
34.749770
0
LINE
8
Layer 2
10
60.555994
20
34.749770
11
62.937760
21
34.749770
0
LINE
8
Layer 2
10
62.937760
20
34.749770
11
73.556234
21
34.749770
0
LINE
8
Layer 2
10
73.556234
20
34.749770
11
75.938000
21
34.749770
0
LINE
8
Layer 2
10
75.938000
20
34.749770
11
76.291782
21
34.896217
0
LINE
8
Layer 2
10
76.291782
20
34.896217
11
76.438228
21
35.250000
0
LINE
8
Layer 2
10
76.438228
20
35.250000
11
76.438228
21
48.250240
0
LINE
8
Layer 2
10
76.438228
20
48.250240
11
76.291598
21
48.603687
0
LINE
8
Layer 2
10
76.291598
20
48.603687
11
75.938000
21
48.749950
0
LINE
8
Layer 2
10
75.938000
20
48.749950
11
73.556234
21
48.749950
0
LINE
8
Layer 2
10
73.556234
20
48.749950
11
62.937760
21
48.749950
0
LINE
8
Layer 2
10
62.937760
20
48.749950
11
60.555994
21
48.749950
0
LINE
8
Layer 2
10
10.550000
20
124.950000
11
23.550000
21
124.950000
0
LINE
8
Layer 2
10
23.550000
20
124.950000
11
23.903553
21
124.803553
0
LINE
8
Layer 2
10
23.903553
20
124.803553
11
24.050000
21
124.450000
0
LINE
8
Layer 2
10
24.050000
20
124.450000
11
24.050000
21
111.450000
0
LINE
8
Layer 2
10
24.050000
20
111.450000
11
23.903553
21
111.096447
0
LINE
8
Layer 2
10
23.903553
20
111.096447
11
23.550000
21
110.950000
0
LINE
8
Layer 2
10
23.550000
20
110.950000
11
10.550000
21
110.950000
0
LINE
8
Layer 2
10
10.550000
20
110.950000
11
10.196447
21
111.096447
0
LINE
8
Layer 2
10
10.196447
20
111.096447
11
10.050000
21
111.450000
0
LINE
8
Layer 2
10
10.050000
20
111.450000
11
10.050000
21
124.450000
0
LINE
8
Layer 2
10
10.050000
20
124.450000
11
10.196447
21
124.803553
0
LINE
8
Layer 2
10
10.196447
20
124.803553
11
10.550000
21
124.950000
0
LINE
8
Layer 2
10
10.550000
20
124.950000
11
10.550000
21
124.950000
0
LINE
8
Layer 2
10
62.938000
20
86.850000
11
75.938000
21
86.850000
0
LINE
8
Layer 2
10
75.938000
20
86.850000
11
76.291553
21
86.703553
0
LINE
8
Layer 2
10
76.291553
20
86.703553
11
76.438000
21
86.350000
0
LINE
8
Layer 2
10
76.438000
20
86.350000
11
76.438000
21
73.350000
0
LINE
8
Layer 2
10
76.438000
20
73.350000
11
76.291553
21
72.996447
0
LINE
8
Layer 2
10
76.291553
20
72.996447
11
75.938000
21
72.850000
0
LINE
8
Layer 2
10
75.938000
20
72.850000
11
62.938000
21
72.850000
0
LINE
8
Layer 2
10
62.938000
20
72.850000
11
62.584447
21
72.996447
0
LINE
8
Layer 2
10
62.584447
20
72.996447
11
62.438000
21
73.350000
0
LINE
8
Layer 2
10
62.438000
20
73.350000
11
62.438000
21
86.350000
0
LINE
8
Layer 2
10
62.438000
20
86.350000
11
62.584447
21
86.703553
0
LINE
8
Layer 2
10
62.584447
20
86.703553
11
62.938000
21
86.850000
0
LINE
8
Layer 2
10
62.938000
20
86.850000
11
62.938000
21
86.850000
0
LINE
8
Layer 2
10
12.930994
20
86.849951
11
12.577395
21
86.703687
0
LINE
8
Layer 2
10
12.577395
20
86.703687
11
12.430766
21
86.350240
0
LINE
8
Layer 2
10
12.430766
20
86.350240
11
12.430766
21
73.350000
0
LINE
8
Layer 2
10
12.430766
20
73.350000
11
12.577213
21
72.996219
0
LINE
8
Layer 2
10
12.577213
20
72.996219
11
12.930994
21
72.849772
0
LINE
8
Layer 2
10
12.930994
20
72.849772
11
17.694010
21
72.849772
0
LINE
8
Layer 2
10
17.694010
20
72.849772
11
25.931234
21
72.849772
0
LINE
8
Layer 2
10
25.931234
20
72.849772
11
30.694250
21
72.849772
0
LINE
8
Layer 2
10
30.694250
20
72.849772
11
31.047698
21
72.996401
0
LINE
8
Layer 2
10
31.047698
20
72.996401
11
31.193962
21
73.350000
0
LINE
8
Layer 2
10
31.193962
20
73.350000
11
31.193962
21
86.350240
0
LINE
8
Layer 2
10
31.193962
20
86.350240
11
31.047515
21
86.703505
0
LINE
8
Layer 2
10
31.047515
20
86.703505
11
30.694250
21
86.849951
0
LINE
8
Layer 2
10
30.694250
20
86.849951
11
25.931234
21
86.849951
0
LINE
8
Layer 2
10
25.931234
20
86.849951
11
17.694010
21
86.849951
0
LINE
8
Layer 2
10
17.694010
20
86.849951
11
12.930994
21
86.849951
0
LINE
8
Layer 2
10
272.487760
20
48.749967
11
272.134496
21
48.603520
0
LINE
8
Layer 2
10
272.134496
20
48.603520
11
271.988050
21
48.250256
0
LINE
8
Layer 2
10
271.988050
20
48.250256
11
271.988050
21
35.250016
0
LINE
8
Layer 2
10
271.988050
20
35.250016
11
272.134314
21
34.896419
0
LINE
8
Layer 2
10
272.134314
20
34.896419
11
272.487760
21
34.749790
0
LINE
8
Layer 2
10
272.487760
20
34.749790
11
274.869010
21
34.749790
0
LINE
8
Layer 2
10
274.869010
20
34.749790
11
285.488000
21
34.749790
0
LINE
8
Layer 2
10
285.488000
20
34.749790
11
287.869250
21
34.749790
0
LINE
8
Layer 2
10
287.869250
20
34.749790
11
288.222696
21
34.896419
0
LINE
8
Layer 2
10
288.222696
20
34.896419
11
288.368960
21
35.250016
0
LINE
8
Layer 2
10
288.368960
20
35.250016
11
288.368960
21
48.250256
0
LINE
8
Layer 2
10
288.368960
20
48.250256
11
288.222514
21
48.603520
0
LINE
8
Layer 2
10
288.222514
20
48.603520
11
287.869250
21
48.749967
0
LINE
8
Layer 2
10
287.869250
20
48.749967
11
285.488000
21
48.749967
0
LINE
8
Layer 2
10
285.488000
20
48.749967
11
274.869010
21
48.749967
0
LINE
8
Layer 2
10
274.869010
20
48.749967
11
272.487760
21
48.749967
0
LINE
8
Layer 2
10
272.487760
20
48.749967
11
272.487760
21
48.749967
0
LINE
8
Layer 2
10
248.674740
20
48.749950
11
248.321477
21
48.603503
0
LINE
8
Layer 2
10
248.321477
20
48.603503
11
248.175030
21
48.250240
0
LINE
8
Layer 2
10
248.175030
20
48.250240
11
248.175030
21
35.250000
0
LINE
8
Layer 2
10
248.175030
20
35.250000
11
248.321293
21
34.896400
0
LINE
8
Layer 2
10
248.321293
20
34.896400
11
248.674740
21
34.749770
0
LINE
8
Layer 2
10
248.674740
20
34.749770
11
251.055990
21
34.749770
0
LINE
8
Layer 2
10
251.055990
20
34.749770
11
261.674980
21
34.749770
0
LINE
8
Layer 2
10
261.674980
20
34.749770
11
264.056230
21
34.749770
0
LINE
8
Layer 2
10
264.056230
20
34.749770
11
264.409677
21
34.896400
0
LINE
8
Layer 2
10
264.409677
20
34.896400
11
264.555940
21
35.250000
0
LINE
8
Layer 2
10
264.555940
20
35.250000
11
264.555940
21
48.250240
0
LINE
8
Layer 2
10
264.555940
20
48.250240
11
264.409493
21
48.603503
0
LINE
8
Layer 2
10
264.409493
20
48.603503
11
264.056230
21
48.749950
0
LINE
8
Layer 2
10
264.056230
20
48.749950
11
261.674980
21
48.749950
0
LINE
8
Layer 2
10
261.674980
20
48.749950
11
251.055990
21
48.749950
0
LINE
8
Layer 2
10
251.055990
20
48.749950
11
248.674740
21
48.749950
0
LINE
8
Layer 2
10
224.862760
20
48.749950
11
224.509497
21
48.603503
0
LINE
8
Layer 2
10
224.509497
20
48.603503
11
224.363050
21
48.250240
0
LINE
8
Layer 2
10
224.363050
20
48.250240
11
224.363050
21
35.250000
0
LINE
8
Layer 2
10
224.363050
20
35.250000
11
224.509313
21
34.896400
0
LINE
8
Layer 2
10
224.509313
20
34.896400
11
224.862760
21
34.749770
0
LINE
8
Layer 2
10
224.862760
20
34.749770
11
227.244010
21
34.749770
0
LINE
8
Layer 2
10
227.244010
20
34.749770
11
237.863000
21
34.749770
0
LINE
8
Layer 2
10
237.863000
20
34.749770
11
240.244250
21
34.749770
0
LINE
8
Layer 2
10
240.244250
20
34.749770
11
240.597697
21
34.896400
0
LINE
8
Layer 2
10
240.597697
20
34.896400
11
240.743960
21
35.250000
0
LINE
8
Layer 2
10
240.743960
20
35.250000
11
240.743960
21
48.250240
0
LINE
8
Layer 2
10
240.743960
20
48.250240
11
240.597513
21
48.603503
0
LINE
8
Layer 2
10
240.597513
20
48.603503
11
240.244250
21
48.749950
0
LINE
8
Layer 2
10
240.244250
20
48.749950
11
237.863000
21
48.749950
0
LINE
8
Layer 2
10
237.863000
20
48.749950
11
227.244010
21
48.749950
0
LINE
8
Layer 2
10
227.244010
20
48.749950
11
224.862760
21
48.749950
0
LINE
8
Layer 2
10
131.994010
20
48.749950
11
131.640410
21
48.603687
0
LINE
8
Layer 2
10
131.640410
20
48.603687
11
131.493780
21
48.250240
0
LINE
8
Layer 2
10
131.493780
20
48.250240
11
131.493780
21
35.250000
0
LINE
8
Layer 2
10
131.493780
20
35.250000
11
131.640227
21
34.896217
0
LINE
8
Layer 2
10
131.640227
20
34.896217
11
131.994010
21
34.749770
0
LINE
8
Layer 2
10
131.994010
20
34.749770
11
143.899740
21
34.749770
0
LINE
8
Layer 2
10
143.899740
20
34.749770
11
144.994250
21
34.749770
0
LINE
8
Layer 2
10
144.994250
20
34.749770
11
156.899980
21
34.749770
0
LINE
8
Layer 2
10
156.899980
20
34.749770
11
157.253763
21
34.896217
0
LINE
8
Layer 2
10
157.253763
20
34.896217
11
157.400210
21
35.250000
0
LINE
8
Layer 2
10
157.400210
20
35.250000
11
157.400210
21
48.250240
0
LINE
8
Layer 2
10
157.400210
20
48.250240
11
157.253580
21
48.603687
0
LINE
8
Layer 2
10
157.253580
20
48.603687
11
156.899980
21
48.749950
0
LINE
8
Layer 2
10
156.899980
20
48.749950
11
144.994250
21
48.749950
0
LINE
8
Layer 2
10
144.994250
20
48.749950
11
143.899740
21
48.749950
0
LINE
8
Layer 2
10
143.899740
20
48.749950
11
131.994010
21
48.749950
0
LINE
8
Layer 2
10
36.744010
20
48.749950
11
36.390412
21
48.603686
0
LINE
8
Layer 2
10
36.390412
20
48.603686
11
36.243783
21
48.250240
0
LINE
8
Layer 2
10
36.243783
20
48.250240
11
36.243783
21
35.250000
0
LINE
8
Layer 2
10
36.243783
20
35.250000
11
36.390228
21
34.896218
0
LINE
8
Layer 2
10
36.390228
20
34.896218
11
36.744010
21
34.749770
0
LINE
8
Layer 2
10
36.744010
20
34.749770
11
39.124744
21
34.749770
0
LINE
8
Layer 2
10
39.124744
20
34.749770
11
49.744250
21
34.749770
0
LINE
8
Layer 2
10
49.744250
20
34.749770
11
52.124984
21
34.749770
0
LINE
8
Layer 2
10
52.124984
20
34.749770
11
52.478766
21
34.896217
0
LINE
8
Layer 2
10
52.478766
20
34.896217
11
52.625212
21
35.250000
0
LINE
8
Layer 2
10
52.625212
20
35.250000
11
52.625212
21
48.250240
0
LINE
8
Layer 2
10
52.625212
20
48.250240
11
52.478582
21
48.603687
0
LINE
8
Layer 2
10
52.478582
20
48.603687
11
52.124984
21
48.749950
0
LINE
8
Layer 2
10
52.124984
20
48.749950
11
49.744250
21
48.749950
0
LINE
8
Layer 2
10
49.744250
20
48.749950
11
39.124744
21
48.749950
0
LINE
8
Layer 2
10
39.124744
20
48.749950
11
36.744010
21
48.749950
0
LINE
8
Layer 2
10
12.930994
20
48.749950
11
12.577396
21
48.603687
0
LINE
8
Layer 2
10
12.577396
20
48.603687
11
12.430766
21
48.250240
0
LINE
8
Layer 2
10
12.430766
20
48.250240
11
12.430766
21
35.250000
0
LINE
8
Layer 2
10
12.430766
20
35.250000
11
12.577212
21
34.896217
0
LINE
8
Layer 2
10
12.577212
20
34.896217
11
12.930994
21
34.749770
0
LINE
8
Layer 2
10
12.930994
20
34.749770
11
15.312760
21
34.749770
0
LINE
8
Layer 2
10
15.312760
20
34.749770
11
25.931234
21
34.749770
0
LINE
8
Layer 2
10
25.931234
20
34.749770
11
28.313000
21
34.749770
0
LINE
8
Layer 2
10
28.313000
20
34.749770
11
28.666782
21
34.896217
0
LINE
8
Layer 2
10
28.666782
20
34.896217
11
28.813228
21
35.250000
0
LINE
8
Layer 2
10
28.813228
20
35.250000
11
28.813228
21
48.250240
0
LINE
8
Layer 2
10
28.813228
20
48.250240
11
28.666598
21
48.603687
0
LINE
8
Layer 2
10
28.666598
20
48.603687
11
28.313000
21
48.749950
0
LINE
8
Layer 2
10
28.313000
20
48.749950
11
25.931234
21
48.749950
0
LINE
8
Layer 2
10
25.931234
20
48.749950
11
15.312760
21
48.749950
0
LINE
8
Layer 2
10
15.312760
20
48.749950
11
12.930994
21
48.749950
0
LINE
8
Layer 2
10
339.163000
20
48.750000
11
352.163000
21
48.750000
0
LINE
8
Layer 2
10
352.163000
20
48.750000
11
352.516553
21
48.603553
0
LINE
8
Layer 2
10
352.516553
20
48.603553
11
352.663000
21
48.250000
0
LINE
8
Layer 2
10
352.663000
20
48.250000
11
352.663000
21
35.250000
0
LINE
8
Layer 2
10
352.663000
20
35.250000
11
352.516553
21
34.896447
0
LINE
8
Layer 2
10
352.516553
20
34.896447
11
352.163000
21
34.750000
0
LINE
8
Layer 2
10
352.163000
20
34.750000
11
339.163000
21
34.750000
0
LINE
8
Layer 2
10
339.163000
20
34.750000
11
338.809447
21
34.896447
0
LINE
8
Layer 2
10
338.809447
20
34.896447
11
338.663000
21
35.250000
0
LINE
8
Layer 2
10
338.663000
20
35.250000
11
338.663000
21
48.250000
0
LINE
8
Layer 2
10
338.663000
20
48.250000
11
338.809447
21
48.603553
0
LINE
8
Layer 2
10
338.809447
20
48.603553
11
339.163000
21
48.750000
0
LINE
8
Layer 2
10
339.163000
20
48.750000
11
339.163000
21
48.750000
0
LINE
8
Layer 2
10
320.113000
20
48.750000
11
333.113000
21
48.750000
0
LINE
8
Layer 2
10
333.113000
20
48.750000
11
333.466553
21
48.603553
0
LINE
8
Layer 2
10
333.466553
20
48.603553
11
333.613000
21
48.250000
0
LINE
8
Layer 2
10
333.613000
20
48.250000
11
333.613000
21
35.250000
0
LINE
8
Layer 2
10
333.613000
20
35.250000
11
333.466553
21
34.896447
0
LINE
8
Layer 2
10
333.466553
20
34.896447
11
333.113000
21
34.750000
0
LINE
8
Layer 2
10
333.113000
20
34.750000
11
320.113000
21
34.750000
0
LINE
8
Layer 2
10
320.113000
20
34.750000
11
319.759447
21
34.896447
0
LINE
8
Layer 2
10
319.759447
20
34.896447
11
319.613000
21
35.250000
0
LINE
8
Layer 2
10
319.613000
20
35.250000
11
319.613000
21
48.250000
0
LINE
8
Layer 2
10
319.613000
20
48.250000
11
319.759447
21
48.603553
0
LINE
8
Layer 2
10
319.759447
20
48.603553
11
320.113000
21
48.750000
0
LINE
8
Layer 2
10
320.113000
20
48.750000
11
320.113000
21
48.750000
0
LINE
8
Layer 2
10
301.063000
20
48.750000
11
314.063000
21
48.750000
0
LINE
8
Layer 2
10
314.063000
20
48.750000
11
314.416553
21
48.603553
0
LINE
8
Layer 2
10
314.416553
20
48.603553
11
314.563000
21
48.250000
0
LINE
8
Layer 2
10
314.563000
20
48.250000
11
314.563000
21
35.250000
0
LINE
8
Layer 2
10
314.563000
20
35.250000
11
314.416553
21
34.896447
0
LINE
8
Layer 2
10
314.416553
20
34.896447
11
314.063000
21
34.750000
0
LINE
8
Layer 2
10
314.063000
20
34.750000
11
301.063000
21
34.750000
0
LINE
8
Layer 2
10
301.063000
20
34.750000
11
300.709447
21
34.896447
0
LINE
8
Layer 2
10
300.709447
20
34.896447
11
300.563000
21
35.250000
0
LINE
8
Layer 2
10
300.563000
20
35.250000
11
300.563000
21
48.250000
0
LINE
8
Layer 2
10
300.563000
20
48.250000
11
300.709447
21
48.603553
0
LINE
8
Layer 2
10
300.709447
20
48.603553
11
301.063000
21
48.750000
0
LINE
8
Layer 2
10
301.063000
20
48.750000
11
301.063000
21
48.750000
0
LINE
8
Layer 2
10
320.113000
20
67.800000
11
333.113000
21
67.800000
0
LINE
8
Layer 2
10
333.113000
20
67.800000
11
333.466553
21
67.653553
0
LINE
8
Layer 2
10
333.466553
20
67.653553
11
333.613000
21
67.300000
0
LINE
8
Layer 2
10
333.613000
20
67.300000
11
333.613000
21
54.300000
0
LINE
8
Layer 2
10
333.613000
20
54.300000
11
333.466553
21
53.946447
0
LINE
8
Layer 2
10
333.466553
20
53.946447
11
333.113000
21
53.800000
0
LINE
8
Layer 2
10
333.113000
20
53.800000
11
320.113000
21
53.800000
0
LINE
8
Layer 2
10
320.113000
20
53.800000
11
319.759447
21
53.946447
0
LINE
8
Layer 2
10
319.759447
20
53.946447
11
319.613000
21
54.300000
0
LINE
8
Layer 2
10
319.613000
20
54.300000
11
319.613000
21
67.300000
0
LINE
8
Layer 2
10
319.613000
20
67.300000
11
319.759447
21
67.653553
0
LINE
8
Layer 2
10
319.759447
20
67.653553
11
320.113000
21
67.800000
0
LINE
8
Layer 2
10
320.113000
20
67.800000
11
320.113000
21
67.800000
0
LINE
8
Layer 2
10
224.863000
20
67.800000
11
237.863000
21
67.800000
0
LINE
8
Layer 2
10
237.863000
20
67.800000
11
238.216553
21
67.653553
0
LINE
8
Layer 2
10
238.216553
20
67.653553
11
238.363000
21
67.300000
0
LINE
8
Layer 2
10
238.363000
20
67.300000
11
238.363000
21
54.300000
0
LINE
8
Layer 2
10
238.363000
20
54.300000
11
238.216553
21
53.946447
0
LINE
8
Layer 2
10
238.216553
20
53.946447
11
237.863000
21
53.800000
0
LINE
8
Layer 2
10
237.863000
20
53.800000
11
224.863000
21
53.800000
0
LINE
8
Layer 2
10
224.863000
20
53.800000
11
224.509447
21
53.946447
0
LINE
8
Layer 2
10
224.509447
20
53.946447
11
224.363000
21
54.300000
0
LINE
8
Layer 2
10
224.363000
20
54.300000
11
224.363000
21
67.300000
0
LINE
8
Layer 2
10
224.363000
20
67.300000
11
224.509447
21
67.653553
0
LINE
8
Layer 2
10
224.509447
20
67.653553
11
224.863000
21
67.800000
0
LINE
8
Layer 2
10
224.863000
20
67.800000
11
224.863000
21
67.800000
0
LINE
8
Layer 2
10
205.813000
20
67.800000
11
218.813000
21
67.800000
0
LINE
8
Layer 2
10
218.813000
20
67.800000
11
219.166553
21
67.653553
0
LINE
8
Layer 2
10
219.166553
20
67.653553
11
219.313000
21
67.300000
0
LINE
8
Layer 2
10
219.313000
20
67.300000
11
219.313000
21
54.300000
0
LINE
8
Layer 2
10
219.313000
20
54.300000
11
219.166553
21
53.946447
0
LINE
8
Layer 2
10
219.166553
20
53.946447
11
218.813000
21
53.800000
0
LINE
8
Layer 2
10
218.813000
20
53.800000
11
205.813000
21
53.800000
0
LINE
8
Layer 2
10
205.813000
20
53.800000
11
205.459447
21
53.946447
0
LINE
8
Layer 2
10
205.459447
20
53.946447
11
205.313000
21
54.300000
0
LINE
8
Layer 2
10
205.313000
20
54.300000
11
205.313000
21
67.300000
0
LINE
8
Layer 2
10
205.313000
20
67.300000
11
205.459447
21
67.653553
0
LINE
8
Layer 2
10
205.459447
20
67.653553
11
205.813000
21
67.800000
0
LINE
8
Layer 2
10
205.813000
20
67.800000
11
205.813000
21
67.800000
0
LINE
8
Layer 2
10
186.763000
20
67.800000
11
199.763000
21
67.800000
0
LINE
8
Layer 2
10
199.763000
20
67.800000
11
200.116553
21
67.653553
0
LINE
8
Layer 2
10
200.116553
20
67.653553
11
200.263000
21
67.300000
0
LINE
8
Layer 2
10
200.263000
20
67.300000
11
200.263000
21
54.300000
0
LINE
8
Layer 2
10
200.263000
20
54.300000
11
200.116553
21
53.946447
0
LINE
8
Layer 2
10
200.116553
20
53.946447
11
199.763000
21
53.800000
0
LINE
8
Layer 2
10
199.763000
20
53.800000
11
186.763000
21
53.800000
0
LINE
8
Layer 2
10
186.763000
20
53.800000
11
186.409447
21
53.946447
0
LINE
8
Layer 2
10
186.409447
20
53.946447
11
186.263000
21
54.300000
0
LINE
8
Layer 2
10
186.263000
20
54.300000
11
186.263000
21
67.300000
0
LINE
8
Layer 2
10
186.263000
20
67.300000
11
186.409447
21
67.653553
0
LINE
8
Layer 2
10
186.409447
20
67.653553
11
186.763000
21
67.800000
0
LINE
8
Layer 2
10
186.763000
20
67.800000
11
186.763000
21
67.800000
0
LINE
8
Layer 2
10
167.713000
20
67.800000
11
180.713000
21
67.800000
0
LINE
8
Layer 2
10
180.713000
20
67.800000
11
181.066553
21
67.653553
0
LINE
8
Layer 2
10
181.066553
20
67.653553
11
181.213000
21
67.300000
0
LINE
8
Layer 2
10
181.213000
20
67.300000
11
181.213000
21
54.300000
0
LINE
8
Layer 2
10
181.213000
20
54.300000
11
181.066553
21
53.946447
0
LINE
8
Layer 2
10
181.066553
20
53.946447
11
180.713000
21
53.800000
0
LINE
8
Layer 2
10
180.713000
20
53.800000
11
167.713000
21
53.800000
0
LINE
8
Layer 2
10
167.713000
20
53.800000
11
167.359447
21
53.946447
0
LINE
8
Layer 2
10
167.359447
20
53.946447
11
167.213000
21
54.300000
0
LINE
8
Layer 2
10
167.213000
20
54.300000
11
167.213000
21
67.300000
0
LINE
8
Layer 2
10
167.213000
20
67.300000
11
167.359447
21
67.653553
0
LINE
8
Layer 2
10
167.359447
20
67.653553
11
167.713000
21
67.800000
0
LINE
8
Layer 2
10
167.713000
20
67.800000
11
167.713000
21
67.800000
0
LINE
8
Layer 2
10
148.663000
20
67.800000
11
161.663000
21
67.800000
0
LINE
8
Layer 2
10
161.663000
20
67.800000
11
162.016553
21
67.653553
0
LINE
8
Layer 2
10
162.016553
20
67.653553
11
162.163000
21
67.300000
0
LINE
8
Layer 2
10
162.163000
20
67.300000
11
162.163000
21
54.300000
0
LINE
8
Layer 2
10
162.163000
20
54.300000
11
162.016553
21
53.946447
0
LINE
8
Layer 2
10
162.016553
20
53.946447
11
161.663000
21
53.800000
0
LINE
8
Layer 2
10
161.663000
20
53.800000
11
148.663000
21
53.800000
0
LINE
8
Layer 2
10
148.663000
20
53.800000
11
148.309447
21
53.946447
0
LINE
8
Layer 2
10
148.309447
20
53.946447
11
148.163000
21
54.300000
0
LINE
8
Layer 2
10
148.163000
20
54.300000
11
148.163000
21
67.300000
0
LINE
8
Layer 2
10
148.163000
20
67.300000
11
148.309447
21
67.653553
0
LINE
8
Layer 2
10
148.309447
20
67.653553
11
148.663000
21
67.800000
0
LINE
8
Layer 2
10
148.663000
20
67.800000
11
148.663000
21
67.800000
0
LINE
8
Layer 2
10
129.613000
20
67.800000
11
142.613000
21
67.800000
0
LINE
8
Layer 2
10
142.613000
20
67.800000
11
142.966553
21
67.653553
0
LINE
8
Layer 2
10
142.966553
20
67.653553
11
143.113000
21
67.300000
0
LINE
8
Layer 2
10
143.113000
20
67.300000
11
143.113000
21
54.300000
0
LINE
8
Layer 2
10
143.113000
20
54.300000
11
142.966553
21
53.946447
0
LINE
8
Layer 2
10
142.966553
20
53.946447
11
142.613000
21
53.800000
0
LINE
8
Layer 2
10
142.613000
20
53.800000
11
129.613000
21
53.800000
0
LINE
8
Layer 2
10
129.613000
20
53.800000
11
129.259447
21
53.946447
0
LINE
8
Layer 2
10
129.259447
20
53.946447
11
129.113000
21
54.300000
0
LINE
8
Layer 2
10
129.113000
20
54.300000
11
129.113000
21
67.300000
0
LINE
8
Layer 2
10
129.113000
20
67.300000
11
129.259447
21
67.653553
0
LINE
8
Layer 2
10
129.259447
20
67.653553
11
129.613000
21
67.800000
0
LINE
8
Layer 2
10
129.613000
20
67.800000
11
129.613000
21
67.800000
0
LINE
8
Layer 2
10
110.563000
20
67.800000
11
123.563000
21
67.800000
0
LINE
8
Layer 2
10
123.563000
20
67.800000
11
123.916553
21
67.653553
0
LINE
8
Layer 2
10
123.916553
20
67.653553
11
124.063000
21
67.300000
0
LINE
8
Layer 2
10
124.063000
20
67.300000
11
124.063000
21
54.300000
0
LINE
8
Layer 2
10
124.063000
20
54.300000
11
123.916553
21
53.946447
0
LINE
8
Layer 2
10
123.916553
20
53.946447
11
123.563000
21
53.800000
0
LINE
8
Layer 2
10
123.563000
20
53.800000
11
110.563000
21
53.800000
0
LINE
8
Layer 2
10
110.563000
20
53.800000
11
110.209447
21
53.946447
0
LINE
8
Layer 2
10
110.209447
20
53.946447
11
110.063000
21
54.300000
0
LINE
8
Layer 2
10
110.063000
20
54.300000
11
110.063000
21
67.300000
0
LINE
8
Layer 2
10
110.063000
20
67.300000
11
110.209447
21
67.653553
0
LINE
8
Layer 2
10
110.209447
20
67.653553
11
110.563000
21
67.800000
0
LINE
8
Layer 2
10
110.563000
20
67.800000
11
110.563000
21
67.800000
0
LINE
8
Layer 2
10
91.513000
20
67.800000
11
104.513000
21
67.800000
0
LINE
8
Layer 2
10
104.513000
20
67.800000
11
104.866553
21
67.653553
0
LINE
8
Layer 2
10
104.866553
20
67.653553
11
105.013000
21
67.300000
0
LINE
8
Layer 2
10
105.013000
20
67.300000
11
105.013000
21
54.300000
0
LINE
8
Layer 2
10
105.013000
20
54.300000
11
104.866553
21
53.946447
0
LINE
8
Layer 2
10
104.866553
20
53.946447
11
104.513000
21
53.800000
0
LINE
8
Layer 2
10
104.513000
20
53.800000
11
91.513000
21
53.800000
0
LINE
8
Layer 2
10
91.513000
20
53.800000
11
91.159447
21
53.946447
0
LINE
8
Layer 2
10
91.159447
20
53.946447
11
91.013000
21
54.300000
0
LINE
8
Layer 2
10
91.013000
20
54.300000
11
91.013000
21
67.300000
0
LINE
8
Layer 2
10
91.013000
20
67.300000
11
91.159447
21
67.653553
0
LINE
8
Layer 2
10
91.159447
20
67.653553
11
91.513000
21
67.800000
0
LINE
8
Layer 2
10
91.513000
20
67.800000
11
91.513000
21
67.800000
0
LINE
8
Layer 2
10
72.463000
20
67.800000
11
85.463000
21
67.800000
0
LINE
8
Layer 2
10
85.463000
20
67.800000
11
85.816553
21
67.653553
0
LINE
8
Layer 2
10
85.816553
20
67.653553
11
85.963000
21
67.300000
0
LINE
8
Layer 2
10
85.963000
20
67.300000
11
85.963000
21
54.300000
0
LINE
8
Layer 2
10
85.963000
20
54.300000
11
85.816553
21
53.946447
0
LINE
8
Layer 2
10
85.816553
20
53.946447
11
85.463000
21
53.800000
0
LINE
8
Layer 2
10
85.463000
20
53.800000
11
72.463000
21
53.800000
0
LINE
8
Layer 2
10
72.463000
20
53.800000
11
72.109447
21
53.946447
0
LINE
8
Layer 2
10
72.109447
20
53.946447
11
71.963000
21
54.300000
0
LINE
8
Layer 2
10
71.963000
20
54.300000
11
71.963000
21
67.300000
0
LINE
8
Layer 2
10
71.963000
20
67.300000
11
72.109447
21
67.653553
0
LINE
8
Layer 2
10
72.109447
20
67.653553
11
72.463000
21
67.800000
0
LINE
8
Layer 2
10
72.463000
20
67.800000
11
72.463000
21
67.800000
0
LINE
8
Layer 2
10
53.413000
20
67.800000
11
66.413000
21
67.800000
0
LINE
8
Layer 2
10
66.413000
20
67.800000
11
66.766553
21
67.653553
0
LINE
8
Layer 2
10
66.766553
20
67.653553
11
66.913000
21
67.300000
0
LINE
8
Layer 2
10
66.913000
20
67.300000
11
66.913000
21
54.300000
0
LINE
8
Layer 2
10
66.913000
20
54.300000
11
66.766553
21
53.946447
0
LINE
8
Layer 2
10
66.766553
20
53.946447
11
66.413000
21
53.800000
0
LINE
8
Layer 2
10
66.413000
20
53.800000
11
53.413000
21
53.800000
0
LINE
8
Layer 2
10
53.413000
20
53.800000
11
53.059447
21
53.946447
0
LINE
8
Layer 2
10
53.059447
20
53.946447
11
52.913000
21
54.300000
0
LINE
8
Layer 2
10
52.913000
20
54.300000
11
52.913000
21
67.300000
0
LINE
8
Layer 2
10
52.913000
20
67.300000
11
53.059447
21
67.653553
0
LINE
8
Layer 2
10
53.059447
20
67.653553
11
53.413000
21
67.800000
0
LINE
8
Layer 2
10
53.413000
20
67.800000
11
53.413000
21
67.800000
0
LINE
8
Layer 2
10
234.388000
20
86.850000
11
247.388000
21
86.850000
0
LINE
8
Layer 2
10
247.388000
20
86.850000
11
247.741553
21
86.703553
0
LINE
8
Layer 2
10
247.741553
20
86.703553
11
247.888000
21
86.350000
0
LINE
8
Layer 2
10
247.888000
20
86.350000
11
247.888000
21
73.350000
0
LINE
8
Layer 2
10
247.888000
20
73.350000
11
247.741553
21
72.996447
0
LINE
8
Layer 2
10
247.741553
20
72.996447
11
247.388000
21
72.850000
0
LINE
8
Layer 2
10
247.388000
20
72.850000
11
234.388000
21
72.850000
0
LINE
8
Layer 2
10
234.388000
20
72.850000
11
234.034447
21
72.996447
0
LINE
8
Layer 2
10
234.034447
20
72.996447
11
233.888000
21
73.350000
0
LINE
8
Layer 2
10
233.888000
20
73.350000
11
233.888000
21
86.350000
0
LINE
8
Layer 2
10
233.888000
20
86.350000
11
234.034447
21
86.703553
0
LINE
8
Layer 2
10
234.034447
20
86.703553
11
234.388000
21
86.850000
0
LINE
8
Layer 2
10
234.388000
20
86.850000
11
234.388000
21
86.850000
0
LINE
8
Layer 2
10
215.338000
20
86.850000
11
228.338000
21
86.850000
0
LINE
8
Layer 2
10
228.338000
20
86.850000
11
228.691553
21
86.703553
0
LINE
8
Layer 2
10
228.691553
20
86.703553
11
228.838000
21
86.350000
0
LINE
8
Layer 2
10
228.838000
20
86.350000
11
228.838000
21
73.350000
0
LINE
8
Layer 2
10
228.838000
20
73.350000
11
228.691553
21
72.996447
0
LINE
8
Layer 2
10
228.691553
20
72.996447
11
228.338000
21
72.850000
0
LINE
8
Layer 2
10
228.338000
20
72.850000
11
215.338000
21
72.850000
0
LINE
8
Layer 2
10
215.338000
20
72.850000
11
214.984447
21
72.996447
0
LINE
8
Layer 2
10
214.984447
20
72.996447
11
214.838000
21
73.350000
0
LINE
8
Layer 2
10
214.838000
20
73.350000
11
214.838000
21
86.350000
0
LINE
8
Layer 2
10
214.838000
20
86.350000
11
214.984447
21
86.703553
0
LINE
8
Layer 2
10
214.984447
20
86.703553
11
215.338000
21
86.850000
0
LINE
8
Layer 2
10
215.338000
20
86.850000
11
215.338000
21
86.850000
0
LINE
8
Layer 2
10
196.288000
20
86.850000
11
209.288000
21
86.850000
0
LINE
8
Layer 2
10
209.288000
20
86.850000
11
209.641553
21
86.703553
0
LINE
8
Layer 2
10
209.641553
20
86.703553
11
209.788000
21
86.350000
0
LINE
8
Layer 2
10
209.788000
20
86.350000
11
209.788000
21
73.350000
0
LINE
8
Layer 2
10
209.788000
20
73.350000
11
209.641553
21
72.996447
0
LINE
8
Layer 2
10
209.641553
20
72.996447
11
209.288000
21
72.850000
0
LINE
8
Layer 2
10
209.288000
20
72.850000
11
196.288000
21
72.850000
0
LINE
8
Layer 2
10
196.288000
20
72.850000
11
195.934447
21
72.996447
0
LINE
8
Layer 2
10
195.934447
20
72.996447
11
195.788000
21
73.350000
0
LINE
8
Layer 2
10
195.788000
20
73.350000
11
195.788000
21
86.350000
0
LINE
8
Layer 2
10
195.788000
20
86.350000
11
195.934447
21
86.703553
0
LINE
8
Layer 2
10
195.934447
20
86.703553
11
196.288000
21
86.850000
0
LINE
8
Layer 2
10
196.288000
20
86.850000
11
196.288000
21
86.850000
0
LINE
8
Layer 2
10
177.238000
20
86.850000
11
190.238000
21
86.850000
0
LINE
8
Layer 2
10
190.238000
20
86.850000
11
190.591553
21
86.703553
0
LINE
8
Layer 2
10
190.591553
20
86.703553
11
190.738000
21
86.350000
0
LINE
8
Layer 2
10
190.738000
20
86.350000
11
190.738000
21
73.350000
0
LINE
8
Layer 2
10
190.738000
20
73.350000
11
190.591553
21
72.996447
0
LINE
8
Layer 2
10
190.591553
20
72.996447
11
190.238000
21
72.850000
0
LINE
8
Layer 2
10
190.238000
20
72.850000
11
177.238000
21
72.850000
0
LINE
8
Layer 2
10
177.238000
20
72.850000
11
176.884447
21
72.996447
0
LINE
8
Layer 2
10
176.884447
20
72.996447
11
176.738000
21
73.350000
0
LINE
8
Layer 2
10
176.738000
20
73.350000
11
176.738000
21
86.350000
0
LINE
8
Layer 2
10
176.738000
20
86.350000
11
176.884447
21
86.703553
0
LINE
8
Layer 2
10
176.884447
20
86.703553
11
177.238000
21
86.850000
0
LINE
8
Layer 2
10
177.238000
20
86.850000
11
177.238000
21
86.850000
0
LINE
8
Layer 2
10
158.188000
20
86.850000
11
171.188000
21
86.850000
0
LINE
8
Layer 2
10
171.188000
20
86.850000
11
171.541553
21
86.703553
0
LINE
8
Layer 2
10
171.541553
20
86.703553
11
171.688000
21
86.350000
0
LINE
8
Layer 2
10
171.688000
20
86.350000
11
171.688000
21
73.350000
0
LINE
8
Layer 2
10
171.688000
20
73.350000
11
171.541553
21
72.996447
0
LINE
8
Layer 2
10
171.541553
20
72.996447
11
171.188000
21
72.850000
0
LINE
8
Layer 2
10
171.188000
20
72.850000
11
158.188000
21
72.850000
0
LINE
8
Layer 2
10
158.188000
20
72.850000
11
157.834447
21
72.996447
0
LINE
8
Layer 2
10
157.834447
20
72.996447
11
157.688000
21
73.350000
0
LINE
8
Layer 2
10
157.688000
20
73.350000
11
157.688000
21
86.350000
0
LINE
8
Layer 2
10
157.688000
20
86.350000
11
157.834447
21
86.703553
0
LINE
8
Layer 2
10
157.834447
20
86.703553
11
158.188000
21
86.850000
0
LINE
8
Layer 2
10
158.188000
20
86.850000
11
158.188000
21
86.850000
0
LINE
8
Layer 2
10
139.138000
20
86.850000
11
152.138000
21
86.850000
0
LINE
8
Layer 2
10
152.138000
20
86.850000
11
152.491553
21
86.703553
0
LINE
8
Layer 2
10
152.491553
20
86.703553
11
152.638000
21
86.350000
0
LINE
8
Layer 2
10
152.638000
20
86.350000
11
152.638000
21
73.350000
0
LINE
8
Layer 2
10
152.638000
20
73.350000
11
152.491553
21
72.996447
0
LINE
8
Layer 2
10
152.491553
20
72.996447
11
152.138000
21
72.850000
0
LINE
8
Layer 2
10
152.138000
20
72.850000
11
139.138000
21
72.850000
0
LINE
8
Layer 2
10
139.138000
20
72.850000
11
138.784447
21
72.996447
0
LINE
8
Layer 2
10
138.784447
20
72.996447
11
138.638000
21
73.350000
0
LINE
8
Layer 2
10
138.638000
20
73.350000
11
138.638000
21
86.350000
0
LINE
8
Layer 2
10
138.638000
20
86.350000
11
138.784447
21
86.703553
0
LINE
8
Layer 2
10
138.784447
20
86.703553
11
139.138000
21
86.850000
0
LINE
8
Layer 2
10
139.138000
20
86.850000
11
139.138000
21
86.850000
0
LINE
8
Layer 2
10
120.088000
20
86.850000
11
133.088000
21
86.850000
0
LINE
8
Layer 2
10
133.088000
20
86.850000
11
133.441553
21
86.703553
0
LINE
8
Layer 2
10
133.441553
20
86.703553
11
133.588000
21
86.350000
0
LINE
8
Layer 2
10
133.588000
20
86.350000
11
133.588000
21
73.350000
0
LINE
8
Layer 2
10
133.588000
20
73.350000
11
133.441553
21
72.996447
0
LINE
8
Layer 2
10
133.441553
20
72.996447
11
133.088000
21
72.850000
0
LINE
8
Layer 2
10
133.088000
20
72.850000
11
120.088000
21
72.850000
0
LINE
8
Layer 2
10
120.088000
20
72.850000
11
119.734447
21
72.996447
0
LINE
8
Layer 2
10
119.734447
20
72.996447
11
119.588000
21
73.350000
0
LINE
8
Layer 2
10
119.588000
20
73.350000
11
119.588000
21
86.350000
0
LINE
8
Layer 2
10
119.588000
20
86.350000
11
119.734447
21
86.703553
0
LINE
8
Layer 2
10
119.734447
20
86.703553
11
120.088000
21
86.850000
0
LINE
8
Layer 2
10
120.088000
20
86.850000
11
120.088000
21
86.850000
0
LINE
8
Layer 2
10
101.038000
20
86.850000
11
114.038000
21
86.850000
0
LINE
8
Layer 2
10
114.038000
20
86.850000
11
114.391553
21
86.703553
0
LINE
8
Layer 2
10
114.391553
20
86.703553
11
114.538000
21
86.350000
0
LINE
8
Layer 2
10
114.538000
20
86.350000
11
114.538000
21
73.350000
0
LINE
8
Layer 2
10
114.538000
20
73.350000
11
114.391553
21
72.996447
0
LINE
8
Layer 2
10
114.391553
20
72.996447
11
114.038000
21
72.850000
0
LINE
8
Layer 2
10
114.038000
20
72.850000
11
101.038000
21
72.850000
0
LINE
8
Layer 2
10
101.038000
20
72.850000
11
100.684447
21
72.996447
0
LINE
8
Layer 2
10
100.684447
20
72.996447
11
100.538000
21
73.350000
0
LINE
8
Layer 2
10
100.538000
20
73.350000
11
100.538000
21
86.350000
0
LINE
8
Layer 2
10
100.538000
20
86.350000
11
100.684447
21
86.703553
0
LINE
8
Layer 2
10
100.684447
20
86.703553
11
101.038000
21
86.850000
0
LINE
8
Layer 2
10
101.038000
20
86.850000
11
101.038000
21
86.850000
0
LINE
8
Layer 2
10
81.988000
20
86.850000
11
94.988000
21
86.850000
0
LINE
8
Layer 2
10
94.988000
20
86.850000
11
95.341553
21
86.703553
0
LINE
8
Layer 2
10
95.341553
20
86.703553
11
95.488000
21
86.350000
0
LINE
8
Layer 2
10
95.488000
20
86.350000
11
95.488000
21
73.350000
0
LINE
8
Layer 2
10
95.488000
20
73.350000
11
95.341553
21
72.996447
0
LINE
8
Layer 2
10
95.341553
20
72.996447
11
94.988000
21
72.850000
0
LINE
8
Layer 2
10
94.988000
20
72.850000
11
81.988000
21
72.850000
0
LINE
8
Layer 2
10
81.988000
20
72.850000
11
81.634447
21
72.996447
0
LINE
8
Layer 2
10
81.634447
20
72.996447
11
81.488000
21
73.350000
0
LINE
8
Layer 2
10
81.488000
20
73.350000
11
81.488000
21
86.350000
0
LINE
8
Layer 2
10
81.488000
20
86.350000
11
81.634447
21
86.703553
0
LINE
8
Layer 2
10
81.634447
20
86.703553
11
81.988000
21
86.850000
0
LINE
8
Layer 2
10
81.988000
20
86.850000
11
81.988000
21
86.850000
0
LINE
8
Layer 2
10
43.888000
20
86.850000
11
56.888000
21
86.850000
0
LINE
8
Layer 2
10
56.888000
20
86.850000
11
57.241553
21
86.703553
0
LINE
8
Layer 2
10
57.241553
20
86.703553
11
57.388000
21
86.350000
0
LINE
8
Layer 2
10
57.388000
20
86.350000
11
57.388000
21
73.350000
0
LINE
8
Layer 2
10
57.388000
20
73.350000
11
57.241553
21
72.996447
0
LINE
8
Layer 2
10
57.241553
20
72.996447
11
56.888000
21
72.850000
0
LINE
8
Layer 2
10
56.888000
20
72.850000
11
43.888000
21
72.850000
0
LINE
8
Layer 2
10
43.888000
20
72.850000
11
43.534447
21
72.996447
0
LINE
8
Layer 2
10
43.534447
20
72.996447
11
43.388000
21
73.350000
0
LINE
8
Layer 2
10
43.388000
20
73.350000
11
43.388000
21
86.350000
0
LINE
8
Layer 2
10
43.388000
20
86.350000
11
43.534447
21
86.703553
0
LINE
8
Layer 2
10
43.534447
20
86.703553
11
43.888000
21
86.850000
0
LINE
8
Layer 2
10
43.888000
20
86.850000
11
43.888000
21
86.850000
0
LINE
8
Layer 2
10
339.163000
20
105.900000
11
352.163000
21
105.900000
0
LINE
8
Layer 2
10
352.163000
20
105.900000
11
352.516553
21
105.753553
0
LINE
8
Layer 2
10
352.516553
20
105.753553
11
352.663000
21
105.400000
0
LINE
8
Layer 2
10
352.663000
20
105.400000
11
352.663000
21
92.400000
0
LINE
8
Layer 2
10
352.663000
20
92.400000
11
352.516553
21
92.046447
0
LINE
8
Layer 2
10
352.516553
20
92.046447
11
352.163000
21
91.900000
0
LINE
8
Layer 2
10
352.163000
20
91.900000
11
339.163000
21
91.900000
0
LINE
8
Layer 2
10
339.163000
20
91.900000
11
338.809447
21
92.046447
0
LINE
8
Layer 2
10
338.809447
20
92.046447
11
338.663000
21
92.400000
0
LINE
8
Layer 2
10
338.663000
20
92.400000
11
338.663000
21
105.400000
0
LINE
8
Layer 2
10
338.663000
20
105.400000
11
338.809447
21
105.753553
0
LINE
8
Layer 2
10
338.809447
20
105.753553
11
339.163000
21
105.900000
0
LINE
8
Layer 2
10
339.163000
20
105.900000
11
339.163000
21
105.900000
0
LINE
8
Layer 2
10
320.113000
20
105.900000
11
333.113000
21
105.900000
0
LINE
8
Layer 2
10
333.113000
20
105.900000
11
333.466553
21
105.753553
0
LINE
8
Layer 2
10
333.466553
20
105.753553
11
333.613000
21
105.400000
0
LINE
8
Layer 2
10
333.613000
20
105.400000
11
333.613000
21
92.400000
0
LINE
8
Layer 2
10
333.613000
20
92.400000
11
333.466553
21
92.046447
0
LINE
8
Layer 2
10
333.466553
20
92.046447
11
333.113000
21
91.900000
0
LINE
8
Layer 2
10
333.113000
20
91.900000
11
320.113000
21
91.900000
0
LINE
8
Layer 2
10
320.113000
20
91.900000
11
319.759447
21
92.046447
0
LINE
8
Layer 2
10
319.759447
20
92.046447
11
319.613000
21
92.400000
0
LINE
8
Layer 2
10
319.613000
20
92.400000
11
319.613000
21
105.400000
0
LINE
8
Layer 2
10
319.613000
20
105.400000
11
319.759447
21
105.753553
0
LINE
8
Layer 2
10
319.759447
20
105.753553
11
320.113000
21
105.900000
0
LINE
8
Layer 2
10
320.113000
20
105.900000
11
320.113000
21
105.900000
0
LINE
8
Layer 2
10
301.063000
20
105.900000
11
314.063000
21
105.900000
0
LINE
8
Layer 2
10
314.063000
20
105.900000
11
314.416553
21
105.753553
0
LINE
8
Layer 2
10
314.416553
20
105.753553
11
314.563000
21
105.400000
0
LINE
8
Layer 2
10
314.563000
20
105.400000
11
314.563000
21
92.400000
0
LINE
8
Layer 2
10
314.563000
20
92.400000
11
314.416553
21
92.046447
0
LINE
8
Layer 2
10
314.416553
20
92.046447
11
314.063000
21
91.900000
0
LINE
8
Layer 2
10
314.063000
20
91.900000
11
301.063000
21
91.900000
0
LINE
8
Layer 2
10
301.063000
20
91.900000
11
300.709447
21
92.046447
0
LINE
8
Layer 2
10
300.709447
20
92.046447
11
300.563000
21
92.400000
0
LINE
8
Layer 2
10
300.563000
20
92.400000
11
300.563000
21
105.400000
0
LINE
8
Layer 2
10
300.563000
20
105.400000
11
300.709447
21
105.753553
0
LINE
8
Layer 2
10
300.709447
20
105.753553
11
301.063000
21
105.900000
0
LINE
8
Layer 2
10
301.063000
20
105.900000
11
301.063000
21
105.900000
0
LINE
8
Layer 2
10
248.675000
20
105.900000
11
261.675000
21
105.900000
0
LINE
8
Layer 2
10
261.675000
20
105.900000
11
262.028553
21
105.753553
0
LINE
8
Layer 2
10
262.028553
20
105.753553
11
262.175000
21
105.400000
0
LINE
8
Layer 2
10
262.175000
20
105.400000
11
262.175000
21
92.400000
0
LINE
8
Layer 2
10
262.175000
20
92.400000
11
262.028553
21
92.046447
0
LINE
8
Layer 2
10
262.028553
20
92.046447
11
261.675000
21
91.900000
0
LINE
8
Layer 2
10
261.675000
20
91.900000
11
248.675000
21
91.900000
0
LINE
8
Layer 2
10
248.675000
20
91.900000
11
248.321447
21
92.046447
0
LINE
8
Layer 2
10
248.321447
20
92.046447
11
248.175000
21
92.400000
0
LINE
8
Layer 2
10
248.175000
20
92.400000
11
248.175000
21
105.400000
0
LINE
8
Layer 2
10
248.175000
20
105.400000
11
248.321447
21
105.753553
0
LINE
8
Layer 2
10
248.321447
20
105.753553
11
248.675000
21
105.900000
0
LINE
8
Layer 2
10
248.675000
20
105.900000
11
248.675000
21
105.900000
0
LINE
8
Layer 2
10
229.625000
20
105.900000
11
242.625000
21
105.900000
0
LINE
8
Layer 2
10
242.625000
20
105.900000
11
242.978553
21
105.753553
0
LINE
8
Layer 2
10
242.978553
20
105.753553
11
243.125000
21
105.400000
0
LINE
8
Layer 2
10
243.125000
20
105.400000
11
243.125000
21
92.400000
0
LINE
8
Layer 2
10
243.125000
20
92.400000
11
242.978553
21
92.046447
0
LINE
8
Layer 2
10
242.978553
20
92.046447
11
242.625000
21
91.900000
0
LINE
8
Layer 2
10
242.625000
20
91.900000
11
229.625000
21
91.900000
0
LINE
8
Layer 2
10
229.625000
20
91.900000
11
229.271447
21
92.046447
0
LINE
8
Layer 2
10
229.271447
20
92.046447
11
229.125000
21
92.400000
0
LINE
8
Layer 2
10
229.125000
20
92.400000
11
229.125000
21
105.400000
0
LINE
8
Layer 2
10
229.125000
20
105.400000
11
229.271447
21
105.753553
0
LINE
8
Layer 2
10
229.271447
20
105.753553
11
229.625000
21
105.900000
0
LINE
8
Layer 2
10
229.625000
20
105.900000
11
229.625000
21
105.900000
0
LINE
8
Layer 2
10
210.575000
20
105.900000
11
223.575000
21
105.900000
0
LINE
8
Layer 2
10
223.575000
20
105.900000
11
223.928553
21
105.753553
0
LINE
8
Layer 2
10
223.928553
20
105.753553
11
224.075000
21
105.400000
0
LINE
8
Layer 2
10
224.075000
20
105.400000
11
224.075000
21
92.400000
0
LINE
8
Layer 2
10
224.075000
20
92.400000
11
223.928553
21
92.046447
0
LINE
8
Layer 2
10
223.928553
20
92.046447
11
223.575000
21
91.900000
0
LINE
8
Layer 2
10
223.575000
20
91.900000
11
210.575000
21
91.900000
0
LINE
8
Layer 2
10
210.575000
20
91.900000
11
210.221447
21
92.046447
0
LINE
8
Layer 2
10
210.221447
20
92.046447
11
210.075000
21
92.400000
0
LINE
8
Layer 2
10
210.075000
20
92.400000
11
210.075000
21
105.400000
0
LINE
8
Layer 2
10
210.075000
20
105.400000
11
210.221447
21
105.753553
0
LINE
8
Layer 2
10
210.221447
20
105.753553
11
210.575000
21
105.900000
0
LINE
8
Layer 2
10
210.575000
20
105.900000
11
210.575000
21
105.900000
0
LINE
8
Layer 2
10
191.525000
20
105.900000
11
204.525000
21
105.900000
0
LINE
8
Layer 2
10
204.525000
20
105.900000
11
204.878553
21
105.753553
0
LINE
8
Layer 2
10
204.878553
20
105.753553
11
205.025000
21
105.400000
0
LINE
8
Layer 2
10
205.025000
20
105.400000
11
205.025000
21
92.400000
0
LINE
8
Layer 2
10
205.025000
20
92.400000
11
204.878553
21
92.046447
0
LINE
8
Layer 2
10
204.878553
20
92.046447
11
204.525000
21
91.900000
0
LINE
8
Layer 2
10
204.525000
20
91.900000
11
191.525000
21
91.900000
0
LINE
8
Layer 2
10
191.525000
20
91.900000
11
191.171447
21
92.046447
0
LINE
8
Layer 2
10
191.171447
20
92.046447
11
191.025000
21
92.400000
0
LINE
8
Layer 2
10
191.025000
20
92.400000
11
191.025000
21
105.400000
0
LINE
8
Layer 2
10
191.025000
20
105.400000
11
191.171447
21
105.753553
0
LINE
8
Layer 2
10
191.171447
20
105.753553
11
191.525000
21
105.900000
0
LINE
8
Layer 2
10
191.525000
20
105.900000
11
191.525000
21
105.900000
0
LINE
8
Layer 2
10
172.475000
20
105.900000
11
185.475000
21
105.900000
0
LINE
8
Layer 2
10
185.475000
20
105.900000
11
185.828553
21
105.753553
0
LINE
8
Layer 2
10
185.828553
20
105.753553
11
185.975000
21
105.400000
0
LINE
8
Layer 2
10
185.975000
20
105.400000
11
185.975000
21
92.400000
0
LINE
8
Layer 2
10
185.975000
20
92.400000
11
185.828553
21
92.046447
0
LINE
8
Layer 2
10
185.828553
20
92.046447
11
185.475000
21
91.900000
0
LINE
8
Layer 2
10
185.475000
20
91.900000
11
172.475000
21
91.900000
0
LINE
8
Layer 2
10
172.475000
20
91.900000
11
172.121447
21
92.046447
0
LINE
8
Layer 2
10
172.121447
20
92.046447
11
171.975000
21
92.400000
0
LINE
8
Layer 2
10
171.975000
20
92.400000
11
171.975000
21
105.400000
0
LINE
8
Layer 2
10
171.975000
20
105.400000
11
172.121447
21
105.753553
0
LINE
8
Layer 2
10
172.121447
20
105.753553
11
172.475000
21
105.900000
0
LINE
8
Layer 2
10
172.475000
20
105.900000
11
172.475000
21
105.900000
0
LINE
8
Layer 2
10
153.425000
20
105.900000
11
166.425000
21
105.900000
0
LINE
8
Layer 2
10
166.425000
20
105.900000
11
166.778553
21
105.753553
0
LINE
8
Layer 2
10
166.778553
20
105.753553
11
166.925000
21
105.400000
0
LINE
8
Layer 2
10
166.925000
20
105.400000
11
166.925000
21
92.400000
0
LINE
8
Layer 2
10
166.925000
20
92.400000
11
166.778553
21
92.046447
0
LINE
8
Layer 2
10
166.778553
20
92.046447
11
166.425000
21
91.900000
0
LINE
8
Layer 2
10
166.425000
20
91.900000
11
153.425000
21
91.900000
0
LINE
8
Layer 2
10
153.425000
20
91.900000
11
153.071447
21
92.046447
0
LINE
8
Layer 2
10
153.071447
20
92.046447
11
152.925000
21
92.400000
0
LINE
8
Layer 2
10
152.925000
20
92.400000
11
152.925000
21
105.400000
0
LINE
8
Layer 2
10
152.925000
20
105.400000
11
153.071447
21
105.753553
0
LINE
8
Layer 2
10
153.071447
20
105.753553
11
153.425000
21
105.900000
0
LINE
8
Layer 2
10
153.425000
20
105.900000
11
153.425000
21
105.900000
0
LINE
8
Layer 2
10
134.375000
20
105.900000
11
147.375000
21
105.900000
0
LINE
8
Layer 2
10
147.375000
20
105.900000
11
147.728553
21
105.753553
0
LINE
8
Layer 2
10
147.728553
20
105.753553
11
147.875000
21
105.400000
0
LINE
8
Layer 2
10
147.875000
20
105.400000
11
147.875000
21
92.400000
0
LINE
8
Layer 2
10
147.875000
20
92.400000
11
147.728553
21
92.046447
0
LINE
8
Layer 2
10
147.728553
20
92.046447
11
147.375000
21
91.900000
0
LINE
8
Layer 2
10
147.375000
20
91.900000
11
134.375000
21
91.900000
0
LINE
8
Layer 2
10
134.375000
20
91.900000
11
134.021447
21
92.046447
0
LINE
8
Layer 2
10
134.021447
20
92.046447
11
133.875000
21
92.400000
0
LINE
8
Layer 2
10
133.875000
20
92.400000
11
133.875000
21
105.400000
0
LINE
8
Layer 2
10
133.875000
20
105.400000
11
134.021447
21
105.753553
0
LINE
8
Layer 2
10
134.021447
20
105.753553
11
134.375000
21
105.900000
0
LINE
8
Layer 2
10
134.375000
20
105.900000
11
134.375000
21
105.900000
0
LINE
8
Layer 2
10
115.325000
20
105.900000
11
128.325000
21
105.900000
0
LINE
8
Layer 2
10
128.325000
20
105.900000
11
128.678553
21
105.753553
0
LINE
8
Layer 2
10
128.678553
20
105.753553
11
128.825000
21
105.400000
0
LINE
8
Layer 2
10
128.825000
20
105.400000
11
128.825000
21
92.400000
0
LINE
8
Layer 2
10
128.825000
20
92.400000
11
128.678553
21
92.046447
0
LINE
8
Layer 2
10
128.678553
20
92.046447
11
128.325000
21
91.900000
0
LINE
8
Layer 2
10
128.325000
20
91.900000
11
115.325000
21
91.900000
0
LINE
8
Layer 2
10
115.325000
20
91.900000
11
114.971447
21
92.046447
0
LINE
8
Layer 2
10
114.971447
20
92.046447
11
114.825000
21
92.400000
0
LINE
8
Layer 2
10
114.825000
20
92.400000
11
114.825000
21
105.400000
0
LINE
8
Layer 2
10
114.825000
20
105.400000
11
114.971447
21
105.753553
0
LINE
8
Layer 2
10
114.971447
20
105.753553
11
115.325000
21
105.900000
0
LINE
8
Layer 2
10
115.325000
20
105.900000
11
115.325000
21
105.900000
0
LINE
8
Layer 2
10
96.275000
20
105.900000
11
109.275000
21
105.900000
0
LINE
8
Layer 2
10
109.275000
20
105.900000
11
109.628553
21
105.753553
0
LINE
8
Layer 2
10
109.628553
20
105.753553
11
109.775000
21
105.400000
0
LINE
8
Layer 2
10
109.775000
20
105.400000
11
109.775000
21
92.400000
0
LINE
8
Layer 2
10
109.775000
20
92.400000
11
109.628553
21
92.046447
0
LINE
8
Layer 2
10
109.628553
20
92.046447
11
109.275000
21
91.900000
0
LINE
8
Layer 2
10
109.275000
20
91.900000
11
96.275000
21
91.900000
0
LINE
8
Layer 2
10
96.275000
20
91.900000
11
95.921447
21
92.046447
0
LINE
8
Layer 2
10
95.921447
20
92.046447
11
95.775000
21
92.400000
0
LINE
8
Layer 2
10
95.775000
20
92.400000
11
95.775000
21
105.400000
0
LINE
8
Layer 2
10
95.775000
20
105.400000
11
95.921447
21
105.753553
0
LINE
8
Layer 2
10
95.921447
20
105.753553
11
96.275000
21
105.900000
0
LINE
8
Layer 2
10
96.275000
20
105.900000
11
96.275000
21
105.900000
0
LINE
8
Layer 2
10
77.225000
20
105.900000
11
90.225000
21
105.900000
0
LINE
8
Layer 2
10
90.225000
20
105.900000
11
90.578553
21
105.753553
0
LINE
8
Layer 2
10
90.578553
20
105.753553
11
90.725000
21
105.400000
0
LINE
8
Layer 2
10
90.725000
20
105.400000
11
90.725000
21
92.400000
0
LINE
8
Layer 2
10
90.725000
20
92.400000
11
90.578553
21
92.046447
0
LINE
8
Layer 2
10
90.578553
20
92.046447
11
90.225000
21
91.900000
0
LINE
8
Layer 2
10
90.225000
20
91.900000
11
77.225000
21
91.900000
0
LINE
8
Layer 2
10
77.225000
20
91.900000
11
76.871447
21
92.046447
0
LINE
8
Layer 2
10
76.871447
20
92.046447
11
76.725000
21
92.400000
0
LINE
8
Layer 2
10
76.725000
20
92.400000
11
76.725000
21
105.400000
0
LINE
8
Layer 2
10
76.725000
20
105.400000
11
76.871447
21
105.753553
0
LINE
8
Layer 2
10
76.871447
20
105.753553
11
77.225000
21
105.900000
0
LINE
8
Layer 2
10
77.225000
20
105.900000
11
77.225000
21
105.900000
0
LINE
8
Layer 2
10
58.175000
20
105.900000
11
71.175000
21
105.900000
0
LINE
8
Layer 2
10
71.175000
20
105.900000
11
71.528553
21
105.753553
0
LINE
8
Layer 2
10
71.528553
20
105.753553
11
71.675000
21
105.400000
0
LINE
8
Layer 2
10
71.675000
20
105.400000
11
71.675000
21
92.400000
0
LINE
8
Layer 2
10
71.675000
20
92.400000
11
71.528553
21
92.046447
0
LINE
8
Layer 2
10
71.528553
20
92.046447
11
71.175000
21
91.900000
0
LINE
8
Layer 2
10
71.175000
20
91.900000
11
58.175000
21
91.900000
0
LINE
8
Layer 2
10
58.175000
20
91.900000
11
57.821447
21
92.046447
0
LINE
8
Layer 2
10
57.821447
20
92.046447
11
57.675000
21
92.400000
0
LINE
8
Layer 2
10
57.675000
20
92.400000
11
57.675000
21
105.400000
0
LINE
8
Layer 2
10
57.675000
20
105.400000
11
57.821447
21
105.753553
0
LINE
8
Layer 2
10
57.821447
20
105.753553
11
58.175000
21
105.900000
0
LINE
8
Layer 2
10
58.175000
20
105.900000
11
58.175000
21
105.900000
0
LINE
8
Layer 2
10
39.125000
20
105.900000
11
52.125000
21
105.900000
0
LINE
8
Layer 2
10
52.125000
20
105.900000
11
52.478553
21
105.753553
0
LINE
8
Layer 2
10
52.478553
20
105.753553
11
52.625000
21
105.400000
0
LINE
8
Layer 2
10
52.625000
20
105.400000
11
52.625000
21
92.400000
0
LINE
8
Layer 2
10
52.625000
20
92.400000
11
52.478553
21
92.046447
0
LINE
8
Layer 2
10
52.478553
20
92.046447
11
52.125000
21
91.900000
0
LINE
8
Layer 2
10
52.125000
20
91.900000
11
39.125000
21
91.900000
0
LINE
8
Layer 2
10
39.125000
20
91.900000
11
38.771447
21
92.046447
0
LINE
8
Layer 2
10
38.771447
20
92.046447
11
38.625000
21
92.400000
0
LINE
8
Layer 2
10
38.625000
20
92.400000
11
38.625000
21
105.400000
0
LINE
8
Layer 2
10
38.625000
20
105.400000
11
38.771447
21
105.753553
0
LINE
8
Layer 2
10
38.771447
20
105.753553
11
39.125000
21
105.900000
0
LINE
8
Layer 2
10
39.125000
20
105.900000
11
39.125000
21
105.900000
0
LINE
8
Layer 2
10
15.313000
20
105.900000
11
28.313000
21
105.900000
0
LINE
8
Layer 2
10
28.313000
20
105.900000
11
28.666553
21
105.753553
0
LINE
8
Layer 2
10
28.666553
20
105.753553
11
28.813000
21
105.400000
0
LINE
8
Layer 2
10
28.813000
20
105.400000
11
28.813000
21
92.400000
0
LINE
8
Layer 2
10
28.813000
20
92.400000
11
28.666553
21
92.046447
0
LINE
8
Layer 2
10
28.666553
20
92.046447
11
28.313000
21
91.900000
0
LINE
8
Layer 2
10
28.313000
20
91.900000
11
15.313000
21
91.900000
0
LINE
8
Layer 2
10
15.313000
20
91.900000
11
14.959447
21
92.046447
0
LINE
8
Layer 2
10
14.959447
20
92.046447
11
14.813000
21
92.400000
0
LINE
8
Layer 2
10
14.813000
20
92.400000
11
14.813000
21
105.400000
0
LINE
8
Layer 2
10
14.813000
20
105.400000
11
14.959447
21
105.753553
0
LINE
8
Layer 2
10
14.959447
20
105.753553
11
15.313000
21
105.900000
0
LINE
8
Layer 2
10
15.313000
20
105.900000
11
15.313000
21
105.900000
0
LINE
8
Layer 2
10
339.163000
20
124.950000
11
352.163000
21
124.950000
0
LINE
8
Layer 2
10
352.163000
20
124.950000
11
352.516553
21
124.803553
0
LINE
8
Layer 2
10
352.516553
20
124.803553
11
352.663000
21
124.450000
0
LINE
8
Layer 2
10
352.663000
20
124.450000
11
352.663000
21
111.450000
0
LINE
8
Layer 2
10
352.663000
20
111.450000
11
352.516553
21
111.096447
0
LINE
8
Layer 2
10
352.516553
20
111.096447
11
352.163000
21
110.950000
0
LINE
8
Layer 2
10
352.163000
20
110.950000
11
339.163000
21
110.950000
0
LINE
8
Layer 2
10
339.163000
20
110.950000
11
338.809447
21
111.096447
0
LINE
8
Layer 2
10
338.809447
20
111.096447
11
338.663000
21
111.450000
0
LINE
8
Layer 2
10
338.663000
20
111.450000
11
338.663000
21
124.450000
0
LINE
8
Layer 2
10
338.663000
20
124.450000
11
338.809447
21
124.803553
0
LINE
8
Layer 2
10
338.809447
20
124.803553
11
339.163000
21
124.950000
0
LINE
8
Layer 2
10
339.163000
20
124.950000
11
339.163000
21
124.950000
0
LINE
8
Layer 2
10
320.113000
20
124.950000
11
333.113000
21
124.950000
0
LINE
8
Layer 2
10
333.113000
20
124.950000
11
333.466553
21
124.803553
0
LINE
8
Layer 2
10
333.466553
20
124.803553
11
333.613000
21
124.450000
0
LINE
8
Layer 2
10
333.613000
20
124.450000
11
333.613000
21
111.450000
0
LINE
8
Layer 2
10
333.613000
20
111.450000
11
333.466553
21
111.096447
0
LINE
8
Layer 2
10
333.466553
20
111.096447
11
333.113000
21
110.950000
0
LINE
8
Layer 2
10
333.113000
20
110.950000
11
320.113000
21
110.950000
0
LINE
8
Layer 2
10
320.113000
20
110.950000
11
319.759447
21
111.096447
0
LINE
8
Layer 2
10
319.759447
20
111.096447
11
319.613000
21
111.450000
0
LINE
8
Layer 2
10
319.613000
20
111.450000
11
319.613000
21
124.450000
0
LINE
8
Layer 2
10
319.613000
20
124.450000
11
319.759447
21
124.803553
0
LINE
8
Layer 2
10
319.759447
20
124.803553
11
320.113000
21
124.950000
0
LINE
8
Layer 2
10
320.113000
20
124.950000
11
320.113000
21
124.950000
0
LINE
8
Layer 2
10
301.063000
20
124.950000
11
314.063000
21
124.950000
0
LINE
8
Layer 2
10
314.063000
20
124.950000
11
314.416553
21
124.803553
0
LINE
8
Layer 2
10
314.416553
20
124.803553
11
314.563000
21
124.450000
0
LINE
8
Layer 2
10
314.563000
20
124.450000
11
314.563000
21
111.450000
0
LINE
8
Layer 2
10
314.563000
20
111.450000
11
314.416553
21
111.096447
0
LINE
8
Layer 2
10
314.416553
20
111.096447
11
314.063000
21
110.950000
0
LINE
8
Layer 2
10
314.063000
20
110.950000
11
301.063000
21
110.950000
0
LINE
8
Layer 2
10
301.063000
20
110.950000
11
300.709447
21
111.096447
0
LINE
8
Layer 2
10
300.709447
20
111.096447
11
300.563000
21
111.450000
0
LINE
8
Layer 2
10
300.563000
20
111.450000
11
300.563000
21
124.450000
0
LINE
8
Layer 2
10
300.563000
20
124.450000
11
300.709447
21
124.803553
0
LINE
8
Layer 2
10
300.709447
20
124.803553
11
301.063000
21
124.950000
0
LINE
8
Layer 2
10
301.063000
20
124.950000
11
301.063000
21
124.950000
0
LINE
8
Layer 2
10
239.150000
20
124.950000
11
252.150000
21
124.950000
0
LINE
8
Layer 2
10
252.150000
20
124.950000
11
252.503553
21
124.803553
0
LINE
8
Layer 2
10
252.503553
20
124.803553
11
252.650000
21
124.450000
0
LINE
8
Layer 2
10
252.650000
20
124.450000
11
252.650000
21
111.450000
0
LINE
8
Layer 2
10
252.650000
20
111.450000
11
252.503553
21
111.096447
0
LINE
8
Layer 2
10
252.503553
20
111.096447
11
252.150000
21
110.950000
0
LINE
8
Layer 2
10
252.150000
20
110.950000
11
239.150000
21
110.950000
0
LINE
8
Layer 2
10
239.150000
20
110.950000
11
238.796447
21
111.096447
0
LINE
8
Layer 2
10
238.796447
20
111.096447
11
238.650000
21
111.450000
0
LINE
8
Layer 2
10
238.650000
20
111.450000
11
238.650000
21
124.450000
0
LINE
8
Layer 2
10
238.650000
20
124.450000
11
238.796447
21
124.803553
0
LINE
8
Layer 2
10
238.796447
20
124.803553
11
239.150000
21
124.950000
0
LINE
8
Layer 2
10
239.150000
20
124.950000
11
239.150000
21
124.950000
0
LINE
8
Layer 2
10
220.100000
20
124.950000
11
233.100000
21
124.950000
0
LINE
8
Layer 2
10
233.100000
20
124.950000
11
233.453553
21
124.803553
0
LINE
8
Layer 2
10
233.453553
20
124.803553
11
233.600000
21
124.450000
0
LINE
8
Layer 2
10
233.600000
20
124.450000
11
233.600000
21
111.450000
0
LINE
8
Layer 2
10
233.600000
20
111.450000
11
233.453553
21
111.096447
0
LINE
8
Layer 2
10
233.453553
20
111.096447
11
233.100000
21
110.950000
0
LINE
8
Layer 2
10
233.100000
20
110.950000
11
220.100000
21
110.950000
0
LINE
8
Layer 2
10
220.100000
20
110.950000
11
219.746447
21
111.096447
0
LINE
8
Layer 2
10
219.746447
20
111.096447
11
219.600000
21
111.450000
0
LINE
8
Layer 2
10
219.600000
20
111.450000
11
219.600000
21
124.450000
0
LINE
8
Layer 2
10
219.600000
20
124.450000
11
219.746447
21
124.803553
0
LINE
8
Layer 2
10
219.746447
20
124.803553
11
220.100000
21
124.950000
0
LINE
8
Layer 2
10
220.100000
20
124.950000
11
220.100000
21
124.950000
0
LINE
8
Layer 2
10
201.050000
20
124.950000
11
214.050000
21
124.950000
0
LINE
8
Layer 2
10
214.050000
20
124.950000
11
214.403553
21
124.803553
0
LINE
8
Layer 2
10
214.403553
20
124.803553
11
214.550000
21
124.450000
0
LINE
8
Layer 2
10
214.550000
20
124.450000
11
214.550000
21
111.450000
0
LINE
8
Layer 2
10
214.550000
20
111.450000
11
214.403553
21
111.096447
0
LINE
8
Layer 2
10
214.403553
20
111.096447
11
214.050000
21
110.950000
0
LINE
8
Layer 2
10
214.050000
20
110.950000
11
201.050000
21
110.950000
0
LINE
8
Layer 2
10
201.050000
20
110.950000
11
200.696447
21
111.096447
0
LINE
8
Layer 2
10
200.696447
20
111.096447
11
200.550000
21
111.450000
0
LINE
8
Layer 2
10
200.550000
20
111.450000
11
200.550000
21
124.450000
0
LINE
8
Layer 2
10
200.550000
20
124.450000
11
200.696447
21
124.803553
0
LINE
8
Layer 2
10
200.696447
20
124.803553
11
201.050000
21
124.950000
0
LINE
8
Layer 2
10
201.050000
20
124.950000
11
201.050000
21
124.950000
0
LINE
8
Layer 2
10
182.000000
20
124.950000
11
195.000000
21
124.950000
0
LINE
8
Layer 2
10
195.000000
20
124.950000
11
195.353553
21
124.803553
0
LINE
8
Layer 2
10
195.353553
20
124.803553
11
195.500000
21
124.450000
0
LINE
8
Layer 2
10
195.500000
20
124.450000
11
195.500000
21
111.450000
0
LINE
8
Layer 2
10
195.500000
20
111.450000
11
195.353553
21
111.096447
0
LINE
8
Layer 2
10
195.353553
20
111.096447
11
195.000000
21
110.950000
0
LINE
8
Layer 2
10
195.000000
20
110.950000
11
182.000000
21
110.950000
0
LINE
8
Layer 2
10
182.000000
20
110.950000
11
181.646447
21
111.096447
0
LINE
8
Layer 2
10
181.646447
20
111.096447
11
181.500000
21
111.450000
0
LINE
8
Layer 2
10
181.500000
20
111.450000
11
181.500000
21
124.450000
0
LINE
8
Layer 2
10
181.500000
20
124.450000
11
181.646447
21
124.803553
0
LINE
8
Layer 2
10
181.646447
20
124.803553
11
182.000000
21
124.950000
0
LINE
8
Layer 2
10
182.000000
20
124.950000
11
182.000000
21
124.950000
0
LINE
8
Layer 2
10
162.950000
20
124.950000
11
175.950000
21
124.950000
0
LINE
8
Layer 2
10
175.950000
20
124.950000
11
176.303553
21
124.803553
0
LINE
8
Layer 2
10
176.303553
20
124.803553
11
176.450000
21
124.450000
0
LINE
8
Layer 2
10
176.450000
20
124.450000
11
176.450000
21
111.450000
0
LINE
8
Layer 2
10
176.450000
20
111.450000
11
176.303553
21
111.096447
0
LINE
8
Layer 2
10
176.303553
20
111.096447
11
175.950000
21
110.950000
0
LINE
8
Layer 2
10
175.950000
20
110.950000
11
162.950000
21
110.950000
0
LINE
8
Layer 2
10
162.950000
20
110.950000
11
162.596447
21
111.096447
0
LINE
8
Layer 2
10
162.596447
20
111.096447
11
162.450000
21
111.450000
0
LINE
8
Layer 2
10
162.450000
20
111.450000
11
162.450000
21
124.450000
0
LINE
8
Layer 2
10
162.450000
20
124.450000
11
162.596447
21
124.803553
0
LINE
8
Layer 2
10
162.596447
20
124.803553
11
162.950000
21
124.950000
0
LINE
8
Layer 2
10
162.950000
20
124.950000
11
162.950000
21
124.950000
0
LINE
8
Layer 2
10
143.900000
20
124.950000
11
156.900000
21
124.950000
0
LINE
8
Layer 2
10
156.900000
20
124.950000
11
157.253553
21
124.803553
0
LINE
8
Layer 2
10
157.253553
20
124.803553
11
157.400000
21
124.450000
0
LINE
8
Layer 2
10
157.400000
20
124.450000
11
157.400000
21
111.450000
0
LINE
8
Layer 2
10
157.400000
20
111.450000
11
157.253553
21
111.096447
0
LINE
8
Layer 2
10
157.253553
20
111.096447
11
156.900000
21
110.950000
0
LINE
8
Layer 2
10
156.900000
20
110.950000
11
143.900000
21
110.950000
0
LINE
8
Layer 2
10
143.900000
20
110.950000
11
143.546447
21
111.096447
0
LINE
8
Layer 2
10
143.546447
20
111.096447
11
143.400000
21
111.450000
0
LINE
8
Layer 2
10
143.400000
20
111.450000
11
143.400000
21
124.450000
0
LINE
8
Layer 2
10
143.400000
20
124.450000
11
143.546447
21
124.803553
0
LINE
8
Layer 2
10
143.546447
20
124.803553
11
143.900000
21
124.950000
0
LINE
8
Layer 2
10
143.900000
20
124.950000
11
143.900000
21
124.950000
0
LINE
8
Layer 2
10
105.800000
20
124.950000
11
118.800000
21
124.950000
0
LINE
8
Layer 2
10
118.800000
20
124.950000
11
119.153553
21
124.803553
0
LINE
8
Layer 2
10
119.153553
20
124.803553
11
119.300000
21
124.450000
0
LINE
8
Layer 2
10
119.300000
20
124.450000
11
119.300000
21
111.450000
0
LINE
8
Layer 2
10
119.300000
20
111.450000
11
119.153553
21
111.096447
0
LINE
8
Layer 2
10
119.153553
20
111.096447
11
118.800000
21
110.950000
0
LINE
8
Layer 2
10
118.800000
20
110.950000
11
105.800000
21
110.950000
0
LINE
8
Layer 2
10
105.800000
20
110.950000
11
105.446447
21
111.096447
0
LINE
8
Layer 2
10
105.446447
20
111.096447
11
105.300000
21
111.450000
0
LINE
8
Layer 2
10
105.300000
20
111.450000
11
105.300000
21
124.450000
0
LINE
8
Layer 2
10
105.300000
20
124.450000
11
105.446447
21
124.803553
0
LINE
8
Layer 2
10
105.446447
20
124.803553
11
105.800000
21
124.950000
0
LINE
8
Layer 2
10
105.800000
20
124.950000
11
105.800000
21
124.950000
0
LINE
8
Layer 2
10
86.750000
20
124.950000
11
99.750000
21
124.950000
0
LINE
8
Layer 2
10
99.750000
20
124.950000
11
100.103553
21
124.803553
0
LINE
8
Layer 2
10
100.103553
20
124.803553
11
100.250000
21
124.450000
0
LINE
8
Layer 2
10
100.250000
20
124.450000
11
100.250000
21
111.450000
0
LINE
8
Layer 2
10
100.250000
20
111.450000
11
100.103553
21
111.096447
0
LINE
8
Layer 2
10
100.103553
20
111.096447
11
99.750000
21
110.950000
0
LINE
8
Layer 2
10
99.750000
20
110.950000
11
86.750000
21
110.950000
0
LINE
8
Layer 2
10
86.750000
20
110.950000
11
86.396447
21
111.096447
0
LINE
8
Layer 2
10
86.396447
20
111.096447
11
86.250000
21
111.450000
0
LINE
8
Layer 2
10
86.250000
20
111.450000
11
86.250000
21
124.450000
0
LINE
8
Layer 2
10
86.250000
20
124.450000
11
86.396447
21
124.803553
0
LINE
8
Layer 2
10
86.396447
20
124.803553
11
86.750000
21
124.950000
0
LINE
8
Layer 2
10
86.750000
20
124.950000
11
86.750000
21
124.950000
0
LINE
8
Layer 2
10
67.700000
20
124.950000
11
80.700000
21
124.950000
0
LINE
8
Layer 2
10
80.700000
20
124.950000
11
81.053553
21
124.803553
0
LINE
8
Layer 2
10
81.053553
20
124.803553
11
81.200000
21
124.450000
0
LINE
8
Layer 2
10
81.200000
20
124.450000
11
81.200000
21
111.450000
0
LINE
8
Layer 2
10
81.200000
20
111.450000
11
81.053553
21
111.096447
0
LINE
8
Layer 2
10
81.053553
20
111.096447
11
80.700000
21
110.950000
0
LINE
8
Layer 2
10
80.700000
20
110.950000
11
67.700000
21
110.950000
0
LINE
8
Layer 2
10
67.700000
20
110.950000
11
67.346447
21
111.096447
0
LINE
8
Layer 2
10
67.346447
20
111.096447
11
67.200000
21
111.450000
0
LINE
8
Layer 2
10
67.200000
20
111.450000
11
67.200000
21
124.450000
0
LINE
8
Layer 2
10
67.200000
20
124.450000
11
67.346447
21
124.803553
0
LINE
8
Layer 2
10
67.346447
20
124.803553
11
67.700000
21
124.950000
0
LINE
8
Layer 2
10
67.700000
20
124.950000
11
67.700000
21
124.950000
0
LINE
8
Layer 2
10
48.650000
20
124.950000
11
61.650000
21
124.950000
0
LINE
8
Layer 2
10
61.650000
20
124.950000
11
62.003553
21
124.803553
0
LINE
8
Layer 2
10
62.003553
20
124.803553
11
62.150000
21
124.450000
0
LINE
8
Layer 2
10
62.150000
20
124.450000
11
62.150000
21
111.450000
0
LINE
8
Layer 2
10
62.150000
20
111.450000
11
62.003553
21
111.096447
0
LINE
8
Layer 2
10
62.003553
20
111.096447
11
61.650000
21
110.950000
0
LINE
8
Layer 2
10
61.650000
20
110.950000
11
48.650000
21
110.950000
0
LINE
8
Layer 2
10
48.650000
20
110.950000
11
48.296447
21
111.096447
0
LINE
8
Layer 2
10
48.296447
20
111.096447
11
48.150000
21
111.450000
0
LINE
8
Layer 2
10
48.150000
20
111.450000
11
48.150000
21
124.450000
0
LINE
8
Layer 2
10
48.150000
20
124.450000
11
48.296447
21
124.803553
0
LINE
8
Layer 2
10
48.296447
20
124.803553
11
48.650000
21
124.950000
0
LINE
8
Layer 2
10
48.650000
20
124.950000
11
48.650000
21
124.950000
0
LINE
8
Layer 2
10
29.600000
20
124.950000
11
42.600000
21
124.950000
0
LINE
8
Layer 2
10
42.600000
20
124.950000
11
42.953553
21
124.803553
0
LINE
8
Layer 2
10
42.953553
20
124.803553
11
43.100000
21
124.450000
0
LINE
8
Layer 2
10
43.100000
20
124.450000
11
43.100000
21
111.450000
0
LINE
8
Layer 2
10
43.100000
20
111.450000
11
42.953553
21
111.096447
0
LINE
8
Layer 2
10
42.953553
20
111.096447
11
42.600000
21
110.950000
0
LINE
8
Layer 2
10
42.600000
20
110.950000
11
29.600000
21
110.950000
0
LINE
8
Layer 2
10
29.600000
20
110.950000
11
29.246447
21
111.096447
0
LINE
8
Layer 2
10
29.246447
20
111.096447
11
29.100000
21
111.450000
0
LINE
8
Layer 2
10
29.100000
20
111.450000
11
29.100000
21
124.450000
0
LINE
8
Layer 2
10
29.100000
20
124.450000
11
29.246447
21
124.803553
0
LINE
8
Layer 2
10
29.246447
20
124.803553
11
29.600000
21
124.950000
0
LINE
8
Layer 2
10
29.600000
20
124.950000
11
29.600000
21
124.950000
 0 
ENDSEC
 0 
EOF