<?xml version="1.0" encoding="UTF-8" standalone="no"?>
<svg
   width="347.663mm"
   height="233.363mm"
   viewBox="0 0 347.663 233.363"
   version="1.1"
   id="svg1"
   sodipodi:docname="plate-generated.svg"
   inkscape:version="1.3.2 (091e20e, 2023-11-25, custom)"
   xmlns:inkscape="http://www.inkscape.org/namespaces/inkscape"
   xmlns:sodipodi="http://sodipodi.sourceforge.net/DTD/sodipodi-0.dtd"
   xmlns="http://www.w3.org/2000/svg"
   xmlns:svg="http://www.w3.org/2000/svg">
  <defs
     id="defs1" />
  <sodipodi:namedview
     id="namedview1"
     pagecolor="#505050"
     bordercolor="#eeeeee"
     borderopacity="1"
     inkscape:showpageshadow="0"
     inkscape:pageopacity="0"
     inkscape:pagecheckerboard="0"
     inkscape:deskcolor="#505050"
     inkscape:document-units="mm"
     inkscape:zoom="0.95483259"
     inkscape:cx="580.20642"
     inkscape:cy="432.0129"
     inkscape:window-width="2560"
     inkscape:window-height="1369"
     inkscape:window-x="3832"
     inkscape:window-y="-8"
     inkscape:window-maximized="1"
     inkscape:current-layer="svg1" />
  <path
     style="font-size:12px;fill:none;fill-rule:evenodd;stroke:#000000;stroke-width:0.1;stroke-linecap:round;stroke-dasharray:none"
     d="m 279.844,204.2 v 6 a 0.5,0.5 0 0 1 -0.5,0.5 h -14 a 0.5,0.5 0 0 1 -0.5,-0.5 v -6 a 0.5,0.5 0 0 1 0.5,-0.5 h 14 a 0.5,0.5 0 0 1 0.5,0.5 z"
     id="path131" />
  <path
     style="font-size:12px;fill:none;fill-rule:evenodd;stroke:#000000;stroke-width:0.1;stroke-linecap:round;stroke-dasharray:none"
     d="m 279.844,180.325 v 6 a 0.5,0.5 0 0 1 -0.5,0.5 h -14 a 0.5,0.5 0 0 1 -0.5,-0.5 v -6 a 0.5,0.5 0 0 1 0.5,-0.5 h 14 a 0.5,0.5 0 0 1 0.5,0.5 z"
     id="path130" />
  <path
     style="font-size:12px;fill:none;fill-rule:evenodd;stroke:#000000;stroke-width:0.1;stroke-linecap:round;stroke-dasharray:none"
     d="m 197.025,141.638 h 6 a 0.5,0.5 0 0 1 0.5,0.5 v 14 a 0.5,0.5 0 0 1 -0.5,0.5 h -6 a 0.5,0.5 0 0 1 -0.5,-0.5 v -14 a 0.5,0.5 0 0 1 0.5,-0.5 z"
     id="path129" />
  <path
     style="font-size:12px;fill:none;fill-rule:evenodd;stroke:#000000;stroke-width:0.1;stroke-linecap:round;stroke-dasharray:none"
     d="m 158.925,141.638 h 6 a 0.5,0.5 0 0 1 0.5,0.5 v 14 a 0.5,0.5 0 0 1 -0.5,0.5 h -6 a 0.5,0.5 0 0 1 -0.5,-0.5 v -14 a 0.5,0.5 0 0 1 0.5,-0.5 z"
     id="path128" />
  <path
     style="font-size:12px;fill:none;fill-rule:evenodd;stroke:#000000;stroke-width:0.1;stroke-linecap:round;stroke-dasharray:none"
     d="m 120.825,141.638 h 6 a 0.5,0.5 0 0 1 0.5,0.5 v 14 a 0.5,0.5 0 0 1 -0.5,0.5 h -6 a 0.5,0.5 0 0 1 -0.5,-0.5 v -14 a 0.5,0.5 0 0 1 0.5,-0.5 z"
     id="path127" />
  <path
     style="font-size:12px;fill:none;fill-rule:evenodd;stroke:#000000;stroke-width:0.1;stroke-linecap:round;stroke-dasharray:none"
     d="m 82.725,141.638 h 6 a 0.5,0.5 0 0 1 0.5,0.5 v 14 a 0.5,0.5 0 0 1 -0.5,0.5 h -6 a 0.5,0.5 0 0 1 -0.5,-0.5 v -14 a 0.5,0.5 0 0 1 0.5,-0.5 z"
     id="path126" />
  <path
     style="font-size:12px;fill:none;fill-rule:evenodd;stroke:#000000;stroke-width:0.1;stroke-linecap:round;stroke-dasharray:none"
     d="m 197.025,122.588 h 6 a 0.5,0.5 0 0 1 0.5,0.5 v 14 a 0.5,0.5 0 0 1 -0.5,0.5 h -6 a 0.5,0.5 0 0 1 -0.5,-0.5 v -14 a 0.5,0.5 0 0 1 0.5,-0.5 z"
     id="path125" />
  <path
     style="font-size:12px;fill:none;fill-rule:evenodd;stroke:#000000;stroke-width:0.1;stroke-linecap:round;stroke-dasharray:none"
     d="m 82.725,122.588 h 6 a 0.5,0.5 0 0 1 0.5,0.5 v 14 a 0.5,0.5 0 0 1 -0.5,0.5 h -6 a 0.5,0.5 0 0 1 -0.5,-0.5 v -14 a 0.5,0.5 0 0 1 0.5,-0.5 z"
     id="path124" />
  <path
     style="font-size:12px;fill:none;fill-rule:evenodd;stroke:#000000;stroke-width:0.1;stroke-linecap:round;stroke-dasharray:none"
     d="m 177.969,103.538 h 6 a 0.5,0.5 0 0 1 0.5,0.5 v 14 a 0.5,0.5 0 0 1 -0.5,0.5 h -6 a 0.5,0.5 0 0 1 -0.5,-0.5 v -14 a 0.5,0.5 0 0 1 0.5,-0.5 z"
     id="path123" />
  <path
     style="font-size:12px;fill:none;fill-rule:evenodd;stroke:#000000;stroke-width:0.1;stroke-linecap:round;stroke-dasharray:none"
     d="m 77.969,103.538 h 6 a 0.5,0.5 0 0 1 0.5,0.5 v 14 a 0.5,0.5 0 0 1 -0.5,0.5 h -6 a 0.5,0.5 0 0 1 -0.5,-0.5 v -14 a 0.5,0.5 0 0 1 0.5,-0.5 z"
     id="path122" />
  <path
     style="font-size:12px;fill:none;fill-rule:evenodd;stroke:#000000;stroke-width:0.1;stroke-linecap:round;stroke-dasharray:none"
     d="m 268.494,84.488 h 6 a 0.5,0.5 0 0 1 0.5,0.5 v 14 a 0.5,0.5 0 0 1 -0.5,0.5 h -6 a 0.5,0.5 0 0 1 -0.5,-0.5 v -14 a 0.5,0.5 0 0 1 0.5,-0.5 z"
     id="path121" />
  <path
     style="font-size:12px;fill:none;fill-rule:evenodd;stroke:#000000;stroke-width:0.1;stroke-linecap:round;stroke-dasharray:none"
     d="m 244.618,84.488 h 6 a 0.5,0.5 0 0 1 0.5,0.5 v 14 a 0.5,0.5 0 0 1 -0.5,0.5 h -6 a 0.5,0.5 0 0 1 -0.5,-0.5 v -14 a 0.5,0.5 0 0 1 0.5,-0.5 z"
     id="path120" />
  <path
     style="font-size:12px;fill:none;fill-rule:evenodd;stroke:#000000;stroke-width:0.1;stroke-linecap:round;stroke-dasharray:none"
     d="m 30.369,84.488 h 6 a 0.5,0.5 0 0 1 0.5,0.5 v 14 a 0.5,0.5 0 0 1 -0.5,0.5 h -6 a 0.5,0.5 0 0 1 -0.5,-0.5 v -14 a 0.5,0.5 0 0 1 0.5,-0.5 z"
     id="path119" />
  <path
     style="font-size:12px;fill:none;fill-rule:evenodd;stroke:#000000;stroke-width:0.1;stroke-linecap:round;stroke-dasharray:none"
     d="m 6.493,84.488 h 6 a 0.5,0.5 0 0 1 0.5,0.5 v 14 a 0.5,0.5 0 0 1 -0.5,0.5 h -6 a 0.5,0.5 0 0 1 -0.5,-0.5 v -14 a 0.5,0.5 0 0 1 0.5,-0.5 z"
     id="path118" />
  <path
     style="font-size:12px;fill:none;fill-rule:evenodd;stroke:#000000;stroke-width:0.1;stroke-linecap:round;stroke-dasharray:none"
     d="m 273.257,65.438 h 6 a 0.5,0.5 0 0 1 0.5,0.5 v 14 a 0.5,0.5 0 0 1 -0.5,0.5 h -6 a 0.5,0.5 0 0 1 -0.5,-0.5 v -14 a 0.5,0.5 0 0 1 0.5,-0.5 z"
     id="path117" />
  <path
     style="font-size:12px;fill:none;fill-rule:evenodd;stroke:#000000;stroke-width:0.1;stroke-linecap:round;stroke-dasharray:none"
     d="m 249.381,65.438 h 6 a 0.5,0.5 0 0 1 0.5,0.5 v 14 a 0.5,0.5 0 0 1 -0.5,0.5 h -6 a 0.5,0.5 0 0 1 -0.5,-0.5 v -14 a 0.5,0.5 0 0 1 0.5,-0.5 z"
     id="path116" />
  <path
     style="font-size:12px;fill:none;fill-rule:evenodd;stroke:#000000;stroke-width:0.1;stroke-linecap:round;stroke-dasharray:none"
     d="m 275.638,27.338 h 6 a 0.5,0.5 0 0 1 0.5,0.5 v 14 a 0.5,0.5 0 0 1 -0.5,0.5 h -6 a 0.5,0.5 0 0 1 -0.5,-0.5 v -14 a 0.5,0.5 0 0 1 0.5,-0.5 z"
     id="path115" />
  <path
     style="font-size:12px;fill:none;fill-rule:evenodd;stroke:#000000;stroke-width:0.1;stroke-linecap:round;stroke-dasharray:none"
     d="m 251.762,27.338 h 6 a 0.5,0.5 0 0 1 0.5,0.5 v 14 a 0.5,0.5 0 0 1 -0.5,0.5 h -6 a 0.5,0.5 0 0 1 -0.5,-0.5 v -14 a 0.5,0.5 0 0 1 0.5,-0.5 z"
     id="path114" />
  <path
     style="font-size:12px;fill:none;fill-rule:evenodd;stroke:#000000;stroke-width:0.1;stroke-linecap:round;stroke-dasharray:none"
     d="m 117.325,26.338 h 13 a 0.5,0.5 0 0 1 0.5,0.5 v 13 a 0.5,0.5 0 0 1 -0.5,0.5 h -13 a 0.5,0.5 0 0 1 -0.5,-0.5 v -13 a 0.5,0.5 0 0 1 0.5,-0.5 z"
     id="path113" />
  <path
     style="font-size:12px;fill:none;fill-rule:evenodd;stroke:#000000;stroke-width:0.1;stroke-linecap:round;stroke-dasharray:none"
     d="m 55.413,140.638 h 13 a 0.5,0.5 0 0 1 0.5,0.5 v 13 a 0.5,0.5 0 0 1 -0.5,0.5 h -13 a 0.5,0.5 0 0 1 -0.5,-0.5 v -13 a 0.5,0.5 0 0 1 0.5,-0.5 z"
     id="path112" />
  <path
     style="font-size:12px;fill:none;fill-rule:evenodd;stroke:#000000;stroke-width:0.1;stroke-linecap:round;stroke-dasharray:none"
     d="m 55.413,121.588 h 13 a 0.5,0.5 0 0 1 0.5,0.5 v 13 a 0.5,0.5 0 0 1 -0.5,0.5 h -13 a 0.5,0.5 0 0 1 -0.5,-0.5 v -13 a 0.5,0.5 0 0 1 0.5,-0.5 z"
     id="path111" />
  <path
     style="font-size:12px;fill:none;fill-rule:evenodd;stroke:#000000;stroke-width:0.1;stroke-linecap:round;stroke-dasharray:none"
     d="m 55.413,64.438 h 13 a 0.5,0.5 0 0 1 0.5,0.5 v 13 a 0.5,0.5 0 0 1 -0.5,0.5 h -13 a 0.5,0.5 0 0 1 -0.5,-0.5 v -13 a 0.5,0.5 0 0 1 0.5,-0.5 z"
     id="path110" />
  <path
     style="font-size:12px;fill:none;fill-rule:evenodd;stroke:#000000;stroke-width:0.1;stroke-linecap:round;stroke-dasharray:none"
     d="m 3.025,26.338 h 13 a 0.5,0.5 0 0 1 0.5,0.5 v 13 a 0.5,0.5 0 0 1 -0.5,0.5 h -13 a 0.5,0.5 0 0 1 -0.5,-0.5 v -13 a 0.5,0.5 0 0 1 0.5,-0.5 z"
     id="path109" />
  <path
     style="font-size:12px;fill:none;fill-rule:evenodd;stroke:#000000;stroke-width:0.1;stroke-linecap:round;stroke-dasharray:none"
     d="m 331.638,2.525 h 13 a 0.5,0.5 0 0 1 0.5,0.5 v 13 a 0.5,0.5 0 0 1 -0.5,0.5 h -13 a 0.5,0.5 0 0 1 -0.5,-0.5 v -13 a 0.5,0.5 0 0 1 0.5,-0.5 z"
     id="path108" />
  <path
     style="font-size:12px;fill:none;fill-rule:evenodd;stroke:#000000;stroke-width:0.1;stroke-linecap:round;stroke-dasharray:none"
     d="m 312.588,2.525 h 13 a 0.5,0.5 0 0 1 0.5,0.5 v 13 a 0.5,0.5 0 0 1 -0.5,0.5 h -13 a 0.5,0.5 0 0 1 -0.5,-0.5 v -13 a 0.5,0.5 0 0 1 0.5,-0.5 z"
     id="path107" />
  <path
     style="font-size:12px;fill:none;fill-rule:evenodd;stroke:#000000;stroke-width:0.1;stroke-linecap:round;stroke-dasharray:none"
     d="m 293.538,2.525 h 13 a 0.5,0.5 0 0 1 0.5,0.5 v 13 a 0.5,0.5 0 0 1 -0.5,0.5 h -13 a 0.5,0.5 0 0 1 -0.5,-0.5 v -13 a 0.5,0.5 0 0 1 0.5,-0.5 z"
     id="path106" />
  <path
     style="font-size:12px;fill:none;fill-rule:evenodd;stroke:#000000;stroke-width:0.1;stroke-linecap:round;stroke-dasharray:none"
     d="m 269.725,2.525 h 13 a 0.5,0.5 0 0 1 0.5,0.5 v 13 a 0.5,0.5 0 0 1 -0.5,0.5 h -13 a 0.5,0.5 0 0 1 -0.5,-0.5 v -13 a 0.5,0.5 0 0 1 0.5,-0.5 z"
     id="path105" />
  <path
     style="font-size:12px;fill:none;fill-rule:evenodd;stroke:#000000;stroke-width:0.1;stroke-linecap:round;stroke-dasharray:none"
     d="m 250.675,2.525 h 13 a 0.5,0.5 0 0 1 0.5,0.5 v 13 a 0.5,0.5 0 0 1 -0.5,0.5 h -13 a 0.5,0.5 0 0 1 -0.5,-0.5 v -13 a 0.5,0.5 0 0 1 0.5,-0.5 z"
     id="path104" />
  <path
     style="font-size:12px;fill:none;fill-rule:evenodd;stroke:#000000;stroke-width:0.1;stroke-linecap:round;stroke-dasharray:none"
     d="m 231.625,2.525 h 13 a 0.5,0.5 0 0 1 0.5,0.5 v 13 a 0.5,0.5 0 0 1 -0.5,0.5 h -13 a 0.5,0.5 0 0 1 -0.5,-0.5 v -13 a 0.5,0.5 0 0 1 0.5,-0.5 z"
     id="path103" />
  <path
     style="font-size:12px;fill:none;fill-rule:evenodd;stroke:#000000;stroke-width:0.1;stroke-linecap:round;stroke-dasharray:none"
     d="m 212.575,2.525 h 13 a 0.5,0.5 0 0 1 0.5,0.5 v 13 a 0.5,0.5 0 0 1 -0.5,0.5 h -13 a 0.5,0.5 0 0 1 -0.5,-0.5 v -13 a 0.5,0.5 0 0 1 0.5,-0.5 z"
     id="path102" />
  <path
     style="font-size:12px;fill:none;fill-rule:evenodd;stroke:#000000;stroke-width:0.1;stroke-linecap:round;stroke-dasharray:none"
     d="m 184,2.525 h 13 a 0.5,0.5 0 0 1 0.5,0.5 v 13 a 0.5,0.5 0 0 1 -0.5,0.5 h -13 a 0.5,0.5 0 0 1 -0.5,-0.5 v -13 a 0.5,0.5 0 0 1 0.5,-0.5 z"
     id="path101" />
  <path
     style="font-size:12px;fill:none;fill-rule:evenodd;stroke:#000000;stroke-width:0.1;stroke-linecap:round;stroke-dasharray:none"
     d="m 164.95,2.525 h 13 a 0.5,0.5 0 0 1 0.5,0.5 v 13 a 0.5,0.5 0 0 1 -0.5,0.5 h -13 a 0.5,0.5 0 0 1 -0.5,-0.5 v -13 a 0.5,0.5 0 0 1 0.5,-0.5 z"
     id="path100" />
  <path
     style="font-size:12px;fill:none;fill-rule:evenodd;stroke:#000000;stroke-width:0.1;stroke-linecap:round;stroke-dasharray:none"
     d="m 145.9,2.525 h 13 a 0.5,0.5 0 0 1 0.5,0.5 v 13 a 0.5,0.5 0 0 1 -0.5,0.5 h -13 a 0.5,0.5 0 0 1 -0.5,-0.5 v -13 a 0.5,0.5 0 0 1 0.5,-0.5 z"
     id="path99" />
  <path
     style="font-size:12px;fill:none;fill-rule:evenodd;stroke:#000000;stroke-width:0.1;stroke-linecap:round;stroke-dasharray:none"
     d="m 126.85,2.525 h 13 a 0.5,0.5 0 0 1 0.5,0.5 v 13 a 0.5,0.5 0 0 1 -0.5,0.5 h -13 a 0.5,0.5 0 0 1 -0.5,-0.5 v -13 a 0.5,0.5 0 0 1 0.5,-0.5 z"
     id="path98" />
  <path
     style="font-size:12px;fill:none;fill-rule:evenodd;stroke:#000000;stroke-width:0.1;stroke-linecap:round;stroke-dasharray:none"
     d="m 98.275,2.525 h 13 a 0.5,0.5 0 0 1 0.5,0.5 v 13 a 0.5,0.5 0 0 1 -0.5,0.5 h -13 a 0.5,0.5 0 0 1 -0.5,-0.5 v -13 a 0.5,0.5 0 0 1 0.5,-0.5 z"
     id="path97" />
  <path
     style="font-size:12px;fill:none;fill-rule:evenodd;stroke:#000000;stroke-width:0.1;stroke-linecap:round;stroke-dasharray:none"
     d="m 79.225,2.525 h 13 a 0.5,0.5 0 0 1 0.5,0.5 v 13 a 0.5,0.5 0 0 1 -0.5,0.5 h -13 a 0.5,0.5 0 0 1 -0.5,-0.5 v -13 a 0.5,0.5 0 0 1 0.5,-0.5 z"
     id="path96" />
  <path
     style="font-size:12px;fill:none;fill-rule:evenodd;stroke:#000000;stroke-width:0.1;stroke-linecap:round;stroke-dasharray:none"
     d="m 60.175,2.525 h 13 a 0.5,0.5 0 0 1 0.5,0.5 v 13 a 0.5,0.5 0 0 1 -0.5,0.5 h -13 a 0.5,0.5 0 0 1 -0.5,-0.5 v -13 a 0.5,0.5 0 0 1 0.5,-0.5 z"
     id="path95" />
  <path
     style="font-size:12px;fill:none;fill-rule:evenodd;stroke:#000000;stroke-width:0.1;stroke-linecap:round;stroke-dasharray:none"
     d="m 41.125,2.525 h 13 a 0.5,0.5 0 0 1 0.5,0.5 v 13 a 0.5,0.5 0 0 1 -0.5,0.5 h -13 a 0.5,0.5 0 0 1 -0.5,-0.5 v -13 a 0.5,0.5 0 0 1 0.5,-0.5 z"
     id="path94" />
  <path
     style="font-size:12px;fill:none;fill-rule:evenodd;stroke:#000000;stroke-width:0.1;stroke-linecap:round;stroke-dasharray:none"
     d="m 3.025,2.525 h 13 a 0.5,0.5 0 0 1 0.5,0.5 v 13 a 0.5,0.5 0 0 1 -0.5,0.5 h -13 a 0.5,0.5 0 0 1 -0.5,-0.5 v -13 a 0.5,0.5 0 0 1 0.5,-0.5 z"
     id="path93" />
  <path
     style="font-size:12px;fill:none;fill-rule:evenodd;stroke:#000000;stroke-width:0.1;stroke-linecap:round;stroke-dasharray:none"
     d="m 269.725,216.838 h 13 a 0.5,0.5 0 0 1 0.5,0.5 v 13 a 0.5,0.5 0 0 1 -0.5,0.5 h -13 a 0.5,0.5 0 0 1 -0.5,-0.5 v -13 a 0.5,0.5 0 0 1 0.5,-0.5 z"
     id="path92" />
  <path
     style="font-size:12px;fill:none;fill-rule:evenodd;stroke:#000000;stroke-width:0.1;stroke-linecap:round;stroke-dasharray:none"
     d="m 250.675,216.838 h 13 a 0.5,0.5 0 0 1 0.5,0.5 v 13 a 0.5,0.5 0 0 1 -0.5,0.5 h -13 a 0.5,0.5 0 0 1 -0.5,-0.5 v -13 a 0.5,0.5 0 0 1 0.5,-0.5 z"
     id="path91" />
  <path
     style="font-size:12px;fill:none;fill-rule:evenodd;stroke:#000000;stroke-width:0.1;stroke-linecap:round;stroke-dasharray:none"
     d="m 280.844,188.763 v 13 a 0.5,0.5 0 0 1 -0.5,0.5 h -13 a 0.5,0.5 0 0 1 -0.5,-0.5 v -13 a 0.5,0.5 0 0 1 0.5,-0.5 h 13 a 0.5,0.5 0 0 1 0.5,0.5 z"
     id="path90" />
  <path
     style="font-size:12px;fill:none;fill-rule:evenodd;stroke:#000000;stroke-width:0.1;stroke-linecap:round;stroke-dasharray:none"
     d="m 5.406,178.738 h 13 a 0.5,0.5 0 0 1 0.5,0.5 v 13 a 0.5,0.5 0 0 1 -0.5,0.5 h -13 a 0.5,0.5 0 0 1 -0.5,-0.5 v -13 a 0.5,0.5 0 0 1 0.5,-0.5 z"
     id="path89" />
  <path
     style="font-size:12px;fill:none;fill-rule:evenodd;stroke:#000000;stroke-width:0.1;stroke-linecap:round;stroke-dasharray:none"
     d="m 269.725,159.688 h 13 a 0.5,0.5 0 0 1 0.5,0.5 v 13 a 0.5,0.5 0 0 1 -0.5,0.5 h -13 a 0.5,0.5 0 0 1 -0.5,-0.5 v -13 a 0.5,0.5 0 0 1 0.5,-0.5 z"
     id="path88" />
  <path
     style="font-size:12px;fill:none;fill-rule:evenodd;stroke:#000000;stroke-width:0.1;stroke-linecap:round;stroke-dasharray:none"
     d="m 243.531,159.688 h 13 a 0.5,0.5 0 0 1 0.5,0.5 v 13 a 0.5,0.5 0 0 1 -0.5,0.5 h -13 a 0.5,0.5 0 0 1 -0.5,-0.5 v -13 a 0.5,0.5 0 0 1 0.5,-0.5 z"
     id="path87" />
  <path
     style="font-size:12px;fill:none;fill-rule:evenodd;stroke:#000000;stroke-width:0.1;stroke-linecap:round;stroke-dasharray:none"
     d="m 26.838,159.688 h 13 a 0.5,0.5 0 0 1 0.5,0.5 v 13 a 0.5,0.5 0 0 1 -0.5,0.5 h -13 a 0.5,0.5 0 0 1 -0.5,-0.5 v -13 a 0.5,0.5 0 0 1 0.5,-0.5 z"
     id="path86" />
  <path
     style="font-size:12px;fill:none;fill-rule:evenodd;stroke:#000000;stroke-width:0.1;stroke-linecap:round;stroke-dasharray:none"
     d="m 5.406,159.688 h 13 a 0.5,0.5 0 0 1 0.5,0.5 v 13 a 0.5,0.5 0 0 1 -0.5,0.5 h -13 a 0.5,0.5 0 0 1 -0.5,-0.5 v -13 a 0.5,0.5 0 0 1 0.5,-0.5 z"
     id="path85" />
  <path
     style="font-size:12px;fill:none;fill-rule:evenodd;stroke:#000000;stroke-width:0.1;stroke-linecap:round;stroke-dasharray:none"
     d="m 264.963,140.638 h 13 a 0.5,0.5 0 0 1 0.5,0.5 v 13 a 0.5,0.5 0 0 1 -0.5,0.5 h -13 a 0.5,0.5 0 0 1 -0.5,-0.5 v -13 a 0.5,0.5 0 0 1 0.5,-0.5 z"
     id="path84" />
  <path
     style="font-size:12px;fill:none;fill-rule:evenodd;stroke:#000000;stroke-width:0.1;stroke-linecap:round;stroke-dasharray:none"
     d="m 241.15,140.638 h 13 a 0.5,0.5 0 0 1 0.5,0.5 v 13 a 0.5,0.5 0 0 1 -0.5,0.5 h -13 a 0.5,0.5 0 0 1 -0.5,-0.5 v -13 a 0.5,0.5 0 0 1 0.5,-0.5 z"
     id="path83" />
  <path
     style="font-size:12px;fill:none;fill-rule:evenodd;stroke:#000000;stroke-width:0.1;stroke-linecap:round;stroke-dasharray:none"
     d="m 217.338,140.638 h 13 a 0.5,0.5 0 0 1 0.5,0.5 v 13 a 0.5,0.5 0 0 1 -0.5,0.5 h -13 a 0.5,0.5 0 0 1 -0.5,-0.5 v -13 a 0.5,0.5 0 0 1 0.5,-0.5 z"
     id="path82" />
  <path
     style="font-size:12px;fill:none;fill-rule:evenodd;stroke:#000000;stroke-width:0.1;stroke-linecap:round;stroke-dasharray:none"
     d="m 174.475,140.638 h 13 a 0.5,0.5 0 0 1 0.5,0.5 v 13 a 0.5,0.5 0 0 1 -0.5,0.5 h -13 a 0.5,0.5 0 0 1 -0.5,-0.5 v -13 a 0.5,0.5 0 0 1 0.5,-0.5 z"
     id="path81" />
  <path
     style="font-size:12px;fill:none;fill-rule:evenodd;stroke:#000000;stroke-width:0.1;stroke-linecap:round;stroke-dasharray:none"
     d="m 136.375,140.638 h 13 a 0.5,0.5 0 0 1 0.5,0.5 v 13 a 0.5,0.5 0 0 1 -0.5,0.5 h -13 a 0.5,0.5 0 0 1 -0.5,-0.5 v -13 a 0.5,0.5 0 0 1 0.5,-0.5 z"
     id="path80" />
  <path
     style="font-size:12px;fill:none;fill-rule:evenodd;stroke:#000000;stroke-width:0.1;stroke-linecap:round;stroke-dasharray:none"
     d="m 98.275,140.638 h 13 a 0.5,0.5 0 0 1 0.5,0.5 v 13 a 0.5,0.5 0 0 1 -0.5,0.5 h -13 a 0.5,0.5 0 0 1 -0.5,-0.5 v -13 a 0.5,0.5 0 0 1 0.5,-0.5 z"
     id="path79" />
  <path
     style="font-size:12px;fill:none;fill-rule:evenodd;stroke:#000000;stroke-width:0.1;stroke-linecap:round;stroke-dasharray:none"
     d="m 31.6,140.638 h 13 a 0.5,0.5 0 0 1 0.5,0.5 v 13 a 0.5,0.5 0 0 1 -0.5,0.5 h -13 a 0.5,0.5 0 0 1 -0.5,-0.5 v -13 a 0.5,0.5 0 0 1 0.5,-0.5 z"
     id="path78" />
  <path
     style="font-size:12px;fill:none;fill-rule:evenodd;stroke:#000000;stroke-width:0.1;stroke-linecap:round;stroke-dasharray:none"
     d="m 7.788,140.638 h 13 a 0.5,0.5 0 0 1 0.5,0.5 v 13 a 0.5,0.5 0 0 1 -0.5,0.5 h -13 a 0.5,0.5 0 0 1 -0.5,-0.5 v -13 a 0.5,0.5 0 0 1 0.5,-0.5 z"
     id="path77" />
  <path
     style="font-size:12px;fill:none;fill-rule:evenodd;stroke:#000000;stroke-width:0.1;stroke-linecap:round;stroke-dasharray:none"
     d="m 264.963,121.588 h 13 a 0.5,0.5 0 0 1 0.5,0.5 v 13 a 0.5,0.5 0 0 1 -0.5,0.5 h -13 a 0.5,0.5 0 0 1 -0.5,-0.5 v -13 a 0.5,0.5 0 0 1 0.5,-0.5 z"
     id="path76" />
  <path
     style="font-size:12px;fill:none;fill-rule:evenodd;stroke:#000000;stroke-width:0.1;stroke-linecap:round;stroke-dasharray:none"
     d="m 241.15,121.588 h 13 a 0.5,0.5 0 0 1 0.5,0.5 v 13 a 0.5,0.5 0 0 1 -0.5,0.5 h -13 a 0.5,0.5 0 0 1 -0.5,-0.5 v -13 a 0.5,0.5 0 0 1 0.5,-0.5 z"
     id="path75" />
  <path
     style="font-size:12px;fill:none;fill-rule:evenodd;stroke:#000000;stroke-width:0.1;stroke-linecap:round;stroke-dasharray:none"
     d="m 217.338,121.588 h 13 a 0.5,0.5 0 0 1 0.5,0.5 v 13 a 0.5,0.5 0 0 1 -0.5,0.5 h -13 a 0.5,0.5 0 0 1 -0.5,-0.5 v -13 a 0.5,0.5 0 0 1 0.5,-0.5 z"
     id="path74" />
  <path
     style="font-size:12px;fill:none;fill-rule:evenodd;stroke:#000000;stroke-width:0.1;stroke-linecap:round;stroke-dasharray:none"
     d="m 136.375,121.588 h 13 a 0.5,0.5 0 0 1 0.5,0.5 v 13 a 0.5,0.5 0 0 1 -0.5,0.5 h -13 a 0.5,0.5 0 0 1 -0.5,-0.5 v -13 a 0.5,0.5 0 0 1 0.5,-0.5 z"
     id="path73" />
  <path
     style="font-size:12px;fill:none;fill-rule:evenodd;stroke:#000000;stroke-width:0.1;stroke-linecap:round;stroke-dasharray:none"
     d="m 31.6,121.588 h 13 a 0.5,0.5 0 0 1 0.5,0.5 v 13 a 0.5,0.5 0 0 1 -0.5,0.5 h -13 a 0.5,0.5 0 0 1 -0.5,-0.5 v -13 a 0.5,0.5 0 0 1 0.5,-0.5 z"
     id="path72" />
  <path
     style="font-size:12px;fill:none;fill-rule:evenodd;stroke:#000000;stroke-width:0.1;stroke-linecap:round;stroke-dasharray:none"
     d="m 7.788,121.588 h 13 a 0.5,0.5 0 0 1 0.5,0.5 v 13 a 0.5,0.5 0 0 1 -0.5,0.5 h -13 a 0.5,0.5 0 0 1 -0.5,-0.5 v -13 a 0.5,0.5 0 0 1 0.5,-0.5 z"
     id="path71" />
  <path
     style="font-size:12px;fill:none;fill-rule:evenodd;stroke:#000000;stroke-width:0.1;stroke-linecap:round;stroke-dasharray:none"
     d="m 331.638,102.538 h 13 a 0.5,0.5 0 0 1 0.5,0.5 v 13 a 0.5,0.5 0 0 1 -0.5,0.5 h -13 a 0.5,0.5 0 0 1 -0.5,-0.5 v -13 a 0.5,0.5 0 0 1 0.5,-0.5 z"
     id="path70" />
  <path
     style="font-size:12px;fill:none;fill-rule:evenodd;stroke:#000000;stroke-width:0.1;stroke-linecap:round;stroke-dasharray:none"
     d="m 312.588,102.538 h 13 a 0.5,0.5 0 0 1 0.5,0.5 v 13 a 0.5,0.5 0 0 1 -0.5,0.5 h -13 a 0.5,0.5 0 0 1 -0.5,-0.5 v -13 a 0.5,0.5 0 0 1 0.5,-0.5 z"
     id="path69" />
  <path
     style="font-size:12px;fill:none;fill-rule:evenodd;stroke:#000000;stroke-width:0.1;stroke-linecap:round;stroke-dasharray:none"
     d="m 293.538,102.538 h 13 a 0.5,0.5 0 0 1 0.5,0.5 v 13 a 0.5,0.5 0 0 1 -0.5,0.5 h -13 a 0.5,0.5 0 0 1 -0.5,-0.5 v -13 a 0.5,0.5 0 0 1 0.5,-0.5 z"
     id="path68" />
  <path
     style="font-size:12px;fill:none;fill-rule:evenodd;stroke:#000000;stroke-width:0.1;stroke-linecap:round;stroke-dasharray:none"
     d="m 267.344,102.538 h 13 a 0.5,0.5 0 0 1 0.5,0.5 v 13 a 0.5,0.5 0 0 1 -0.5,0.5 h -13 a 0.5,0.5 0 0 1 -0.5,-0.5 v -13 a 0.5,0.5 0 0 1 0.5,-0.5 z"
     id="path67" />
  <path
     style="font-size:12px;fill:none;fill-rule:evenodd;stroke:#000000;stroke-width:0.1;stroke-linecap:round;stroke-dasharray:none"
     d="m 243.531,102.538 h 13 a 0.5,0.5 0 0 1 0.5,0.5 v 13 a 0.5,0.5 0 0 1 -0.5,0.5 h -13 a 0.5,0.5 0 0 1 -0.5,-0.5 v -13 a 0.5,0.5 0 0 1 0.5,-0.5 z"
     id="path66" />
  <path
     style="font-size:12px;fill:none;fill-rule:evenodd;stroke:#000000;stroke-width:0.1;stroke-linecap:round;stroke-dasharray:none"
     d="m 219.719,102.538 h 13 a 0.5,0.5 0 0 1 0.5,0.5 v 13 a 0.5,0.5 0 0 1 -0.5,0.5 h -13 a 0.5,0.5 0 0 1 -0.5,-0.5 v -13 a 0.5,0.5 0 0 1 0.5,-0.5 z"
     id="path65" />
  <path
     style="font-size:12px;fill:none;fill-rule:evenodd;stroke:#000000;stroke-width:0.1;stroke-linecap:round;stroke-dasharray:none"
     d="m 195.906,102.538 h 13 a 0.5,0.5 0 0 1 0.5,0.5 v 13 a 0.5,0.5 0 0 1 -0.5,0.5 h -13 a 0.5,0.5 0 0 1 -0.5,-0.5 v -13 a 0.5,0.5 0 0 1 0.5,-0.5 z"
     id="path64" />
  <path
     style="font-size:12px;fill:none;fill-rule:evenodd;stroke:#000000;stroke-width:0.1;stroke-linecap:round;stroke-dasharray:none"
     d="m 124.469,102.538 h 13 a 0.5,0.5 0 0 1 0.5,0.5 v 13 a 0.5,0.5 0 0 1 -0.5,0.5 h -13 a 0.5,0.5 0 0 1 -0.5,-0.5 v -13 a 0.5,0.5 0 0 1 0.5,-0.5 z"
     id="path63" />
  <path
     style="font-size:12px;fill:none;fill-rule:evenodd;stroke:#000000;stroke-width:0.1;stroke-linecap:round;stroke-dasharray:none"
     d="m 53.031,102.538 h 13 a 0.5,0.5 0 0 1 0.5,0.5 v 13 a 0.5,0.5 0 0 1 -0.5,0.5 h -13 a 0.5,0.5 0 0 1 -0.5,-0.5 v -13 a 0.5,0.5 0 0 1 0.5,-0.5 z"
     id="path62" />
  <path
     style="font-size:12px;fill:none;fill-rule:evenodd;stroke:#000000;stroke-width:0.1;stroke-linecap:round;stroke-dasharray:none"
     d="m 29.219,102.538 h 13 a 0.5,0.5 0 0 1 0.5,0.5 v 13 a 0.5,0.5 0 0 1 -0.5,0.5 h -13 a 0.5,0.5 0 0 1 -0.5,-0.5 v -13 a 0.5,0.5 0 0 1 0.5,-0.5 z"
     id="path61" />
  <path
     style="font-size:12px;fill:none;fill-rule:evenodd;stroke:#000000;stroke-width:0.1;stroke-linecap:round;stroke-dasharray:none"
     d="m 5.406,102.538 h 13 a 0.5,0.5 0 0 1 0.5,0.5 v 13 a 0.5,0.5 0 0 1 -0.5,0.5 h -13 a 0.5,0.5 0 0 1 -0.5,-0.5 v -13 a 0.5,0.5 0 0 1 0.5,-0.5 z"
     id="path60" />
  <path
     style="font-size:12px;fill:none;fill-rule:evenodd;stroke:#000000;stroke-width:0.1;stroke-linecap:round;stroke-dasharray:none"
     d="m 312.588,83.488 h 13 a 0.5,0.5 0 0 1 0.5,0.5 v 13 a 0.5,0.5 0 0 1 -0.5,0.5 h -13 a 0.5,0.5 0 0 1 -0.5,-0.5 v -13 a 0.5,0.5 0 0 1 0.5,-0.5 z"
     id="path59" />
  <path
     style="font-size:12px;fill:none;fill-rule:evenodd;stroke:#000000;stroke-width:0.1;stroke-linecap:round;stroke-dasharray:none"
     d="m 253.056,83.488 h 13 a 0.5,0.5 0 0 1 0.5,0.5 v 13 a 0.5,0.5 0 0 1 -0.5,0.5 h -13 a 0.5,0.5 0 0 1 -0.5,-0.5 v -13 a 0.5,0.5 0 0 1 0.5,-0.5 z"
     id="path58" />
  <path
     style="font-size:12px;fill:none;fill-rule:evenodd;stroke:#000000;stroke-width:0.1;stroke-linecap:round;stroke-dasharray:none"
     d="m 217.338,83.488 h 13 a 0.5,0.5 0 0 1 0.5,0.5 v 13 a 0.5,0.5 0 0 1 -0.5,0.5 h -13 a 0.5,0.5 0 0 1 -0.5,-0.5 v -13 a 0.5,0.5 0 0 1 0.5,-0.5 z"
     id="path57" />
  <path
     style="font-size:12px;fill:none;fill-rule:evenodd;stroke:#000000;stroke-width:0.1;stroke-linecap:round;stroke-dasharray:none"
     d="m 198.288,83.488 h 13 a 0.5,0.5 0 0 1 0.5,0.5 v 13 a 0.5,0.5 0 0 1 -0.5,0.5 h -13 a 0.5,0.5 0 0 1 -0.5,-0.5 v -13 a 0.5,0.5 0 0 1 0.5,-0.5 z"
     id="path56" />
  <path
     style="font-size:12px;fill:none;fill-rule:evenodd;stroke:#000000;stroke-width:0.1;stroke-linecap:round;stroke-dasharray:none"
     d="m 179.238,83.488 h 13 a 0.5,0.5 0 0 1 0.5,0.5 v 13 a 0.5,0.5 0 0 1 -0.5,0.5 h -13 a 0.5,0.5 0 0 1 -0.5,-0.5 v -13 a 0.5,0.5 0 0 1 0.5,-0.5 z"
     id="path55" />
  <path
     style="font-size:12px;fill:none;fill-rule:evenodd;stroke:#000000;stroke-width:0.1;stroke-linecap:round;stroke-dasharray:none"
     d="m 160.188,83.488 h 13 a 0.5,0.5 0 0 1 0.5,0.5 v 13 a 0.5,0.5 0 0 1 -0.5,0.5 h -13 a 0.5,0.5 0 0 1 -0.5,-0.5 v -13 a 0.5,0.5 0 0 1 0.5,-0.5 z"
     id="path54" />
  <path
     style="font-size:12px;fill:none;fill-rule:evenodd;stroke:#000000;stroke-width:0.1;stroke-linecap:round;stroke-dasharray:none"
     d="m 141.138,83.488 h 13 a 0.5,0.5 0 0 1 0.5,0.5 v 13 a 0.5,0.5 0 0 1 -0.5,0.5 h -13 a 0.5,0.5 0 0 1 -0.5,-0.5 v -13 a 0.5,0.5 0 0 1 0.5,-0.5 z"
     id="path53" />
  <path
     style="font-size:12px;fill:none;fill-rule:evenodd;stroke:#000000;stroke-width:0.1;stroke-linecap:round;stroke-dasharray:none"
     d="m 122.088,83.488 h 13 a 0.5,0.5 0 0 1 0.5,0.5 v 13 a 0.5,0.5 0 0 1 -0.5,0.5 h -13 a 0.5,0.5 0 0 1 -0.5,-0.5 v -13 a 0.5,0.5 0 0 1 0.5,-0.5 z"
     id="path52" />
  <path
     style="font-size:12px;fill:none;fill-rule:evenodd;stroke:#000000;stroke-width:0.1;stroke-linecap:round;stroke-dasharray:none"
     d="m 103.038,83.488 h 13 a 0.5,0.5 0 0 1 0.5,0.5 v 13 a 0.5,0.5 0 0 1 -0.5,0.5 h -13 a 0.5,0.5 0 0 1 -0.5,-0.5 v -13 a 0.5,0.5 0 0 1 0.5,-0.5 z"
     id="path51" />
  <path
     style="font-size:12px;fill:none;fill-rule:evenodd;stroke:#000000;stroke-width:0.1;stroke-linecap:round;stroke-dasharray:none"
     d="m 83.988,83.488 h 13 a 0.5,0.5 0 0 1 0.5,0.5 v 13 a 0.5,0.5 0 0 1 -0.5,0.5 h -13 a 0.5,0.5 0 0 1 -0.5,-0.5 v -13 a 0.5,0.5 0 0 1 0.5,-0.5 z"
     id="path50" />
  <path
     style="font-size:12px;fill:none;fill-rule:evenodd;stroke:#000000;stroke-width:0.1;stroke-linecap:round;stroke-dasharray:none"
     d="m 64.938,83.488 h 13 a 0.5,0.5 0 0 1 0.5,0.5 v 13 a 0.5,0.5 0 0 1 -0.5,0.5 h -13 a 0.5,0.5 0 0 1 -0.5,-0.5 v -13 a 0.5,0.5 0 0 1 0.5,-0.5 z"
     id="path49" />
  <path
     style="font-size:12px;fill:none;fill-rule:evenodd;stroke:#000000;stroke-width:0.1;stroke-linecap:round;stroke-dasharray:none"
     d="m 45.888,83.488 h 13 a 0.5,0.5 0 0 1 0.5,0.5 v 13 a 0.5,0.5 0 0 1 -0.5,0.5 h -13 a 0.5,0.5 0 0 1 -0.5,-0.5 v -13 a 0.5,0.5 0 0 1 0.5,-0.5 z"
     id="path48" />
  <path
     style="font-size:12px;fill:none;fill-rule:evenodd;stroke:#000000;stroke-width:0.1;stroke-linecap:round;stroke-dasharray:none"
     d="m 14.931,83.488 h 13 a 0.5,0.5 0 0 1 0.5,0.5 v 13 a 0.5,0.5 0 0 1 -0.5,0.5 h -13 a 0.5,0.5 0 0 1 -0.5,-0.5 v -13 a 0.5,0.5 0 0 1 0.5,-0.5 z"
     id="path47" />
  <path
     style="font-size:12px;fill:none;fill-rule:evenodd;stroke:#000000;stroke-width:0.1;stroke-linecap:round;stroke-dasharray:none"
     d="m 257.819,64.438 h 13 a 0.5,0.5 0 0 1 0.5,0.5 v 13 a 0.5,0.5 0 0 1 -0.5,0.5 h -13 a 0.5,0.5 0 0 1 -0.5,-0.5 v -13 a 0.5,0.5 0 0 1 0.5,-0.5 z"
     id="path46" />
  <path
     style="font-size:12px;fill:none;fill-rule:evenodd;stroke:#000000;stroke-width:0.1;stroke-linecap:round;stroke-dasharray:none"
     d="m 226.863,64.438 h 13 a 0.5,0.5 0 0 1 0.5,0.5 v 13 a 0.5,0.5 0 0 1 -0.5,0.5 h -13 a 0.5,0.5 0 0 1 -0.5,-0.5 v -13 a 0.5,0.5 0 0 1 0.5,-0.5 z"
     id="path45" />
  <path
     style="font-size:12px;fill:none;fill-rule:evenodd;stroke:#000000;stroke-width:0.1;stroke-linecap:round;stroke-dasharray:none"
     d="m 207.813,64.438 h 13 a 0.5,0.5 0 0 1 0.5,0.5 v 13 a 0.5,0.5 0 0 1 -0.5,0.5 h -13 a 0.5,0.5 0 0 1 -0.5,-0.5 v -13 a 0.5,0.5 0 0 1 0.5,-0.5 z"
     id="path44" />
  <path
     style="font-size:12px;fill:none;fill-rule:evenodd;stroke:#000000;stroke-width:0.1;stroke-linecap:round;stroke-dasharray:none"
     d="m 188.763,64.438 h 13 a 0.5,0.5 0 0 1 0.5,0.5 v 13 a 0.5,0.5 0 0 1 -0.5,0.5 h -13 a 0.5,0.5 0 0 1 -0.5,-0.5 v -13 a 0.5,0.5 0 0 1 0.5,-0.5 z"
     id="path43" />
  <path
     style="font-size:12px;fill:none;fill-rule:evenodd;stroke:#000000;stroke-width:0.1;stroke-linecap:round;stroke-dasharray:none"
     d="m 169.713,64.438 h 13 a 0.5,0.5 0 0 1 0.5,0.5 v 13 a 0.5,0.5 0 0 1 -0.5,0.5 h -13 a 0.5,0.5 0 0 1 -0.5,-0.5 v -13 a 0.5,0.5 0 0 1 0.5,-0.5 z"
     id="path42" />
  <path
     style="font-size:12px;fill:none;fill-rule:evenodd;stroke:#000000;stroke-width:0.1;stroke-linecap:round;stroke-dasharray:none"
     d="m 150.663,64.438 h 13 a 0.5,0.5 0 0 1 0.5,0.5 v 13 a 0.5,0.5 0 0 1 -0.5,0.5 h -13 a 0.5,0.5 0 0 1 -0.5,-0.5 v -13 a 0.5,0.5 0 0 1 0.5,-0.5 z"
     id="path41" />
  <path
     style="font-size:12px;fill:none;fill-rule:evenodd;stroke:#000000;stroke-width:0.1;stroke-linecap:round;stroke-dasharray:none"
     d="m 131.613,64.438 h 13 a 0.5,0.5 0 0 1 0.5,0.5 v 13 a 0.5,0.5 0 0 1 -0.5,0.5 h -13 a 0.5,0.5 0 0 1 -0.5,-0.5 v -13 a 0.5,0.5 0 0 1 0.5,-0.5 z"
     id="path40" />
  <path
     style="font-size:12px;fill:none;fill-rule:evenodd;stroke:#000000;stroke-width:0.1;stroke-linecap:round;stroke-dasharray:none"
     d="m 112.563,64.438 h 13 a 0.5,0.5 0 0 1 0.5,0.5 v 13 a 0.5,0.5 0 0 1 -0.5,0.5 h -13 a 0.5,0.5 0 0 1 -0.5,-0.5 v -13 a 0.5,0.5 0 0 1 0.5,-0.5 z"
     id="path39" />
  <path
     style="font-size:12px;fill:none;fill-rule:evenodd;stroke:#000000;stroke-width:0.1;stroke-linecap:round;stroke-dasharray:none"
     d="m 93.513,64.438 h 13 a 0.5,0.5 0 0 1 0.5,0.5 v 13 a 0.5,0.5 0 0 1 -0.5,0.5 h -13 a 0.5,0.5 0 0 1 -0.5,-0.5 v -13 a 0.5,0.5 0 0 1 0.5,-0.5 z"
     id="path38" />
  <path
     style="font-size:12px;fill:none;fill-rule:evenodd;stroke:#000000;stroke-width:0.1;stroke-linecap:round;stroke-dasharray:none"
     d="m 74.463,64.438 h 13 a 0.5,0.5 0 0 1 0.5,0.5 v 13 a 0.5,0.5 0 0 1 -0.5,0.5 h -13 a 0.5,0.5 0 0 1 -0.5,-0.5 v -13 a 0.5,0.5 0 0 1 0.5,-0.5 z"
     id="path37" />
  <path
     style="font-size:12px;fill:none;fill-rule:evenodd;stroke:#000000;stroke-width:0.1;stroke-linecap:round;stroke-dasharray:none"
     d="m 36.363,64.438 h 13 a 0.5,0.5 0 0 1 0.5,0.5 v 13 a 0.5,0.5 0 0 1 -0.5,0.5 h -13 a 0.5,0.5 0 0 1 -0.5,-0.5 v -13 a 0.5,0.5 0 0 1 0.5,-0.5 z"
     id="path36" />
  <path
     style="font-size:12px;fill:none;fill-rule:evenodd;stroke:#000000;stroke-width:0.1;stroke-linecap:round;stroke-dasharray:none"
     d="m 10.169,64.438 h 13 a 0.5,0.5 0 0 1 0.5,0.5 v 13 a 0.5,0.5 0 0 1 -0.5,0.5 h -13 a 0.5,0.5 0 0 1 -0.5,-0.5 v -13 a 0.5,0.5 0 0 1 0.5,-0.5 z"
     id="path35" />
  <path
     style="font-size:12px;fill:none;fill-rule:evenodd;stroke:#000000;stroke-width:0.1;stroke-linecap:round;stroke-dasharray:none"
     d="m 331.638,45.388 h 13 a 0.5,0.5 0 0 1 0.5,0.5 v 13 a 0.5,0.5 0 0 1 -0.5,0.5 h -13 a 0.5,0.5 0 0 1 -0.5,-0.5 v -13 a 0.5,0.5 0 0 1 0.5,-0.5 z"
     id="path34" />
  <path
     style="font-size:12px;fill:none;fill-rule:evenodd;stroke:#000000;stroke-width:0.1;stroke-linecap:round;stroke-dasharray:none"
     d="m 312.588,45.388 h 13 a 0.5,0.5 0 0 1 0.5,0.5 v 13 a 0.5,0.5 0 0 1 -0.5,0.5 h -13 a 0.5,0.5 0 0 1 -0.5,-0.5 v -13 a 0.5,0.5 0 0 1 0.5,-0.5 z"
     id="path33" />
  <path
     style="font-size:12px;fill:none;fill-rule:evenodd;stroke:#000000;stroke-width:0.1;stroke-linecap:round;stroke-dasharray:none"
     d="m 293.538,45.388 h 13 a 0.5,0.5 0 0 1 0.5,0.5 v 13 a 0.5,0.5 0 0 1 -0.5,0.5 h -13 a 0.5,0.5 0 0 1 -0.5,-0.5 v -13 a 0.5,0.5 0 0 1 0.5,-0.5 z"
     id="path32" />
  <path
     style="font-size:12px;fill:none;fill-rule:evenodd;stroke:#000000;stroke-width:0.1;stroke-linecap:round;stroke-dasharray:none"
     d="m 264.963,45.388 h 13 a 0.5,0.5 0 0 1 0.5,0.5 v 13 a 0.5,0.5 0 0 1 -0.5,0.5 h -13 a 0.5,0.5 0 0 1 -0.5,-0.5 v -13 a 0.5,0.5 0 0 1 0.5,-0.5 z"
     id="path31" />
  <path
     style="font-size:12px;fill:none;fill-rule:evenodd;stroke:#000000;stroke-width:0.1;stroke-linecap:round;stroke-dasharray:none"
     d="m 241.15,45.388 h 13 a 0.5,0.5 0 0 1 0.5,0.5 v 13 a 0.5,0.5 0 0 1 -0.5,0.5 h -13 a 0.5,0.5 0 0 1 -0.5,-0.5 v -13 a 0.5,0.5 0 0 1 0.5,-0.5 z"
     id="path30" />
  <path
     style="font-size:12px;fill:none;fill-rule:evenodd;stroke:#000000;stroke-width:0.1;stroke-linecap:round;stroke-dasharray:none"
     d="m 222.1,45.388 h 13 a 0.5,0.5 0 0 1 0.5,0.5 v 13 a 0.5,0.5 0 0 1 -0.5,0.5 h -13 a 0.5,0.5 0 0 1 -0.5,-0.5 v -13 a 0.5,0.5 0 0 1 0.5,-0.5 z"
     id="path29" />
  <path
     style="font-size:12px;fill:none;fill-rule:evenodd;stroke:#000000;stroke-width:0.1;stroke-linecap:round;stroke-dasharray:none"
     d="m 203.05,45.388 h 13 a 0.5,0.5 0 0 1 0.5,0.5 v 13 a 0.5,0.5 0 0 1 -0.5,0.5 h -13 a 0.5,0.5 0 0 1 -0.5,-0.5 v -13 a 0.5,0.5 0 0 1 0.5,-0.5 z"
     id="path28" />
  <path
     style="font-size:12px;fill:none;fill-rule:evenodd;stroke:#000000;stroke-width:0.1;stroke-linecap:round;stroke-dasharray:none"
     d="m 184,45.388 h 13 a 0.5,0.5 0 0 1 0.5,0.5 v 13 a 0.5,0.5 0 0 1 -0.5,0.5 h -13 a 0.5,0.5 0 0 1 -0.5,-0.5 v -13 a 0.5,0.5 0 0 1 0.5,-0.5 z"
     id="path27" />
  <path
     style="font-size:12px;fill:none;fill-rule:evenodd;stroke:#000000;stroke-width:0.1;stroke-linecap:round;stroke-dasharray:none"
     d="m 164.95,45.388 h 13 a 0.5,0.5 0 0 1 0.5,0.5 v 13 a 0.5,0.5 0 0 1 -0.5,0.5 h -13 a 0.5,0.5 0 0 1 -0.5,-0.5 v -13 a 0.5,0.5 0 0 1 0.5,-0.5 z"
     id="path26" />
  <path
     style="font-size:12px;fill:none;fill-rule:evenodd;stroke:#000000;stroke-width:0.1;stroke-linecap:round;stroke-dasharray:none"
     d="m 145.9,45.388 h 13 a 0.5,0.5 0 0 1 0.5,0.5 v 13 a 0.5,0.5 0 0 1 -0.5,0.5 h -13 a 0.5,0.5 0 0 1 -0.5,-0.5 v -13 a 0.5,0.5 0 0 1 0.5,-0.5 z"
     id="path25" />
  <path
     style="font-size:12px;fill:none;fill-rule:evenodd;stroke:#000000;stroke-width:0.1;stroke-linecap:round;stroke-dasharray:none"
     d="m 126.85,45.388 h 13 a 0.5,0.5 0 0 1 0.5,0.5 v 13 a 0.5,0.5 0 0 1 -0.5,0.5 h -13 a 0.5,0.5 0 0 1 -0.5,-0.5 v -13 a 0.5,0.5 0 0 1 0.5,-0.5 z"
     id="path24" />
  <path
     style="font-size:12px;fill:none;fill-rule:evenodd;stroke:#000000;stroke-width:0.1;stroke-linecap:round;stroke-dasharray:none"
     d="m 107.8,45.388 h 13 a 0.5,0.5 0 0 1 0.5,0.5 v 13 a 0.5,0.5 0 0 1 -0.5,0.5 h -13 a 0.5,0.5 0 0 1 -0.5,-0.5 v -13 a 0.5,0.5 0 0 1 0.5,-0.5 z"
     id="path23" />
  <path
     style="font-size:12px;fill:none;fill-rule:evenodd;stroke:#000000;stroke-width:0.1;stroke-linecap:round;stroke-dasharray:none"
     d="m 88.75,45.388 h 13 a 0.5,0.5 0 0 1 0.5,0.5 v 13 a 0.5,0.5 0 0 1 -0.5,0.5 h -13 a 0.5,0.5 0 0 1 -0.5,-0.5 v -13 a 0.5,0.5 0 0 1 0.5,-0.5 z"
     id="path22" />
  <path
     style="font-size:12px;fill:none;fill-rule:evenodd;stroke:#000000;stroke-width:0.1;stroke-linecap:round;stroke-dasharray:none"
     d="m 69.7,45.388 h 13 a 0.5,0.5 0 0 1 0.5,0.5 v 13 a 0.5,0.5 0 0 1 -0.5,0.5 h -13 a 0.5,0.5 0 0 1 -0.5,-0.5 v -13 a 0.5,0.5 0 0 1 0.5,-0.5 z"
     id="path21" />
  <path
     style="font-size:12px;fill:none;fill-rule:evenodd;stroke:#000000;stroke-width:0.1;stroke-linecap:round;stroke-dasharray:none"
     d="m 50.65,45.388 h 13 a 0.5,0.5 0 0 1 0.5,0.5 v 13 a 0.5,0.5 0 0 1 -0.5,0.5 h -13 a 0.5,0.5 0 0 1 -0.5,-0.5 v -13 a 0.5,0.5 0 0 1 0.5,-0.5 z"
     id="path20" />
  <path
     style="font-size:12px;fill:none;fill-rule:evenodd;stroke:#000000;stroke-width:0.1;stroke-linecap:round;stroke-dasharray:none"
     d="m 31.6,45.388 h 13 a 0.5,0.5 0 0 1 0.5,0.5 v 13 a 0.5,0.5 0 0 1 -0.5,0.5 h -13 a 0.5,0.5 0 0 1 -0.5,-0.5 v -13 a 0.5,0.5 0 0 1 0.5,-0.5 z"
     id="path19" />
  <path
     style="font-size:12px;fill:none;fill-rule:evenodd;stroke:#000000;stroke-width:0.1;stroke-linecap:round;stroke-dasharray:none"
     d="m 7.788,45.388 h 13 a 0.5,0.5 0 0 1 0.5,0.5 v 13 a 0.5,0.5 0 0 1 -0.5,0.5 h -13 a 0.5,0.5 0 0 1 -0.5,-0.5 v -13 a 0.5,0.5 0 0 1 0.5,-0.5 z"
     id="path18" />
  <path
     style="font-size:12px;fill:none;fill-rule:evenodd;stroke:#000000;stroke-width:0.1;stroke-linecap:round;stroke-dasharray:none"
     d="m 331.638,26.338 h 13 a 0.5,0.5 0 0 1 0.5,0.5 v 13 a 0.5,0.5 0 0 1 -0.5,0.5 h -13 a 0.5,0.5 0 0 1 -0.5,-0.5 v -13 a 0.5,0.5 0 0 1 0.5,-0.5 z"
     id="path17" />
  <path
     style="font-size:12px;fill:none;fill-rule:evenodd;stroke:#000000;stroke-width:0.1;stroke-linecap:round;stroke-dasharray:none"
     d="m 312.588,26.338 h 13 a 0.5,0.5 0 0 1 0.5,0.5 v 13 a 0.5,0.5 0 0 1 -0.5,0.5 h -13 a 0.5,0.5 0 0 1 -0.5,-0.5 v -13 a 0.5,0.5 0 0 1 0.5,-0.5 z"
     id="path16" />
  <path
     style="font-size:12px;fill:none;fill-rule:evenodd;stroke:#000000;stroke-width:0.1;stroke-linecap:round;stroke-dasharray:none"
     d="m 293.538,26.338 h 13 a 0.5,0.5 0 0 1 0.5,0.5 v 13 a 0.5,0.5 0 0 1 -0.5,0.5 h -13 a 0.5,0.5 0 0 1 -0.5,-0.5 v -13 a 0.5,0.5 0 0 1 0.5,-0.5 z"
     id="path15" />
  <path
     style="font-size:12px;fill:none;fill-rule:evenodd;stroke:#000000;stroke-width:0.1;stroke-linecap:round;stroke-dasharray:none"
     d="m 260.2,26.338 h 13 a 0.5,0.5 0 0 1 0.5,0.5 v 13 a 0.5,0.5 0 0 1 -0.5,0.5 h -13 a 0.5,0.5 0 0 1 -0.5,-0.5 v -13 a 0.5,0.5 0 0 1 0.5,-0.5 z"
     id="path14" />
  <path
     style="font-size:12px;fill:none;fill-rule:evenodd;stroke:#000000;stroke-width:0.1;stroke-linecap:round;stroke-dasharray:none"
     d="m 231.625,26.338 h 13 a 0.5,0.5 0 0 1 0.5,0.5 v 13 a 0.5,0.5 0 0 1 -0.5,0.5 h -13 a 0.5,0.5 0 0 1 -0.5,-0.5 v -13 a 0.5,0.5 0 0 1 0.5,-0.5 z"
     id="path13" />
  <path
     style="font-size:12px;fill:none;fill-rule:evenodd;stroke:#000000;stroke-width:0.1;stroke-linecap:round;stroke-dasharray:none"
     d="m 212.575,26.338 h 13 a 0.5,0.5 0 0 1 0.5,0.5 v 13 a 0.5,0.5 0 0 1 -0.5,0.5 h -13 a 0.5,0.5 0 0 1 -0.5,-0.5 v -13 a 0.5,0.5 0 0 1 0.5,-0.5 z"
     id="path12" />
  <path
     style="font-size:12px;fill:none;fill-rule:evenodd;stroke:#000000;stroke-width:0.1;stroke-linecap:round;stroke-dasharray:none"
     d="m 193.525,26.338 h 13 a 0.5,0.5 0 0 1 0.5,0.5 v 13 a 0.5,0.5 0 0 1 -0.5,0.5 h -13 a 0.5,0.5 0 0 1 -0.5,-0.5 v -13 a 0.5,0.5 0 0 1 0.5,-0.5 z"
     id="path11" />
  <path
     style="font-size:12px;fill:none;fill-rule:evenodd;stroke:#000000;stroke-width:0.1;stroke-linecap:round;stroke-dasharray:none"
     d="m 174.475,26.338 h 13 a 0.5,0.5 0 0 1 0.5,0.5 v 13 a 0.5,0.5 0 0 1 -0.5,0.5 h -13 a 0.5,0.5 0 0 1 -0.5,-0.5 v -13 a 0.5,0.5 0 0 1 0.5,-0.5 z"
     id="path10" />
  <path
     style="font-size:12px;fill:none;fill-rule:evenodd;stroke:#000000;stroke-width:0.1;stroke-linecap:round;stroke-dasharray:none"
     d="m 155.425,26.338 h 13 a 0.5,0.5 0 0 1 0.5,0.5 v 13 a 0.5,0.5 0 0 1 -0.5,0.5 h -13 a 0.5,0.5 0 0 1 -0.5,-0.5 v -13 a 0.5,0.5 0 0 1 0.5,-0.5 z"
     id="path9" />
  <path
     style="font-size:12px;fill:none;fill-rule:evenodd;stroke:#000000;stroke-width:0.1;stroke-linecap:round;stroke-dasharray:none"
     d="m 136.375,26.338 h 13 a 0.5,0.5 0 0 1 0.5,0.5 v 13 a 0.5,0.5 0 0 1 -0.5,0.5 h -13 a 0.5,0.5 0 0 1 -0.5,-0.5 v -13 a 0.5,0.5 0 0 1 0.5,-0.5 z"
     id="path8" />
  <path
     style="font-size:12px;fill:none;fill-rule:evenodd;stroke:#000000;stroke-width:0.1;stroke-linecap:round;stroke-dasharray:none"
     d="m 98.275,26.338 h 13 a 0.5,0.5 0 0 1 0.5,0.5 v 13 a 0.5,0.5 0 0 1 -0.5,0.5 h -13 a 0.5,0.5 0 0 1 -0.5,-0.5 v -13 a 0.5,0.5 0 0 1 0.5,-0.5 z"
     id="path7" />
  <path
     style="font-size:12px;fill:none;fill-rule:evenodd;stroke:#000000;stroke-width:0.1;stroke-linecap:round;stroke-dasharray:none"
     d="m 79.225,26.338 h 13 a 0.5,0.5 0 0 1 0.5,0.5 v 13 a 0.5,0.5 0 0 1 -0.5,0.5 h -13 a 0.5,0.5 0 0 1 -0.5,-0.5 v -13 a 0.5,0.5 0 0 1 0.5,-0.5 z"
     id="path6" />
  <path
     style="font-size:12px;fill:none;fill-rule:evenodd;stroke:#000000;stroke-width:0.1;stroke-linecap:round;stroke-dasharray:none"
     d="m 60.175,26.338 h 13 a 0.5,0.5 0 0 1 0.5,0.5 v 13 a 0.5,0.5 0 0 1 -0.5,0.5 h -13 a 0.5,0.5 0 0 1 -0.5,-0.5 v -13 a 0.5,0.5 0 0 1 0.5,-0.5 z"
     id="path5" />
  <path
     style="font-size:12px;fill:none;fill-rule:evenodd;stroke:#000000;stroke-width:0.1;stroke-linecap:round;stroke-dasharray:none"
     d="m 41.125,26.338 h 13 a 0.5,0.5 0 0 1 0.5,0.5 v 13 a 0.5,0.5 0 0 1 -0.5,0.5 h -13 a 0.5,0.5 0 0 1 -0.5,-0.5 v -13 a 0.5,0.5 0 0 1 0.5,-0.5 z"
     id="path4" />
  <path
     style="font-size:12px;fill:none;fill-rule:evenodd;stroke:#000000;stroke-width:0.1;stroke-linecap:round;stroke-dasharray:none"
     d="m 22.075,26.338 h 13 a 0.5,0.5 0 0 1 0.5,0.5 v 13 a 0.5,0.5 0 0 1 -0.5,0.5 h -13 a 0.5,0.5 0 0 1 -0.5,-0.5 v -13 a 0.5,0.5 0 0 1 0.5,-0.5 z"
     id="path3" />
  <path
     style="font-size:12px;fill:none;fill-rule:evenodd;stroke:#000000;stroke-width:0.1;stroke-linecap:round;stroke-dasharray:none"
     d="m 245.913,197.788 h 13 a 0.5,0.5 0 0 1 0.5,0.5 v 13 a 0.5,0.5 0 0 1 -0.5,0.5 h -13 a 0.5,0.5 0 0 1 -0.5,-0.5 v -13 a 0.5,0.5 0 0 1 0.5,-0.5 z"
     id="path2" />
</svg>
