999
"DXF R12 Output" (www.mydxf.blogspot.com)
 0 
SECTION
 2 
HEADER
 9 
$ACADVER
 1 
AC1009
 9 
$EXTMIN
 10 
 0 
 20 
 0 
 9 
$EXTMAX
 10 
 8.5 
 20 
 11 
 0 
ENDSEC
 0 
SECTION
 2 
ENTITIES
0
LINE
8
Layer 1
10
13.524756
20
110.475075
11
13.134797
21
110.396741
0
LINE
8
Layer 1
10
13.134797
20
110.396741
11
12.817037
21
110.182854
0
LINE
8
Layer 1
10
12.817037
20
110.182854
11
12.603151
21
109.865094
0
LINE
8
Layer 1
10
12.603151
20
109.865094
11
12.524817
21
109.475136
0
LINE
8
Layer 1
10
12.524817
20
109.475136
11
12.524817
21
105.575116
0
LINE
8
Layer 1
10
12.524817
20
105.575116
11
12.535147
21
105.474864
0
LINE
8
Layer 1
10
12.535147
20
105.474864
11
8.525061
21
105.474864
0
LINE
8
Layer 1
10
8.525061
20
105.474864
11
8.135104
21
105.396529
0
LINE
8
Layer 1
10
8.135104
20
105.396529
11
7.817343
21
105.182643
0
LINE
8
Layer 1
10
7.817343
20
105.182643
11
7.603457
21
104.864882
0
LINE
8
Layer 1
10
7.603457
20
104.864882
11
7.525122
21
104.474925
0
LINE
8
Layer 1
10
7.525122
20
104.474925
11
7.525122
21
9.216800
0
LINE
8
Layer 1
10
7.525122
20
9.216800
11
7.603457
21
8.826841
0
LINE
8
Layer 1
10
7.603457
20
8.826841
11
7.817343
21
8.509080
0
LINE
8
Layer 1
10
7.817343
20
8.509080
11
8.135104
21
8.295194
0
LINE
8
Layer 1
10
8.135104
20
8.295194
11
8.525061
21
8.216860
0
LINE
8
Layer 1
10
8.525061
20
8.216860
11
25.534875
21
8.216860
0
LINE
8
Layer 1
10
25.534875
20
8.216860
11
25.525075
21
8.117160
0
LINE
8
Layer 1
10
25.525075
20
8.117160
11
25.525075
21
4.217140
0
LINE
8
Layer 1
10
25.525075
20
4.217140
11
25.603409
21
3.827181
0
LINE
8
Layer 1
10
25.603409
20
3.827181
11
25.817295
21
3.509420
0
LINE
8
Layer 1
10
25.817295
20
3.509420
11
26.135055
21
3.295534
0
LINE
8
Layer 1
10
26.135055
20
3.295534
11
26.525014
21
3.217200
0
LINE
8
Layer 1
10
26.525014
20
3.217200
11
64.425026
21
3.217200
0
LINE
8
Layer 1
10
64.425026
20
3.217200
11
64.814985
21
3.295534
0
LINE
8
Layer 1
10
64.814985
20
3.295534
11
65.132745
21
3.509420
0
LINE
8
Layer 1
10
65.132745
20
3.509420
11
65.346631
21
3.827181
0
LINE
8
Layer 1
10
65.346631
20
3.827181
11
65.424965
21
4.217140
0
LINE
8
Layer 1
10
65.424965
20
4.217140
11
65.424965
21
8.117160
0
LINE
8
Layer 1
10
65.424965
20
8.117160
11
65.415165
21
8.216860
0
LINE
8
Layer 1
10
65.415165
20
8.216860
11
223.534680
21
8.216860
0
LINE
8
Layer 1
10
223.534680
20
8.216860
11
223.524680
21
8.117160
0
LINE
8
Layer 1
10
223.524680
20
8.117160
11
223.524680
21
4.217140
0
LINE
8
Layer 1
10
223.524680
20
4.217140
11
223.603014
21
3.827181
0
LINE
8
Layer 1
10
223.603014
20
3.827181
11
223.816900
21
3.509420
0
LINE
8
Layer 1
10
223.816900
20
3.509420
11
224.134661
21
3.295534
0
LINE
8
Layer 1
10
224.134661
20
3.295534
11
224.524620
21
3.217200
0
LINE
8
Layer 1
10
224.524620
20
3.217200
11
262.424630
21
3.217200
0
LINE
8
Layer 1
10
262.424630
20
3.217200
11
262.814589
21
3.295534
0
LINE
8
Layer 1
10
262.814589
20
3.295534
11
263.132350
21
3.509420
0
LINE
8
Layer 1
10
263.132350
20
3.509420
11
263.346236
21
3.827181
0
LINE
8
Layer 1
10
263.346236
20
3.827181
11
263.424570
21
4.217140
0
LINE
8
Layer 1
10
263.424570
20
4.217140
11
263.424570
21
8.117160
0
LINE
8
Layer 1
10
263.424570
20
8.117160
11
263.414570
21
8.216860
0
LINE
8
Layer 1
10
263.414570
20
8.216860
11
309.534750
21
8.216860
0
LINE
8
Layer 1
10
309.534750
20
8.216860
11
309.524450
21
8.117160
0
LINE
8
Layer 1
10
309.524450
20
8.117160
11
309.524450
21
4.217140
0
LINE
8
Layer 1
10
309.524450
20
4.217140
11
309.602864
21
3.827181
0
LINE
8
Layer 1
10
309.602864
20
3.827181
11
309.816925
21
3.509420
0
LINE
8
Layer 1
10
309.816925
20
3.509420
11
310.134861
21
3.295534
0
LINE
8
Layer 1
10
310.134861
20
3.295534
11
310.524900
21
3.217200
0
LINE
8
Layer 1
10
310.524900
20
3.217200
11
348.424910
21
3.217200
0
LINE
8
Layer 1
10
348.424910
20
3.217200
11
348.814869
21
3.295534
0
LINE
8
Layer 1
10
348.814869
20
3.295534
11
349.132630
21
3.509420
0
LINE
8
Layer 1
10
349.132630
20
3.509420
11
349.346516
21
3.827181
0
LINE
8
Layer 1
10
349.346516
20
3.827181
11
349.424850
21
4.217140
0
LINE
8
Layer 1
10
349.424850
20
4.217140
11
349.424850
21
8.117160
0
LINE
8
Layer 1
10
349.424850
20
8.117160
11
349.414550
21
8.216860
0
LINE
8
Layer 1
10
349.414550
20
8.216860
11
354.124850
21
8.216860
0
LINE
8
Layer 1
10
354.124850
20
8.216860
11
354.514809
21
8.295194
0
LINE
8
Layer 1
10
354.514809
20
8.295194
11
354.832570
21
8.509080
0
LINE
8
Layer 1
10
354.832570
20
8.509080
11
355.046456
21
8.826841
0
LINE
8
Layer 1
10
355.046456
20
8.826841
11
355.124790
21
9.216800
0
LINE
8
Layer 1
10
355.124790
20
9.216800
11
355.124790
21
104.474925
0
LINE
8
Layer 1
10
355.124790
20
104.474925
11
355.046456
21
104.864882
0
LINE
8
Layer 1
10
355.046456
20
104.864882
11
354.832570
21
105.182643
0
LINE
8
Layer 1
10
354.832570
20
105.182643
11
354.514809
21
105.396529
0
LINE
8
Layer 1
10
354.514809
20
105.396529
11
354.124850
21
105.474864
0
LINE
8
Layer 1
10
354.124850
20
105.474864
11
349.414550
21
105.474864
0
LINE
8
Layer 1
10
349.414550
20
105.474864
11
349.424850
21
105.575116
0
LINE
8
Layer 1
10
349.424850
20
105.575116
11
349.424850
21
109.475136
0
LINE
8
Layer 1
10
349.424850
20
109.475136
11
349.346516
21
109.865095
0
LINE
8
Layer 1
10
349.346516
20
109.865095
11
349.132630
21
110.182855
0
LINE
8
Layer 1
10
349.132630
20
110.182855
11
348.814869
21
110.396741
0
LINE
8
Layer 1
10
348.814869
20
110.396741
11
348.424910
21
110.475075
0
LINE
8
Layer 1
10
348.424910
20
110.475075
11
310.524900
21
110.475075
0
LINE
8
Layer 1
10
310.524900
20
110.475075
11
310.134861
21
110.396741
0
LINE
8
Layer 1
10
310.134861
20
110.396741
11
309.816925
21
110.182855
0
LINE
8
Layer 1
10
309.816925
20
110.182855
11
309.602864
21
109.865095
0
LINE
8
Layer 1
10
309.602864
20
109.865095
11
309.524450
21
109.475136
0
LINE
8
Layer 1
10
309.524450
20
109.475136
11
309.524450
21
105.575116
0
LINE
8
Layer 1
10
309.524450
20
105.575116
11
309.534750
21
105.474864
0
LINE
8
Layer 1
10
309.534750
20
105.474864
11
250.414850
21
105.474864
0
LINE
8
Layer 1
10
250.414850
20
105.474864
11
250.424850
21
105.575116
0
LINE
8
Layer 1
10
250.424850
20
105.575116
11
250.424850
21
109.475136
0
LINE
8
Layer 1
10
250.424850
20
109.475136
11
250.346510
21
109.865094
0
LINE
8
Layer 1
10
250.346510
20
109.865094
11
250.132616
21
110.182855
0
LINE
8
Layer 1
10
250.132616
20
110.182855
11
249.814857
21
110.396741
0
LINE
8
Layer 1
10
249.814857
20
110.396741
11
249.424920
21
110.475075
0
LINE
8
Layer 1
10
249.424920
20
110.475075
11
211.524900
21
110.475075
0
LINE
8
Layer 1
10
211.524900
20
110.475075
11
211.134941
21
110.396741
0
LINE
8
Layer 1
10
211.134941
20
110.396741
11
210.817180
21
110.182855
0
LINE
8
Layer 1
10
210.817180
20
110.182855
11
210.603294
21
109.865094
0
LINE
8
Layer 1
10
210.603294
20
109.865094
11
210.524960
21
109.475136
0
LINE
8
Layer 1
10
210.524960
20
109.475136
11
210.524960
21
105.575116
0
LINE
8
Layer 1
10
210.524960
20
105.575116
11
210.534960
21
105.474864
0
LINE
8
Layer 1
10
210.534960
20
105.474864
11
151.415060
21
105.474864
0
LINE
8
Layer 1
10
151.415060
20
105.474864
11
151.425060
21
105.575116
0
LINE
8
Layer 1
10
151.425060
20
105.575116
11
151.425060
21
109.475136
0
LINE
8
Layer 1
10
151.425060
20
109.475136
11
151.346726
21
109.865094
0
LINE
8
Layer 1
10
151.346726
20
109.865094
11
151.132840
21
110.182854
0
LINE
8
Layer 1
10
151.132840
20
110.182854
11
150.815079
21
110.396741
0
LINE
8
Layer 1
10
150.815079
20
110.396741
11
150.425120
21
110.475075
0
LINE
8
Layer 1
10
150.425120
20
110.475075
11
112.525100
21
110.475075
0
LINE
8
Layer 1
10
112.525100
20
110.475075
11
112.135168
21
110.396741
0
LINE
8
Layer 1
10
112.135168
20
110.396741
11
111.817408
21
110.182854
0
LINE
8
Layer 1
10
111.817408
20
110.182854
11
111.603511
21
109.865094
0
LINE
8
Layer 1
10
111.603511
20
109.865094
11
111.525170
21
109.475136
0
LINE
8
Layer 1
10
111.525170
20
109.475136
11
111.525170
21
105.575116
0
LINE
8
Layer 1
10
111.525170
20
105.575116
11
111.535170
21
105.474864
0
LINE
8
Layer 1
10
111.535170
20
105.474864
11
52.414889
21
105.474864
0
LINE
8
Layer 1
10
52.414889
20
105.474864
11
52.425219
21
105.575116
0
LINE
8
Layer 1
10
52.425219
20
105.575116
11
52.425219
21
109.475136
0
LINE
8
Layer 1
10
52.425219
20
109.475136
11
52.346804
21
109.865094
0
LINE
8
Layer 1
10
52.346804
20
109.865094
11
52.132741
21
110.182854
0
LINE
8
Layer 1
10
52.132741
20
110.182854
11
51.814803
21
110.396741
0
LINE
8
Layer 1
10
51.814803
20
110.396741
11
51.424763
21
110.475075
0
LINE
8
Layer 1
10
51.424763
20
110.475075
11
13.524756
21
110.475075
0
LINE
8
Layer 3
10
37.285999
20
62.761997
11
37.285999
21
62.761997
0
LINE
8
Layer 3
10
37.285999
20
62.761997
11
37.649548
21
62.685877
0
LINE
8
Layer 3
10
37.649548
20
62.685877
11
37.957750
21
62.469104
0
LINE
8
Layer 3
10
37.957750
20
62.469104
11
38.235999
21
61.761997
0
LINE
8
Layer 3
10
38.235999
20
61.761997
11
38.235999
21
51.761997
0
LINE
8
Layer 3
10
38.235999
20
51.761997
11
37.957750
21
51.054890
0
LINE
8
Layer 3
10
37.957750
20
51.054890
11
37.649548
21
50.838117
0
LINE
8
Layer 3
10
37.649548
20
50.838117
11
37.285999
21
50.761997
0
LINE
8
Layer 3
10
37.285999
20
50.761997
11
37.285999
21
50.761997
0
LINE
8
Layer 3
10
37.285999
20
50.761997
11
36.922450
21
50.838117
0
LINE
8
Layer 3
10
36.922450
20
50.838117
11
36.614248
21
51.054890
0
LINE
8
Layer 3
10
36.614248
20
51.054890
11
36.335999
21
51.761997
0
LINE
8
Layer 3
10
36.335999
20
51.761997
11
36.335999
21
61.761997
0
LINE
8
Layer 3
10
36.335999
20
61.761997
11
36.614248
21
62.469104
0
LINE
8
Layer 3
10
36.614248
20
62.469104
11
36.922450
21
62.685877
0
LINE
8
Layer 3
10
36.922450
20
62.685877
11
37.285999
21
62.761997
0
LINE
8
Layer 3
10
37.285999
20
62.761997
11
37.285999
21
62.761997
0
LINE
8
Layer 3
10
295.749990
20
42.799004
11
295.749990
21
42.799004
0
LINE
8
Layer 3
10
295.749990
20
42.799004
11
296.113539
21
42.722884
0
LINE
8
Layer 3
10
296.113539
20
42.722884
11
296.421741
21
42.506111
0
LINE
8
Layer 3
10
296.421741
20
42.506111
11
296.699990
21
41.799004
0
LINE
8
Layer 3
10
296.699990
20
41.799004
11
296.699990
21
14.799004
0
LINE
8
Layer 3
10
296.699990
20
14.799004
11
296.421741
21
14.091897
0
LINE
8
Layer 3
10
296.421741
20
14.091897
11
296.113539
21
13.875124
0
LINE
8
Layer 3
10
296.113539
20
13.875124
11
295.749990
21
13.799004
0
LINE
8
Layer 3
10
295.749990
20
13.799004
11
295.749990
21
13.799004
0
LINE
8
Layer 3
10
295.749990
20
13.799004
11
295.386441
21
13.875124
0
LINE
8
Layer 3
10
295.386441
20
13.875124
11
295.078239
21
14.091897
0
LINE
8
Layer 3
10
295.078239
20
14.091897
11
294.799990
21
14.799004
0
LINE
8
Layer 3
10
294.799990
20
14.799004
11
294.799990
21
41.799004
0
LINE
8
Layer 3
10
294.799990
20
41.799004
11
295.078239
21
42.506111
0
LINE
8
Layer 3
10
295.078239
20
42.506111
11
295.386441
21
42.722884
0
LINE
8
Layer 3
10
295.386441
20
42.722884
11
295.749990
21
42.799004
0
LINE
8
Layer 3
10
295.749990
20
42.799004
11
295.749990
21
42.799004
0
LINE
8
Layer 3
10
295.749990
20
100.949001
11
295.749990
21
100.949001
0
LINE
8
Layer 3
10
295.749990
20
100.949001
11
296.113539
21
100.872881
0
LINE
8
Layer 3
10
296.113539
20
100.872881
11
296.421741
21
100.656108
0
LINE
8
Layer 3
10
296.421741
20
100.656108
11
296.699990
21
99.949001
0
LINE
8
Layer 3
10
296.699990
20
99.949001
11
296.699990
21
89.949001
0
LINE
8
Layer 3
10
296.699990
20
89.949001
11
296.421741
21
89.241894
0
LINE
8
Layer 3
10
296.421741
20
89.241894
11
296.113539
21
89.025121
0
LINE
8
Layer 3
10
296.113539
20
89.025121
11
295.749990
21
88.949001
0
LINE
8
Layer 3
10
295.749990
20
88.949001
11
295.749990
21
88.949001
0
LINE
8
Layer 3
10
295.749990
20
88.949001
11
295.386441
21
89.025121
0
LINE
8
Layer 3
10
295.386441
20
89.025121
11
295.078239
21
89.241894
0
LINE
8
Layer 3
10
295.078239
20
89.241894
11
294.799990
21
89.949001
0
LINE
8
Layer 3
10
294.799990
20
89.949001
11
294.799990
21
99.949001
0
LINE
8
Layer 3
10
294.799990
20
99.949001
11
295.078239
21
100.656108
0
LINE
8
Layer 3
10
295.078239
20
100.656108
11
295.386441
21
100.872881
0
LINE
8
Layer 3
10
295.386441
20
100.872881
11
295.749990
21
100.949001
0
LINE
8
Layer 3
10
295.749990
20
100.949001
11
295.749990
21
100.949001
0
LINE
8
Layer 3
10
295.749990
20
79.899002
11
295.749990
21
79.899002
0
LINE
8
Layer 3
10
295.749990
20
79.899002
11
296.113539
21
79.822882
0
LINE
8
Layer 3
10
296.113539
20
79.822882
11
296.421741
21
79.606109
0
LINE
8
Layer 3
10
296.421741
20
79.606109
11
296.699990
21
78.899002
0
LINE
8
Layer 3
10
296.699990
20
78.899002
11
296.699990
21
54.841001
0
LINE
8
Layer 3
10
296.699990
20
54.841001
11
296.421741
21
54.133894
0
LINE
8
Layer 3
10
296.421741
20
54.133894
11
296.113539
21
53.917121
0
LINE
8
Layer 3
10
296.113539
20
53.917121
11
295.749990
21
53.841001
0
LINE
8
Layer 3
10
295.749990
20
53.841001
11
295.749990
21
53.841001
0
LINE
8
Layer 3
10
295.749990
20
53.841001
11
295.386441
21
53.917121
0
LINE
8
Layer 3
10
295.386441
20
53.917121
11
295.078239
21
54.133894
0
LINE
8
Layer 3
10
295.078239
20
54.133894
11
294.799990
21
54.841001
0
LINE
8
Layer 3
10
294.799990
20
54.841001
11
294.799990
21
78.899002
0
LINE
8
Layer 3
10
294.799990
20
78.899002
11
295.078239
21
79.606109
0
LINE
8
Layer 3
10
295.078239
20
79.606109
11
295.386441
21
79.822882
0
LINE
8
Layer 3
10
295.386441
20
79.822882
11
295.749990
21
79.899002
0
LINE
8
Layer 3
10
295.749990
20
79.899002
11
295.749990
21
79.899002
0
LINE
8
Layer 3
10
314.467240
20
30.894800
11
314.467240
21
44.738316
0
LINE
8
Layer 3
10
314.467240
20
44.738316
11
300.623680
21
30.894800
0
LINE
8
Layer 3
10
300.623680
20
30.894800
11
314.467240
21
30.894800
0
LINE
8
Layer 3
10
338.658850
20
30.894800
11
338.658850
21
44.738316
0
LINE
8
Layer 3
10
338.658850
20
44.738316
11
352.502410
21
30.894800
0
LINE
8
Layer 3
10
352.502410
20
30.894800
11
338.658850
21
30.894800
0
LINE
8
Layer 2
10
272.487760
20
82.898951
11
272.134495
21
82.752504
0
LINE
8
Layer 2
10
272.134495
20
82.752504
11
271.988050
21
82.399240
0
LINE
8
Layer 2
10
271.988050
20
82.399240
11
271.988050
21
69.399000
0
LINE
8
Layer 2
10
271.988050
20
69.399000
11
272.134311
21
69.045402
0
LINE
8
Layer 2
10
272.134311
20
69.045402
11
272.487760
21
68.898772
0
LINE
8
Layer 2
10
272.487760
20
68.898772
11
274.368780
21
68.898772
0
LINE
8
Layer 2
10
274.368780
20
68.898772
11
274.368780
21
63.848951
0
LINE
8
Layer 2
10
274.368780
20
63.848951
11
266.438000
21
63.848951
0
LINE
8
Layer 2
10
266.438000
20
63.848951
11
265.344010
21
63.848951
0
LINE
8
Layer 2
10
265.344010
20
63.848951
11
263.406140
21
63.848951
0
LINE
8
Layer 2
10
263.406140
20
63.848951
11
263.406140
21
65.349118
0
LINE
8
Layer 2
10
263.406140
20
65.349118
11
263.259515
21
65.702562
0
LINE
8
Layer 2
10
263.259515
20
65.702562
11
262.905920
21
65.848829
0
LINE
8
Layer 2
10
262.905920
20
65.848829
11
256.905770
21
65.848829
0
LINE
8
Layer 2
10
256.905770
20
65.848829
11
256.552500
21
65.702386
0
LINE
8
Layer 2
10
256.552500
20
65.702386
11
256.406050
21
65.349118
0
LINE
8
Layer 2
10
256.406050
20
65.349118
11
256.406050
21
63.848951
0
LINE
8
Layer 2
10
256.406050
20
63.848951
11
253.437760
21
63.848951
0
LINE
8
Layer 2
10
253.437760
20
63.848951
11
253.084495
21
63.702504
0
LINE
8
Layer 2
10
253.084495
20
63.702504
11
252.938050
21
63.349240
0
LINE
8
Layer 2
10
252.938050
20
63.349240
11
252.938050
21
50.349000
0
LINE
8
Layer 2
10
252.938050
20
50.349000
11
253.084311
21
49.995402
0
LINE
8
Layer 2
10
253.084311
20
49.995402
11
253.437760
21
49.848772
0
LINE
8
Layer 2
10
253.437760
20
49.848772
11
265.344010
21
49.848772
0
LINE
8
Layer 2
10
265.344010
20
49.848772
11
266.438000
21
49.848772
0
LINE
8
Layer 2
10
266.438000
20
49.848772
11
278.344250
21
49.848772
0
LINE
8
Layer 2
10
278.344250
20
49.848772
11
278.697699
21
49.995402
0
LINE
8
Layer 2
10
278.697699
20
49.995402
11
278.843960
21
50.349000
0
LINE
8
Layer 2
10
278.843960
20
50.349000
11
278.843960
21
50.936044
0
LINE
8
Layer 2
10
278.843960
20
50.936044
11
280.572020
21
50.936044
0
LINE
8
Layer 2
10
280.572020
20
50.936044
11
280.781830
21
50.849224
0
LINE
8
Layer 2
10
280.781830
20
50.849224
11
286.781980
21
50.849224
0
LINE
8
Layer 2
10
286.781980
20
50.849224
11
286.991780
21
50.936044
0
LINE
8
Layer 2
10
286.991780
20
50.936044
11
289.869130
21
50.936044
0
LINE
8
Layer 2
10
289.869130
20
50.936044
11
290.222395
21
51.082491
0
LINE
8
Layer 2
10
290.222395
20
51.082491
11
290.368840
21
51.435755
0
LINE
8
Layer 2
10
290.368840
20
51.435755
11
290.368840
21
57.435905
0
LINE
8
Layer 2
10
290.368840
20
57.435905
11
290.222579
21
57.789503
0
LINE
8
Layer 2
10
290.222579
20
57.789503
11
289.869130
21
57.936133
0
LINE
8
Layer 2
10
289.869130
20
57.936133
11
287.282210
21
57.936133
0
LINE
8
Layer 2
10
287.282210
20
57.936133
11
287.282210
21
59.373772
0
LINE
8
Layer 2
10
287.282210
20
59.373772
11
287.869250
21
59.373772
0
LINE
8
Layer 2
10
287.869250
20
59.373772
11
288.222699
21
59.520402
0
LINE
8
Layer 2
10
288.222699
20
59.520402
11
288.368960
21
59.874000
0
LINE
8
Layer 2
10
288.368960
20
59.874000
11
288.368960
21
72.874240
0
LINE
8
Layer 2
10
288.368960
20
72.874240
11
288.222515
21
73.227504
0
LINE
8
Layer 2
10
288.222515
20
73.227504
11
287.869250
21
73.373951
0
LINE
8
Layer 2
10
287.869250
20
73.373951
11
285.988230
21
73.373951
0
LINE
8
Layer 2
10
285.988230
20
73.373951
11
285.988230
21
74.812106
0
LINE
8
Layer 2
10
285.988230
20
74.812106
11
289.869130
21
74.812106
0
LINE
8
Layer 2
10
289.869130
20
74.812106
11
290.222395
21
74.958553
0
LINE
8
Layer 2
10
290.222395
20
74.958553
11
290.368840
21
75.311817
0
LINE
8
Layer 2
10
290.368840
20
75.311817
11
290.368840
21
81.311967
0
LINE
8
Layer 2
10
290.368840
20
81.311967
11
290.222579
21
81.665565
0
LINE
8
Layer 2
10
290.222579
20
81.665565
11
289.869130
21
81.812195
0
LINE
8
Layer 2
10
289.869130
20
81.812195
11
285.988230
21
81.812195
0
LINE
8
Layer 2
10
285.988230
20
81.812195
11
285.988230
21
82.399240
0
LINE
8
Layer 2
10
285.988230
20
82.399240
11
285.841600
21
82.752688
0
LINE
8
Layer 2
10
285.841600
20
82.752688
11
285.488000
21
82.898951
0
LINE
8
Layer 2
10
285.488000
20
82.898951
11
272.487760
21
82.898951
0
LINE
8
Layer 2
10
204.549790
20
27.748830
11
204.196527
21
27.602383
0
LINE
8
Layer 2
10
204.196527
20
27.602383
11
204.050080
21
27.249120
0
LINE
8
Layer 2
10
204.050080
20
27.249120
11
204.050080
21
25.748950
0
LINE
8
Layer 2
10
204.050080
20
25.748950
11
203.430990
21
25.748950
0
LINE
8
Layer 2
10
203.430990
20
25.748950
11
203.077397
21
25.602684
0
LINE
8
Layer 2
10
203.077397
20
25.602684
11
202.930770
21
25.249240
0
LINE
8
Layer 2
10
202.930770
20
25.249240
11
202.930770
21
12.249000
0
LINE
8
Layer 2
10
202.930770
20
12.249000
11
203.077213
21
11.895220
0
LINE
8
Layer 2
10
203.077213
20
11.895220
11
203.430990
21
11.748770
0
LINE
8
Layer 2
10
203.430990
20
11.748770
11
216.431230
21
11.748770
0
LINE
8
Layer 2
10
216.431230
20
11.748770
11
216.784677
21
11.895400
0
LINE
8
Layer 2
10
216.784677
20
11.895400
11
216.930940
21
12.249000
0
LINE
8
Layer 2
10
216.930940
20
12.249000
11
216.930940
21
25.249240
0
LINE
8
Layer 2
10
216.930940
20
25.249240
11
216.784493
21
25.602503
0
LINE
8
Layer 2
10
216.784493
20
25.602503
11
216.431230
21
25.748950
0
LINE
8
Layer 2
10
216.431230
20
25.748950
11
211.050170
21
25.748950
0
LINE
8
Layer 2
10
211.050170
20
25.748950
11
211.050170
21
27.249120
0
LINE
8
Layer 2
10
211.050170
20
27.249120
11
210.903540
21
27.602567
0
LINE
8
Layer 2
10
210.903540
20
27.602567
11
210.549940
21
27.748830
0
LINE
8
Layer 2
10
210.549940
20
27.748830
11
204.549790
21
27.748830
0
LINE
8
Layer 2
10
85.494006
20
27.748830
11
85.140408
21
27.602567
0
LINE
8
Layer 2
10
85.140408
20
27.602567
11
84.993778
21
27.249120
0
LINE
8
Layer 2
10
84.993778
20
27.249120
11
84.993778
21
13.248940
0
LINE
8
Layer 2
10
84.993778
20
13.248940
11
85.140408
21
12.895493
0
LINE
8
Layer 2
10
85.140408
20
12.895493
11
85.494006
21
12.749230
0
LINE
8
Layer 2
10
85.494006
20
12.749230
11
90.249788
21
12.749230
0
LINE
8
Layer 2
10
90.249788
20
12.749230
11
91.494157
21
12.749230
0
LINE
8
Layer 2
10
91.494157
20
12.749230
11
96.249939
21
12.749230
0
LINE
8
Layer 2
10
96.249939
20
12.749230
11
96.603537
21
12.895493
0
LINE
8
Layer 2
10
96.603537
20
12.895493
11
96.750167
21
13.248940
0
LINE
8
Layer 2
10
96.750167
20
13.248940
11
96.750167
21
27.249120
0
LINE
8
Layer 2
10
96.750167
20
27.249120
11
96.603537
21
27.602567
0
LINE
8
Layer 2
10
96.603537
20
27.602567
11
96.249939
21
27.748830
0
LINE
8
Layer 2
10
96.249939
20
27.748830
11
91.494157
21
27.748830
0
LINE
8
Layer 2
10
91.494157
20
27.748830
11
90.249788
21
27.748830
0
LINE
8
Layer 2
10
90.249788
20
27.748830
11
85.494006
21
27.748830
0
LINE
8
Layer 2
10
185.494100
20
27.748830
11
185.140507
21
27.602564
0
LINE
8
Layer 2
10
185.140507
20
27.602564
11
184.993880
21
27.249120
0
LINE
8
Layer 2
10
184.993880
20
27.249120
11
184.993880
21
25.748950
0
LINE
8
Layer 2
10
184.993880
20
25.748950
11
181.999740
21
25.748950
0
LINE
8
Layer 2
10
181.999740
20
25.748950
11
181.646477
21
25.602503
0
LINE
8
Layer 2
10
181.646477
20
25.602503
11
181.500030
21
25.249240
0
LINE
8
Layer 2
10
181.500030
20
25.249240
11
181.500030
21
12.249000
0
LINE
8
Layer 2
10
181.500030
20
12.249000
11
181.646293
21
11.895400
0
LINE
8
Layer 2
10
181.646293
20
11.895400
11
181.999740
21
11.748770
0
LINE
8
Layer 2
10
181.999740
20
11.748770
11
194.999980
21
11.748770
0
LINE
8
Layer 2
10
194.999980
20
11.748770
11
195.353763
21
11.895217
0
LINE
8
Layer 2
10
195.353763
20
11.895217
11
195.500210
21
12.249000
0
LINE
8
Layer 2
10
195.500210
20
12.249000
11
195.500210
21
25.249240
0
LINE
8
Layer 2
10
195.500210
20
25.249240
11
195.353580
21
25.602687
0
LINE
8
Layer 2
10
195.353580
20
25.602687
11
194.999980
21
25.748950
0
LINE
8
Layer 2
10
194.999980
20
25.748950
11
191.993970
21
25.748950
0
LINE
8
Layer 2
10
191.993970
20
25.748950
11
191.993970
21
27.249120
0
LINE
8
Layer 2
10
191.993970
20
27.249120
11
191.847520
21
27.602387
0
LINE
8
Layer 2
10
191.847520
20
27.602387
11
191.494250
21
27.748830
0
LINE
8
Layer 2
10
191.494250
20
27.748830
11
185.494100
21
27.748830
0
LINE
8
Layer 2
10
251.055990
20
44.798951
11
250.702397
21
44.652684
0
LINE
8
Layer 2
10
250.702397
20
44.652684
11
250.555770
21
44.299240
0
LINE
8
Layer 2
10
250.555770
20
44.299240
11
250.555770
21
31.299000
0
LINE
8
Layer 2
10
250.555770
20
31.299000
11
250.702213
21
30.945220
0
LINE
8
Layer 2
10
250.702213
20
30.945220
11
251.055990
21
30.798770
0
LINE
8
Layer 2
10
251.055990
20
30.798770
11
251.643040
21
30.798770
0
LINE
8
Layer 2
10
251.643040
20
30.798770
11
251.643040
21
29.299120
0
LINE
8
Layer 2
10
251.643040
20
29.299120
11
251.789303
21
28.945520
0
LINE
8
Layer 2
10
251.789303
20
28.945520
11
252.142750
21
28.798890
0
LINE
8
Layer 2
10
252.142750
20
28.798890
11
258.142900
21
28.798890
0
LINE
8
Layer 2
10
258.142900
20
28.798890
11
258.496683
21
28.945337
0
LINE
8
Layer 2
10
258.496683
20
28.945337
11
258.643130
21
29.299120
0
LINE
8
Layer 2
10
258.643130
20
29.299120
11
258.643130
21
30.798770
0
LINE
8
Layer 2
10
258.643130
20
30.798770
11
260.580990
21
30.798770
0
LINE
8
Layer 2
10
260.580990
20
30.798770
11
264.056230
21
30.798770
0
LINE
8
Layer 2
10
264.056230
20
30.798770
11
272.598860
21
30.798770
0
LINE
8
Layer 2
10
272.598860
20
30.798770
11
273.581230
21
30.798770
0
LINE
8
Layer 2
10
273.581230
20
30.798770
11
275.519100
21
30.798770
0
LINE
8
Layer 2
10
275.519100
20
30.798770
11
275.519100
21
29.299120
0
LINE
8
Layer 2
10
275.519100
20
29.299120
11
275.665363
21
28.945520
0
LINE
8
Layer 2
10
275.665363
20
28.945520
11
276.018810
21
28.798890
0
LINE
8
Layer 2
10
276.018810
20
28.798890
11
282.018960
21
28.798890
0
LINE
8
Layer 2
10
282.018960
20
28.798890
11
282.372743
21
28.945337
0
LINE
8
Layer 2
10
282.372743
20
28.945337
11
282.519190
21
29.299120
0
LINE
8
Layer 2
10
282.519190
20
29.299120
11
282.519190
21
30.798770
0
LINE
8
Layer 2
10
282.519190
20
30.798770
11
290.249980
21
30.798770
0
LINE
8
Layer 2
10
290.249980
20
30.798770
11
290.603763
21
30.945217
0
LINE
8
Layer 2
10
290.603763
20
30.945217
11
290.750210
21
31.299000
0
LINE
8
Layer 2
10
290.750210
20
31.299000
11
290.750210
21
44.299240
0
LINE
8
Layer 2
10
290.750210
20
44.299240
11
290.603580
21
44.652688
0
LINE
8
Layer 2
10
290.603580
20
44.652688
11
290.249980
21
44.798951
0
LINE
8
Layer 2
10
290.249980
20
44.798951
11
278.652760
21
44.798951
0
LINE
8
Layer 2
10
278.652760
20
44.798951
11
277.249740
21
44.798951
0
LINE
8
Layer 2
10
277.249740
20
44.798951
11
273.581230
21
44.798951
0
LINE
8
Layer 2
10
273.581230
20
44.798951
11
272.598860
21
44.798951
0
LINE
8
Layer 2
10
272.598860
20
44.798951
11
264.056230
21
44.798951
0
LINE
8
Layer 2
10
264.056230
20
44.798951
11
260.580990
21
44.798951
0
LINE
8
Layer 2
10
260.580990
20
44.798951
11
251.055990
21
44.798951
0
LINE
8
Layer 2
10
14.017749
20
46.798829
11
13.664485
21
46.652382
0
LINE
8
Layer 2
10
13.664485
20
46.652382
11
13.518038
21
46.299118
0
LINE
8
Layer 2
10
13.518038
20
46.299118
11
13.518038
21
44.798951
0
LINE
8
Layer 2
10
13.518038
20
44.798951
11
12.930994
21
44.798951
0
LINE
8
Layer 2
10
12.930994
20
44.798951
11
12.577395
21
44.652687
0
LINE
8
Layer 2
10
12.577395
20
44.652687
11
12.430766
21
44.299240
0
LINE
8
Layer 2
10
12.430766
20
44.299240
11
12.430766
21
31.299000
0
LINE
8
Layer 2
10
12.430766
20
31.299000
11
12.577212
21
30.945217
0
LINE
8
Layer 2
10
12.577212
20
30.945217
11
12.930994
21
30.798770
0
LINE
8
Layer 2
10
12.930994
20
30.798770
11
22.455994
21
30.798770
0
LINE
8
Layer 2
10
22.455994
20
30.798770
11
25.931234
21
30.798770
0
LINE
8
Layer 2
10
25.931234
20
30.798770
11
34.362760
21
30.798770
0
LINE
8
Layer 2
10
34.362760
20
30.798770
11
35.456234
21
30.798770
0
LINE
8
Layer 2
10
35.456234
20
30.798770
11
47.363000
21
30.798770
0
LINE
8
Layer 2
10
47.363000
20
30.798770
11
47.716782
21
30.945217
0
LINE
8
Layer 2
10
47.716782
20
30.945217
11
47.863228
21
31.299000
0
LINE
8
Layer 2
10
47.863228
20
31.299000
11
47.863228
21
44.299240
0
LINE
8
Layer 2
10
47.863228
20
44.299240
11
47.716599
21
44.652687
0
LINE
8
Layer 2
10
47.716599
20
44.652687
11
47.363000
21
44.798951
0
LINE
8
Layer 2
10
47.363000
20
44.798951
11
44.394189
21
44.798951
0
LINE
8
Layer 2
10
44.394189
20
44.798951
11
44.394189
21
46.299118
0
LINE
8
Layer 2
10
44.394189
20
46.299118
11
44.247560
21
46.652565
0
LINE
8
Layer 2
10
44.247560
20
46.652565
11
43.893962
21
46.798829
0
LINE
8
Layer 2
10
43.893962
20
46.798829
11
37.893811
21
46.798829
0
LINE
8
Layer 2
10
37.893811
20
46.798829
11
37.540547
21
46.652382
0
LINE
8
Layer 2
10
37.540547
20
46.652382
11
37.394100
21
46.299118
0
LINE
8
Layer 2
10
37.394100
20
46.299118
11
37.394100
21
44.798951
0
LINE
8
Layer 2
10
37.394100
20
44.798951
11
35.456234
21
44.798951
0
LINE
8
Layer 2
10
35.456234
20
44.798951
11
34.362760
21
44.798951
0
LINE
8
Layer 2
10
34.362760
20
44.798951
11
25.931234
21
44.798951
0
LINE
8
Layer 2
10
25.931234
20
44.798951
11
22.455994
21
44.798951
0
LINE
8
Layer 2
10
22.455994
20
44.798951
11
20.518127
21
44.798951
0
LINE
8
Layer 2
10
20.518127
20
44.798951
11
20.518127
21
46.299118
0
LINE
8
Layer 2
10
20.518127
20
46.299118
11
20.371498
21
46.652565
0
LINE
8
Layer 2
10
20.371498
20
46.652565
11
20.017900
21
46.798829
0
LINE
8
Layer 2
10
20.017900
20
46.798829
11
14.017749
21
46.798829
0
LINE
8
Layer 2
10
259.287020
20
85.948943
11
258.933420
21
86.095206
0
LINE
8
Layer 2
10
258.933420
20
86.095206
11
258.786790
21
86.448654
0
LINE
8
Layer 2
10
258.786790
20
86.448654
11
258.786790
21
87.948821
0
LINE
8
Layer 2
10
258.786790
20
87.948821
11
258.199740
21
87.948821
0
LINE
8
Layer 2
10
258.199740
20
87.948821
11
257.846476
21
88.095268
0
LINE
8
Layer 2
10
257.846476
20
88.095268
11
257.700030
21
88.448532
0
LINE
8
Layer 2
10
257.700030
20
88.448532
11
257.700030
21
101.448772
0
LINE
8
Layer 2
10
257.700030
20
101.448772
11
257.846293
21
101.802370
0
LINE
8
Layer 2
10
257.846293
20
101.802370
11
258.199740
21
101.949000
0
LINE
8
Layer 2
10
258.199740
20
101.949000
11
267.724740
21
101.949000
0
LINE
8
Layer 2
10
267.724740
20
101.949000
11
271.199980
21
101.949000
0
LINE
8
Layer 2
10
271.199980
20
101.949000
11
277.249740
21
101.949000
0
LINE
8
Layer 2
10
277.249740
20
101.949000
11
280.724980
21
101.949000
0
LINE
8
Layer 2
10
280.724980
20
101.949000
11
290.249980
21
101.949000
0
LINE
8
Layer 2
10
290.249980
20
101.949000
11
290.603763
21
101.802554
0
LINE
8
Layer 2
10
290.603763
20
101.802554
11
290.750210
21
101.448772
0
LINE
8
Layer 2
10
290.750210
20
101.448772
11
290.750210
21
88.448532
0
LINE
8
Layer 2
10
290.750210
20
88.448532
11
290.603580
21
88.095084
0
LINE
8
Layer 2
10
290.603580
20
88.095084
11
290.249980
21
87.948821
0
LINE
8
Layer 2
10
290.249980
20
87.948821
11
289.662940
21
87.948821
0
LINE
8
Layer 2
10
289.662940
20
87.948821
11
289.662940
21
86.448654
0
LINE
8
Layer 2
10
289.662940
20
86.448654
11
289.516494
21
86.095390
0
LINE
8
Layer 2
10
289.516494
20
86.095390
11
289.163230
21
85.948943
0
LINE
8
Layer 2
10
289.163230
20
85.948943
11
283.163080
21
85.948943
0
LINE
8
Layer 2
10
283.163080
20
85.948943
11
282.809480
21
86.095206
0
LINE
8
Layer 2
10
282.809480
20
86.095206
11
282.662850
21
86.448654
0
LINE
8
Layer 2
10
282.662850
20
86.448654
11
282.662850
21
87.948821
0
LINE
8
Layer 2
10
282.662850
20
87.948821
11
280.724980
21
87.948821
0
LINE
8
Layer 2
10
280.724980
20
87.948821
11
277.249740
21
87.948821
0
LINE
8
Layer 2
10
277.249740
20
87.948821
11
271.199980
21
87.948821
0
LINE
8
Layer 2
10
271.199980
20
87.948821
11
267.724740
21
87.948821
0
LINE
8
Layer 2
10
267.724740
20
87.948821
11
265.786880
21
87.948821
0
LINE
8
Layer 2
10
265.786880
20
87.948821
11
265.786880
21
86.448654
0
LINE
8
Layer 2
10
265.786880
20
86.448654
11
265.640434
21
86.095390
0
LINE
8
Layer 2
10
265.640434
20
86.095390
11
265.287170
21
85.948943
0
LINE
8
Layer 2
10
265.287170
20
85.948943
11
259.287020
21
85.948943
0
LINE
8
Layer 2
10
124.850000
20
101.949000
11
137.850000
21
101.949000
0
LINE
8
Layer 2
10
137.850000
20
101.949000
11
138.203553
21
101.802553
0
LINE
8
Layer 2
10
138.203553
20
101.802553
11
138.350000
21
101.449000
0
LINE
8
Layer 2
10
138.350000
20
101.449000
11
138.350000
21
88.449000
0
LINE
8
Layer 2
10
138.350000
20
88.449000
11
138.203553
21
88.095447
0
LINE
8
Layer 2
10
138.203553
20
88.095447
11
137.850000
21
87.949000
0
LINE
8
Layer 2
10
137.850000
20
87.949000
11
124.850000
21
87.949000
0
LINE
8
Layer 2
10
124.850000
20
87.949000
11
124.496447
21
88.095447
0
LINE
8
Layer 2
10
124.496447
20
88.095447
11
124.350000
21
88.449000
0
LINE
8
Layer 2
10
124.350000
20
88.449000
11
124.350000
21
101.449000
0
LINE
8
Layer 2
10
124.350000
20
101.449000
11
124.496447
21
101.802553
0
LINE
8
Layer 2
10
124.496447
20
101.802553
11
124.850000
21
101.949000
0
LINE
8
Layer 2
10
124.850000
20
101.949000
11
124.850000
21
101.949000
0
LINE
8
Layer 2
10
60.555994
20
25.748950
11
60.202396
21
25.602687
0
LINE
8
Layer 2
10
60.202396
20
25.602687
11
60.055766
21
25.249240
0
LINE
8
Layer 2
10
60.055766
20
25.249240
11
60.055766
21
12.249000
0
LINE
8
Layer 2
10
60.055766
20
12.249000
11
60.202212
21
11.895217
0
LINE
8
Layer 2
10
60.202212
20
11.895217
11
60.555994
21
11.748770
0
LINE
8
Layer 2
10
60.555994
20
11.748770
11
62.937760
21
11.748770
0
LINE
8
Layer 2
10
62.937760
20
11.748770
11
73.556234
21
11.748770
0
LINE
8
Layer 2
10
73.556234
20
11.748770
11
75.938000
21
11.748770
0
LINE
8
Layer 2
10
75.938000
20
11.748770
11
76.291782
21
11.895217
0
LINE
8
Layer 2
10
76.291782
20
11.895217
11
76.438228
21
12.249000
0
LINE
8
Layer 2
10
76.438228
20
12.249000
11
76.438228
21
25.249240
0
LINE
8
Layer 2
10
76.438228
20
25.249240
11
76.291598
21
25.602687
0
LINE
8
Layer 2
10
76.291598
20
25.602687
11
75.938000
21
25.748950
0
LINE
8
Layer 2
10
75.938000
20
25.748950
11
73.556234
21
25.748950
0
LINE
8
Layer 2
10
73.556234
20
25.748950
11
62.937760
21
25.748950
0
LINE
8
Layer 2
10
62.937760
20
25.748950
11
60.555994
21
25.748950
0
LINE
8
Layer 2
10
10.550000
20
101.949000
11
23.550000
21
101.949000
0
LINE
8
Layer 2
10
23.550000
20
101.949000
11
23.903553
21
101.802553
0
LINE
8
Layer 2
10
23.903553
20
101.802553
11
24.050000
21
101.449000
0
LINE
8
Layer 2
10
24.050000
20
101.449000
11
24.050000
21
88.449000
0
LINE
8
Layer 2
10
24.050000
20
88.449000
11
23.903553
21
88.095447
0
LINE
8
Layer 2
10
23.903553
20
88.095447
11
23.550000
21
87.949000
0
LINE
8
Layer 2
10
23.550000
20
87.949000
11
10.550000
21
87.949000
0
LINE
8
Layer 2
10
10.550000
20
87.949000
11
10.196447
21
88.095447
0
LINE
8
Layer 2
10
10.196447
20
88.095447
11
10.050000
21
88.449000
0
LINE
8
Layer 2
10
10.050000
20
88.449000
11
10.050000
21
101.449000
0
LINE
8
Layer 2
10
10.050000
20
101.449000
11
10.196447
21
101.802553
0
LINE
8
Layer 2
10
10.196447
20
101.802553
11
10.550000
21
101.949000
0
LINE
8
Layer 2
10
10.550000
20
101.949000
11
10.550000
21
101.949000
0
LINE
8
Layer 2
10
62.938000
20
63.849000
11
75.938000
21
63.849000
0
LINE
8
Layer 2
10
75.938000
20
63.849000
11
76.291553
21
63.702553
0
LINE
8
Layer 2
10
76.291553
20
63.702553
11
76.438000
21
63.349000
0
LINE
8
Layer 2
10
76.438000
20
63.349000
11
76.438000
21
50.349000
0
LINE
8
Layer 2
10
76.438000
20
50.349000
11
76.291553
21
49.995447
0
LINE
8
Layer 2
10
76.291553
20
49.995447
11
75.938000
21
49.849000
0
LINE
8
Layer 2
10
75.938000
20
49.849000
11
62.938000
21
49.849000
0
LINE
8
Layer 2
10
62.938000
20
49.849000
11
62.584447
21
49.995447
0
LINE
8
Layer 2
10
62.584447
20
49.995447
11
62.438000
21
50.349000
0
LINE
8
Layer 2
10
62.438000
20
50.349000
11
62.438000
21
63.349000
0
LINE
8
Layer 2
10
62.438000
20
63.349000
11
62.584447
21
63.702553
0
LINE
8
Layer 2
10
62.584447
20
63.702553
11
62.938000
21
63.849000
0
LINE
8
Layer 2
10
62.938000
20
63.849000
11
62.938000
21
63.849000
0
LINE
8
Layer 2
10
12.930994
20
63.848951
11
12.577395
21
63.702687
0
LINE
8
Layer 2
10
12.577395
20
63.702687
11
12.430766
21
63.349240
0
LINE
8
Layer 2
10
12.430766
20
63.349240
11
12.430766
21
50.349000
0
LINE
8
Layer 2
10
12.430766
20
50.349000
11
12.577213
21
49.995219
0
LINE
8
Layer 2
10
12.577213
20
49.995219
11
12.930994
21
49.848772
0
LINE
8
Layer 2
10
12.930994
20
49.848772
11
17.694010
21
49.848772
0
LINE
8
Layer 2
10
17.694010
20
49.848772
11
25.931234
21
49.848772
0
LINE
8
Layer 2
10
25.931234
20
49.848772
11
30.694250
21
49.848772
0
LINE
8
Layer 2
10
30.694250
20
49.848772
11
31.047698
21
49.995401
0
LINE
8
Layer 2
10
31.047698
20
49.995401
11
31.193962
21
50.349000
0
LINE
8
Layer 2
10
31.193962
20
50.349000
11
31.193962
21
63.349240
0
LINE
8
Layer 2
10
31.193962
20
63.349240
11
31.047515
21
63.702505
0
LINE
8
Layer 2
10
31.047515
20
63.702505
11
30.694250
21
63.848951
0
LINE
8
Layer 2
10
30.694250
20
63.848951
11
25.931234
21
63.848951
0
LINE
8
Layer 2
10
25.931234
20
63.848951
11
17.694010
21
63.848951
0
LINE
8
Layer 2
10
17.694010
20
63.848951
11
12.930994
21
63.848951
0
LINE
8
Layer 2
10
272.487760
20
25.748950
11
272.134497
21
25.602503
0
LINE
8
Layer 2
10
272.134497
20
25.602503
11
271.988050
21
25.249240
0
LINE
8
Layer 2
10
271.988050
20
25.249240
11
271.988050
21
12.249000
0
LINE
8
Layer 2
10
271.988050
20
12.249000
11
272.134313
21
11.895400
0
LINE
8
Layer 2
10
272.134313
20
11.895400
11
272.487760
21
11.748770
0
LINE
8
Layer 2
10
272.487760
20
11.748770
11
274.869010
21
11.748770
0
LINE
8
Layer 2
10
274.869010
20
11.748770
11
285.488000
21
11.748770
0
LINE
8
Layer 2
10
285.488000
20
11.748770
11
287.869250
21
11.748770
0
LINE
8
Layer 2
10
287.869250
20
11.748770
11
288.222697
21
11.895400
0
LINE
8
Layer 2
10
288.222697
20
11.895400
11
288.368960
21
12.249000
0
LINE
8
Layer 2
10
288.368960
20
12.249000
11
288.368960
21
25.249240
0
LINE
8
Layer 2
10
288.368960
20
25.249240
11
288.222513
21
25.602503
0
LINE
8
Layer 2
10
288.222513
20
25.602503
11
287.869250
21
25.748950
0
LINE
8
Layer 2
10
287.869250
20
25.748950
11
285.488000
21
25.748950
0
LINE
8
Layer 2
10
285.488000
20
25.748950
11
274.869010
21
25.748950
0
LINE
8
Layer 2
10
274.869010
20
25.748950
11
272.487760
21
25.748950
0
LINE
8
Layer 2
10
248.674740
20
25.748950
11
248.321477
21
25.602503
0
LINE
8
Layer 2
10
248.321477
20
25.602503
11
248.175030
21
25.249240
0
LINE
8
Layer 2
10
248.175030
20
25.249240
11
248.175030
21
12.249000
0
LINE
8
Layer 2
10
248.175030
20
12.249000
11
248.321293
21
11.895400
0
LINE
8
Layer 2
10
248.321293
20
11.895400
11
248.674740
21
11.748770
0
LINE
8
Layer 2
10
248.674740
20
11.748770
11
251.055990
21
11.748770
0
LINE
8
Layer 2
10
251.055990
20
11.748770
11
261.674980
21
11.748770
0
LINE
8
Layer 2
10
261.674980
20
11.748770
11
264.056230
21
11.748770
0
LINE
8
Layer 2
10
264.056230
20
11.748770
11
264.409677
21
11.895400
0
LINE
8
Layer 2
10
264.409677
20
11.895400
11
264.555940
21
12.249000
0
LINE
8
Layer 2
10
264.555940
20
12.249000
11
264.555940
21
25.249240
0
LINE
8
Layer 2
10
264.555940
20
25.249240
11
264.409493
21
25.602503
0
LINE
8
Layer 2
10
264.409493
20
25.602503
11
264.056230
21
25.748950
0
LINE
8
Layer 2
10
264.056230
20
25.748950
11
261.674980
21
25.748950
0
LINE
8
Layer 2
10
261.674980
20
25.748950
11
251.055990
21
25.748950
0
LINE
8
Layer 2
10
251.055990
20
25.748950
11
248.674740
21
25.748950
0
LINE
8
Layer 2
10
224.862760
20
25.748950
11
224.509497
21
25.602503
0
LINE
8
Layer 2
10
224.509497
20
25.602503
11
224.363050
21
25.249240
0
LINE
8
Layer 2
10
224.363050
20
25.249240
11
224.363050
21
12.249000
0
LINE
8
Layer 2
10
224.363050
20
12.249000
11
224.509313
21
11.895400
0
LINE
8
Layer 2
10
224.509313
20
11.895400
11
224.862760
21
11.748770
0
LINE
8
Layer 2
10
224.862760
20
11.748770
11
227.244010
21
11.748770
0
LINE
8
Layer 2
10
227.244010
20
11.748770
11
237.863000
21
11.748770
0
LINE
8
Layer 2
10
237.863000
20
11.748770
11
240.244250
21
11.748770
0
LINE
8
Layer 2
10
240.244250
20
11.748770
11
240.597697
21
11.895400
0
LINE
8
Layer 2
10
240.597697
20
11.895400
11
240.743960
21
12.249000
0
LINE
8
Layer 2
10
240.743960
20
12.249000
11
240.743960
21
25.249240
0
LINE
8
Layer 2
10
240.743960
20
25.249240
11
240.597513
21
25.602503
0
LINE
8
Layer 2
10
240.597513
20
25.602503
11
240.244250
21
25.748950
0
LINE
8
Layer 2
10
240.244250
20
25.748950
11
237.863000
21
25.748950
0
LINE
8
Layer 2
10
237.863000
20
25.748950
11
227.244010
21
25.748950
0
LINE
8
Layer 2
10
227.244010
20
25.748950
11
224.862760
21
25.748950
0
LINE
8
Layer 2
10
128.349790
20
27.748830
11
127.996527
21
27.602383
0
LINE
8
Layer 2
10
127.996527
20
27.602383
11
127.850080
21
27.249120
0
LINE
8
Layer 2
10
127.850080
20
27.249120
11
127.850080
21
13.248940
0
LINE
8
Layer 2
10
127.850080
20
13.248940
11
127.996527
21
12.895677
0
LINE
8
Layer 2
10
127.996527
20
12.895677
11
128.349790
21
12.749230
0
LINE
8
Layer 2
10
128.349790
20
12.749230
11
131.493780
21
12.749230
0
LINE
8
Layer 2
10
131.493780
20
12.749230
11
131.493780
21
12.249000
0
LINE
8
Layer 2
10
131.493780
20
12.249000
11
131.640227
21
11.895217
0
LINE
8
Layer 2
10
131.640227
20
11.895217
11
131.994010
21
11.748770
0
LINE
8
Layer 2
10
131.994010
20
11.748770
11
143.899740
21
11.748770
0
LINE
8
Layer 2
10
143.899740
20
11.748770
11
144.994250
21
11.748770
0
LINE
8
Layer 2
10
144.994250
20
11.748770
11
156.899980
21
11.748770
0
LINE
8
Layer 2
10
156.899980
20
11.748770
11
157.253763
21
11.895217
0
LINE
8
Layer 2
10
157.253763
20
11.895217
11
157.400210
21
12.249000
0
LINE
8
Layer 2
10
157.400210
20
12.249000
11
157.400210
21
25.249240
0
LINE
8
Layer 2
10
157.400210
20
25.249240
11
157.253580
21
25.602687
0
LINE
8
Layer 2
10
157.253580
20
25.602687
11
156.899980
21
25.748950
0
LINE
8
Layer 2
10
156.899980
20
25.748950
11
144.994250
21
25.748950
0
LINE
8
Layer 2
10
144.994250
20
25.748950
11
143.899740
21
25.748950
0
LINE
8
Layer 2
10
143.899740
20
25.748950
11
134.850170
21
25.748950
0
LINE
8
Layer 2
10
134.850170
20
25.748950
11
134.850170
21
27.249120
0
LINE
8
Layer 2
10
134.850170
20
27.249120
11
134.703540
21
27.602567
0
LINE
8
Layer 2
10
134.703540
20
27.602567
11
134.349940
21
27.748830
0
LINE
8
Layer 2
10
134.349940
20
27.748830
11
128.349790
21
27.748830
0
LINE
8
Layer 2
10
36.744010
20
25.748950
11
36.390412
21
25.602686
0
LINE
8
Layer 2
10
36.390412
20
25.602686
11
36.243783
21
25.249240
0
LINE
8
Layer 2
10
36.243783
20
25.249240
11
36.243783
21
12.249000
0
LINE
8
Layer 2
10
36.243783
20
12.249000
11
36.390228
21
11.895218
0
LINE
8
Layer 2
10
36.390228
20
11.895218
11
36.744010
21
11.748770
0
LINE
8
Layer 2
10
36.744010
20
11.748770
11
39.124744
21
11.748770
0
LINE
8
Layer 2
10
39.124744
20
11.748770
11
49.744250
21
11.748770
0
LINE
8
Layer 2
10
49.744250
20
11.748770
11
52.124984
21
11.748770
0
LINE
8
Layer 2
10
52.124984
20
11.748770
11
52.478766
21
11.895217
0
LINE
8
Layer 2
10
52.478766
20
11.895217
11
52.625212
21
12.249000
0
LINE
8
Layer 2
10
52.625212
20
12.249000
11
52.625212
21
25.249240
0
LINE
8
Layer 2
10
52.625212
20
25.249240
11
52.478582
21
25.602687
0
LINE
8
Layer 2
10
52.478582
20
25.602687
11
52.124984
21
25.748950
0
LINE
8
Layer 2
10
52.124984
20
25.748950
11
49.744250
21
25.748950
0
LINE
8
Layer 2
10
49.744250
20
25.748950
11
39.124744
21
25.748950
0
LINE
8
Layer 2
10
39.124744
20
25.748950
11
36.744010
21
25.748950
0
LINE
8
Layer 2
10
12.930994
20
25.748950
11
12.577396
21
25.602687
0
LINE
8
Layer 2
10
12.577396
20
25.602687
11
12.430766
21
25.249240
0
LINE
8
Layer 2
10
12.430766
20
25.249240
11
12.430766
21
12.249000
0
LINE
8
Layer 2
10
12.430766
20
12.249000
11
12.577212
21
11.895217
0
LINE
8
Layer 2
10
12.577212
20
11.895217
11
12.930994
21
11.748770
0
LINE
8
Layer 2
10
12.930994
20
11.748770
11
15.312760
21
11.748770
0
LINE
8
Layer 2
10
15.312760
20
11.748770
11
25.931234
21
11.748770
0
LINE
8
Layer 2
10
25.931234
20
11.748770
11
28.313000
21
11.748770
0
LINE
8
Layer 2
10
28.313000
20
11.748770
11
28.666782
21
11.895217
0
LINE
8
Layer 2
10
28.666782
20
11.895217
11
28.813228
21
12.249000
0
LINE
8
Layer 2
10
28.813228
20
12.249000
11
28.813228
21
25.249240
0
LINE
8
Layer 2
10
28.813228
20
25.249240
11
28.666598
21
25.602687
0
LINE
8
Layer 2
10
28.666598
20
25.602687
11
28.313000
21
25.748950
0
LINE
8
Layer 2
10
28.313000
20
25.748950
11
25.931234
21
25.748950
0
LINE
8
Layer 2
10
25.931234
20
25.748950
11
15.312760
21
25.748950
0
LINE
8
Layer 2
10
15.312760
20
25.748950
11
12.930994
21
25.748950
0
LINE
8
Layer 2
10
339.163000
20
25.749000
11
352.163000
21
25.749000
0
LINE
8
Layer 2
10
352.163000
20
25.749000
11
352.516553
21
25.602553
0
LINE
8
Layer 2
10
352.516553
20
25.602553
11
352.663000
21
25.249000
0
LINE
8
Layer 2
10
352.663000
20
25.249000
11
352.663000
21
12.249000
0
LINE
8
Layer 2
10
352.663000
20
12.249000
11
352.516553
21
11.895447
0
LINE
8
Layer 2
10
352.516553
20
11.895447
11
352.163000
21
11.749000
0
LINE
8
Layer 2
10
352.163000
20
11.749000
11
339.163000
21
11.749000
0
LINE
8
Layer 2
10
339.163000
20
11.749000
11
338.809447
21
11.895447
0
LINE
8
Layer 2
10
338.809447
20
11.895447
11
338.663000
21
12.249000
0
LINE
8
Layer 2
10
338.663000
20
12.249000
11
338.663000
21
25.249000
0
LINE
8
Layer 2
10
338.663000
20
25.249000
11
338.809447
21
25.602553
0
LINE
8
Layer 2
10
338.809447
20
25.602553
11
339.163000
21
25.749000
0
LINE
8
Layer 2
10
339.163000
20
25.749000
11
339.163000
21
25.749000
0
LINE
8
Layer 2
10
320.113000
20
25.749000
11
333.113000
21
25.749000
0
LINE
8
Layer 2
10
333.113000
20
25.749000
11
333.466553
21
25.602553
0
LINE
8
Layer 2
10
333.466553
20
25.602553
11
333.613000
21
25.249000
0
LINE
8
Layer 2
10
333.613000
20
25.249000
11
333.613000
21
12.249000
0
LINE
8
Layer 2
10
333.613000
20
12.249000
11
333.466553
21
11.895447
0
LINE
8
Layer 2
10
333.466553
20
11.895447
11
333.113000
21
11.749000
0
LINE
8
Layer 2
10
333.113000
20
11.749000
11
320.113000
21
11.749000
0
LINE
8
Layer 2
10
320.113000
20
11.749000
11
319.759447
21
11.895447
0
LINE
8
Layer 2
10
319.759447
20
11.895447
11
319.613000
21
12.249000
0
LINE
8
Layer 2
10
319.613000
20
12.249000
11
319.613000
21
25.249000
0
LINE
8
Layer 2
10
319.613000
20
25.249000
11
319.759447
21
25.602553
0
LINE
8
Layer 2
10
319.759447
20
25.602553
11
320.113000
21
25.749000
0
LINE
8
Layer 2
10
320.113000
20
25.749000
11
320.113000
21
25.749000
0
LINE
8
Layer 2
10
301.063000
20
25.749000
11
314.063000
21
25.749000
0
LINE
8
Layer 2
10
314.063000
20
25.749000
11
314.416553
21
25.602553
0
LINE
8
Layer 2
10
314.416553
20
25.602553
11
314.563000
21
25.249000
0
LINE
8
Layer 2
10
314.563000
20
25.249000
11
314.563000
21
12.249000
0
LINE
8
Layer 2
10
314.563000
20
12.249000
11
314.416553
21
11.895447
0
LINE
8
Layer 2
10
314.416553
20
11.895447
11
314.063000
21
11.749000
0
LINE
8
Layer 2
10
314.063000
20
11.749000
11
301.063000
21
11.749000
0
LINE
8
Layer 2
10
301.063000
20
11.749000
11
300.709447
21
11.895447
0
LINE
8
Layer 2
10
300.709447
20
11.895447
11
300.563000
21
12.249000
0
LINE
8
Layer 2
10
300.563000
20
12.249000
11
300.563000
21
25.249000
0
LINE
8
Layer 2
10
300.563000
20
25.249000
11
300.709447
21
25.602553
0
LINE
8
Layer 2
10
300.709447
20
25.602553
11
301.063000
21
25.749000
0
LINE
8
Layer 2
10
301.063000
20
25.749000
11
301.063000
21
25.749000
0
LINE
8
Layer 2
10
320.113000
20
44.799000
11
333.113000
21
44.799000
0
LINE
8
Layer 2
10
333.113000
20
44.799000
11
333.466553
21
44.652553
0
LINE
8
Layer 2
10
333.466553
20
44.652553
11
333.613000
21
44.299000
0
LINE
8
Layer 2
10
333.613000
20
44.299000
11
333.613000
21
31.299000
0
LINE
8
Layer 2
10
333.613000
20
31.299000
11
333.466553
21
30.945447
0
LINE
8
Layer 2
10
333.466553
20
30.945447
11
333.113000
21
30.799000
0
LINE
8
Layer 2
10
333.113000
20
30.799000
11
320.113000
21
30.799000
0
LINE
8
Layer 2
10
320.113000
20
30.799000
11
319.759447
21
30.945447
0
LINE
8
Layer 2
10
319.759447
20
30.945447
11
319.613000
21
31.299000
0
LINE
8
Layer 2
10
319.613000
20
31.299000
11
319.613000
21
44.299000
0
LINE
8
Layer 2
10
319.613000
20
44.299000
11
319.759447
21
44.652553
0
LINE
8
Layer 2
10
319.759447
20
44.652553
11
320.113000
21
44.799000
0
LINE
8
Layer 2
10
320.113000
20
44.799000
11
320.113000
21
44.799000
0
LINE
8
Layer 2
10
224.863000
20
44.799000
11
237.863000
21
44.799000
0
LINE
8
Layer 2
10
237.863000
20
44.799000
11
238.216553
21
44.652553
0
LINE
8
Layer 2
10
238.216553
20
44.652553
11
238.363000
21
44.299000
0
LINE
8
Layer 2
10
238.363000
20
44.299000
11
238.363000
21
31.299000
0
LINE
8
Layer 2
10
238.363000
20
31.299000
11
238.216553
21
30.945447
0
LINE
8
Layer 2
10
238.216553
20
30.945447
11
237.863000
21
30.799000
0
LINE
8
Layer 2
10
237.863000
20
30.799000
11
224.863000
21
30.799000
0
LINE
8
Layer 2
10
224.863000
20
30.799000
11
224.509447
21
30.945447
0
LINE
8
Layer 2
10
224.509447
20
30.945447
11
224.363000
21
31.299000
0
LINE
8
Layer 2
10
224.363000
20
31.299000
11
224.363000
21
44.299000
0
LINE
8
Layer 2
10
224.363000
20
44.299000
11
224.509447
21
44.652553
0
LINE
8
Layer 2
10
224.509447
20
44.652553
11
224.863000
21
44.799000
0
LINE
8
Layer 2
10
224.863000
20
44.799000
11
224.863000
21
44.799000
0
LINE
8
Layer 2
10
205.813000
20
44.799000
11
218.813000
21
44.799000
0
LINE
8
Layer 2
10
218.813000
20
44.799000
11
219.166553
21
44.652553
0
LINE
8
Layer 2
10
219.166553
20
44.652553
11
219.313000
21
44.299000
0
LINE
8
Layer 2
10
219.313000
20
44.299000
11
219.313000
21
31.299000
0
LINE
8
Layer 2
10
219.313000
20
31.299000
11
219.166553
21
30.945447
0
LINE
8
Layer 2
10
219.166553
20
30.945447
11
218.813000
21
30.799000
0
LINE
8
Layer 2
10
218.813000
20
30.799000
11
205.813000
21
30.799000
0
LINE
8
Layer 2
10
205.813000
20
30.799000
11
205.459447
21
30.945447
0
LINE
8
Layer 2
10
205.459447
20
30.945447
11
205.313000
21
31.299000
0
LINE
8
Layer 2
10
205.313000
20
31.299000
11
205.313000
21
44.299000
0
LINE
8
Layer 2
10
205.313000
20
44.299000
11
205.459447
21
44.652553
0
LINE
8
Layer 2
10
205.459447
20
44.652553
11
205.813000
21
44.799000
0
LINE
8
Layer 2
10
205.813000
20
44.799000
11
205.813000
21
44.799000
0
LINE
8
Layer 2
10
186.763000
20
44.799000
11
199.763000
21
44.799000
0
LINE
8
Layer 2
10
199.763000
20
44.799000
11
200.116553
21
44.652553
0
LINE
8
Layer 2
10
200.116553
20
44.652553
11
200.263000
21
44.299000
0
LINE
8
Layer 2
10
200.263000
20
44.299000
11
200.263000
21
31.299000
0
LINE
8
Layer 2
10
200.263000
20
31.299000
11
200.116553
21
30.945447
0
LINE
8
Layer 2
10
200.116553
20
30.945447
11
199.763000
21
30.799000
0
LINE
8
Layer 2
10
199.763000
20
30.799000
11
186.763000
21
30.799000
0
LINE
8
Layer 2
10
186.763000
20
30.799000
11
186.409447
21
30.945447
0
LINE
8
Layer 2
10
186.409447
20
30.945447
11
186.263000
21
31.299000
0
LINE
8
Layer 2
10
186.263000
20
31.299000
11
186.263000
21
44.299000
0
LINE
8
Layer 2
10
186.263000
20
44.299000
11
186.409447
21
44.652553
0
LINE
8
Layer 2
10
186.409447
20
44.652553
11
186.763000
21
44.799000
0
LINE
8
Layer 2
10
186.763000
20
44.799000
11
186.763000
21
44.799000
0
LINE
8
Layer 2
10
167.713000
20
44.799000
11
180.713000
21
44.799000
0
LINE
8
Layer 2
10
180.713000
20
44.799000
11
181.066553
21
44.652553
0
LINE
8
Layer 2
10
181.066553
20
44.652553
11
181.213000
21
44.299000
0
LINE
8
Layer 2
10
181.213000
20
44.299000
11
181.213000
21
31.299000
0
LINE
8
Layer 2
10
181.213000
20
31.299000
11
181.066553
21
30.945447
0
LINE
8
Layer 2
10
181.066553
20
30.945447
11
180.713000
21
30.799000
0
LINE
8
Layer 2
10
180.713000
20
30.799000
11
167.713000
21
30.799000
0
LINE
8
Layer 2
10
167.713000
20
30.799000
11
167.359447
21
30.945447
0
LINE
8
Layer 2
10
167.359447
20
30.945447
11
167.213000
21
31.299000
0
LINE
8
Layer 2
10
167.213000
20
31.299000
11
167.213000
21
44.299000
0
LINE
8
Layer 2
10
167.213000
20
44.299000
11
167.359447
21
44.652553
0
LINE
8
Layer 2
10
167.359447
20
44.652553
11
167.713000
21
44.799000
0
LINE
8
Layer 2
10
167.713000
20
44.799000
11
167.713000
21
44.799000
0
LINE
8
Layer 2
10
148.663000
20
44.799000
11
161.663000
21
44.799000
0
LINE
8
Layer 2
10
161.663000
20
44.799000
11
162.016553
21
44.652553
0
LINE
8
Layer 2
10
162.016553
20
44.652553
11
162.163000
21
44.299000
0
LINE
8
Layer 2
10
162.163000
20
44.299000
11
162.163000
21
31.299000
0
LINE
8
Layer 2
10
162.163000
20
31.299000
11
162.016553
21
30.945447
0
LINE
8
Layer 2
10
162.016553
20
30.945447
11
161.663000
21
30.799000
0
LINE
8
Layer 2
10
161.663000
20
30.799000
11
148.663000
21
30.799000
0
LINE
8
Layer 2
10
148.663000
20
30.799000
11
148.309447
21
30.945447
0
LINE
8
Layer 2
10
148.309447
20
30.945447
11
148.163000
21
31.299000
0
LINE
8
Layer 2
10
148.163000
20
31.299000
11
148.163000
21
44.299000
0
LINE
8
Layer 2
10
148.163000
20
44.299000
11
148.309447
21
44.652553
0
LINE
8
Layer 2
10
148.309447
20
44.652553
11
148.663000
21
44.799000
0
LINE
8
Layer 2
10
148.663000
20
44.799000
11
148.663000
21
44.799000
0
LINE
8
Layer 2
10
129.613000
20
44.799000
11
142.613000
21
44.799000
0
LINE
8
Layer 2
10
142.613000
20
44.799000
11
142.966553
21
44.652553
0
LINE
8
Layer 2
10
142.966553
20
44.652553
11
143.113000
21
44.299000
0
LINE
8
Layer 2
10
143.113000
20
44.299000
11
143.113000
21
31.299000
0
LINE
8
Layer 2
10
143.113000
20
31.299000
11
142.966553
21
30.945447
0
LINE
8
Layer 2
10
142.966553
20
30.945447
11
142.613000
21
30.799000
0
LINE
8
Layer 2
10
142.613000
20
30.799000
11
129.613000
21
30.799000
0
LINE
8
Layer 2
10
129.613000
20
30.799000
11
129.259447
21
30.945447
0
LINE
8
Layer 2
10
129.259447
20
30.945447
11
129.113000
21
31.299000
0
LINE
8
Layer 2
10
129.113000
20
31.299000
11
129.113000
21
44.299000
0
LINE
8
Layer 2
10
129.113000
20
44.299000
11
129.259447
21
44.652553
0
LINE
8
Layer 2
10
129.259447
20
44.652553
11
129.613000
21
44.799000
0
LINE
8
Layer 2
10
129.613000
20
44.799000
11
129.613000
21
44.799000
0
LINE
8
Layer 2
10
110.563000
20
44.799000
11
123.563000
21
44.799000
0
LINE
8
Layer 2
10
123.563000
20
44.799000
11
123.916553
21
44.652553
0
LINE
8
Layer 2
10
123.916553
20
44.652553
11
124.063000
21
44.299000
0
LINE
8
Layer 2
10
124.063000
20
44.299000
11
124.063000
21
31.299000
0
LINE
8
Layer 2
10
124.063000
20
31.299000
11
123.916553
21
30.945447
0
LINE
8
Layer 2
10
123.916553
20
30.945447
11
123.563000
21
30.799000
0
LINE
8
Layer 2
10
123.563000
20
30.799000
11
110.563000
21
30.799000
0
LINE
8
Layer 2
10
110.563000
20
30.799000
11
110.209447
21
30.945447
0
LINE
8
Layer 2
10
110.209447
20
30.945447
11
110.063000
21
31.299000
0
LINE
8
Layer 2
10
110.063000
20
31.299000
11
110.063000
21
44.299000
0
LINE
8
Layer 2
10
110.063000
20
44.299000
11
110.209447
21
44.652553
0
LINE
8
Layer 2
10
110.209447
20
44.652553
11
110.563000
21
44.799000
0
LINE
8
Layer 2
10
110.563000
20
44.799000
11
110.563000
21
44.799000
0
LINE
8
Layer 2
10
91.513000
20
44.799000
11
104.513000
21
44.799000
0
LINE
8
Layer 2
10
104.513000
20
44.799000
11
104.866553
21
44.652553
0
LINE
8
Layer 2
10
104.866553
20
44.652553
11
105.013000
21
44.299000
0
LINE
8
Layer 2
10
105.013000
20
44.299000
11
105.013000
21
31.299000
0
LINE
8
Layer 2
10
105.013000
20
31.299000
11
104.866553
21
30.945447
0
LINE
8
Layer 2
10
104.866553
20
30.945447
11
104.513000
21
30.799000
0
LINE
8
Layer 2
10
104.513000
20
30.799000
11
91.513000
21
30.799000
0
LINE
8
Layer 2
10
91.513000
20
30.799000
11
91.159447
21
30.945447
0
LINE
8
Layer 2
10
91.159447
20
30.945447
11
91.013000
21
31.299000
0
LINE
8
Layer 2
10
91.013000
20
31.299000
11
91.013000
21
44.299000
0
LINE
8
Layer 2
10
91.013000
20
44.299000
11
91.159447
21
44.652553
0
LINE
8
Layer 2
10
91.159447
20
44.652553
11
91.513000
21
44.799000
0
LINE
8
Layer 2
10
91.513000
20
44.799000
11
91.513000
21
44.799000
0
LINE
8
Layer 2
10
72.463000
20
44.799000
11
85.463000
21
44.799000
0
LINE
8
Layer 2
10
85.463000
20
44.799000
11
85.816553
21
44.652553
0
LINE
8
Layer 2
10
85.816553
20
44.652553
11
85.963000
21
44.299000
0
LINE
8
Layer 2
10
85.963000
20
44.299000
11
85.963000
21
31.299000
0
LINE
8
Layer 2
10
85.963000
20
31.299000
11
85.816553
21
30.945447
0
LINE
8
Layer 2
10
85.816553
20
30.945447
11
85.463000
21
30.799000
0
LINE
8
Layer 2
10
85.463000
20
30.799000
11
72.463000
21
30.799000
0
LINE
8
Layer 2
10
72.463000
20
30.799000
11
72.109447
21
30.945447
0
LINE
8
Layer 2
10
72.109447
20
30.945447
11
71.963000
21
31.299000
0
LINE
8
Layer 2
10
71.963000
20
31.299000
11
71.963000
21
44.299000
0
LINE
8
Layer 2
10
71.963000
20
44.299000
11
72.109447
21
44.652553
0
LINE
8
Layer 2
10
72.109447
20
44.652553
11
72.463000
21
44.799000
0
LINE
8
Layer 2
10
72.463000
20
44.799000
11
72.463000
21
44.799000
0
LINE
8
Layer 2
10
53.413000
20
44.799000
11
66.413000
21
44.799000
0
LINE
8
Layer 2
10
66.413000
20
44.799000
11
66.766553
21
44.652553
0
LINE
8
Layer 2
10
66.766553
20
44.652553
11
66.913000
21
44.299000
0
LINE
8
Layer 2
10
66.913000
20
44.299000
11
66.913000
21
31.299000
0
LINE
8
Layer 2
10
66.913000
20
31.299000
11
66.766553
21
30.945447
0
LINE
8
Layer 2
10
66.766553
20
30.945447
11
66.413000
21
30.799000
0
LINE
8
Layer 2
10
66.413000
20
30.799000
11
53.413000
21
30.799000
0
LINE
8
Layer 2
10
53.413000
20
30.799000
11
53.059447
21
30.945447
0
LINE
8
Layer 2
10
53.059447
20
30.945447
11
52.913000
21
31.299000
0
LINE
8
Layer 2
10
52.913000
20
31.299000
11
52.913000
21
44.299000
0
LINE
8
Layer 2
10
52.913000
20
44.299000
11
53.059447
21
44.652553
0
LINE
8
Layer 2
10
53.059447
20
44.652553
11
53.413000
21
44.799000
0
LINE
8
Layer 2
10
53.413000
20
44.799000
11
53.413000
21
44.799000
0
LINE
8
Layer 2
10
234.388000
20
63.849000
11
247.388000
21
63.849000
0
LINE
8
Layer 2
10
247.388000
20
63.849000
11
247.741553
21
63.702553
0
LINE
8
Layer 2
10
247.741553
20
63.702553
11
247.888000
21
63.349000
0
LINE
8
Layer 2
10
247.888000
20
63.349000
11
247.888000
21
50.349000
0
LINE
8
Layer 2
10
247.888000
20
50.349000
11
247.741553
21
49.995447
0
LINE
8
Layer 2
10
247.741553
20
49.995447
11
247.388000
21
49.849000
0
LINE
8
Layer 2
10
247.388000
20
49.849000
11
234.388000
21
49.849000
0
LINE
8
Layer 2
10
234.388000
20
49.849000
11
234.034447
21
49.995447
0
LINE
8
Layer 2
10
234.034447
20
49.995447
11
233.888000
21
50.349000
0
LINE
8
Layer 2
10
233.888000
20
50.349000
11
233.888000
21
63.349000
0
LINE
8
Layer 2
10
233.888000
20
63.349000
11
234.034447
21
63.702553
0
LINE
8
Layer 2
10
234.034447
20
63.702553
11
234.388000
21
63.849000
0
LINE
8
Layer 2
10
234.388000
20
63.849000
11
234.388000
21
63.849000
0
LINE
8
Layer 2
10
215.338000
20
63.849000
11
228.338000
21
63.849000
0
LINE
8
Layer 2
10
228.338000
20
63.849000
11
228.691553
21
63.702553
0
LINE
8
Layer 2
10
228.691553
20
63.702553
11
228.838000
21
63.349000
0
LINE
8
Layer 2
10
228.838000
20
63.349000
11
228.838000
21
50.349000
0
LINE
8
Layer 2
10
228.838000
20
50.349000
11
228.691553
21
49.995447
0
LINE
8
Layer 2
10
228.691553
20
49.995447
11
228.338000
21
49.849000
0
LINE
8
Layer 2
10
228.338000
20
49.849000
11
215.338000
21
49.849000
0
LINE
8
Layer 2
10
215.338000
20
49.849000
11
214.984447
21
49.995447
0
LINE
8
Layer 2
10
214.984447
20
49.995447
11
214.838000
21
50.349000
0
LINE
8
Layer 2
10
214.838000
20
50.349000
11
214.838000
21
63.349000
0
LINE
8
Layer 2
10
214.838000
20
63.349000
11
214.984447
21
63.702553
0
LINE
8
Layer 2
10
214.984447
20
63.702553
11
215.338000
21
63.849000
0
LINE
8
Layer 2
10
215.338000
20
63.849000
11
215.338000
21
63.849000
0
LINE
8
Layer 2
10
196.288000
20
63.849000
11
209.288000
21
63.849000
0
LINE
8
Layer 2
10
209.288000
20
63.849000
11
209.641553
21
63.702553
0
LINE
8
Layer 2
10
209.641553
20
63.702553
11
209.788000
21
63.349000
0
LINE
8
Layer 2
10
209.788000
20
63.349000
11
209.788000
21
50.349000
0
LINE
8
Layer 2
10
209.788000
20
50.349000
11
209.641553
21
49.995447
0
LINE
8
Layer 2
10
209.641553
20
49.995447
11
209.288000
21
49.849000
0
LINE
8
Layer 2
10
209.288000
20
49.849000
11
196.288000
21
49.849000
0
LINE
8
Layer 2
10
196.288000
20
49.849000
11
195.934447
21
49.995447
0
LINE
8
Layer 2
10
195.934447
20
49.995447
11
195.788000
21
50.349000
0
LINE
8
Layer 2
10
195.788000
20
50.349000
11
195.788000
21
63.349000
0
LINE
8
Layer 2
10
195.788000
20
63.349000
11
195.934447
21
63.702553
0
LINE
8
Layer 2
10
195.934447
20
63.702553
11
196.288000
21
63.849000
0
LINE
8
Layer 2
10
196.288000
20
63.849000
11
196.288000
21
63.849000
0
LINE
8
Layer 2
10
177.238000
20
63.849000
11
190.238000
21
63.849000
0
LINE
8
Layer 2
10
190.238000
20
63.849000
11
190.591553
21
63.702553
0
LINE
8
Layer 2
10
190.591553
20
63.702553
11
190.738000
21
63.349000
0
LINE
8
Layer 2
10
190.738000
20
63.349000
11
190.738000
21
50.349000
0
LINE
8
Layer 2
10
190.738000
20
50.349000
11
190.591553
21
49.995447
0
LINE
8
Layer 2
10
190.591553
20
49.995447
11
190.238000
21
49.849000
0
LINE
8
Layer 2
10
190.238000
20
49.849000
11
177.238000
21
49.849000
0
LINE
8
Layer 2
10
177.238000
20
49.849000
11
176.884447
21
49.995447
0
LINE
8
Layer 2
10
176.884447
20
49.995447
11
176.738000
21
50.349000
0
LINE
8
Layer 2
10
176.738000
20
50.349000
11
176.738000
21
63.349000
0
LINE
8
Layer 2
10
176.738000
20
63.349000
11
176.884447
21
63.702553
0
LINE
8
Layer 2
10
176.884447
20
63.702553
11
177.238000
21
63.849000
0
LINE
8
Layer 2
10
177.238000
20
63.849000
11
177.238000
21
63.849000
0
LINE
8
Layer 2
10
158.188000
20
63.849000
11
171.188000
21
63.849000
0
LINE
8
Layer 2
10
171.188000
20
63.849000
11
171.541553
21
63.702553
0
LINE
8
Layer 2
10
171.541553
20
63.702553
11
171.688000
21
63.349000
0
LINE
8
Layer 2
10
171.688000
20
63.349000
11
171.688000
21
50.349000
0
LINE
8
Layer 2
10
171.688000
20
50.349000
11
171.541553
21
49.995447
0
LINE
8
Layer 2
10
171.541553
20
49.995447
11
171.188000
21
49.849000
0
LINE
8
Layer 2
10
171.188000
20
49.849000
11
158.188000
21
49.849000
0
LINE
8
Layer 2
10
158.188000
20
49.849000
11
157.834447
21
49.995447
0
LINE
8
Layer 2
10
157.834447
20
49.995447
11
157.688000
21
50.349000
0
LINE
8
Layer 2
10
157.688000
20
50.349000
11
157.688000
21
63.349000
0
LINE
8
Layer 2
10
157.688000
20
63.349000
11
157.834447
21
63.702553
0
LINE
8
Layer 2
10
157.834447
20
63.702553
11
158.188000
21
63.849000
0
LINE
8
Layer 2
10
158.188000
20
63.849000
11
158.188000
21
63.849000
0
LINE
8
Layer 2
10
139.138000
20
63.849000
11
152.138000
21
63.849000
0
LINE
8
Layer 2
10
152.138000
20
63.849000
11
152.491553
21
63.702553
0
LINE
8
Layer 2
10
152.491553
20
63.702553
11
152.638000
21
63.349000
0
LINE
8
Layer 2
10
152.638000
20
63.349000
11
152.638000
21
50.349000
0
LINE
8
Layer 2
10
152.638000
20
50.349000
11
152.491553
21
49.995447
0
LINE
8
Layer 2
10
152.491553
20
49.995447
11
152.138000
21
49.849000
0
LINE
8
Layer 2
10
152.138000
20
49.849000
11
139.138000
21
49.849000
0
LINE
8
Layer 2
10
139.138000
20
49.849000
11
138.784447
21
49.995447
0
LINE
8
Layer 2
10
138.784447
20
49.995447
11
138.638000
21
50.349000
0
LINE
8
Layer 2
10
138.638000
20
50.349000
11
138.638000
21
63.349000
0
LINE
8
Layer 2
10
138.638000
20
63.349000
11
138.784447
21
63.702553
0
LINE
8
Layer 2
10
138.784447
20
63.702553
11
139.138000
21
63.849000
0
LINE
8
Layer 2
10
139.138000
20
63.849000
11
139.138000
21
63.849000
0
LINE
8
Layer 2
10
120.088000
20
63.849000
11
133.088000
21
63.849000
0
LINE
8
Layer 2
10
133.088000
20
63.849000
11
133.441553
21
63.702553
0
LINE
8
Layer 2
10
133.441553
20
63.702553
11
133.588000
21
63.349000
0
LINE
8
Layer 2
10
133.588000
20
63.349000
11
133.588000
21
50.349000
0
LINE
8
Layer 2
10
133.588000
20
50.349000
11
133.441553
21
49.995447
0
LINE
8
Layer 2
10
133.441553
20
49.995447
11
133.088000
21
49.849000
0
LINE
8
Layer 2
10
133.088000
20
49.849000
11
120.088000
21
49.849000
0
LINE
8
Layer 2
10
120.088000
20
49.849000
11
119.734447
21
49.995447
0
LINE
8
Layer 2
10
119.734447
20
49.995447
11
119.588000
21
50.349000
0
LINE
8
Layer 2
10
119.588000
20
50.349000
11
119.588000
21
63.349000
0
LINE
8
Layer 2
10
119.588000
20
63.349000
11
119.734447
21
63.702553
0
LINE
8
Layer 2
10
119.734447
20
63.702553
11
120.088000
21
63.849000
0
LINE
8
Layer 2
10
120.088000
20
63.849000
11
120.088000
21
63.849000
0
LINE
8
Layer 2
10
101.038000
20
63.849000
11
114.038000
21
63.849000
0
LINE
8
Layer 2
10
114.038000
20
63.849000
11
114.391553
21
63.702553
0
LINE
8
Layer 2
10
114.391553
20
63.702553
11
114.538000
21
63.349000
0
LINE
8
Layer 2
10
114.538000
20
63.349000
11
114.538000
21
50.349000
0
LINE
8
Layer 2
10
114.538000
20
50.349000
11
114.391553
21
49.995447
0
LINE
8
Layer 2
10
114.391553
20
49.995447
11
114.038000
21
49.849000
0
LINE
8
Layer 2
10
114.038000
20
49.849000
11
101.038000
21
49.849000
0
LINE
8
Layer 2
10
101.038000
20
49.849000
11
100.684447
21
49.995447
0
LINE
8
Layer 2
10
100.684447
20
49.995447
11
100.538000
21
50.349000
0
LINE
8
Layer 2
10
100.538000
20
50.349000
11
100.538000
21
63.349000
0
LINE
8
Layer 2
10
100.538000
20
63.349000
11
100.684447
21
63.702553
0
LINE
8
Layer 2
10
100.684447
20
63.702553
11
101.038000
21
63.849000
0
LINE
8
Layer 2
10
101.038000
20
63.849000
11
101.038000
21
63.849000
0
LINE
8
Layer 2
10
81.988000
20
63.849000
11
94.988000
21
63.849000
0
LINE
8
Layer 2
10
94.988000
20
63.849000
11
95.341553
21
63.702553
0
LINE
8
Layer 2
10
95.341553
20
63.702553
11
95.488000
21
63.349000
0
LINE
8
Layer 2
10
95.488000
20
63.349000
11
95.488000
21
50.349000
0
LINE
8
Layer 2
10
95.488000
20
50.349000
11
95.341553
21
49.995447
0
LINE
8
Layer 2
10
95.341553
20
49.995447
11
94.988000
21
49.849000
0
LINE
8
Layer 2
10
94.988000
20
49.849000
11
81.988000
21
49.849000
0
LINE
8
Layer 2
10
81.988000
20
49.849000
11
81.634447
21
49.995447
0
LINE
8
Layer 2
10
81.634447
20
49.995447
11
81.488000
21
50.349000
0
LINE
8
Layer 2
10
81.488000
20
50.349000
11
81.488000
21
63.349000
0
LINE
8
Layer 2
10
81.488000
20
63.349000
11
81.634447
21
63.702553
0
LINE
8
Layer 2
10
81.634447
20
63.702553
11
81.988000
21
63.849000
0
LINE
8
Layer 2
10
81.988000
20
63.849000
11
81.988000
21
63.849000
0
LINE
8
Layer 2
10
43.888000
20
63.849000
11
56.888000
21
63.849000
0
LINE
8
Layer 2
10
56.888000
20
63.849000
11
57.241553
21
63.702553
0
LINE
8
Layer 2
10
57.241553
20
63.702553
11
57.388000
21
63.349000
0
LINE
8
Layer 2
10
57.388000
20
63.349000
11
57.388000
21
50.349000
0
LINE
8
Layer 2
10
57.388000
20
50.349000
11
57.241553
21
49.995447
0
LINE
8
Layer 2
10
57.241553
20
49.995447
11
56.888000
21
49.849000
0
LINE
8
Layer 2
10
56.888000
20
49.849000
11
43.888000
21
49.849000
0
LINE
8
Layer 2
10
43.888000
20
49.849000
11
43.534447
21
49.995447
0
LINE
8
Layer 2
10
43.534447
20
49.995447
11
43.388000
21
50.349000
0
LINE
8
Layer 2
10
43.388000
20
50.349000
11
43.388000
21
63.349000
0
LINE
8
Layer 2
10
43.388000
20
63.349000
11
43.534447
21
63.702553
0
LINE
8
Layer 2
10
43.534447
20
63.702553
11
43.888000
21
63.849000
0
LINE
8
Layer 2
10
43.888000
20
63.849000
11
43.888000
21
63.849000
0
LINE
8
Layer 2
10
339.163000
20
82.899000
11
352.163000
21
82.899000
0
LINE
8
Layer 2
10
352.163000
20
82.899000
11
352.516553
21
82.752553
0
LINE
8
Layer 2
10
352.516553
20
82.752553
11
352.663000
21
82.399000
0
LINE
8
Layer 2
10
352.663000
20
82.399000
11
352.663000
21
69.399000
0
LINE
8
Layer 2
10
352.663000
20
69.399000
11
352.516553
21
69.045447
0
LINE
8
Layer 2
10
352.516553
20
69.045447
11
352.163000
21
68.899000
0
LINE
8
Layer 2
10
352.163000
20
68.899000
11
339.163000
21
68.899000
0
LINE
8
Layer 2
10
339.163000
20
68.899000
11
338.809447
21
69.045447
0
LINE
8
Layer 2
10
338.809447
20
69.045447
11
338.663000
21
69.399000
0
LINE
8
Layer 2
10
338.663000
20
69.399000
11
338.663000
21
82.399000
0
LINE
8
Layer 2
10
338.663000
20
82.399000
11
338.809447
21
82.752553
0
LINE
8
Layer 2
10
338.809447
20
82.752553
11
339.163000
21
82.899000
0
LINE
8
Layer 2
10
339.163000
20
82.899000
11
339.163000
21
82.899000
0
LINE
8
Layer 2
10
320.113000
20
82.899000
11
333.113000
21
82.899000
0
LINE
8
Layer 2
10
333.113000
20
82.899000
11
333.466553
21
82.752553
0
LINE
8
Layer 2
10
333.466553
20
82.752553
11
333.613000
21
82.399000
0
LINE
8
Layer 2
10
333.613000
20
82.399000
11
333.613000
21
69.399000
0
LINE
8
Layer 2
10
333.613000
20
69.399000
11
333.466553
21
69.045447
0
LINE
8
Layer 2
10
333.466553
20
69.045447
11
333.113000
21
68.899000
0
LINE
8
Layer 2
10
333.113000
20
68.899000
11
320.113000
21
68.899000
0
LINE
8
Layer 2
10
320.113000
20
68.899000
11
319.759447
21
69.045447
0
LINE
8
Layer 2
10
319.759447
20
69.045447
11
319.613000
21
69.399000
0
LINE
8
Layer 2
10
319.613000
20
69.399000
11
319.613000
21
82.399000
0
LINE
8
Layer 2
10
319.613000
20
82.399000
11
319.759447
21
82.752553
0
LINE
8
Layer 2
10
319.759447
20
82.752553
11
320.113000
21
82.899000
0
LINE
8
Layer 2
10
320.113000
20
82.899000
11
320.113000
21
82.899000
0
LINE
8
Layer 2
10
301.063000
20
82.899000
11
314.063000
21
82.899000
0
LINE
8
Layer 2
10
314.063000
20
82.899000
11
314.416553
21
82.752553
0
LINE
8
Layer 2
10
314.416553
20
82.752553
11
314.563000
21
82.399000
0
LINE
8
Layer 2
10
314.563000
20
82.399000
11
314.563000
21
69.399000
0
LINE
8
Layer 2
10
314.563000
20
69.399000
11
314.416553
21
69.045447
0
LINE
8
Layer 2
10
314.416553
20
69.045447
11
314.063000
21
68.899000
0
LINE
8
Layer 2
10
314.063000
20
68.899000
11
301.063000
21
68.899000
0
LINE
8
Layer 2
10
301.063000
20
68.899000
11
300.709447
21
69.045447
0
LINE
8
Layer 2
10
300.709447
20
69.045447
11
300.563000
21
69.399000
0
LINE
8
Layer 2
10
300.563000
20
69.399000
11
300.563000
21
82.399000
0
LINE
8
Layer 2
10
300.563000
20
82.399000
11
300.709447
21
82.752553
0
LINE
8
Layer 2
10
300.709447
20
82.752553
11
301.063000
21
82.899000
0
LINE
8
Layer 2
10
301.063000
20
82.899000
11
301.063000
21
82.899000
0
LINE
8
Layer 2
10
248.675000
20
82.899000
11
261.675000
21
82.899000
0
LINE
8
Layer 2
10
261.675000
20
82.899000
11
262.028553
21
82.752553
0
LINE
8
Layer 2
10
262.028553
20
82.752553
11
262.175000
21
82.399000
0
LINE
8
Layer 2
10
262.175000
20
82.399000
11
262.175000
21
69.399000
0
LINE
8
Layer 2
10
262.175000
20
69.399000
11
262.028553
21
69.045447
0
LINE
8
Layer 2
10
262.028553
20
69.045447
11
261.675000
21
68.899000
0
LINE
8
Layer 2
10
261.675000
20
68.899000
11
248.675000
21
68.899000
0
LINE
8
Layer 2
10
248.675000
20
68.899000
11
248.321447
21
69.045447
0
LINE
8
Layer 2
10
248.321447
20
69.045447
11
248.175000
21
69.399000
0
LINE
8
Layer 2
10
248.175000
20
69.399000
11
248.175000
21
82.399000
0
LINE
8
Layer 2
10
248.175000
20
82.399000
11
248.321447
21
82.752553
0
LINE
8
Layer 2
10
248.321447
20
82.752553
11
248.675000
21
82.899000
0
LINE
8
Layer 2
10
248.675000
20
82.899000
11
248.675000
21
82.899000
0
LINE
8
Layer 2
10
229.625000
20
82.899000
11
242.625000
21
82.899000
0
LINE
8
Layer 2
10
242.625000
20
82.899000
11
242.978553
21
82.752553
0
LINE
8
Layer 2
10
242.978553
20
82.752553
11
243.125000
21
82.399000
0
LINE
8
Layer 2
10
243.125000
20
82.399000
11
243.125000
21
69.399000
0
LINE
8
Layer 2
10
243.125000
20
69.399000
11
242.978553
21
69.045447
0
LINE
8
Layer 2
10
242.978553
20
69.045447
11
242.625000
21
68.899000
0
LINE
8
Layer 2
10
242.625000
20
68.899000
11
229.625000
21
68.899000
0
LINE
8
Layer 2
10
229.625000
20
68.899000
11
229.271447
21
69.045447
0
LINE
8
Layer 2
10
229.271447
20
69.045447
11
229.125000
21
69.399000
0
LINE
8
Layer 2
10
229.125000
20
69.399000
11
229.125000
21
82.399000
0
LINE
8
Layer 2
10
229.125000
20
82.399000
11
229.271447
21
82.752553
0
LINE
8
Layer 2
10
229.271447
20
82.752553
11
229.625000
21
82.899000
0
LINE
8
Layer 2
10
229.625000
20
82.899000
11
229.625000
21
82.899000
0
LINE
8
Layer 2
10
210.575000
20
82.899000
11
223.575000
21
82.899000
0
LINE
8
Layer 2
10
223.575000
20
82.899000
11
223.928553
21
82.752553
0
LINE
8
Layer 2
10
223.928553
20
82.752553
11
224.075000
21
82.399000
0
LINE
8
Layer 2
10
224.075000
20
82.399000
11
224.075000
21
69.399000
0
LINE
8
Layer 2
10
224.075000
20
69.399000
11
223.928553
21
69.045447
0
LINE
8
Layer 2
10
223.928553
20
69.045447
11
223.575000
21
68.899000
0
LINE
8
Layer 2
10
223.575000
20
68.899000
11
210.575000
21
68.899000
0
LINE
8
Layer 2
10
210.575000
20
68.899000
11
210.221447
21
69.045447
0
LINE
8
Layer 2
10
210.221447
20
69.045447
11
210.075000
21
69.399000
0
LINE
8
Layer 2
10
210.075000
20
69.399000
11
210.075000
21
82.399000
0
LINE
8
Layer 2
10
210.075000
20
82.399000
11
210.221447
21
82.752553
0
LINE
8
Layer 2
10
210.221447
20
82.752553
11
210.575000
21
82.899000
0
LINE
8
Layer 2
10
210.575000
20
82.899000
11
210.575000
21
82.899000
0
LINE
8
Layer 2
10
191.525000
20
82.899000
11
204.525000
21
82.899000
0
LINE
8
Layer 2
10
204.525000
20
82.899000
11
204.878553
21
82.752553
0
LINE
8
Layer 2
10
204.878553
20
82.752553
11
205.025000
21
82.399000
0
LINE
8
Layer 2
10
205.025000
20
82.399000
11
205.025000
21
69.399000
0
LINE
8
Layer 2
10
205.025000
20
69.399000
11
204.878553
21
69.045447
0
LINE
8
Layer 2
10
204.878553
20
69.045447
11
204.525000
21
68.899000
0
LINE
8
Layer 2
10
204.525000
20
68.899000
11
191.525000
21
68.899000
0
LINE
8
Layer 2
10
191.525000
20
68.899000
11
191.171447
21
69.045447
0
LINE
8
Layer 2
10
191.171447
20
69.045447
11
191.025000
21
69.399000
0
LINE
8
Layer 2
10
191.025000
20
69.399000
11
191.025000
21
82.399000
0
LINE
8
Layer 2
10
191.025000
20
82.399000
11
191.171447
21
82.752553
0
LINE
8
Layer 2
10
191.171447
20
82.752553
11
191.525000
21
82.899000
0
LINE
8
Layer 2
10
191.525000
20
82.899000
11
191.525000
21
82.899000
0
LINE
8
Layer 2
10
172.475000
20
82.899000
11
185.475000
21
82.899000
0
LINE
8
Layer 2
10
185.475000
20
82.899000
11
185.828553
21
82.752553
0
LINE
8
Layer 2
10
185.828553
20
82.752553
11
185.975000
21
82.399000
0
LINE
8
Layer 2
10
185.975000
20
82.399000
11
185.975000
21
69.399000
0
LINE
8
Layer 2
10
185.975000
20
69.399000
11
185.828553
21
69.045447
0
LINE
8
Layer 2
10
185.828553
20
69.045447
11
185.475000
21
68.899000
0
LINE
8
Layer 2
10
185.475000
20
68.899000
11
172.475000
21
68.899000
0
LINE
8
Layer 2
10
172.475000
20
68.899000
11
172.121447
21
69.045447
0
LINE
8
Layer 2
10
172.121447
20
69.045447
11
171.975000
21
69.399000
0
LINE
8
Layer 2
10
171.975000
20
69.399000
11
171.975000
21
82.399000
0
LINE
8
Layer 2
10
171.975000
20
82.399000
11
172.121447
21
82.752553
0
LINE
8
Layer 2
10
172.121447
20
82.752553
11
172.475000
21
82.899000
0
LINE
8
Layer 2
10
172.475000
20
82.899000
11
172.475000
21
82.899000
0
LINE
8
Layer 2
10
153.425000
20
82.899000
11
166.425000
21
82.899000
0
LINE
8
Layer 2
10
166.425000
20
82.899000
11
166.778553
21
82.752553
0
LINE
8
Layer 2
10
166.778553
20
82.752553
11
166.925000
21
82.399000
0
LINE
8
Layer 2
10
166.925000
20
82.399000
11
166.925000
21
69.399000
0
LINE
8
Layer 2
10
166.925000
20
69.399000
11
166.778553
21
69.045447
0
LINE
8
Layer 2
10
166.778553
20
69.045447
11
166.425000
21
68.899000
0
LINE
8
Layer 2
10
166.425000
20
68.899000
11
153.425000
21
68.899000
0
LINE
8
Layer 2
10
153.425000
20
68.899000
11
153.071447
21
69.045447
0
LINE
8
Layer 2
10
153.071447
20
69.045447
11
152.925000
21
69.399000
0
LINE
8
Layer 2
10
152.925000
20
69.399000
11
152.925000
21
82.399000
0
LINE
8
Layer 2
10
152.925000
20
82.399000
11
153.071447
21
82.752553
0
LINE
8
Layer 2
10
153.071447
20
82.752553
11
153.425000
21
82.899000
0
LINE
8
Layer 2
10
153.425000
20
82.899000
11
153.425000
21
82.899000
0
LINE
8
Layer 2
10
134.375000
20
82.899000
11
147.375000
21
82.899000
0
LINE
8
Layer 2
10
147.375000
20
82.899000
11
147.728553
21
82.752553
0
LINE
8
Layer 2
10
147.728553
20
82.752553
11
147.875000
21
82.399000
0
LINE
8
Layer 2
10
147.875000
20
82.399000
11
147.875000
21
69.399000
0
LINE
8
Layer 2
10
147.875000
20
69.399000
11
147.728553
21
69.045447
0
LINE
8
Layer 2
10
147.728553
20
69.045447
11
147.375000
21
68.899000
0
LINE
8
Layer 2
10
147.375000
20
68.899000
11
134.375000
21
68.899000
0
LINE
8
Layer 2
10
134.375000
20
68.899000
11
134.021447
21
69.045447
0
LINE
8
Layer 2
10
134.021447
20
69.045447
11
133.875000
21
69.399000
0
LINE
8
Layer 2
10
133.875000
20
69.399000
11
133.875000
21
82.399000
0
LINE
8
Layer 2
10
133.875000
20
82.399000
11
134.021447
21
82.752553
0
LINE
8
Layer 2
10
134.021447
20
82.752553
11
134.375000
21
82.899000
0
LINE
8
Layer 2
10
134.375000
20
82.899000
11
134.375000
21
82.899000
0
LINE
8
Layer 2
10
115.325000
20
82.899000
11
128.325000
21
82.899000
0
LINE
8
Layer 2
10
128.325000
20
82.899000
11
128.678553
21
82.752553
0
LINE
8
Layer 2
10
128.678553
20
82.752553
11
128.825000
21
82.399000
0
LINE
8
Layer 2
10
128.825000
20
82.399000
11
128.825000
21
69.399000
0
LINE
8
Layer 2
10
128.825000
20
69.399000
11
128.678553
21
69.045447
0
LINE
8
Layer 2
10
128.678553
20
69.045447
11
128.325000
21
68.899000
0
LINE
8
Layer 2
10
128.325000
20
68.899000
11
115.325000
21
68.899000
0
LINE
8
Layer 2
10
115.325000
20
68.899000
11
114.971447
21
69.045447
0
LINE
8
Layer 2
10
114.971447
20
69.045447
11
114.825000
21
69.399000
0
LINE
8
Layer 2
10
114.825000
20
69.399000
11
114.825000
21
82.399000
0
LINE
8
Layer 2
10
114.825000
20
82.399000
11
114.971447
21
82.752553
0
LINE
8
Layer 2
10
114.971447
20
82.752553
11
115.325000
21
82.899000
0
LINE
8
Layer 2
10
115.325000
20
82.899000
11
115.325000
21
82.899000
0
LINE
8
Layer 2
10
96.275000
20
82.899000
11
109.275000
21
82.899000
0
LINE
8
Layer 2
10
109.275000
20
82.899000
11
109.628553
21
82.752553
0
LINE
8
Layer 2
10
109.628553
20
82.752553
11
109.775000
21
82.399000
0
LINE
8
Layer 2
10
109.775000
20
82.399000
11
109.775000
21
69.399000
0
LINE
8
Layer 2
10
109.775000
20
69.399000
11
109.628553
21
69.045447
0
LINE
8
Layer 2
10
109.628553
20
69.045447
11
109.275000
21
68.899000
0
LINE
8
Layer 2
10
109.275000
20
68.899000
11
96.275000
21
68.899000
0
LINE
8
Layer 2
10
96.275000
20
68.899000
11
95.921447
21
69.045447
0
LINE
8
Layer 2
10
95.921447
20
69.045447
11
95.775000
21
69.399000
0
LINE
8
Layer 2
10
95.775000
20
69.399000
11
95.775000
21
82.399000
0
LINE
8
Layer 2
10
95.775000
20
82.399000
11
95.921447
21
82.752553
0
LINE
8
Layer 2
10
95.921447
20
82.752553
11
96.275000
21
82.899000
0
LINE
8
Layer 2
10
96.275000
20
82.899000
11
96.275000
21
82.899000
0
LINE
8
Layer 2
10
77.225000
20
82.899000
11
90.225000
21
82.899000
0
LINE
8
Layer 2
10
90.225000
20
82.899000
11
90.578553
21
82.752553
0
LINE
8
Layer 2
10
90.578553
20
82.752553
11
90.725000
21
82.399000
0
LINE
8
Layer 2
10
90.725000
20
82.399000
11
90.725000
21
69.399000
0
LINE
8
Layer 2
10
90.725000
20
69.399000
11
90.578553
21
69.045447
0
LINE
8
Layer 2
10
90.578553
20
69.045447
11
90.225000
21
68.899000
0
LINE
8
Layer 2
10
90.225000
20
68.899000
11
77.225000
21
68.899000
0
LINE
8
Layer 2
10
77.225000
20
68.899000
11
76.871447
21
69.045447
0
LINE
8
Layer 2
10
76.871447
20
69.045447
11
76.725000
21
69.399000
0
LINE
8
Layer 2
10
76.725000
20
69.399000
11
76.725000
21
82.399000
0
LINE
8
Layer 2
10
76.725000
20
82.399000
11
76.871447
21
82.752553
0
LINE
8
Layer 2
10
76.871447
20
82.752553
11
77.225000
21
82.899000
0
LINE
8
Layer 2
10
77.225000
20
82.899000
11
77.225000
21
82.899000
0
LINE
8
Layer 2
10
58.175000
20
82.899000
11
71.175000
21
82.899000
0
LINE
8
Layer 2
10
71.175000
20
82.899000
11
71.528553
21
82.752553
0
LINE
8
Layer 2
10
71.528553
20
82.752553
11
71.675000
21
82.399000
0
LINE
8
Layer 2
10
71.675000
20
82.399000
11
71.675000
21
69.399000
0
LINE
8
Layer 2
10
71.675000
20
69.399000
11
71.528553
21
69.045447
0
LINE
8
Layer 2
10
71.528553
20
69.045447
11
71.175000
21
68.899000
0
LINE
8
Layer 2
10
71.175000
20
68.899000
11
58.175000
21
68.899000
0
LINE
8
Layer 2
10
58.175000
20
68.899000
11
57.821447
21
69.045447
0
LINE
8
Layer 2
10
57.821447
20
69.045447
11
57.675000
21
69.399000
0
LINE
8
Layer 2
10
57.675000
20
69.399000
11
57.675000
21
82.399000
0
LINE
8
Layer 2
10
57.675000
20
82.399000
11
57.821447
21
82.752553
0
LINE
8
Layer 2
10
57.821447
20
82.752553
11
58.175000
21
82.899000
0
LINE
8
Layer 2
10
58.175000
20
82.899000
11
58.175000
21
82.899000
0
LINE
8
Layer 2
10
39.125000
20
82.899000
11
52.125000
21
82.899000
0
LINE
8
Layer 2
10
52.125000
20
82.899000
11
52.478553
21
82.752553
0
LINE
8
Layer 2
10
52.478553
20
82.752553
11
52.625000
21
82.399000
0
LINE
8
Layer 2
10
52.625000
20
82.399000
11
52.625000
21
69.399000
0
LINE
8
Layer 2
10
52.625000
20
69.399000
11
52.478553
21
69.045447
0
LINE
8
Layer 2
10
52.478553
20
69.045447
11
52.125000
21
68.899000
0
LINE
8
Layer 2
10
52.125000
20
68.899000
11
39.125000
21
68.899000
0
LINE
8
Layer 2
10
39.125000
20
68.899000
11
38.771447
21
69.045447
0
LINE
8
Layer 2
10
38.771447
20
69.045447
11
38.625000
21
69.399000
0
LINE
8
Layer 2
10
38.625000
20
69.399000
11
38.625000
21
82.399000
0
LINE
8
Layer 2
10
38.625000
20
82.399000
11
38.771447
21
82.752553
0
LINE
8
Layer 2
10
38.771447
20
82.752553
11
39.125000
21
82.899000
0
LINE
8
Layer 2
10
39.125000
20
82.899000
11
39.125000
21
82.899000
0
LINE
8
Layer 2
10
15.313000
20
82.899000
11
28.313000
21
82.899000
0
LINE
8
Layer 2
10
28.313000
20
82.899000
11
28.666553
21
82.752553
0
LINE
8
Layer 2
10
28.666553
20
82.752553
11
28.813000
21
82.399000
0
LINE
8
Layer 2
10
28.813000
20
82.399000
11
28.813000
21
69.399000
0
LINE
8
Layer 2
10
28.813000
20
69.399000
11
28.666553
21
69.045447
0
LINE
8
Layer 2
10
28.666553
20
69.045447
11
28.313000
21
68.899000
0
LINE
8
Layer 2
10
28.313000
20
68.899000
11
15.313000
21
68.899000
0
LINE
8
Layer 2
10
15.313000
20
68.899000
11
14.959447
21
69.045447
0
LINE
8
Layer 2
10
14.959447
20
69.045447
11
14.813000
21
69.399000
0
LINE
8
Layer 2
10
14.813000
20
69.399000
11
14.813000
21
82.399000
0
LINE
8
Layer 2
10
14.813000
20
82.399000
11
14.959447
21
82.752553
0
LINE
8
Layer 2
10
14.959447
20
82.752553
11
15.313000
21
82.899000
0
LINE
8
Layer 2
10
15.313000
20
82.899000
11
15.313000
21
82.899000
0
LINE
8
Layer 2
10
339.163000
20
101.949000
11
352.163000
21
101.949000
0
LINE
8
Layer 2
10
352.163000
20
101.949000
11
352.516553
21
101.802553
0
LINE
8
Layer 2
10
352.516553
20
101.802553
11
352.663000
21
101.449000
0
LINE
8
Layer 2
10
352.663000
20
101.449000
11
352.663000
21
88.449000
0
LINE
8
Layer 2
10
352.663000
20
88.449000
11
352.516553
21
88.095447
0
LINE
8
Layer 2
10
352.516553
20
88.095447
11
352.163000
21
87.949000
0
LINE
8
Layer 2
10
352.163000
20
87.949000
11
339.163000
21
87.949000
0
LINE
8
Layer 2
10
339.163000
20
87.949000
11
338.809447
21
88.095447
0
LINE
8
Layer 2
10
338.809447
20
88.095447
11
338.663000
21
88.449000
0
LINE
8
Layer 2
10
338.663000
20
88.449000
11
338.663000
21
101.449000
0
LINE
8
Layer 2
10
338.663000
20
101.449000
11
338.809447
21
101.802553
0
LINE
8
Layer 2
10
338.809447
20
101.802553
11
339.163000
21
101.949000
0
LINE
8
Layer 2
10
339.163000
20
101.949000
11
339.163000
21
101.949000
0
LINE
8
Layer 2
10
320.113000
20
101.949000
11
333.113000
21
101.949000
0
LINE
8
Layer 2
10
333.113000
20
101.949000
11
333.466553
21
101.802553
0
LINE
8
Layer 2
10
333.466553
20
101.802553
11
333.613000
21
101.449000
0
LINE
8
Layer 2
10
333.613000
20
101.449000
11
333.613000
21
88.449000
0
LINE
8
Layer 2
10
333.613000
20
88.449000
11
333.466553
21
88.095447
0
LINE
8
Layer 2
10
333.466553
20
88.095447
11
333.113000
21
87.949000
0
LINE
8
Layer 2
10
333.113000
20
87.949000
11
320.113000
21
87.949000
0
LINE
8
Layer 2
10
320.113000
20
87.949000
11
319.759447
21
88.095447
0
LINE
8
Layer 2
10
319.759447
20
88.095447
11
319.613000
21
88.449000
0
LINE
8
Layer 2
10
319.613000
20
88.449000
11
319.613000
21
101.449000
0
LINE
8
Layer 2
10
319.613000
20
101.449000
11
319.759447
21
101.802553
0
LINE
8
Layer 2
10
319.759447
20
101.802553
11
320.113000
21
101.949000
0
LINE
8
Layer 2
10
320.113000
20
101.949000
11
320.113000
21
101.949000
0
LINE
8
Layer 2
10
301.063000
20
101.949000
11
314.063000
21
101.949000
0
LINE
8
Layer 2
10
314.063000
20
101.949000
11
314.416553
21
101.802553
0
LINE
8
Layer 2
10
314.416553
20
101.802553
11
314.563000
21
101.449000
0
LINE
8
Layer 2
10
314.563000
20
101.449000
11
314.563000
21
88.449000
0
LINE
8
Layer 2
10
314.563000
20
88.449000
11
314.416553
21
88.095447
0
LINE
8
Layer 2
10
314.416553
20
88.095447
11
314.063000
21
87.949000
0
LINE
8
Layer 2
10
314.063000
20
87.949000
11
301.063000
21
87.949000
0
LINE
8
Layer 2
10
301.063000
20
87.949000
11
300.709447
21
88.095447
0
LINE
8
Layer 2
10
300.709447
20
88.095447
11
300.563000
21
88.449000
0
LINE
8
Layer 2
10
300.563000
20
88.449000
11
300.563000
21
101.449000
0
LINE
8
Layer 2
10
300.563000
20
101.449000
11
300.709447
21
101.802553
0
LINE
8
Layer 2
10
300.709447
20
101.802553
11
301.063000
21
101.949000
0
LINE
8
Layer 2
10
301.063000
20
101.949000
11
301.063000
21
101.949000
0
LINE
8
Layer 2
10
239.150000
20
101.949000
11
252.150000
21
101.949000
0
LINE
8
Layer 2
10
252.150000
20
101.949000
11
252.503553
21
101.802553
0
LINE
8
Layer 2
10
252.503553
20
101.802553
11
252.650000
21
101.449000
0
LINE
8
Layer 2
10
252.650000
20
101.449000
11
252.650000
21
88.449000
0
LINE
8
Layer 2
10
252.650000
20
88.449000
11
252.503553
21
88.095447
0
LINE
8
Layer 2
10
252.503553
20
88.095447
11
252.150000
21
87.949000
0
LINE
8
Layer 2
10
252.150000
20
87.949000
11
239.150000
21
87.949000
0
LINE
8
Layer 2
10
239.150000
20
87.949000
11
238.796447
21
88.095447
0
LINE
8
Layer 2
10
238.796447
20
88.095447
11
238.650000
21
88.449000
0
LINE
8
Layer 2
10
238.650000
20
88.449000
11
238.650000
21
101.449000
0
LINE
8
Layer 2
10
238.650000
20
101.449000
11
238.796447
21
101.802553
0
LINE
8
Layer 2
10
238.796447
20
101.802553
11
239.150000
21
101.949000
0
LINE
8
Layer 2
10
239.150000
20
101.949000
11
239.150000
21
101.949000
0
LINE
8
Layer 2
10
220.100000
20
101.949000
11
233.100000
21
101.949000
0
LINE
8
Layer 2
10
233.100000
20
101.949000
11
233.453553
21
101.802553
0
LINE
8
Layer 2
10
233.453553
20
101.802553
11
233.600000
21
101.449000
0
LINE
8
Layer 2
10
233.600000
20
101.449000
11
233.600000
21
88.449000
0
LINE
8
Layer 2
10
233.600000
20
88.449000
11
233.453553
21
88.095447
0
LINE
8
Layer 2
10
233.453553
20
88.095447
11
233.100000
21
87.949000
0
LINE
8
Layer 2
10
233.100000
20
87.949000
11
220.100000
21
87.949000
0
LINE
8
Layer 2
10
220.100000
20
87.949000
11
219.746447
21
88.095447
0
LINE
8
Layer 2
10
219.746447
20
88.095447
11
219.600000
21
88.449000
0
LINE
8
Layer 2
10
219.600000
20
88.449000
11
219.600000
21
101.449000
0
LINE
8
Layer 2
10
219.600000
20
101.449000
11
219.746447
21
101.802553
0
LINE
8
Layer 2
10
219.746447
20
101.802553
11
220.100000
21
101.949000
0
LINE
8
Layer 2
10
220.100000
20
101.949000
11
220.100000
21
101.949000
0
LINE
8
Layer 2
10
201.050000
20
101.949000
11
214.050000
21
101.949000
0
LINE
8
Layer 2
10
214.050000
20
101.949000
11
214.403553
21
101.802553
0
LINE
8
Layer 2
10
214.403553
20
101.802553
11
214.550000
21
101.449000
0
LINE
8
Layer 2
10
214.550000
20
101.449000
11
214.550000
21
88.449000
0
LINE
8
Layer 2
10
214.550000
20
88.449000
11
214.403553
21
88.095447
0
LINE
8
Layer 2
10
214.403553
20
88.095447
11
214.050000
21
87.949000
0
LINE
8
Layer 2
10
214.050000
20
87.949000
11
201.050000
21
87.949000
0
LINE
8
Layer 2
10
201.050000
20
87.949000
11
200.696447
21
88.095447
0
LINE
8
Layer 2
10
200.696447
20
88.095447
11
200.550000
21
88.449000
0
LINE
8
Layer 2
10
200.550000
20
88.449000
11
200.550000
21
101.449000
0
LINE
8
Layer 2
10
200.550000
20
101.449000
11
200.696447
21
101.802553
0
LINE
8
Layer 2
10
200.696447
20
101.802553
11
201.050000
21
101.949000
0
LINE
8
Layer 2
10
201.050000
20
101.949000
11
201.050000
21
101.949000
0
LINE
8
Layer 2
10
182.000000
20
101.949000
11
195.000000
21
101.949000
0
LINE
8
Layer 2
10
195.000000
20
101.949000
11
195.353553
21
101.802553
0
LINE
8
Layer 2
10
195.353553
20
101.802553
11
195.500000
21
101.449000
0
LINE
8
Layer 2
10
195.500000
20
101.449000
11
195.500000
21
88.449000
0
LINE
8
Layer 2
10
195.500000
20
88.449000
11
195.353553
21
88.095447
0
LINE
8
Layer 2
10
195.353553
20
88.095447
11
195.000000
21
87.949000
0
LINE
8
Layer 2
10
195.000000
20
87.949000
11
182.000000
21
87.949000
0
LINE
8
Layer 2
10
182.000000
20
87.949000
11
181.646447
21
88.095447
0
LINE
8
Layer 2
10
181.646447
20
88.095447
11
181.500000
21
88.449000
0
LINE
8
Layer 2
10
181.500000
20
88.449000
11
181.500000
21
101.449000
0
LINE
8
Layer 2
10
181.500000
20
101.449000
11
181.646447
21
101.802553
0
LINE
8
Layer 2
10
181.646447
20
101.802553
11
182.000000
21
101.949000
0
LINE
8
Layer 2
10
182.000000
20
101.949000
11
182.000000
21
101.949000
0
LINE
8
Layer 2
10
162.950000
20
101.949000
11
175.950000
21
101.949000
0
LINE
8
Layer 2
10
175.950000
20
101.949000
11
176.303553
21
101.802553
0
LINE
8
Layer 2
10
176.303553
20
101.802553
11
176.450000
21
101.449000
0
LINE
8
Layer 2
10
176.450000
20
101.449000
11
176.450000
21
88.449000
0
LINE
8
Layer 2
10
176.450000
20
88.449000
11
176.303553
21
88.095447
0
LINE
8
Layer 2
10
176.303553
20
88.095447
11
175.950000
21
87.949000
0
LINE
8
Layer 2
10
175.950000
20
87.949000
11
162.950000
21
87.949000
0
LINE
8
Layer 2
10
162.950000
20
87.949000
11
162.596447
21
88.095447
0
LINE
8
Layer 2
10
162.596447
20
88.095447
11
162.450000
21
88.449000
0
LINE
8
Layer 2
10
162.450000
20
88.449000
11
162.450000
21
101.449000
0
LINE
8
Layer 2
10
162.450000
20
101.449000
11
162.596447
21
101.802553
0
LINE
8
Layer 2
10
162.596447
20
101.802553
11
162.950000
21
101.949000
0
LINE
8
Layer 2
10
162.950000
20
101.949000
11
162.950000
21
101.949000
0
LINE
8
Layer 2
10
143.900000
20
101.949000
11
156.900000
21
101.949000
0
LINE
8
Layer 2
10
156.900000
20
101.949000
11
157.253553
21
101.802553
0
LINE
8
Layer 2
10
157.253553
20
101.802553
11
157.400000
21
101.449000
0
LINE
8
Layer 2
10
157.400000
20
101.449000
11
157.400000
21
88.449000
0
LINE
8
Layer 2
10
157.400000
20
88.449000
11
157.253553
21
88.095447
0
LINE
8
Layer 2
10
157.253553
20
88.095447
11
156.900000
21
87.949000
0
LINE
8
Layer 2
10
156.900000
20
87.949000
11
143.900000
21
87.949000
0
LINE
8
Layer 2
10
143.900000
20
87.949000
11
143.546447
21
88.095447
0
LINE
8
Layer 2
10
143.546447
20
88.095447
11
143.400000
21
88.449000
0
LINE
8
Layer 2
10
143.400000
20
88.449000
11
143.400000
21
101.449000
0
LINE
8
Layer 2
10
143.400000
20
101.449000
11
143.546447
21
101.802553
0
LINE
8
Layer 2
10
143.546447
20
101.802553
11
143.900000
21
101.949000
0
LINE
8
Layer 2
10
143.900000
20
101.949000
11
143.900000
21
101.949000
0
LINE
8
Layer 2
10
105.800000
20
101.949000
11
118.800000
21
101.949000
0
LINE
8
Layer 2
10
118.800000
20
101.949000
11
119.153553
21
101.802553
0
LINE
8
Layer 2
10
119.153553
20
101.802553
11
119.300000
21
101.449000
0
LINE
8
Layer 2
10
119.300000
20
101.449000
11
119.300000
21
88.449000
0
LINE
8
Layer 2
10
119.300000
20
88.449000
11
119.153553
21
88.095447
0
LINE
8
Layer 2
10
119.153553
20
88.095447
11
118.800000
21
87.949000
0
LINE
8
Layer 2
10
118.800000
20
87.949000
11
105.800000
21
87.949000
0
LINE
8
Layer 2
10
105.800000
20
87.949000
11
105.446447
21
88.095447
0
LINE
8
Layer 2
10
105.446447
20
88.095447
11
105.300000
21
88.449000
0
LINE
8
Layer 2
10
105.300000
20
88.449000
11
105.300000
21
101.449000
0
LINE
8
Layer 2
10
105.300000
20
101.449000
11
105.446447
21
101.802553
0
LINE
8
Layer 2
10
105.446447
20
101.802553
11
105.800000
21
101.949000
0
LINE
8
Layer 2
10
105.800000
20
101.949000
11
105.800000
21
101.949000
0
LINE
8
Layer 2
10
86.750000
20
101.949000
11
99.750000
21
101.949000
0
LINE
8
Layer 2
10
99.750000
20
101.949000
11
100.103553
21
101.802553
0
LINE
8
Layer 2
10
100.103553
20
101.802553
11
100.250000
21
101.449000
0
LINE
8
Layer 2
10
100.250000
20
101.449000
11
100.250000
21
88.449000
0
LINE
8
Layer 2
10
100.250000
20
88.449000
11
100.103553
21
88.095447
0
LINE
8
Layer 2
10
100.103553
20
88.095447
11
99.750000
21
87.949000
0
LINE
8
Layer 2
10
99.750000
20
87.949000
11
86.750000
21
87.949000
0
LINE
8
Layer 2
10
86.750000
20
87.949000
11
86.396447
21
88.095447
0
LINE
8
Layer 2
10
86.396447
20
88.095447
11
86.250000
21
88.449000
0
LINE
8
Layer 2
10
86.250000
20
88.449000
11
86.250000
21
101.449000
0
LINE
8
Layer 2
10
86.250000
20
101.449000
11
86.396447
21
101.802553
0
LINE
8
Layer 2
10
86.396447
20
101.802553
11
86.750000
21
101.949000
0
LINE
8
Layer 2
10
86.750000
20
101.949000
11
86.750000
21
101.949000
0
LINE
8
Layer 2
10
67.700000
20
101.949000
11
80.700000
21
101.949000
0
LINE
8
Layer 2
10
80.700000
20
101.949000
11
81.053553
21
101.802553
0
LINE
8
Layer 2
10
81.053553
20
101.802553
11
81.200000
21
101.449000
0
LINE
8
Layer 2
10
81.200000
20
101.449000
11
81.200000
21
88.449000
0
LINE
8
Layer 2
10
81.200000
20
88.449000
11
81.053553
21
88.095447
0
LINE
8
Layer 2
10
81.053553
20
88.095447
11
80.700000
21
87.949000
0
LINE
8
Layer 2
10
80.700000
20
87.949000
11
67.700000
21
87.949000
0
LINE
8
Layer 2
10
67.700000
20
87.949000
11
67.346447
21
88.095447
0
LINE
8
Layer 2
10
67.346447
20
88.095447
11
67.200000
21
88.449000
0
LINE
8
Layer 2
10
67.200000
20
88.449000
11
67.200000
21
101.449000
0
LINE
8
Layer 2
10
67.200000
20
101.449000
11
67.346447
21
101.802553
0
LINE
8
Layer 2
10
67.346447
20
101.802553
11
67.700000
21
101.949000
0
LINE
8
Layer 2
10
67.700000
20
101.949000
11
67.700000
21
101.949000
0
LINE
8
Layer 2
10
48.650000
20
101.949000
11
61.650000
21
101.949000
0
LINE
8
Layer 2
10
61.650000
20
101.949000
11
62.003553
21
101.802553
0
LINE
8
Layer 2
10
62.003553
20
101.802553
11
62.150000
21
101.449000
0
LINE
8
Layer 2
10
62.150000
20
101.449000
11
62.150000
21
88.449000
0
LINE
8
Layer 2
10
62.150000
20
88.449000
11
62.003553
21
88.095447
0
LINE
8
Layer 2
10
62.003553
20
88.095447
11
61.650000
21
87.949000
0
LINE
8
Layer 2
10
61.650000
20
87.949000
11
48.650000
21
87.949000
0
LINE
8
Layer 2
10
48.650000
20
87.949000
11
48.296447
21
88.095447
0
LINE
8
Layer 2
10
48.296447
20
88.095447
11
48.150000
21
88.449000
0
LINE
8
Layer 2
10
48.150000
20
88.449000
11
48.150000
21
101.449000
0
LINE
8
Layer 2
10
48.150000
20
101.449000
11
48.296447
21
101.802553
0
LINE
8
Layer 2
10
48.296447
20
101.802553
11
48.650000
21
101.949000
0
LINE
8
Layer 2
10
48.650000
20
101.949000
11
48.650000
21
101.949000
0
LINE
8
Layer 2
10
29.600000
20
101.949000
11
42.600000
21
101.949000
0
LINE
8
Layer 2
10
42.600000
20
101.949000
11
42.953553
21
101.802553
0
LINE
8
Layer 2
10
42.953553
20
101.802553
11
43.100000
21
101.449000
0
LINE
8
Layer 2
10
43.100000
20
101.449000
11
43.100000
21
88.449000
0
LINE
8
Layer 2
10
43.100000
20
88.449000
11
42.953553
21
88.095447
0
LINE
8
Layer 2
10
42.953553
20
88.095447
11
42.600000
21
87.949000
0
LINE
8
Layer 2
10
42.600000
20
87.949000
11
29.600000
21
87.949000
0
LINE
8
Layer 2
10
29.600000
20
87.949000
11
29.246447
21
88.095447
0
LINE
8
Layer 2
10
29.246447
20
88.095447
11
29.100000
21
88.449000
0
LINE
8
Layer 2
10
29.100000
20
88.449000
11
29.100000
21
101.449000
0
LINE
8
Layer 2
10
29.100000
20
101.449000
11
29.246447
21
101.802553
0
LINE
8
Layer 2
10
29.246447
20
101.802553
11
29.600000
21
101.949000
0
LINE
8
Layer 2
10
29.600000
20
101.949000
11
29.600000
21
101.949000
0
LINE
8
Layer 2
10
166.450000
20
27.749000
11
172.450000
21
27.749000
0
LINE
8
Layer 2
10
172.450000
20
27.749000
11
172.803553
21
27.602553
0
LINE
8
Layer 2
10
172.803553
20
27.602553
11
172.950000
21
27.249000
0
LINE
8
Layer 2
10
172.950000
20
27.249000
11
172.950000
21
13.249000
0
LINE
8
Layer 2
10
172.950000
20
13.249000
11
172.803553
21
12.895447
0
LINE
8
Layer 2
10
172.803553
20
12.895447
11
172.450000
21
12.749000
0
LINE
8
Layer 2
10
172.450000
20
12.749000
11
166.450000
21
12.749000
0
LINE
8
Layer 2
10
166.450000
20
12.749000
11
166.096447
21
12.895447
0
LINE
8
Layer 2
10
166.096447
20
12.895447
11
165.950000
21
13.249000
0
LINE
8
Layer 2
10
165.950000
20
13.249000
11
165.950000
21
27.249000
0
LINE
8
Layer 2
10
165.950000
20
27.249000
11
166.096447
21
27.602553
0
LINE
8
Layer 2
10
166.096447
20
27.602553
11
166.450000
21
27.749000
0
LINE
8
Layer 2
10
166.450000
20
27.749000
11
166.450000
21
27.749000
0
LINE
8
Layer 2
10
105.800000
20
25.749000
11
118.800000
21
25.749000
0
LINE
8
Layer 2
10
118.800000
20
25.749000
11
119.153553
21
25.602553
0
LINE
8
Layer 2
10
119.153553
20
25.602553
11
119.300000
21
25.249000
0
LINE
8
Layer 2
10
119.300000
20
25.249000
11
119.300000
21
12.249000
0
LINE
8
Layer 2
10
119.300000
20
12.249000
11
119.153553
21
11.895447
0
LINE
8
Layer 2
10
119.153553
20
11.895447
11
118.800000
21
11.749000
0
LINE
8
Layer 2
10
118.800000
20
11.749000
11
105.800000
21
11.749000
0
LINE
8
Layer 2
10
105.800000
20
11.749000
11
105.446447
21
11.895447
0
LINE
8
Layer 2
10
105.446447
20
11.895447
11
105.300000
21
12.249000
0
LINE
8
Layer 2
10
105.300000
20
12.249000
11
105.300000
21
25.249000
0
LINE
8
Layer 2
10
105.300000
20
25.249000
11
105.446447
21
25.602553
0
LINE
8
Layer 2
10
105.446447
20
25.602553
11
105.800000
21
25.749000
0
LINE
8
Layer 2
10
105.800000
20
25.749000
11
105.800000
21
25.749000
 0 
ENDSEC
 0 
EOF