<?xml version="1.0" encoding="UTF-8" standalone="no"?>
<svg
   width="357.66299mm"
   height="135mm"
   viewBox="0 0 357.663 135"
   version="1.1"
   id="svg1"
   sodipodi:docname="plate-tkl-02.svg"
   inkscape:version="1.3.2 (091e20e, 2023-11-25, custom)"
   xmlns:inkscape="http://www.inkscape.org/namespaces/inkscape"
   xmlns:sodipodi="http://sodipodi.sourceforge.net/DTD/sodipodi-0.dtd"
   xmlns="http://www.w3.org/2000/svg"
   xmlns:svg="http://www.w3.org/2000/svg">
  <defs
     id="defs1" />
  <sodipodi:namedview
     id="namedview1"
     pagecolor="#505050"
     bordercolor="#eeeeee"
     borderopacity="1"
     inkscape:showpageshadow="0"
     inkscape:pageopacity="0"
     inkscape:pagecheckerboard="0"
     inkscape:deskcolor="#505050"
     inkscape:document-units="mm"
     showgrid="true"
     inkscape:zoom="0.50961125"
     inkscape:cx="483.70204"
     inkscape:cy="75.547783"
     inkscape:window-width="1920"
     inkscape:window-height="1017"
     inkscape:window-x="-8"
     inkscape:window-y="-8"
     inkscape:window-maximized="1"
     inkscape:current-layer="layer2"
     showguides="true">
    <inkscape:grid
       id="grid1"
       units="mm"
       originx="0"
       originy="0"
       spacingx="1"
       spacingy="1"
       empcolor="#0099e5"
       empopacity="0.30196078"
       color="#0099e5"
       opacity="0.14901961"
       empspacing="5"
       dotted="false"
       gridanglex="30"
       gridanglez="30"
       visible="true" />
  </sodipodi:namedview>
  <g
     inkscape:groupmode="layer"
     id="layer2"
     inkscape:label="Layer 2">
    <path
       id="rect118"
       style="fill:#383838;fill-opacity:1;stroke:none;stroke-width:0.1;stroke-dasharray:none;stroke-opacity:1"
       inkscape:label="edge-cut"
       d="m 13.524756,1.5249715 c -0.554,0 -0.999939,0.4459436 -0.999939,0.999939 v 3.9000203 c 0,0.034362 0.007,0.066802 0.01033,0.1002523 H 8.525061 c -0.5539952,0 -0.9999389,0.4459438 -0.9999389,0.999939 V 126.52509 c 0,0.554 0.4459437,0.99994 0.9999389,0.99994 h 17.009814 c -0.0033,0.0333 -0.0098,0.0656 -0.0098,0.0997 v 3.90002 c 0,0.554 0.445939,0.99994 0.999939,0.99994 h 37.900012 c 0.554,0 0.999939,-0.44594 0.999939,-0.99994 v -3.90002 c 0,-0.0342 -0.0065,-0.0665 -0.0098,-0.0997 H 223.53468 c -0.003,0.0333 -0.01,0.0656 -0.01,0.0997 v 3.90002 c 0,0.554 0.44594,0.99994 0.99994,0.99994 h 37.90001 c 0.554,0 0.99994,-0.44594 0.99994,-0.99994 v -3.90002 c 0,-0.0342 -0.007,-0.0665 -0.0103,-0.0997 h 46.12018 c -0.003,0.0333 -0.0103,0.0655 -0.0103,0.0997 v 3.90002 c 0,0.554 0.44646,0.99994 1.00046,0.99994 h 37.90001 c 0.554,0 0.99994,-0.44594 0.99994,-0.99994 v -3.90002 c 0,-0.0342 -0.007,-0.0665 -0.0103,-0.0997 h 4.71031 c 0.554,0 0.99994,-0.44594 0.99994,-0.99994 V 7.5251221 c 0,-0.5539953 -0.44594,-0.999939 -0.99994,-0.999939 h -4.71031 c 0.003,-0.03345 0.0103,-0.06589 0.0103,-0.1002523 V 2.5249105 c 0,-0.5539971 -0.44594,-0.999939 -0.99994,-0.999939 h -37.90001 c -0.554,0 -1.00046,0.4459418 -1.00046,0.999939 v 3.9000203 c 0,0.034362 0.007,0.066802 0.0103,0.1002523 h -59.1199 c 0.003,-0.033442 0.0103,-0.065899 0.0103,-0.1002523 V 2.5249105 c 0,-0.5539966 -0.44599,-0.999939 -0.99993,-0.999939 h -37.90002 c -0.554,0 -0.99994,0.4459424 -0.99994,0.999939 v 3.9000203 c 0,0.034353 0.006,0.06681 0.01,0.1002523 h -59.1199 c 0.003,-0.033442 0.01,-0.065899 0.01,-0.1002523 V 2.5249105 c 0,-0.553996 -0.44594,-0.999939 -0.99994,-0.999939 h -37.90002 c -0.55393,0 -0.99993,0.445943 -0.99993,0.999939 v 3.9000203 c 0,0.034353 0.006,0.06681 0.0103,0.1002523 H 52.414889 c 0.0034,-0.03345 0.01033,-0.06589 0.01033,-0.1002523 V 2.5249105 c 0,-0.5539954 -0.446456,-0.999939 -1.000456,-0.999939 z m -2.975012,8.5250615 h 13.00024 a 0.5,0.5 0 0 1 0.500228,0.499711 v 13.00024 a 0.5,0.5 0 0 1 -0.500228,0.500228 h -13.00024 a 0.5,0.5 0 0 1 -0.499711,-0.500228 v -13.00024 a 0.5,0.5 0 0 1 0.499711,-0.499711 z m 38.1,0 h 13.00024 a 0.5,0.5 0 0 1 0.500228,0.499711 v 13.00024 a 0.5,0.5 0 0 1 -0.500228,0.500228 h -13.00024 a 0.5,0.5 0 0 1 -0.499711,-0.500228 v -13.00024 a 0.5,0.5 0 0 1 0.499711,-0.499711 z m 19.05,0 h 13.00024 a 0.5,0.5 0 0 1 0.500228,0.499711 v 13.00024 a 0.5,0.5 0 0 1 -0.500228,0.500228 h -13.00024 a 0.5,0.5 0 0 1 -0.499711,-0.500228 v -13.00024 a 0.5,0.5 0 0 1 0.499711,-0.499711 z m 19.05,0 h 13.00024 a 0.5,0.5 0 0 1 0.500226,0.499711 v 13.00024 a 0.5,0.5 0 0 1 -0.500226,0.500228 h -13.00024 a 0.5,0.5 0 0 1 -0.499711,-0.500228 v -13.00024 a 0.5,0.5 0 0 1 0.499711,-0.499711 z m 19.049996,0 h 13.00024 a 0.5,0.5 0 0 1 0.50023,0.499711 v 13.00024 a 0.5,0.5 0 0 1 -0.50023,0.500228 h -13.00024 a 0.5,0.5 0 0 1 -0.49971,-0.500228 v -13.00024 a 0.5,0.5 0 0 1 0.49971,-0.499711 z m 28.575,0 h 13.00024 a 0.5,0.5 0 0 1 0.50023,0.499711 v 13.00024 a 0.5,0.5 0 0 1 -0.50023,0.500228 h -13.00024 a 0.5,0.5 0 0 1 -0.49971,-0.500228 v -13.00024 a 0.5,0.5 0 0 1 0.49971,-0.499711 z m 19.05,0 h 13.00024 a 0.5,0.5 0 0 1 0.50023,0.499711 v 13.00024 a 0.5,0.5 0 0 1 -0.50023,0.500228 h -13.00024 a 0.5,0.5 0 0 1 -0.49971,-0.500228 v -13.00024 a 0.5,0.5 0 0 1 0.49971,-0.499711 z m 19.05,0 h 13.00024 a 0.5,0.5 0 0 1 0.50023,0.499711 v 13.00024 a 0.5,0.5 0 0 1 -0.50023,0.500228 h -13.00024 a 0.5,0.5 0 0 1 -0.49971,-0.500228 v -13.00024 a 0.5,0.5 0 0 1 0.49971,-0.499711 z m 19.05,0 h 13.00024 a 0.5,0.5 0 0 1 0.50023,0.499711 v 13.00024 a 0.5,0.5 0 0 1 -0.50023,0.500228 h -13.00024 a 0.5,0.5 0 0 1 -0.49971,-0.500228 v -13.00024 a 0.5,0.5 0 0 1 0.49971,-0.499711 z m 28.575,0 h 13.00024 a 0.5,0.5 0 0 1 0.50023,0.499711 v 13.00024 a 0.5,0.5 0 0 1 -0.50023,0.500228 h -13.00024 a 0.5,0.5 0 0 1 -0.49971,-0.500228 v -13.00024 a 0.5,0.5 0 0 1 0.49971,-0.499711 z m 19.05,0 h 13.00024 a 0.5,0.5 0 0 1 0.50023,0.499711 v 13.00024 a 0.5,0.5 0 0 1 -0.50023,0.500228 h -13.00024 a 0.5,0.5 0 0 1 -0.49971,-0.500228 v -13.00024 a 0.5,0.5 0 0 1 0.49971,-0.499711 z m 19.05,0 h 13.00024 a 0.5,0.5 0 0 1 0.50023,0.499711 v 13.00024 a 0.5,0.5 0 0 1 -0.50023,0.500228 h -13.00024 a 0.5,0.5 0 0 1 -0.49971,-0.500228 v -13.00024 a 0.5,0.5 0 0 1 0.49971,-0.499711 z m 19.05,0 h 13.00024 a 0.5,0.5 0 0 1 0.50023,0.499711 v 13.00024 a 0.5,0.5 0 0 1 -0.50023,0.500228 h -13.00024 a 0.5,0.5 0 0 1 -0.49971,-0.500228 v -13.00024 a 0.5,0.5 0 0 1 0.49971,-0.499711 z m 23.81302,0 H 314.063 a 0.5,0.5 0 0 1 0.50023,0.499711 v 13.00024 a 0.5,0.5 0 0 1 -0.50023,0.500228 h -13.00024 a 0.5,0.5 0 0 1 -0.49971,-0.500228 v -13.00024 a 0.5,0.5 0 0 1 0.49971,-0.499711 z m 19.05,0 H 333.113 a 0.5,0.5 0 0 1 0.50023,0.499711 v 13.00024 a 0.5,0.5 0 0 1 -0.50023,0.500228 h -13.00024 a 0.5,0.5 0 0 1 -0.49971,-0.500228 v -13.00024 a 0.5,0.5 0 0 1 0.49971,-0.499711 z m 19.05,0 H 352.163 a 0.5,0.5 0 0 1 0.50023,0.499711 v 13.00024 a 0.5,0.5 0 0 1 -0.50023,0.500228 h -13.00024 a 0.5,0.5 0 0 1 -0.49971,-0.500228 v -13.00024 a 0.5,0.5 0 0 1 0.49971,-0.499711 z M 10.549744,33.863049 h 13.00024 a 0.5,0.5 0 0 1 0.500228,0.499711 V 47.363 a 0.5,0.5 0 0 1 -0.500228,0.500228 H 10.549744 A 0.5,0.5 0 0 1 10.050033,47.363 V 34.36276 a 0.5,0.5 0 0 1 0.499711,-0.499711 z m 19.05,0 h 13.00024 a 0.5,0.5 0 0 1 0.500228,0.499711 V 47.363 a 0.5,0.5 0 0 1 -0.500228,0.500228 H 29.599744 A 0.5,0.5 0 0 1 29.100033,47.363 V 34.36276 a 0.5,0.5 0 0 1 0.499711,-0.499711 z m 19.05,0 h 13.00024 a 0.5,0.5 0 0 1 0.500228,0.499711 V 47.363 a 0.5,0.5 0 0 1 -0.500228,0.500228 H 48.649744 A 0.5,0.5 0 0 1 48.150033,47.363 V 34.36276 a 0.5,0.5 0 0 1 0.499711,-0.499711 z m 19.05,0 h 13.00024 a 0.5,0.5 0 0 1 0.500228,0.499711 V 47.363 a 0.5,0.5 0 0 1 -0.500228,0.500228 H 67.699744 A 0.5,0.5 0 0 1 67.200033,47.363 V 34.36276 a 0.5,0.5 0 0 1 0.499711,-0.499711 z m 19.05,0 h 13.00024 a 0.5,0.5 0 0 1 0.500226,0.499711 V 47.363 a 0.5,0.5 0 0 1 -0.500226,0.500228 H 86.749744 A 0.5,0.5 0 0 1 86.250033,47.363 V 34.36276 a 0.5,0.5 0 0 1 0.499711,-0.499711 z m 19.049996,0 h 13.00024 a 0.5,0.5 0 0 1 0.50023,0.499711 V 47.363 a 0.5,0.5 0 0 1 -0.50023,0.500228 H 105.79974 A 0.5,0.5 0 0 1 105.30003,47.363 V 34.36276 a 0.5,0.5 0 0 1 0.49971,-0.499711 z m 19.05,0 h 13.00024 a 0.5,0.5 0 0 1 0.50023,0.499711 V 47.363 a 0.5,0.5 0 0 1 -0.50023,0.500228 H 124.84974 A 0.5,0.5 0 0 1 124.35003,47.363 V 34.36276 a 0.5,0.5 0 0 1 0.49971,-0.499711 z m 19.05,0 h 13.00024 a 0.5,0.5 0 0 1 0.50023,0.499711 V 47.363 a 0.5,0.5 0 0 1 -0.50023,0.500228 H 143.89974 A 0.5,0.5 0 0 1 143.40003,47.363 V 34.36276 a 0.5,0.5 0 0 1 0.49971,-0.499711 z m 19.05,0 h 13.00024 a 0.5,0.5 0 0 1 0.50023,0.499711 V 47.363 a 0.5,0.5 0 0 1 -0.50023,0.500228 H 162.94974 A 0.5,0.5 0 0 1 162.45003,47.363 V 34.36276 a 0.5,0.5 0 0 1 0.49971,-0.499711 z m 19.05,0 h 13.00024 a 0.5,0.5 0 0 1 0.50023,0.499711 V 47.363 a 0.5,0.5 0 0 1 -0.50023,0.500228 H 181.99974 A 0.5,0.5 0 0 1 181.50003,47.363 V 34.36276 a 0.5,0.5 0 0 1 0.49971,-0.499711 z m 19.05,0 h 13.00024 a 0.5,0.5 0 0 1 0.50023,0.499711 V 47.363 a 0.5,0.5 0 0 1 -0.50023,0.500228 H 201.04974 A 0.5,0.5 0 0 1 200.55003,47.363 V 34.36276 a 0.5,0.5 0 0 1 0.49971,-0.499711 z m 19.05,0 h 13.00024 a 0.5,0.5 0 0 1 0.50023,0.499711 V 47.363 a 0.5,0.5 0 0 1 -0.50023,0.500228 H 220.09974 A 0.5,0.5 0 0 1 219.60003,47.363 V 34.36276 a 0.5,0.5 0 0 1 0.49971,-0.499711 z m 19.05,0 h 13.00024 a 0.5,0.5 0 0 1 0.50023,0.499711 V 47.363 a 0.5,0.5 0 0 1 -0.50023,0.500228 H 239.14974 A 0.5,0.5 0 0 1 238.65003,47.363 V 34.36276 a 0.5,0.5 0 0 1 0.49971,-0.499711 z m 19.05,0 h 9.525 3.47524 6.04976 3.47524 9.525 a 0.5,0.5 0 0 1 0.50023,0.500228 v 13.00024 a 0.5,0.5 0 0 1 -0.50023,0.499711 h -0.58704 v 1.500167 a 0.5,0.5 0 0 1 -0.49971,0.499711 h -6.00015 a 0.5,0.5 0 0 1 -0.50023,-0.499711 v -1.500167 h -1.93787 -3.47524 -6.04976 -3.47524 -1.93786 v 1.500167 a 0.5,0.5 0 0 1 -0.49971,0.499711 h -6.00015 a 0.5,0.5 0 0 1 -0.50023,-0.499711 v -1.500167 h -0.58705 a 0.5,0.5 0 0 1 -0.49971,-0.499711 v -13.00024 a 0.5,0.5 0 0 1 0.49971,-0.500228 z m 42.86302,0 H 314.063 a 0.5,0.5 0 0 1 0.50023,0.499711 V 47.363 A 0.5,0.5 0 0 1 314.063,47.863228 H 301.06276 A 0.5,0.5 0 0 1 300.56305,47.363 V 34.36276 a 0.5,0.5 0 0 1 0.49971,-0.499711 z m 19.05,0 H 333.113 a 0.5,0.5 0 0 1 0.50023,0.499711 V 47.363 A 0.5,0.5 0 0 1 333.113,47.863228 H 320.11276 A 0.5,0.5 0 0 1 319.61305,47.363 V 34.36276 a 0.5,0.5 0 0 1 0.49971,-0.499711 z m 19.05,0 H 352.163 a 0.5,0.5 0 0 1 0.50023,0.499711 V 47.363 A 0.5,0.5 0 0 1 352.163,47.863228 H 339.16276 A 0.5,0.5 0 0 1 338.66305,47.363 V 34.36276 a 0.5,0.5 0 0 1 0.49971,-0.499711 z m -323.85,19.05 H 28.313 a 0.5,0.5 0 0 1 0.500228,0.499711 V 66.413 A 0.5,0.5 0 0 1 28.313,66.913228 H 15.31276 A 0.5,0.5 0 0 1 14.813049,66.413 V 53.41276 a 0.5,0.5 0 0 1 0.499711,-0.499711 z m 23.811984,0 h 13.00024 a 0.5,0.5 0 0 1 0.500228,0.499711 V 66.413 a 0.5,0.5 0 0 1 -0.500228,0.500228 H 39.124744 A 0.5,0.5 0 0 1 38.625033,66.413 V 53.41276 a 0.5,0.5 0 0 1 0.499711,-0.499711 z m 19.05,0 h 13.00024 a 0.5,0.5 0 0 1 0.500228,0.499711 V 66.413 a 0.5,0.5 0 0 1 -0.500228,0.500228 H 58.174744 A 0.5,0.5 0 0 1 57.675033,66.413 V 53.41276 a 0.5,0.5 0 0 1 0.499711,-0.499711 z m 19.05,0 h 13.00024 a 0.5,0.5 0 0 1 0.500228,0.499711 V 66.413 a 0.5,0.5 0 0 1 -0.500228,0.500228 H 77.224744 A 0.5,0.5 0 0 1 76.725033,66.413 V 53.41276 a 0.5,0.5 0 0 1 0.499711,-0.499711 z m 19.05,0 h 13.000236 a 0.5,0.5 0 0 1 0.50023,0.499711 V 66.413 a 0.5,0.5 0 0 1 -0.50023,0.500228 H 96.274744 A 0.5,0.5 0 0 1 95.775033,66.413 V 53.41276 a 0.5,0.5 0 0 1 0.499711,-0.499711 z m 19.049996,0 h 13.00024 a 0.5,0.5 0 0 1 0.50023,0.499711 V 66.413 a 0.5,0.5 0 0 1 -0.50023,0.500228 H 115.32474 A 0.5,0.5 0 0 1 114.82503,66.413 V 53.41276 a 0.5,0.5 0 0 1 0.49971,-0.499711 z m 19.05,0 h 13.00024 a 0.5,0.5 0 0 1 0.50023,0.499711 V 66.413 a 0.5,0.5 0 0 1 -0.50023,0.500228 H 134.37474 A 0.5,0.5 0 0 1 133.87503,66.413 V 53.41276 a 0.5,0.5 0 0 1 0.49971,-0.499711 z m 19.05,0 h 13.00024 a 0.5,0.5 0 0 1 0.50023,0.499711 V 66.413 a 0.5,0.5 0 0 1 -0.50023,0.500228 H 153.42474 A 0.5,0.5 0 0 1 152.92503,66.413 V 53.41276 a 0.5,0.5 0 0 1 0.49971,-0.499711 z m 19.05,0 h 13.00024 a 0.5,0.5 0 0 1 0.50023,0.499711 V 66.413 a 0.5,0.5 0 0 1 -0.50023,0.500228 H 172.47474 A 0.5,0.5 0 0 1 171.97503,66.413 V 53.41276 a 0.5,0.5 0 0 1 0.49971,-0.499711 z m 19.05,0 h 13.00024 a 0.5,0.5 0 0 1 0.50023,0.499711 V 66.413 a 0.5,0.5 0 0 1 -0.50023,0.500228 H 191.52474 A 0.5,0.5 0 0 1 191.02503,66.413 V 53.41276 a 0.5,0.5 0 0 1 0.49971,-0.499711 z m 19.05,0 h 13.00024 a 0.5,0.5 0 0 1 0.50023,0.499711 V 66.413 a 0.5,0.5 0 0 1 -0.50023,0.500228 H 210.57474 A 0.5,0.5 0 0 1 210.07503,66.413 V 53.41276 a 0.5,0.5 0 0 1 0.49971,-0.499711 z m 19.05,0 h 13.00024 a 0.5,0.5 0 0 1 0.50023,0.499711 V 66.413 a 0.5,0.5 0 0 1 -0.50023,0.500228 H 229.62474 A 0.5,0.5 0 0 1 229.12503,66.413 V 53.41276 a 0.5,0.5 0 0 1 0.49971,-0.499711 z m 19.05,0 h 13.00024 a 0.5,0.5 0 0 1 0.50023,0.499711 V 66.413 a 0.5,0.5 0 0 1 -0.50023,0.500228 H 248.67474 A 0.5,0.5 0 0 1 248.17503,66.413 V 53.41276 a 0.5,0.5 0 0 1 0.49971,-0.499711 z m 23.81302,0 H 285.488 c 0.27612,-1.27e-4 0.50007,0.223594 0.50023,0.499711 v 0.587045 h 3.8809 c 0.27612,1.6e-4 0.49984,0.22411 0.49971,0.500228 v 6.00015 c -1.6e-4,0.275916 -0.22379,0.499551 -0.49971,0.499711 h -3.8809 v 1.438155 h 1.88102 c 0.27592,1.6e-4 0.49955,0.223797 0.49971,0.499711 V 75.938 c 1.3e-4,0.276118 -0.22359,0.500068 -0.49971,0.500228 h -0.58704 v 1.437639 h 2.58692 c 0.27612,1.6e-4 0.49984,0.22411 0.49971,0.500228 v 6.00015 c -1.6e-4,0.275916 -0.22379,0.499551 -0.49971,0.499711 h -2.87735 c -0.0623,0.04465 -0.1341,0.07435 -0.2098,0.08682 h -6.00015 c -0.0757,-0.01247 -0.14751,-0.04217 -0.20981,-0.08682 h -1.72806 V 85.463 c 1.3e-4,0.276118 -0.22359,0.500068 -0.49971,0.500228 H 266.438 265.34401 253.43776 c -0.27612,-1.6e-4 -0.49984,-0.22411 -0.49971,-0.500228 V 72.46276 c 1.6e-4,-0.275914 0.22379,-0.499551 0.49971,-0.499711 h 2.96829 v -1.500167 c 1.6e-4,-0.275918 0.2238,-0.499557 0.49972,-0.499711 h 6.00015 c 0.27612,-1.22e-4 0.50006,0.223598 0.50022,0.499711 v 1.500167 h 1.93787 1.09399 7.93078 v -5.049821 h -1.88102 c -0.27612,-1.6e-4 -0.49984,-0.22411 -0.49971,-0.500228 V 53.41276 c 1.6e-4,-0.275914 0.22379,-0.499551 0.49971,-0.499711 z m 28.575,0 H 314.063 a 0.5,0.5 0 0 1 0.50023,0.499711 V 66.413 A 0.5,0.5 0 0 1 314.063,66.913228 H 301.06276 A 0.5,0.5 0 0 1 300.56305,66.413 V 53.41276 a 0.5,0.5 0 0 1 0.49971,-0.499711 z m 19.05,0 H 333.113 a 0.5,0.5 0 0 1 0.50023,0.499711 V 66.413 A 0.5,0.5 0 0 1 333.113,66.913228 H 320.11276 A 0.5,0.5 0 0 1 319.61305,66.413 V 53.41276 a 0.5,0.5 0 0 1 0.49971,-0.499711 z m 19.05,0 H 352.163 a 0.5,0.5 0 0 1 0.50023,0.499711 V 66.413 A 0.5,0.5 0 0 1 352.163,66.913228 H 339.16276 A 0.5,0.5 0 0 1 338.66305,66.413 V 53.41276 a 0.5,0.5 0 0 1 0.49971,-0.499711 z m -326.231766,19.05 h 4.763016 8.237224 4.763016 a 0.5,0.5 0 0 1 0.499712,0.499711 V 85.463 A 0.5,0.5 0 0 1 30.69425,85.963228 H 25.931234 17.69401 12.930994 A 0.5,0.5 0 0 1 12.430766,85.463 V 72.46276 a 0.5,0.5 0 0 1 0.500228,-0.499711 z m 30.956766,0 H 56.888 a 0.5,0.5 0 0 1 0.500228,0.499711 V 85.463 A 0.5,0.5 0 0 1 56.888,85.963228 H 43.88776 A 0.5,0.5 0 0 1 43.388049,85.463 V 72.46276 a 0.5,0.5 0 0 1 0.499711,-0.499711 z m 19.05,0 H 75.938 a 0.5,0.5 0 0 1 0.500228,0.499711 V 85.463 A 0.5,0.5 0 0 1 75.938,85.963228 H 62.93776 A 0.5,0.5 0 0 1 62.438049,85.463 V 72.46276 a 0.5,0.5 0 0 1 0.499711,-0.499711 z m 19.05,0 H 94.988 a 0.5,0.5 0 0 1 0.500228,0.499711 V 85.463 A 0.5,0.5 0 0 1 94.988,85.963228 H 81.98776 A 0.5,0.5 0 0 1 81.488049,85.463 V 72.46276 a 0.5,0.5 0 0 1 0.499711,-0.499711 z m 19.05,0 H 114.038 a 0.5,0.5 0 0 1 0.50023,0.499711 V 85.463 A 0.5,0.5 0 0 1 114.038,85.963228 H 101.03776 A 0.5,0.5 0 0 1 100.53805,85.463 V 72.46276 a 0.5,0.5 0 0 1 0.49971,-0.499711 z m 19.05,0 H 133.088 a 0.5,0.5 0 0 1 0.50023,0.499711 V 85.463 A 0.5,0.5 0 0 1 133.088,85.963228 H 120.08776 A 0.5,0.5 0 0 1 119.58805,85.463 V 72.46276 a 0.5,0.5 0 0 1 0.49971,-0.499711 z m 19.05,0 H 152.138 a 0.5,0.5 0 0 1 0.50023,0.499711 V 85.463 A 0.5,0.5 0 0 1 152.138,85.963228 H 139.13776 A 0.5,0.5 0 0 1 138.63805,85.463 V 72.46276 a 0.5,0.5 0 0 1 0.49971,-0.499711 z m 19.05,0 H 171.188 a 0.5,0.5 0 0 1 0.50023,0.499711 V 85.463 A 0.5,0.5 0 0 1 171.188,85.963228 H 158.18776 A 0.5,0.5 0 0 1 157.68805,85.463 V 72.46276 a 0.5,0.5 0 0 1 0.49971,-0.499711 z m 19.05,0 H 190.238 a 0.5,0.5 0 0 1 0.50023,0.499711 V 85.463 A 0.5,0.5 0 0 1 190.238,85.963228 H 177.23776 A 0.5,0.5 0 0 1 176.73805,85.463 V 72.46276 a 0.5,0.5 0 0 1 0.49971,-0.499711 z m 19.05,0 H 209.288 a 0.5,0.5 0 0 1 0.50023,0.499711 V 85.463 A 0.5,0.5 0 0 1 209.288,85.963228 H 196.28776 A 0.5,0.5 0 0 1 195.78805,85.463 V 72.46276 a 0.5,0.5 0 0 1 0.49971,-0.499711 z m 19.05,0 H 228.338 a 0.5,0.5 0 0 1 0.50023,0.499711 V 85.463 A 0.5,0.5 0 0 1 228.338,85.963228 H 215.33776 A 0.5,0.5 0 0 1 214.83805,85.463 V 72.46276 a 0.5,0.5 0 0 1 0.49971,-0.499711 z m 19.05,0 H 247.388 a 0.5,0.5 0 0 1 0.50023,0.499711 V 85.463 A 0.5,0.5 0 0 1 247.388,85.963228 H 234.38776 A 0.5,0.5 0 0 1 233.88805,85.463 V 72.46276 a 0.5,0.5 0 0 1 0.49971,-0.499711 z M 14.017749,89.013171 H 20.0179 a 0.5,0.5 0 0 1 0.500227,0.499711 v 1.500167 h 1.937867 3.47524 8.431526 1.093474 1.937866 v -1.500167 a 0.5,0.5 0 0 1 0.499711,-0.499711 h 6.000151 a 0.5,0.5 0 0 1 0.500227,0.499711 v 1.500167 H 47.363 a 0.5,0.5 0 0 1 0.500228,0.499711 V 104.513 A 0.5,0.5 0 0 1 47.363,105.01323 h -11.906766 -1.093474 -8.431526 -3.47524 -9.525 A 0.5,0.5 0 0 1 12.430766,104.513 V 91.51276 a 0.5,0.5 0 0 1 0.500228,-0.499711 h 0.587044 v -1.500167 a 0.5,0.5 0 0 1 0.499711,-0.499711 z M 53.41276,91.013049 H 66.413 a 0.5,0.5 0 0 1 0.500228,0.499711 V 104.513 A 0.5,0.5 0 0 1 66.413,105.01323 H 53.41276 A 0.5,0.5 0 0 1 52.913049,104.513 V 91.51276 a 0.5,0.5 0 0 1 0.499711,-0.499711 z m 19.05,0 H 85.463 a 0.5,0.5 0 0 1 0.500228,0.499711 V 104.513 A 0.5,0.5 0 0 1 85.463,105.01323 H 72.46276 A 0.5,0.5 0 0 1 71.963049,104.513 V 91.51276 a 0.5,0.5 0 0 1 0.499711,-0.499711 z m 19.05,0 H 104.513 a 0.5,0.5 0 0 1 0.50023,0.499711 V 104.513 a 0.5,0.5 0 0 1 -0.50023,0.50023 H 91.51276 A 0.5,0.5 0 0 1 91.013049,104.513 V 91.51276 a 0.5,0.5 0 0 1 0.499711,-0.499711 z m 19.05,0 H 123.563 a 0.5,0.5 0 0 1 0.50023,0.499711 V 104.513 a 0.5,0.5 0 0 1 -0.50023,0.50023 H 110.56276 A 0.5,0.5 0 0 1 110.06305,104.513 V 91.51276 a 0.5,0.5 0 0 1 0.49971,-0.499711 z m 19.05,0 H 142.613 a 0.5,0.5 0 0 1 0.50023,0.499711 V 104.513 a 0.5,0.5 0 0 1 -0.50023,0.50023 H 129.61276 A 0.5,0.5 0 0 1 129.11305,104.513 V 91.51276 a 0.5,0.5 0 0 1 0.49971,-0.499711 z m 19.05,0 H 161.663 a 0.5,0.5 0 0 1 0.50023,0.499711 V 104.513 a 0.5,0.5 0 0 1 -0.50023,0.50023 H 148.66276 A 0.5,0.5 0 0 1 148.16305,104.513 V 91.51276 a 0.5,0.5 0 0 1 0.49971,-0.499711 z m 19.05,0 H 180.713 a 0.5,0.5 0 0 1 0.50023,0.499711 V 104.513 a 0.5,0.5 0 0 1 -0.50023,0.50023 H 167.71276 A 0.5,0.5 0 0 1 167.21305,104.513 V 91.51276 a 0.5,0.5 0 0 1 0.49971,-0.499711 z m 19.05,0 H 199.763 a 0.5,0.5 0 0 1 0.50023,0.499711 V 104.513 a 0.5,0.5 0 0 1 -0.50023,0.50023 H 186.76276 A 0.5,0.5 0 0 1 186.26305,104.513 V 91.51276 a 0.5,0.5 0 0 1 0.49971,-0.499711 z m 19.05,0 H 218.813 a 0.5,0.5 0 0 1 0.50023,0.499711 V 104.513 a 0.5,0.5 0 0 1 -0.50023,0.50023 H 205.81276 A 0.5,0.5 0 0 1 205.31305,104.513 V 91.51276 a 0.5,0.5 0 0 1 0.49971,-0.499711 z m 19.05,0 H 237.863 a 0.5,0.5 0 0 1 0.50023,0.499711 V 104.513 a 0.5,0.5 0 0 1 -0.50023,0.50023 H 224.86276 A 0.5,0.5 0 0 1 224.36305,104.513 V 91.51276 a 0.5,0.5 0 0 1 0.49971,-0.499711 z m 26.19323,0 h 9.525 3.47524 8.54263 0.98237 3.66851 1.40302 11.59722 a 0.5,0.5 0 0 1 0.50023,0.499711 V 104.513 a 0.5,0.5 0 0 1 -0.50023,0.50023 h -7.73079 v 1.49965 a 0.5,0.5 0 0 1 -0.50023,0.50023 h -6.00015 a 0.5,0.5 0 0 1 -0.49971,-0.50023 v -1.49965 h -1.93787 -0.98237 -8.54263 -3.47524 -1.93786 v 1.49965 a 0.5,0.5 0 0 1 -0.50023,0.50023 h -6.00015 a 0.5,0.5 0 0 1 -0.49971,-0.50023 v -1.49965 h -0.58705 A 0.5,0.5 0 0 1 250.55577,104.513 V 91.51276 a 0.5,0.5 0 0 1 0.50022,-0.499711 z m 69.05677,0 H 333.113 a 0.5,0.5 0 0 1 0.50023,0.499711 V 104.513 a 0.5,0.5 0 0 1 -0.50023,0.50023 H 320.11276 A 0.5,0.5 0 0 1 319.61305,104.513 V 91.51276 a 0.5,0.5 0 0 1 0.49971,-0.499711 z M 85.494006,108.06317 h 4.755782 1.244369 4.755782 a 0.5,0.5 0 0 1 0.500228,0.49971 v 14.00018 a 0.5,0.5 0 0 1 -0.500228,0.49971 h -4.755782 -1.244369 -4.755782 a 0.5,0.5 0 0 1 -0.500228,-0.49971 v -14.00018 a 0.5,0.5 0 0 1 0.500228,-0.49971 z m 42.855784,0 h 6.00015 a 0.5,0.5 0 0 1 0.50023,0.49971 v 1.50017 h 9.04957 1.09451 11.90573 a 0.5,0.5 0 0 1 0.50023,0.49971 V 123.563 a 0.5,0.5 0 0 1 -0.50023,0.50023 h -11.90573 -1.09451 -11.90573 a 0.5,0.5 0 0 1 -0.50023,-0.50023 v -0.50023 h -3.14399 a 0.5,0.5 0 0 1 -0.49971,-0.49971 v -14.00018 a 0.5,0.5 0 0 1 0.49971,-0.49971 z m 38.1,0 h 6.00015 a 0.5,0.5 0 0 1 0.50023,0.49971 v 14.00018 a 0.5,0.5 0 0 1 -0.50023,0.49971 h -6.00015 a 0.5,0.5 0 0 1 -0.49971,-0.49971 v -14.00018 a 0.5,0.5 0 0 1 0.49971,-0.49971 z m 19.04431,0 h 6.00015 a 0.5,0.5 0 0 1 0.49972,0.49971 v 1.50017 h 3.00601 a 0.5,0.5 0 0 1 0.50023,0.49971 V 123.563 a 0.5,0.5 0 0 1 -0.50023,0.50023 h -13.00024 a 0.5,0.5 0 0 1 -0.49971,-0.50023 v -13.00024 a 0.5,0.5 0 0 1 0.49971,-0.49971 h 2.99414 v -1.50017 a 0.5,0.5 0 0 1 0.50022,-0.49971 z m 19.05569,0 h 6.00015 a 0.5,0.5 0 0 1 0.50023,0.49971 v 1.50017 h 5.38106 a 0.5,0.5 0 0 1 0.49971,0.49971 V 123.563 a 0.5,0.5 0 0 1 -0.49971,0.50023 h -13.00024 a 0.5,0.5 0 0 1 -0.50022,-0.50023 v -13.00024 a 0.5,0.5 0 0 1 0.50022,-0.49971 h 0.61909 v -1.50017 a 0.5,0.5 0 0 1 0.49971,-0.49971 z M 12.930994,110.06305 H 15.31276 25.931234 28.313 a 0.5,0.5 0 0 1 0.500228,0.49971 V 123.563 A 0.5,0.5 0 0 1 28.313,124.06323 H 25.931234 15.31276 12.930994 A 0.5,0.5 0 0 1 12.430766,123.563 v -13.00024 a 0.5,0.5 0 0 1 0.500228,-0.49971 z m 23.813016,0 h 2.380734 10.619506 2.380734 a 0.5,0.5 0 0 1 0.500228,0.49971 V 123.563 a 0.5,0.5 0 0 1 -0.500228,0.50023 H 49.74425 39.124744 36.74401 A 0.5,0.5 0 0 1 36.243783,123.563 v -13.00024 a 0.5,0.5 0 0 1 0.500227,-0.49971 z m 23.811984,0 H 62.93776 73.556234 75.938 a 0.5,0.5 0 0 1 0.500228,0.49971 V 123.563 A 0.5,0.5 0 0 1 75.938,124.06323 H 73.556234 62.93776 60.555994 A 0.5,0.5 0 0 1 60.055766,123.563 v -13.00024 a 0.5,0.5 0 0 1 0.500228,-0.49971 z m 45.243746,0 h 13.00024 a 0.5,0.5 0 0 1 0.50023,0.49971 V 123.563 a 0.5,0.5 0 0 1 -0.50023,0.50023 h -13.00024 a 0.5,0.5 0 0 1 -0.49971,-0.50023 v -13.00024 a 0.5,0.5 0 0 1 0.49971,-0.49971 z m 119.06302,0 h 2.38125 10.61899 2.38125 a 0.5,0.5 0 0 1 0.49971,0.49971 V 123.563 a 0.5,0.5 0 0 1 -0.49971,0.50023 h -2.38125 -10.61899 -2.38125 a 0.5,0.5 0 0 1 -0.49971,-0.50023 v -13.00024 a 0.5,0.5 0 0 1 0.49971,-0.49971 z m 23.81198,0 h 2.38125 10.61899 2.38125 a 0.5,0.5 0 0 1 0.49971,0.49971 V 123.563 a 0.5,0.5 0 0 1 -0.49971,0.50023 h -2.38125 -10.61899 -2.38125 a 0.5,0.5 0 0 1 -0.49971,-0.50023 v -13.00024 a 0.5,0.5 0 0 1 0.49971,-0.49971 z m 23.81302,0 h 2.38125 10.61899 2.38125 a 0.5,0.5 0 0 1 0.49971,0.49971 V 123.563 a 0.5,0.5 0 0 1 -0.49971,0.50023 h -2.38125 -10.61899 -2.38125 a 0.5,0.5 0 0 1 -0.49971,-0.50023 v -13.00024 a 0.5,0.5 0 0 1 0.49971,-0.49971 z m 28.575,0 H 314.063 a 0.5,0.5 0 0 1 0.50023,0.49971 V 123.563 a 0.5,0.5 0 0 1 -0.50023,0.50023 h -13.00024 a 0.5,0.5 0 0 1 -0.49971,-0.50023 v -13.00024 a 0.5,0.5 0 0 1 0.49971,-0.49971 z m 19.05,0 H 333.113 a 0.5,0.5 0 0 1 0.50023,0.49971 V 123.563 a 0.5,0.5 0 0 1 -0.50023,0.50023 h -13.00024 a 0.5,0.5 0 0 1 -0.49971,-0.50023 v -13.00024 a 0.5,0.5 0 0 1 0.49971,-0.49971 z m 19.05,0 H 352.163 a 0.5,0.5 0 0 1 0.50023,0.49971 V 123.563 a 0.5,0.5 0 0 1 -0.50023,0.50023 h -13.00024 a 0.5,0.5 0 0 1 -0.49971,-0.50023 v -13.00024 a 0.5,0.5 0 0 1 0.49971,-0.49971 z" />
  </g>
</svg>
