<?xml version="1.0" encoding="UTF-8" standalone="no"?>
<svg
   width="357.66299mm"
   height="112mm"
   viewBox="0 0 357.663 112"
   version="1.1"
   id="svg1"
   sodipodi:docname="plate-frl-01.svg"
   inkscape:version="1.3.2 (091e20e, 2023-11-25, custom)"
   xmlns:inkscape="http://www.inkscape.org/namespaces/inkscape"
   xmlns:sodipodi="http://sodipodi.sourceforge.net/DTD/sodipodi-0.dtd"
   xmlns="http://www.w3.org/2000/svg"
   xmlns:svg="http://www.w3.org/2000/svg">
  <defs
     id="defs1" />
  <sodipodi:namedview
     id="namedview1"
     pagecolor="#505050"
     bordercolor="#eeeeee"
     borderopacity="1"
     inkscape:showpageshadow="0"
     inkscape:pageopacity="0"
     inkscape:pagecheckerboard="0"
     inkscape:deskcolor="#505050"
     inkscape:document-units="mm"
     showgrid="true"
     inkscape:zoom="0.50961125"
     inkscape:cx="628.91076"
     inkscape:cy="10.79254"
     inkscape:window-width="1920"
     inkscape:window-height="1017"
     inkscape:window-x="-8"
     inkscape:window-y="-8"
     inkscape:window-maximized="1"
     inkscape:current-layer="layer2"
     showguides="true">
    <inkscape:grid
       id="grid1"
       units="mm"
       originx="0"
       originy="0"
       spacingx="1"
       spacingy="1"
       empcolor="#0099e5"
       empopacity="0.30196078"
       color="#0099e5"
       opacity="0.14901961"
       empspacing="5"
       dotted="false"
       gridanglex="30"
       gridanglez="30"
       visible="true" />
  </sodipodi:namedview>
  <g
     inkscape:groupmode="layer"
     id="layer2"
     inkscape:label="Layer 2"
     transform="translate(0,-23.812)"
     sodipodi:insensitive="true">
    <path
       id="rect118"
       style="fill:#383838;fill-opacity:1;stroke:none;stroke-width:0.1;stroke-dasharray:none;stroke-opacity:1"
       inkscape:label="edge-cut"
       d="M 13.524756 1.5249715 C 12.970756 1.5249715 12.524817 1.9709436 12.524817 2.5249105 L 12.524817 6.4249308 C 12.524817 6.4592928 12.531822 6.4917327 12.535152 6.5251831 L 8.525061 6.5251831 C 7.9711 6.5251831 7.5251221 6.9711554 7.5251221 7.5251221 L 7.5251221 102.78339 C 7.5251221 103.33739 7.9711 103.78333 8.525061 103.78333 L 25.534875 103.78333 C 25.531575 103.81663 25.525057 103.84896 25.525057 103.88306 L 25.525057 107.78309 C 25.525057 108.33651 25.970996 108.78302 26.524996 108.78302 L 64.425008 108.78302 C 64.979008 108.78302 65.424947 108.33651 65.424947 107.78309 L 65.424947 103.88306 C 65.424947 103.84886 65.418429 103.81653 65.415129 103.78333 L 223.53468 103.78333 C 223.53168 103.81663 223.52486 103.84896 223.52486 103.88306 L 223.52486 107.78309 C 223.52486 108.33651 223.9708 108.78302 224.5248 108.78302 L 262.42481 108.78302 C 262.97881 108.78302 263.42475 108.33651 263.42475 107.78309 L 263.42475 103.88306 C 263.42475 103.84886 263.41741 103.81653 263.41441 103.78333 L 309.53459 103.78333 C 309.53159 103.81663 309.52426 103.84886 309.52426 103.88306 L 309.52426 107.78309 C 309.52426 108.33651 309.97072 108.78302 310.52472 108.78302 L 348.42473 108.78302 C 348.97873 108.78302 349.42467 108.33651 349.42467 107.78309 L 349.42467 103.88306 C 349.42467 103.84886 349.41763 103.81653 349.41433 103.78333 L 354.12464 103.78333 C 354.67864 103.78333 355.12458 103.33739 355.12458 102.78339 L 355.12458 7.5251221 C 355.12458 6.9711553 354.67864 6.5251831 354.12464 6.5251831 L 349.41433 6.5251831 C 349.41733 6.4917331 349.42467 6.4592931 349.42467 6.4249308 L 349.42467 2.5249105 C 349.42467 1.9709419 348.97873 1.5249715 348.42473 1.5249715 L 310.52472 1.5249715 C 309.97072 1.5249715 309.52426 1.9709418 309.52426 2.5249105 L 309.52426 6.4249308 C 309.52426 6.4592928 309.53129 6.4917327 309.53459 6.5251831 L 250.41469 6.5251831 C 250.41769 6.4917411 250.42502 6.4592842 250.42502 6.4249308 L 250.42502 2.5249105 C 250.42502 1.9709424 249.97846 1.5249715 249.42509 1.5249715 L 211.52507 1.5249715 C 210.97107 1.5249715 210.52513 1.9709424 210.52513 2.5249105 L 210.52513 6.4249308 C 210.52513 6.4592838 210.53095 6.4917407 210.53495 6.5251831 L 151.41505 6.5251831 C 151.41805 6.4917411 151.42487 6.4592842 151.42487 6.4249308 L 151.42487 2.5249105 C 151.42487 1.970943 150.97893 1.5249715 150.42493 1.5249715 L 112.52491 1.5249715 C 111.97155 1.5249715 111.52498 1.970943 111.52498 2.5249105 L 111.52498 6.4249308 C 111.52498 6.4592838 111.53131 6.4917407 111.53531 6.5251831 L 52.414889 6.5251831 C 52.418289 6.4917331 52.425224 6.4592932 52.425224 6.4249308 L 52.425224 2.5249105 C 52.425224 1.9709436 51.978768 1.5249715 51.424768 1.5249715 L 13.524756 1.5249715 z M 10.549744 10.051066 L 23.549984 10.051066 A 0.5 0.5 0 0 1 24.050212 10.550777 L 24.050212 23.551017 A 0.5 0.5 0 0 1 23.549984 24.051245 L 10.549744 24.051245 A 0.5 0.5 0 0 1 10.050033 23.551017 L 10.050033 10.550777 A 0.5 0.5 0 0 1 10.549744 10.051066 z M 29.599744 10.051066 L 42.599984 10.051066 A 0.5 0.5 0 0 1 43.100212 10.550777 L 43.100212 23.551017 A 0.5 0.5 0 0 1 42.599984 24.051245 L 29.599744 24.051245 A 0.5 0.5 0 0 1 29.100033 23.551017 L 29.100033 10.550777 A 0.5 0.5 0 0 1 29.599744 10.051066 z M 48.649744 10.051066 L 61.649984 10.051066 A 0.5 0.5 0 0 1 62.150212 10.550777 L 62.150212 23.551017 A 0.5 0.5 0 0 1 61.649984 24.051245 L 48.649744 24.051245 A 0.5 0.5 0 0 1 48.150033 23.551017 L 48.150033 10.550777 A 0.5 0.5 0 0 1 48.649744 10.051066 z M 67.699744 10.051066 L 80.699984 10.051066 A 0.5 0.5 0 0 1 81.200212 10.550777 L 81.200212 23.551017 A 0.5 0.5 0 0 1 80.699984 24.051245 L 67.699744 24.051245 A 0.5 0.5 0 0 1 67.200033 23.551017 L 67.200033 10.550777 A 0.5 0.5 0 0 1 67.699744 10.051066 z M 86.749744 10.051066 L 99.749984 10.051066 A 0.5 0.5 0 0 1 100.25021 10.550777 L 100.25021 23.551017 A 0.5 0.5 0 0 1 99.749984 24.051245 L 86.749744 24.051245 A 0.5 0.5 0 0 1 86.250033 23.551017 L 86.250033 10.550777 A 0.5 0.5 0 0 1 86.749744 10.051066 z M 105.79974 10.051066 L 118.79998 10.051066 A 0.5 0.5 0 0 1 119.30021 10.550777 L 119.30021 23.551017 A 0.5 0.5 0 0 1 118.79998 24.051245 L 105.79974 24.051245 A 0.5 0.5 0 0 1 105.30003 23.551017 L 105.30003 10.550777 A 0.5 0.5 0 0 1 105.79974 10.051066 z M 124.84974 10.051066 L 137.84998 10.051066 A 0.5 0.5 0 0 1 138.35021 10.550777 L 138.35021 23.551017 A 0.5 0.5 0 0 1 137.84998 24.051245 L 124.84974 24.051245 A 0.5 0.5 0 0 1 124.35003 23.551017 L 124.35003 10.550777 A 0.5 0.5 0 0 1 124.84974 10.051066 z M 143.89974 10.051066 L 156.89998 10.051066 A 0.5 0.5 0 0 1 157.40021 10.550777 L 157.40021 23.551017 A 0.5 0.5 0 0 1 156.89998 24.051245 L 143.89974 24.051245 A 0.5 0.5 0 0 1 143.40003 23.551017 L 143.40003 10.550777 A 0.5 0.5 0 0 1 143.89974 10.051066 z M 162.94974 10.051066 L 175.94998 10.051066 A 0.5 0.5 0 0 1 176.45021 10.550777 L 176.45021 23.551017 A 0.5 0.5 0 0 1 175.94998 24.051245 L 162.94974 24.051245 A 0.5 0.5 0 0 1 162.45003 23.551017 L 162.45003 10.550777 A 0.5 0.5 0 0 1 162.94974 10.051066 z M 181.99974 10.051066 L 194.99998 10.051066 A 0.5 0.5 0 0 1 195.50021 10.550777 L 195.50021 23.551017 A 0.5 0.5 0 0 1 194.99998 24.051245 L 181.99974 24.051245 A 0.5 0.5 0 0 1 181.50003 23.551017 L 181.50003 10.550777 A 0.5 0.5 0 0 1 181.99974 10.051066 z M 201.04974 10.051066 L 214.04998 10.051066 A 0.5 0.5 0 0 1 214.55021 10.550777 L 214.55021 23.551017 A 0.5 0.5 0 0 1 214.04998 24.051245 L 201.04974 24.051245 A 0.5 0.5 0 0 1 200.55003 23.551017 L 200.55003 10.550777 A 0.5 0.5 0 0 1 201.04974 10.051066 z M 220.09974 10.051066 L 233.09998 10.051066 A 0.5 0.5 0 0 1 233.60021 10.550777 L 233.60021 23.551017 A 0.5 0.5 0 0 1 233.09998 24.051245 L 220.09974 24.051245 A 0.5 0.5 0 0 1 219.60003 23.551017 L 219.60003 10.550777 A 0.5 0.5 0 0 1 220.09974 10.051066 z M 239.14974 10.051066 L 252.14998 10.051066 A 0.5 0.5 0 0 1 252.65021 10.550777 L 252.65021 23.551017 A 0.5 0.5 0 0 1 252.14998 24.051245 L 239.14974 24.051245 A 0.5 0.5 0 0 1 238.65003 23.551017 L 238.65003 10.550777 A 0.5 0.5 0 0 1 239.14974 10.051066 z M 258.19974 10.051066 L 267.72474 10.051066 L 271.19998 10.051066 L 277.24974 10.051066 L 280.72498 10.051066 L 290.24998 10.051066 A 0.5 0.5 0 0 1 290.75021 10.551294 L 290.75021 23.551534 A 0.5 0.5 0 0 1 290.24998 24.051245 L 289.66294 24.051245 L 289.66294 25.551412 A 0.5 0.5 0 0 1 289.16323 26.051123 L 283.16308 26.051123 A 0.5 0.5 0 0 1 282.66285 25.551412 L 282.66285 24.051245 L 280.72498 24.051245 L 277.24974 24.051245 L 271.19998 24.051245 L 267.72474 24.051245 L 265.78688 24.051245 L 265.78688 25.551412 A 0.5 0.5 0 0 1 265.28717 26.051123 L 259.28702 26.051123 A 0.5 0.5 0 0 1 258.78679 25.551412 L 258.78679 24.051245 L 258.19974 24.051245 A 0.5 0.5 0 0 1 257.70003 23.551534 L 257.70003 10.551294 A 0.5 0.5 0 0 1 258.19974 10.051066 z M 301.06276 10.051066 L 314.063 10.051066 A 0.5 0.5 0 0 1 314.56323 10.550777 L 314.56323 23.551017 A 0.5 0.5 0 0 1 314.063 24.051245 L 301.06276 24.051245 A 0.5 0.5 0 0 1 300.56305 23.551017 L 300.56305 10.550777 A 0.5 0.5 0 0 1 301.06276 10.051066 z M 320.11276 10.051066 L 333.113 10.051066 A 0.5 0.5 0 0 1 333.61323 10.550777 L 333.61323 23.551017 A 0.5 0.5 0 0 1 333.113 24.051245 L 320.11276 24.051245 A 0.5 0.5 0 0 1 319.61305 23.551017 L 319.61305 10.550777 A 0.5 0.5 0 0 1 320.11276 10.051066 z M 339.16276 10.051066 L 352.163 10.051066 A 0.5 0.5 0 0 1 352.66323 10.550777 L 352.66323 23.551017 A 0.5 0.5 0 0 1 352.163 24.051245 L 339.16276 24.051245 A 0.5 0.5 0 0 1 338.66305 23.551017 L 338.66305 10.550777 A 0.5 0.5 0 0 1 339.16276 10.051066 z M 15.31276 29.101066 L 28.313 29.101066 A 0.5 0.5 0 0 1 28.813228 29.600777 L 28.813228 42.601017 A 0.5 0.5 0 0 1 28.313 43.101245 L 15.31276 43.101245 A 0.5 0.5 0 0 1 14.813049 42.601017 L 14.813049 29.600777 A 0.5 0.5 0 0 1 15.31276 29.101066 z M 39.124744 29.101066 L 52.124984 29.101066 A 0.5 0.5 0 0 1 52.625212 29.600777 L 52.625212 42.601017 A 0.5 0.5 0 0 1 52.124984 43.101245 L 39.124744 43.101245 A 0.5 0.5 0 0 1 38.625033 42.601017 L 38.625033 29.600777 A 0.5 0.5 0 0 1 39.124744 29.101066 z M 58.174744 29.101066 L 71.174984 29.101066 A 0.5 0.5 0 0 1 71.675212 29.600777 L 71.675212 42.601017 A 0.5 0.5 0 0 1 71.174984 43.101245 L 58.174744 43.101245 A 0.5 0.5 0 0 1 57.675033 42.601017 L 57.675033 29.600777 A 0.5 0.5 0 0 1 58.174744 29.101066 z M 77.224744 29.101066 L 90.224984 29.101066 A 0.5 0.5 0 0 1 90.725212 29.600777 L 90.725212 42.601017 A 0.5 0.5 0 0 1 90.224984 43.101245 L 77.224744 43.101245 A 0.5 0.5 0 0 1 76.725033 42.601017 L 76.725033 29.600777 A 0.5 0.5 0 0 1 77.224744 29.101066 z M 96.274744 29.101066 L 109.27498 29.101066 A 0.5 0.5 0 0 1 109.77521 29.600777 L 109.77521 42.601017 A 0.5 0.5 0 0 1 109.27498 43.101245 L 96.274744 43.101245 A 0.5 0.5 0 0 1 95.775033 42.601017 L 95.775033 29.600777 A 0.5 0.5 0 0 1 96.274744 29.101066 z M 115.32474 29.101066 L 128.32498 29.101066 A 0.5 0.5 0 0 1 128.82521 29.600777 L 128.82521 42.601017 A 0.5 0.5 0 0 1 128.32498 43.101245 L 115.32474 43.101245 A 0.5 0.5 0 0 1 114.82503 42.601017 L 114.82503 29.600777 A 0.5 0.5 0 0 1 115.32474 29.101066 z M 134.37474 29.101066 L 147.37498 29.101066 A 0.5 0.5 0 0 1 147.87521 29.600777 L 147.87521 42.601017 A 0.5 0.5 0 0 1 147.37498 43.101245 L 134.37474 43.101245 A 0.5 0.5 0 0 1 133.87503 42.601017 L 133.87503 29.600777 A 0.5 0.5 0 0 1 134.37474 29.101066 z M 153.42474 29.101066 L 166.42498 29.101066 A 0.5 0.5 0 0 1 166.92521 29.600777 L 166.92521 42.601017 A 0.5 0.5 0 0 1 166.42498 43.101245 L 153.42474 43.101245 A 0.5 0.5 0 0 1 152.92503 42.601017 L 152.92503 29.600777 A 0.5 0.5 0 0 1 153.42474 29.101066 z M 172.47474 29.101066 L 185.47498 29.101066 A 0.5 0.5 0 0 1 185.97521 29.600777 L 185.97521 42.601017 A 0.5 0.5 0 0 1 185.47498 43.101245 L 172.47474 43.101245 A 0.5 0.5 0 0 1 171.97503 42.601017 L 171.97503 29.600777 A 0.5 0.5 0 0 1 172.47474 29.101066 z M 191.52474 29.101066 L 204.52498 29.101066 A 0.5 0.5 0 0 1 205.02521 29.600777 L 205.02521 42.601017 A 0.5 0.5 0 0 1 204.52498 43.101245 L 191.52474 43.101245 A 0.5 0.5 0 0 1 191.02503 42.601017 L 191.02503 29.600777 A 0.5 0.5 0 0 1 191.52474 29.101066 z M 210.57474 29.101066 L 223.57498 29.101066 A 0.5 0.5 0 0 1 224.07521 29.600777 L 224.07521 42.601017 A 0.5 0.5 0 0 1 223.57498 43.101245 L 210.57474 43.101245 A 0.5 0.5 0 0 1 210.07503 42.601017 L 210.07503 29.600777 A 0.5 0.5 0 0 1 210.57474 29.101066 z M 229.62474 29.101066 L 242.62498 29.101066 A 0.5 0.5 0 0 1 243.12521 29.600777 L 243.12521 42.601017 A 0.5 0.5 0 0 1 242.62498 43.101245 L 229.62474 43.101245 A 0.5 0.5 0 0 1 229.12503 42.601017 L 229.12503 29.600777 A 0.5 0.5 0 0 1 229.62474 29.101066 z M 248.67474 29.101066 L 261.67498 29.101066 A 0.5 0.5 0 0 1 262.17521 29.600777 L 262.17521 42.601017 A 0.5 0.5 0 0 1 261.67498 43.101245 L 248.67474 43.101245 A 0.5 0.5 0 0 1 248.17503 42.601017 L 248.17503 29.600777 A 0.5 0.5 0 0 1 248.67474 29.101066 z M 272.48776 29.101066 L 285.488 29.101066 C 285.76412 29.100939 285.98807 29.324658 285.98823 29.600777 L 285.98823 30.187821 L 289.86913 30.187821 C 290.14525 30.187981 290.36897 30.411989 290.36884 30.688049 L 290.36884 36.6882 C 290.36868 36.964116 290.14505 37.187751 289.86913 37.187911 L 285.98823 37.187911 L 285.98823 38.626066 L 287.86925 38.626066 C 288.14517 38.626226 288.3688 38.849861 288.36896 39.125777 L 288.36896 52.126017 C 288.36909 52.402135 288.14537 52.626085 287.86925 52.626245 L 287.28221 52.626245 L 287.28221 54.063883 L 289.86913 54.063883 C 290.14525 54.064043 290.36897 54.288051 290.36884 54.564111 L 290.36884 60.564262 C 290.36868 60.840178 290.14505 61.063813 289.86913 61.063973 L 286.99178 61.063973 C 286.92943 61.108623 286.85768 61.138319 286.78198 61.150789 L 280.78183 61.150789 C 280.70616 61.138319 280.63432 61.108623 280.57202 61.063973 L 278.84396 61.063973 L 278.84396 61.651017 C 278.84409 61.927135 278.62037 62.151085 278.34425 62.151245 L 266.438 62.151245 L 265.34401 62.151245 L 253.43776 62.151245 C 253.16164 62.151085 252.93792 61.927135 252.93805 61.651017 L 252.93805 48.650777 C 252.93821 48.374861 253.16184 48.151226 253.43776 48.151066 L 256.40605 48.151066 L 256.40605 46.650899 C 256.40621 46.375037 256.62985 46.151342 256.90577 46.151188 L 262.90592 46.151188 C 263.18204 46.151066 263.40598 46.374842 263.40614 46.650899 L 263.40614 48.151066 L 265.34401 48.151066 L 266.438 48.151066 L 274.36878 48.151066 L 274.36878 43.101245 L 272.48776 43.101245 C 272.21164 43.101085 271.98792 42.877135 271.98805 42.601017 L 271.98805 29.600777 C 271.98821 29.324861 272.21184 29.101226 272.48776 29.101066 z M 301.06276 29.101066 L 314.063 29.101066 A 0.5 0.5 0 0 1 314.56323 29.600777 L 314.56323 42.601017 A 0.5 0.5 0 0 1 314.063 43.101245 L 301.06276 43.101245 A 0.5 0.5 0 0 1 300.56305 42.601017 L 300.56305 29.600777 A 0.5 0.5 0 0 1 301.06276 29.101066 z M 320.11276 29.101066 L 333.113 29.101066 A 0.5 0.5 0 0 1 333.61323 29.600777 L 333.61323 42.601017 A 0.5 0.5 0 0 1 333.113 43.101245 L 320.11276 43.101245 A 0.5 0.5 0 0 1 319.61305 42.601017 L 319.61305 29.600777 A 0.5 0.5 0 0 1 320.11276 29.101066 z M 339.16276 29.101066 L 352.163 29.101066 A 0.5 0.5 0 0 1 352.66323 29.600777 L 352.66323 42.601017 A 0.5 0.5 0 0 1 352.163 43.101245 L 339.16276 43.101245 A 0.5 0.5 0 0 1 338.66305 42.601017 L 338.66305 29.600777 A 0.5 0.5 0 0 1 339.16276 29.101066 z M 12.930994 48.151066 L 17.69401 48.151066 L 25.931234 48.151066 L 30.69425 48.151066 A 0.5 0.5 0 0 1 31.193962 48.650777 L 31.193962 61.651017 A 0.5 0.5 0 0 1 30.69425 62.151245 L 25.931234 62.151245 L 17.69401 62.151245 L 12.930994 62.151245 A 0.5 0.5 0 0 1 12.430766 61.651017 L 12.430766 48.650777 A 0.5 0.5 0 0 1 12.930994 48.151066 z M 43.88776 48.151066 L 56.888 48.151066 A 0.5 0.5 0 0 1 57.388228 48.650777 L 57.388228 61.651017 A 0.5 0.5 0 0 1 56.888 62.151245 L 43.88776 62.151245 A 0.5 0.5 0 0 1 43.388049 61.651017 L 43.388049 48.650777 A 0.5 0.5 0 0 1 43.88776 48.151066 z M 62.93776 48.151066 L 75.938 48.151066 A 0.5 0.5 0 0 1 76.438228 48.650777 L 76.438228 61.651017 A 0.5 0.5 0 0 1 75.938 62.151245 L 62.93776 62.151245 A 0.5 0.5 0 0 1 62.438049 61.651017 L 62.438049 48.650777 A 0.5 0.5 0 0 1 62.93776 48.151066 z M 81.98776 48.151066 L 94.988 48.151066 A 0.5 0.5 0 0 1 95.488228 48.650777 L 95.488228 61.651017 A 0.5 0.5 0 0 1 94.988 62.151245 L 81.98776 62.151245 A 0.5 0.5 0 0 1 81.488049 61.651017 L 81.488049 48.650777 A 0.5 0.5 0 0 1 81.98776 48.151066 z M 101.03776 48.151066 L 114.038 48.151066 A 0.5 0.5 0 0 1 114.53823 48.650777 L 114.53823 61.651017 A 0.5 0.5 0 0 1 114.038 62.151245 L 101.03776 62.151245 A 0.5 0.5 0 0 1 100.53805 61.651017 L 100.53805 48.650777 A 0.5 0.5 0 0 1 101.03776 48.151066 z M 120.08776 48.151066 L 133.088 48.151066 A 0.5 0.5 0 0 1 133.58823 48.650777 L 133.58823 61.651017 A 0.5 0.5 0 0 1 133.088 62.151245 L 120.08776 62.151245 A 0.5 0.5 0 0 1 119.58805 61.651017 L 119.58805 48.650777 A 0.5 0.5 0 0 1 120.08776 48.151066 z M 139.13776 48.151066 L 152.138 48.151066 A 0.5 0.5 0 0 1 152.63823 48.650777 L 152.63823 61.651017 A 0.5 0.5 0 0 1 152.138 62.151245 L 139.13776 62.151245 A 0.5 0.5 0 0 1 138.63805 61.651017 L 138.63805 48.650777 A 0.5 0.5 0 0 1 139.13776 48.151066 z M 158.18776 48.151066 L 171.188 48.151066 A 0.5 0.5 0 0 1 171.68823 48.650777 L 171.68823 61.651017 A 0.5 0.5 0 0 1 171.188 62.151245 L 158.18776 62.151245 A 0.5 0.5 0 0 1 157.68805 61.651017 L 157.68805 48.650777 A 0.5 0.5 0 0 1 158.18776 48.151066 z M 177.23776 48.151066 L 190.238 48.151066 A 0.5 0.5 0 0 1 190.73823 48.650777 L 190.73823 61.651017 A 0.5 0.5 0 0 1 190.238 62.151245 L 177.23776 62.151245 A 0.5 0.5 0 0 1 176.73805 61.651017 L 176.73805 48.650777 A 0.5 0.5 0 0 1 177.23776 48.151066 z M 196.28776 48.151066 L 209.288 48.151066 A 0.5 0.5 0 0 1 209.78823 48.650777 L 209.78823 61.651017 A 0.5 0.5 0 0 1 209.288 62.151245 L 196.28776 62.151245 A 0.5 0.5 0 0 1 195.78805 61.651017 L 195.78805 48.650777 A 0.5 0.5 0 0 1 196.28776 48.151066 z M 215.33776 48.151066 L 228.338 48.151066 A 0.5 0.5 0 0 1 228.83823 48.650777 L 228.83823 61.651017 A 0.5 0.5 0 0 1 228.338 62.151245 L 215.33776 62.151245 A 0.5 0.5 0 0 1 214.83805 61.651017 L 214.83805 48.650777 A 0.5 0.5 0 0 1 215.33776 48.151066 z M 234.38776 48.151066 L 247.388 48.151066 A 0.5 0.5 0 0 1 247.88823 48.650777 L 247.88823 61.651017 A 0.5 0.5 0 0 1 247.388 62.151245 L 234.38776 62.151245 A 0.5 0.5 0 0 1 233.88805 61.651017 L 233.88805 48.650777 A 0.5 0.5 0 0 1 234.38776 48.151066 z M 14.017749 65.201188 L 20.0179 65.201188 A 0.5 0.5 0 0 1 20.518127 65.700899 L 20.518127 67.201066 L 22.455994 67.201066 L 25.931234 67.201066 L 34.36276 67.201066 L 35.456234 67.201066 L 37.3941 67.201066 L 37.3941 65.700899 A 0.5 0.5 0 0 1 37.893811 65.201188 L 43.893962 65.201188 A 0.5 0.5 0 0 1 44.394189 65.700899 L 44.394189 67.201066 L 47.363 67.201066 A 0.5 0.5 0 0 1 47.863228 67.700777 L 47.863228 80.701017 A 0.5 0.5 0 0 1 47.363 81.201245 L 35.456234 81.201245 L 34.36276 81.201245 L 25.931234 81.201245 L 22.455994 81.201245 L 12.930994 81.201245 A 0.5 0.5 0 0 1 12.430766 80.701017 L 12.430766 67.700777 A 0.5 0.5 0 0 1 12.930994 67.201066 L 13.518038 67.201066 L 13.518038 65.700899 A 0.5 0.5 0 0 1 14.017749 65.201188 z M 53.41276 67.201066 L 66.413 67.201066 A 0.5 0.5 0 0 1 66.913228 67.700777 L 66.913228 80.701017 A 0.5 0.5 0 0 1 66.413 81.201245 L 53.41276 81.201245 A 0.5 0.5 0 0 1 52.913049 80.701017 L 52.913049 67.700777 A 0.5 0.5 0 0 1 53.41276 67.201066 z M 72.46276 67.201066 L 85.463 67.201066 A 0.5 0.5 0 0 1 85.963228 67.700777 L 85.963228 80.701017 A 0.5 0.5 0 0 1 85.463 81.201245 L 72.46276 81.201245 A 0.5 0.5 0 0 1 71.963049 80.701017 L 71.963049 67.700777 A 0.5 0.5 0 0 1 72.46276 67.201066 z M 91.51276 67.201066 L 104.513 67.201066 A 0.5 0.5 0 0 1 105.01323 67.700777 L 105.01323 80.701017 A 0.5 0.5 0 0 1 104.513 81.201245 L 91.51276 81.201245 A 0.5 0.5 0 0 1 91.013049 80.701017 L 91.013049 67.700777 A 0.5 0.5 0 0 1 91.51276 67.201066 z M 110.56276 67.201066 L 123.563 67.201066 A 0.5 0.5 0 0 1 124.06323 67.700777 L 124.06323 80.701017 A 0.5 0.5 0 0 1 123.563 81.201245 L 110.56276 81.201245 A 0.5 0.5 0 0 1 110.06305 80.701017 L 110.06305 67.700777 A 0.5 0.5 0 0 1 110.56276 67.201066 z M 129.61276 67.201066 L 142.613 67.201066 A 0.5 0.5 0 0 1 143.11323 67.700777 L 143.11323 80.701017 A 0.5 0.5 0 0 1 142.613 81.201245 L 129.61276 81.201245 A 0.5 0.5 0 0 1 129.11305 80.701017 L 129.11305 67.700777 A 0.5 0.5 0 0 1 129.61276 67.201066 z M 148.66276 67.201066 L 161.663 67.201066 A 0.5 0.5 0 0 1 162.16323 67.700777 L 162.16323 80.701017 A 0.5 0.5 0 0 1 161.663 81.201245 L 148.66276 81.201245 A 0.5 0.5 0 0 1 148.16305 80.701017 L 148.16305 67.700777 A 0.5 0.5 0 0 1 148.66276 67.201066 z M 167.71276 67.201066 L 180.713 67.201066 A 0.5 0.5 0 0 1 181.21323 67.700777 L 181.21323 80.701017 A 0.5 0.5 0 0 1 180.713 81.201245 L 167.71276 81.201245 A 0.5 0.5 0 0 1 167.21305 80.701017 L 167.21305 67.700777 A 0.5 0.5 0 0 1 167.71276 67.201066 z M 186.76276 67.201066 L 199.763 67.201066 A 0.5 0.5 0 0 1 200.26323 67.700777 L 200.26323 80.701017 A 0.5 0.5 0 0 1 199.763 81.201245 L 186.76276 81.201245 A 0.5 0.5 0 0 1 186.26305 80.701017 L 186.26305 67.700777 A 0.5 0.5 0 0 1 186.76276 67.201066 z M 205.81276 67.201066 L 218.813 67.201066 A 0.5 0.5 0 0 1 219.31323 67.700777 L 219.31323 80.701017 A 0.5 0.5 0 0 1 218.813 81.201245 L 205.81276 81.201245 A 0.5 0.5 0 0 1 205.31305 80.701017 L 205.31305 67.700777 A 0.5 0.5 0 0 1 205.81276 67.201066 z M 224.86276 67.201066 L 237.863 67.201066 A 0.5 0.5 0 0 1 238.36323 67.700777 L 238.36323 80.701017 A 0.5 0.5 0 0 1 237.863 81.201245 L 224.86276 81.201245 A 0.5 0.5 0 0 1 224.36305 80.701017 L 224.36305 67.700777 A 0.5 0.5 0 0 1 224.86276 67.201066 z M 251.05599 67.201066 L 260.58099 67.201066 L 264.05623 67.201066 L 272.59886 67.201066 L 273.58123 67.201066 L 277.24974 67.201066 L 278.65276 67.201066 L 290.24998 67.201066 A 0.5 0.5 0 0 1 290.75021 67.700777 L 290.75021 80.701017 A 0.5 0.5 0 0 1 290.24998 81.201245 L 282.51919 81.201245 L 282.51919 82.700895 A 0.5 0.5 0 0 1 282.01896 83.201123 L 276.01881 83.201123 A 0.5 0.5 0 0 1 275.5191 82.700895 L 275.5191 81.201245 L 273.58123 81.201245 L 272.59886 81.201245 L 264.05623 81.201245 L 260.58099 81.201245 L 258.64313 81.201245 L 258.64313 82.700895 A 0.5 0.5 0 0 1 258.1429 83.201123 L 252.14275 83.201123 A 0.5 0.5 0 0 1 251.64304 82.700895 L 251.64304 81.201245 L 251.05599 81.201245 A 0.5 0.5 0 0 1 250.55577 80.701017 L 250.55577 67.700777 A 0.5 0.5 0 0 1 251.05599 67.201066 z M 320.11276 67.201066 L 333.113 67.201066 A 0.5 0.5 0 0 1 333.61323 67.700777 L 333.61323 80.701017 A 0.5 0.5 0 0 1 333.113 81.201245 L 320.11276 81.201245 A 0.5 0.5 0 0 1 319.61305 80.701017 L 319.61305 67.700777 A 0.5 0.5 0 0 1 320.11276 67.201066 z M 85.494006 84.251188 L 90.249788 84.251188 L 91.494157 84.251188 L 96.249939 84.251188 A 0.5 0.5 0 0 1 96.750167 84.750899 L 96.750167 98.751078 A 0.5 0.5 0 0 1 96.249939 99.250789 L 91.494157 99.250789 L 90.249788 99.250789 L 85.494006 99.250789 A 0.5 0.5 0 0 1 84.993778 98.751078 L 84.993778 84.750899 A 0.5 0.5 0 0 1 85.494006 84.251188 z M 128.34979 84.251188 L 134.34994 84.251188 A 0.5 0.5 0 0 1 134.85017 84.750899 L 134.85017 86.251066 L 143.89974 86.251066 L 144.99425 86.251066 L 156.89998 86.251066 A 0.5 0.5 0 0 1 157.40021 86.750777 L 157.40021 99.751017 A 0.5 0.5 0 0 1 156.89998 100.25125 L 144.99425 100.25125 L 143.89974 100.25125 L 131.99401 100.25125 A 0.5 0.5 0 0 1 131.49378 99.751017 L 131.49378 99.250789 L 128.34979 99.250789 A 0.5 0.5 0 0 1 127.85008 98.751078 L 127.85008 84.750899 A 0.5 0.5 0 0 1 128.34979 84.251188 z M 166.44979 84.251188 L 172.44994 84.251188 A 0.5 0.5 0 0 1 172.95017 84.750899 L 172.95017 98.751078 A 0.5 0.5 0 0 1 172.44994 99.250789 L 166.44979 99.250789 A 0.5 0.5 0 0 1 165.95008 98.751078 L 165.95008 84.750899 A 0.5 0.5 0 0 1 166.44979 84.251188 z M 185.4941 84.251188 L 191.49425 84.251188 A 0.5 0.5 0 0 1 191.99397 84.750899 L 191.99397 86.251066 L 194.99998 86.251066 A 0.5 0.5 0 0 1 195.50021 86.750777 L 195.50021 99.751017 A 0.5 0.5 0 0 1 194.99998 100.25125 L 181.99974 100.25125 A 0.5 0.5 0 0 1 181.50003 99.751017 L 181.50003 86.750777 A 0.5 0.5 0 0 1 181.99974 86.251066 L 184.99388 86.251066 L 184.99388 84.750899 A 0.5 0.5 0 0 1 185.4941 84.251188 z M 204.54979 84.251188 L 210.54994 84.251188 A 0.5 0.5 0 0 1 211.05017 84.750899 L 211.05017 86.251066 L 216.43123 86.251066 A 0.5 0.5 0 0 1 216.93094 86.750777 L 216.93094 99.751017 A 0.5 0.5 0 0 1 216.43123 100.25125 L 203.43099 100.25125 A 0.5 0.5 0 0 1 202.93077 99.751017 L 202.93077 86.750777 A 0.5 0.5 0 0 1 203.43099 86.251066 L 204.05008 86.251066 L 204.05008 84.750899 A 0.5 0.5 0 0 1 204.54979 84.251188 z M 12.930994 86.251066 L 15.31276 86.251066 L 25.931234 86.251066 L 28.313 86.251066 A 0.5 0.5 0 0 1 28.813228 86.750777 L 28.813228 99.751017 A 0.5 0.5 0 0 1 28.313 100.25125 L 25.931234 100.25125 L 15.31276 100.25125 L 12.930994 100.25125 A 0.5 0.5 0 0 1 12.430766 99.751017 L 12.430766 86.750777 A 0.5 0.5 0 0 1 12.930994 86.251066 z M 36.74401 86.251066 L 39.124744 86.251066 L 49.74425 86.251066 L 52.124984 86.251066 A 0.5 0.5 0 0 1 52.625212 86.750777 L 52.625212 99.751017 A 0.5 0.5 0 0 1 52.124984 100.25125 L 49.74425 100.25125 L 39.124744 100.25125 L 36.74401 100.25125 A 0.5 0.5 0 0 1 36.243783 99.751017 L 36.243783 86.750777 A 0.5 0.5 0 0 1 36.74401 86.251066 z M 60.555994 86.251066 L 62.93776 86.251066 L 73.556234 86.251066 L 75.938 86.251066 A 0.5 0.5 0 0 1 76.438228 86.750777 L 76.438228 99.751017 A 0.5 0.5 0 0 1 75.938 100.25125 L 73.556234 100.25125 L 62.93776 100.25125 L 60.555994 100.25125 A 0.5 0.5 0 0 1 60.055766 99.751017 L 60.055766 86.750777 A 0.5 0.5 0 0 1 60.555994 86.251066 z M 105.79974 86.251066 L 118.79998 86.251066 A 0.5 0.5 0 0 1 119.30021 86.750777 L 119.30021 99.751017 A 0.5 0.5 0 0 1 118.79998 100.25125 L 105.79974 100.25125 A 0.5 0.5 0 0 1 105.30003 99.751017 L 105.30003 86.750777 A 0.5 0.5 0 0 1 105.79974 86.251066 z M 224.86276 86.251066 L 227.24401 86.251066 L 237.863 86.251066 L 240.24425 86.251066 A 0.5 0.5 0 0 1 240.74396 86.750777 L 240.74396 99.751017 A 0.5 0.5 0 0 1 240.24425 100.25125 L 237.863 100.25125 L 227.24401 100.25125 L 224.86276 100.25125 A 0.5 0.5 0 0 1 224.36305 99.751017 L 224.36305 86.750777 A 0.5 0.5 0 0 1 224.86276 86.251066 z M 248.67474 86.251066 L 251.05599 86.251066 L 261.67498 86.251066 L 264.05623 86.251066 A 0.5 0.5 0 0 1 264.55594 86.750777 L 264.55594 99.751017 A 0.5 0.5 0 0 1 264.05623 100.25125 L 261.67498 100.25125 L 251.05599 100.25125 L 248.67474 100.25125 A 0.5 0.5 0 0 1 248.17503 99.751017 L 248.17503 86.750777 A 0.5 0.5 0 0 1 248.67474 86.251066 z M 272.48776 86.251066 L 274.86901 86.251066 L 285.488 86.251066 L 287.86925 86.251066 A 0.5 0.5 0 0 1 288.36896 86.750777 L 288.36896 99.751017 A 0.5 0.5 0 0 1 287.86925 100.25125 L 285.488 100.25125 L 274.86901 100.25125 L 272.48776 100.25125 A 0.5 0.5 0 0 1 271.98805 99.751017 L 271.98805 86.750777 A 0.5 0.5 0 0 1 272.48776 86.251066 z M 301.06276 86.251066 L 314.063 86.251066 A 0.5 0.5 0 0 1 314.56323 86.750777 L 314.56323 99.751017 A 0.5 0.5 0 0 1 314.063 100.25125 L 301.06276 100.25125 A 0.5 0.5 0 0 1 300.56305 99.751017 L 300.56305 86.750777 A 0.5 0.5 0 0 1 301.06276 86.251066 z M 320.11276 86.251066 L 333.113 86.251066 A 0.5 0.5 0 0 1 333.61323 86.750777 L 333.61323 99.751017 A 0.5 0.5 0 0 1 333.113 100.25125 L 320.11276 100.25125 A 0.5 0.5 0 0 1 319.61305 99.751017 L 319.61305 86.750777 A 0.5 0.5 0 0 1 320.11276 86.251066 z M 339.16276 86.251066 L 352.163 86.251066 A 0.5 0.5 0 0 1 352.66323 86.750777 L 352.66323 99.751017 A 0.5 0.5 0 0 1 352.163 100.25125 L 339.16276 100.25125 A 0.5 0.5 0 0 1 338.66305 99.751017 L 338.66305 86.750777 A 0.5 0.5 0 0 1 339.16276 86.251066 z "
       transform="translate(0,23.812)" />
  </g>
</svg>
