<?xml version="1.0" encoding="UTF-8" standalone="no"?>
<svg
   width="357.66299mm"
   height="135mm"
   viewBox="0 0 357.663 135"
   version="1.1"
   id="svg1"
   sodipodi:docname="plate-tkl-wkl-03.svg"
   inkscape:version="1.3.2 (091e20e, 2023-11-25, custom)"
   xmlns:inkscape="http://www.inkscape.org/namespaces/inkscape"
   xmlns:sodipodi="http://sodipodi.sourceforge.net/DTD/sodipodi-0.dtd"
   xmlns="http://www.w3.org/2000/svg"
   xmlns:svg="http://www.w3.org/2000/svg">
  <defs
     id="defs1" />
  <sodipodi:namedview
     id="namedview1"
     pagecolor="#505050"
     bordercolor="#eeeeee"
     borderopacity="1"
     inkscape:showpageshadow="0"
     inkscape:pageopacity="0"
     inkscape:pagecheckerboard="0"
     inkscape:deskcolor="#505050"
     inkscape:document-units="mm"
     showgrid="true"
     inkscape:zoom="0.72069914"
     inkscape:cx="688.91438"
     inkscape:cy="186.62434"
     inkscape:window-width="1920"
     inkscape:window-height="1017"
     inkscape:window-x="-8"
     inkscape:window-y="-8"
     inkscape:window-maximized="1"
     inkscape:current-layer="layer2"
     showguides="true">
    <inkscape:grid
       id="grid1"
       units="mm"
       originx="0"
       originy="0"
       spacingx="1"
       spacingy="1"
       empcolor="#0099e5"
       empopacity="0.30196078"
       color="#0099e5"
       opacity="0.14901961"
       empspacing="5"
       dotted="false"
       gridanglex="30"
       gridanglez="30"
       visible="true" />
  </sodipodi:namedview>
  <g
     inkscape:groupmode="layer"
     id="layer2"
     inkscape:label="Layer 2">
    <path
       id="rect118"
       style="fill:#383838;fill-opacity:1;stroke:none;stroke-width:0.1;stroke-dasharray:none;stroke-opacity:1"
       inkscape:label="edge-cut"
       d="M 13.524756 1.5249715 C 12.970756 1.5249715 12.524817 1.9709151 12.524817 2.5249105 L 12.524817 6.4249308 C 12.524817 6.4592928 12.531822 6.4917327 12.535152 6.5251831 L 8.525061 6.5251831 C 7.9710658 6.5251831 7.5251221 6.9711269 7.5251221 7.5251221 L 7.5251221 126.52509 C 7.5251221 127.07909 7.9710658 127.52503 8.525061 127.52503 L 25.534875 127.52503 C 25.531575 127.55833 25.525057 127.59067 25.525057 127.62477 L 25.525057 131.52479 C 25.525057 132.07879 25.970996 132.52473 26.524996 132.52473 L 64.425008 132.52473 C 64.979008 132.52473 65.424947 132.07879 65.424947 131.52479 L 65.424947 127.62477 C 65.424947 127.59057 65.418429 127.55823 65.415129 127.52503 L 223.53468 127.52503 C 223.53168 127.55833 223.52486 127.59067 223.52486 127.62477 L 223.52486 131.52479 C 223.52486 132.07879 223.9708 132.52473 224.5248 132.52473 L 262.42481 132.52473 C 262.97881 132.52473 263.42475 132.07879 263.42475 131.52479 L 263.42475 127.62477 C 263.42475 127.59057 263.41741 127.55823 263.41441 127.52503 L 309.53459 127.52503 C 309.53159 127.55833 309.52426 127.59057 309.52426 127.62477 L 309.52426 131.52479 C 309.52426 132.07879 309.97072 132.52473 310.52472 132.52473 L 348.42473 132.52473 C 348.97873 132.52473 349.42467 132.07879 349.42467 131.52479 L 349.42467 127.62477 C 349.42467 127.59057 349.41763 127.55823 349.41433 127.52503 L 354.12464 127.52503 C 354.67864 127.52503 355.12458 127.07909 355.12458 126.52509 L 355.12458 7.5251221 C 355.12458 6.9711268 354.67864 6.5251831 354.12464 6.5251831 L 349.41433 6.5251831 C 349.41733 6.4917331 349.42467 6.4592931 349.42467 6.4249308 L 349.42467 2.5249105 C 349.42467 1.9709134 348.97873 1.5249715 348.42473 1.5249715 L 310.52472 1.5249715 C 309.97072 1.5249715 309.52426 1.9709133 309.52426 2.5249105 L 309.52426 6.4249308 C 309.52426 6.4592928 309.53129 6.4917327 309.53459 6.5251831 L 250.41469 6.5251831 C 250.41769 6.4917411 250.42502 6.4592842 250.42502 6.4249308 L 250.42502 2.5249105 C 250.42502 1.9709139 249.97903 1.5249715 249.42509 1.5249715 L 211.52507 1.5249715 C 210.97107 1.5249715 210.52513 1.9709139 210.52513 2.5249105 L 210.52513 6.4249308 C 210.52513 6.4592838 210.53095 6.4917407 210.53495 6.5251831 L 151.41505 6.5251831 C 151.41805 6.4917411 151.42487 6.4592842 151.42487 6.4249308 L 151.42487 2.5249105 C 151.42487 1.9709145 150.97893 1.5249715 150.42493 1.5249715 L 112.52491 1.5249715 C 111.97098 1.5249715 111.52498 1.9709145 111.52498 2.5249105 L 111.52498 6.4249308 C 111.52498 6.4592838 111.53131 6.4917407 111.53531 6.5251831 L 52.414889 6.5251831 C 52.418289 6.4917331 52.425224 6.4592932 52.425224 6.4249308 L 52.425224 2.5249105 C 52.425224 1.9709151 51.978768 1.5249715 51.424768 1.5249715 L 13.524756 1.5249715 z M 10.549744 10.050033 L 23.549984 10.050033 A 0.5 0.5 0 0 1 24.050212 10.549744 L 24.050212 23.549984 A 0.5 0.5 0 0 1 23.549984 24.050212 L 10.549744 24.050212 A 0.5 0.5 0 0 1 10.050033 23.549984 L 10.050033 10.549744 A 0.5 0.5 0 0 1 10.549744 10.050033 z M 48.649744 10.050033 L 61.649984 10.050033 A 0.5 0.5 0 0 1 62.150212 10.549744 L 62.150212 23.549984 A 0.5 0.5 0 0 1 61.649984 24.050212 L 48.649744 24.050212 A 0.5 0.5 0 0 1 48.150033 23.549984 L 48.150033 10.549744 A 0.5 0.5 0 0 1 48.649744 10.050033 z M 67.699744 10.050033 L 80.699984 10.050033 A 0.5 0.5 0 0 1 81.200212 10.549744 L 81.200212 23.549984 A 0.5 0.5 0 0 1 80.699984 24.050212 L 67.699744 24.050212 A 0.5 0.5 0 0 1 67.200033 23.549984 L 67.200033 10.549744 A 0.5 0.5 0 0 1 67.699744 10.050033 z M 86.749744 10.050033 L 99.749984 10.050033 A 0.5 0.5 0 0 1 100.25021 10.549744 L 100.25021 23.549984 A 0.5 0.5 0 0 1 99.749984 24.050212 L 86.749744 24.050212 A 0.5 0.5 0 0 1 86.250033 23.549984 L 86.250033 10.549744 A 0.5 0.5 0 0 1 86.749744 10.050033 z M 105.79974 10.050033 L 118.79998 10.050033 A 0.5 0.5 0 0 1 119.30021 10.549744 L 119.30021 23.549984 A 0.5 0.5 0 0 1 118.79998 24.050212 L 105.79974 24.050212 A 0.5 0.5 0 0 1 105.30003 23.549984 L 105.30003 10.549744 A 0.5 0.5 0 0 1 105.79974 10.050033 z M 134.37474 10.050033 L 147.37498 10.050033 A 0.5 0.5 0 0 1 147.87521 10.549744 L 147.87521 23.549984 A 0.5 0.5 0 0 1 147.37498 24.050212 L 134.37474 24.050212 A 0.5 0.5 0 0 1 133.87503 23.549984 L 133.87503 10.549744 A 0.5 0.5 0 0 1 134.37474 10.050033 z M 153.42474 10.050033 L 166.42498 10.050033 A 0.5 0.5 0 0 1 166.92521 10.549744 L 166.92521 23.549984 A 0.5 0.5 0 0 1 166.42498 24.050212 L 153.42474 24.050212 A 0.5 0.5 0 0 1 152.92503 23.549984 L 152.92503 10.549744 A 0.5 0.5 0 0 1 153.42474 10.050033 z M 172.47474 10.050033 L 185.47498 10.050033 A 0.5 0.5 0 0 1 185.97521 10.549744 L 185.97521 23.549984 A 0.5 0.5 0 0 1 185.47498 24.050212 L 172.47474 24.050212 A 0.5 0.5 0 0 1 171.97503 23.549984 L 171.97503 10.549744 A 0.5 0.5 0 0 1 172.47474 10.050033 z M 191.52474 10.050033 L 204.52498 10.050033 A 0.5 0.5 0 0 1 205.02521 10.549744 L 205.02521 23.549984 A 0.5 0.5 0 0 1 204.52498 24.050212 L 191.52474 24.050212 A 0.5 0.5 0 0 1 191.02503 23.549984 L 191.02503 10.549744 A 0.5 0.5 0 0 1 191.52474 10.050033 z M 220.09974 10.050033 L 233.09998 10.050033 A 0.5 0.5 0 0 1 233.60021 10.549744 L 233.60021 23.549984 A 0.5 0.5 0 0 1 233.09998 24.050212 L 220.09974 24.050212 A 0.5 0.5 0 0 1 219.60003 23.549984 L 219.60003 10.549744 A 0.5 0.5 0 0 1 220.09974 10.050033 z M 239.14974 10.050033 L 252.14998 10.050033 A 0.5 0.5 0 0 1 252.65021 10.549744 L 252.65021 23.549984 A 0.5 0.5 0 0 1 252.14998 24.050212 L 239.14974 24.050212 A 0.5 0.5 0 0 1 238.65003 23.549984 L 238.65003 10.549744 A 0.5 0.5 0 0 1 239.14974 10.050033 z M 258.19974 10.050033 L 271.19998 10.050033 A 0.5 0.5 0 0 1 271.70021 10.549744 L 271.70021 23.549984 A 0.5 0.5 0 0 1 271.19998 24.050212 L 258.19974 24.050212 A 0.5 0.5 0 0 1 257.70003 23.549984 L 257.70003 10.549744 A 0.5 0.5 0 0 1 258.19974 10.050033 z M 277.24974 10.050033 L 290.24998 10.050033 A 0.5 0.5 0 0 1 290.75021 10.549744 L 290.75021 23.549984 A 0.5 0.5 0 0 1 290.24998 24.050212 L 277.24974 24.050212 A 0.5 0.5 0 0 1 276.75003 23.549984 L 276.75003 10.549744 A 0.5 0.5 0 0 1 277.24974 10.050033 z M 301.06276 10.050033 L 314.063 10.050033 A 0.5 0.5 0 0 1 314.56323 10.549744 L 314.56323 23.549984 A 0.5 0.5 0 0 1 314.063 24.050212 L 301.06276 24.050212 A 0.5 0.5 0 0 1 300.56305 23.549984 L 300.56305 10.549744 A 0.5 0.5 0 0 1 301.06276 10.050033 z M 320.11276 10.050033 L 333.113 10.050033 A 0.5 0.5 0 0 1 333.61323 10.549744 L 333.61323 23.549984 A 0.5 0.5 0 0 1 333.113 24.050212 L 320.11276 24.050212 A 0.5 0.5 0 0 1 319.61305 23.549984 L 319.61305 10.549744 A 0.5 0.5 0 0 1 320.11276 10.050033 z M 339.16276 10.050033 L 352.163 10.050033 A 0.5 0.5 0 0 1 352.66323 10.549744 L 352.66323 23.549984 A 0.5 0.5 0 0 1 352.163 24.050212 L 339.16276 24.050212 A 0.5 0.5 0 0 1 338.66305 23.549984 L 338.66305 10.549744 A 0.5 0.5 0 0 1 339.16276 10.050033 z M 10.549744 33.863049 L 23.549984 33.863049 A 0.5 0.5 0 0 1 24.050212 34.36276 L 24.050212 47.363 A 0.5 0.5 0 0 1 23.549984 47.863228 L 10.549744 47.863228 A 0.5 0.5 0 0 1 10.050033 47.363 L 10.050033 34.36276 A 0.5 0.5 0 0 1 10.549744 33.863049 z M 29.599744 33.863049 L 42.599984 33.863049 A 0.5 0.5 0 0 1 43.100212 34.36276 L 43.100212 47.363 A 0.5 0.5 0 0 1 42.599984 47.863228 L 29.599744 47.863228 A 0.5 0.5 0 0 1 29.100033 47.363 L 29.100033 34.36276 A 0.5 0.5 0 0 1 29.599744 33.863049 z M 48.649744 33.863049 L 61.649984 33.863049 A 0.5 0.5 0 0 1 62.150212 34.36276 L 62.150212 47.363 A 0.5 0.5 0 0 1 61.649984 47.863228 L 48.649744 47.863228 A 0.5 0.5 0 0 1 48.150033 47.363 L 48.150033 34.36276 A 0.5 0.5 0 0 1 48.649744 33.863049 z M 67.699744 33.863049 L 80.699984 33.863049 A 0.5 0.5 0 0 1 81.200212 34.36276 L 81.200212 47.363 A 0.5 0.5 0 0 1 80.699984 47.863228 L 67.699744 47.863228 A 0.5 0.5 0 0 1 67.200033 47.363 L 67.200033 34.36276 A 0.5 0.5 0 0 1 67.699744 33.863049 z M 86.749744 33.863049 L 99.749984 33.863049 A 0.5 0.5 0 0 1 100.25021 34.36276 L 100.25021 47.363 A 0.5 0.5 0 0 1 99.749984 47.863228 L 86.749744 47.863228 A 0.5 0.5 0 0 1 86.250033 47.363 L 86.250033 34.36276 A 0.5 0.5 0 0 1 86.749744 33.863049 z M 105.79974 33.863049 L 118.79998 33.863049 A 0.5 0.5 0 0 1 119.30021 34.36276 L 119.30021 47.363 A 0.5 0.5 0 0 1 118.79998 47.863228 L 105.79974 47.863228 A 0.5 0.5 0 0 1 105.30003 47.363 L 105.30003 34.36276 A 0.5 0.5 0 0 1 105.79974 33.863049 z M 124.84974 33.863049 L 137.84998 33.863049 A 0.5 0.5 0 0 1 138.35021 34.36276 L 138.35021 47.363 A 0.5 0.5 0 0 1 137.84998 47.863228 L 124.84974 47.863228 A 0.5 0.5 0 0 1 124.35003 47.363 L 124.35003 34.36276 A 0.5 0.5 0 0 1 124.84974 33.863049 z M 143.89974 33.863049 L 156.89998 33.863049 A 0.5 0.5 0 0 1 157.40021 34.36276 L 157.40021 47.363 A 0.5 0.5 0 0 1 156.89998 47.863228 L 143.89974 47.863228 A 0.5 0.5 0 0 1 143.40003 47.363 L 143.40003 34.36276 A 0.5 0.5 0 0 1 143.89974 33.863049 z M 162.94974 33.863049 L 175.94998 33.863049 A 0.5 0.5 0 0 1 176.45021 34.36276 L 176.45021 47.363 A 0.5 0.5 0 0 1 175.94998 47.863228 L 162.94974 47.863228 A 0.5 0.5 0 0 1 162.45003 47.363 L 162.45003 34.36276 A 0.5 0.5 0 0 1 162.94974 33.863049 z M 181.99974 33.863049 L 194.99998 33.863049 A 0.5 0.5 0 0 1 195.50021 34.36276 L 195.50021 47.363 A 0.5 0.5 0 0 1 194.99998 47.863228 L 181.99974 47.863228 A 0.5 0.5 0 0 1 181.50003 47.363 L 181.50003 34.36276 A 0.5 0.5 0 0 1 181.99974 33.863049 z M 201.04974 33.863049 L 214.04998 33.863049 A 0.5 0.5 0 0 1 214.55021 34.36276 L 214.55021 47.363 A 0.5 0.5 0 0 1 214.04998 47.863228 L 201.04974 47.863228 A 0.5 0.5 0 0 1 200.55003 47.363 L 200.55003 34.36276 A 0.5 0.5 0 0 1 201.04974 33.863049 z M 220.09974 33.863049 L 233.09998 33.863049 A 0.5 0.5 0 0 1 233.60021 34.36276 L 233.60021 47.363 A 0.5 0.5 0 0 1 233.09998 47.863228 L 220.09974 47.863228 A 0.5 0.5 0 0 1 219.60003 47.363 L 219.60003 34.36276 A 0.5 0.5 0 0 1 220.09974 33.863049 z M 239.14974 33.863049 L 252.14998 33.863049 A 0.5 0.5 0 0 1 252.65021 34.36276 L 252.65021 47.363 A 0.5 0.5 0 0 1 252.14998 47.863228 L 239.14974 47.863228 A 0.5 0.5 0 0 1 238.65003 47.363 L 238.65003 34.36276 A 0.5 0.5 0 0 1 239.14974 33.863049 z M 258.19974 33.863049 L 267.72474 33.863049 L 271.19998 33.863049 L 277.24974 33.863049 L 280.72498 33.863049 L 290.24998 33.863049 A 0.5 0.5 0 0 1 290.75021 34.363277 L 290.75021 47.363517 A 0.5 0.5 0 0 1 290.24998 47.863228 L 289.66294 47.863228 L 289.66294 49.363395 A 0.5 0.5 0 0 1 289.16323 49.863106 L 283.16308 49.863106 A 0.5 0.5 0 0 1 282.66285 49.363395 L 282.66285 47.863228 L 280.72498 47.863228 L 277.24974 47.863228 L 271.19998 47.863228 L 267.72474 47.863228 L 265.78688 47.863228 L 265.78688 49.363395 A 0.5 0.5 0 0 1 265.28717 49.863106 L 259.28702 49.863106 A 0.5 0.5 0 0 1 258.78679 49.363395 L 258.78679 47.863228 L 258.19974 47.863228 A 0.5 0.5 0 0 1 257.70003 47.363517 L 257.70003 34.363277 A 0.5 0.5 0 0 1 258.19974 33.863049 z M 301.06276 33.863049 L 314.063 33.863049 A 0.5 0.5 0 0 1 314.56323 34.36276 L 314.56323 47.363 A 0.5 0.5 0 0 1 314.063 47.863228 L 301.06276 47.863228 A 0.5 0.5 0 0 1 300.56305 47.363 L 300.56305 34.36276 A 0.5 0.5 0 0 1 301.06276 33.863049 z M 320.11276 33.863049 L 333.113 33.863049 A 0.5 0.5 0 0 1 333.61323 34.36276 L 333.61323 47.363 A 0.5 0.5 0 0 1 333.113 47.863228 L 320.11276 47.863228 A 0.5 0.5 0 0 1 319.61305 47.363 L 319.61305 34.36276 A 0.5 0.5 0 0 1 320.11276 33.863049 z M 339.16276 33.863049 L 352.163 33.863049 A 0.5 0.5 0 0 1 352.66323 34.36276 L 352.66323 47.363 A 0.5 0.5 0 0 1 352.163 47.863228 L 339.16276 47.863228 A 0.5 0.5 0 0 1 338.66305 47.363 L 338.66305 34.36276 A 0.5 0.5 0 0 1 339.16276 33.863049 z M 15.31276 52.913049 L 28.313 52.913049 A 0.5 0.5 0 0 1 28.813228 53.41276 L 28.813228 66.413 A 0.5 0.5 0 0 1 28.313 66.913228 L 15.31276 66.913228 A 0.5 0.5 0 0 1 14.813049 66.413 L 14.813049 53.41276 A 0.5 0.5 0 0 1 15.31276 52.913049 z M 39.124744 52.913049 L 52.124984 52.913049 A 0.5 0.5 0 0 1 52.625212 53.41276 L 52.625212 66.413 A 0.5 0.5 0 0 1 52.124984 66.913228 L 39.124744 66.913228 A 0.5 0.5 0 0 1 38.625033 66.413 L 38.625033 53.41276 A 0.5 0.5 0 0 1 39.124744 52.913049 z M 58.174744 52.913049 L 71.174984 52.913049 A 0.5 0.5 0 0 1 71.675212 53.41276 L 71.675212 66.413 A 0.5 0.5 0 0 1 71.174984 66.913228 L 58.174744 66.913228 A 0.5 0.5 0 0 1 57.675033 66.413 L 57.675033 53.41276 A 0.5 0.5 0 0 1 58.174744 52.913049 z M 77.224744 52.913049 L 90.224984 52.913049 A 0.5 0.5 0 0 1 90.725212 53.41276 L 90.725212 66.413 A 0.5 0.5 0 0 1 90.224984 66.913228 L 77.224744 66.913228 A 0.5 0.5 0 0 1 76.725033 66.413 L 76.725033 53.41276 A 0.5 0.5 0 0 1 77.224744 52.913049 z M 96.274744 52.913049 L 109.27498 52.913049 A 0.5 0.5 0 0 1 109.77521 53.41276 L 109.77521 66.413 A 0.5 0.5 0 0 1 109.27498 66.913228 L 96.274744 66.913228 A 0.5 0.5 0 0 1 95.775033 66.413 L 95.775033 53.41276 A 0.5 0.5 0 0 1 96.274744 52.913049 z M 115.32474 52.913049 L 128.32498 52.913049 A 0.5 0.5 0 0 1 128.82521 53.41276 L 128.82521 66.413 A 0.5 0.5 0 0 1 128.32498 66.913228 L 115.32474 66.913228 A 0.5 0.5 0 0 1 114.82503 66.413 L 114.82503 53.41276 A 0.5 0.5 0 0 1 115.32474 52.913049 z M 134.37474 52.913049 L 147.37498 52.913049 A 0.5 0.5 0 0 1 147.87521 53.41276 L 147.87521 66.413 A 0.5 0.5 0 0 1 147.37498 66.913228 L 134.37474 66.913228 A 0.5 0.5 0 0 1 133.87503 66.413 L 133.87503 53.41276 A 0.5 0.5 0 0 1 134.37474 52.913049 z M 153.42474 52.913049 L 166.42498 52.913049 A 0.5 0.5 0 0 1 166.92521 53.41276 L 166.92521 66.413 A 0.5 0.5 0 0 1 166.42498 66.913228 L 153.42474 66.913228 A 0.5 0.5 0 0 1 152.92503 66.413 L 152.92503 53.41276 A 0.5 0.5 0 0 1 153.42474 52.913049 z M 172.47474 52.913049 L 185.47498 52.913049 A 0.5 0.5 0 0 1 185.97521 53.41276 L 185.97521 66.413 A 0.5 0.5 0 0 1 185.47498 66.913228 L 172.47474 66.913228 A 0.5 0.5 0 0 1 171.97503 66.413 L 171.97503 53.41276 A 0.5 0.5 0 0 1 172.47474 52.913049 z M 191.52474 52.913049 L 204.52498 52.913049 A 0.5 0.5 0 0 1 205.02521 53.41276 L 205.02521 66.413 A 0.5 0.5 0 0 1 204.52498 66.913228 L 191.52474 66.913228 A 0.5 0.5 0 0 1 191.02503 66.413 L 191.02503 53.41276 A 0.5 0.5 0 0 1 191.52474 52.913049 z M 210.57474 52.913049 L 223.57498 52.913049 A 0.5 0.5 0 0 1 224.07521 53.41276 L 224.07521 66.413 A 0.5 0.5 0 0 1 223.57498 66.913228 L 210.57474 66.913228 A 0.5 0.5 0 0 1 210.07503 66.413 L 210.07503 53.41276 A 0.5 0.5 0 0 1 210.57474 52.913049 z M 229.62474 52.913049 L 242.62498 52.913049 A 0.5 0.5 0 0 1 243.12521 53.41276 L 243.12521 66.413 A 0.5 0.5 0 0 1 242.62498 66.913228 L 229.62474 66.913228 A 0.5 0.5 0 0 1 229.12503 66.413 L 229.12503 53.41276 A 0.5 0.5 0 0 1 229.62474 52.913049 z M 248.67474 52.913049 L 261.67498 52.913049 A 0.5 0.5 0 0 1 262.17521 53.41276 L 262.17521 66.413 A 0.5 0.5 0 0 1 261.67498 66.913228 L 248.67474 66.913228 A 0.5 0.5 0 0 1 248.17503 66.413 L 248.17503 53.41276 A 0.5 0.5 0 0 1 248.67474 52.913049 z M 272.48776 52.913049 L 285.488 52.913049 C 285.76412 52.912922 285.98807 53.136643 285.98823 53.41276 L 285.98823 53.999805 L 289.86913 53.999805 C 290.14525 53.999965 290.36897 54.223915 290.36884 54.500033 L 290.36884 60.500183 C 290.36868 60.776099 290.14505 60.999734 289.86913 60.999894 L 285.98823 60.999894 L 285.98823 62.438049 L 287.86925 62.438049 C 288.14517 62.438209 288.3688 62.661846 288.36896 62.93776 L 288.36896 75.938 C 288.36909 76.214118 288.14537 76.438068 287.86925 76.438228 L 287.28221 76.438228 L 287.28221 77.875867 L 289.86913 77.875867 C 290.14525 77.876027 290.36897 78.099977 290.36884 78.376095 L 290.36884 84.376245 C 290.36868 84.652161 290.14505 84.875796 289.86913 84.875956 L 286.99178 84.875956 C 286.92943 84.920606 286.85768 84.950303 286.78198 84.962773 L 280.78183 84.962773 C 280.70616 84.950303 280.63432 84.920606 280.57202 84.875956 L 278.84396 84.875956 L 278.84396 85.463 C 278.84409 85.739118 278.62037 85.963068 278.34425 85.963228 L 266.438 85.963228 L 265.34401 85.963228 L 253.43776 85.963228 C 253.16164 85.963068 252.93792 85.739118 252.93805 85.463 L 252.93805 72.46276 C 252.93821 72.186846 253.16184 71.963209 253.43776 71.963049 L 256.40605 71.963049 L 256.40605 70.462882 C 256.40621 70.186964 256.62985 69.963325 256.90577 69.963171 L 262.90592 69.963171 C 263.18204 69.963049 263.40598 70.186769 263.40614 70.462882 L 263.40614 71.963049 L 265.34401 71.963049 L 266.438 71.963049 L 274.36878 71.963049 L 274.36878 66.913228 L 272.48776 66.913228 C 272.21164 66.913068 271.98792 66.689118 271.98805 66.413 L 271.98805 53.41276 C 271.98821 53.136846 272.21184 52.913209 272.48776 52.913049 z M 301.06276 52.913049 L 314.063 52.913049 A 0.5 0.5 0 0 1 314.56323 53.41276 L 314.56323 66.413 A 0.5 0.5 0 0 1 314.063 66.913228 L 301.06276 66.913228 A 0.5 0.5 0 0 1 300.56305 66.413 L 300.56305 53.41276 A 0.5 0.5 0 0 1 301.06276 52.913049 z M 320.11276 52.913049 L 333.113 52.913049 A 0.5 0.5 0 0 1 333.61323 53.41276 L 333.61323 66.413 A 0.5 0.5 0 0 1 333.113 66.913228 L 320.11276 66.913228 A 0.5 0.5 0 0 1 319.61305 66.413 L 319.61305 53.41276 A 0.5 0.5 0 0 1 320.11276 52.913049 z M 339.16276 52.913049 L 352.163 52.913049 A 0.5 0.5 0 0 1 352.66323 53.41276 L 352.66323 66.413 A 0.5 0.5 0 0 1 352.163 66.913228 L 339.16276 66.913228 A 0.5 0.5 0 0 1 338.66305 66.413 L 338.66305 53.41276 A 0.5 0.5 0 0 1 339.16276 52.913049 z M 12.930994 71.963049 L 17.69401 71.963049 L 25.931234 71.963049 L 30.69425 71.963049 A 0.5 0.5 0 0 1 31.193962 72.46276 L 31.193962 85.463 A 0.5 0.5 0 0 1 30.69425 85.963228 L 25.931234 85.963228 L 17.69401 85.963228 L 12.930994 85.963228 A 0.5 0.5 0 0 1 12.430766 85.463 L 12.430766 72.46276 A 0.5 0.5 0 0 1 12.930994 71.963049 z M 43.88776 71.963049 L 56.888 71.963049 A 0.5 0.5 0 0 1 57.388228 72.46276 L 57.388228 85.463 A 0.5 0.5 0 0 1 56.888 85.963228 L 43.88776 85.963228 A 0.5 0.5 0 0 1 43.388049 85.463 L 43.388049 72.46276 A 0.5 0.5 0 0 1 43.88776 71.963049 z M 62.93776 71.963049 L 75.938 71.963049 A 0.5 0.5 0 0 1 76.438228 72.46276 L 76.438228 85.463 A 0.5 0.5 0 0 1 75.938 85.963228 L 62.93776 85.963228 A 0.5 0.5 0 0 1 62.438049 85.463 L 62.438049 72.46276 A 0.5 0.5 0 0 1 62.93776 71.963049 z M 81.98776 71.963049 L 94.988 71.963049 A 0.5 0.5 0 0 1 95.488228 72.46276 L 95.488228 85.463 A 0.5 0.5 0 0 1 94.988 85.963228 L 81.98776 85.963228 A 0.5 0.5 0 0 1 81.488049 85.463 L 81.488049 72.46276 A 0.5 0.5 0 0 1 81.98776 71.963049 z M 101.03776 71.963049 L 114.038 71.963049 A 0.5 0.5 0 0 1 114.53823 72.46276 L 114.53823 85.463 A 0.5 0.5 0 0 1 114.038 85.963228 L 101.03776 85.963228 A 0.5 0.5 0 0 1 100.53805 85.463 L 100.53805 72.46276 A 0.5 0.5 0 0 1 101.03776 71.963049 z M 120.08776 71.963049 L 133.088 71.963049 A 0.5 0.5 0 0 1 133.58823 72.46276 L 133.58823 85.463 A 0.5 0.5 0 0 1 133.088 85.963228 L 120.08776 85.963228 A 0.5 0.5 0 0 1 119.58805 85.463 L 119.58805 72.46276 A 0.5 0.5 0 0 1 120.08776 71.963049 z M 139.13776 71.963049 L 152.138 71.963049 A 0.5 0.5 0 0 1 152.63823 72.46276 L 152.63823 85.463 A 0.5 0.5 0 0 1 152.138 85.963228 L 139.13776 85.963228 A 0.5 0.5 0 0 1 138.63805 85.463 L 138.63805 72.46276 A 0.5 0.5 0 0 1 139.13776 71.963049 z M 158.18776 71.963049 L 171.188 71.963049 A 0.5 0.5 0 0 1 171.68823 72.46276 L 171.68823 85.463 A 0.5 0.5 0 0 1 171.188 85.963228 L 158.18776 85.963228 A 0.5 0.5 0 0 1 157.68805 85.463 L 157.68805 72.46276 A 0.5 0.5 0 0 1 158.18776 71.963049 z M 177.23776 71.963049 L 190.238 71.963049 A 0.5 0.5 0 0 1 190.73823 72.46276 L 190.73823 85.463 A 0.5 0.5 0 0 1 190.238 85.963228 L 177.23776 85.963228 A 0.5 0.5 0 0 1 176.73805 85.463 L 176.73805 72.46276 A 0.5 0.5 0 0 1 177.23776 71.963049 z M 196.28776 71.963049 L 209.288 71.963049 A 0.5 0.5 0 0 1 209.78823 72.46276 L 209.78823 85.463 A 0.5 0.5 0 0 1 209.288 85.963228 L 196.28776 85.963228 A 0.5 0.5 0 0 1 195.78805 85.463 L 195.78805 72.46276 A 0.5 0.5 0 0 1 196.28776 71.963049 z M 215.33776 71.963049 L 228.338 71.963049 A 0.5 0.5 0 0 1 228.83823 72.46276 L 228.83823 85.463 A 0.5 0.5 0 0 1 228.338 85.963228 L 215.33776 85.963228 A 0.5 0.5 0 0 1 214.83805 85.463 L 214.83805 72.46276 A 0.5 0.5 0 0 1 215.33776 71.963049 z M 234.38776 71.963049 L 247.388 71.963049 A 0.5 0.5 0 0 1 247.88823 72.46276 L 247.88823 85.463 A 0.5 0.5 0 0 1 247.388 85.963228 L 234.38776 85.963228 A 0.5 0.5 0 0 1 233.88805 85.463 L 233.88805 72.46276 A 0.5 0.5 0 0 1 234.38776 71.963049 z M 14.017749 89.013171 L 20.0179 89.013171 A 0.5 0.5 0 0 1 20.518127 89.512882 L 20.518127 91.013049 L 22.455994 91.013049 L 25.931234 91.013049 L 34.36276 91.013049 L 35.456234 91.013049 L 37.3941 91.013049 L 37.3941 89.512882 A 0.5 0.5 0 0 1 37.893811 89.013171 L 43.893962 89.013171 A 0.5 0.5 0 0 1 44.394189 89.512882 L 44.394189 91.013049 L 47.363 91.013049 A 0.5 0.5 0 0 1 47.863228 91.51276 L 47.863228 104.513 A 0.5 0.5 0 0 1 47.363 105.01323 L 35.456234 105.01323 L 34.36276 105.01323 L 25.931234 105.01323 L 22.455994 105.01323 L 12.930994 105.01323 A 0.5 0.5 0 0 1 12.430766 104.513 L 12.430766 91.51276 A 0.5 0.5 0 0 1 12.930994 91.013049 L 13.518038 91.013049 L 13.518038 89.512882 A 0.5 0.5 0 0 1 14.017749 89.013171 z M 53.41276 91.013049 L 66.413 91.013049 A 0.5 0.5 0 0 1 66.913228 91.51276 L 66.913228 104.513 A 0.5 0.5 0 0 1 66.413 105.01323 L 53.41276 105.01323 A 0.5 0.5 0 0 1 52.913049 104.513 L 52.913049 91.51276 A 0.5 0.5 0 0 1 53.41276 91.013049 z M 72.46276 91.013049 L 85.463 91.013049 A 0.5 0.5 0 0 1 85.963228 91.51276 L 85.963228 104.513 A 0.5 0.5 0 0 1 85.463 105.01323 L 72.46276 105.01323 A 0.5 0.5 0 0 1 71.963049 104.513 L 71.963049 91.51276 A 0.5 0.5 0 0 1 72.46276 91.013049 z M 91.51276 91.013049 L 104.513 91.013049 A 0.5 0.5 0 0 1 105.01323 91.51276 L 105.01323 104.513 A 0.5 0.5 0 0 1 104.513 105.01323 L 91.51276 105.01323 A 0.5 0.5 0 0 1 91.013049 104.513 L 91.013049 91.51276 A 0.5 0.5 0 0 1 91.51276 91.013049 z M 110.56276 91.013049 L 123.563 91.013049 A 0.5 0.5 0 0 1 124.06323 91.51276 L 124.06323 104.513 A 0.5 0.5 0 0 1 123.563 105.01323 L 110.56276 105.01323 A 0.5 0.5 0 0 1 110.06305 104.513 L 110.06305 91.51276 A 0.5 0.5 0 0 1 110.56276 91.013049 z M 129.61276 91.013049 L 142.613 91.013049 A 0.5 0.5 0 0 1 143.11323 91.51276 L 143.11323 104.513 A 0.5 0.5 0 0 1 142.613 105.01323 L 129.61276 105.01323 A 0.5 0.5 0 0 1 129.11305 104.513 L 129.11305 91.51276 A 0.5 0.5 0 0 1 129.61276 91.013049 z M 148.66276 91.013049 L 161.663 91.013049 A 0.5 0.5 0 0 1 162.16323 91.51276 L 162.16323 104.513 A 0.5 0.5 0 0 1 161.663 105.01323 L 148.66276 105.01323 A 0.5 0.5 0 0 1 148.16305 104.513 L 148.16305 91.51276 A 0.5 0.5 0 0 1 148.66276 91.013049 z M 167.71276 91.013049 L 180.713 91.013049 A 0.5 0.5 0 0 1 181.21323 91.51276 L 181.21323 104.513 A 0.5 0.5 0 0 1 180.713 105.01323 L 167.71276 105.01323 A 0.5 0.5 0 0 1 167.21305 104.513 L 167.21305 91.51276 A 0.5 0.5 0 0 1 167.71276 91.013049 z M 186.76276 91.013049 L 199.763 91.013049 A 0.5 0.5 0 0 1 200.26323 91.51276 L 200.26323 104.513 A 0.5 0.5 0 0 1 199.763 105.01323 L 186.76276 105.01323 A 0.5 0.5 0 0 1 186.26305 104.513 L 186.26305 91.51276 A 0.5 0.5 0 0 1 186.76276 91.013049 z M 205.81276 91.013049 L 218.813 91.013049 A 0.5 0.5 0 0 1 219.31323 91.51276 L 219.31323 104.513 A 0.5 0.5 0 0 1 218.813 105.01323 L 205.81276 105.01323 A 0.5 0.5 0 0 1 205.31305 104.513 L 205.31305 91.51276 A 0.5 0.5 0 0 1 205.81276 91.013049 z M 224.86276 91.013049 L 237.863 91.013049 A 0.5 0.5 0 0 1 238.36323 91.51276 L 238.36323 104.513 A 0.5 0.5 0 0 1 237.863 105.01323 L 224.86276 105.01323 A 0.5 0.5 0 0 1 224.36305 104.513 L 224.36305 91.51276 A 0.5 0.5 0 0 1 224.86276 91.013049 z M 251.05599 91.013049 L 260.58099 91.013049 L 264.05623 91.013049 L 272.59886 91.013049 L 273.58123 91.013049 L 277.24974 91.013049 L 278.65276 91.013049 L 290.24998 91.013049 A 0.5 0.5 0 0 1 290.75021 91.51276 L 290.75021 104.513 A 0.5 0.5 0 0 1 290.24998 105.01323 L 282.51919 105.01323 L 282.51919 106.51288 A 0.5 0.5 0 0 1 282.01896 107.01311 L 276.01881 107.01311 A 0.5 0.5 0 0 1 275.5191 106.51288 L 275.5191 105.01323 L 273.58123 105.01323 L 272.59886 105.01323 L 264.05623 105.01323 L 260.58099 105.01323 L 258.64313 105.01323 L 258.64313 106.51288 A 0.5 0.5 0 0 1 258.1429 107.01311 L 252.14275 107.01311 A 0.5 0.5 0 0 1 251.64304 106.51288 L 251.64304 105.01323 L 251.05599 105.01323 A 0.5 0.5 0 0 1 250.55577 104.513 L 250.55577 91.51276 A 0.5 0.5 0 0 1 251.05599 91.013049 z M 320.11276 91.013049 L 333.113 91.013049 A 0.5 0.5 0 0 1 333.61323 91.51276 L 333.61323 104.513 A 0.5 0.5 0 0 1 333.113 105.01323 L 320.11276 105.01323 A 0.5 0.5 0 0 1 319.61305 104.513 L 319.61305 91.51276 A 0.5 0.5 0 0 1 320.11276 91.013049 z M 85.494006 108.06317 L 90.249788 108.06317 L 91.494157 108.06317 L 96.249939 108.06317 A 0.5 0.5 0 0 1 96.750167 108.56288 L 96.750167 122.56306 A 0.5 0.5 0 0 1 96.249939 123.06277 L 91.494157 123.06277 L 90.249788 123.06277 L 85.494006 123.06277 A 0.5 0.5 0 0 1 84.993778 122.56306 L 84.993778 108.56288 A 0.5 0.5 0 0 1 85.494006 108.06317 z M 128.34979 108.06317 L 134.34994 108.06317 A 0.5 0.5 0 0 1 134.85017 108.56288 L 134.85017 110.06305 L 143.89974 110.06305 L 144.99425 110.06305 L 156.89998 110.06305 A 0.5 0.5 0 0 1 157.40021 110.56276 L 157.40021 123.563 A 0.5 0.5 0 0 1 156.89998 124.06323 L 144.99425 124.06323 L 143.89974 124.06323 L 131.99401 124.06323 A 0.5 0.5 0 0 1 131.49378 123.563 L 131.49378 123.06277 L 128.34979 123.06277 A 0.5 0.5 0 0 1 127.85008 122.56306 L 127.85008 108.56288 A 0.5 0.5 0 0 1 128.34979 108.06317 z M 166.44979 108.06317 L 172.44994 108.06317 A 0.5 0.5 0 0 1 172.95017 108.56288 L 172.95017 122.56306 A 0.5 0.5 0 0 1 172.44994 123.06277 L 166.44979 123.06277 A 0.5 0.5 0 0 1 165.95008 122.56306 L 165.95008 108.56288 A 0.5 0.5 0 0 1 166.44979 108.06317 z M 185.4941 108.06317 L 191.49425 108.06317 A 0.5 0.5 0 0 1 191.99397 108.56288 L 191.99397 110.06305 L 194.99998 110.06305 A 0.5 0.5 0 0 1 195.50021 110.56276 L 195.50021 123.563 A 0.5 0.5 0 0 1 194.99998 124.06323 L 181.99974 124.06323 A 0.5 0.5 0 0 1 181.50003 123.563 L 181.50003 110.56276 A 0.5 0.5 0 0 1 181.99974 110.06305 L 184.99388 110.06305 L 184.99388 108.56288 A 0.5 0.5 0 0 1 185.4941 108.06317 z M 204.54979 108.06317 L 210.54994 108.06317 A 0.5 0.5 0 0 1 211.05017 108.56288 L 211.05017 110.06305 L 216.43123 110.06305 A 0.5 0.5 0 0 1 216.93094 110.56276 L 216.93094 123.563 A 0.5 0.5 0 0 1 216.43123 124.06323 L 203.43099 124.06323 A 0.5 0.5 0 0 1 202.93077 123.563 L 202.93077 110.56276 A 0.5 0.5 0 0 1 203.43099 110.06305 L 204.05008 110.06305 L 204.05008 108.56288 A 0.5 0.5 0 0 1 204.54979 108.06317 z M 12.930994 110.06305 L 15.31276 110.06305 L 25.931234 110.06305 L 28.313 110.06305 A 0.5 0.5 0 0 1 28.813228 110.56276 L 28.813228 123.563 A 0.5 0.5 0 0 1 28.313 124.06323 L 25.931234 124.06323 L 15.31276 124.06323 L 12.930994 124.06323 A 0.5 0.5 0 0 1 12.430766 123.563 L 12.430766 110.56276 A 0.5 0.5 0 0 1 12.930994 110.06305 z M 60.555994 110.06305 L 62.93776 110.06305 L 73.556234 110.06305 L 75.938 110.06305 A 0.5 0.5 0 0 1 76.438228 110.56276 L 76.438228 123.563 A 0.5 0.5 0 0 1 75.938 124.06323 L 73.556234 124.06323 L 62.93776 124.06323 L 60.555994 124.06323 A 0.5 0.5 0 0 1 60.055766 123.563 L 60.055766 110.56276 A 0.5 0.5 0 0 1 60.555994 110.06305 z M 105.79974 110.06305 L 118.79998 110.06305 A 0.5 0.5 0 0 1 119.30021 110.56276 L 119.30021 123.563 A 0.5 0.5 0 0 1 118.79998 124.06323 L 105.79974 124.06323 A 0.5 0.5 0 0 1 105.30003 123.563 L 105.30003 110.56276 A 0.5 0.5 0 0 1 105.79974 110.06305 z M 224.86276 110.06305 L 227.24401 110.06305 L 237.863 110.06305 L 240.24425 110.06305 A 0.5 0.5 0 0 1 240.74396 110.56276 L 240.74396 123.563 A 0.5 0.5 0 0 1 240.24425 124.06323 L 237.863 124.06323 L 227.24401 124.06323 L 224.86276 124.06323 A 0.5 0.5 0 0 1 224.36305 123.563 L 224.36305 110.56276 A 0.5 0.5 0 0 1 224.86276 110.06305 z M 272.48776 110.06305 L 274.86901 110.06305 L 285.488 110.06305 L 287.86925 110.06305 A 0.5 0.5 0 0 1 288.36896 110.56276 L 288.36896 123.563 A 0.5 0.5 0 0 1 287.86925 124.06323 L 285.488 124.06323 L 274.86901 124.06323 L 272.48776 124.06323 A 0.5 0.5 0 0 1 271.98805 123.563 L 271.98805 110.56276 A 0.5 0.5 0 0 1 272.48776 110.06305 z M 301.06276 110.06305 L 314.063 110.06305 A 0.5 0.5 0 0 1 314.56323 110.56276 L 314.56323 123.563 A 0.5 0.5 0 0 1 314.063 124.06323 L 301.06276 124.06323 A 0.5 0.5 0 0 1 300.56305 123.563 L 300.56305 110.56276 A 0.5 0.5 0 0 1 301.06276 110.06305 z M 320.11276 110.06305 L 333.113 110.06305 A 0.5 0.5 0 0 1 333.61323 110.56276 L 333.61323 123.563 A 0.5 0.5 0 0 1 333.113 124.06323 L 320.11276 124.06323 A 0.5 0.5 0 0 1 319.61305 123.563 L 319.61305 110.56276 A 0.5 0.5 0 0 1 320.11276 110.06305 z M 339.16276 110.06305 L 352.163 110.06305 A 0.5 0.5 0 0 1 352.66323 110.56276 L 352.66323 123.563 A 0.5 0.5 0 0 1 352.163 124.06323 L 339.16276 124.06323 A 0.5 0.5 0 0 1 338.66305 123.563 L 338.66305 110.56276 A 0.5 0.5 0 0 1 339.16276 110.06305 z " />
  </g>
</svg>
