<?xml version="1.0" encoding="UTF-8" standalone="no"?>
<!-- Created with Inkscape (http://www.inkscape.org/) -->

<svg
   width="375mm"
   height="320mm"
   viewBox="0 0 375 320"
   version="1.1"
   id="svg1"
   inkscape:version="1.3.2 (091e20e, 2023-11-25, custom)"
   sodipodi:docname="foot-1-alt-db2 - Copy (3) - Copy.svg"
   xmlns:inkscape="http://www.inkscape.org/namespaces/inkscape"
   xmlns:sodipodi="http://sodipodi.sourceforge.net/DTD/sodipodi-0.dtd"
   xmlns="http://www.w3.org/2000/svg"
   xmlns:svg="http://www.w3.org/2000/svg">
  <sodipodi:namedview
     id="namedview1"
     pagecolor="#505050"
     bordercolor="#eeeeee"
     borderopacity="1"
     inkscape:showpageshadow="0"
     inkscape:pageopacity="0"
     inkscape:pagecheckerboard="0"
     inkscape:deskcolor="#505050"
     inkscape:document-units="mm"
     showgrid="true"
     inkscape:zoom="15.359979"
     inkscape:cx="685.90588"
     inkscape:cy="141.24368"
     inkscape:window-width="2560"
     inkscape:window-height="1369"
     inkscape:window-x="-8"
     inkscape:window-y="-8"
     inkscape:window-maximized="1"
     inkscape:current-layer="g27">
    <inkscape:grid
       id="grid1"
       units="mm"
       originx="0"
       originy="0"
       spacingx="0.99999999"
       spacingy="1"
       empcolor="#0099e5"
       empopacity="0.30196078"
       color="#0099e5"
       opacity="0.14901961"
       empspacing="5"
       dotted="false"
       gridanglex="30"
       gridanglez="30"
       visible="true" />
  </sodipodi:namedview>
  <defs
     id="defs1">
    <inkscape:path-effect
       effect="offset"
       id="path-effect2"
       is_visible="true"
       lpeversion="1.2"
       linejoin_type="miter"
       unit="mm"
       offset="0"
       miter_limit="4"
       attempt_force_join="false"
       update_on_knot_move="true" />
    <inkscape:path-effect
       effect="fillet_chamfer"
       id="path-effect1"
       is_visible="true"
       lpeversion="1"
       nodesatellites_param="F,0,0,1,0,0,0,1 @ F,0,0,1,0,0,0,1 @ F,0,0,1,0,0,0,1 @ F,0,0,1,0,0,0,1 @ F,0,1,1,0,3,0,1 @ F,0,1,1,0,3,0,1 @ F,0,1,1,0,3,0,1 @ F,0,1,1,0,3,0,1 @ F,0,1,1,0,3,0,1 @ F,0,1,1,0,3,0,1 @ F,0,1,1,0,3,0,1 @ F,0,1,1,0,3,0,1 @ F,0,0,1,0,0,0,1 @ F,0,0,1,0,0,0,1 @ F,0,0,1,0,0,0,1 @ F,0,0,1,0,0,0,1 | F,0,0,1,0,0,0,1 @ F,0,0,1,0,0,0,1 @ F,0,0,1,0,0,0,1 @ F,0,0,1,0,0,0,1 | F,0,0,1,0,0,0,1 @ F,0,0,1,0,0,0,1 @ F,0,0,1,0,0,0,1 @ F,0,0,1,0,0,0,1 | F,0,0,1,0,0,0,1 @ F,0,0,1,0,0,0,1 @ F,0,0,1,0,0,0,1 @ F,0,0,1,0,0,0,1 | F,0,0,1,0,0,0,1 @ F,0,0,1,0,0,0,1 @ F,0,0,1,0,0,0,1 @ F,0,0,1,0,0,0,1 | F,0,0,1,0,0,0,1 @ F,0,0,1,0,0,0,1 @ F,0,0,1,0,0,0,1 @ F,0,0,1,0,0,0,1 | F,0,0,1,0,0,0,1 @ F,0,0,1,0,0,0,1 @ F,0,0,1,0,0,0,1 @ F,0,0,1,0,0,0,1"
       radius="3"
       unit="mm"
       method="auto"
       mode="F"
       chamfer_steps="1"
       flexible="false"
       use_knot_distance="true"
       apply_no_radius="true"
       apply_with_radius="true"
       only_selected="true"
       hide_knots="false" />
  </defs>
  <g
     inkscape:groupmode="layer"
     id="layer5"
     inkscape:label="Plate-FRL"
     style="display:none"
     transform="translate(0,-0.258)"
     sodipodi:insensitive="true">
    <path
       id="rect118"
       style="display:inline;fill:#383838;fill-opacity:1;stroke:#ffffff;stroke-width:0.1;stroke-dasharray:none;stroke-opacity:1"
       d="m 21.549634,34.55 c -0.554,0 -0.999939,0.445943 -0.999939,0.999939 v 3.90002 c 0,0.03436 0.007,0.0668 0.01033,0.100252 h -4.010086 c -0.553996,0 -0.999939,0.445943 -0.999939,0.999939 v 95.25812 c 0,0.554 0.445943,0.99994 0.999939,0.99994 h 17.009814 c -0.0033,0.0333 -0.0098,0.0656 -0.0098,0.0997 v 3.90002 c 0,0.554 0.445939,0.99994 0.999939,0.99994 h 37.900012 c 0.554,0 0.999939,-0.44594 0.999939,-0.99994 v -3.90002 c 0,-0.0342 -0.0065,-0.0665 -0.0098,-0.0997 H 231.55956 c -0.003,0.0333 -0.01,0.0656 -0.01,0.0997 v 3.90002 c 0,0.554 0.44594,0.99994 0.99994,0.99994 h 37.90001 c 0.554,0 0.99994,-0.44594 0.99994,-0.99994 v -3.90002 c 0,-0.0342 -0.007,-0.0665 -0.01,-0.0997 h 46.12018 c -0.003,0.0333 -0.0103,0.0655 -0.0103,0.0997 v 3.90002 c 0,0.554 0.44645,0.99994 1.00045,0.99994 h 37.90001 c 0.554,0 0.99994,-0.44594 0.99994,-0.99994 v -3.90002 c 0,-0.0342 -0.007,-0.0665 -0.0103,-0.0997 h 4.7103 c 0.554,0 0.99994,-0.44594 0.99994,-0.99994 V 40.55015 c 0,-0.553996 -0.44594,-0.999939 -0.99994,-0.999939 h -4.7103 c 0.003,-0.03345 0.0103,-0.06589 0.0103,-0.100252 v -3.90002 c 0,-0.553998 -0.44594,-0.999939 -0.99994,-0.999939 h -37.90001 c -0.554,0 -1.00045,0.445941 -1.00045,0.999939 v 3.90002 c 0,0.03436 0.007,0.0668 0.0103,0.100252 h -59.1199 c 0.003,-0.03344 0.01,-0.0659 0.01,-0.100252 v -3.90002 c 0,-0.553997 -0.44598,-0.999939 -0.99993,-0.999939 h -37.90002 c -0.554,0 -0.99994,0.445942 -0.99994,0.999939 v 3.90002 c 0,0.03435 0.006,0.06681 0.01,0.100252 h -59.1199 c 0.003,-0.03344 0.01,-0.0659 0.01,-0.100252 v -3.90002 C 159.44994,34.995942 159.004,34.55 158.45,34.55 h -37.90002 c -0.55394,0 -0.99993,0.445942 -0.99993,0.999939 v 3.90002 c 0,0.03435 0.006,0.06681 0.01,0.100252 H 60.439767 c 0.0034,-0.03345 0.01033,-0.06589 0.01033,-0.100252 v -3.90002 c 0,-0.553996 -0.446456,-0.999939 -1.000456,-0.999939 z"
       inkscape:label="edge-cut"
       sodipodi:nodetypes="ssscsssscssssssccssssssccsssssscsssscssssssccssssssccssssssccssss" />
    <path
       id="path234"
       style="font-size:12px;display:inline;fill:none;fill-rule:evenodd;stroke:#ffffff;stroke-width:0.1;stroke-linecap:round;stroke-dasharray:none;stroke-opacity:1"
       d="m 280.51264,62.126124 c -0.27592,1.6e-4 -0.49955,0.223795 -0.49971,0.499711 v 13.00024 c -1.3e-4,0.276118 0.22359,0.500068 0.49971,0.500228 h 1.88102 v 5.049821 h -7.93078 -1.09399 -1.93787 v -1.500167 c -1.6e-4,-0.276115 -0.2241,-0.499833 -0.50022,-0.499711 h -6.00015 c -0.27592,1.54e-4 -0.49956,0.223791 -0.49972,0.499711 v 1.500167 h -2.96829 c -0.27592,1.6e-4 -0.49955,0.223795 -0.49971,0.499711 v 13.00024 c -1.3e-4,0.276118 0.22359,0.500068 0.49971,0.500228 h 11.90625 1.09399 11.90625 c 0.27612,-1.6e-4 0.49984,-0.22411 0.49971,-0.500228 v -0.587044 h 1.72806 c 0.0623,0.04465 0.13414,0.07435 0.20981,0.08682 h 6.00015 c 0.0757,-0.01247 0.14745,-0.04217 0.2098,-0.08682 h 2.87735 c 0.27592,-1.6e-4 0.49955,-0.223795 0.49971,-0.499711 v -6.00015 c 1.3e-4,-0.276118 -0.22359,-0.500068 -0.49971,-0.500228 h -2.58692 v -1.437639 h 0.58704 c 0.27612,-1.6e-4 0.49984,-0.22411 0.49971,-0.500228 v -13.00024 c -1.6e-4,-0.275916 -0.22379,-0.499551 -0.49971,-0.499711 h -1.88102 v -1.438155 h 3.8809 c 0.27592,-1.6e-4 0.49955,-0.223795 0.49971,-0.499711 v -6.00015 c 1.3e-4,-0.276118 -0.22359,-0.500068 -0.49971,-0.500228 h -3.8809 v -0.587045 c -1.6e-4,-0.276119 -0.22411,-0.499838 -0.50023,-0.499711 z"
       sodipodi:nodetypes="ccccccccccccccccccccccccccccccccccccccccccccccc" />
    <path
       id="path232"
       style="font-size:12px;display:inline;fill:none;fill-rule:evenodd;stroke:#ffffff;stroke-width:0.1;stroke-linecap:round;stroke-dasharray:none;stroke-opacity:1"
       d="m 212.57467,117.27625 a 0.5,0.5 0 0 0 -0.49971,0.4997 v 1.50017 h -0.61909 a 0.5,0.5 0 0 0 -0.50022,0.49971 v 13.00025 a 0.5,0.5 0 0 0 0.50022,0.50023 h 13.00024 a 0.5,0.5 0 0 0 0.49971,-0.50023 v -13.00025 a 0.5,0.5 0 0 0 -0.49971,-0.4997 h -5.38106 v -1.50017 a 0.5,0.5 0 0 0 -0.50023,-0.49971 z" />
    <path
       id="path231"
       style="font-size:12px;display:inline;fill:none;fill-rule:evenodd;stroke:#ffffff;stroke-width:0.1;stroke-linecap:round;stroke-dasharray:none;stroke-opacity:1"
       d="m 93.51888,117.27625 a 0.5,0.5 0 0 0 -0.50022,0.4997 v 14.00018 a 0.5,0.5 0 0 0 0.50022,0.49971 h 4.75579 1.24436 4.75579 a 0.5,0.5 0 0 0 0.50023,-0.49971 v -14.00018 a 0.5,0.5 0 0 0 -0.50023,-0.4997 h -4.75579 -1.24436 z" />
    <path
       id="path230"
       style="font-size:12px;display:inline;fill:none;fill-rule:evenodd;stroke:#ffffff;stroke-width:0.1;stroke-linecap:round;stroke-dasharray:none;stroke-opacity:1"
       d="m 193.51898,117.27625 a 0.5,0.5 0 0 0 -0.50022,0.4997 v 1.50017 h -2.99414 a 0.5,0.5 0 0 0 -0.49971,0.49971 v 13.00025 a 0.5,0.5 0 0 0 0.49971,0.50023 h 13.00024 a 0.5,0.5 0 0 0 0.50023,-0.50023 v -13.00025 a 0.5,0.5 0 0 0 -0.50023,-0.4997 h -3.00601 v -1.50017 a 0.5,0.5 0 0 0 -0.49972,-0.49971 z" />
    <path
       id="path228"
       style="font-size:12px;display:inline;fill:none;fill-rule:evenodd;stroke:#ffffff;stroke-width:0.1;stroke-linecap:round;stroke-dasharray:none;stroke-opacity:1"
       d="m 259.08087,100.22612 a 0.5,0.5 0 0 0 -0.50022,0.49972 v 13.00024 a 0.5,0.5 0 0 0 0.50022,0.50023 h 0.58705 v 1.49965 a 0.5,0.5 0 0 0 0.49971,0.50023 h 6.00015 a 0.5,0.5 0 0 0 0.50023,-0.50023 v -1.49965 h 1.93786 3.47524 8.54263 0.98237 1.93787 v 1.49965 a 0.5,0.5 0 0 0 0.49971,0.50023 h 6.00015 a 0.5,0.5 0 0 0 0.50023,-0.50023 v -1.49965 h 7.73079 a 0.5,0.5 0 0 0 0.50023,-0.50023 v -13.00024 a 0.5,0.5 0 0 0 -0.50023,-0.49972 h -11.59722 -1.40302 -3.66851 -0.98237 -8.54263 -3.47524 z" />
    <path
       id="path226"
       style="font-size:12px;display:inline;fill:none;fill-rule:evenodd;stroke:#ffffff;stroke-width:0.1;stroke-linecap:round;stroke-dasharray:none;stroke-opacity:1"
       d="m 22.042627,98.226246 a 0.5,0.5 0 0 0 -0.499711,0.499711 v 1.500163 h -0.587044 a 0.5,0.5 0 0 0 -0.500228,0.49972 v 13.00024 a 0.5,0.5 0 0 0 0.500228,0.50023 h 9.525 3.47524 8.431526 1.093474 11.906766 a 0.5,0.5 0 0 0 0.500228,-0.50023 v -13.00024 a 0.5,0.5 0 0 0 -0.500228,-0.49972 H 52.419067 V 98.725957 A 0.5,0.5 0 0 0 51.91884,98.226246 h -6.000151 a 0.5,0.5 0 0 0 -0.499711,0.499711 v 1.500163 h -1.937866 -1.093474 -8.431526 -3.47524 -1.937867 v -1.500163 a 0.5,0.5 0 0 0 -0.500227,-0.499711 z" />
    <path
       id="path222"
       style="font-size:12px;display:inline;fill:none;fill-rule:evenodd;stroke:#ffffff;stroke-width:0.1;stroke-linecap:round;stroke-dasharray:none;stroke-opacity:1"
       d="m 267.3119,59.076132 a 0.5,0.5 0 0 1 -0.50023,-0.499711 v -1.500167 h -0.58705 a 0.5,0.5 0 0 1 -0.49971,-0.499711 v -13.00024 a 0.5,0.5 0 0 1 0.49971,-0.500228 h 9.525 3.47524 6.04976 3.47524 9.525 a 0.5,0.5 0 0 1 0.50023,0.500228 v 13.00024 a 0.5,0.5 0 0 1 -0.50023,0.499711 h -0.58704 v 1.500167 a 0.5,0.5 0 0 1 -0.49971,0.499711 h -6.00015 a 0.5,0.5 0 0 1 -0.50023,-0.499711 v -1.500167 h -1.93787 -3.47524 -6.04976 -3.47524 -1.93786 v 1.500167 a 0.5,0.5 0 0 1 -0.49971,0.499711 z" />
    <path
       style="font-size:12px;display:inline;fill:none;fill-rule:evenodd;stroke:#ffffff;stroke-width:0.1;stroke-linecap:round;stroke-dasharray:none;stroke-opacity:1"
       d="m 132.87488,43.076075 h 13 a 0.5,0.5 0 0 1 0.5,0.5 v 13 a 0.5,0.5 0 0 1 -0.5,0.5 h -13 a 0.5,0.5 0 0 1 -0.5,-0.5 v -13 a 0.5,0.5 0 0 1 0.5,-0.5 z"
       id="path220"
       inkscape:label="path220" />
    <path
       id="path219"
       style="font-size:12px;display:inline;fill:none;fill-rule:evenodd;stroke:#ffffff;stroke-width:0.1;stroke-linecap:round;stroke-dasharray:none;stroke-opacity:1"
       d="m 68.580872,119.27613 a 0.5,0.5 0 0 0 -0.500228,0.4997 v 13.00025 a 0.5,0.5 0 0 0 0.500228,0.50023 h 2.381766 10.618474 2.381766 a 0.5,0.5 0 0 0 0.500228,-0.50023 v -13.00025 a 0.5,0.5 0 0 0 -0.500228,-0.4997 H 81.581112 70.962638 Z" />
    <path
       style="font-size:12px;display:inline;fill:none;fill-rule:evenodd;stroke:#ffffff;stroke-width:0.1;stroke-linecap:round;stroke-dasharray:none;stroke-opacity:1"
       d="m 18.574878,43.076075 h 13 a 0.5,0.5 0 0 1 0.5,0.5 v 13 a 0.5,0.5 0 0 1 -0.5,0.5 h -13 a 0.5,0.5 0 0 1 -0.5,-0.5 v -13 a 0.5,0.5 0 0 1 0.5,-0.5 z"
       id="path217" />
    <path
       style="font-size:12px;display:inline;fill:none;fill-rule:evenodd;stroke:#ffffff;stroke-width:0.1;stroke-linecap:round;stroke-dasharray:none;stroke-opacity:1"
       d="m 70.962878,81.176075 h 13 a 0.5,0.5 0 0 1 0.5,0.5 v 13 a 0.5,0.5 0 0 1 -0.5,0.5 h -13 a 0.5,0.5 0 0 1 -0.5,-0.5 v -13 a 0.5,0.5 0 0 1 0.5,-0.5 z"
       id="path218" />
    <path
       id="path197-9"
       style="font-size:12px;display:inline;fill:none;fill-rule:evenodd;stroke:#ffffff;stroke-width:0.1;stroke-linecap:round;stroke-dasharray:none;stroke-opacity:1"
       d="m 20.955872,81.176124 a 0.5,0.5 0 0 0 -0.500228,0.499711 v 13.00024 a 0.5,0.5 0 0 0 0.500228,0.500228 h 4.763016 8.237224 4.763016 a 0.5,0.5 0 0 0 0.499712,-0.500228 v -13.00024 a 0.5,0.5 0 0 0 -0.499712,-0.499711 h -4.763016 -8.237224 z" />
    <path
       id="path192"
       style="font-size:12px;display:inline;fill:none;fill-rule:evenodd;stroke:#ffffff;stroke-width:0.1;stroke-linecap:round;stroke-dasharray:none;stroke-opacity:1"
       d="m 280.51264,119.27613 a 0.5,0.5 0 0 0 -0.49971,0.4997 v 13.00025 a 0.5,0.5 0 0 0 0.49971,0.50023 h 2.38125 10.61899 2.38125 a 0.5,0.5 0 0 0 0.49971,-0.50023 v -13.00025 a 0.5,0.5 0 0 0 -0.49971,-0.4997 h -2.38125 -10.61899 z" />
    <path
       id="path191"
       style="font-size:12px;display:inline;fill:none;fill-rule:evenodd;stroke:#ffffff;stroke-width:0.1;stroke-linecap:round;stroke-dasharray:none;stroke-opacity:1"
       d="m 256.69962,119.27613 a 0.5,0.5 0 0 0 -0.49971,0.4997 v 13.00025 a 0.5,0.5 0 0 0 0.49971,0.50023 h 2.38125 10.61899 2.38125 a 0.5,0.5 0 0 0 0.49971,-0.50023 v -13.00025 a 0.5,0.5 0 0 0 -0.49971,-0.4997 h -2.38125 -10.61899 z" />
    <path
       id="path190"
       style="font-size:12px;display:inline;fill:none;fill-rule:evenodd;stroke:#ffffff;stroke-width:0.1;stroke-linecap:round;stroke-dasharray:none;stroke-opacity:1"
       d="m 232.88764,119.27613 a 0.5,0.5 0 0 0 -0.49971,0.4997 v 13.00025 a 0.5,0.5 0 0 0 0.49971,0.50023 h 2.38125 10.61899 2.38125 a 0.5,0.5 0 0 0 0.49971,-0.50023 v -13.00025 a 0.5,0.5 0 0 0 -0.49971,-0.4997 h -2.38125 -10.61899 z" />
    <path
       id="path189"
       style="font-size:12px;display:inline;fill:none;fill-rule:evenodd;stroke:#ffffff;stroke-width:0.1;stroke-linecap:round;stroke-dasharray:none;stroke-opacity:1"
       d="m 136.37467,117.27625 a 0.5,0.5 0 0 0 -0.49971,0.4997 v 14.00018 a 0.5,0.5 0 0 0 0.49971,0.49971 h 3.14399 v 0.50023 a 0.5,0.5 0 0 0 0.50023,0.50023 h 11.90573 1.09451 11.90573 a 0.5,0.5 0 0 0 0.50023,-0.50023 v -13.00024 a 0.5,0.5 0 0 0 -0.50023,-0.49971 h -11.90573 -1.09451 -9.04957 v -1.50017 a 0.5,0.5 0 0 0 -0.50023,-0.4997 z" />
    <path
       id="path188"
       style="font-size:12px;display:inline;fill:none;fill-rule:evenodd;stroke:#ffffff;stroke-width:0.1;stroke-linecap:round;stroke-dasharray:none;stroke-opacity:1"
       d="m 44.768888,119.27613 a 0.5,0.5 0 0 0 -0.500227,0.4997 v 13.00025 a 0.5,0.5 0 0 0 0.500227,0.50023 h 2.380734 10.619506 2.380734 a 0.5,0.5 0 0 0 0.500228,-0.50023 v -13.00025 a 0.5,0.5 0 0 0 -0.500228,-0.4997 H 57.769128 47.149622 Z" />
    <path
       id="path187"
       style="font-size:12px;display:inline;fill:none;fill-rule:evenodd;stroke:#ffffff;stroke-width:0.1;stroke-linecap:round;stroke-dasharray:none;stroke-opacity:1"
       d="m 20.955872,119.27613 a 0.5,0.5 0 0 0 -0.500228,0.4997 v 13.00025 a 0.5,0.5 0 0 0 0.500228,0.50023 h 2.381766 10.618474 2.381766 a 0.5,0.5 0 0 0 0.500228,-0.50023 v -13.00025 a 0.5,0.5 0 0 0 -0.500228,-0.4997 H 33.956112 23.337638 Z" />
    <path
       style="font-size:12px;display:inline;fill:none;fill-rule:evenodd;stroke:#ffffff;stroke-width:0.1;stroke-linecap:round;stroke-dasharray:none;stroke-opacity:1"
       d="m 347.18788,119.27608 h 13 a 0.5,0.5 0 0 1 0.5,0.5 v 13 a 0.5,0.5 0 0 1 -0.5,0.5 h -13 a 0.5,0.5 0 0 1 -0.5,-0.5 v -13 a 0.5,0.5 0 0 1 0.5,-0.5 z"
       id="path186" />
    <path
       style="font-size:12px;display:inline;fill:none;fill-rule:evenodd;stroke:#ffffff;stroke-width:0.1;stroke-linecap:round;stroke-dasharray:none;stroke-opacity:1"
       d="m 328.13788,119.27608 h 13 a 0.5,0.5 0 0 1 0.5,0.5 v 13 a 0.5,0.5 0 0 1 -0.5,0.5 h -13 a 0.5,0.5 0 0 1 -0.5,-0.5 v -13 a 0.5,0.5 0 0 1 0.5,-0.5 z"
       id="path185" />
    <path
       style="font-size:12px;display:inline;fill:none;fill-rule:evenodd;stroke:#ffffff;stroke-width:0.1;stroke-linecap:round;stroke-dasharray:none;stroke-opacity:1"
       d="m 309.08788,119.27608 h 13 a 0.5,0.5 0 0 1 0.5,0.5 v 13 a 0.5,0.5 0 0 1 -0.5,0.5 h -13 a 0.5,0.5 0 0 1 -0.5,-0.5 v -13 a 0.5,0.5 0 0 1 0.5,-0.5 z"
       id="path184" />
    <path
       style="font-size:12px;display:inline;fill:none;fill-rule:evenodd;stroke:#ffffff;stroke-width:0.1;stroke-linecap:round;stroke-dasharray:none;stroke-opacity:1"
       d="m 328.13788,100.22608 h 13 a 0.5,0.5 0 0 1 0.5,0.5 v 13 a 0.5,0.5 0 0 1 -0.5,0.5 h -13 a 0.5,0.5 0 0 1 -0.5,-0.5 v -13 a 0.5,0.5 0 0 1 0.5,-0.5 z"
       id="path175" />
    <path
       style="font-size:12px;display:inline;fill:none;fill-rule:evenodd;stroke:#ffffff;stroke-width:0.1;stroke-linecap:round;stroke-dasharray:none;stroke-opacity:1"
       d="m 232.88788,100.22608 h 13 a 0.5,0.5 0 0 1 0.5,0.5 v 13 a 0.5,0.5 0 0 1 -0.5,0.5 h -13 a 0.5,0.5 0 0 1 -0.5,-0.5 v -13 a 0.5,0.5 0 0 1 0.5,-0.5 z"
       id="path173" />
    <path
       style="font-size:12px;display:inline;fill:none;fill-rule:evenodd;stroke:#ffffff;stroke-width:0.1;stroke-linecap:round;stroke-dasharray:none;stroke-opacity:1"
       d="m 213.83788,100.22608 h 13 a 0.5,0.5 0 0 1 0.5,0.5 v 13 a 0.5,0.5 0 0 1 -0.5,0.5 h -13 a 0.5,0.5 0 0 1 -0.5,-0.5 v -13 a 0.5,0.5 0 0 1 0.5,-0.5 z"
       id="path172" />
    <path
       style="font-size:12px;display:inline;fill:none;fill-rule:evenodd;stroke:#ffffff;stroke-width:0.1;stroke-linecap:round;stroke-dasharray:none;stroke-opacity:1"
       d="m 194.78788,100.22608 h 13 a 0.5,0.5 0 0 1 0.5,0.5 v 13 a 0.5,0.5 0 0 1 -0.5,0.5 h -13 a 0.5,0.5 0 0 1 -0.5,-0.5 v -13 a 0.5,0.5 0 0 1 0.5,-0.5 z"
       id="path171" />
    <path
       style="font-size:12px;display:inline;fill:none;fill-rule:evenodd;stroke:#ffffff;stroke-width:0.1;stroke-linecap:round;stroke-dasharray:none;stroke-opacity:1"
       d="m 175.73788,100.22608 h 13 a 0.5,0.5 0 0 1 0.5,0.5 v 13 a 0.5,0.5 0 0 1 -0.5,0.5 h -13 a 0.5,0.5 0 0 1 -0.5,-0.5 v -13 a 0.5,0.5 0 0 1 0.5,-0.5 z"
       id="path170" />
    <path
       style="font-size:12px;display:inline;fill:none;fill-rule:evenodd;stroke:#ffffff;stroke-width:0.1;stroke-linecap:round;stroke-dasharray:none;stroke-opacity:1"
       d="m 156.68788,100.22608 h 13 a 0.5,0.5 0 0 1 0.5,0.5 v 13 a 0.5,0.5 0 0 1 -0.5,0.5 h -13 a 0.5,0.5 0 0 1 -0.5,-0.5 v -13 a 0.5,0.5 0 0 1 0.5,-0.5 z"
       id="path169" />
    <path
       style="font-size:12px;display:inline;fill:none;fill-rule:evenodd;stroke:#ffffff;stroke-width:0.1;stroke-linecap:round;stroke-dasharray:none;stroke-opacity:1"
       d="m 137.63788,100.22608 h 13 a 0.5,0.5 0 0 1 0.5,0.5 v 13 a 0.5,0.5 0 0 1 -0.5,0.5 h -13 a 0.5,0.5 0 0 1 -0.5,-0.5 v -13 a 0.5,0.5 0 0 1 0.5,-0.5 z"
       id="path168" />
    <path
       style="font-size:12px;display:inline;fill:none;fill-rule:evenodd;stroke:#ffffff;stroke-width:0.1;stroke-linecap:round;stroke-dasharray:none;stroke-opacity:1"
       d="m 118.58788,100.22608 h 13 a 0.5,0.5 0 0 1 0.5,0.5 v 13 a 0.5,0.5 0 0 1 -0.5,0.5 h -13 a 0.5,0.5 0 0 1 -0.5,-0.5 v -13 a 0.5,0.5 0 0 1 0.5,-0.5 z"
       id="path167" />
    <path
       style="font-size:12px;display:inline;fill:none;fill-rule:evenodd;stroke:#ffffff;stroke-width:0.1;stroke-linecap:round;stroke-dasharray:none;stroke-opacity:1"
       d="m 99.53788,100.22608 h 13 a 0.5,0.5 0 0 1 0.5,0.5 v 13 a 0.5,0.5 0 0 1 -0.5,0.5 h -13 a 0.5,0.5 0 0 1 -0.5,-0.5 v -13 a 0.5,0.5 0 0 1 0.5,-0.5 z"
       id="path166" />
    <path
       style="font-size:12px;display:inline;fill:none;fill-rule:evenodd;stroke:#ffffff;stroke-width:0.1;stroke-linecap:round;stroke-dasharray:none;stroke-opacity:1"
       d="M 80.487878,100.22608 H 93.48788 a 0.5,0.5 0 0 1 0.5,0.5 v 13 a 0.5,0.5 0 0 1 -0.5,0.5 H 80.487878 a 0.5,0.5 0 0 1 -0.5,-0.5 v -13 a 0.5,0.5 0 0 1 0.5,-0.5 z"
       id="path165" />
    <path
       style="font-size:12px;display:inline;fill:none;fill-rule:evenodd;stroke:#ffffff;stroke-width:0.1;stroke-linecap:round;stroke-dasharray:none;stroke-opacity:1"
       d="m 61.437878,100.22608 h 13 a 0.5,0.5 0 0 1 0.5,0.5 v 13 a 0.5,0.5 0 0 1 -0.5,0.5 h -13 a 0.5,0.5 0 0 1 -0.5,-0.5 v -13 a 0.5,0.5 0 0 1 0.5,-0.5 z"
       id="path164" />
    <path
       style="font-size:12px;display:inline;fill:none;fill-rule:evenodd;stroke:#ffffff;stroke-width:0.1;stroke-linecap:round;stroke-dasharray:none;stroke-opacity:1"
       d="m 242.41288,81.176075 h 13 a 0.5,0.5 0 0 1 0.5,0.5 v 13 a 0.5,0.5 0 0 1 -0.5,0.5 h -13 a 0.5,0.5 0 0 1 -0.5,-0.5 v -13 a 0.5,0.5 0 0 1 0.5,-0.5 z"
       id="path161" />
    <path
       style="font-size:12px;display:inline;fill:none;fill-rule:evenodd;stroke:#ffffff;stroke-width:0.1;stroke-linecap:round;stroke-dasharray:none;stroke-opacity:1"
       d="m 223.36288,81.176075 h 13 a 0.5,0.5 0 0 1 0.5,0.5 v 13 a 0.5,0.5 0 0 1 -0.5,0.5 h -13 a 0.5,0.5 0 0 1 -0.5,-0.5 v -13 a 0.5,0.5 0 0 1 0.5,-0.5 z"
       id="path160" />
    <path
       style="font-size:12px;display:inline;fill:none;fill-rule:evenodd;stroke:#ffffff;stroke-width:0.1;stroke-linecap:round;stroke-dasharray:none;stroke-opacity:1"
       d="m 204.31288,81.176075 h 13 a 0.5,0.5 0 0 1 0.5,0.5 v 13 a 0.5,0.5 0 0 1 -0.5,0.5 h -13 a 0.5,0.5 0 0 1 -0.5,-0.5 v -13 a 0.5,0.5 0 0 1 0.5,-0.5 z"
       id="path159" />
    <path
       style="font-size:12px;display:inline;fill:none;fill-rule:evenodd;stroke:#ffffff;stroke-width:0.1;stroke-linecap:round;stroke-dasharray:none;stroke-opacity:1"
       d="m 185.26288,81.176075 h 13 a 0.5,0.5 0 0 1 0.5,0.5 v 13 a 0.5,0.5 0 0 1 -0.5,0.5 h -13 a 0.5,0.5 0 0 1 -0.5,-0.5 v -13 a 0.5,0.5 0 0 1 0.5,-0.5 z"
       id="path158" />
    <path
       style="font-size:12px;display:inline;fill:none;fill-rule:evenodd;stroke:#ffffff;stroke-width:0.1;stroke-linecap:round;stroke-dasharray:none;stroke-opacity:1"
       d="m 166.21288,81.176075 h 13 a 0.5,0.5 0 0 1 0.5,0.5 v 13 a 0.5,0.5 0 0 1 -0.5,0.5 h -13 a 0.5,0.5 0 0 1 -0.5,-0.5 v -13 a 0.5,0.5 0 0 1 0.5,-0.5 z"
       id="path157" />
    <path
       style="font-size:12px;display:inline;fill:none;fill-rule:evenodd;stroke:#ffffff;stroke-width:0.1;stroke-linecap:round;stroke-dasharray:none;stroke-opacity:1"
       d="m 147.16288,81.176075 h 13 a 0.5,0.5 0 0 1 0.5,0.5 v 13 a 0.5,0.5 0 0 1 -0.5,0.5 h -13 a 0.5,0.5 0 0 1 -0.5,-0.5 v -13 a 0.5,0.5 0 0 1 0.5,-0.5 z"
       id="path156" />
    <path
       style="font-size:12px;display:inline;fill:none;fill-rule:evenodd;stroke:#ffffff;stroke-width:0.1;stroke-linecap:round;stroke-dasharray:none;stroke-opacity:1"
       d="m 128.11288,81.176075 h 13 a 0.5,0.5 0 0 1 0.5,0.5 v 13 a 0.5,0.5 0 0 1 -0.5,0.5 h -13 a 0.5,0.5 0 0 1 -0.5,-0.5 v -13 a 0.5,0.5 0 0 1 0.5,-0.5 z"
       id="path155" />
    <path
       style="font-size:12px;display:inline;fill:none;fill-rule:evenodd;stroke:#ffffff;stroke-width:0.1;stroke-linecap:round;stroke-dasharray:none;stroke-opacity:1"
       d="m 109.06288,81.176075 h 13 a 0.5,0.5 0 0 1 0.5,0.5 v 13 a 0.5,0.5 0 0 1 -0.5,0.5 h -13 a 0.5,0.5 0 0 1 -0.5,-0.5 v -13 a 0.5,0.5 0 0 1 0.5,-0.5 z"
       id="path154-8" />
    <path
       style="font-size:12px;display:inline;fill:none;fill-rule:evenodd;stroke:#ffffff;stroke-width:0.1;stroke-linecap:round;stroke-dasharray:none;stroke-opacity:1"
       d="m 90.01288,81.176075 h 13 a 0.5,0.5 0 0 1 0.5,0.5 v 13 a 0.5,0.5 0 0 1 -0.5,0.5 h -13 a 0.5,0.5 0 0 1 -0.5,-0.5 v -13 a 0.5,0.5 0 0 1 0.5,-0.5 z"
       id="path153-6" />
    <path
       style="font-size:12px;display:inline;fill:none;fill-rule:evenodd;stroke:#ffffff;stroke-width:0.1;stroke-linecap:round;stroke-dasharray:none;stroke-opacity:1"
       d="m 51.912878,81.176075 h 13 a 0.5,0.5 0 0 1 0.5,0.5 v 13 a 0.5,0.5 0 0 1 -0.5,0.5 h -13 a 0.5,0.5 0 0 1 -0.5,-0.5 v -13 a 0.5,0.5 0 0 1 0.5,-0.5 z"
       id="path152-0" />
    <path
       style="font-size:12px;display:inline;fill:none;fill-rule:evenodd;stroke:#ffffff;stroke-width:0.1;stroke-linecap:round;stroke-dasharray:none;stroke-opacity:1"
       d="m 347.18788,62.126075 h 13 a 0.5,0.5 0 0 1 0.5,0.5 v 13 a 0.5,0.5 0 0 1 -0.5,0.5 h -13 a 0.5,0.5 0 0 1 -0.5,-0.5 v -13 a 0.5,0.5 0 0 1 0.5,-0.5 z"
       id="path150-0" />
    <path
       style="font-size:12px;display:inline;fill:none;fill-rule:evenodd;stroke:#ffffff;stroke-width:0.1;stroke-linecap:round;stroke-dasharray:none;stroke-opacity:1"
       d="m 328.13788,62.126075 h 13 a 0.5,0.5 0 0 1 0.5,0.5 v 13 a 0.5,0.5 0 0 1 -0.5,0.5 h -13 a 0.5,0.5 0 0 1 -0.5,-0.5 v -13 a 0.5,0.5 0 0 1 0.5,-0.5 z"
       id="path149-0" />
    <path
       style="font-size:12px;display:inline;fill:none;fill-rule:evenodd;stroke:#ffffff;stroke-width:0.1;stroke-linecap:round;stroke-dasharray:none;stroke-opacity:1"
       d="m 309.08788,62.126075 h 13 a 0.5,0.5 0 0 1 0.5,0.5 v 13 a 0.5,0.5 0 0 1 -0.5,0.5 h -13 a 0.5,0.5 0 0 1 -0.5,-0.5 v -13 a 0.5,0.5 0 0 1 0.5,-0.5 z"
       id="path148-5" />
    <path
       style="font-size:12px;display:inline;fill:none;fill-rule:evenodd;stroke:#ffffff;stroke-width:0.1;stroke-linecap:round;stroke-dasharray:none;stroke-opacity:1"
       d="m 256.69988,62.126075 h 13 a 0.5,0.5 0 0 1 0.5,0.5 v 13 a 0.5,0.5 0 0 1 -0.5,0.5 h -13 a 0.5,0.5 0 0 1 -0.5,-0.5 v -13 a 0.5,0.5 0 0 1 0.5,-0.5 z"
       id="path146" />
    <path
       style="font-size:12px;display:inline;fill:none;fill-rule:evenodd;stroke:#ffffff;stroke-width:0.1;stroke-linecap:round;stroke-dasharray:none;stroke-opacity:1"
       d="m 237.64988,62.126075 h 13 a 0.5,0.5 0 0 1 0.5,0.5 v 13 a 0.5,0.5 0 0 1 -0.5,0.5 h -13 a 0.5,0.5 0 0 1 -0.5,-0.5 v -13 a 0.5,0.5 0 0 1 0.5,-0.5 z"
       id="path145" />
    <path
       style="font-size:12px;display:inline;fill:none;fill-rule:evenodd;stroke:#ffffff;stroke-width:0.1;stroke-linecap:round;stroke-dasharray:none;stroke-opacity:1"
       d="m 218.59988,62.126075 h 13 a 0.5,0.5 0 0 1 0.5,0.5 v 13 a 0.5,0.5 0 0 1 -0.5,0.5 h -13 a 0.5,0.5 0 0 1 -0.5,-0.5 v -13 a 0.5,0.5 0 0 1 0.5,-0.5 z"
       id="path144" />
    <path
       style="font-size:12px;display:inline;fill:none;fill-rule:evenodd;stroke:#ffffff;stroke-width:0.1;stroke-linecap:round;stroke-dasharray:none;stroke-opacity:1"
       d="m 199.54988,62.126075 h 13 a 0.5,0.5 0 0 1 0.5,0.5 v 13 a 0.5,0.5 0 0 1 -0.5,0.5 h -13 a 0.5,0.5 0 0 1 -0.5,-0.5 v -13 a 0.5,0.5 0 0 1 0.5,-0.5 z"
       id="path143" />
    <path
       style="font-size:12px;display:inline;fill:none;fill-rule:evenodd;stroke:#ffffff;stroke-width:0.1;stroke-linecap:round;stroke-dasharray:none;stroke-opacity:1"
       d="m 180.49988,62.126075 h 13 a 0.5,0.5 0 0 1 0.5,0.5 v 13 a 0.5,0.5 0 0 1 -0.5,0.5 h -13 a 0.5,0.5 0 0 1 -0.5,-0.5 v -13 a 0.5,0.5 0 0 1 0.5,-0.5 z"
       id="path142" />
    <path
       style="font-size:12px;display:inline;fill:none;fill-rule:evenodd;stroke:#ffffff;stroke-width:0.1;stroke-linecap:round;stroke-dasharray:none;stroke-opacity:1"
       d="m 161.44988,62.126075 h 13 a 0.5,0.5 0 0 1 0.5,0.5 v 13 a 0.5,0.5 0 0 1 -0.5,0.5 h -13 a 0.5,0.5 0 0 1 -0.5,-0.5 v -13 a 0.5,0.5 0 0 1 0.5,-0.5 z"
       id="path141" />
    <path
       style="font-size:12px;display:inline;fill:none;fill-rule:evenodd;stroke:#ffffff;stroke-width:0.1;stroke-linecap:round;stroke-dasharray:none;stroke-opacity:1"
       d="m 142.39988,62.126075 h 13 a 0.5,0.5 0 0 1 0.5,0.5 v 13 a 0.5,0.5 0 0 1 -0.5,0.5 h -13 a 0.5,0.5 0 0 1 -0.5,-0.5 v -13 a 0.5,0.5 0 0 1 0.5,-0.5 z"
       id="path140" />
    <path
       style="font-size:12px;display:inline;fill:none;fill-rule:evenodd;stroke:#ffffff;stroke-width:0.1;stroke-linecap:round;stroke-dasharray:none;stroke-opacity:1"
       d="m 123.34988,62.126075 h 13 a 0.5,0.5 0 0 1 0.5,0.5 v 13 a 0.5,0.5 0 0 1 -0.5,0.5 h -13 a 0.5,0.5 0 0 1 -0.5,-0.5 v -13 a 0.5,0.5 0 0 1 0.5,-0.5 z"
       id="path139" />
    <path
       style="font-size:12px;display:inline;fill:none;fill-rule:evenodd;stroke:#ffffff;stroke-width:0.1;stroke-linecap:round;stroke-dasharray:none;stroke-opacity:1"
       d="m 104.29988,62.126075 h 13 a 0.5,0.5 0 0 1 0.5,0.5 v 13 a 0.5,0.5 0 0 1 -0.5,0.5 h -13 a 0.5,0.5 0 0 1 -0.5,-0.5 v -13 a 0.5,0.5 0 0 1 0.5,-0.5 z"
       id="path138" />
    <path
       style="font-size:12px;display:inline;fill:none;fill-rule:evenodd;stroke:#ffffff;stroke-width:0.1;stroke-linecap:round;stroke-dasharray:none;stroke-opacity:1"
       d="M 85.249878,62.126075 H 98.24988 a 0.5,0.5 0 0 1 0.5,0.5 v 13 a 0.5,0.5 0 0 1 -0.5,0.5 H 85.249878 a 0.5,0.5 0 0 1 -0.5,-0.5 v -13 a 0.5,0.5 0 0 1 0.5,-0.5 z"
       id="path137" />
    <path
       style="font-size:12px;display:inline;fill:none;fill-rule:evenodd;stroke:#ffffff;stroke-width:0.1;stroke-linecap:round;stroke-dasharray:none;stroke-opacity:1"
       d="m 66.199878,62.126075 h 13 a 0.5,0.5 0 0 1 0.5,0.5 v 13 a 0.5,0.5 0 0 1 -0.5,0.5 h -13 a 0.5,0.5 0 0 1 -0.5,-0.5 v -13 a 0.5,0.5 0 0 1 0.5,-0.5 z"
       id="path136" />
    <path
       style="font-size:12px;display:inline;fill:none;fill-rule:evenodd;stroke:#ffffff;stroke-width:0.1;stroke-linecap:round;stroke-dasharray:none;stroke-opacity:1"
       d="m 47.149878,62.126075 h 13 a 0.5,0.5 0 0 1 0.5,0.5 v 13 a 0.5,0.5 0 0 1 -0.5,0.5 h -13 a 0.5,0.5 0 0 1 -0.5,-0.5 v -13 a 0.5,0.5 0 0 1 0.5,-0.5 z"
       id="path135" />
    <path
       style="font-size:12px;display:inline;fill:none;fill-rule:evenodd;stroke:#ffffff;stroke-width:0.1;stroke-linecap:round;stroke-dasharray:none;stroke-opacity:1"
       d="m 23.337878,62.126075 h 13 a 0.5,0.5 0 0 1 0.5,0.5 v 13 a 0.5,0.5 0 0 1 -0.5,0.5 h -13 a 0.5,0.5 0 0 1 -0.5,-0.5 v -13 a 0.5,0.5 0 0 1 0.5,-0.5 z"
       id="path134" />
    <path
       style="font-size:12px;display:inline;fill:none;fill-rule:evenodd;stroke:#ffffff;stroke-width:0.1;stroke-linecap:round;stroke-dasharray:none;stroke-opacity:1"
       d="m 347.18788,43.076075 h 13 a 0.5,0.5 0 0 1 0.5,0.5 v 13 a 0.5,0.5 0 0 1 -0.5,0.5 h -13 a 0.5,0.5 0 0 1 -0.5,-0.5 v -13 a 0.5,0.5 0 0 1 0.5,-0.5 z"
       id="path133" />
    <path
       style="font-size:12px;display:inline;fill:none;fill-rule:evenodd;stroke:#ffffff;stroke-width:0.1;stroke-linecap:round;stroke-dasharray:none;stroke-opacity:1"
       d="m 328.13788,43.076075 h 13 a 0.5,0.5 0 0 1 0.5,0.5 v 13 a 0.5,0.5 0 0 1 -0.5,0.5 h -13 a 0.5,0.5 0 0 1 -0.5,-0.5 v -13 a 0.5,0.5 0 0 1 0.5,-0.5 z"
       id="path132" />
    <path
       style="font-size:12px;display:inline;fill:none;fill-rule:evenodd;stroke:#ffffff;stroke-width:0.1;stroke-linecap:round;stroke-dasharray:none;stroke-opacity:1"
       d="m 309.08788,43.076075 h 13 a 0.5,0.5 0 0 1 0.5,0.5 v 13 a 0.5,0.5 0 0 1 -0.5,0.5 h -13 a 0.5,0.5 0 0 1 -0.5,-0.5 v -13 a 0.5,0.5 0 0 1 0.5,-0.5 z"
       id="path131" />
    <path
       style="font-size:12px;display:inline;fill:none;fill-rule:evenodd;stroke:#ffffff;stroke-width:0.1;stroke-linecap:round;stroke-dasharray:none;stroke-opacity:1"
       d="m 247.17488,43.076075 h 13 a 0.5,0.5 0 0 1 0.5,0.5 v 13 a 0.5,0.5 0 0 1 -0.5,0.5 h -13 a 0.5,0.5 0 0 1 -0.5,-0.5 v -13 a 0.5,0.5 0 0 1 0.5,-0.5 z"
       id="path129" />
    <path
       style="font-size:12px;display:inline;fill:none;fill-rule:evenodd;stroke:#ffffff;stroke-width:0.1;stroke-linecap:round;stroke-dasharray:none;stroke-opacity:1"
       d="m 228.12488,43.076075 h 13 a 0.5,0.5 0 0 1 0.5,0.5 v 13 a 0.5,0.5 0 0 1 -0.5,0.5 h -13 a 0.5,0.5 0 0 1 -0.5,-0.5 v -13 a 0.5,0.5 0 0 1 0.5,-0.5 z"
       id="path128" />
    <path
       style="font-size:12px;display:inline;fill:none;fill-rule:evenodd;stroke:#ffffff;stroke-width:0.1;stroke-linecap:round;stroke-dasharray:none;stroke-opacity:1"
       d="m 209.07488,43.076075 h 13 a 0.5,0.5 0 0 1 0.5,0.5 v 13 a 0.5,0.5 0 0 1 -0.5,0.5 h -13 a 0.5,0.5 0 0 1 -0.5,-0.5 v -13 a 0.5,0.5 0 0 1 0.5,-0.5 z"
       id="path127" />
    <path
       style="font-size:12px;display:inline;fill:none;fill-rule:evenodd;stroke:#ffffff;stroke-width:0.1;stroke-linecap:round;stroke-dasharray:none;stroke-opacity:1"
       d="m 190.02488,43.076075 h 13 a 0.5,0.5 0 0 1 0.5,0.5 v 13 a 0.5,0.5 0 0 1 -0.5,0.5 h -13 a 0.5,0.5 0 0 1 -0.5,-0.5 v -13 a 0.5,0.5 0 0 1 0.5,-0.5 z"
       id="path126" />
    <path
       style="font-size:12px;display:inline;fill:none;fill-rule:evenodd;stroke:#ffffff;stroke-width:0.1;stroke-linecap:round;stroke-dasharray:none;stroke-opacity:1"
       d="m 170.97488,43.076075 h 13 a 0.5,0.5 0 0 1 0.5,0.5 v 13 a 0.5,0.5 0 0 1 -0.5,0.5 h -13 a 0.5,0.5 0 0 1 -0.5,-0.5 v -13 a 0.5,0.5 0 0 1 0.5,-0.5 z"
       id="path125" />
    <path
       style="font-size:12px;display:inline;fill:none;fill-rule:evenodd;stroke:#ffffff;stroke-width:0.1;stroke-linecap:round;stroke-dasharray:none;stroke-opacity:1"
       d="m 151.92488,43.076075 h 13 a 0.5,0.5 0 0 1 0.5,0.5 v 13 a 0.5,0.5 0 0 1 -0.5,0.5 h -13 a 0.5,0.5 0 0 1 -0.5,-0.5 v -13 a 0.5,0.5 0 0 1 0.5,-0.5 z"
       id="path124" />
    <path
       style="font-size:12px;display:inline;fill:none;fill-rule:evenodd;stroke:#ffffff;stroke-width:0.1;stroke-linecap:round;stroke-dasharray:none;stroke-opacity:1"
       d="m 113.82488,43.076075 h 13 a 0.5,0.5 0 0 1 0.5,0.5 v 13 a 0.5,0.5 0 0 1 -0.5,0.5 h -13 a 0.5,0.5 0 0 1 -0.5,-0.5 v -13 a 0.5,0.5 0 0 1 0.5,-0.5 z"
       id="path123" />
    <path
       style="font-size:12px;display:inline;fill:none;fill-rule:evenodd;stroke:#ffffff;stroke-width:0.1;stroke-linecap:round;stroke-dasharray:none;stroke-opacity:1"
       d="m 94.77488,43.076075 h 13 a 0.5,0.5 0 0 1 0.5,0.5 v 13 a 0.5,0.5 0 0 1 -0.5,0.5 h -13 a 0.5,0.5 0 0 1 -0.5,-0.5 v -13 a 0.5,0.5 0 0 1 0.5,-0.5 z"
       id="path122" />
    <path
       style="font-size:12px;display:inline;fill:none;fill-rule:evenodd;stroke:#ffffff;stroke-width:0.1;stroke-linecap:round;stroke-dasharray:none;stroke-opacity:1"
       d="m 75.724878,43.076075 h 13 a 0.5,0.5 0 0 1 0.5,0.5 v 13 a 0.5,0.5 0 0 1 -0.5,0.5 h -13 a 0.5,0.5 0 0 1 -0.5,-0.5 v -13 a 0.5,0.5 0 0 1 0.5,-0.5 z"
       id="path121" />
    <path
       style="font-size:12px;display:inline;fill:none;fill-rule:evenodd;stroke:#ffffff;stroke-width:0.1;stroke-linecap:round;stroke-dasharray:none;stroke-opacity:1"
       d="m 56.674878,43.076075 h 13 a 0.5,0.5 0 0 1 0.5,0.5 v 13 a 0.5,0.5 0 0 1 -0.5,0.5 h -13 a 0.5,0.5 0 0 1 -0.5,-0.5 v -13 a 0.5,0.5 0 0 1 0.5,-0.5 z"
       id="path120" />
    <path
       style="font-size:12px;display:inline;fill:none;fill-rule:evenodd;stroke:#ffffff;stroke-width:0.1;stroke-linecap:round;stroke-dasharray:none;stroke-opacity:1"
       d="m 37.624878,43.076075 h 13 a 0.5,0.5 0 0 1 0.5,0.5 v 13 a 0.5,0.5 0 0 1 -0.5,0.5 h -13 a 0.5,0.5 0 0 1 -0.5,-0.5 v -13 a 0.5,0.5 0 0 1 0.5,-0.5 z"
       id="path119" />
    <path
       style="font-size:12px;display:inline;fill:none;fill-rule:evenodd;stroke:#ffffff;stroke-width:0.1;stroke-linecap:round;stroke-dasharray:none;stroke-opacity:1"
       d="m 174.47488,117.27608 h 6 a 0.5,0.5 0 0 1 0.5,0.5 v 14 a 0.5,0.5 0 0 1 -0.5,0.5 h -6 a 0.5,0.5 0 0 1 -0.5,-0.5 v -14 a 0.5,0.5 0 0 1 0.5,-0.5 z"
       id="path128-8" />
    <path
       style="font-size:12px;display:inline;fill:none;fill-rule:evenodd;stroke:#ffffff;stroke-width:0.1;stroke-linecap:round;stroke-dasharray:none;stroke-opacity:1"
       d="m 113.82488,119.27608 h 13 a 0.5,0.5 0 0 1 0.5,0.5 v 13 a 0.5,0.5 0 0 1 -0.5,0.5 h -13 a 0.5,0.5 0 0 1 -0.5,-0.5 v -13 a 0.5,0.5 0 0 1 0.5,-0.5 z"
       id="path79" />
  </g>
  <g
     inkscape:groupmode="layer"
     id="g27"
     inkscape:label="Case-FRL"
     style="display:inline">
    <rect
       style="display:inline;fill:#7f7f7f;fill-opacity:0.248963;stroke:#ff00ff;stroke-width:0.0911037"
       id="rect7"
       width="359.60889"
       height="118.59589"
       x="9.8455515"
       y="28.65855"
       rx="2.9999998"
       ry="2.9999998"
       inkscape:label="wall-outter"
       sodipodi:insensitive="true" />
    <rect
       style="display:inline;fill:none;fill-opacity:0.248963;stroke:#ff00fe;stroke-width:0.0895358;stroke-opacity:1"
       id="rect6"
       width="348.81046"
       height="97.797462"
       x="15.244767"
       y="39.05777"
       rx="0.99999988"
       ry="1"
       inkscape:label="wall-inner"
       sodipodi:insensitive="true" />
    <rect
       style="display:inline;fill:none;fill-opacity:0.248963;stroke:#ff00fe;stroke-width:0.0895358;stroke-opacity:1"
       id="rect21"
       width="348.81046"
       height="95.797462"
       x="15.244767"
       y="40.05777"
       rx="0.99999988"
       ry="0.99999994"
       inkscape:label="wall-inner-top" />
    <rect
       style="fill:none;fill-opacity:0.369231;stroke:#ffff00;stroke-width:0.1;stroke-opacity:1"
       id="rect8"
       width="40.5"
       height="6.039"
       x="20.299999"
       y="34.112999"
       rx="1"
       ry="1"
       inkscape:label="gasket-1" />
    <rect
       style="display:inline;fill:none;fill-opacity:0.0108108;stroke:#ffff00;stroke-width:0.1;stroke-opacity:1"
       id="rect12"
       width="40.5"
       height="6.039"
       x="119.3"
       y="34.112999"
       rx="1"
       ry="1"
       inkscape:label="gasket-2" />
    <rect
       style="display:inline;fill:none;fill-opacity:0.0108108;stroke:#ffff00;stroke-width:0.1;stroke-opacity:1"
       id="rect13"
       width="40.5"
       height="6.039"
       x="218.3"
       y="34.112999"
       rx="1"
       ry="1"
       inkscape:label="gasket-3" />
    <rect
       style="display:inline;fill:none;fill-opacity:0.0108108;stroke:#ffff00;stroke-width:0.1;stroke-opacity:1"
       id="rect14"
       width="40.5"
       height="6.039"
       x="317.29999"
       y="34.112999"
       rx="1"
       ry="1"
       inkscape:label="gasket-4" />
    <rect
       style="fill:none;fill-opacity:0.0108108;stroke:#ffff00;stroke-width:0.1;stroke-opacity:1"
       id="rect9"
       width="40.5"
       height="6.039"
       x="33.299999"
       y="135.8"
       rx="1"
       ry="1"
       inkscape:label="gasket-5" />
    <rect
       style="fill:none;fill-opacity:0.0108108;stroke:#ffff00;stroke-width:0.1;stroke-opacity:1"
       id="rect10"
       width="40.5"
       height="6.039"
       x="231.3"
       y="135.8"
       rx="1"
       ry="1"
       inkscape:label="gasket-6" />
    <rect
       style="fill:none;fill-opacity:0.0108108;stroke:#ffff00;stroke-width:0.1;stroke-opacity:1"
       id="rect11"
       width="40.5"
       height="6.039"
       x="317.29999"
       y="135.8"
       rx="1"
       ry="1"
       inkscape:label="gasket-7" />
    <circle
       style="fill:none;fill-opacity:0.0108108;stroke:#ffff00;stroke-width:0.0999995;stroke-opacity:1"
       id="ellipse14"
       cx="15.000001"
       cy="34.313"
       inkscape:label="screw-1"
       r="1.3500003" />
    <ellipse
       style="display:inline;fill:none;fill-opacity:0.0108108;stroke:#ffff00;stroke-width:0.0999995;stroke-opacity:1"
       id="circle16"
       cx="113.49999"
       cy="34.313"
       inkscape:label="screw-2"
       rx="1.35"
       ry="1.3500003" />
    <ellipse
       style="display:inline;fill:none;fill-opacity:0.0108108;stroke:#ffff00;stroke-width:0.0999995;stroke-opacity:1"
       id="ellipse16"
       cx="265.20001"
       cy="34.313"
       rx="1.35"
       ry="1.3500003"
       inkscape:label="screw-3" />
    <ellipse
       style="fill:none;fill-opacity:0.0108108;stroke:#ffff00;stroke-width:0.0999995;stroke-opacity:1"
       id="ellipse15"
       cx="364.29996"
       cy="34.313"
       rx="1.35"
       ry="1.3500003"
       inkscape:label="screw-4" />
    <ellipse
       style="fill:none;fill-opacity:0.0108108;stroke:#ffff00;stroke-width:0.0999995;stroke-opacity:1"
       id="ellipse17"
       cx="15"
       cy="141.5"
       rx="1.35"
       ry="1.3500003"
       inkscape:label="screw-5" />
    <ellipse
       style="display:inline;fill:none;fill-opacity:0.0108108;stroke:#ffff00;stroke-width:0.0999995;stroke-opacity:1"
       id="circle19"
       cx="113.49999"
       cy="141.5"
       inkscape:label="screw-6"
       rx="1.35"
       ry="1.3500003" />
    <ellipse
       style="display:inline;fill:none;fill-opacity:0.0108108;stroke:#ffff00;stroke-width:0.0999995;stroke-opacity:1"
       id="ellipse19"
       cx="225.19998"
       cy="141.5"
       rx="1.35"
       ry="1.3500003"
       inkscape:label="screw-7" />
    <ellipse
       style="fill:none;fill-opacity:0.0108108;stroke:#ffff00;stroke-width:0.0999995;stroke-opacity:1"
       id="ellipse18"
       cx="364.29999"
       cy="141.5"
       rx="1.35"
       ry="1.3500003"
       inkscape:label="screw-8" />
    <ellipse
       style="display:inline;fill:none;fill-opacity:0.0108108;stroke:#ffab00;stroke-width:0.0999997;stroke-opacity:1"
       id="ellipse1"
       cx="14.999999"
       cy="34.313"
       inkscape:label="insert-1"
       rx="1.8000001"
       ry="1.8000002" />
    <ellipse
       style="display:inline;fill:none;fill-opacity:0.0108108;stroke:#ffab00;stroke-width:0.0999997;stroke-opacity:1"
       id="circle1"
       cx="113.5"
       cy="34.313"
       inkscape:label="insert-2"
       rx="1.8000001"
       ry="1.8000002" />
    <ellipse
       style="display:inline;fill:none;fill-opacity:0.0108108;stroke:#ffab00;stroke-width:0.0999997;stroke-opacity:1"
       id="ellipse2"
       cx="265.20001"
       cy="34.313"
       inkscape:label="insert-3"
       rx="1.8000001"
       ry="1.8000002" />
    <ellipse
       style="display:inline;fill:none;fill-opacity:0.0108108;stroke:#ffab00;stroke-width:0.0999997;stroke-opacity:1"
       id="ellipse4"
       cx="364.29999"
       cy="34.313"
       inkscape:label="insert-4"
       rx="1.8000001"
       ry="1.8000002" />
    <ellipse
       style="display:inline;fill:none;fill-opacity:0.0108108;stroke:#ffab00;stroke-width:0.0999997;stroke-opacity:1"
       id="ellipse5"
       cx="15"
       cy="141.5"
       inkscape:label="insert-5"
       rx="1.8000001"
       ry="1.8000002" />
    <ellipse
       style="display:inline;fill:none;fill-opacity:0.0108108;stroke:#ffab00;stroke-width:0.0999997;stroke-opacity:1"
       id="circle5"
       cx="113.5"
       cy="141.5"
       inkscape:label="insert-6"
       rx="1.8000001"
       ry="1.8000002" />
    <ellipse
       style="display:inline;fill:none;fill-opacity:0.0108108;stroke:#ffab00;stroke-width:0.0999997;stroke-opacity:1"
       id="ellipse6"
       cx="225.2"
       cy="141.5"
       inkscape:label="insert-7"
       rx="1.8000001"
       ry="1.8000002" />
    <ellipse
       style="display:inline;fill:none;fill-opacity:0.0108108;stroke:#ffab00;stroke-width:0.0999997;stroke-opacity:1"
       id="ellipse7"
       cx="364.29999"
       cy="141.5"
       inkscape:label="insert-8"
       rx="1.8000001"
       ry="1.8000002" />
    <rect
       style="display:inline;fill:#7f7f7f;fill-opacity:0.15;stroke:#06ff00;stroke-width:0.1;stroke-opacity:1"
       id="rect12-3-9"
       width="357.59998"
       height="25.099998"
       x="11.049999"
       y="29.862999"
       rx="2.5"
       ry="2.5"
       inkscape:label="foot-1"
       sodipodi:insensitive="true" />
    <rect
       style="display:inline;fill:#7f7f7f;fill-opacity:0.15;stroke:#06ff00;stroke-width:0.0999999;stroke-opacity:1"
       id="rect36"
       width="357.59998"
       height="35.100002"
       x="11.049999"
       y="29.862999"
       rx="2.5"
       ry="2.5"
       inkscape:label="foot-2"
       sodipodi:insensitive="true" />
    <rect
       style="display:inline;fill:none;fill-opacity:0.0108108;stroke:#ffff00;stroke-width:0.1;stroke-opacity:1"
       id="rect12-3"
       width="21.276196"
       height="23.563002"
       x="177.32745"
       y="25.060324"
       rx="2"
       ry="2.0000002"
       inkscape:label="db-cutout" />
    <ellipse
       style="display:inline;fill:none;fill-opacity:0.0108108;stroke:#ffab00;stroke-width:0.0999999;stroke-opacity:1"
       id="ellipse18-2"
       cx="180.10001"
       cy="32.48"
       rx="1.4499999"
       ry="1.45"
       inkscape:label="insert-db-1"
       sodipodi:insensitive="true" />
    <ellipse
       style="display:inline;fill:none;fill-opacity:0.0108108;stroke:#ffab00;stroke-width:0.0999999;stroke-opacity:1"
       id="ellipse18-2-8"
       cx="195.614"
       cy="32.48"
       rx="1.4499999"
       ry="1.45"
       inkscape:label="insert-db-2"
       sodipodi:insensitive="true" />
    <rect
       style="display:inline;fill:#7f7f7f;fill-opacity:0.248963;stroke:#ff00ff;stroke-width:0.1;stroke-opacity:1"
       id="rect35"
       width="4.0620003"
       height="98.026596"
       x="301.89999"
       y="39.053387"
       inkscape:label="top-1" />
    <rect
       style="display:inline;fill:#7f7f7f;fill-opacity:0.248963;stroke:#ff00ff;stroke-width:0.1;stroke-opacity:1"
       id="rect34"
       width="19.15"
       height="19.15"
       x="305.862"
       y="97.011993"
       inkscape:label="top-2" />
    <rect
       style="display:inline;fill:#7f7f7f;fill-opacity:0.248963;stroke:#ff00ff;stroke-width:0.1;stroke-opacity:1"
       id="rect33"
       width="19.25"
       height="19.15"
       x="344.76199"
       y="97.011993"
       inkscape:label="top-3" />
    <rect
       style="display:inline;fill:#7f7f7f;fill-opacity:0.248963;stroke:#ff00ff;stroke-width:0.1;stroke-opacity:1"
       id="rect32"
       width="58.10907"
       height="18.35"
       x="305.95526"
       y="78.762001"
       inkscape:label="top-4" />
    <rect
       style="display:inline;fill:#7f7f7f;fill-opacity:0.248963;stroke:#ff00ff;stroke-width:0.0999998;stroke-opacity:1"
       id="rect23"
       width="18.35"
       height="20"
       x="44.424999"
       y="116.862"
       inkscape:label="top-blocker-1" />
    <rect
       style="display:inline;fill:#7f7f7f;fill-opacity:0.248963;stroke:#ff00ff;stroke-width:0.0999999;stroke-opacity:1"
       id="rect25-6-3"
       width="18.35"
       height="20"
       x="253.97501"
       y="116.86199"
       inkscape:label="top-blocker-2" />
    <rect
       style="display:inline;fill:none;fill-opacity:0.595833;stroke:#ffff00;stroke-width:0.1;stroke-opacity:1"
       id="rect19"
       width="6.5"
       height="5.5"
       x="344.5"
       y="87.599998"
       ry="1"
       rx="1"
       inkscape:label="rst-cutout" />
    <rect
       style="fill:#ffffff;fill-opacity:0.367128;stroke-width:0.1"
       id="rect1"
       width="20.5"
       height="14"
       x="177.63298"
       y="29.900965" />
    <circle
       style="fill:#ffffff;fill-opacity:0.367128;stroke-width:0.0999997"
       id="path1"
       cx="195.63399"
       cy="32.460106"
       r="1.25" />
    <circle
       style="display:inline;fill:#ffffff;fill-opacity:0.367128;stroke-width:0.0999997"
       id="path1-0"
       cx="180.13399"
       cy="32.460106"
       r="1.25"
       inkscape:transform-center-x="-0.82682403" />
  </g>
  <g
     inkscape:groupmode="layer"
     id="layer1"
     inkscape:label="foot-2">
    <path
       id="rect36-5"
       style="display:inline;fill:none;fill-opacity:0.15;stroke:#00ffff;stroke-width:0.0999999;stroke-opacity:1"
       inkscape:label="foot-2"
       d="m 13.050366,29.662789 c -1.38499,0 -2.500106,1.115114 -2.500106,2.500106 v 30.499947 c 0,1.384984 1.115116,2.500106 2.500106,2.500106 h 25.054619 a 4.3881986,4.3881986 145.64146 0 0 4.088921,-2.795398 l 1.717527,-4.409111 a 4.3881986,4.3881986 145.64146 0 1 4.088921,-2.795398 l 31.199797,0 a 4.3881986,4.3881986 34.358535 0 1 4.088921,2.795398 l 1.717527,4.409111 a 4.3881986,4.3881986 34.358535 0 0 4.088921,2.795398 H 289.0783 a 4.3879864,4.3879864 145.64017 0 0 4.08879,-2.795447 l 1.71727,-4.409013 a 4.3879864,4.3879864 145.64017 0 1 4.08879,-2.795447 h 31.20031 a 4.3879864,4.3879864 34.359826 0 1 4.08879,2.795447 l 1.71727,4.409013 a 4.3879864,4.3879864 34.359826 0 0 4.08879,2.795447 h 25.58172 c 1.385,0 2.50011,-1.115122 2.50011,-2.500106 V 32.162895 c 0,-1.384992 -1.11511,-2.500106 -2.50011,-2.500106 z m 1.650029,3.300057 c 0.745619,1.17e-4 1.349956,0.604686 1.349788,1.350305 -1.17e-4,0.745417 -0.604371,1.349671 -1.349788,1.349788 -0.745621,1.68e-4 -1.350188,-0.604169 -1.350305,-1.349788 -1.68e-4,-0.745821 0.604482,-1.350473 1.350305,-1.350305 z m 98.799655,0 c 0.74562,1.16e-4 1.34996,0.604685 1.34979,1.350305 -1.2e-4,0.745418 -0.60437,1.349672 -1.34979,1.349788 -0.74562,1.71e-4 -1.35019,-0.604167 -1.35031,-1.349788 -1.7e-4,-0.745823 0.60449,-1.350476 1.35031,-1.350305 z m 151.69978,0 c 0.74582,-1.71e-4 1.35048,0.604482 1.35031,1.350305 -1.2e-4,0.745621 -0.60469,1.349959 -1.35031,1.349788 -0.74542,-1.16e-4 -1.34967,-0.60437 -1.34979,-1.349788 -1.7e-4,-0.74562 0.60417,-1.350189 1.34979,-1.350305 z m 98.80017,0 c 0.74582,-1.71e-4 1.35048,0.604482 1.35031,1.350305 -1.2e-4,0.745621 -0.60469,1.349959 -1.35031,1.349788 -0.74542,-1.21e-4 -1.34966,-0.604374 -1.34978,-1.349788 -1.7e-4,-0.745616 0.60416,-1.350184 1.34978,-1.350305 z M 179.72883,31.110423 c 0.71811,-9.9e-5 1.30028,0.582071 1.30018,1.300179 -1.9e-4,0.717909 -0.58227,1.299762 -1.30018,1.299663 -0.71771,-1.88e-4 -1.29947,-0.581957 -1.29966,-1.299663 -1e-4,-0.717905 0.58175,-1.299991 1.29966,-1.300179 z m 15.50025,0 c 0.71811,-9.9e-5 1.30028,0.582071 1.30018,1.300179 -1.9e-4,0.717909 -0.58227,1.299762 -1.30018,1.299663 -0.71788,9.4e-5 -1.29998,-0.581758 -1.30017,-1.299663 -1e-4,-0.718104 0.58208,-1.300273 1.30017,-1.300179 z"
       inkscape:path-effect="#path-effect1"
       inkscape:original-d="m 13.050366,29.662789 c -1.38499,0 -2.500106,1.115114 -2.500106,2.500106 v 30.499947 c 0,1.384984 1.115116,2.500106 2.500106,2.500106 h 28.054619 l 3.895369,-9.999907 h 37.199797 l 3.895369,9.999907 H 292.0783 l 3.89485,-9.999907 h 37.20031 l 3.89485,9.999907 h 28.58172 c 1.385,0 2.50011,-1.115122 2.50011,-2.500106 V 32.162895 c 0,-1.384992 -1.11511,-2.500106 -2.50011,-2.500106 z m 1.650029,3.300057 c 0.745619,1.17e-4 1.349956,0.604686 1.349788,1.350305 -1.17e-4,0.745417 -0.604371,1.349671 -1.349788,1.349788 -0.745621,1.68e-4 -1.350188,-0.604169 -1.350305,-1.349788 -1.68e-4,-0.745821 0.604482,-1.350473 1.350305,-1.350305 z m 98.799655,0 c 0.74562,1.16e-4 1.34996,0.604685 1.34979,1.350305 -1.2e-4,0.745418 -0.60437,1.349672 -1.34979,1.349788 -0.74562,1.71e-4 -1.35019,-0.604167 -1.35031,-1.349788 -1.7e-4,-0.745823 0.60449,-1.350476 1.35031,-1.350305 z m 151.69978,0 c 0.74582,-1.71e-4 1.35048,0.604482 1.35031,1.350305 -1.2e-4,0.745621 -0.60469,1.349959 -1.35031,1.349788 -0.74542,-1.16e-4 -1.34967,-0.60437 -1.34979,-1.349788 -1.7e-4,-0.74562 0.60417,-1.350189 1.34979,-1.350305 z m 98.80017,0 c 0.74582,-1.71e-4 1.35048,0.604482 1.35031,1.350305 -1.2e-4,0.745621 -0.60469,1.349959 -1.35031,1.349788 -0.74542,-1.21e-4 -1.34966,-0.604374 -1.34978,-1.349788 -1.7e-4,-0.745616 0.60416,-1.350184 1.34978,-1.350305 z M 179.72883,31.110423 c 0.71811,-9.9e-5 1.30028,0.582071 1.30018,1.300179 -1.9e-4,0.717909 -0.58227,1.299762 -1.30018,1.299663 -0.71771,-1.88e-4 -1.29947,-0.581957 -1.29966,-1.299663 -1e-4,-0.717905 0.58175,-1.299991 1.29966,-1.300179 z m 15.50025,0 c 0.71811,-9.9e-5 1.30028,0.582071 1.30018,1.300179 -1.9e-4,0.717909 -0.58227,1.299762 -1.30018,1.299663 -0.71788,9.4e-5 -1.29998,-0.581758 -1.30017,-1.299663 -1e-4,-0.718104 0.58208,-1.300273 1.30017,-1.300179 z"
       transform="translate(0.37091357,0.06965633)"
       sodipodi:nodetypes="ssssccccccccssssscccccccccccscscssssscccccccccc" />
  </g>
  <g
     inkscape:groupmode="layer"
     id="layer3"
     inkscape:label="foot1">
    <path
       id="rect12-3-9-4"
       style="display:inline;fill:none;fill-opacity:0.15;stroke:#00ffff;stroke-width:0.0999999;stroke-opacity:1"
       inkscape:label="foot-1"
       d="m 13.421106,29.732 c -1.384994,0 -2.500106,1.115112 -2.500106,2.500106 v 20.50004 c 0,1.384994 1.115112,2.500106 2.500106,2.500106 H 366.02092 c 1.38499,0 2.50011,-1.115112 2.50011,-2.500106 v -20.50004 c 0,-1.384994 -1.11512,-2.500106 -2.50011,-2.500106 z m 1.650028,2.849955 c 0.994228,6.1e-5 1.800115,0.806178 1.79989,1.800407 -6.1e-5,0.994027 -0.805863,1.799829 -1.79989,1.79989 -0.994027,-6.1e-5 -1.799829,-0.805863 -1.79989,-1.79989 -2.25e-4,-0.994229 0.805662,-1.800346 1.79989,-1.800407 z m 98.799926,0 c 0.99423,6.1e-5 1.80011,0.806178 1.79989,1.800407 -6e-5,0.994027 -0.80586,1.799829 -1.79989,1.79989 -0.99403,-6.1e-5 -1.79983,-0.805863 -1.79989,-1.79989 -2.2e-4,-0.994229 0.80566,-1.800346 1.79989,-1.800407 z m 151.69978,0 c 0.99443,-2.26e-4 1.80063,0.805975 1.80041,1.800407 -6e-5,0.99423 -0.80618,1.800116 -1.80041,1.79989 -0.99403,-6.1e-5 -1.79983,-0.805863 -1.79989,-1.79989 -2.2e-4,-0.994229 0.80566,-1.800346 1.79989,-1.800407 z m 98.80005,0 c 0.99443,-2.26e-4 1.80063,0.805975 1.80041,1.800407 -7e-5,0.99423 -0.80619,1.800116 -1.80041,1.79989 -0.99403,-6.1e-5 -1.79983,-0.805863 -1.79989,-1.79989 -2.3e-4,-0.994229 0.80566,-1.800346 1.79989,-1.800407 z M 180.09974,31.180079 c 0.71811,-9.9e-5 1.30028,0.582069 1.30018,1.300179 -1.9e-4,0.717909 -0.58227,1.299762 -1.30018,1.299663 -0.71771,-1.88e-4 -1.29947,-0.581957 -1.29966,-1.299663 -1e-4,-0.717907 0.58175,-1.299991 1.29966,-1.300179 z m 15.50024,0 c 0.71811,-9.9e-5 1.30028,0.582069 1.3002,1.300179 -1.9e-4,0.717909 -0.58228,1.299762 -1.3002,1.299663 -0.71789,9.4e-5 -1.29997,-0.581758 -1.30016,-1.299663 -1.1e-4,-0.718106 0.58205,-1.300273 1.30016,-1.300179 z"
       sodipodi:nodetypes="ssssssssscccccccccccccccccccccccccccccc"
       inkscape:path-effect="#path-effect2"
       inkscape:original-d="m 13.421106,29.732 c -1.384994,0 -2.500106,1.115112 -2.500106,2.500106 v 20.50004 c 0,1.384994 1.115112,2.500106 2.500106,2.500106 H 366.02092 c 1.38499,0 2.50011,-1.115112 2.50011,-2.500106 v -20.50004 c 0,-1.384994 -1.11512,-2.500106 -2.50011,-2.500106 z m 1.650028,2.849955 c 0.994228,6.1e-5 1.800115,0.806178 1.79989,1.800407 -6.1e-5,0.994027 -0.805863,1.799829 -1.79989,1.79989 -0.994027,-6.1e-5 -1.799829,-0.805863 -1.79989,-1.79989 -2.25e-4,-0.994229 0.805662,-1.800346 1.79989,-1.800407 z m 98.799926,0 c 0.99423,6.1e-5 1.80011,0.806178 1.79989,1.800407 -6e-5,0.994027 -0.80586,1.799829 -1.79989,1.79989 -0.99403,-6.1e-5 -1.79983,-0.805863 -1.79989,-1.79989 -2.2e-4,-0.994229 0.80566,-1.800346 1.79989,-1.800407 z m 151.69978,0 c 0.99443,-2.26e-4 1.80063,0.805975 1.80041,1.800407 -6e-5,0.99423 -0.80618,1.800116 -1.80041,1.79989 -0.99403,-6.1e-5 -1.79983,-0.805863 -1.79989,-1.79989 -2.2e-4,-0.994229 0.80566,-1.800346 1.79989,-1.800407 z m 98.80005,0 c 0.99443,-2.26e-4 1.80063,0.805975 1.80041,1.800407 -7e-5,0.99423 -0.80619,1.800116 -1.80041,1.79989 -0.99403,-6.1e-5 -1.79983,-0.805863 -1.79989,-1.79989 -2.3e-4,-0.994229 0.80566,-1.800346 1.79989,-1.800407 z M 180.09974,31.180079 c 0.71811,-9.9e-5 1.30028,0.582069 1.30018,1.300179 -1.9e-4,0.717909 -0.58227,1.299762 -1.30018,1.299663 -0.71771,-1.88e-4 -1.29947,-0.581957 -1.29966,-1.299663 -1e-4,-0.717907 0.58175,-1.299991 1.29966,-1.300179 z m 15.50024,0 c 0.71811,-9.9e-5 1.30028,0.582069 1.3002,1.300179 -1.9e-4,0.717909 -0.58228,1.299762 -1.3002,1.299663 -0.71789,9.4e-5 -1.29997,-0.581758 -1.30016,-1.299663 -1.1e-4,-0.718106 0.58205,-1.300273 1.30016,-1.300179 z" />
  </g>
  <g
     inkscape:groupmode="layer"
     id="layer2"
     inkscape:label="comparison">
    <path
       id="rect7-3"
       style="display:none;fill:none;fill-opacity:0.248963;stroke:#00ffff;stroke-width:0.0911037;stroke-opacity:1"
       inkscape:label="wall-outter"
       d="m 12.845886,28.658552 c -1.661987,0 -3.0003341,1.337831 -3.0003341,2.999817 V 144.25408 c 0,1.662 1.3383471,3.00034 3.0003341,3.00034 H 366.45425 c 1.66199,0 2.99982,-1.33834 2.99982,-3.00034 V 31.658369 c 0,-1.661986 -1.33783,-2.999817 -2.99982,-2.999817 z m 2.15439,4.30413 c 0.745621,1.17e-4 1.349956,0.604684 1.349788,1.350304 -1.17e-4,0.74542 -0.604369,1.34967 -1.349788,1.34979 -0.745621,1.7e-4 -1.350188,-0.60417 -1.350305,-1.34979 -1.68e-4,-0.74582 0.604482,-1.350472 1.350305,-1.350304 z m 98.799584,0 c 0.74562,1.16e-4 1.34996,0.604684 1.34979,1.350304 -1.2e-4,0.74542 -0.60437,1.34967 -1.34979,1.34979 -0.74562,1.7e-4 -1.35019,-0.60417 -1.35031,-1.34979 -1.7e-4,-0.74582 0.60449,-1.350475 1.35031,-1.350304 z m 151.69978,0 c 0.74581,-1.71e-4 1.35048,0.604484 1.3503,1.350304 -1.1e-4,0.74562 -0.60469,1.34996 -1.3503,1.34979 -0.74543,-1.2e-4 -1.34967,-0.60437 -1.34979,-1.34979 -1.8e-4,-0.74562 0.60417,-1.350188 1.34979,-1.350304 z m 98.7997,0 c 0.74582,-1.71e-4 1.35048,0.604484 1.35031,1.350304 -1.2e-4,0.74562 -0.60469,1.34996 -1.35031,1.34979 -0.74542,-1.2e-4 -1.34966,-0.60437 -1.34978,-1.34979 -1.7e-4,-0.74562 0.60416,-1.350183 1.34978,-1.350304 z M 16.245161,40.057856 H 301.9 V 135.85511 H 16.245161 c -0.553987,0 -1.000455,-0.44594 -1.000455,-0.99994 V 41.057796 c 0,-0.55399 0.446468,-0.99994 1.000455,-0.99994 z m 289.716609,0 h 57.09321 c 0.55387,0 0.99993,0.44595 0.99993,0.99994 v 37.70416 h -58.09314 z m 19.05,57.05388 h 19.75022 v 19.050004 h 19.29292 v 18.69343 c 0,0.554 -0.44606,0.99994 -0.99993,0.99994 h -57.09321 v -19.69337 h 19.05 z M 15.000276,140.14994 c 0.74542,1.2e-4 1.349672,0.60437 1.349788,1.34979 1.71e-4,0.74562 -0.604165,1.35019 -1.349788,1.35031 -0.745824,1.7e-4 -1.350476,-0.60449 -1.350305,-1.35031 1.16e-4,-0.74562 0.604684,-1.34996 1.350305,-1.34979 z m 98.799584,0 c 0.74542,1.2e-4 1.34967,0.60437 1.34979,1.34979 1.7e-4,0.74562 -0.60417,1.35019 -1.34979,1.35031 -0.74583,1.7e-4 -1.35048,-0.60448 -1.35031,-1.35031 1.2e-4,-0.74562 0.60469,-1.34996 1.35031,-1.34979 z m 111.70015,0 c 0.74542,1.2e-4 1.34967,0.60437 1.3498,1.34979 1.6e-4,0.74562 -0.60418,1.35019 -1.3498,1.35031 -0.74583,1.7e-4 -1.35048,-0.60448 -1.35031,-1.35031 1.2e-4,-0.74562 0.60469,-1.34996 1.35031,-1.34979 z m 138.79931,0 c 0.74562,-1.7e-4 1.35019,0.60417 1.35031,1.34979 1.7e-4,0.74583 -0.60448,1.35048 -1.35031,1.35031 -0.74561,-1.2e-4 -1.34994,-0.60469 -1.34978,-1.35031 1.2e-4,-0.74542 0.60436,-1.34967 1.34978,-1.34979 z"
       sodipodi:nodetypes="ssssssssscccccccccccscscssssssccsssscsscccccccsscccccccccccccccccccsssss"
       sodipodi:insensitive="true" />
    <path
       id="rect7-7"
       style="display:none;fill:none;fill-opacity:0.248963;stroke:#fffe00;stroke-width:0.0911037;stroke-opacity:1"
       inkscape:label="wall-outter"
       d="m 12.845892,28.658552 c -1.66199,0 -3.0003401,1.337833 -3.0003401,2.999817 V 144.25408 c 0,1.662 1.3383501,3.00034 3.0003401,3.00034 H 365.85483 c 1.662,0 2.99982,-1.33834 2.99982,-3.00034 V 31.658369 c 0,-1.661984 -1.33782,-2.999817 -2.99982,-2.999817 z m 2.15439,4.30413 a 1.3500003,1.3500003 0 0 1 1.34979,1.350305 1.3500003,1.3500003 0 0 1 -1.34979,1.349788 1.3500003,1.3500003 0 0 1 -1.35031,-1.349788 1.3500003,1.3500003 0 0 1 1.35031,-1.350305 z m 98.499928,0 a 1.35,1.3500003 0 0 1 1.34979,1.350305 1.35,1.3500003 0 0 1 -1.34979,1.349788 1.35,1.3500003 0 0 1 -1.35031,-1.349788 1.35,1.3500003 0 0 1 1.35031,-1.350305 z m 151.69978,0 a 1.35,1.3500003 0 0 1 1.35031,1.350305 1.35,1.3500003 0 0 1 -1.35031,1.349788 1.35,1.3500003 0 0 1 -1.34979,-1.349788 1.35,1.3500003 0 0 1 1.34979,-1.350305 z m 98.49993,0 a 1.35,1.3500003 0 0 1 1.35031,1.350305 1.35,1.3500003 0 0 1 -1.35031,1.349788 1.35,1.3500003 0 0 1 -1.34978,-1.349788 1.35,1.3500003 0 0 1 1.34978,-1.350305 z M 16.245162,40.057856 H 301.60036 V 135.85511 H 272.82537 V 116.8449 h -19.35024 v 19.01021 H 62.775142 v -18.99315 h -18.34979 v 18.99315 h -28.18019 c -0.55398,0 -1.00045,-0.44594 -1.00045,-0.99994 V 41.057795 c 0,-0.553985 0.44647,-0.999939 1.00045,-0.999939 z m 289.416958,0 h 56.79344 c 0.55385,0 0.99993,0.445954 0.99993,0.999939 v 37.704161 h -57.79337 z m 19.05,57.05388 h 19.75022 v 19.050004 h 18.99315 v 18.69343 c 0,0.554 -0.44608,0.99994 -0.99993,0.99994 h -56.79344 v -19.69337 h 19.05 z M 15.000282,140.14994 a 1.35,1.3500003 0 0 1 1.34979,1.34979 1.35,1.3500003 0 0 1 -1.34979,1.35031 1.35,1.3500003 0 0 1 -1.35031,-1.35031 1.35,1.3500003 0 0 1 1.35031,-1.34979 z m 98.499928,0 a 1.35,1.3500003 0 0 1 1.34979,1.34979 1.35,1.3500003 0 0 1 -1.34979,1.35031 1.35,1.3500003 0 0 1 -1.35031,-1.35031 1.35,1.3500003 0 0 1 1.35031,-1.34979 z m 111.70016,0 a 1.35,1.3500003 0 0 1 1.34979,1.34979 1.35,1.3500003 0 0 1 -1.34979,1.35031 1.35,1.3500003 0 0 1 -1.35031,-1.35031 1.35,1.3500003 0 0 1 1.35031,-1.34979 z m 138.49955,0 a 1.35,1.3500003 0 0 1 1.35031,1.34979 1.35,1.3500003 0 0 1 -1.35031,1.35031 1.35,1.3500003 0 0 1 -1.34978,-1.35031 1.35,1.3500003 0 0 1 1.34978,-1.34979 z"
       sodipodi:insensitive="true" />
  </g>
</svg>
