<?xml version="1.0" encoding="UTF-8" standalone="no"?>
<!-- Created with Inkscape (http://www.inkscape.org/) -->

<svg
   width="140mm"
   height="120mm"
   viewBox="0 0 140 119.99999"
   version="1.1"
   id="svg1"
   inkscape:version="1.3.2 (091e20e, 2023-11-25, custom)"
   sodipodi:docname="plate-waterjet.svg"
   xml:space="preserve"
   xmlns:inkscape="http://www.inkscape.org/namespaces/inkscape"
   xmlns:sodipodi="http://sodipodi.sourceforge.net/DTD/sodipodi-0.dtd"
   xmlns="http://www.w3.org/2000/svg"
   xmlns:svg="http://www.w3.org/2000/svg"><sodipodi:namedview
     id="namedview1"
     pagecolor="#ffffff"
     bordercolor="#000000"
     borderopacity="0.25"
     inkscape:showpageshadow="2"
     inkscape:pageopacity="0.0"
     inkscape:pagecheckerboard="0"
     inkscape:deskcolor="#d1d1d1"
     inkscape:document-units="mm"
     showgrid="true"
     inkscape:zoom="1.6122035"
     inkscape:cx="110.09777"
     inkscape:cy="227.32863"
     inkscape:window-width="1920"
     inkscape:window-height="1017"
     inkscape:window-x="-8"
     inkscape:window-y="-8"
     inkscape:window-maximized="1"
     inkscape:current-layer="layer1"><inkscape:grid
       id="grid1"
       units="mm"
       originx="0"
       originy="0"
       spacingx="0.99999998"
       spacingy="0.99999998"
       empcolor="#0099e5"
       empopacity="0.30196078"
       color="#0099e5"
       opacity="0.14901961"
       empspacing="5"
       dotted="false"
       gridanglex="30"
       gridanglez="30"
       visible="true" /></sodipodi:namedview><defs
     id="defs1"><linearGradient
       id="linearGradient24"
       inkscape:swatch="gradient"><stop
         style="stop-color:#000000;stop-opacity:1;"
         offset="0"
         id="stop25" /><stop
         style="stop-color:#000000;stop-opacity:0;"
         offset="1"
         id="stop26" /></linearGradient><linearGradient
       id="swatch20"
       inkscape:swatch="solid"><stop
         style="stop-color:#000000;stop-opacity:1;"
         offset="0"
         id="stop20" /></linearGradient><linearGradient
       id="swatch5"
       inkscape:swatch="solid"><stop
         style="stop-color:#3f3f3f;stop-opacity:1;"
         offset="0"
         id="stop5" /></linearGradient></defs><g
     inkscape:label="Layer 1"
     inkscape:groupmode="layer"
     id="layer1"><rect
       style="opacity:1;fill:#dbdbdb;fill-opacity:1;stroke:none;stroke-width:0.105115;stroke-dasharray:none;stroke-opacity:1"
       id="rect16"
       width="129"
       x="-1.7763568e-15"
       y="-1.7763568e-15"
       height="110"
       rx="6.0327353"
       ry="6.0411897"
       inkscape:label="case" /><g
       id="g26"
       inkscape:label="switch-cutout-locations"
       transform="translate(-9.12,-39.099905)"
       style="fill:#000000;fill-opacity:0.2"><path
         id="rect18"
         style="opacity:1;fill:#9a9a9a;fill-opacity:1;stroke:none;stroke-width:0;stroke-dasharray:none;stroke-dashoffset:0;stroke-opacity:1"
         inkscape:label="sc-00"
         d="m 18.5,49.00003 v 0.999939 l 0.499906,-1.25e-4 V 62.000145 H 18.5 v 0.999939 H 18.999906 33.000085 33.5 V 62.000145 H 33.000085 V 49.999844 H 33.5 V 48.999905 H 33.000085 18.999906 Z"
         sodipodi:nodetypes="ccccccccccccccccc" /><path
         id="path6"
         style="opacity:1;fill:#9a9a9a;fill-opacity:1;stroke:none;stroke-width:0;stroke-dasharray:none;stroke-dashoffset:0;stroke-opacity:1"
         inkscape:label="sc-01"
         d="m 28.55,10.000031 v 0.999939 l 0.499906,-1.25e-4 V 23.000146 H 28.55 v 0.999939 H 29.049906 43.050085 43.55 V 23.000146 H 43.050085 V 10.999845 H 43.55 V 9.999906 H 43.050085 29.049906 Z"
         sodipodi:nodetypes="ccccccccccccccccc"
         transform="translate(9,39)" /><path
         id="path7"
         style="opacity:1;fill:#9a9a9a;fill-opacity:1;stroke:none;stroke-width:0;stroke-dasharray:none;stroke-dashoffset:0;stroke-opacity:1"
         inkscape:label="sc-02"
         d="m 47.6,10.000031 v 0.999939 l 0.499906,-1.25e-4 V 23.000146 H 47.6 v 0.999939 H 48.099906 62.100085 62.6 V 23.000146 H 62.100085 V 10.999845 H 62.6 V 9.999906 H 62.100085 48.099906 Z"
         sodipodi:nodetypes="ccccccccccccccccc"
         transform="translate(9,39)" /><path
         id="path8"
         style="opacity:1;fill:#9a9a9a;fill-opacity:1;stroke:none;stroke-width:0;stroke-dasharray:none;stroke-dashoffset:0;stroke-opacity:1"
         inkscape:label="sc-03"
         d="m 66.65,10.000031 v 0.999939 l 0.499906,-1.25e-4 V 23.000146 H 66.65 v 0.999939 H 67.149906 81.150085 81.65 V 23.000146 H 81.150085 V 10.999845 H 81.65 V 9.999906 H 81.150085 67.149906 Z"
         sodipodi:nodetypes="ccccccccccccccccc"
         transform="translate(9,39)" /><path
         id="path9"
         style="opacity:1;fill:#9a9a9a;fill-opacity:1;stroke:none;stroke-width:0;stroke-dasharray:none;stroke-dashoffset:0;stroke-opacity:1"
         inkscape:label="sc-04"
         d="m 85.7,10.000031 v 0.999939 l 0.499906,-1.25e-4 V 23.000146 H 85.7 v 0.999939 H 86.199906 100.20009 100.7 v -0.999939 h -0.49991 V 10.999845 H 100.7 V 9.999906 h -0.49991 -14.000184 z"
         sodipodi:nodetypes="ccccccccccccccccc"
         transform="translate(9,39)" /><path
         id="path10"
         style="opacity:1;fill:#9a9a9a;fill-opacity:1;stroke:none;stroke-width:0;stroke-dasharray:none;stroke-dashoffset:0;stroke-opacity:1"
         inkscape:label="sc-05"
         d="m 104.75,10.000031 v 0.999939 l 0.49991,-1.25e-4 V 23.000146 H 104.75 v 0.999939 h 0.49991 14.00018 0.49991 v -0.999939 h -0.49991 V 10.999845 H 119.75 V 9.999906 h -0.49991 -14.00018 z"
         sodipodi:nodetypes="ccccccccccccccccc"
         transform="translate(9,39)" /><path
         id="path11"
         style="opacity:1;fill:#9a9a9a;fill-opacity:1;stroke:none;stroke-width:0;stroke-dasharray:none;stroke-dashoffset:0;stroke-opacity:1"
         inkscape:label="sc-10"
         d="m 9.5,29.050125 v 0.999939 l 0.499906,-1.25e-4 V 42.05024 H 9.5 v 0.999939 H 9.999906 24.000085 24.5 V 42.05024 H 24.000085 V 30.049939 H 24.5 V 29.05 H 24.000085 9.999906 Z"
         sodipodi:nodetypes="ccccccccccccccccc"
         transform="translate(9,39)" /><path
         id="path12"
         style="opacity:1;fill:#9a9a9a;fill-opacity:1;stroke:none;stroke-width:0;stroke-dasharray:none;stroke-dashoffset:0;stroke-opacity:1"
         inkscape:label="sc-11"
         d="m 28.55,29.050125 v 0.999939 l 0.499906,-1.25e-4 V 42.05024 H 28.55 v 0.999939 H 29.049906 43.050085 43.55 V 42.05024 H 43.050085 V 30.049939 H 43.55 V 29.05 H 43.050085 29.049906 Z"
         sodipodi:nodetypes="ccccccccccccccccc"
         transform="translate(9,39)" /><path
         id="path13"
         style="opacity:1;fill:#9a9a9a;fill-opacity:1;stroke:none;stroke-width:0;stroke-dasharray:none;stroke-dashoffset:0;stroke-opacity:1"
         inkscape:label="sc-12"
         d="m 47.6,29.050125 v 0.999939 l 0.499906,-1.25e-4 V 42.05024 H 47.6 v 0.999939 H 48.099906 62.100085 62.6 V 42.05024 H 62.100085 V 30.049939 H 62.6 V 29.05 H 62.100085 48.099906 Z"
         sodipodi:nodetypes="ccccccccccccccccc"
         transform="translate(9,39)" /><path
         id="path14"
         style="opacity:1;fill:#9a9a9a;fill-opacity:1;stroke:none;stroke-width:0;stroke-dasharray:none;stroke-dashoffset:0;stroke-opacity:1"
         inkscape:label="sc-13"
         d="m 66.65,29.050125 v 0.999939 l 0.499906,-1.25e-4 V 42.05024 H 66.65 v 0.999939 H 67.149906 81.150085 81.65 V 42.05024 H 81.150085 V 30.049939 H 81.65 V 29.05 H 81.150085 67.149906 Z"
         sodipodi:nodetypes="ccccccccccccccccc"
         transform="translate(9,39)" /><path
         id="path15"
         style="opacity:1;fill:#9a9a9a;fill-opacity:1;stroke:none;stroke-width:0;stroke-dasharray:none;stroke-dashoffset:0;stroke-opacity:1"
         inkscape:label="sc-14"
         d="m 85.7,29.050125 v 0.999939 l 0.499906,-1.25e-4 V 42.05024 H 85.7 v 0.999939 H 86.199906 100.20009 100.7 V 42.05024 h -0.49991 V 30.049939 H 100.7 V 29.05 h -0.49991 -14.000184 z"
         sodipodi:nodetypes="ccccccccccccccccc"
         transform="translate(9,39)" /><path
         id="path16"
         style="opacity:1;fill:#9a9a9a;fill-opacity:1;stroke:none;stroke-width:0;stroke-dasharray:none;stroke-dashoffset:0;stroke-opacity:1"
         inkscape:label="sc-15"
         d="m 104.75,29.050125 v 0.999939 l 0.49991,-1.25e-4 V 42.05024 H 104.75 v 0.999939 h 0.49991 14.00018 0.49991 V 42.05024 h -0.49991 V 30.049939 H 119.75 V 29.05 h -0.49991 -14.00018 z"
         sodipodi:nodetypes="ccccccccccccccccc"
         transform="translate(9,39)" /><path
         id="path17"
         style="opacity:1;fill:#9a9a9a;fill-opacity:1;stroke:none;stroke-width:0;stroke-dasharray:none;stroke-dashoffset:0;stroke-opacity:1"
         inkscape:label="sc-20"
         d="m 9.5,47.700125 v 0.999939 l 0.499906,-1.25e-4 V 60.70024 H 9.5 v 0.999939 H 9.999906 24.000085 24.5 V 60.70024 H 24.000085 V 48.699939 H 24.5 V 47.7 H 24.000085 9.999906 Z"
         sodipodi:nodetypes="ccccccccccccccccc"
         transform="translate(9,39)" /><path
         id="path18"
         style="opacity:1;fill:#9a9a9a;fill-opacity:1;stroke:none;stroke-width:0;stroke-dasharray:none;stroke-dashoffset:0;stroke-opacity:1"
         inkscape:label="sc-21"
         d="m 28.55,47.700125 v 0.999939 l 0.499906,-1.25e-4 V 60.70024 H 28.55 v 0.999939 H 29.049906 43.050085 43.55 V 60.70024 H 43.050085 V 48.699939 H 43.55 V 47.7 H 43.050085 29.049906 Z"
         sodipodi:nodetypes="ccccccccccccccccc"
         transform="translate(9,39)" /><path
         id="path19"
         style="opacity:1;fill:#9a9a9a;fill-opacity:1;stroke:none;stroke-width:0;stroke-dasharray:none;stroke-dashoffset:0;stroke-opacity:1"
         inkscape:label="sc-22"
         d="m 47.6,47.700125 v 0.999939 l 0.499906,-1.25e-4 V 60.70024 H 47.6 v 0.999939 H 48.099906 62.100085 62.6 V 60.70024 H 62.100085 V 48.699939 H 62.6 V 47.7 H 62.100085 48.099906 Z"
         sodipodi:nodetypes="ccccccccccccccccc"
         transform="translate(9,39)" /><path
         id="path20"
         style="opacity:1;fill:#9a9a9a;fill-opacity:1;stroke:none;stroke-width:0;stroke-dasharray:none;stroke-dashoffset:0;stroke-opacity:1"
         inkscape:label="sc-23"
         d="m 66.65,47.700125 v 0.999939 l 0.499906,-1.25e-4 V 60.70024 H 66.65 v 0.999939 H 67.149906 81.150085 81.65 V 60.70024 H 81.150085 V 48.699939 H 81.65 V 47.7 H 81.150085 67.149906 Z"
         sodipodi:nodetypes="ccccccccccccccccc"
         transform="translate(9,39)" /><path
         id="path21"
         style="opacity:1;fill:#9a9a9a;fill-opacity:1;stroke:none;stroke-width:0;stroke-dasharray:none;stroke-dashoffset:0;stroke-opacity:1"
         inkscape:label="sc-24"
         d="m 85.7,47.700125 v 0.999939 l 0.499906,-1.25e-4 V 60.70024 H 85.7 v 0.999939 H 86.199906 100.20009 100.7 V 60.70024 h -0.49991 V 48.699939 H 100.7 V 47.7 h -0.49991 -14.000184 z"
         sodipodi:nodetypes="ccccccccccccccccc"
         transform="translate(9,39)" /><path
         id="path22"
         style="opacity:1;fill:#9a9a9a;fill-opacity:1;stroke:none;stroke-width:0;stroke-dasharray:none;stroke-dashoffset:0;stroke-opacity:1"
         inkscape:label="sc-25"
         d="m 104.75,47.700125 v 0.999939 l 0.49991,-1.25e-4 V 60.70024 H 104.75 v 0.999939 h 0.49991 14.00018 0.49991 V 60.70024 h -0.49991 V 48.699939 H 119.75 V 47.7 h -0.49991 -14.00018 z"
         sodipodi:nodetypes="ccccccccccccccccc"
         transform="translate(9,39)" /><path
         id="path23"
         style="opacity:1;fill:#9a9a9a;fill-opacity:1;stroke:none;stroke-width:0;stroke-dasharray:none;stroke-dashoffset:0;stroke-opacity:1"
         inkscape:label="sc-30"
         d="m 9.5,67.150125 v 0.999939 l 0.499906,-1.25e-4 V 80.15024 H 9.5 v 0.999939 H 9.999906 24.000085 24.5 V 80.15024 H 24.000085 V 68.149939 H 24.5 V 67.15 H 24.000085 9.999906 Z"
         sodipodi:nodetypes="ccccccccccccccccc"
         transform="translate(9,39)" /><path
         id="path24"
         style="opacity:1;fill:#9a9a9a;fill-opacity:1;stroke:none;stroke-width:0;stroke-dasharray:none;stroke-dashoffset:0;stroke-opacity:1"
         inkscape:label="sc-31"
         d="m 28.55,67.150125 v 0.999939 l 0.499906,-1.25e-4 V 80.15024 H 28.55 v 0.999939 H 29.049906 43.050085 43.55 V 80.15024 H 43.050085 V 68.149939 H 43.55 V 67.15 H 43.050085 29.049906 Z"
         sodipodi:nodetypes="ccccccccccccccccc"
         transform="translate(9,39)" /><path
         id="path25"
         style="opacity:1;fill:#9a9a9a;fill-opacity:1;stroke:none;stroke-width:0;stroke-dasharray:none;stroke-dashoffset:0;stroke-opacity:1"
         inkscape:label="sc-32"
         d="m 47.6,67.150125 v 0.999939 l 0.499906,-1.25e-4 V 80.15024 H 47.6 v 0.999939 H 48.099906 62.100085 62.6 V 80.15024 H 62.100085 V 68.149939 H 62.6 V 67.15 H 62.100085 48.099906 Z"
         sodipodi:nodetypes="ccccccccccccccccc"
         transform="translate(9,39)" /><path
         id="path27"
         style="opacity:1;fill:#9a9a9a;fill-opacity:1;stroke:none;stroke-width:0;stroke-dasharray:none;stroke-dashoffset:0;stroke-opacity:1"
         inkscape:label="sc-33"
         d="m 66.65,67.150125 v 0.999939 l 0.499906,-1.25e-4 V 80.15024 H 66.65 v 0.999939 H 67.149906 81.150085 81.65 V 80.15024 H 81.150085 V 68.149939 H 81.65 V 67.15 H 81.150085 67.149906 Z"
         sodipodi:nodetypes="ccccccccccccccccc"
         transform="translate(9,39)" /><path
         id="path28"
         style="opacity:1;fill:#9a9a9a;fill-opacity:1;stroke:none;stroke-width:0;stroke-dasharray:none;stroke-dashoffset:0;stroke-opacity:1"
         inkscape:label="sc-34"
         d="m 85.7,67.150125 v 0.999939 l 0.499906,-1.25e-4 V 80.15024 H 85.7 v 0.999939 H 86.199906 100.20009 100.7 V 80.15024 h -0.49991 V 68.149939 H 100.7 V 67.15 h -0.49991 -14.000184 z"
         sodipodi:nodetypes="ccccccccccccccccc"
         transform="translate(9,39)" /><path
         id="path29"
         style="opacity:1;fill:#9a9a9a;fill-opacity:1;stroke:none;stroke-width:0;stroke-dasharray:none;stroke-dashoffset:0;stroke-opacity:1"
         inkscape:label="sc-35"
         d="m 104.75,67.150125 v 0.999939 l 0.49991,-1.25e-4 V 80.15024 H 104.75 v 0.999939 h 0.49991 14.00018 0.49991 V 80.15024 h -0.49991 V 68.149939 H 119.75 V 67.15 h -0.49991 -14.00018 z"
         sodipodi:nodetypes="ccccccccccccccccc"
         transform="translate(9,39)" /><path
         id="path30"
         style="opacity:1;fill:#9a9a9a;fill-opacity:1;stroke:none;stroke-width:0;stroke-dasharray:none;stroke-dashoffset:0;stroke-opacity:1"
         inkscape:label="sc-40"
         d="m 9.5,86.200125 v 0.999939 l 0.499906,-1.25e-4 V 99.20024 H 9.5 v 0.99994 H 9.999906 24.000085 24.5 V 99.20024 H 24.000085 V 87.199939 H 24.5 V 86.2 H 24.000085 9.999906 Z"
         sodipodi:nodetypes="ccccccccccccccccc"
         transform="translate(9,39)" /><path
         id="path31"
         style="opacity:1;fill:#9a9a9a;fill-opacity:1;stroke:none;stroke-width:0;stroke-dasharray:none;stroke-dashoffset:0;stroke-opacity:1"
         inkscape:label="sc-41"
         d="m 28.55,86.200125 v 0.999939 l 0.499906,-1.25e-4 V 99.20024 H 28.55 v 0.99994 H 29.049906 43.050085 43.55 V 99.20024 H 43.050085 V 87.199939 H 43.55 V 86.2 H 43.050085 29.049906 Z"
         sodipodi:nodetypes="ccccccccccccccccc"
         transform="translate(9,39)" /><path
         id="path32"
         style="opacity:1;fill:#9a9a9a;fill-opacity:1;stroke:none;stroke-width:0;stroke-dasharray:none;stroke-dashoffset:0;stroke-opacity:1"
         inkscape:label="sc-42"
         d="m 47.6,86.200125 v 0.999939 l 0.499906,-1.25e-4 V 99.20024 H 47.6 v 0.99994 H 48.099906 62.100085 62.6 V 99.20024 H 62.100085 V 87.199939 H 62.6 V 86.2 H 62.100085 48.099906 Z"
         sodipodi:nodetypes="ccccccccccccccccc"
         transform="translate(9,39)" /><path
         id="path33"
         style="opacity:1;fill:#9a9a9a;fill-opacity:1;stroke:none;stroke-width:0;stroke-dasharray:none;stroke-dashoffset:0;stroke-opacity:1"
         inkscape:label="sc-43"
         d="m 66.65,86.200125 v 0.999939 l 0.499906,-1.25e-4 V 99.20024 H 66.65 v 0.99994 H 67.149906 81.150085 81.65 V 99.20024 H 81.150085 V 87.199939 H 81.65 V 86.2 H 81.150085 67.149906 Z"
         sodipodi:nodetypes="ccccccccccccccccc"
         transform="translate(9,39)" /><path
         id="path34"
         style="opacity:1;fill:#9a9a9a;fill-opacity:1;stroke:none;stroke-width:0;stroke-dasharray:none;stroke-dashoffset:0;stroke-opacity:1"
         inkscape:label="sc-44"
         d="m 85.7,86.200125 v 0.999939 l 0.499906,-1.25e-4 V 99.20024 H 85.7 v 0.99994 H 86.199906 100.20009 100.7 v -0.99994 h -0.49991 V 87.199939 H 100.7 V 86.2 h -0.49991 -14.000184 z"
         sodipodi:nodetypes="ccccccccccccccccc"
         transform="translate(9,39)" /><path
         id="path35"
         style="opacity:1;fill:#9a9a9a;fill-opacity:1;stroke:none;stroke-width:0;stroke-dasharray:none;stroke-dashoffset:0;stroke-opacity:1"
         inkscape:label="sc-45"
         d="m 104.75,86.200125 v 0.999939 l 0.49991,-1.25e-4 V 99.20024 H 104.75 v 0.99994 h 0.49991 14.00018 0.49991 v -0.99994 h -0.49991 V 87.199939 H 119.75 V 86.2 h -0.49991 -14.00018 z"
         sodipodi:nodetypes="ccccccccccccccccc"
         transform="translate(9,39)" /></g><circle
       style="opacity:1;fill:#9a9a9a;fill-opacity:1;stroke:none;stroke-width:0.130384;stroke-dasharray:0.521538, 1.04308;stroke-dashoffset:0;stroke-opacity:1"
       id="path26"
       cx="4.5"
       cy="4.5"
       inkscape:label="screw-1"
       r="1.5" /><circle
       style="fill:#9a9a9a;fill-opacity:1;stroke:none;stroke-width:0.130384;stroke-dasharray:0.521538, 1.04308;stroke-dashoffset:0;stroke-opacity:1"
       id="path26-4"
       cx="4.5"
       cy="105.5"
       inkscape:label="screw-3"
       r="1.5" /><circle
       style="fill:#9a9a9a;fill-opacity:1;stroke:none;stroke-width:0.130384;stroke-dasharray:0.521538, 1.04308;stroke-dashoffset:0;stroke-opacity:1"
       id="path26-4-9"
       cx="124.5"
       cy="105.5"
       inkscape:label="screw-4"
       r="1.5" /><circle
       style="fill:#9a9a9a;fill-opacity:1;stroke:none;stroke-width:0.130384;stroke-dasharray:0.521538, 1.04308;stroke-dashoffset:0;stroke-opacity:1"
       id="path26-7"
       cx="124.5"
       cy="4.5"
       inkscape:label="screw-2"
       r="1.5" /></g></svg>
