<?xml version="1.0" encoding="UTF-8" standalone="no"?>
<!-- Created with Inkscape (http://www.inkscape.org/) -->

<svg
   width="375mm"
   height="320mm"
   viewBox="0 0 375 320"
   version="1.1"
   id="svg1"
   inkscape:version="1.3.2 (091e20e, 2023-11-25, custom)"
   sodipodi:docname="foot-1-alt-db2 - Copy (2).svg"
   xmlns:inkscape="http://www.inkscape.org/namespaces/inkscape"
   xmlns:sodipodi="http://sodipodi.sourceforge.net/DTD/sodipodi-0.dtd"
   xmlns="http://www.w3.org/2000/svg"
   xmlns:svg="http://www.w3.org/2000/svg">
  <sodipodi:namedview
     id="namedview1"
     pagecolor="#505050"
     bordercolor="#eeeeee"
     borderopacity="1"
     inkscape:showpageshadow="0"
     inkscape:pageopacity="0"
     inkscape:pagecheckerboard="0"
     inkscape:deskcolor="#505050"
     inkscape:document-units="mm"
     showgrid="true"
     inkscape:zoom="0.9599987"
     inkscape:cx="547.39657"
     inkscape:cy="377.60468"
     inkscape:window-width="2560"
     inkscape:window-height="1369"
     inkscape:window-x="-8"
     inkscape:window-y="-8"
     inkscape:window-maximized="1"
     inkscape:current-layer="g27">
    <inkscape:grid
       id="grid1"
       units="mm"
       originx="0"
       originy="0"
       spacingx="0.99999999"
       spacingy="1"
       empcolor="#0099e5"
       empopacity="0.30196078"
       color="#0099e5"
       opacity="0.14901961"
       empspacing="5"
       dotted="false"
       gridanglex="30"
       gridanglez="30"
       visible="true" />
  </sodipodi:namedview>
  <defs
     id="defs1">
    <inkscape:path-effect
       effect="offset"
       id="path-effect2"
       is_visible="true"
       lpeversion="1.2"
       linejoin_type="miter"
       unit="mm"
       offset="0"
       miter_limit="4"
       attempt_force_join="false"
       update_on_knot_move="true" />
    <inkscape:path-effect
       effect="fillet_chamfer"
       id="path-effect1"
       is_visible="true"
       lpeversion="1"
       nodesatellites_param="F,0,0,1,0,0,0,1 @ F,0,0,1,0,0,0,1 @ F,0,0,1,0,0,0,1 @ F,0,0,1,0,0,0,1 @ F,0,1,1,0,3,0,1 @ F,0,1,1,0,3,0,1 @ F,0,1,1,0,3,0,1 @ F,0,1,1,0,3,0,1 @ F,0,1,1,0,3,0,1 @ F,0,1,1,0,3,0,1 @ F,0,1,1,0,3,0,1 @ F,0,1,1,0,3,0,1 @ F,0,0,1,0,0,0,1 @ F,0,0,1,0,0,0,1 @ F,0,0,1,0,0,0,1 @ F,0,0,1,0,0,0,1 | F,0,0,1,0,0,0,1 @ F,0,0,1,0,0,0,1 @ F,0,0,1,0,0,0,1 @ F,0,0,1,0,0,0,1 | F,0,0,1,0,0,0,1 @ F,0,0,1,0,0,0,1 @ F,0,0,1,0,0,0,1 @ F,0,0,1,0,0,0,1 | F,0,0,1,0,0,0,1 @ F,0,0,1,0,0,0,1 @ F,0,0,1,0,0,0,1 @ F,0,0,1,0,0,0,1 | F,0,0,1,0,0,0,1 @ F,0,0,1,0,0,0,1 @ F,0,0,1,0,0,0,1 @ F,0,0,1,0,0,0,1 | F,0,0,1,0,0,0,1 @ F,0,0,1,0,0,0,1 @ F,0,0,1,0,0,0,1 @ F,0,0,1,0,0,0,1 | F,0,0,1,0,0,0,1 @ F,0,0,1,0,0,0,1 @ F,0,0,1,0,0,0,1 @ F,0,0,1,0,0,0,1"
       radius="3"
       unit="mm"
       method="auto"
       mode="F"
       chamfer_steps="1"
       flexible="false"
       use_knot_distance="true"
       apply_no_radius="true"
       apply_with_radius="true"
       only_selected="true"
       hide_knots="false" />
  </defs>
  <g
     inkscape:groupmode="layer"
     id="g27"
     inkscape:label="Case-FRL"
     style="display:inline">
    <path
       id="rect7"
       style="display:inline;fill:#7f7f7f;fill-opacity:0.248963;stroke:#ff00ff;stroke-width:0.0911037"
       inkscape:label="wall-outter"
       d="M 12.845728 28.658716 C 11.183737 28.658716 9.8453939 29.996543 9.8453939 31.658533 L 9.8453939 144.25424 C 9.8453939 145.91624 11.183737 147.25458 12.845728 147.25458 L 366.45463 147.25458 C 368.11663 147.25458 369.45445 145.91624 369.45445 144.25424 L 369.45445 31.658533 C 369.45445 29.996543 368.11663 28.658716 366.45463 28.658716 L 198.6039 28.658716 L 198.6039 46.623511 C 198.6039 47.731504 197.7115 48.623389 196.6035 48.623389 L 179.32756 48.623389 C 178.21956 48.623389 177.32768 47.731504 177.32768 46.623511 L 177.32768 28.658716 L 12.845728 28.658716 z M 15.000118 32.962846 A 1.3500003 1.3500003 0 0 1 16.349906 34.313151 A 1.3500003 1.3500003 0 0 1 15.000118 35.662939 A 1.3500003 1.3500003 0 0 1 13.649813 34.313151 A 1.3500003 1.3500003 0 0 1 15.000118 32.962846 z M 113.50005 32.962846 A 1.35 1.3500003 0 0 1 114.84984 34.313151 A 1.35 1.3500003 0 0 1 113.50005 35.662939 A 1.35 1.3500003 0 0 1 112.14974 34.313151 A 1.35 1.3500003 0 0 1 113.50005 32.962846 z M 265.19983 32.962846 A 1.35 1.3500003 0 0 1 266.55014 34.313151 A 1.35 1.3500003 0 0 1 265.19983 35.662939 A 1.35 1.3500003 0 0 1 263.85004 34.313151 A 1.35 1.3500003 0 0 1 265.19983 32.962846 z M 364.29973 32.962846 A 1.35 1.3500003 0 0 1 365.65003 34.313151 A 1.35 1.3500003 0 0 1 364.29973 35.662939 A 1.35 1.3500003 0 0 1 362.94994 34.313151 A 1.35 1.3500003 0 0 1 364.29973 32.962846 z M 15.000118 139.7 A 1.8000001 1.8000002 0 0 1 16.800008 141.49989 A 1.8000001 1.8000002 0 0 1 15.000118 143.29978 A 1.8000001 1.8000002 0 0 1 13.200228 141.49989 A 1.8000001 1.8000002 0 0 1 15.000118 139.7 z M 113.50005 139.7 A 1.8000001 1.8000002 0 0 1 115.29994 141.49989 A 1.8000001 1.8000002 0 0 1 113.50005 143.29978 A 1.8000001 1.8000002 0 0 1 111.70016 141.49989 A 1.8000001 1.8000002 0 0 1 113.50005 139.7 z M 225.20021 139.7 A 1.8000001 1.8000002 0 0 1 227.0001 141.49989 A 1.8000001 1.8000002 0 0 1 225.20021 143.29978 A 1.8000001 1.8000002 0 0 1 223.3998 141.49989 A 1.8000001 1.8000002 0 0 1 225.20021 139.7 z M 364.30024 139.7 A 1.8000001 1.8000002 0 0 1 366.10013 141.49989 A 1.8000001 1.8000002 0 0 1 364.30024 143.29978 A 1.8000001 1.8000002 0 0 1 362.49984 141.49989 A 1.8000001 1.8000002 0 0 1 364.30024 139.7 z " />
  </g>
</svg>
