<?xml version="1.0" encoding="UTF-8" standalone="no"?>
<!-- Created with Inkscape (http://www.inkscape.org/) -->

<svg
   width="375mm"
   height="320mm"
   viewBox="0 0 375 320"
   version="1.1"
   id="svg1"
   inkscape:version="1.4 (86a8ad7, 2024-10-11)"
   sodipodi:docname="foot-2-db2.svg"
   xmlns:inkscape="http://www.inkscape.org/namespaces/inkscape"
   xmlns:sodipodi="http://sodipodi.sourceforge.net/DTD/sodipodi-0.dtd"
   xmlns="http://www.w3.org/2000/svg"
   xmlns:svg="http://www.w3.org/2000/svg">
  <sodipodi:namedview
     id="namedview1"
     pagecolor="#505050"
     bordercolor="#eeeeee"
     borderopacity="1"
     inkscape:showpageshadow="0"
     inkscape:pageopacity="0"
     inkscape:pagecheckerboard="0"
     inkscape:deskcolor="#505050"
     inkscape:document-units="mm"
     showgrid="true"
     inkscape:zoom="0.9599987"
     inkscape:cx="1066.6681"
     inkscape:cy="136.97935"
     inkscape:window-width="1920"
     inkscape:window-height="1009"
     inkscape:window-x="-8"
     inkscape:window-y="-8"
     inkscape:window-maximized="1"
     inkscape:current-layer="svg1">
    <inkscape:grid
       id="grid1"
       units="mm"
       originx="0"
       originy="0"
       spacingx="0.99999999"
       spacingy="1"
       empcolor="#0099e5"
       empopacity="0.30196078"
       color="#0099e5"
       opacity="0.14901961"
       empspacing="5"
       dotted="false"
       gridanglex="30"
       gridanglez="30"
       visible="true" />
  </sodipodi:namedview>
  <defs
     id="defs1">
    <inkscape:path-effect
       effect="offset"
       id="path-effect2"
       is_visible="true"
       lpeversion="1.3"
       linejoin_type="miter"
       unit="mm"
       offset="0"
       miter_limit="4"
       attempt_force_join="false"
       update_on_knot_move="true" />
    <inkscape:path-effect
       effect="fillet_chamfer"
       id="path-effect1"
       is_visible="true"
       lpeversion="1"
       nodesatellites_param="F,0,0,1,0,0,0,1 @ F,0,0,1,0,0,0,1 @ F,0,0,1,0,0,0,1 @ F,0,0,1,0,0,0,1 @ F,0,1,1,0,3,0,1 @ F,0,1,1,0,3,0,1 @ F,0,1,1,0,3,0,1 @ F,0,1,1,0,3,0,1 @ F,0,1,1,0,3,0,1 @ F,0,1,1,0,3,0,1 @ F,0,1,1,0,3,0,1 @ F,0,1,1,0,3,0,1 @ F,0,0,1,0,0,0,1 @ F,0,0,1,0,0,0,1 @ F,0,0,1,0,0,0,1 @ F,0,0,1,0,0,0,1 | F,0,0,1,0,0,0,1 @ F,0,0,1,0,0,0,1 @ F,0,0,1,0,0,0,1 @ F,0,0,1,0,0,0,1 | F,0,0,1,0,0,0,1 @ F,0,0,1,0,0,0,1 @ F,0,0,1,0,0,0,1 @ F,0,0,1,0,0,0,1 | F,0,0,1,0,0,0,1 @ F,0,0,1,0,0,0,1 @ F,0,0,1,0,0,0,1 @ F,0,0,1,0,0,0,1 | F,0,0,1,0,0,0,1 @ F,0,0,1,0,0,0,1 @ F,0,0,1,0,0,0,1 @ F,0,0,1,0,0,0,1 | F,0,0,1,0,0,0,1 @ F,0,0,1,0,0,0,1 @ F,0,0,1,0,0,0,1 @ F,0,0,1,0,0,0,1 | F,0,0,1,0,0,0,1 @ F,0,0,1,0,0,0,1 @ F,0,0,1,0,0,0,1 @ F,0,0,1,0,0,0,1"
       radius="3"
       unit="mm"
       method="auto"
       mode="F"
       chamfer_steps="1"
       flexible="false"
       use_knot_distance="true"
       apply_no_radius="true"
       apply_with_radius="true"
       only_selected="true"
       hide_knots="false" />
    <inkscape:path-effect
       effect="fillet_chamfer"
       id="path-effect1-2"
       is_visible="true"
       lpeversion="1"
       nodesatellites_param="F,0,0,1,0,0,0,1 @ F,0,0,1,0,0,0,1 @ F,0,0,1,0,0,0,1 @ F,0,0,1,0,0,0,1 @ F,0,1,1,0,3,0,1 @ F,0,1,1,0,3,0,1 @ F,0,1,1,0,3,0,1 @ F,0,1,1,0,3,0,1 @ F,0,1,1,0,3,0,1 @ F,0,1,1,0,3,0,1 @ F,0,1,1,0,3,0,1 @ F,0,1,1,0,3,0,1 @ F,0,0,1,0,0,0,1 @ F,0,0,1,0,0,0,1 @ F,0,0,1,0,0,0,1 @ F,0,0,1,0,0,0,1 | F,0,0,1,0,0,0,1 @ F,0,0,1,0,0,0,1 @ F,0,0,1,0,0,0,1 @ F,0,0,1,0,0,0,1 | F,0,0,1,0,0,0,1 @ F,0,0,1,0,0,0,1 @ F,0,0,1,0,0,0,1 @ F,0,0,1,0,0,0,1 | F,0,0,1,0,0,0,1 @ F,0,0,1,0,0,0,1 @ F,0,0,1,0,0,0,1 @ F,0,0,1,0,0,0,1 | F,0,0,1,0,0,0,1 @ F,0,0,1,0,0,0,1 @ F,0,0,1,0,0,0,1 @ F,0,0,1,0,0,0,1 | F,0,0,1,0,0,0,1 @ F,0,0,1,0,0,0,1 @ F,0,0,1,0,0,0,1 @ F,0,0,1,0,0,0,1 | F,0,0,1,0,0,0,1 @ F,0,0,1,0,0,0,1 @ F,0,0,1,0,0,0,1 @ F,0,0,1,0,0,0,1"
       radius="3"
       unit="mm"
       method="auto"
       mode="F"
       chamfer_steps="1"
       flexible="false"
       use_knot_distance="true"
       apply_no_radius="true"
       apply_with_radius="true"
       only_selected="true"
       hide_knots="false" />
  </defs>
  <path
     id="rect12-3-9-4"
     style="display:inline;fill:#7f7f7f;fill-opacity:1;stroke:#808080;stroke-width:0.0999999;stroke-opacity:1"
     inkscape:label="foot-2"
     d="m 13.421875,29.732422 c -1.384994,0 -2.5,1.115006 -2.5,2.5 v 20.5 c 0,1.384994 1.115006,2.5 2.5,2.5 H 366.02148 c 1.38499,0 2.5,-1.115006 2.5,-2.5 v -20.5 c 0,-1.384994 -1.11501,-2.5 -2.5,-2.5 z m 166.746095,2.583984 c 0.71811,-9.9e-5 1.30088,0.582672 1.30078,1.300781 -1.9e-4,0.717909 -0.58287,1.298928 -1.30078,1.298829 -0.71771,-1.88e-4 -1.29864,-0.581123 -1.29883,-1.298829 -10e-5,-0.717906 0.58092,-1.300593 1.29883,-1.300781 z m 15.5,0 c 0.71811,-9.9e-5 1.30086,0.582672 1.30078,1.300781 -1.9e-4,0.717909 -0.58286,1.298928 -1.30078,1.298829 -0.71789,9.4e-5 -1.29864,-0.580923 -1.29883,-1.298829 -1.1e-4,-0.718106 0.58072,-1.300875 1.29883,-1.300781 z M 15.070313,32.582031 c 0.994227,6.1e-5 1.801006,0.806553 1.800781,1.800781 -6.1e-5,0.994028 -0.806755,1.798768 -1.800781,1.798829 -0.994028,-6.1e-5 -1.798768,-0.804802 -1.798829,-1.798829 -2.25e-4,-0.994228 0.804601,-1.80072 1.798829,-1.800781 z m 98.457027,0 c 0.99423,6.1e-5 1.79905,0.806553 1.79883,1.800781 -6e-5,0.994028 -0.8048,1.798768 -1.79883,1.798829 -0.99403,-6.1e-5 -1.80072,-0.804802 -1.80078,-1.798829 -2.2e-4,-0.994228 0.80655,-1.80072 1.80078,-1.800781 z m 250.84375,0 c 0.99443,-2.26e-4 1.80101,0.80635 1.80078,1.800781 -7e-5,0.994231 -0.80656,1.799055 -1.80078,1.798829 -0.99403,-6.1e-5 -1.80072,-0.804802 -1.80078,-1.798829 -2.3e-4,-0.994228 0.80655,-1.80072 1.80078,-1.800781 z m -99.04101,0.03516 c 0.99443,-2.25e-4 1.801,0.804397 1.80078,1.798829 -6e-5,0.99423 -0.80655,1.801007 -1.80078,1.800781 -0.99403,-6.1e-5 -1.80072,-0.806754 -1.80078,-1.800781 -2.2e-4,-0.994229 0.80655,-1.798767 1.80078,-1.798829 z"
     sodipodi:nodetypes="ssssssssscccccccccccccccccccccccccccccc"
     inkscape:path-effect="#path-effect2"
     inkscape:original-d="m 13.421106,29.732 c -1.384994,0 -2.500106,1.115112 -2.500106,2.500106 v 20.50004 c 0,1.384994 1.115112,2.500106 2.500106,2.500106 H 366.02092 c 1.38499,0 2.50011,-1.115112 2.50011,-2.500106 v -20.50004 c 0,-1.384994 -1.11512,-2.500106 -2.50011,-2.500106 z m 1.650028,2.849955 c 0.994228,6.1e-5 1.800115,0.806178 1.79989,1.800407 -6.1e-5,0.994027 -0.805863,1.799829 -1.79989,1.79989 -0.994027,-6.1e-5 -1.799829,-0.805863 -1.79989,-1.79989 -2.25e-4,-0.994229 0.805662,-1.800346 1.79989,-1.800407 z m 98.455416,0 c 0.99423,6.1e-5 1.80011,0.806178 1.79989,1.800407 -6e-5,0.994027 -0.80586,1.799829 -1.79989,1.79989 -0.99403,-6.1e-5 -1.79983,-0.805863 -1.79989,-1.79989 -2.2e-4,-0.994229 0.80566,-1.800346 1.79989,-1.800407 z m 151.80313,0.03445 c 0.99443,-2.26e-4 1.80063,0.805975 1.80041,1.800407 -6e-5,0.99423 -0.80618,1.800116 -1.80041,1.79989 -0.99403,-6.1e-5 -1.79983,-0.805863 -1.79989,-1.79989 -2.2e-4,-0.994229 0.80566,-1.800346 1.79989,-1.800407 z m 99.04121,-0.03445 c 0.99443,-2.26e-4 1.80063,0.805975 1.80041,1.800407 -7e-5,0.99423 -0.80619,1.800116 -1.80041,1.79989 -0.99403,-6.1e-5 -1.79983,-0.805863 -1.79989,-1.79989 -2.3e-4,-0.994229 0.80566,-1.800346 1.79989,-1.800407 z M 180.16864,32.316962 c 0.71811,-9.9e-5 1.30028,0.582069 1.30018,1.300179 -1.9e-4,0.717909 -0.58227,1.299762 -1.30018,1.299663 -0.71771,-1.88e-4 -1.29947,-0.581957 -1.29966,-1.299663 -1e-4,-0.717907 0.58175,-1.299991 1.29966,-1.300179 z m 15.50024,0 c 0.71811,-9.9e-5 1.30028,0.582069 1.3002,1.300179 -1.9e-4,0.717909 -0.58228,1.299762 -1.3002,1.299663 -0.71789,9.4e-5 -1.29997,-0.581758 -1.30016,-1.299663 -1.1e-4,-0.718106 0.58205,-1.300273 1.30016,-1.300179 z"
     transform="translate(-0.37187505,-4.6824219)" />
</svg>
