<?xml version="1.0" encoding="UTF-8" standalone="no"?>
<!-- Created with Inkscape (http://www.inkscape.org/) -->

<svg
   width="375mm"
   height="320mm"
   viewBox="0 0 375 320"
   version="1.1"
   id="svg1"
   inkscape:version="1.4 (86a8ad7, 2024-10-11)"
   sodipodi:docname="foot-2.svg"
   xmlns:inkscape="http://www.inkscape.org/namespaces/inkscape"
   xmlns:sodipodi="http://sodipodi.sourceforge.net/DTD/sodipodi-0.dtd"
   xmlns="http://www.w3.org/2000/svg"
   xmlns:svg="http://www.w3.org/2000/svg">
  <sodipodi:namedview
     id="namedview1"
     pagecolor="#505050"
     bordercolor="#eeeeee"
     borderopacity="1"
     inkscape:showpageshadow="0"
     inkscape:pageopacity="0"
     inkscape:pagecheckerboard="0"
     inkscape:deskcolor="#505050"
     inkscape:document-units="mm"
     showgrid="true"
     inkscape:zoom="2.7152864"
     inkscape:cx="1200.9783"
     inkscape:cy="133.50341"
     inkscape:window-width="1920"
     inkscape:window-height="1009"
     inkscape:window-x="-8"
     inkscape:window-y="-8"
     inkscape:window-maximized="1"
     inkscape:current-layer="g27">
    <inkscape:grid
       id="grid1"
       units="mm"
       originx="0"
       originy="0"
       spacingx="0.99999999"
       spacingy="1"
       empcolor="#0099e5"
       empopacity="0.30196078"
       color="#0099e5"
       opacity="0.14901961"
       empspacing="5"
       dotted="false"
       gridanglex="30"
       gridanglez="30"
       visible="true" />
  </sodipodi:namedview>
  <defs
     id="defs1">
    <inkscape:path-effect
       effect="fillet_chamfer"
       id="path-effect1-8"
       is_visible="true"
       lpeversion="1"
       nodesatellites_param="F,0,0,1,0,0,0,1 @ F,0,0,1,0,0,0,1 @ F,0,0,1,0,0,0,1 @ F,0,0,1,0,0,0,1 @ F,0,1,1,0,3,0,1 @ F,0,1,1,0,3,0,1 @ F,0,1,1,0,3,0,1 @ F,0,1,1,0,3,0,1 @ F,0,1,1,0,3,0,1 @ F,0,1,1,0,3,0,1 @ F,0,1,1,0,3,0,1 @ F,0,1,1,0,3,0,1 @ F,0,0,1,0,0,0,1 @ F,0,0,1,0,0,0,1 @ F,0,0,1,0,0,0,1 @ F,0,0,1,0,0,0,1 | F,0,0,1,0,0,0,1 @ F,0,0,1,0,0,0,1 @ F,0,0,1,0,0,0,1 @ F,0,0,1,0,0,0,1 | F,0,0,1,0,0,0,1 @ F,0,0,1,0,0,0,1 @ F,0,0,1,0,0,0,1 @ F,0,0,1,0,0,0,1 | F,0,0,1,0,0,0,1 @ F,0,0,1,0,0,0,1 @ F,0,0,1,0,0,0,1 @ F,0,0,1,0,0,0,1 | F,0,0,1,0,0,0,1 @ F,0,0,1,0,0,0,1 @ F,0,0,1,0,0,0,1 @ F,0,0,1,0,0,0,1 | F,0,0,1,0,0,0,1 @ F,0,0,1,0,0,0,1 @ F,0,0,1,0,0,0,1 @ F,0,0,1,0,0,0,1 | F,0,0,1,0,0,0,1 @ F,0,0,1,0,0,0,1 @ F,0,0,1,0,0,0,1 @ F,0,0,1,0,0,0,1"
       radius="3"
       unit="mm"
       method="auto"
       mode="F"
       chamfer_steps="1"
       flexible="false"
       use_knot_distance="true"
       apply_no_radius="true"
       apply_with_radius="true"
       only_selected="true"
       hide_knots="false" />
  </defs>
  <g
     inkscape:groupmode="layer"
     id="g27"
     inkscape:label="Case-FRL"
     style="display:inline">
    <path
       id="rect12-3-9"
       style="display:inline;fill:#808080;fill-opacity:1;stroke:#808080;stroke-width:0.0999999;stroke-opacity:1"
       inkscape:label="foot-1"
       d="m 13.050094,25.05 c -1.384994,0 -2.500106,1.115112 -2.500106,2.500106 v 20.50004 c 0,1.384994 1.115112,2.500106 2.500106,2.500106 H 365.64991 c 1.38499,0 2.50011,-1.115112 2.50011,-2.500106 v -20.50004 c 0,-1.384994 -1.11512,-2.500106 -2.50011,-2.500106 z m 1.650028,2.849955 c 0.994228,6.1e-5 1.800115,0.806178 1.79989,1.800407 -6.1e-5,0.994027 -0.805863,1.799829 -1.79989,1.79989 -0.994027,-6.1e-5 -1.799829,-0.805863 -1.79989,-1.79989 -2.25e-4,-0.994229 0.805662,-1.800346 1.79989,-1.800407 z m 98.507598,-0.02436 c 0.99423,6.1e-5 1.80011,0.806178 1.79989,1.800407 -6e-5,0.994027 -0.80586,1.799829 -1.79989,1.79989 -0.99403,-6.1e-5 -1.79983,-0.805863 -1.79989,-1.79989 -2.2e-4,-0.994229 0.80566,-1.800346 1.79989,-1.800407 z m 151.6476,0.02436 c 0.99443,-2.26e-4 1.80063,0.805975 1.80041,1.800407 -6e-5,0.99423 -0.80618,1.800116 -1.80041,1.79989 -0.99403,-6.1e-5 -1.79983,-0.805863 -1.79989,-1.79989 -2.2e-4,-0.994229 0.80566,-1.800346 1.79989,-1.800407 z m 99.14456,0 c 0.99443,-2.26e-4 1.80063,0.805975 1.80041,1.800407 -7e-5,0.99423 -0.80619,1.800116 -1.80041,1.79989 -0.99403,-6.1e-5 -1.79983,-0.805863 -1.79989,-1.79989 -2.3e-4,-0.994229 0.80566,-1.800346 1.79989,-1.800407 z m -182.34119,5.1751 c 0.71811,-9.9e-5 1.30028,0.582069 1.30018,1.300179 -1.9e-4,0.717909 -0.58227,1.299762 -1.30018,1.299663 -0.71771,-1.88e-4 -1.29947,-0.581957 -1.29966,-1.299663 -1e-4,-0.717907 0.58175,-1.299991 1.29966,-1.300179 z m 12.0003,0 c 0.71811,-9.9e-5 1.30028,0.582069 1.30018,1.300179 -1.9e-4,0.717909 -0.58227,1.299762 -1.30018,1.299663 -0.7179,9.4e-5 -1.29998,-0.581758 -1.30017,-1.299663 -1e-4,-0.718106 0.58206,-1.300273 1.30017,-1.300179 z"
       sodipodi:nodetypes="ssssssssscccccccccccccccccccccccccccccc" />
  </g>
</svg>
