<?xml version="1.0" encoding="UTF-8" standalone="no"?>
<!-- Created with Inkscape (http://www.inkscape.org/) -->

<svg
   width="375mm"
   height="320mm"
   viewBox="0 0 375 320"
   version="1.1"
   id="svg1"
   inkscape:version="1.3.2 (091e20e, 2023-11-25, custom)"
   sodipodi:docname="foot-1-alt-db2 - Copy.svg"
   xmlns:inkscape="http://www.inkscape.org/namespaces/inkscape"
   xmlns:sodipodi="http://sodipodi.sourceforge.net/DTD/sodipodi-0.dtd"
   xmlns="http://www.w3.org/2000/svg"
   xmlns:svg="http://www.w3.org/2000/svg">
  <sodipodi:namedview
     id="namedview1"
     pagecolor="#505050"
     bordercolor="#eeeeee"
     borderopacity="1"
     inkscape:showpageshadow="0"
     inkscape:pageopacity="0"
     inkscape:pagecheckerboard="0"
     inkscape:deskcolor="#505050"
     inkscape:document-units="mm"
     showgrid="true"
     inkscape:zoom="1.9199974"
     inkscape:cx="684.11551"
     inkscape:cy="393.49012"
     inkscape:window-width="2560"
     inkscape:window-height="1369"
     inkscape:window-x="-8"
     inkscape:window-y="-8"
     inkscape:window-maximized="1"
     inkscape:current-layer="svg1">
    <inkscape:grid
       id="grid1"
       units="mm"
       originx="0"
       originy="0"
       spacingx="0.99999999"
       spacingy="1"
       empcolor="#0099e5"
       empopacity="0.30196078"
       color="#0099e5"
       opacity="0.14901961"
       empspacing="5"
       dotted="false"
       gridanglex="30"
       gridanglez="30"
       visible="true" />
  </sodipodi:namedview>
  <defs
     id="defs1">
    <inkscape:path-effect
       effect="offset"
       id="path-effect2"
       is_visible="true"
       lpeversion="1.2"
       linejoin_type="miter"
       unit="mm"
       offset="0"
       miter_limit="4"
       attempt_force_join="false"
       update_on_knot_move="true" />
    <inkscape:path-effect
       effect="fillet_chamfer"
       id="path-effect1"
       is_visible="true"
       lpeversion="1"
       nodesatellites_param="F,0,0,1,0,0,0,1 @ F,0,0,1,0,0,0,1 @ F,0,0,1,0,0,0,1 @ F,0,0,1,0,0,0,1 @ F,0,1,1,0,3,0,1 @ F,0,1,1,0,3,0,1 @ F,0,1,1,0,3,0,1 @ F,0,1,1,0,3,0,1 @ F,0,1,1,0,3,0,1 @ F,0,1,1,0,3,0,1 @ F,0,1,1,0,3,0,1 @ F,0,1,1,0,3,0,1 @ F,0,0,1,0,0,0,1 @ F,0,0,1,0,0,0,1 @ F,0,0,1,0,0,0,1 @ F,0,0,1,0,0,0,1 | F,0,0,1,0,0,0,1 @ F,0,0,1,0,0,0,1 @ F,0,0,1,0,0,0,1 @ F,0,0,1,0,0,0,1 | F,0,0,1,0,0,0,1 @ F,0,0,1,0,0,0,1 @ F,0,0,1,0,0,0,1 @ F,0,0,1,0,0,0,1 | F,0,0,1,0,0,0,1 @ F,0,0,1,0,0,0,1 @ F,0,0,1,0,0,0,1 @ F,0,0,1,0,0,0,1 | F,0,0,1,0,0,0,1 @ F,0,0,1,0,0,0,1 @ F,0,0,1,0,0,0,1 @ F,0,0,1,0,0,0,1 | F,0,0,1,0,0,0,1 @ F,0,0,1,0,0,0,1 @ F,0,0,1,0,0,0,1 @ F,0,0,1,0,0,0,1 | F,0,0,1,0,0,0,1 @ F,0,0,1,0,0,0,1 @ F,0,0,1,0,0,0,1 @ F,0,0,1,0,0,0,1"
       radius="3"
       unit="mm"
       method="auto"
       mode="F"
       chamfer_steps="1"
       flexible="false"
       use_knot_distance="true"
       apply_no_radius="true"
       apply_with_radius="true"
       only_selected="true"
       hide_knots="false" />
  </defs>
  <path
     id="rect36-5"
     style="display:inline;fill:none;fill-opacity:0.15;stroke:#00ffff;stroke-width:0.0999999;stroke-opacity:1"
     inkscape:label="foot-1"
     d="m 13.050366,29.662789 c -1.38499,0 -2.500106,1.115114 -2.500106,2.500106 v 30.499947 c 0,1.384984 1.115116,2.500106 2.500106,2.500106 h 25.054619 a 4.3881986,4.3881986 145.64146 0 0 4.088921,-2.795398 l 1.717527,-4.409111 a 4.3881986,4.3881986 145.64146 0 1 4.088921,-2.795398 h 31.199797 a 4.3881986,4.3881986 34.358535 0 1 4.088921,2.795398 l 1.717527,4.409111 a 4.3881986,4.3881986 34.358535 0 0 4.088921,2.795398 H 289.0783 a 4.3879864,4.3879864 145.64017 0 0 4.08879,-2.795447 l 1.71727,-4.409013 a 4.3879864,4.3879864 145.64017 0 1 4.08879,-2.795447 h 31.20031 a 4.3879864,4.3879864 34.359826 0 1 4.08879,2.795447 l 1.71727,4.409013 a 4.3879864,4.3879864 34.359826 0 0 4.08879,2.795447 h 25.58172 c 1.385,0 2.50011,-1.115122 2.50011,-2.500106 V 32.162895 c 0,-1.384992 -1.11511,-2.500106 -2.50011,-2.500106 z m 1.650029,3.300057 c 0.745619,1.17e-4 1.349956,0.604686 1.349788,1.350305 -1.17e-4,0.745417 -0.604371,1.349671 -1.349788,1.349788 -0.745621,1.68e-4 -1.350188,-0.604169 -1.350305,-1.349788 -1.68e-4,-0.745821 0.604482,-1.350473 1.350305,-1.350305 z m 98.799655,0 c 0.74562,1.16e-4 1.34996,0.604685 1.34979,1.350305 -1.2e-4,0.745418 -0.60437,1.349672 -1.34979,1.349788 -0.74562,1.71e-4 -1.35019,-0.604167 -1.35031,-1.349788 -1.7e-4,-0.745823 0.60449,-1.350476 1.35031,-1.350305 z m 151.69978,0 c 0.74582,-1.71e-4 1.35048,0.604482 1.35031,1.350305 -1.2e-4,0.745621 -0.60469,1.349959 -1.35031,1.349788 -0.74542,-1.16e-4 -1.34967,-0.60437 -1.34979,-1.349788 -1.7e-4,-0.74562 0.60417,-1.350189 1.34979,-1.350305 z m 98.80017,0 c 0.74582,-1.71e-4 1.35048,0.604482 1.35031,1.350305 -1.2e-4,0.745621 -0.60469,1.349959 -1.35031,1.349788 -0.74542,-1.21e-4 -1.34966,-0.604374 -1.34978,-1.349788 -1.7e-4,-0.745616 0.60416,-1.350184 1.34978,-1.350305 z M 179.72883,31.110423 c 0.71811,-9.9e-5 1.30028,0.582071 1.30018,1.300179 -1.9e-4,0.717909 -0.58227,1.299762 -1.30018,1.299663 -0.71771,-1.88e-4 -1.29947,-0.581957 -1.29966,-1.299663 -1e-4,-0.717905 0.58175,-1.299991 1.29966,-1.300179 z m 15.50025,0 c 0.71811,-9.9e-5 1.30028,0.582071 1.30018,1.300179 -1.9e-4,0.717909 -0.58227,1.299762 -1.30018,1.299663 -0.71788,9.4e-5 -1.29998,-0.581758 -1.30017,-1.299663 -1e-4,-0.718104 0.58208,-1.300273 1.30017,-1.300179 z"
     inkscape:path-effect="#path-effect1"
     inkscape:original-d="m 13.050366,29.662789 c -1.38499,0 -2.500106,1.115114 -2.500106,2.500106 v 30.499947 c 0,1.384984 1.115116,2.500106 2.500106,2.500106 h 28.054619 l 3.895369,-9.999907 h 37.199797 l 3.895369,9.999907 H 292.0783 l 3.89485,-9.999907 h 37.20031 l 3.89485,9.999907 h 28.58172 c 1.385,0 2.50011,-1.115122 2.50011,-2.500106 V 32.162895 c 0,-1.384992 -1.11511,-2.500106 -2.50011,-2.500106 z m 1.650029,3.300057 c 0.745619,1.17e-4 1.349956,0.604686 1.349788,1.350305 -1.17e-4,0.745417 -0.604371,1.349671 -1.349788,1.349788 -0.745621,1.68e-4 -1.350188,-0.604169 -1.350305,-1.349788 -1.68e-4,-0.745821 0.604482,-1.350473 1.350305,-1.350305 z m 98.799655,0 c 0.74562,1.16e-4 1.34996,0.604685 1.34979,1.350305 -1.2e-4,0.745418 -0.60437,1.349672 -1.34979,1.349788 -0.74562,1.71e-4 -1.35019,-0.604167 -1.35031,-1.349788 -1.7e-4,-0.745823 0.60449,-1.350476 1.35031,-1.350305 z m 151.69978,0 c 0.74582,-1.71e-4 1.35048,0.604482 1.35031,1.350305 -1.2e-4,0.745621 -0.60469,1.349959 -1.35031,1.349788 -0.74542,-1.16e-4 -1.34967,-0.60437 -1.34979,-1.349788 -1.7e-4,-0.74562 0.60417,-1.350189 1.34979,-1.350305 z m 98.80017,0 c 0.74582,-1.71e-4 1.35048,0.604482 1.35031,1.350305 -1.2e-4,0.745621 -0.60469,1.349959 -1.35031,1.349788 -0.74542,-1.21e-4 -1.34966,-0.604374 -1.34978,-1.349788 -1.7e-4,-0.745616 0.60416,-1.350184 1.34978,-1.350305 z M 179.72883,31.110423 c 0.71811,-9.9e-5 1.30028,0.582071 1.30018,1.300179 -1.9e-4,0.717909 -0.58227,1.299762 -1.30018,1.299663 -0.71771,-1.88e-4 -1.29947,-0.581957 -1.29966,-1.299663 -1e-4,-0.717905 0.58175,-1.299991 1.29966,-1.300179 z m 15.50025,0 c 0.71811,-9.9e-5 1.30028,0.582071 1.30018,1.300179 -1.9e-4,0.717909 -0.58227,1.299762 -1.30018,1.299663 -0.71788,9.4e-5 -1.29998,-0.581758 -1.30017,-1.299663 -1e-4,-0.718104 0.58208,-1.300273 1.30017,-1.300179 z"
     transform="translate(0.37091358,0.06965633)"
     sodipodi:nodetypes="ssssccccccccssssscccccccccccscscssssscccccccccc" />
</svg>
