<?xml version="1.0" encoding="UTF-8" standalone="no"?>
<!-- Created with Inkscape (http://www.inkscape.org/) -->

<svg
   width="375mm"
   height="320mm"
   viewBox="0 0 375 320"
   version="1.1"
   id="svg1"
   inkscape:version="1.3.2 (091e20e, 2023-11-25, custom)"
   sodipodi:docname="foot-1-alt.svg"
   xmlns:inkscape="http://www.inkscape.org/namespaces/inkscape"
   xmlns:sodipodi="http://sodipodi.sourceforge.net/DTD/sodipodi-0.dtd"
   xmlns="http://www.w3.org/2000/svg"
   xmlns:svg="http://www.w3.org/2000/svg">
  <sodipodi:namedview
     id="namedview1"
     pagecolor="#505050"
     bordercolor="#eeeeee"
     borderopacity="1"
     inkscape:showpageshadow="0"
     inkscape:pageopacity="0"
     inkscape:pagecheckerboard="0"
     inkscape:deskcolor="#505050"
     inkscape:document-units="mm"
     showgrid="true"
     inkscape:zoom="0.95999871"
     inkscape:cx="634.37585"
     inkscape:cy="68.229258"
     inkscape:window-width="1920"
     inkscape:window-height="1017"
     inkscape:window-x="-8"
     inkscape:window-y="-8"
     inkscape:window-maximized="1"
     inkscape:current-layer="g27">
    <inkscape:grid
       id="grid1"
       units="mm"
       originx="0"
       originy="0"
       spacingx="0.99999999"
       spacingy="1"
       empcolor="#0099e5"
       empopacity="0.30196078"
       color="#0099e5"
       opacity="0.14901961"
       empspacing="5"
       dotted="false"
       gridanglex="30"
       gridanglez="30"
       visible="true" />
  </sodipodi:namedview>
  <defs
     id="defs1">
    <inkscape:path-effect
       effect="fillet_chamfer"
       id="path-effect1"
       is_visible="true"
       lpeversion="1"
       nodesatellites_param="F,0,0,1,0,0,0,1 @ F,0,0,1,0,0,0,1 @ F,0,0,1,0,0,0,1 @ F,0,0,1,0,0,0,1 @ F,0,1,1,0,3,0,1 @ F,0,1,1,0,3,0,1 @ F,0,1,1,0,3,0,1 @ F,0,1,1,0,3,0,1 @ F,0,1,1,0,3,0,1 @ F,0,1,1,0,3,0,1 @ F,0,1,1,0,3,0,1 @ F,0,1,1,0,3,0,1 @ F,0,0,1,0,0,0,1 @ F,0,0,1,0,0,0,1 @ F,0,0,1,0,0,0,1 @ F,0,0,1,0,0,0,1 | F,0,0,1,0,0,0,1 @ F,0,0,1,0,0,0,1 @ F,0,0,1,0,0,0,1 @ F,0,0,1,0,0,0,1 | F,0,0,1,0,0,0,1 @ F,0,0,1,0,0,0,1 @ F,0,0,1,0,0,0,1 @ F,0,0,1,0,0,0,1 | F,0,0,1,0,0,0,1 @ F,0,0,1,0,0,0,1 @ F,0,0,1,0,0,0,1 @ F,0,0,1,0,0,0,1 | F,0,0,1,0,0,0,1 @ F,0,0,1,0,0,0,1 @ F,0,0,1,0,0,0,1 @ F,0,0,1,0,0,0,1 | F,0,0,1,0,0,0,1 @ F,0,0,1,0,0,0,1 @ F,0,0,1,0,0,0,1 @ F,0,0,1,0,0,0,1 | F,0,0,1,0,0,0,1 @ F,0,0,1,0,0,0,1 @ F,0,0,1,0,0,0,1 @ F,0,0,1,0,0,0,1"
       radius="3"
       unit="mm"
       method="auto"
       mode="F"
       chamfer_steps="1"
       flexible="false"
       use_knot_distance="true"
       apply_no_radius="true"
       apply_with_radius="true"
       only_selected="true"
       hide_knots="false" />
  </defs>
  <g
     inkscape:groupmode="layer"
     id="g27"
     inkscape:label="Case-FRL"
     style="display:inline">
    <path
       id="rect36"
       style="display:inline;fill:none;fill-opacity:0.15;stroke:#00ffff;stroke-width:0.0999999;stroke-opacity:1"
       inkscape:label="foot-2"
       d="m 13.050366,29.662789 c -1.38499,0 -2.500106,1.115114 -2.500106,2.500106 v 30.499947 c 0,1.384984 1.115116,2.500106 2.500106,2.500106 h 25.054619 a 4.3881986,4.3881986 145.64146 0 0 4.088921,-2.795398 l 1.717527,-4.409111 a 4.3881986,4.3881986 145.64146 0 1 4.088921,-2.795398 h 31.199797 a 4.3881986,4.3881986 34.358535 0 1 4.088921,2.795398 l 1.717527,4.409111 a 4.3881986,4.3881986 34.358535 0 0 4.088921,2.795398 H 289.0783 a 4.3879864,4.3879864 145.64017 0 0 4.08879,-2.795447 l 1.71727,-4.409013 a 4.3879864,4.3879864 145.64017 0 1 4.08879,-2.795447 h 31.20031 a 4.3879864,4.3879864 34.359826 0 1 4.08879,2.795447 l 1.71727,4.409013 a 4.3879864,4.3879864 34.359826 0 0 4.08879,2.795447 h 25.58172 c 1.385,0 2.50011,-1.115122 2.50011,-2.500106 V 32.162895 c 0,-1.384992 -1.11511,-2.500106 -2.50011,-2.500106 z m 1.650029,3.300057 c 0.745619,1.17e-4 1.349956,0.604686 1.349788,1.350305 -1.17e-4,0.745417 -0.604371,1.349671 -1.349788,1.349788 -0.745621,1.68e-4 -1.350188,-0.604169 -1.350305,-1.349788 -1.68e-4,-0.745821 0.604482,-1.350473 1.350305,-1.350305 z m 98.799655,0 c 0.74562,1.16e-4 1.34996,0.604685 1.34979,1.350305 -1.2e-4,0.745418 -0.60437,1.349672 -1.34979,1.349788 -0.74562,1.71e-4 -1.35019,-0.604167 -1.35031,-1.349788 -1.7e-4,-0.745823 0.60449,-1.350476 1.35031,-1.350305 z m 151.69978,0 c 0.74582,-1.71e-4 1.35048,0.604482 1.35031,1.350305 -1.2e-4,0.745621 -0.60469,1.349959 -1.35031,1.349788 -0.74542,-1.16e-4 -1.34967,-0.60437 -1.34979,-1.349788 -1.7e-4,-0.74562 0.60417,-1.350189 1.34979,-1.350305 z m 98.80017,0 c 0.74582,-1.71e-4 1.35048,0.604482 1.35031,1.350305 -1.2e-4,0.745621 -0.60469,1.349959 -1.35031,1.349788 -0.74542,-1.21e-4 -1.34966,-0.604374 -1.34978,-1.349788 -1.7e-4,-0.745616 0.60416,-1.350184 1.34978,-1.350305 z m -182.00026,4.737178 c 0.71811,-9.9e-5 1.30028,0.582071 1.30018,1.300179 -1.9e-4,0.717909 -0.58227,1.299762 -1.30018,1.299663 -0.71771,-1.88e-4 -1.29947,-0.581957 -1.29966,-1.299663 -1e-4,-0.717905 0.58175,-1.299991 1.29966,-1.300179 z m 12.0003,0 c 0.71811,-9.9e-5 1.30028,0.582071 1.30018,1.300179 -1.9e-4,0.717909 -0.58227,1.299762 -1.30018,1.299663 -0.71788,9.4e-5 -1.29998,-0.581758 -1.30017,-1.299663 -1e-4,-0.718104 0.58208,-1.300273 1.30017,-1.300179 z"
       inkscape:path-effect="#path-effect1"
       inkscape:original-d="M 13.050366 29.662789 C 11.665376 29.662789 10.55026 30.777903 10.55026 32.162895 L 10.55026 62.662842 C 10.55026 64.047826 11.665376 65.162948 13.050366 65.162948 L 41.104985 65.162948 L 45.000354 55.163041 L 82.200151 55.163041 L 86.09552 65.162948 L 292.0783 65.162948 L 295.97315 55.163041 L 333.17346 55.163041 L 337.06831 65.162948 L 365.65003 65.162948 C 367.03503 65.162948 368.15014 64.047826 368.15014 62.662842 L 368.15014 32.162895 C 368.15014 30.777903 367.03503 29.662789 365.65003 29.662789 L 13.050366 29.662789 z M 14.700395 32.962846 C 15.446014 32.962963 16.050351 33.567532 16.050183 34.313151 C 16.050066 35.058568 15.445812 35.662822 14.700395 35.662939 C 13.954774 35.663107 13.350207 35.05877 13.35009 34.313151 C 13.349922 33.56733 13.954572 32.962678 14.700395 32.962846 z M 113.50005 32.962846 C 114.24567 32.962962 114.85001 33.567531 114.84984 34.313151 C 114.84972 35.058569 114.24547 35.662823 113.50005 35.662939 C 112.75443 35.66311 112.14986 35.058772 112.14974 34.313151 C 112.14957 33.567328 112.75423 32.962675 113.50005 32.962846 z M 265.19983 32.962846 C 265.94565 32.962675 266.55031 33.567328 266.55014 34.313151 C 266.55002 35.058772 265.94545 35.66311 265.19983 35.662939 C 264.45441 35.662823 263.85016 35.058569 263.85004 34.313151 C 263.84987 33.567531 264.45421 32.962962 265.19983 32.962846 z M 364 32.962846 C 364.74582 32.962675 365.35048 33.567328 365.35031 34.313151 C 365.35019 35.058772 364.74562 35.66311 364 35.662939 C 363.25458 35.662818 362.65034 35.058565 362.65022 34.313151 C 362.65005 33.567535 363.25438 32.962967 364 32.962846 z M 181.99974 37.700024 C 182.71785 37.699925 183.30002 38.282095 183.29992 39.000203 C 183.29973 39.718112 182.71765 40.299965 181.99974 40.299866 C 181.28203 40.299678 180.70027 39.717909 180.70008 39.000203 C 180.69998 38.282298 181.28183 37.700212 181.99974 37.700024 z M 194.00004 37.700024 C 194.71815 37.699925 195.30032 38.282095 195.30022 39.000203 C 195.30003 39.718112 194.71795 40.299965 194.00004 40.299866 C 193.28216 40.29996 192.70006 39.718108 192.69987 39.000203 C 192.69977 38.282099 193.28195 37.69993 194.00004 37.700024 z " />
  </g>
</svg>
