<?xml version="1.0" encoding="UTF-8" standalone="no"?>
<!-- Created with Inkscape (http://www.inkscape.org/) -->

<svg
   width="375mm"
   height="320mm"
   viewBox="0 0 375 320"
   version="1.1"
   id="svg1"
   inkscape:version="1.3.2 (091e20e, 2023-11-25, custom)"
   sodipodi:docname="foot-1.svg"
   xmlns:inkscape="http://www.inkscape.org/namespaces/inkscape"
   xmlns:sodipodi="http://sodipodi.sourceforge.net/DTD/sodipodi-0.dtd"
   xmlns="http://www.w3.org/2000/svg"
   xmlns:svg="http://www.w3.org/2000/svg">
  <sodipodi:namedview
     id="namedview1"
     pagecolor="#505050"
     bordercolor="#eeeeee"
     borderopacity="1"
     inkscape:showpageshadow="0"
     inkscape:pageopacity="0"
     inkscape:pagecheckerboard="0"
     inkscape:deskcolor="#505050"
     inkscape:document-units="mm"
     showgrid="true"
     inkscape:zoom="0.95999871"
     inkscape:cx="772.91771"
     inkscape:cy="388.02135"
     inkscape:window-width="1920"
     inkscape:window-height="1017"
     inkscape:window-x="-8"
     inkscape:window-y="-8"
     inkscape:window-maximized="1"
     inkscape:current-layer="g27">
    <inkscape:grid
       id="grid1"
       units="mm"
       originx="0"
       originy="0"
       spacingx="0.99999999"
       spacingy="1"
       empcolor="#0099e5"
       empopacity="0.30196078"
       color="#0099e5"
       opacity="0.14901961"
       empspacing="5"
       dotted="false"
       gridanglex="30"
       gridanglez="30"
       visible="true" />
  </sodipodi:namedview>
  <defs
     id="defs1" />
  <g
     inkscape:groupmode="layer"
     id="g27"
     inkscape:label="Case-FRL"
     style="display:inline">
    <path
       id="rect36"
       style="display:inline;fill:none;fill-opacity:0.15;stroke:#00ffff;stroke-width:0.0999999;stroke-opacity:1"
       inkscape:label="foot-2"
       d="m 13.050145,29.662789 c -1.384994,0 -2.500106,1.115112 -2.500106,2.500106 v 30.499947 c 0,1.384988 1.115112,2.500106 2.500106,2.500106 H 365.64985 c 1.385,0 2.50011,-1.115118 2.50011,-2.500106 V 32.162895 c 0,-1.384994 -1.11511,-2.500106 -2.50011,-2.500106 z m 1.650028,3.300057 c 0.745621,1.17e-4 1.349956,0.604684 1.349788,1.350305 -1.17e-4,0.745419 -0.604369,1.349671 -1.349788,1.349788 -0.745621,1.68e-4 -1.350188,-0.604167 -1.350305,-1.349788 -1.68e-4,-0.745823 0.604482,-1.350473 1.350305,-1.350305 z m 98.799877,0 c 0.74562,1.16e-4 1.34996,0.604683 1.34979,1.350305 -1.2e-4,0.74542 -0.60437,1.349672 -1.34979,1.349788 -0.74562,1.71e-4 -1.35019,-0.604165 -1.35031,-1.349788 -1.7e-4,-0.745825 0.60449,-1.350476 1.35031,-1.350305 z m 151.69978,0 c 0.74582,-1.71e-4 1.35048,0.60448 1.35031,1.350305 -1.2e-4,0.745623 -0.60469,1.349959 -1.35031,1.349788 -0.74542,-1.16e-4 -1.34967,-0.604368 -1.34979,-1.349788 -1.7e-4,-0.745622 0.60417,-1.350189 1.34979,-1.350305 z m 98.79999,0 c 0.74582,-1.71e-4 1.35048,0.60448 1.35031,1.350305 -1.2e-4,0.745623 -0.60469,1.349959 -1.35031,1.349788 -0.74542,-1.21e-4 -1.34966,-0.604372 -1.34978,-1.349788 -1.7e-4,-0.745618 0.60416,-1.350184 1.34978,-1.350305 z m -182.00008,4.737178 c 0.71811,-9.9e-5 1.30028,0.582069 1.30018,1.300179 -1.9e-4,0.717909 -0.58227,1.299762 -1.30018,1.299663 -0.71771,-1.88e-4 -1.29947,-0.581957 -1.29966,-1.299663 -1e-4,-0.717907 0.58175,-1.299991 1.29966,-1.300179 z m 12.0003,0 c 0.71811,-9.9e-5 1.30028,0.582069 1.30018,1.300179 -1.9e-4,0.717909 -0.58227,1.299762 -1.30018,1.299663 -0.7179,9.4e-5 -1.29998,-0.581758 -1.30017,-1.299663 -1e-4,-0.718106 0.58206,-1.300273 1.30017,-1.300179 z"
       sodipodi:nodetypes="ssssssssscccccccccccscscssssscccccccccc" />
  </g>
</svg>
