M48
INCH,TZ
T1C0.0157
T2C0.0315
T3C0.0430
%
G90
G05
T1
X27164Y-16942
X28543Y-16942
X30914Y-16938
X30914Y-17875
X34664Y-18344
X36071Y-18344
X42633Y-22563
X43571Y-22563
X51071Y-16938
X51071Y-17406
X51071Y-23969
X51071Y-27250
X51071Y-33344
X51071Y-34750
X51071Y-40844
X51071Y-42250
X51539Y-23969
X51539Y-27250
X51539Y-33344
X51539Y-34750
X52008Y-16938
X52008Y-17406
X56696Y-24906
X57633Y-17406
X58571Y-17406
T2
X14780Y-16000
X14780Y-19000
X14780Y-23500
X14780Y-26500
X14780Y-31000
X14780Y-34000
X14780Y-38500
X14780Y-41500
X14780Y-46000
X14780Y-49000
X22280Y-16000
X22280Y-19000
X22280Y-23500
X22280Y-26500
X22280Y-31000
X22280Y-34000
X22280Y-38500
X22280Y-41500
X22280Y-46000
X22280Y-49000
X29780Y-16000
X29780Y-19000
X29780Y-23500
X29780Y-26500
X29780Y-31000
X29780Y-34000
X29780Y-38500
X29780Y-41500
X29780Y-46000
X29780Y-49000
X32227Y-19750
X32227Y-27250
X35227Y-19750
X35227Y-27250
X37280Y-31000
X37280Y-34000
X37280Y-38500
X37280Y-41500
X37280Y-46000
X37280Y-49000
X44780Y-16000
X44780Y-19000
X44780Y-23500
X44780Y-26500
X44780Y-31000
X44780Y-34000
X44780Y-38500
X44780Y-41500
X44780Y-46000
X44780Y-49000
X52280Y-16000
X52280Y-19000
X52280Y-23500
X52280Y-26500
X52280Y-31000
X52280Y-34000
X52280Y-38500
X52280Y-41500
X52280Y-46000
X52280Y-49000
T3
X37289Y-16375
X37289Y-17375
X37289Y-18375
X37289Y-19375
X37289Y-20375
X37289Y-21375
X43289Y-15375
X43289Y-16375
X43289Y-17375
X43289Y-18375
X43289Y-19375
X43289Y-20375
M30
