G04 #@! TF.GenerationSoftware,KiCad,Pcbnew,7.0.10*
G04 #@! TF.CreationDate,2024-01-27T14:07:50+01:00*
G04 #@! TF.ProjectId,board-pcb,626f6172-642d-4706-9362-2e6b69636164,rev?*
G04 #@! TF.SameCoordinates,Original*
G04 #@! TF.FileFunction,Legend,Bot*
G04 #@! TF.FilePolarity,Positive*
%FSLAX46Y46*%
G04 Gerber Fmt 4.6, Leading zero omitted, Abs format (unit mm)*
G04 Created by KiCad (PCBNEW 7.0.10) date 2024-01-27 14:07:50*
%MOMM*%
%LPD*%
G01*
G04 APERTURE LIST*
%ADD10C,0.150000*%
%ADD11C,0.120000*%
%ADD12C,0.200000*%
%ADD13C,1.752600*%
G04 APERTURE END LIST*
D10*
X107929332Y-49574795D02*
X108195999Y-49193842D01*
X108386475Y-49574795D02*
X108386475Y-48774795D01*
X108386475Y-48774795D02*
X108081713Y-48774795D01*
X108081713Y-48774795D02*
X108005523Y-48812890D01*
X108005523Y-48812890D02*
X107967428Y-48850985D01*
X107967428Y-48850985D02*
X107929332Y-48927176D01*
X107929332Y-48927176D02*
X107929332Y-49041461D01*
X107929332Y-49041461D02*
X107967428Y-49117652D01*
X107967428Y-49117652D02*
X108005523Y-49155747D01*
X108005523Y-49155747D02*
X108081713Y-49193842D01*
X108081713Y-49193842D02*
X108386475Y-49193842D01*
X107662666Y-48774795D02*
X107167428Y-48774795D01*
X107167428Y-48774795D02*
X107434094Y-49079557D01*
X107434094Y-49079557D02*
X107319809Y-49079557D01*
X107319809Y-49079557D02*
X107243618Y-49117652D01*
X107243618Y-49117652D02*
X107205523Y-49155747D01*
X107205523Y-49155747D02*
X107167428Y-49231938D01*
X107167428Y-49231938D02*
X107167428Y-49422414D01*
X107167428Y-49422414D02*
X107205523Y-49498604D01*
X107205523Y-49498604D02*
X107243618Y-49536700D01*
X107243618Y-49536700D02*
X107319809Y-49574795D01*
X107319809Y-49574795D02*
X107548380Y-49574795D01*
X107548380Y-49574795D02*
X107624571Y-49536700D01*
X107624571Y-49536700D02*
X107662666Y-49498604D01*
X97007332Y-43048604D02*
X97045428Y-43086700D01*
X97045428Y-43086700D02*
X97159713Y-43124795D01*
X97159713Y-43124795D02*
X97235904Y-43124795D01*
X97235904Y-43124795D02*
X97350190Y-43086700D01*
X97350190Y-43086700D02*
X97426380Y-43010509D01*
X97426380Y-43010509D02*
X97464475Y-42934319D01*
X97464475Y-42934319D02*
X97502571Y-42781938D01*
X97502571Y-42781938D02*
X97502571Y-42667652D01*
X97502571Y-42667652D02*
X97464475Y-42515271D01*
X97464475Y-42515271D02*
X97426380Y-42439080D01*
X97426380Y-42439080D02*
X97350190Y-42362890D01*
X97350190Y-42362890D02*
X97235904Y-42324795D01*
X97235904Y-42324795D02*
X97159713Y-42324795D01*
X97159713Y-42324795D02*
X97045428Y-42362890D01*
X97045428Y-42362890D02*
X97007332Y-42400985D01*
X96512094Y-42324795D02*
X96435904Y-42324795D01*
X96435904Y-42324795D02*
X96359713Y-42362890D01*
X96359713Y-42362890D02*
X96321618Y-42400985D01*
X96321618Y-42400985D02*
X96283523Y-42477176D01*
X96283523Y-42477176D02*
X96245428Y-42629557D01*
X96245428Y-42629557D02*
X96245428Y-42820033D01*
X96245428Y-42820033D02*
X96283523Y-42972414D01*
X96283523Y-42972414D02*
X96321618Y-43048604D01*
X96321618Y-43048604D02*
X96359713Y-43086700D01*
X96359713Y-43086700D02*
X96435904Y-43124795D01*
X96435904Y-43124795D02*
X96512094Y-43124795D01*
X96512094Y-43124795D02*
X96588285Y-43086700D01*
X96588285Y-43086700D02*
X96626380Y-43048604D01*
X96626380Y-43048604D02*
X96664475Y-42972414D01*
X96664475Y-42972414D02*
X96702571Y-42820033D01*
X96702571Y-42820033D02*
X96702571Y-42629557D01*
X96702571Y-42629557D02*
X96664475Y-42477176D01*
X96664475Y-42477176D02*
X96626380Y-42400985D01*
X96626380Y-42400985D02*
X96588285Y-42362890D01*
X96588285Y-42362890D02*
X96512094Y-42324795D01*
X97007332Y-49498604D02*
X97045428Y-49536700D01*
X97045428Y-49536700D02*
X97159713Y-49574795D01*
X97159713Y-49574795D02*
X97235904Y-49574795D01*
X97235904Y-49574795D02*
X97350190Y-49536700D01*
X97350190Y-49536700D02*
X97426380Y-49460509D01*
X97426380Y-49460509D02*
X97464475Y-49384319D01*
X97464475Y-49384319D02*
X97502571Y-49231938D01*
X97502571Y-49231938D02*
X97502571Y-49117652D01*
X97502571Y-49117652D02*
X97464475Y-48965271D01*
X97464475Y-48965271D02*
X97426380Y-48889080D01*
X97426380Y-48889080D02*
X97350190Y-48812890D01*
X97350190Y-48812890D02*
X97235904Y-48774795D01*
X97235904Y-48774795D02*
X97159713Y-48774795D01*
X97159713Y-48774795D02*
X97045428Y-48812890D01*
X97045428Y-48812890D02*
X97007332Y-48850985D01*
X96740666Y-48774795D02*
X96245428Y-48774795D01*
X96245428Y-48774795D02*
X96512094Y-49079557D01*
X96512094Y-49079557D02*
X96397809Y-49079557D01*
X96397809Y-49079557D02*
X96321618Y-49117652D01*
X96321618Y-49117652D02*
X96283523Y-49155747D01*
X96283523Y-49155747D02*
X96245428Y-49231938D01*
X96245428Y-49231938D02*
X96245428Y-49422414D01*
X96245428Y-49422414D02*
X96283523Y-49498604D01*
X96283523Y-49498604D02*
X96321618Y-49536700D01*
X96321618Y-49536700D02*
X96397809Y-49574795D01*
X96397809Y-49574795D02*
X96626380Y-49574795D01*
X96626380Y-49574795D02*
X96702571Y-49536700D01*
X96702571Y-49536700D02*
X96740666Y-49498604D01*
X108062666Y-38514795D02*
X107529332Y-39314795D01*
X107529332Y-38514795D02*
X108062666Y-39314795D01*
X107929332Y-42554795D02*
X108195999Y-42173842D01*
X108386475Y-42554795D02*
X108386475Y-41754795D01*
X108386475Y-41754795D02*
X108081713Y-41754795D01*
X108081713Y-41754795D02*
X108005523Y-41792890D01*
X108005523Y-41792890D02*
X107967428Y-41830985D01*
X107967428Y-41830985D02*
X107929332Y-41907176D01*
X107929332Y-41907176D02*
X107929332Y-42021461D01*
X107929332Y-42021461D02*
X107967428Y-42097652D01*
X107967428Y-42097652D02*
X108005523Y-42135747D01*
X108005523Y-42135747D02*
X108081713Y-42173842D01*
X108081713Y-42173842D02*
X108386475Y-42173842D01*
X107434094Y-41754795D02*
X107357904Y-41754795D01*
X107357904Y-41754795D02*
X107281713Y-41792890D01*
X107281713Y-41792890D02*
X107243618Y-41830985D01*
X107243618Y-41830985D02*
X107205523Y-41907176D01*
X107205523Y-41907176D02*
X107167428Y-42059557D01*
X107167428Y-42059557D02*
X107167428Y-42250033D01*
X107167428Y-42250033D02*
X107205523Y-42402414D01*
X107205523Y-42402414D02*
X107243618Y-42478604D01*
X107243618Y-42478604D02*
X107281713Y-42516700D01*
X107281713Y-42516700D02*
X107357904Y-42554795D01*
X107357904Y-42554795D02*
X107434094Y-42554795D01*
X107434094Y-42554795D02*
X107510285Y-42516700D01*
X107510285Y-42516700D02*
X107548380Y-42478604D01*
X107548380Y-42478604D02*
X107586475Y-42402414D01*
X107586475Y-42402414D02*
X107624571Y-42250033D01*
X107624571Y-42250033D02*
X107624571Y-42059557D01*
X107624571Y-42059557D02*
X107586475Y-41907176D01*
X107586475Y-41907176D02*
X107548380Y-41830985D01*
X107548380Y-41830985D02*
X107510285Y-41792890D01*
X107510285Y-41792890D02*
X107434094Y-41754795D01*
X97007332Y-52038604D02*
X97045428Y-52076700D01*
X97045428Y-52076700D02*
X97159713Y-52114795D01*
X97159713Y-52114795D02*
X97235904Y-52114795D01*
X97235904Y-52114795D02*
X97350190Y-52076700D01*
X97350190Y-52076700D02*
X97426380Y-52000509D01*
X97426380Y-52000509D02*
X97464475Y-51924319D01*
X97464475Y-51924319D02*
X97502571Y-51771938D01*
X97502571Y-51771938D02*
X97502571Y-51657652D01*
X97502571Y-51657652D02*
X97464475Y-51505271D01*
X97464475Y-51505271D02*
X97426380Y-51429080D01*
X97426380Y-51429080D02*
X97350190Y-51352890D01*
X97350190Y-51352890D02*
X97235904Y-51314795D01*
X97235904Y-51314795D02*
X97159713Y-51314795D01*
X97159713Y-51314795D02*
X97045428Y-51352890D01*
X97045428Y-51352890D02*
X97007332Y-51390985D01*
X96321618Y-51581461D02*
X96321618Y-52114795D01*
X96512094Y-51276700D02*
X96702571Y-51848128D01*
X96702571Y-51848128D02*
X96207332Y-51848128D01*
X97007332Y-46958604D02*
X97045428Y-46996700D01*
X97045428Y-46996700D02*
X97159713Y-47034795D01*
X97159713Y-47034795D02*
X97235904Y-47034795D01*
X97235904Y-47034795D02*
X97350190Y-46996700D01*
X97350190Y-46996700D02*
X97426380Y-46920509D01*
X97426380Y-46920509D02*
X97464475Y-46844319D01*
X97464475Y-46844319D02*
X97502571Y-46691938D01*
X97502571Y-46691938D02*
X97502571Y-46577652D01*
X97502571Y-46577652D02*
X97464475Y-46425271D01*
X97464475Y-46425271D02*
X97426380Y-46349080D01*
X97426380Y-46349080D02*
X97350190Y-46272890D01*
X97350190Y-46272890D02*
X97235904Y-46234795D01*
X97235904Y-46234795D02*
X97159713Y-46234795D01*
X97159713Y-46234795D02*
X97045428Y-46272890D01*
X97045428Y-46272890D02*
X97007332Y-46310985D01*
X96702571Y-46310985D02*
X96664475Y-46272890D01*
X96664475Y-46272890D02*
X96588285Y-46234795D01*
X96588285Y-46234795D02*
X96397809Y-46234795D01*
X96397809Y-46234795D02*
X96321618Y-46272890D01*
X96321618Y-46272890D02*
X96283523Y-46310985D01*
X96283523Y-46310985D02*
X96245428Y-46387176D01*
X96245428Y-46387176D02*
X96245428Y-46463366D01*
X96245428Y-46463366D02*
X96283523Y-46577652D01*
X96283523Y-46577652D02*
X96740666Y-47034795D01*
X96740666Y-47034795D02*
X96245428Y-47034795D01*
X97007332Y-54578604D02*
X97045428Y-54616700D01*
X97045428Y-54616700D02*
X97159713Y-54654795D01*
X97159713Y-54654795D02*
X97235904Y-54654795D01*
X97235904Y-54654795D02*
X97350190Y-54616700D01*
X97350190Y-54616700D02*
X97426380Y-54540509D01*
X97426380Y-54540509D02*
X97464475Y-54464319D01*
X97464475Y-54464319D02*
X97502571Y-54311938D01*
X97502571Y-54311938D02*
X97502571Y-54197652D01*
X97502571Y-54197652D02*
X97464475Y-54045271D01*
X97464475Y-54045271D02*
X97426380Y-53969080D01*
X97426380Y-53969080D02*
X97350190Y-53892890D01*
X97350190Y-53892890D02*
X97235904Y-53854795D01*
X97235904Y-53854795D02*
X97159713Y-53854795D01*
X97159713Y-53854795D02*
X97045428Y-53892890D01*
X97045428Y-53892890D02*
X97007332Y-53930985D01*
X96283523Y-53854795D02*
X96664475Y-53854795D01*
X96664475Y-53854795D02*
X96702571Y-54235747D01*
X96702571Y-54235747D02*
X96664475Y-54197652D01*
X96664475Y-54197652D02*
X96588285Y-54159557D01*
X96588285Y-54159557D02*
X96397809Y-54159557D01*
X96397809Y-54159557D02*
X96321618Y-54197652D01*
X96321618Y-54197652D02*
X96283523Y-54235747D01*
X96283523Y-54235747D02*
X96245428Y-54311938D01*
X96245428Y-54311938D02*
X96245428Y-54502414D01*
X96245428Y-54502414D02*
X96283523Y-54578604D01*
X96283523Y-54578604D02*
X96321618Y-54616700D01*
X96321618Y-54616700D02*
X96397809Y-54654795D01*
X96397809Y-54654795D02*
X96588285Y-54654795D01*
X96588285Y-54654795D02*
X96664475Y-54616700D01*
X96664475Y-54616700D02*
X96702571Y-54578604D01*
X107929332Y-47034795D02*
X108195999Y-46653842D01*
X108386475Y-47034795D02*
X108386475Y-46234795D01*
X108386475Y-46234795D02*
X108081713Y-46234795D01*
X108081713Y-46234795D02*
X108005523Y-46272890D01*
X108005523Y-46272890D02*
X107967428Y-46310985D01*
X107967428Y-46310985D02*
X107929332Y-46387176D01*
X107929332Y-46387176D02*
X107929332Y-46501461D01*
X107929332Y-46501461D02*
X107967428Y-46577652D01*
X107967428Y-46577652D02*
X108005523Y-46615747D01*
X108005523Y-46615747D02*
X108081713Y-46653842D01*
X108081713Y-46653842D02*
X108386475Y-46653842D01*
X107624571Y-46310985D02*
X107586475Y-46272890D01*
X107586475Y-46272890D02*
X107510285Y-46234795D01*
X107510285Y-46234795D02*
X107319809Y-46234795D01*
X107319809Y-46234795D02*
X107243618Y-46272890D01*
X107243618Y-46272890D02*
X107205523Y-46310985D01*
X107205523Y-46310985D02*
X107167428Y-46387176D01*
X107167428Y-46387176D02*
X107167428Y-46463366D01*
X107167428Y-46463366D02*
X107205523Y-46577652D01*
X107205523Y-46577652D02*
X107662666Y-47034795D01*
X107662666Y-47034795D02*
X107167428Y-47034795D01*
X107929332Y-44494795D02*
X108195999Y-44113842D01*
X108386475Y-44494795D02*
X108386475Y-43694795D01*
X108386475Y-43694795D02*
X108081713Y-43694795D01*
X108081713Y-43694795D02*
X108005523Y-43732890D01*
X108005523Y-43732890D02*
X107967428Y-43770985D01*
X107967428Y-43770985D02*
X107929332Y-43847176D01*
X107929332Y-43847176D02*
X107929332Y-43961461D01*
X107929332Y-43961461D02*
X107967428Y-44037652D01*
X107967428Y-44037652D02*
X108005523Y-44075747D01*
X108005523Y-44075747D02*
X108081713Y-44113842D01*
X108081713Y-44113842D02*
X108386475Y-44113842D01*
X107167428Y-44494795D02*
X107624571Y-44494795D01*
X107395999Y-44494795D02*
X107395999Y-43694795D01*
X107395999Y-43694795D02*
X107472190Y-43809080D01*
X107472190Y-43809080D02*
X107548380Y-43885271D01*
X107548380Y-43885271D02*
X107624571Y-43923366D01*
X107929332Y-52114795D02*
X108195999Y-51733842D01*
X108386475Y-52114795D02*
X108386475Y-51314795D01*
X108386475Y-51314795D02*
X108081713Y-51314795D01*
X108081713Y-51314795D02*
X108005523Y-51352890D01*
X108005523Y-51352890D02*
X107967428Y-51390985D01*
X107967428Y-51390985D02*
X107929332Y-51467176D01*
X107929332Y-51467176D02*
X107929332Y-51581461D01*
X107929332Y-51581461D02*
X107967428Y-51657652D01*
X107967428Y-51657652D02*
X108005523Y-51695747D01*
X108005523Y-51695747D02*
X108081713Y-51733842D01*
X108081713Y-51733842D02*
X108386475Y-51733842D01*
X107662666Y-51314795D02*
X107167428Y-51314795D01*
X107167428Y-51314795D02*
X107434094Y-51619557D01*
X107434094Y-51619557D02*
X107319809Y-51619557D01*
X107319809Y-51619557D02*
X107243618Y-51657652D01*
X107243618Y-51657652D02*
X107205523Y-51695747D01*
X107205523Y-51695747D02*
X107167428Y-51771938D01*
X107167428Y-51771938D02*
X107167428Y-51962414D01*
X107167428Y-51962414D02*
X107205523Y-52038604D01*
X107205523Y-52038604D02*
X107243618Y-52076700D01*
X107243618Y-52076700D02*
X107319809Y-52114795D01*
X107319809Y-52114795D02*
X107548380Y-52114795D01*
X107548380Y-52114795D02*
X107624571Y-52076700D01*
X107624571Y-52076700D02*
X107662666Y-52038604D01*
X97007332Y-44418604D02*
X97045428Y-44456700D01*
X97045428Y-44456700D02*
X97159713Y-44494795D01*
X97159713Y-44494795D02*
X97235904Y-44494795D01*
X97235904Y-44494795D02*
X97350190Y-44456700D01*
X97350190Y-44456700D02*
X97426380Y-44380509D01*
X97426380Y-44380509D02*
X97464475Y-44304319D01*
X97464475Y-44304319D02*
X97502571Y-44151938D01*
X97502571Y-44151938D02*
X97502571Y-44037652D01*
X97502571Y-44037652D02*
X97464475Y-43885271D01*
X97464475Y-43885271D02*
X97426380Y-43809080D01*
X97426380Y-43809080D02*
X97350190Y-43732890D01*
X97350190Y-43732890D02*
X97235904Y-43694795D01*
X97235904Y-43694795D02*
X97159713Y-43694795D01*
X97159713Y-43694795D02*
X97045428Y-43732890D01*
X97045428Y-43732890D02*
X97007332Y-43770985D01*
X96245428Y-44494795D02*
X96702571Y-44494795D01*
X96473999Y-44494795D02*
X96473999Y-43694795D01*
X96473999Y-43694795D02*
X96550190Y-43809080D01*
X96550190Y-43809080D02*
X96626380Y-43885271D01*
X96626380Y-43885271D02*
X96702571Y-43923366D01*
X35876069Y-42997619D02*
X34876069Y-42997619D01*
X34876069Y-42997619D02*
X34876069Y-43235714D01*
X34876069Y-43235714D02*
X34923688Y-43378571D01*
X34923688Y-43378571D02*
X35018926Y-43473809D01*
X35018926Y-43473809D02*
X35114164Y-43521428D01*
X35114164Y-43521428D02*
X35304640Y-43569047D01*
X35304640Y-43569047D02*
X35447497Y-43569047D01*
X35447497Y-43569047D02*
X35637973Y-43521428D01*
X35637973Y-43521428D02*
X35733211Y-43473809D01*
X35733211Y-43473809D02*
X35828450Y-43378571D01*
X35828450Y-43378571D02*
X35876069Y-43235714D01*
X35876069Y-43235714D02*
X35876069Y-42997619D01*
X34876069Y-44188095D02*
X34876069Y-44283333D01*
X34876069Y-44283333D02*
X34923688Y-44378571D01*
X34923688Y-44378571D02*
X34971307Y-44426190D01*
X34971307Y-44426190D02*
X35066545Y-44473809D01*
X35066545Y-44473809D02*
X35257021Y-44521428D01*
X35257021Y-44521428D02*
X35495116Y-44521428D01*
X35495116Y-44521428D02*
X35685592Y-44473809D01*
X35685592Y-44473809D02*
X35780830Y-44426190D01*
X35780830Y-44426190D02*
X35828450Y-44378571D01*
X35828450Y-44378571D02*
X35876069Y-44283333D01*
X35876069Y-44283333D02*
X35876069Y-44188095D01*
X35876069Y-44188095D02*
X35828450Y-44092857D01*
X35828450Y-44092857D02*
X35780830Y-44045238D01*
X35780830Y-44045238D02*
X35685592Y-43997619D01*
X35685592Y-43997619D02*
X35495116Y-43950000D01*
X35495116Y-43950000D02*
X35257021Y-43950000D01*
X35257021Y-43950000D02*
X35066545Y-43997619D01*
X35066545Y-43997619D02*
X34971307Y-44045238D01*
X34971307Y-44045238D02*
X34923688Y-44092857D01*
X34923688Y-44092857D02*
X34876069Y-44188095D01*
X35828450Y-44997619D02*
X35876069Y-44997619D01*
X35876069Y-44997619D02*
X35971307Y-44950000D01*
X35971307Y-44950000D02*
X36018926Y-44902381D01*
X34876069Y-45616666D02*
X34876069Y-45711904D01*
X34876069Y-45711904D02*
X34923688Y-45807142D01*
X34923688Y-45807142D02*
X34971307Y-45854761D01*
X34971307Y-45854761D02*
X35066545Y-45902380D01*
X35066545Y-45902380D02*
X35257021Y-45949999D01*
X35257021Y-45949999D02*
X35495116Y-45949999D01*
X35495116Y-45949999D02*
X35685592Y-45902380D01*
X35685592Y-45902380D02*
X35780830Y-45854761D01*
X35780830Y-45854761D02*
X35828450Y-45807142D01*
X35828450Y-45807142D02*
X35876069Y-45711904D01*
X35876069Y-45711904D02*
X35876069Y-45616666D01*
X35876069Y-45616666D02*
X35828450Y-45521428D01*
X35828450Y-45521428D02*
X35780830Y-45473809D01*
X35780830Y-45473809D02*
X35685592Y-45426190D01*
X35685592Y-45426190D02*
X35495116Y-45378571D01*
X35495116Y-45378571D02*
X35257021Y-45378571D01*
X35257021Y-45378571D02*
X35066545Y-45426190D01*
X35066545Y-45426190D02*
X34971307Y-45473809D01*
X34971307Y-45473809D02*
X34923688Y-45521428D01*
X34923688Y-45521428D02*
X34876069Y-45616666D01*
X36196069Y-40378095D02*
X35196069Y-40378095D01*
X36196069Y-40949523D02*
X35624640Y-40520952D01*
X35196069Y-40949523D02*
X35767497Y-40378095D01*
X73976069Y-62047619D02*
X72976069Y-62047619D01*
X72976069Y-62047619D02*
X72976069Y-62285714D01*
X72976069Y-62285714D02*
X73023688Y-62428571D01*
X73023688Y-62428571D02*
X73118926Y-62523809D01*
X73118926Y-62523809D02*
X73214164Y-62571428D01*
X73214164Y-62571428D02*
X73404640Y-62619047D01*
X73404640Y-62619047D02*
X73547497Y-62619047D01*
X73547497Y-62619047D02*
X73737973Y-62571428D01*
X73737973Y-62571428D02*
X73833211Y-62523809D01*
X73833211Y-62523809D02*
X73928450Y-62428571D01*
X73928450Y-62428571D02*
X73976069Y-62285714D01*
X73976069Y-62285714D02*
X73976069Y-62047619D01*
X73071307Y-63000000D02*
X73023688Y-63047619D01*
X73023688Y-63047619D02*
X72976069Y-63142857D01*
X72976069Y-63142857D02*
X72976069Y-63380952D01*
X72976069Y-63380952D02*
X73023688Y-63476190D01*
X73023688Y-63476190D02*
X73071307Y-63523809D01*
X73071307Y-63523809D02*
X73166545Y-63571428D01*
X73166545Y-63571428D02*
X73261783Y-63571428D01*
X73261783Y-63571428D02*
X73404640Y-63523809D01*
X73404640Y-63523809D02*
X73976069Y-62952381D01*
X73976069Y-62952381D02*
X73976069Y-63571428D01*
X73928450Y-64047619D02*
X73976069Y-64047619D01*
X73976069Y-64047619D02*
X74071307Y-64000000D01*
X74071307Y-64000000D02*
X74118926Y-63952381D01*
X73976069Y-64999999D02*
X73976069Y-64428571D01*
X73976069Y-64714285D02*
X72976069Y-64714285D01*
X72976069Y-64714285D02*
X73118926Y-64619047D01*
X73118926Y-64619047D02*
X73214164Y-64523809D01*
X73214164Y-64523809D02*
X73261783Y-64428571D01*
X74296069Y-59428095D02*
X73296069Y-59428095D01*
X74296069Y-59999523D02*
X73724640Y-59570952D01*
X73296069Y-59999523D02*
X73867497Y-59428095D01*
X73976069Y-81097619D02*
X72976069Y-81097619D01*
X72976069Y-81097619D02*
X72976069Y-81335714D01*
X72976069Y-81335714D02*
X73023688Y-81478571D01*
X73023688Y-81478571D02*
X73118926Y-81573809D01*
X73118926Y-81573809D02*
X73214164Y-81621428D01*
X73214164Y-81621428D02*
X73404640Y-81669047D01*
X73404640Y-81669047D02*
X73547497Y-81669047D01*
X73547497Y-81669047D02*
X73737973Y-81621428D01*
X73737973Y-81621428D02*
X73833211Y-81573809D01*
X73833211Y-81573809D02*
X73928450Y-81478571D01*
X73928450Y-81478571D02*
X73976069Y-81335714D01*
X73976069Y-81335714D02*
X73976069Y-81097619D01*
X73071307Y-82050000D02*
X73023688Y-82097619D01*
X73023688Y-82097619D02*
X72976069Y-82192857D01*
X72976069Y-82192857D02*
X72976069Y-82430952D01*
X72976069Y-82430952D02*
X73023688Y-82526190D01*
X73023688Y-82526190D02*
X73071307Y-82573809D01*
X73071307Y-82573809D02*
X73166545Y-82621428D01*
X73166545Y-82621428D02*
X73261783Y-82621428D01*
X73261783Y-82621428D02*
X73404640Y-82573809D01*
X73404640Y-82573809D02*
X73976069Y-82002381D01*
X73976069Y-82002381D02*
X73976069Y-82621428D01*
X73928450Y-83097619D02*
X73976069Y-83097619D01*
X73976069Y-83097619D02*
X74071307Y-83050000D01*
X74071307Y-83050000D02*
X74118926Y-83002381D01*
X73071307Y-83478571D02*
X73023688Y-83526190D01*
X73023688Y-83526190D02*
X72976069Y-83621428D01*
X72976069Y-83621428D02*
X72976069Y-83859523D01*
X72976069Y-83859523D02*
X73023688Y-83954761D01*
X73023688Y-83954761D02*
X73071307Y-84002380D01*
X73071307Y-84002380D02*
X73166545Y-84049999D01*
X73166545Y-84049999D02*
X73261783Y-84049999D01*
X73261783Y-84049999D02*
X73404640Y-84002380D01*
X73404640Y-84002380D02*
X73976069Y-83430952D01*
X73976069Y-83430952D02*
X73976069Y-84049999D01*
X74296069Y-78478095D02*
X73296069Y-78478095D01*
X74296069Y-79049523D02*
X73724640Y-78620952D01*
X73296069Y-79049523D02*
X73867497Y-78478095D01*
X112076069Y-62047619D02*
X111076069Y-62047619D01*
X111076069Y-62047619D02*
X111076069Y-62285714D01*
X111076069Y-62285714D02*
X111123688Y-62428571D01*
X111123688Y-62428571D02*
X111218926Y-62523809D01*
X111218926Y-62523809D02*
X111314164Y-62571428D01*
X111314164Y-62571428D02*
X111504640Y-62619047D01*
X111504640Y-62619047D02*
X111647497Y-62619047D01*
X111647497Y-62619047D02*
X111837973Y-62571428D01*
X111837973Y-62571428D02*
X111933211Y-62523809D01*
X111933211Y-62523809D02*
X112028450Y-62428571D01*
X112028450Y-62428571D02*
X112076069Y-62285714D01*
X112076069Y-62285714D02*
X112076069Y-62047619D01*
X111409402Y-63476190D02*
X112076069Y-63476190D01*
X111028450Y-63238095D02*
X111742735Y-63000000D01*
X111742735Y-63000000D02*
X111742735Y-63619047D01*
X112028450Y-64047619D02*
X112076069Y-64047619D01*
X112076069Y-64047619D02*
X112171307Y-64000000D01*
X112171307Y-64000000D02*
X112218926Y-63952381D01*
X112076069Y-64999999D02*
X112076069Y-64428571D01*
X112076069Y-64714285D02*
X111076069Y-64714285D01*
X111076069Y-64714285D02*
X111218926Y-64619047D01*
X111218926Y-64619047D02*
X111314164Y-64523809D01*
X111314164Y-64523809D02*
X111361783Y-64428571D01*
X112396069Y-59428095D02*
X111396069Y-59428095D01*
X112396069Y-59999523D02*
X111824640Y-59570952D01*
X111396069Y-59999523D02*
X111967497Y-59428095D01*
X131126069Y-119197619D02*
X130126069Y-119197619D01*
X130126069Y-119197619D02*
X130126069Y-119435714D01*
X130126069Y-119435714D02*
X130173688Y-119578571D01*
X130173688Y-119578571D02*
X130268926Y-119673809D01*
X130268926Y-119673809D02*
X130364164Y-119721428D01*
X130364164Y-119721428D02*
X130554640Y-119769047D01*
X130554640Y-119769047D02*
X130697497Y-119769047D01*
X130697497Y-119769047D02*
X130887973Y-119721428D01*
X130887973Y-119721428D02*
X130983211Y-119673809D01*
X130983211Y-119673809D02*
X131078450Y-119578571D01*
X131078450Y-119578571D02*
X131126069Y-119435714D01*
X131126069Y-119435714D02*
X131126069Y-119197619D01*
X130126069Y-120673809D02*
X130126069Y-120197619D01*
X130126069Y-120197619D02*
X130602259Y-120150000D01*
X130602259Y-120150000D02*
X130554640Y-120197619D01*
X130554640Y-120197619D02*
X130507021Y-120292857D01*
X130507021Y-120292857D02*
X130507021Y-120530952D01*
X130507021Y-120530952D02*
X130554640Y-120626190D01*
X130554640Y-120626190D02*
X130602259Y-120673809D01*
X130602259Y-120673809D02*
X130697497Y-120721428D01*
X130697497Y-120721428D02*
X130935592Y-120721428D01*
X130935592Y-120721428D02*
X131030830Y-120673809D01*
X131030830Y-120673809D02*
X131078450Y-120626190D01*
X131078450Y-120626190D02*
X131126069Y-120530952D01*
X131126069Y-120530952D02*
X131126069Y-120292857D01*
X131126069Y-120292857D02*
X131078450Y-120197619D01*
X131078450Y-120197619D02*
X131030830Y-120150000D01*
X131078450Y-121197619D02*
X131126069Y-121197619D01*
X131126069Y-121197619D02*
X131221307Y-121150000D01*
X131221307Y-121150000D02*
X131268926Y-121102381D01*
X130459402Y-122054761D02*
X131126069Y-122054761D01*
X130078450Y-121816666D02*
X130792735Y-121578571D01*
X130792735Y-121578571D02*
X130792735Y-122197618D01*
X131446069Y-116578095D02*
X130446069Y-116578095D01*
X131446069Y-117149523D02*
X130874640Y-116720952D01*
X130446069Y-117149523D02*
X131017497Y-116578095D01*
X87118630Y-67549819D02*
X87118630Y-66549819D01*
X87118630Y-66549819D02*
X86880535Y-66549819D01*
X86880535Y-66549819D02*
X86737678Y-66597438D01*
X86737678Y-66597438D02*
X86642440Y-66692676D01*
X86642440Y-66692676D02*
X86594821Y-66787914D01*
X86594821Y-66787914D02*
X86547202Y-66978390D01*
X86547202Y-66978390D02*
X86547202Y-67121247D01*
X86547202Y-67121247D02*
X86594821Y-67311723D01*
X86594821Y-67311723D02*
X86642440Y-67406961D01*
X86642440Y-67406961D02*
X86737678Y-67502200D01*
X86737678Y-67502200D02*
X86880535Y-67549819D01*
X86880535Y-67549819D02*
X87118630Y-67549819D01*
X86213868Y-66549819D02*
X85594821Y-66549819D01*
X85594821Y-66549819D02*
X85928154Y-66930771D01*
X85928154Y-66930771D02*
X85785297Y-66930771D01*
X85785297Y-66930771D02*
X85690059Y-66978390D01*
X85690059Y-66978390D02*
X85642440Y-67026009D01*
X85642440Y-67026009D02*
X85594821Y-67121247D01*
X85594821Y-67121247D02*
X85594821Y-67359342D01*
X85594821Y-67359342D02*
X85642440Y-67454580D01*
X85642440Y-67454580D02*
X85690059Y-67502200D01*
X85690059Y-67502200D02*
X85785297Y-67549819D01*
X85785297Y-67549819D02*
X86071011Y-67549819D01*
X86071011Y-67549819D02*
X86166249Y-67502200D01*
X86166249Y-67502200D02*
X86213868Y-67454580D01*
X85118630Y-67502200D02*
X85118630Y-67549819D01*
X85118630Y-67549819D02*
X85166249Y-67645057D01*
X85166249Y-67645057D02*
X85213868Y-67692676D01*
X84166250Y-67549819D02*
X84737678Y-67549819D01*
X84451964Y-67549819D02*
X84451964Y-66549819D01*
X84451964Y-66549819D02*
X84547202Y-66692676D01*
X84547202Y-66692676D02*
X84642440Y-66787914D01*
X84642440Y-66787914D02*
X84737678Y-66835533D01*
X89738154Y-67869819D02*
X89738154Y-66869819D01*
X89166726Y-67869819D02*
X89595297Y-67298390D01*
X89166726Y-66869819D02*
X89738154Y-67441247D01*
X112076069Y-42997619D02*
X111076069Y-42997619D01*
X111076069Y-42997619D02*
X111076069Y-43235714D01*
X111076069Y-43235714D02*
X111123688Y-43378571D01*
X111123688Y-43378571D02*
X111218926Y-43473809D01*
X111218926Y-43473809D02*
X111314164Y-43521428D01*
X111314164Y-43521428D02*
X111504640Y-43569047D01*
X111504640Y-43569047D02*
X111647497Y-43569047D01*
X111647497Y-43569047D02*
X111837973Y-43521428D01*
X111837973Y-43521428D02*
X111933211Y-43473809D01*
X111933211Y-43473809D02*
X112028450Y-43378571D01*
X112028450Y-43378571D02*
X112076069Y-43235714D01*
X112076069Y-43235714D02*
X112076069Y-42997619D01*
X111409402Y-44426190D02*
X112076069Y-44426190D01*
X111028450Y-44188095D02*
X111742735Y-43950000D01*
X111742735Y-43950000D02*
X111742735Y-44569047D01*
X112028450Y-44997619D02*
X112076069Y-44997619D01*
X112076069Y-44997619D02*
X112171307Y-44950000D01*
X112171307Y-44950000D02*
X112218926Y-44902381D01*
X111076069Y-45616666D02*
X111076069Y-45711904D01*
X111076069Y-45711904D02*
X111123688Y-45807142D01*
X111123688Y-45807142D02*
X111171307Y-45854761D01*
X111171307Y-45854761D02*
X111266545Y-45902380D01*
X111266545Y-45902380D02*
X111457021Y-45949999D01*
X111457021Y-45949999D02*
X111695116Y-45949999D01*
X111695116Y-45949999D02*
X111885592Y-45902380D01*
X111885592Y-45902380D02*
X111980830Y-45854761D01*
X111980830Y-45854761D02*
X112028450Y-45807142D01*
X112028450Y-45807142D02*
X112076069Y-45711904D01*
X112076069Y-45711904D02*
X112076069Y-45616666D01*
X112076069Y-45616666D02*
X112028450Y-45521428D01*
X112028450Y-45521428D02*
X111980830Y-45473809D01*
X111980830Y-45473809D02*
X111885592Y-45426190D01*
X111885592Y-45426190D02*
X111695116Y-45378571D01*
X111695116Y-45378571D02*
X111457021Y-45378571D01*
X111457021Y-45378571D02*
X111266545Y-45426190D01*
X111266545Y-45426190D02*
X111171307Y-45473809D01*
X111171307Y-45473809D02*
X111123688Y-45521428D01*
X111123688Y-45521428D02*
X111076069Y-45616666D01*
X112396069Y-40378095D02*
X111396069Y-40378095D01*
X112396069Y-40949523D02*
X111824640Y-40520952D01*
X111396069Y-40949523D02*
X111967497Y-40378095D01*
X131126069Y-100147619D02*
X130126069Y-100147619D01*
X130126069Y-100147619D02*
X130126069Y-100385714D01*
X130126069Y-100385714D02*
X130173688Y-100528571D01*
X130173688Y-100528571D02*
X130268926Y-100623809D01*
X130268926Y-100623809D02*
X130364164Y-100671428D01*
X130364164Y-100671428D02*
X130554640Y-100719047D01*
X130554640Y-100719047D02*
X130697497Y-100719047D01*
X130697497Y-100719047D02*
X130887973Y-100671428D01*
X130887973Y-100671428D02*
X130983211Y-100623809D01*
X130983211Y-100623809D02*
X131078450Y-100528571D01*
X131078450Y-100528571D02*
X131126069Y-100385714D01*
X131126069Y-100385714D02*
X131126069Y-100147619D01*
X130126069Y-101623809D02*
X130126069Y-101147619D01*
X130126069Y-101147619D02*
X130602259Y-101100000D01*
X130602259Y-101100000D02*
X130554640Y-101147619D01*
X130554640Y-101147619D02*
X130507021Y-101242857D01*
X130507021Y-101242857D02*
X130507021Y-101480952D01*
X130507021Y-101480952D02*
X130554640Y-101576190D01*
X130554640Y-101576190D02*
X130602259Y-101623809D01*
X130602259Y-101623809D02*
X130697497Y-101671428D01*
X130697497Y-101671428D02*
X130935592Y-101671428D01*
X130935592Y-101671428D02*
X131030830Y-101623809D01*
X131030830Y-101623809D02*
X131078450Y-101576190D01*
X131078450Y-101576190D02*
X131126069Y-101480952D01*
X131126069Y-101480952D02*
X131126069Y-101242857D01*
X131126069Y-101242857D02*
X131078450Y-101147619D01*
X131078450Y-101147619D02*
X131030830Y-101100000D01*
X131078450Y-102147619D02*
X131126069Y-102147619D01*
X131126069Y-102147619D02*
X131221307Y-102100000D01*
X131221307Y-102100000D02*
X131268926Y-102052381D01*
X130126069Y-102480952D02*
X130126069Y-103099999D01*
X130126069Y-103099999D02*
X130507021Y-102766666D01*
X130507021Y-102766666D02*
X130507021Y-102909523D01*
X130507021Y-102909523D02*
X130554640Y-103004761D01*
X130554640Y-103004761D02*
X130602259Y-103052380D01*
X130602259Y-103052380D02*
X130697497Y-103099999D01*
X130697497Y-103099999D02*
X130935592Y-103099999D01*
X130935592Y-103099999D02*
X131030830Y-103052380D01*
X131030830Y-103052380D02*
X131078450Y-103004761D01*
X131078450Y-103004761D02*
X131126069Y-102909523D01*
X131126069Y-102909523D02*
X131126069Y-102623809D01*
X131126069Y-102623809D02*
X131078450Y-102528571D01*
X131078450Y-102528571D02*
X131030830Y-102480952D01*
X131446069Y-97528095D02*
X130446069Y-97528095D01*
X131446069Y-98099523D02*
X130874640Y-97670952D01*
X130446069Y-98099523D02*
X131017497Y-97528095D01*
X35876069Y-100147619D02*
X34876069Y-100147619D01*
X34876069Y-100147619D02*
X34876069Y-100385714D01*
X34876069Y-100385714D02*
X34923688Y-100528571D01*
X34923688Y-100528571D02*
X35018926Y-100623809D01*
X35018926Y-100623809D02*
X35114164Y-100671428D01*
X35114164Y-100671428D02*
X35304640Y-100719047D01*
X35304640Y-100719047D02*
X35447497Y-100719047D01*
X35447497Y-100719047D02*
X35637973Y-100671428D01*
X35637973Y-100671428D02*
X35733211Y-100623809D01*
X35733211Y-100623809D02*
X35828450Y-100528571D01*
X35828450Y-100528571D02*
X35876069Y-100385714D01*
X35876069Y-100385714D02*
X35876069Y-100147619D01*
X34876069Y-101338095D02*
X34876069Y-101433333D01*
X34876069Y-101433333D02*
X34923688Y-101528571D01*
X34923688Y-101528571D02*
X34971307Y-101576190D01*
X34971307Y-101576190D02*
X35066545Y-101623809D01*
X35066545Y-101623809D02*
X35257021Y-101671428D01*
X35257021Y-101671428D02*
X35495116Y-101671428D01*
X35495116Y-101671428D02*
X35685592Y-101623809D01*
X35685592Y-101623809D02*
X35780830Y-101576190D01*
X35780830Y-101576190D02*
X35828450Y-101528571D01*
X35828450Y-101528571D02*
X35876069Y-101433333D01*
X35876069Y-101433333D02*
X35876069Y-101338095D01*
X35876069Y-101338095D02*
X35828450Y-101242857D01*
X35828450Y-101242857D02*
X35780830Y-101195238D01*
X35780830Y-101195238D02*
X35685592Y-101147619D01*
X35685592Y-101147619D02*
X35495116Y-101100000D01*
X35495116Y-101100000D02*
X35257021Y-101100000D01*
X35257021Y-101100000D02*
X35066545Y-101147619D01*
X35066545Y-101147619D02*
X34971307Y-101195238D01*
X34971307Y-101195238D02*
X34923688Y-101242857D01*
X34923688Y-101242857D02*
X34876069Y-101338095D01*
X35828450Y-102147619D02*
X35876069Y-102147619D01*
X35876069Y-102147619D02*
X35971307Y-102100000D01*
X35971307Y-102100000D02*
X36018926Y-102052381D01*
X34876069Y-102480952D02*
X34876069Y-103099999D01*
X34876069Y-103099999D02*
X35257021Y-102766666D01*
X35257021Y-102766666D02*
X35257021Y-102909523D01*
X35257021Y-102909523D02*
X35304640Y-103004761D01*
X35304640Y-103004761D02*
X35352259Y-103052380D01*
X35352259Y-103052380D02*
X35447497Y-103099999D01*
X35447497Y-103099999D02*
X35685592Y-103099999D01*
X35685592Y-103099999D02*
X35780830Y-103052380D01*
X35780830Y-103052380D02*
X35828450Y-103004761D01*
X35828450Y-103004761D02*
X35876069Y-102909523D01*
X35876069Y-102909523D02*
X35876069Y-102623809D01*
X35876069Y-102623809D02*
X35828450Y-102528571D01*
X35828450Y-102528571D02*
X35780830Y-102480952D01*
X36196069Y-97528095D02*
X35196069Y-97528095D01*
X36196069Y-98099523D02*
X35624640Y-97670952D01*
X35196069Y-98099523D02*
X35767497Y-97528095D01*
X131126069Y-81097619D02*
X130126069Y-81097619D01*
X130126069Y-81097619D02*
X130126069Y-81335714D01*
X130126069Y-81335714D02*
X130173688Y-81478571D01*
X130173688Y-81478571D02*
X130268926Y-81573809D01*
X130268926Y-81573809D02*
X130364164Y-81621428D01*
X130364164Y-81621428D02*
X130554640Y-81669047D01*
X130554640Y-81669047D02*
X130697497Y-81669047D01*
X130697497Y-81669047D02*
X130887973Y-81621428D01*
X130887973Y-81621428D02*
X130983211Y-81573809D01*
X130983211Y-81573809D02*
X131078450Y-81478571D01*
X131078450Y-81478571D02*
X131126069Y-81335714D01*
X131126069Y-81335714D02*
X131126069Y-81097619D01*
X130126069Y-82573809D02*
X130126069Y-82097619D01*
X130126069Y-82097619D02*
X130602259Y-82050000D01*
X130602259Y-82050000D02*
X130554640Y-82097619D01*
X130554640Y-82097619D02*
X130507021Y-82192857D01*
X130507021Y-82192857D02*
X130507021Y-82430952D01*
X130507021Y-82430952D02*
X130554640Y-82526190D01*
X130554640Y-82526190D02*
X130602259Y-82573809D01*
X130602259Y-82573809D02*
X130697497Y-82621428D01*
X130697497Y-82621428D02*
X130935592Y-82621428D01*
X130935592Y-82621428D02*
X131030830Y-82573809D01*
X131030830Y-82573809D02*
X131078450Y-82526190D01*
X131078450Y-82526190D02*
X131126069Y-82430952D01*
X131126069Y-82430952D02*
X131126069Y-82192857D01*
X131126069Y-82192857D02*
X131078450Y-82097619D01*
X131078450Y-82097619D02*
X131030830Y-82050000D01*
X131078450Y-83097619D02*
X131126069Y-83097619D01*
X131126069Y-83097619D02*
X131221307Y-83050000D01*
X131221307Y-83050000D02*
X131268926Y-83002381D01*
X130221307Y-83478571D02*
X130173688Y-83526190D01*
X130173688Y-83526190D02*
X130126069Y-83621428D01*
X130126069Y-83621428D02*
X130126069Y-83859523D01*
X130126069Y-83859523D02*
X130173688Y-83954761D01*
X130173688Y-83954761D02*
X130221307Y-84002380D01*
X130221307Y-84002380D02*
X130316545Y-84049999D01*
X130316545Y-84049999D02*
X130411783Y-84049999D01*
X130411783Y-84049999D02*
X130554640Y-84002380D01*
X130554640Y-84002380D02*
X131126069Y-83430952D01*
X131126069Y-83430952D02*
X131126069Y-84049999D01*
X131446069Y-78478095D02*
X130446069Y-78478095D01*
X131446069Y-79049523D02*
X130874640Y-78620952D01*
X130446069Y-79049523D02*
X131017497Y-78478095D01*
X131126069Y-42997619D02*
X130126069Y-42997619D01*
X130126069Y-42997619D02*
X130126069Y-43235714D01*
X130126069Y-43235714D02*
X130173688Y-43378571D01*
X130173688Y-43378571D02*
X130268926Y-43473809D01*
X130268926Y-43473809D02*
X130364164Y-43521428D01*
X130364164Y-43521428D02*
X130554640Y-43569047D01*
X130554640Y-43569047D02*
X130697497Y-43569047D01*
X130697497Y-43569047D02*
X130887973Y-43521428D01*
X130887973Y-43521428D02*
X130983211Y-43473809D01*
X130983211Y-43473809D02*
X131078450Y-43378571D01*
X131078450Y-43378571D02*
X131126069Y-43235714D01*
X131126069Y-43235714D02*
X131126069Y-42997619D01*
X130126069Y-44473809D02*
X130126069Y-43997619D01*
X130126069Y-43997619D02*
X130602259Y-43950000D01*
X130602259Y-43950000D02*
X130554640Y-43997619D01*
X130554640Y-43997619D02*
X130507021Y-44092857D01*
X130507021Y-44092857D02*
X130507021Y-44330952D01*
X130507021Y-44330952D02*
X130554640Y-44426190D01*
X130554640Y-44426190D02*
X130602259Y-44473809D01*
X130602259Y-44473809D02*
X130697497Y-44521428D01*
X130697497Y-44521428D02*
X130935592Y-44521428D01*
X130935592Y-44521428D02*
X131030830Y-44473809D01*
X131030830Y-44473809D02*
X131078450Y-44426190D01*
X131078450Y-44426190D02*
X131126069Y-44330952D01*
X131126069Y-44330952D02*
X131126069Y-44092857D01*
X131126069Y-44092857D02*
X131078450Y-43997619D01*
X131078450Y-43997619D02*
X131030830Y-43950000D01*
X131078450Y-44997619D02*
X131126069Y-44997619D01*
X131126069Y-44997619D02*
X131221307Y-44950000D01*
X131221307Y-44950000D02*
X131268926Y-44902381D01*
X130126069Y-45616666D02*
X130126069Y-45711904D01*
X130126069Y-45711904D02*
X130173688Y-45807142D01*
X130173688Y-45807142D02*
X130221307Y-45854761D01*
X130221307Y-45854761D02*
X130316545Y-45902380D01*
X130316545Y-45902380D02*
X130507021Y-45949999D01*
X130507021Y-45949999D02*
X130745116Y-45949999D01*
X130745116Y-45949999D02*
X130935592Y-45902380D01*
X130935592Y-45902380D02*
X131030830Y-45854761D01*
X131030830Y-45854761D02*
X131078450Y-45807142D01*
X131078450Y-45807142D02*
X131126069Y-45711904D01*
X131126069Y-45711904D02*
X131126069Y-45616666D01*
X131126069Y-45616666D02*
X131078450Y-45521428D01*
X131078450Y-45521428D02*
X131030830Y-45473809D01*
X131030830Y-45473809D02*
X130935592Y-45426190D01*
X130935592Y-45426190D02*
X130745116Y-45378571D01*
X130745116Y-45378571D02*
X130507021Y-45378571D01*
X130507021Y-45378571D02*
X130316545Y-45426190D01*
X130316545Y-45426190D02*
X130221307Y-45473809D01*
X130221307Y-45473809D02*
X130173688Y-45521428D01*
X130173688Y-45521428D02*
X130126069Y-45616666D01*
X131446069Y-40378095D02*
X130446069Y-40378095D01*
X131446069Y-40949523D02*
X130874640Y-40520952D01*
X130446069Y-40949523D02*
X131017497Y-40378095D01*
X112076069Y-119197619D02*
X111076069Y-119197619D01*
X111076069Y-119197619D02*
X111076069Y-119435714D01*
X111076069Y-119435714D02*
X111123688Y-119578571D01*
X111123688Y-119578571D02*
X111218926Y-119673809D01*
X111218926Y-119673809D02*
X111314164Y-119721428D01*
X111314164Y-119721428D02*
X111504640Y-119769047D01*
X111504640Y-119769047D02*
X111647497Y-119769047D01*
X111647497Y-119769047D02*
X111837973Y-119721428D01*
X111837973Y-119721428D02*
X111933211Y-119673809D01*
X111933211Y-119673809D02*
X112028450Y-119578571D01*
X112028450Y-119578571D02*
X112076069Y-119435714D01*
X112076069Y-119435714D02*
X112076069Y-119197619D01*
X111409402Y-120626190D02*
X112076069Y-120626190D01*
X111028450Y-120388095D02*
X111742735Y-120150000D01*
X111742735Y-120150000D02*
X111742735Y-120769047D01*
X112028450Y-121197619D02*
X112076069Y-121197619D01*
X112076069Y-121197619D02*
X112171307Y-121150000D01*
X112171307Y-121150000D02*
X112218926Y-121102381D01*
X111409402Y-122054761D02*
X112076069Y-122054761D01*
X111028450Y-121816666D02*
X111742735Y-121578571D01*
X111742735Y-121578571D02*
X111742735Y-122197618D01*
X112396069Y-116578095D02*
X111396069Y-116578095D01*
X112396069Y-117149523D02*
X111824640Y-116720952D01*
X111396069Y-117149523D02*
X111967497Y-116578095D01*
X73976069Y-119197619D02*
X72976069Y-119197619D01*
X72976069Y-119197619D02*
X72976069Y-119435714D01*
X72976069Y-119435714D02*
X73023688Y-119578571D01*
X73023688Y-119578571D02*
X73118926Y-119673809D01*
X73118926Y-119673809D02*
X73214164Y-119721428D01*
X73214164Y-119721428D02*
X73404640Y-119769047D01*
X73404640Y-119769047D02*
X73547497Y-119769047D01*
X73547497Y-119769047D02*
X73737973Y-119721428D01*
X73737973Y-119721428D02*
X73833211Y-119673809D01*
X73833211Y-119673809D02*
X73928450Y-119578571D01*
X73928450Y-119578571D02*
X73976069Y-119435714D01*
X73976069Y-119435714D02*
X73976069Y-119197619D01*
X73071307Y-120150000D02*
X73023688Y-120197619D01*
X73023688Y-120197619D02*
X72976069Y-120292857D01*
X72976069Y-120292857D02*
X72976069Y-120530952D01*
X72976069Y-120530952D02*
X73023688Y-120626190D01*
X73023688Y-120626190D02*
X73071307Y-120673809D01*
X73071307Y-120673809D02*
X73166545Y-120721428D01*
X73166545Y-120721428D02*
X73261783Y-120721428D01*
X73261783Y-120721428D02*
X73404640Y-120673809D01*
X73404640Y-120673809D02*
X73976069Y-120102381D01*
X73976069Y-120102381D02*
X73976069Y-120721428D01*
X73928450Y-121197619D02*
X73976069Y-121197619D01*
X73976069Y-121197619D02*
X74071307Y-121150000D01*
X74071307Y-121150000D02*
X74118926Y-121102381D01*
X73309402Y-122054761D02*
X73976069Y-122054761D01*
X72928450Y-121816666D02*
X73642735Y-121578571D01*
X73642735Y-121578571D02*
X73642735Y-122197618D01*
X74296069Y-116578095D02*
X73296069Y-116578095D01*
X74296069Y-117149523D02*
X73724640Y-116720952D01*
X73296069Y-117149523D02*
X73867497Y-116578095D01*
X54926069Y-119197619D02*
X53926069Y-119197619D01*
X53926069Y-119197619D02*
X53926069Y-119435714D01*
X53926069Y-119435714D02*
X53973688Y-119578571D01*
X53973688Y-119578571D02*
X54068926Y-119673809D01*
X54068926Y-119673809D02*
X54164164Y-119721428D01*
X54164164Y-119721428D02*
X54354640Y-119769047D01*
X54354640Y-119769047D02*
X54497497Y-119769047D01*
X54497497Y-119769047D02*
X54687973Y-119721428D01*
X54687973Y-119721428D02*
X54783211Y-119673809D01*
X54783211Y-119673809D02*
X54878450Y-119578571D01*
X54878450Y-119578571D02*
X54926069Y-119435714D01*
X54926069Y-119435714D02*
X54926069Y-119197619D01*
X54926069Y-120721428D02*
X54926069Y-120150000D01*
X54926069Y-120435714D02*
X53926069Y-120435714D01*
X53926069Y-120435714D02*
X54068926Y-120340476D01*
X54068926Y-120340476D02*
X54164164Y-120245238D01*
X54164164Y-120245238D02*
X54211783Y-120150000D01*
X54878450Y-121197619D02*
X54926069Y-121197619D01*
X54926069Y-121197619D02*
X55021307Y-121150000D01*
X55021307Y-121150000D02*
X55068926Y-121102381D01*
X54259402Y-122054761D02*
X54926069Y-122054761D01*
X53878450Y-121816666D02*
X54592735Y-121578571D01*
X54592735Y-121578571D02*
X54592735Y-122197618D01*
X55246069Y-116578095D02*
X54246069Y-116578095D01*
X55246069Y-117149523D02*
X54674640Y-116720952D01*
X54246069Y-117149523D02*
X54817497Y-116578095D01*
X54926069Y-81097619D02*
X53926069Y-81097619D01*
X53926069Y-81097619D02*
X53926069Y-81335714D01*
X53926069Y-81335714D02*
X53973688Y-81478571D01*
X53973688Y-81478571D02*
X54068926Y-81573809D01*
X54068926Y-81573809D02*
X54164164Y-81621428D01*
X54164164Y-81621428D02*
X54354640Y-81669047D01*
X54354640Y-81669047D02*
X54497497Y-81669047D01*
X54497497Y-81669047D02*
X54687973Y-81621428D01*
X54687973Y-81621428D02*
X54783211Y-81573809D01*
X54783211Y-81573809D02*
X54878450Y-81478571D01*
X54878450Y-81478571D02*
X54926069Y-81335714D01*
X54926069Y-81335714D02*
X54926069Y-81097619D01*
X54926069Y-82621428D02*
X54926069Y-82050000D01*
X54926069Y-82335714D02*
X53926069Y-82335714D01*
X53926069Y-82335714D02*
X54068926Y-82240476D01*
X54068926Y-82240476D02*
X54164164Y-82145238D01*
X54164164Y-82145238D02*
X54211783Y-82050000D01*
X54878450Y-83097619D02*
X54926069Y-83097619D01*
X54926069Y-83097619D02*
X55021307Y-83050000D01*
X55021307Y-83050000D02*
X55068926Y-83002381D01*
X54021307Y-83478571D02*
X53973688Y-83526190D01*
X53973688Y-83526190D02*
X53926069Y-83621428D01*
X53926069Y-83621428D02*
X53926069Y-83859523D01*
X53926069Y-83859523D02*
X53973688Y-83954761D01*
X53973688Y-83954761D02*
X54021307Y-84002380D01*
X54021307Y-84002380D02*
X54116545Y-84049999D01*
X54116545Y-84049999D02*
X54211783Y-84049999D01*
X54211783Y-84049999D02*
X54354640Y-84002380D01*
X54354640Y-84002380D02*
X54926069Y-83430952D01*
X54926069Y-83430952D02*
X54926069Y-84049999D01*
X55246069Y-78478095D02*
X54246069Y-78478095D01*
X55246069Y-79049523D02*
X54674640Y-78620952D01*
X54246069Y-79049523D02*
X54817497Y-78478095D01*
X93026069Y-119197619D02*
X92026069Y-119197619D01*
X92026069Y-119197619D02*
X92026069Y-119435714D01*
X92026069Y-119435714D02*
X92073688Y-119578571D01*
X92073688Y-119578571D02*
X92168926Y-119673809D01*
X92168926Y-119673809D02*
X92264164Y-119721428D01*
X92264164Y-119721428D02*
X92454640Y-119769047D01*
X92454640Y-119769047D02*
X92597497Y-119769047D01*
X92597497Y-119769047D02*
X92787973Y-119721428D01*
X92787973Y-119721428D02*
X92883211Y-119673809D01*
X92883211Y-119673809D02*
X92978450Y-119578571D01*
X92978450Y-119578571D02*
X93026069Y-119435714D01*
X93026069Y-119435714D02*
X93026069Y-119197619D01*
X92026069Y-120102381D02*
X92026069Y-120721428D01*
X92026069Y-120721428D02*
X92407021Y-120388095D01*
X92407021Y-120388095D02*
X92407021Y-120530952D01*
X92407021Y-120530952D02*
X92454640Y-120626190D01*
X92454640Y-120626190D02*
X92502259Y-120673809D01*
X92502259Y-120673809D02*
X92597497Y-120721428D01*
X92597497Y-120721428D02*
X92835592Y-120721428D01*
X92835592Y-120721428D02*
X92930830Y-120673809D01*
X92930830Y-120673809D02*
X92978450Y-120626190D01*
X92978450Y-120626190D02*
X93026069Y-120530952D01*
X93026069Y-120530952D02*
X93026069Y-120245238D01*
X93026069Y-120245238D02*
X92978450Y-120150000D01*
X92978450Y-120150000D02*
X92930830Y-120102381D01*
X92978450Y-121197619D02*
X93026069Y-121197619D01*
X93026069Y-121197619D02*
X93121307Y-121150000D01*
X93121307Y-121150000D02*
X93168926Y-121102381D01*
X92359402Y-122054761D02*
X93026069Y-122054761D01*
X91978450Y-121816666D02*
X92692735Y-121578571D01*
X92692735Y-121578571D02*
X92692735Y-122197618D01*
X93346069Y-116578095D02*
X92346069Y-116578095D01*
X93346069Y-117149523D02*
X92774640Y-116720952D01*
X92346069Y-117149523D02*
X92917497Y-116578095D01*
X93026069Y-81097619D02*
X92026069Y-81097619D01*
X92026069Y-81097619D02*
X92026069Y-81335714D01*
X92026069Y-81335714D02*
X92073688Y-81478571D01*
X92073688Y-81478571D02*
X92168926Y-81573809D01*
X92168926Y-81573809D02*
X92264164Y-81621428D01*
X92264164Y-81621428D02*
X92454640Y-81669047D01*
X92454640Y-81669047D02*
X92597497Y-81669047D01*
X92597497Y-81669047D02*
X92787973Y-81621428D01*
X92787973Y-81621428D02*
X92883211Y-81573809D01*
X92883211Y-81573809D02*
X92978450Y-81478571D01*
X92978450Y-81478571D02*
X93026069Y-81335714D01*
X93026069Y-81335714D02*
X93026069Y-81097619D01*
X92026069Y-82002381D02*
X92026069Y-82621428D01*
X92026069Y-82621428D02*
X92407021Y-82288095D01*
X92407021Y-82288095D02*
X92407021Y-82430952D01*
X92407021Y-82430952D02*
X92454640Y-82526190D01*
X92454640Y-82526190D02*
X92502259Y-82573809D01*
X92502259Y-82573809D02*
X92597497Y-82621428D01*
X92597497Y-82621428D02*
X92835592Y-82621428D01*
X92835592Y-82621428D02*
X92930830Y-82573809D01*
X92930830Y-82573809D02*
X92978450Y-82526190D01*
X92978450Y-82526190D02*
X93026069Y-82430952D01*
X93026069Y-82430952D02*
X93026069Y-82145238D01*
X93026069Y-82145238D02*
X92978450Y-82050000D01*
X92978450Y-82050000D02*
X92930830Y-82002381D01*
X92978450Y-83097619D02*
X93026069Y-83097619D01*
X93026069Y-83097619D02*
X93121307Y-83050000D01*
X93121307Y-83050000D02*
X93168926Y-83002381D01*
X92121307Y-83478571D02*
X92073688Y-83526190D01*
X92073688Y-83526190D02*
X92026069Y-83621428D01*
X92026069Y-83621428D02*
X92026069Y-83859523D01*
X92026069Y-83859523D02*
X92073688Y-83954761D01*
X92073688Y-83954761D02*
X92121307Y-84002380D01*
X92121307Y-84002380D02*
X92216545Y-84049999D01*
X92216545Y-84049999D02*
X92311783Y-84049999D01*
X92311783Y-84049999D02*
X92454640Y-84002380D01*
X92454640Y-84002380D02*
X93026069Y-83430952D01*
X93026069Y-83430952D02*
X93026069Y-84049999D01*
X93346069Y-78478095D02*
X92346069Y-78478095D01*
X93346069Y-79049523D02*
X92774640Y-78620952D01*
X92346069Y-79049523D02*
X92917497Y-78478095D01*
X112076069Y-100147619D02*
X111076069Y-100147619D01*
X111076069Y-100147619D02*
X111076069Y-100385714D01*
X111076069Y-100385714D02*
X111123688Y-100528571D01*
X111123688Y-100528571D02*
X111218926Y-100623809D01*
X111218926Y-100623809D02*
X111314164Y-100671428D01*
X111314164Y-100671428D02*
X111504640Y-100719047D01*
X111504640Y-100719047D02*
X111647497Y-100719047D01*
X111647497Y-100719047D02*
X111837973Y-100671428D01*
X111837973Y-100671428D02*
X111933211Y-100623809D01*
X111933211Y-100623809D02*
X112028450Y-100528571D01*
X112028450Y-100528571D02*
X112076069Y-100385714D01*
X112076069Y-100385714D02*
X112076069Y-100147619D01*
X111409402Y-101576190D02*
X112076069Y-101576190D01*
X111028450Y-101338095D02*
X111742735Y-101100000D01*
X111742735Y-101100000D02*
X111742735Y-101719047D01*
X112028450Y-102147619D02*
X112076069Y-102147619D01*
X112076069Y-102147619D02*
X112171307Y-102100000D01*
X112171307Y-102100000D02*
X112218926Y-102052381D01*
X111076069Y-102480952D02*
X111076069Y-103099999D01*
X111076069Y-103099999D02*
X111457021Y-102766666D01*
X111457021Y-102766666D02*
X111457021Y-102909523D01*
X111457021Y-102909523D02*
X111504640Y-103004761D01*
X111504640Y-103004761D02*
X111552259Y-103052380D01*
X111552259Y-103052380D02*
X111647497Y-103099999D01*
X111647497Y-103099999D02*
X111885592Y-103099999D01*
X111885592Y-103099999D02*
X111980830Y-103052380D01*
X111980830Y-103052380D02*
X112028450Y-103004761D01*
X112028450Y-103004761D02*
X112076069Y-102909523D01*
X112076069Y-102909523D02*
X112076069Y-102623809D01*
X112076069Y-102623809D02*
X112028450Y-102528571D01*
X112028450Y-102528571D02*
X111980830Y-102480952D01*
X112396069Y-97528095D02*
X111396069Y-97528095D01*
X112396069Y-98099523D02*
X111824640Y-97670952D01*
X111396069Y-98099523D02*
X111967497Y-97528095D01*
X73976069Y-42997619D02*
X72976069Y-42997619D01*
X72976069Y-42997619D02*
X72976069Y-43235714D01*
X72976069Y-43235714D02*
X73023688Y-43378571D01*
X73023688Y-43378571D02*
X73118926Y-43473809D01*
X73118926Y-43473809D02*
X73214164Y-43521428D01*
X73214164Y-43521428D02*
X73404640Y-43569047D01*
X73404640Y-43569047D02*
X73547497Y-43569047D01*
X73547497Y-43569047D02*
X73737973Y-43521428D01*
X73737973Y-43521428D02*
X73833211Y-43473809D01*
X73833211Y-43473809D02*
X73928450Y-43378571D01*
X73928450Y-43378571D02*
X73976069Y-43235714D01*
X73976069Y-43235714D02*
X73976069Y-42997619D01*
X73071307Y-43950000D02*
X73023688Y-43997619D01*
X73023688Y-43997619D02*
X72976069Y-44092857D01*
X72976069Y-44092857D02*
X72976069Y-44330952D01*
X72976069Y-44330952D02*
X73023688Y-44426190D01*
X73023688Y-44426190D02*
X73071307Y-44473809D01*
X73071307Y-44473809D02*
X73166545Y-44521428D01*
X73166545Y-44521428D02*
X73261783Y-44521428D01*
X73261783Y-44521428D02*
X73404640Y-44473809D01*
X73404640Y-44473809D02*
X73976069Y-43902381D01*
X73976069Y-43902381D02*
X73976069Y-44521428D01*
X73928450Y-44997619D02*
X73976069Y-44997619D01*
X73976069Y-44997619D02*
X74071307Y-44950000D01*
X74071307Y-44950000D02*
X74118926Y-44902381D01*
X72976069Y-45616666D02*
X72976069Y-45711904D01*
X72976069Y-45711904D02*
X73023688Y-45807142D01*
X73023688Y-45807142D02*
X73071307Y-45854761D01*
X73071307Y-45854761D02*
X73166545Y-45902380D01*
X73166545Y-45902380D02*
X73357021Y-45949999D01*
X73357021Y-45949999D02*
X73595116Y-45949999D01*
X73595116Y-45949999D02*
X73785592Y-45902380D01*
X73785592Y-45902380D02*
X73880830Y-45854761D01*
X73880830Y-45854761D02*
X73928450Y-45807142D01*
X73928450Y-45807142D02*
X73976069Y-45711904D01*
X73976069Y-45711904D02*
X73976069Y-45616666D01*
X73976069Y-45616666D02*
X73928450Y-45521428D01*
X73928450Y-45521428D02*
X73880830Y-45473809D01*
X73880830Y-45473809D02*
X73785592Y-45426190D01*
X73785592Y-45426190D02*
X73595116Y-45378571D01*
X73595116Y-45378571D02*
X73357021Y-45378571D01*
X73357021Y-45378571D02*
X73166545Y-45426190D01*
X73166545Y-45426190D02*
X73071307Y-45473809D01*
X73071307Y-45473809D02*
X73023688Y-45521428D01*
X73023688Y-45521428D02*
X72976069Y-45616666D01*
X74296069Y-40378095D02*
X73296069Y-40378095D01*
X74296069Y-40949523D02*
X73724640Y-40520952D01*
X73296069Y-40949523D02*
X73867497Y-40378095D01*
X93026069Y-100147619D02*
X92026069Y-100147619D01*
X92026069Y-100147619D02*
X92026069Y-100385714D01*
X92026069Y-100385714D02*
X92073688Y-100528571D01*
X92073688Y-100528571D02*
X92168926Y-100623809D01*
X92168926Y-100623809D02*
X92264164Y-100671428D01*
X92264164Y-100671428D02*
X92454640Y-100719047D01*
X92454640Y-100719047D02*
X92597497Y-100719047D01*
X92597497Y-100719047D02*
X92787973Y-100671428D01*
X92787973Y-100671428D02*
X92883211Y-100623809D01*
X92883211Y-100623809D02*
X92978450Y-100528571D01*
X92978450Y-100528571D02*
X93026069Y-100385714D01*
X93026069Y-100385714D02*
X93026069Y-100147619D01*
X92026069Y-101052381D02*
X92026069Y-101671428D01*
X92026069Y-101671428D02*
X92407021Y-101338095D01*
X92407021Y-101338095D02*
X92407021Y-101480952D01*
X92407021Y-101480952D02*
X92454640Y-101576190D01*
X92454640Y-101576190D02*
X92502259Y-101623809D01*
X92502259Y-101623809D02*
X92597497Y-101671428D01*
X92597497Y-101671428D02*
X92835592Y-101671428D01*
X92835592Y-101671428D02*
X92930830Y-101623809D01*
X92930830Y-101623809D02*
X92978450Y-101576190D01*
X92978450Y-101576190D02*
X93026069Y-101480952D01*
X93026069Y-101480952D02*
X93026069Y-101195238D01*
X93026069Y-101195238D02*
X92978450Y-101100000D01*
X92978450Y-101100000D02*
X92930830Y-101052381D01*
X92978450Y-102147619D02*
X93026069Y-102147619D01*
X93026069Y-102147619D02*
X93121307Y-102100000D01*
X93121307Y-102100000D02*
X93168926Y-102052381D01*
X92026069Y-102480952D02*
X92026069Y-103099999D01*
X92026069Y-103099999D02*
X92407021Y-102766666D01*
X92407021Y-102766666D02*
X92407021Y-102909523D01*
X92407021Y-102909523D02*
X92454640Y-103004761D01*
X92454640Y-103004761D02*
X92502259Y-103052380D01*
X92502259Y-103052380D02*
X92597497Y-103099999D01*
X92597497Y-103099999D02*
X92835592Y-103099999D01*
X92835592Y-103099999D02*
X92930830Y-103052380D01*
X92930830Y-103052380D02*
X92978450Y-103004761D01*
X92978450Y-103004761D02*
X93026069Y-102909523D01*
X93026069Y-102909523D02*
X93026069Y-102623809D01*
X93026069Y-102623809D02*
X92978450Y-102528571D01*
X92978450Y-102528571D02*
X92930830Y-102480952D01*
X93346069Y-97528095D02*
X92346069Y-97528095D01*
X93346069Y-98099523D02*
X92774640Y-97670952D01*
X92346069Y-98099523D02*
X92917497Y-97528095D01*
X73976069Y-100147619D02*
X72976069Y-100147619D01*
X72976069Y-100147619D02*
X72976069Y-100385714D01*
X72976069Y-100385714D02*
X73023688Y-100528571D01*
X73023688Y-100528571D02*
X73118926Y-100623809D01*
X73118926Y-100623809D02*
X73214164Y-100671428D01*
X73214164Y-100671428D02*
X73404640Y-100719047D01*
X73404640Y-100719047D02*
X73547497Y-100719047D01*
X73547497Y-100719047D02*
X73737973Y-100671428D01*
X73737973Y-100671428D02*
X73833211Y-100623809D01*
X73833211Y-100623809D02*
X73928450Y-100528571D01*
X73928450Y-100528571D02*
X73976069Y-100385714D01*
X73976069Y-100385714D02*
X73976069Y-100147619D01*
X73071307Y-101100000D02*
X73023688Y-101147619D01*
X73023688Y-101147619D02*
X72976069Y-101242857D01*
X72976069Y-101242857D02*
X72976069Y-101480952D01*
X72976069Y-101480952D02*
X73023688Y-101576190D01*
X73023688Y-101576190D02*
X73071307Y-101623809D01*
X73071307Y-101623809D02*
X73166545Y-101671428D01*
X73166545Y-101671428D02*
X73261783Y-101671428D01*
X73261783Y-101671428D02*
X73404640Y-101623809D01*
X73404640Y-101623809D02*
X73976069Y-101052381D01*
X73976069Y-101052381D02*
X73976069Y-101671428D01*
X73928450Y-102147619D02*
X73976069Y-102147619D01*
X73976069Y-102147619D02*
X74071307Y-102100000D01*
X74071307Y-102100000D02*
X74118926Y-102052381D01*
X72976069Y-102480952D02*
X72976069Y-103099999D01*
X72976069Y-103099999D02*
X73357021Y-102766666D01*
X73357021Y-102766666D02*
X73357021Y-102909523D01*
X73357021Y-102909523D02*
X73404640Y-103004761D01*
X73404640Y-103004761D02*
X73452259Y-103052380D01*
X73452259Y-103052380D02*
X73547497Y-103099999D01*
X73547497Y-103099999D02*
X73785592Y-103099999D01*
X73785592Y-103099999D02*
X73880830Y-103052380D01*
X73880830Y-103052380D02*
X73928450Y-103004761D01*
X73928450Y-103004761D02*
X73976069Y-102909523D01*
X73976069Y-102909523D02*
X73976069Y-102623809D01*
X73976069Y-102623809D02*
X73928450Y-102528571D01*
X73928450Y-102528571D02*
X73880830Y-102480952D01*
X74296069Y-97528095D02*
X73296069Y-97528095D01*
X74296069Y-98099523D02*
X73724640Y-97670952D01*
X73296069Y-98099523D02*
X73867497Y-97528095D01*
X54926069Y-42997619D02*
X53926069Y-42997619D01*
X53926069Y-42997619D02*
X53926069Y-43235714D01*
X53926069Y-43235714D02*
X53973688Y-43378571D01*
X53973688Y-43378571D02*
X54068926Y-43473809D01*
X54068926Y-43473809D02*
X54164164Y-43521428D01*
X54164164Y-43521428D02*
X54354640Y-43569047D01*
X54354640Y-43569047D02*
X54497497Y-43569047D01*
X54497497Y-43569047D02*
X54687973Y-43521428D01*
X54687973Y-43521428D02*
X54783211Y-43473809D01*
X54783211Y-43473809D02*
X54878450Y-43378571D01*
X54878450Y-43378571D02*
X54926069Y-43235714D01*
X54926069Y-43235714D02*
X54926069Y-42997619D01*
X54926069Y-44521428D02*
X54926069Y-43950000D01*
X54926069Y-44235714D02*
X53926069Y-44235714D01*
X53926069Y-44235714D02*
X54068926Y-44140476D01*
X54068926Y-44140476D02*
X54164164Y-44045238D01*
X54164164Y-44045238D02*
X54211783Y-43950000D01*
X54878450Y-44997619D02*
X54926069Y-44997619D01*
X54926069Y-44997619D02*
X55021307Y-44950000D01*
X55021307Y-44950000D02*
X55068926Y-44902381D01*
X53926069Y-45616666D02*
X53926069Y-45711904D01*
X53926069Y-45711904D02*
X53973688Y-45807142D01*
X53973688Y-45807142D02*
X54021307Y-45854761D01*
X54021307Y-45854761D02*
X54116545Y-45902380D01*
X54116545Y-45902380D02*
X54307021Y-45949999D01*
X54307021Y-45949999D02*
X54545116Y-45949999D01*
X54545116Y-45949999D02*
X54735592Y-45902380D01*
X54735592Y-45902380D02*
X54830830Y-45854761D01*
X54830830Y-45854761D02*
X54878450Y-45807142D01*
X54878450Y-45807142D02*
X54926069Y-45711904D01*
X54926069Y-45711904D02*
X54926069Y-45616666D01*
X54926069Y-45616666D02*
X54878450Y-45521428D01*
X54878450Y-45521428D02*
X54830830Y-45473809D01*
X54830830Y-45473809D02*
X54735592Y-45426190D01*
X54735592Y-45426190D02*
X54545116Y-45378571D01*
X54545116Y-45378571D02*
X54307021Y-45378571D01*
X54307021Y-45378571D02*
X54116545Y-45426190D01*
X54116545Y-45426190D02*
X54021307Y-45473809D01*
X54021307Y-45473809D02*
X53973688Y-45521428D01*
X53973688Y-45521428D02*
X53926069Y-45616666D01*
X55246069Y-40378095D02*
X54246069Y-40378095D01*
X55246069Y-40949523D02*
X54674640Y-40520952D01*
X54246069Y-40949523D02*
X54817497Y-40378095D01*
X54926069Y-62047619D02*
X53926069Y-62047619D01*
X53926069Y-62047619D02*
X53926069Y-62285714D01*
X53926069Y-62285714D02*
X53973688Y-62428571D01*
X53973688Y-62428571D02*
X54068926Y-62523809D01*
X54068926Y-62523809D02*
X54164164Y-62571428D01*
X54164164Y-62571428D02*
X54354640Y-62619047D01*
X54354640Y-62619047D02*
X54497497Y-62619047D01*
X54497497Y-62619047D02*
X54687973Y-62571428D01*
X54687973Y-62571428D02*
X54783211Y-62523809D01*
X54783211Y-62523809D02*
X54878450Y-62428571D01*
X54878450Y-62428571D02*
X54926069Y-62285714D01*
X54926069Y-62285714D02*
X54926069Y-62047619D01*
X54926069Y-63571428D02*
X54926069Y-63000000D01*
X54926069Y-63285714D02*
X53926069Y-63285714D01*
X53926069Y-63285714D02*
X54068926Y-63190476D01*
X54068926Y-63190476D02*
X54164164Y-63095238D01*
X54164164Y-63095238D02*
X54211783Y-63000000D01*
X54878450Y-64047619D02*
X54926069Y-64047619D01*
X54926069Y-64047619D02*
X55021307Y-64000000D01*
X55021307Y-64000000D02*
X55068926Y-63952381D01*
X54926069Y-64999999D02*
X54926069Y-64428571D01*
X54926069Y-64714285D02*
X53926069Y-64714285D01*
X53926069Y-64714285D02*
X54068926Y-64619047D01*
X54068926Y-64619047D02*
X54164164Y-64523809D01*
X54164164Y-64523809D02*
X54211783Y-64428571D01*
X55246069Y-59428095D02*
X54246069Y-59428095D01*
X55246069Y-59999523D02*
X54674640Y-59570952D01*
X54246069Y-59999523D02*
X54817497Y-59428095D01*
X35876069Y-119197619D02*
X34876069Y-119197619D01*
X34876069Y-119197619D02*
X34876069Y-119435714D01*
X34876069Y-119435714D02*
X34923688Y-119578571D01*
X34923688Y-119578571D02*
X35018926Y-119673809D01*
X35018926Y-119673809D02*
X35114164Y-119721428D01*
X35114164Y-119721428D02*
X35304640Y-119769047D01*
X35304640Y-119769047D02*
X35447497Y-119769047D01*
X35447497Y-119769047D02*
X35637973Y-119721428D01*
X35637973Y-119721428D02*
X35733211Y-119673809D01*
X35733211Y-119673809D02*
X35828450Y-119578571D01*
X35828450Y-119578571D02*
X35876069Y-119435714D01*
X35876069Y-119435714D02*
X35876069Y-119197619D01*
X34876069Y-120388095D02*
X34876069Y-120483333D01*
X34876069Y-120483333D02*
X34923688Y-120578571D01*
X34923688Y-120578571D02*
X34971307Y-120626190D01*
X34971307Y-120626190D02*
X35066545Y-120673809D01*
X35066545Y-120673809D02*
X35257021Y-120721428D01*
X35257021Y-120721428D02*
X35495116Y-120721428D01*
X35495116Y-120721428D02*
X35685592Y-120673809D01*
X35685592Y-120673809D02*
X35780830Y-120626190D01*
X35780830Y-120626190D02*
X35828450Y-120578571D01*
X35828450Y-120578571D02*
X35876069Y-120483333D01*
X35876069Y-120483333D02*
X35876069Y-120388095D01*
X35876069Y-120388095D02*
X35828450Y-120292857D01*
X35828450Y-120292857D02*
X35780830Y-120245238D01*
X35780830Y-120245238D02*
X35685592Y-120197619D01*
X35685592Y-120197619D02*
X35495116Y-120150000D01*
X35495116Y-120150000D02*
X35257021Y-120150000D01*
X35257021Y-120150000D02*
X35066545Y-120197619D01*
X35066545Y-120197619D02*
X34971307Y-120245238D01*
X34971307Y-120245238D02*
X34923688Y-120292857D01*
X34923688Y-120292857D02*
X34876069Y-120388095D01*
X35828450Y-121197619D02*
X35876069Y-121197619D01*
X35876069Y-121197619D02*
X35971307Y-121150000D01*
X35971307Y-121150000D02*
X36018926Y-121102381D01*
X35209402Y-122054761D02*
X35876069Y-122054761D01*
X34828450Y-121816666D02*
X35542735Y-121578571D01*
X35542735Y-121578571D02*
X35542735Y-122197618D01*
X36196069Y-116578095D02*
X35196069Y-116578095D01*
X36196069Y-117149523D02*
X35624640Y-116720952D01*
X35196069Y-117149523D02*
X35767497Y-116578095D01*
X54926069Y-100147619D02*
X53926069Y-100147619D01*
X53926069Y-100147619D02*
X53926069Y-100385714D01*
X53926069Y-100385714D02*
X53973688Y-100528571D01*
X53973688Y-100528571D02*
X54068926Y-100623809D01*
X54068926Y-100623809D02*
X54164164Y-100671428D01*
X54164164Y-100671428D02*
X54354640Y-100719047D01*
X54354640Y-100719047D02*
X54497497Y-100719047D01*
X54497497Y-100719047D02*
X54687973Y-100671428D01*
X54687973Y-100671428D02*
X54783211Y-100623809D01*
X54783211Y-100623809D02*
X54878450Y-100528571D01*
X54878450Y-100528571D02*
X54926069Y-100385714D01*
X54926069Y-100385714D02*
X54926069Y-100147619D01*
X54926069Y-101671428D02*
X54926069Y-101100000D01*
X54926069Y-101385714D02*
X53926069Y-101385714D01*
X53926069Y-101385714D02*
X54068926Y-101290476D01*
X54068926Y-101290476D02*
X54164164Y-101195238D01*
X54164164Y-101195238D02*
X54211783Y-101100000D01*
X54878450Y-102147619D02*
X54926069Y-102147619D01*
X54926069Y-102147619D02*
X55021307Y-102100000D01*
X55021307Y-102100000D02*
X55068926Y-102052381D01*
X53926069Y-102480952D02*
X53926069Y-103099999D01*
X53926069Y-103099999D02*
X54307021Y-102766666D01*
X54307021Y-102766666D02*
X54307021Y-102909523D01*
X54307021Y-102909523D02*
X54354640Y-103004761D01*
X54354640Y-103004761D02*
X54402259Y-103052380D01*
X54402259Y-103052380D02*
X54497497Y-103099999D01*
X54497497Y-103099999D02*
X54735592Y-103099999D01*
X54735592Y-103099999D02*
X54830830Y-103052380D01*
X54830830Y-103052380D02*
X54878450Y-103004761D01*
X54878450Y-103004761D02*
X54926069Y-102909523D01*
X54926069Y-102909523D02*
X54926069Y-102623809D01*
X54926069Y-102623809D02*
X54878450Y-102528571D01*
X54878450Y-102528571D02*
X54830830Y-102480952D01*
X55246069Y-97528095D02*
X54246069Y-97528095D01*
X55246069Y-98099523D02*
X54674640Y-97670952D01*
X54246069Y-98099523D02*
X54817497Y-97528095D01*
X35876069Y-81097619D02*
X34876069Y-81097619D01*
X34876069Y-81097619D02*
X34876069Y-81335714D01*
X34876069Y-81335714D02*
X34923688Y-81478571D01*
X34923688Y-81478571D02*
X35018926Y-81573809D01*
X35018926Y-81573809D02*
X35114164Y-81621428D01*
X35114164Y-81621428D02*
X35304640Y-81669047D01*
X35304640Y-81669047D02*
X35447497Y-81669047D01*
X35447497Y-81669047D02*
X35637973Y-81621428D01*
X35637973Y-81621428D02*
X35733211Y-81573809D01*
X35733211Y-81573809D02*
X35828450Y-81478571D01*
X35828450Y-81478571D02*
X35876069Y-81335714D01*
X35876069Y-81335714D02*
X35876069Y-81097619D01*
X34876069Y-82288095D02*
X34876069Y-82383333D01*
X34876069Y-82383333D02*
X34923688Y-82478571D01*
X34923688Y-82478571D02*
X34971307Y-82526190D01*
X34971307Y-82526190D02*
X35066545Y-82573809D01*
X35066545Y-82573809D02*
X35257021Y-82621428D01*
X35257021Y-82621428D02*
X35495116Y-82621428D01*
X35495116Y-82621428D02*
X35685592Y-82573809D01*
X35685592Y-82573809D02*
X35780830Y-82526190D01*
X35780830Y-82526190D02*
X35828450Y-82478571D01*
X35828450Y-82478571D02*
X35876069Y-82383333D01*
X35876069Y-82383333D02*
X35876069Y-82288095D01*
X35876069Y-82288095D02*
X35828450Y-82192857D01*
X35828450Y-82192857D02*
X35780830Y-82145238D01*
X35780830Y-82145238D02*
X35685592Y-82097619D01*
X35685592Y-82097619D02*
X35495116Y-82050000D01*
X35495116Y-82050000D02*
X35257021Y-82050000D01*
X35257021Y-82050000D02*
X35066545Y-82097619D01*
X35066545Y-82097619D02*
X34971307Y-82145238D01*
X34971307Y-82145238D02*
X34923688Y-82192857D01*
X34923688Y-82192857D02*
X34876069Y-82288095D01*
X35828450Y-83097619D02*
X35876069Y-83097619D01*
X35876069Y-83097619D02*
X35971307Y-83050000D01*
X35971307Y-83050000D02*
X36018926Y-83002381D01*
X34971307Y-83478571D02*
X34923688Y-83526190D01*
X34923688Y-83526190D02*
X34876069Y-83621428D01*
X34876069Y-83621428D02*
X34876069Y-83859523D01*
X34876069Y-83859523D02*
X34923688Y-83954761D01*
X34923688Y-83954761D02*
X34971307Y-84002380D01*
X34971307Y-84002380D02*
X35066545Y-84049999D01*
X35066545Y-84049999D02*
X35161783Y-84049999D01*
X35161783Y-84049999D02*
X35304640Y-84002380D01*
X35304640Y-84002380D02*
X35876069Y-83430952D01*
X35876069Y-83430952D02*
X35876069Y-84049999D01*
X36196069Y-78478095D02*
X35196069Y-78478095D01*
X36196069Y-79049523D02*
X35624640Y-78620952D01*
X35196069Y-79049523D02*
X35767497Y-78478095D01*
X35876069Y-62047619D02*
X34876069Y-62047619D01*
X34876069Y-62047619D02*
X34876069Y-62285714D01*
X34876069Y-62285714D02*
X34923688Y-62428571D01*
X34923688Y-62428571D02*
X35018926Y-62523809D01*
X35018926Y-62523809D02*
X35114164Y-62571428D01*
X35114164Y-62571428D02*
X35304640Y-62619047D01*
X35304640Y-62619047D02*
X35447497Y-62619047D01*
X35447497Y-62619047D02*
X35637973Y-62571428D01*
X35637973Y-62571428D02*
X35733211Y-62523809D01*
X35733211Y-62523809D02*
X35828450Y-62428571D01*
X35828450Y-62428571D02*
X35876069Y-62285714D01*
X35876069Y-62285714D02*
X35876069Y-62047619D01*
X34876069Y-63238095D02*
X34876069Y-63333333D01*
X34876069Y-63333333D02*
X34923688Y-63428571D01*
X34923688Y-63428571D02*
X34971307Y-63476190D01*
X34971307Y-63476190D02*
X35066545Y-63523809D01*
X35066545Y-63523809D02*
X35257021Y-63571428D01*
X35257021Y-63571428D02*
X35495116Y-63571428D01*
X35495116Y-63571428D02*
X35685592Y-63523809D01*
X35685592Y-63523809D02*
X35780830Y-63476190D01*
X35780830Y-63476190D02*
X35828450Y-63428571D01*
X35828450Y-63428571D02*
X35876069Y-63333333D01*
X35876069Y-63333333D02*
X35876069Y-63238095D01*
X35876069Y-63238095D02*
X35828450Y-63142857D01*
X35828450Y-63142857D02*
X35780830Y-63095238D01*
X35780830Y-63095238D02*
X35685592Y-63047619D01*
X35685592Y-63047619D02*
X35495116Y-63000000D01*
X35495116Y-63000000D02*
X35257021Y-63000000D01*
X35257021Y-63000000D02*
X35066545Y-63047619D01*
X35066545Y-63047619D02*
X34971307Y-63095238D01*
X34971307Y-63095238D02*
X34923688Y-63142857D01*
X34923688Y-63142857D02*
X34876069Y-63238095D01*
X35828450Y-64047619D02*
X35876069Y-64047619D01*
X35876069Y-64047619D02*
X35971307Y-64000000D01*
X35971307Y-64000000D02*
X36018926Y-63952381D01*
X35876069Y-64999999D02*
X35876069Y-64428571D01*
X35876069Y-64714285D02*
X34876069Y-64714285D01*
X34876069Y-64714285D02*
X35018926Y-64619047D01*
X35018926Y-64619047D02*
X35114164Y-64523809D01*
X35114164Y-64523809D02*
X35161783Y-64428571D01*
X36196069Y-59428095D02*
X35196069Y-59428095D01*
X36196069Y-59999523D02*
X35624640Y-59570952D01*
X35196069Y-59999523D02*
X35767497Y-59428095D01*
X112076069Y-81097619D02*
X111076069Y-81097619D01*
X111076069Y-81097619D02*
X111076069Y-81335714D01*
X111076069Y-81335714D02*
X111123688Y-81478571D01*
X111123688Y-81478571D02*
X111218926Y-81573809D01*
X111218926Y-81573809D02*
X111314164Y-81621428D01*
X111314164Y-81621428D02*
X111504640Y-81669047D01*
X111504640Y-81669047D02*
X111647497Y-81669047D01*
X111647497Y-81669047D02*
X111837973Y-81621428D01*
X111837973Y-81621428D02*
X111933211Y-81573809D01*
X111933211Y-81573809D02*
X112028450Y-81478571D01*
X112028450Y-81478571D02*
X112076069Y-81335714D01*
X112076069Y-81335714D02*
X112076069Y-81097619D01*
X111409402Y-82526190D02*
X112076069Y-82526190D01*
X111028450Y-82288095D02*
X111742735Y-82050000D01*
X111742735Y-82050000D02*
X111742735Y-82669047D01*
X112028450Y-83097619D02*
X112076069Y-83097619D01*
X112076069Y-83097619D02*
X112171307Y-83050000D01*
X112171307Y-83050000D02*
X112218926Y-83002381D01*
X111171307Y-83478571D02*
X111123688Y-83526190D01*
X111123688Y-83526190D02*
X111076069Y-83621428D01*
X111076069Y-83621428D02*
X111076069Y-83859523D01*
X111076069Y-83859523D02*
X111123688Y-83954761D01*
X111123688Y-83954761D02*
X111171307Y-84002380D01*
X111171307Y-84002380D02*
X111266545Y-84049999D01*
X111266545Y-84049999D02*
X111361783Y-84049999D01*
X111361783Y-84049999D02*
X111504640Y-84002380D01*
X111504640Y-84002380D02*
X112076069Y-83430952D01*
X112076069Y-83430952D02*
X112076069Y-84049999D01*
X112396069Y-78478095D02*
X111396069Y-78478095D01*
X112396069Y-79049523D02*
X111824640Y-78620952D01*
X111396069Y-79049523D02*
X111967497Y-78478095D01*
X131126069Y-62047619D02*
X130126069Y-62047619D01*
X130126069Y-62047619D02*
X130126069Y-62285714D01*
X130126069Y-62285714D02*
X130173688Y-62428571D01*
X130173688Y-62428571D02*
X130268926Y-62523809D01*
X130268926Y-62523809D02*
X130364164Y-62571428D01*
X130364164Y-62571428D02*
X130554640Y-62619047D01*
X130554640Y-62619047D02*
X130697497Y-62619047D01*
X130697497Y-62619047D02*
X130887973Y-62571428D01*
X130887973Y-62571428D02*
X130983211Y-62523809D01*
X130983211Y-62523809D02*
X131078450Y-62428571D01*
X131078450Y-62428571D02*
X131126069Y-62285714D01*
X131126069Y-62285714D02*
X131126069Y-62047619D01*
X130126069Y-63523809D02*
X130126069Y-63047619D01*
X130126069Y-63047619D02*
X130602259Y-63000000D01*
X130602259Y-63000000D02*
X130554640Y-63047619D01*
X130554640Y-63047619D02*
X130507021Y-63142857D01*
X130507021Y-63142857D02*
X130507021Y-63380952D01*
X130507021Y-63380952D02*
X130554640Y-63476190D01*
X130554640Y-63476190D02*
X130602259Y-63523809D01*
X130602259Y-63523809D02*
X130697497Y-63571428D01*
X130697497Y-63571428D02*
X130935592Y-63571428D01*
X130935592Y-63571428D02*
X131030830Y-63523809D01*
X131030830Y-63523809D02*
X131078450Y-63476190D01*
X131078450Y-63476190D02*
X131126069Y-63380952D01*
X131126069Y-63380952D02*
X131126069Y-63142857D01*
X131126069Y-63142857D02*
X131078450Y-63047619D01*
X131078450Y-63047619D02*
X131030830Y-63000000D01*
X131078450Y-64047619D02*
X131126069Y-64047619D01*
X131126069Y-64047619D02*
X131221307Y-64000000D01*
X131221307Y-64000000D02*
X131268926Y-63952381D01*
X131126069Y-64999999D02*
X131126069Y-64428571D01*
X131126069Y-64714285D02*
X130126069Y-64714285D01*
X130126069Y-64714285D02*
X130268926Y-64619047D01*
X130268926Y-64619047D02*
X130364164Y-64523809D01*
X130364164Y-64523809D02*
X130411783Y-64428571D01*
X131446069Y-59428095D02*
X130446069Y-59428095D01*
X131446069Y-59999523D02*
X130874640Y-59570952D01*
X130446069Y-59999523D02*
X131017497Y-59428095D01*
X87118630Y-48499819D02*
X87118630Y-47499819D01*
X87118630Y-47499819D02*
X86880535Y-47499819D01*
X86880535Y-47499819D02*
X86737678Y-47547438D01*
X86737678Y-47547438D02*
X86642440Y-47642676D01*
X86642440Y-47642676D02*
X86594821Y-47737914D01*
X86594821Y-47737914D02*
X86547202Y-47928390D01*
X86547202Y-47928390D02*
X86547202Y-48071247D01*
X86547202Y-48071247D02*
X86594821Y-48261723D01*
X86594821Y-48261723D02*
X86642440Y-48356961D01*
X86642440Y-48356961D02*
X86737678Y-48452200D01*
X86737678Y-48452200D02*
X86880535Y-48499819D01*
X86880535Y-48499819D02*
X87118630Y-48499819D01*
X86213868Y-47499819D02*
X85594821Y-47499819D01*
X85594821Y-47499819D02*
X85928154Y-47880771D01*
X85928154Y-47880771D02*
X85785297Y-47880771D01*
X85785297Y-47880771D02*
X85690059Y-47928390D01*
X85690059Y-47928390D02*
X85642440Y-47976009D01*
X85642440Y-47976009D02*
X85594821Y-48071247D01*
X85594821Y-48071247D02*
X85594821Y-48309342D01*
X85594821Y-48309342D02*
X85642440Y-48404580D01*
X85642440Y-48404580D02*
X85690059Y-48452200D01*
X85690059Y-48452200D02*
X85785297Y-48499819D01*
X85785297Y-48499819D02*
X86071011Y-48499819D01*
X86071011Y-48499819D02*
X86166249Y-48452200D01*
X86166249Y-48452200D02*
X86213868Y-48404580D01*
X85118630Y-48452200D02*
X85118630Y-48499819D01*
X85118630Y-48499819D02*
X85166249Y-48595057D01*
X85166249Y-48595057D02*
X85213868Y-48642676D01*
X84499583Y-47499819D02*
X84404345Y-47499819D01*
X84404345Y-47499819D02*
X84309107Y-47547438D01*
X84309107Y-47547438D02*
X84261488Y-47595057D01*
X84261488Y-47595057D02*
X84213869Y-47690295D01*
X84213869Y-47690295D02*
X84166250Y-47880771D01*
X84166250Y-47880771D02*
X84166250Y-48118866D01*
X84166250Y-48118866D02*
X84213869Y-48309342D01*
X84213869Y-48309342D02*
X84261488Y-48404580D01*
X84261488Y-48404580D02*
X84309107Y-48452200D01*
X84309107Y-48452200D02*
X84404345Y-48499819D01*
X84404345Y-48499819D02*
X84499583Y-48499819D01*
X84499583Y-48499819D02*
X84594821Y-48452200D01*
X84594821Y-48452200D02*
X84642440Y-48404580D01*
X84642440Y-48404580D02*
X84690059Y-48309342D01*
X84690059Y-48309342D02*
X84737678Y-48118866D01*
X84737678Y-48118866D02*
X84737678Y-47880771D01*
X84737678Y-47880771D02*
X84690059Y-47690295D01*
X84690059Y-47690295D02*
X84642440Y-47595057D01*
X84642440Y-47595057D02*
X84594821Y-47547438D01*
X84594821Y-47547438D02*
X84499583Y-47499819D01*
X89738154Y-48819819D02*
X89738154Y-47819819D01*
X89166726Y-48819819D02*
X89595297Y-48248390D01*
X89166726Y-47819819D02*
X89738154Y-48391247D01*
D11*
G04 #@! TO.C,S1\u002C3*
X60135000Y-90890000D02*
X65235000Y-90890000D01*
X64035000Y-95090000D02*
X69135000Y-95090000D01*
X60135000Y-90890000D02*
G75*
G03*
X58135000Y-92890000I-1J-1999999D01*
G01*
X64035000Y-95090000D02*
G75*
G03*
X62035000Y-97090000I-1J-1999999D01*
G01*
G04 #@! TO.C,S1\u002C4*
X60135000Y-109940000D02*
X65235000Y-109940000D01*
X64035000Y-114140000D02*
X69135000Y-114140000D01*
X60135000Y-109940000D02*
G75*
G03*
X58135000Y-111940000I-1J-1999999D01*
G01*
X64035000Y-114140000D02*
G75*
G03*
X62035000Y-116140000I-1J-1999999D01*
G01*
G04 #@! TO.C,S1\u002C0*
X60135000Y-33740000D02*
X65235000Y-33740000D01*
X64035000Y-37940000D02*
X69135000Y-37940000D01*
X60135000Y-33740000D02*
G75*
G03*
X58135000Y-35740000I-1J-1999999D01*
G01*
X64035000Y-37940000D02*
G75*
G03*
X62035000Y-39940000I-1J-1999999D01*
G01*
G04 #@! TO.C,S3\u002C0*
X98235000Y-33740000D02*
X103335000Y-33740000D01*
X102135000Y-37940000D02*
X107235000Y-37940000D01*
X98235000Y-33740000D02*
G75*
G03*
X96235000Y-35740000I-1J-1999999D01*
G01*
X102135000Y-37940000D02*
G75*
G03*
X100135000Y-39940000I-1J-1999999D01*
G01*
G04 #@! TO.C,S2\u002C4*
X79185000Y-109940000D02*
X84285000Y-109940000D01*
X83085000Y-114140000D02*
X88185000Y-114140000D01*
X79185000Y-109940000D02*
G75*
G03*
X77185000Y-111940000I-1J-1999999D01*
G01*
X83085000Y-114140000D02*
G75*
G03*
X81085000Y-116140000I-1J-1999999D01*
G01*
G04 #@! TO.C,S0\u002C1*
X41085000Y-52790000D02*
X46185000Y-52790000D01*
X44985000Y-56990000D02*
X50085000Y-56990000D01*
X41085000Y-52790000D02*
G75*
G03*
X39085000Y-54790000I-1J-1999999D01*
G01*
X44985000Y-56990000D02*
G75*
G03*
X42985000Y-58990000I-1J-1999999D01*
G01*
G04 #@! TO.C,S2\u002C2*
X79185000Y-71840000D02*
X84285000Y-71840000D01*
X83085000Y-76040000D02*
X88185000Y-76040000D01*
X79185000Y-71840000D02*
G75*
G03*
X77185000Y-73840000I-1J-1999999D01*
G01*
X83085000Y-76040000D02*
G75*
G03*
X81085000Y-78040000I-1J-1999999D01*
G01*
G04 #@! TO.C,S4\u002C1*
X117285000Y-52790000D02*
X122385000Y-52790000D01*
X121185000Y-56990000D02*
X126285000Y-56990000D01*
X117285000Y-52790000D02*
G75*
G03*
X115285000Y-54790000I-1J-1999999D01*
G01*
X121185000Y-56990000D02*
G75*
G03*
X119185000Y-58990000I-1J-1999999D01*
G01*
G04 #@! TO.C,S0\u002C4*
X41085000Y-109940000D02*
X46185000Y-109940000D01*
X44985000Y-114140000D02*
X50085000Y-114140000D01*
X41085000Y-109940000D02*
G75*
G03*
X39085000Y-111940000I-1J-1999999D01*
G01*
X44985000Y-114140000D02*
G75*
G03*
X42985000Y-116140000I-1J-1999999D01*
G01*
G04 #@! TO.C,S3\u002C1*
X98235000Y-52790000D02*
X103335000Y-52790000D01*
X102135000Y-56990000D02*
X107235000Y-56990000D01*
X98235000Y-52790000D02*
G75*
G03*
X96235000Y-54790000I-1J-1999999D01*
G01*
X102135000Y-56990000D02*
G75*
G03*
X100135000Y-58990000I-1J-1999999D01*
G01*
G04 #@! TO.C,S4\u002C2*
X117285000Y-71840000D02*
X122385000Y-71840000D01*
X121185000Y-76040000D02*
X126285000Y-76040000D01*
X117285000Y-71840000D02*
G75*
G03*
X115285000Y-73840000I-1J-1999999D01*
G01*
X121185000Y-76040000D02*
G75*
G03*
X119185000Y-78040000I-1J-1999999D01*
G01*
G04 #@! TO.C,S2\u002C3*
X79185000Y-90890000D02*
X84285000Y-90890000D01*
X83085000Y-95090000D02*
X88185000Y-95090000D01*
X79185000Y-90890000D02*
G75*
G03*
X77185000Y-92890000I-1J-1999999D01*
G01*
X83085000Y-95090000D02*
G75*
G03*
X81085000Y-97090000I-1J-1999999D01*
G01*
G04 #@! TO.C,S2\u002C1*
X79185000Y-52790000D02*
X84285000Y-52790000D01*
X83085000Y-56990000D02*
X88185000Y-56990000D01*
X79185000Y-52790000D02*
G75*
G03*
X77185000Y-54790000I-1J-1999999D01*
G01*
X83085000Y-56990000D02*
G75*
G03*
X81085000Y-58990000I-1J-1999999D01*
G01*
G04 #@! TO.C,S2\u002C0*
X79185000Y-33740000D02*
X84285000Y-33740000D01*
X83085000Y-37940000D02*
X88185000Y-37940000D01*
X79185000Y-33740000D02*
G75*
G03*
X77185000Y-35740000I-1J-1999999D01*
G01*
X83085000Y-37940000D02*
G75*
G03*
X81085000Y-39940000I-1J-1999999D01*
G01*
G04 #@! TO.C,S3\u002C4*
X98235000Y-109940000D02*
X103335000Y-109940000D01*
X102135000Y-114140000D02*
X107235000Y-114140000D01*
X98235000Y-109940000D02*
G75*
G03*
X96235000Y-111940000I-1J-1999999D01*
G01*
X102135000Y-114140000D02*
G75*
G03*
X100135000Y-116140000I-1J-1999999D01*
G01*
G04 #@! TO.C,S5\u002C0*
X136335000Y-33740000D02*
X141435000Y-33740000D01*
X140235000Y-37940000D02*
X145335000Y-37940000D01*
X136335000Y-33740000D02*
G75*
G03*
X134335000Y-35740000I-1J-1999999D01*
G01*
X140235000Y-37940000D02*
G75*
G03*
X138235000Y-39940000I-1J-1999999D01*
G01*
G04 #@! TO.C,S5\u002C2*
X136335000Y-71840000D02*
X141435000Y-71840000D01*
X140235000Y-76040000D02*
X145335000Y-76040000D01*
X136335000Y-71840000D02*
G75*
G03*
X134335000Y-73840000I-1J-1999999D01*
G01*
X140235000Y-76040000D02*
G75*
G03*
X138235000Y-78040000I-1J-1999999D01*
G01*
G04 #@! TO.C,S0\u002C0*
X41085000Y-33740000D02*
X46185000Y-33740000D01*
X44985000Y-37940000D02*
X50085000Y-37940000D01*
X41085000Y-33740000D02*
G75*
G03*
X39085000Y-35740000I-1J-1999999D01*
G01*
X44985000Y-37940000D02*
G75*
G03*
X42985000Y-39940000I-1J-1999999D01*
G01*
G04 #@! TO.C,S4\u002C0*
X117285000Y-33740000D02*
X122385000Y-33740000D01*
X121185000Y-37940000D02*
X126285000Y-37940000D01*
X117285000Y-33740000D02*
G75*
G03*
X115285000Y-35740000I-1J-1999999D01*
G01*
X121185000Y-37940000D02*
G75*
G03*
X119185000Y-39940000I-1J-1999999D01*
G01*
G04 #@! TO.C,S1\u002C2*
X60135000Y-71840000D02*
X65235000Y-71840000D01*
X64035000Y-76040000D02*
X69135000Y-76040000D01*
X60135000Y-71840000D02*
G75*
G03*
X58135000Y-73840000I-1J-1999999D01*
G01*
X64035000Y-76040000D02*
G75*
G03*
X62035000Y-78040000I-1J-1999999D01*
G01*
D12*
G04 #@! TO.C,U2*
X93445000Y-27622500D02*
X93445000Y-60642500D01*
X93445000Y-60642500D02*
X111225000Y-60642500D01*
X111225000Y-27622500D02*
X93445000Y-27622500D01*
X111225000Y-60642500D02*
X111225000Y-27622500D01*
D11*
G04 #@! TO.C,S5\u002C3*
X136335000Y-90890000D02*
X141435000Y-90890000D01*
X140235000Y-95090000D02*
X145335000Y-95090000D01*
X136335000Y-90890000D02*
G75*
G03*
X134335000Y-92890000I-1J-1999999D01*
G01*
X140235000Y-95090000D02*
G75*
G03*
X138235000Y-97090000I-1J-1999999D01*
G01*
G04 #@! TO.C,S3\u002C3*
X98235000Y-90890000D02*
X103335000Y-90890000D01*
X102135000Y-95090000D02*
X107235000Y-95090000D01*
X98235000Y-90890000D02*
G75*
G03*
X96235000Y-92890000I-1J-1999999D01*
G01*
X102135000Y-95090000D02*
G75*
G03*
X100135000Y-97090000I-1J-1999999D01*
G01*
G04 #@! TO.C,S0\u002C2*
X41085000Y-71840000D02*
X46185000Y-71840000D01*
X44985000Y-76040000D02*
X50085000Y-76040000D01*
X41085000Y-71840000D02*
G75*
G03*
X39085000Y-73840000I-1J-1999999D01*
G01*
X44985000Y-76040000D02*
G75*
G03*
X42985000Y-78040000I-1J-1999999D01*
G01*
G04 #@! TO.C,S3\u002C2*
X98235000Y-71840000D02*
X103335000Y-71840000D01*
X102135000Y-76040000D02*
X107235000Y-76040000D01*
X98235000Y-71840000D02*
G75*
G03*
X96235000Y-73840000I-1J-1999999D01*
G01*
X102135000Y-76040000D02*
G75*
G03*
X100135000Y-78040000I-1J-1999999D01*
G01*
G04 #@! TO.C,S5\u002C1*
X136335000Y-52790000D02*
X141435000Y-52790000D01*
X140235000Y-56990000D02*
X145335000Y-56990000D01*
X136335000Y-52790000D02*
G75*
G03*
X134335000Y-54790000I-1J-1999999D01*
G01*
X140235000Y-56990000D02*
G75*
G03*
X138235000Y-58990000I-1J-1999999D01*
G01*
G04 #@! TO.C,S4\u002C3*
X117285000Y-90890000D02*
X122385000Y-90890000D01*
X121185000Y-95090000D02*
X126285000Y-95090000D01*
X117285000Y-90890000D02*
G75*
G03*
X115285000Y-92890000I-1J-1999999D01*
G01*
X121185000Y-95090000D02*
G75*
G03*
X119185000Y-97090000I-1J-1999999D01*
G01*
G04 #@! TO.C,S1\u002C1*
X60135000Y-52790000D02*
X65235000Y-52790000D01*
X64035000Y-56990000D02*
X69135000Y-56990000D01*
X60135000Y-52790000D02*
G75*
G03*
X58135000Y-54790000I-1J-1999999D01*
G01*
X64035000Y-56990000D02*
G75*
G03*
X62035000Y-58990000I-1J-1999999D01*
G01*
G04 #@! TO.C,S0\u002C3*
X41085000Y-90890000D02*
X46185000Y-90890000D01*
X44985000Y-95090000D02*
X50085000Y-95090000D01*
X41085000Y-90890000D02*
G75*
G03*
X39085000Y-92890000I-1J-1999999D01*
G01*
X44985000Y-95090000D02*
G75*
G03*
X42985000Y-97090000I-1J-1999999D01*
G01*
G04 #@! TO.C,S5\u002C4*
X136335000Y-109940000D02*
X141435000Y-109940000D01*
X140235000Y-114140000D02*
X145335000Y-114140000D01*
X136335000Y-109940000D02*
G75*
G03*
X134335000Y-111940000I-1J-1999999D01*
G01*
X140235000Y-114140000D02*
G75*
G03*
X138235000Y-116140000I-1J-1999999D01*
G01*
G04 #@! TO.C,S4\u002C4*
X117285000Y-109940000D02*
X122385000Y-109940000D01*
X121185000Y-114140000D02*
X126285000Y-114140000D01*
X117285000Y-109940000D02*
G75*
G03*
X115285000Y-111940000I-1J-1999999D01*
G01*
X121185000Y-114140000D02*
G75*
G03*
X119185000Y-116140000I-1J-1999999D01*
G01*
G04 #@! TO.C,D0\u002C0*
X37541250Y-41680000D02*
X37541250Y-42330000D01*
X38661250Y-42330000D02*
X38661250Y-46570000D01*
X36421250Y-42330000D02*
X38661250Y-42330000D01*
X36421250Y-42930000D02*
X38661250Y-42930000D01*
X36421250Y-43050000D02*
X38661250Y-43050000D01*
X36421250Y-43170000D02*
X38661250Y-43170000D01*
X38661250Y-46570000D02*
X36421250Y-46570000D01*
X36421250Y-46570000D02*
X36421250Y-42330000D01*
X37541250Y-47220000D02*
X37541250Y-46570000D01*
G04 #@! TO.C,D2\u002C1*
X75641250Y-60730000D02*
X75641250Y-61380000D01*
X76761250Y-61380000D02*
X76761250Y-65620000D01*
X74521250Y-61380000D02*
X76761250Y-61380000D01*
X74521250Y-61980000D02*
X76761250Y-61980000D01*
X74521250Y-62100000D02*
X76761250Y-62100000D01*
X74521250Y-62220000D02*
X76761250Y-62220000D01*
X76761250Y-65620000D02*
X74521250Y-65620000D01*
X74521250Y-65620000D02*
X74521250Y-61380000D01*
X75641250Y-66270000D02*
X75641250Y-65620000D01*
G04 #@! TO.C,D2\u002C2*
X75641250Y-79780000D02*
X75641250Y-80430000D01*
X76761250Y-80430000D02*
X76761250Y-84670000D01*
X74521250Y-80430000D02*
X76761250Y-80430000D01*
X74521250Y-81030000D02*
X76761250Y-81030000D01*
X74521250Y-81150000D02*
X76761250Y-81150000D01*
X74521250Y-81270000D02*
X76761250Y-81270000D01*
X76761250Y-84670000D02*
X74521250Y-84670000D01*
X74521250Y-84670000D02*
X74521250Y-80430000D01*
X75641250Y-85320000D02*
X75641250Y-84670000D01*
G04 #@! TO.C,D4\u002C1*
X113741250Y-60730000D02*
X113741250Y-61380000D01*
X114861250Y-61380000D02*
X114861250Y-65620000D01*
X112621250Y-61380000D02*
X114861250Y-61380000D01*
X112621250Y-61980000D02*
X114861250Y-61980000D01*
X112621250Y-62100000D02*
X114861250Y-62100000D01*
X112621250Y-62220000D02*
X114861250Y-62220000D01*
X114861250Y-65620000D02*
X112621250Y-65620000D01*
X112621250Y-65620000D02*
X112621250Y-61380000D01*
X113741250Y-66270000D02*
X113741250Y-65620000D01*
G04 #@! TO.C,D5\u002C4*
X132791250Y-117880000D02*
X132791250Y-118530000D01*
X133911250Y-118530000D02*
X133911250Y-122770000D01*
X131671250Y-118530000D02*
X133911250Y-118530000D01*
X131671250Y-119130000D02*
X133911250Y-119130000D01*
X131671250Y-119250000D02*
X133911250Y-119250000D01*
X131671250Y-119370000D02*
X133911250Y-119370000D01*
X133911250Y-122770000D02*
X131671250Y-122770000D01*
X131671250Y-122770000D02*
X131671250Y-118530000D01*
X132791250Y-123420000D02*
X132791250Y-122770000D01*
G04 #@! TO.C,D3\u002C1*
X88436250Y-69215000D02*
X87786250Y-69215000D01*
X87786250Y-70335000D02*
X83546250Y-70335000D01*
X87786250Y-68095000D02*
X87786250Y-70335000D01*
X87186250Y-68095000D02*
X87186250Y-70335000D01*
X87066250Y-68095000D02*
X87066250Y-70335000D01*
X86946250Y-68095000D02*
X86946250Y-70335000D01*
X83546250Y-70335000D02*
X83546250Y-68095000D01*
X83546250Y-68095000D02*
X87786250Y-68095000D01*
X82896250Y-69215000D02*
X83546250Y-69215000D01*
G04 #@! TO.C,D4\u002C0*
X113741250Y-41680000D02*
X113741250Y-42330000D01*
X114861250Y-42330000D02*
X114861250Y-46570000D01*
X112621250Y-42330000D02*
X114861250Y-42330000D01*
X112621250Y-42930000D02*
X114861250Y-42930000D01*
X112621250Y-43050000D02*
X114861250Y-43050000D01*
X112621250Y-43170000D02*
X114861250Y-43170000D01*
X114861250Y-46570000D02*
X112621250Y-46570000D01*
X112621250Y-46570000D02*
X112621250Y-42330000D01*
X113741250Y-47220000D02*
X113741250Y-46570000D01*
G04 #@! TO.C,D5\u002C3*
X132791250Y-98830000D02*
X132791250Y-99480000D01*
X133911250Y-99480000D02*
X133911250Y-103720000D01*
X131671250Y-99480000D02*
X133911250Y-99480000D01*
X131671250Y-100080000D02*
X133911250Y-100080000D01*
X131671250Y-100200000D02*
X133911250Y-100200000D01*
X131671250Y-100320000D02*
X133911250Y-100320000D01*
X133911250Y-103720000D02*
X131671250Y-103720000D01*
X131671250Y-103720000D02*
X131671250Y-99480000D01*
X132791250Y-104370000D02*
X132791250Y-103720000D01*
G04 #@! TO.C,D0\u002C3*
X37541250Y-98830000D02*
X37541250Y-99480000D01*
X38661250Y-99480000D02*
X38661250Y-103720000D01*
X36421250Y-99480000D02*
X38661250Y-99480000D01*
X36421250Y-100080000D02*
X38661250Y-100080000D01*
X36421250Y-100200000D02*
X38661250Y-100200000D01*
X36421250Y-100320000D02*
X38661250Y-100320000D01*
X38661250Y-103720000D02*
X36421250Y-103720000D01*
X36421250Y-103720000D02*
X36421250Y-99480000D01*
X37541250Y-104370000D02*
X37541250Y-103720000D01*
G04 #@! TO.C,D5\u002C2*
X132791250Y-79780000D02*
X132791250Y-80430000D01*
X133911250Y-80430000D02*
X133911250Y-84670000D01*
X131671250Y-80430000D02*
X133911250Y-80430000D01*
X131671250Y-81030000D02*
X133911250Y-81030000D01*
X131671250Y-81150000D02*
X133911250Y-81150000D01*
X131671250Y-81270000D02*
X133911250Y-81270000D01*
X133911250Y-84670000D02*
X131671250Y-84670000D01*
X131671250Y-84670000D02*
X131671250Y-80430000D01*
X132791250Y-85320000D02*
X132791250Y-84670000D01*
G04 #@! TO.C,D5\u002C0*
X132791250Y-41680000D02*
X132791250Y-42330000D01*
X133911250Y-42330000D02*
X133911250Y-46570000D01*
X131671250Y-42330000D02*
X133911250Y-42330000D01*
X131671250Y-42930000D02*
X133911250Y-42930000D01*
X131671250Y-43050000D02*
X133911250Y-43050000D01*
X131671250Y-43170000D02*
X133911250Y-43170000D01*
X133911250Y-46570000D02*
X131671250Y-46570000D01*
X131671250Y-46570000D02*
X131671250Y-42330000D01*
X132791250Y-47220000D02*
X132791250Y-46570000D01*
G04 #@! TO.C,D4\u002C4*
X113741250Y-117880000D02*
X113741250Y-118530000D01*
X114861250Y-118530000D02*
X114861250Y-122770000D01*
X112621250Y-118530000D02*
X114861250Y-118530000D01*
X112621250Y-119130000D02*
X114861250Y-119130000D01*
X112621250Y-119250000D02*
X114861250Y-119250000D01*
X112621250Y-119370000D02*
X114861250Y-119370000D01*
X114861250Y-122770000D02*
X112621250Y-122770000D01*
X112621250Y-122770000D02*
X112621250Y-118530000D01*
X113741250Y-123420000D02*
X113741250Y-122770000D01*
G04 #@! TO.C,D2\u002C4*
X75641250Y-117880000D02*
X75641250Y-118530000D01*
X76761250Y-118530000D02*
X76761250Y-122770000D01*
X74521250Y-118530000D02*
X76761250Y-118530000D01*
X74521250Y-119130000D02*
X76761250Y-119130000D01*
X74521250Y-119250000D02*
X76761250Y-119250000D01*
X74521250Y-119370000D02*
X76761250Y-119370000D01*
X76761250Y-122770000D02*
X74521250Y-122770000D01*
X74521250Y-122770000D02*
X74521250Y-118530000D01*
X75641250Y-123420000D02*
X75641250Y-122770000D01*
G04 #@! TO.C,D1\u002C4*
X56591250Y-117880000D02*
X56591250Y-118530000D01*
X57711250Y-118530000D02*
X57711250Y-122770000D01*
X55471250Y-118530000D02*
X57711250Y-118530000D01*
X55471250Y-119130000D02*
X57711250Y-119130000D01*
X55471250Y-119250000D02*
X57711250Y-119250000D01*
X55471250Y-119370000D02*
X57711250Y-119370000D01*
X57711250Y-122770000D02*
X55471250Y-122770000D01*
X55471250Y-122770000D02*
X55471250Y-118530000D01*
X56591250Y-123420000D02*
X56591250Y-122770000D01*
G04 #@! TO.C,D1\u002C2*
X56591250Y-79780000D02*
X56591250Y-80430000D01*
X57711250Y-80430000D02*
X57711250Y-84670000D01*
X55471250Y-80430000D02*
X57711250Y-80430000D01*
X55471250Y-81030000D02*
X57711250Y-81030000D01*
X55471250Y-81150000D02*
X57711250Y-81150000D01*
X55471250Y-81270000D02*
X57711250Y-81270000D01*
X57711250Y-84670000D02*
X55471250Y-84670000D01*
X55471250Y-84670000D02*
X55471250Y-80430000D01*
X56591250Y-85320000D02*
X56591250Y-84670000D01*
G04 #@! TO.C,D3\u002C4*
X94691250Y-117880000D02*
X94691250Y-118530000D01*
X95811250Y-118530000D02*
X95811250Y-122770000D01*
X93571250Y-118530000D02*
X95811250Y-118530000D01*
X93571250Y-119130000D02*
X95811250Y-119130000D01*
X93571250Y-119250000D02*
X95811250Y-119250000D01*
X93571250Y-119370000D02*
X95811250Y-119370000D01*
X95811250Y-122770000D02*
X93571250Y-122770000D01*
X93571250Y-122770000D02*
X93571250Y-118530000D01*
X94691250Y-123420000D02*
X94691250Y-122770000D01*
G04 #@! TO.C,D3\u002C2*
X94691250Y-79780000D02*
X94691250Y-80430000D01*
X95811250Y-80430000D02*
X95811250Y-84670000D01*
X93571250Y-80430000D02*
X95811250Y-80430000D01*
X93571250Y-81030000D02*
X95811250Y-81030000D01*
X93571250Y-81150000D02*
X95811250Y-81150000D01*
X93571250Y-81270000D02*
X95811250Y-81270000D01*
X95811250Y-84670000D02*
X93571250Y-84670000D01*
X93571250Y-84670000D02*
X93571250Y-80430000D01*
X94691250Y-85320000D02*
X94691250Y-84670000D01*
G04 #@! TO.C,D4\u002C3*
X113741250Y-98830000D02*
X113741250Y-99480000D01*
X114861250Y-99480000D02*
X114861250Y-103720000D01*
X112621250Y-99480000D02*
X114861250Y-99480000D01*
X112621250Y-100080000D02*
X114861250Y-100080000D01*
X112621250Y-100200000D02*
X114861250Y-100200000D01*
X112621250Y-100320000D02*
X114861250Y-100320000D01*
X114861250Y-103720000D02*
X112621250Y-103720000D01*
X112621250Y-103720000D02*
X112621250Y-99480000D01*
X113741250Y-104370000D02*
X113741250Y-103720000D01*
G04 #@! TO.C,D2\u002C0*
X75641250Y-41680000D02*
X75641250Y-42330000D01*
X76761250Y-42330000D02*
X76761250Y-46570000D01*
X74521250Y-42330000D02*
X76761250Y-42330000D01*
X74521250Y-42930000D02*
X76761250Y-42930000D01*
X74521250Y-43050000D02*
X76761250Y-43050000D01*
X74521250Y-43170000D02*
X76761250Y-43170000D01*
X76761250Y-46570000D02*
X74521250Y-46570000D01*
X74521250Y-46570000D02*
X74521250Y-42330000D01*
X75641250Y-47220000D02*
X75641250Y-46570000D01*
G04 #@! TO.C,D3\u002C3*
X94691250Y-98830000D02*
X94691250Y-99480000D01*
X95811250Y-99480000D02*
X95811250Y-103720000D01*
X93571250Y-99480000D02*
X95811250Y-99480000D01*
X93571250Y-100080000D02*
X95811250Y-100080000D01*
X93571250Y-100200000D02*
X95811250Y-100200000D01*
X93571250Y-100320000D02*
X95811250Y-100320000D01*
X95811250Y-103720000D02*
X93571250Y-103720000D01*
X93571250Y-103720000D02*
X93571250Y-99480000D01*
X94691250Y-104370000D02*
X94691250Y-103720000D01*
G04 #@! TO.C,D2\u002C3*
X75641250Y-98830000D02*
X75641250Y-99480000D01*
X76761250Y-99480000D02*
X76761250Y-103720000D01*
X74521250Y-99480000D02*
X76761250Y-99480000D01*
X74521250Y-100080000D02*
X76761250Y-100080000D01*
X74521250Y-100200000D02*
X76761250Y-100200000D01*
X74521250Y-100320000D02*
X76761250Y-100320000D01*
X76761250Y-103720000D02*
X74521250Y-103720000D01*
X74521250Y-103720000D02*
X74521250Y-99480000D01*
X75641250Y-104370000D02*
X75641250Y-103720000D01*
G04 #@! TO.C,D1\u002C0*
X56591250Y-41680000D02*
X56591250Y-42330000D01*
X57711250Y-42330000D02*
X57711250Y-46570000D01*
X55471250Y-42330000D02*
X57711250Y-42330000D01*
X55471250Y-42930000D02*
X57711250Y-42930000D01*
X55471250Y-43050000D02*
X57711250Y-43050000D01*
X55471250Y-43170000D02*
X57711250Y-43170000D01*
X57711250Y-46570000D02*
X55471250Y-46570000D01*
X55471250Y-46570000D02*
X55471250Y-42330000D01*
X56591250Y-47220000D02*
X56591250Y-46570000D01*
G04 #@! TO.C,D1\u002C1*
X56591250Y-60730000D02*
X56591250Y-61380000D01*
X57711250Y-61380000D02*
X57711250Y-65620000D01*
X55471250Y-61380000D02*
X57711250Y-61380000D01*
X55471250Y-61980000D02*
X57711250Y-61980000D01*
X55471250Y-62100000D02*
X57711250Y-62100000D01*
X55471250Y-62220000D02*
X57711250Y-62220000D01*
X57711250Y-65620000D02*
X55471250Y-65620000D01*
X55471250Y-65620000D02*
X55471250Y-61380000D01*
X56591250Y-66270000D02*
X56591250Y-65620000D01*
G04 #@! TO.C,D0\u002C4*
X37541250Y-117880000D02*
X37541250Y-118530000D01*
X38661250Y-118530000D02*
X38661250Y-122770000D01*
X36421250Y-118530000D02*
X38661250Y-118530000D01*
X36421250Y-119130000D02*
X38661250Y-119130000D01*
X36421250Y-119250000D02*
X38661250Y-119250000D01*
X36421250Y-119370000D02*
X38661250Y-119370000D01*
X38661250Y-122770000D02*
X36421250Y-122770000D01*
X36421250Y-122770000D02*
X36421250Y-118530000D01*
X37541250Y-123420000D02*
X37541250Y-122770000D01*
G04 #@! TO.C,D1\u002C3*
X56591250Y-98830000D02*
X56591250Y-99480000D01*
X57711250Y-99480000D02*
X57711250Y-103720000D01*
X55471250Y-99480000D02*
X57711250Y-99480000D01*
X55471250Y-100080000D02*
X57711250Y-100080000D01*
X55471250Y-100200000D02*
X57711250Y-100200000D01*
X55471250Y-100320000D02*
X57711250Y-100320000D01*
X57711250Y-103720000D02*
X55471250Y-103720000D01*
X55471250Y-103720000D02*
X55471250Y-99480000D01*
X56591250Y-104370000D02*
X56591250Y-103720000D01*
G04 #@! TO.C,D0\u002C2*
X37541250Y-79780000D02*
X37541250Y-80430000D01*
X38661250Y-80430000D02*
X38661250Y-84670000D01*
X36421250Y-80430000D02*
X38661250Y-80430000D01*
X36421250Y-81030000D02*
X38661250Y-81030000D01*
X36421250Y-81150000D02*
X38661250Y-81150000D01*
X36421250Y-81270000D02*
X38661250Y-81270000D01*
X38661250Y-84670000D02*
X36421250Y-84670000D01*
X36421250Y-84670000D02*
X36421250Y-80430000D01*
X37541250Y-85320000D02*
X37541250Y-84670000D01*
G04 #@! TO.C,D0\u002C1*
X37541250Y-60730000D02*
X37541250Y-61380000D01*
X38661250Y-61380000D02*
X38661250Y-65620000D01*
X36421250Y-61380000D02*
X38661250Y-61380000D01*
X36421250Y-61980000D02*
X38661250Y-61980000D01*
X36421250Y-62100000D02*
X38661250Y-62100000D01*
X36421250Y-62220000D02*
X38661250Y-62220000D01*
X38661250Y-65620000D02*
X36421250Y-65620000D01*
X36421250Y-65620000D02*
X36421250Y-61380000D01*
X37541250Y-66270000D02*
X37541250Y-65620000D01*
G04 #@! TO.C,D4\u002C2*
X113741250Y-79780000D02*
X113741250Y-80430000D01*
X114861250Y-80430000D02*
X114861250Y-84670000D01*
X112621250Y-80430000D02*
X114861250Y-80430000D01*
X112621250Y-81030000D02*
X114861250Y-81030000D01*
X112621250Y-81150000D02*
X114861250Y-81150000D01*
X112621250Y-81270000D02*
X114861250Y-81270000D01*
X114861250Y-84670000D02*
X112621250Y-84670000D01*
X112621250Y-84670000D02*
X112621250Y-80430000D01*
X113741250Y-85320000D02*
X113741250Y-84670000D01*
G04 #@! TO.C,D5\u002C1*
X132791250Y-60730000D02*
X132791250Y-61380000D01*
X133911250Y-61380000D02*
X133911250Y-65620000D01*
X131671250Y-61380000D02*
X133911250Y-61380000D01*
X131671250Y-61980000D02*
X133911250Y-61980000D01*
X131671250Y-62100000D02*
X133911250Y-62100000D01*
X131671250Y-62220000D02*
X133911250Y-62220000D01*
X133911250Y-65620000D02*
X131671250Y-65620000D01*
X131671250Y-65620000D02*
X131671250Y-61380000D01*
X132791250Y-66270000D02*
X132791250Y-65620000D01*
G04 #@! TO.C,D3\u002C0*
X88436250Y-50165000D02*
X87786250Y-50165000D01*
X87786250Y-51285000D02*
X83546250Y-51285000D01*
X87786250Y-49045000D02*
X87786250Y-51285000D01*
X87186250Y-49045000D02*
X87186250Y-51285000D01*
X87066250Y-49045000D02*
X87066250Y-51285000D01*
X86946250Y-49045000D02*
X86946250Y-51285000D01*
X83546250Y-51285000D02*
X83546250Y-49045000D01*
X83546250Y-49045000D02*
X87786250Y-49045000D01*
X82896250Y-50165000D02*
X83546250Y-50165000D01*
G04 #@! TD*
D13*
G04 #@! TO.C,U2*
X94715000Y-41592500D03*
X94715000Y-44132500D03*
X94715000Y-46672500D03*
X94715000Y-49212500D03*
X94715000Y-51752500D03*
X94715000Y-54292500D03*
X109955000Y-51752500D03*
X109955000Y-49212500D03*
X109955000Y-46672500D03*
X109955000Y-44132500D03*
X109955000Y-41592500D03*
X109955000Y-39052500D03*
G04 #@! TD*
M02*
