M48
INCH,TZ
T1C0.0689
T2C0.1201
T3C0.1575
%
G90
G05
T1
X15789Y-16000
X15789Y-23500
X15789Y-31000
X15789Y-38500
X15789Y-46000
X19789Y-16000
X19789Y-23500
X19789Y-31000
X19789Y-38500
X19789Y-46000
X23289Y-16000
X23289Y-23500
X23289Y-31000
X23289Y-38500
X23289Y-46000
X27289Y-16000
X27289Y-23500
X27289Y-31000
X27289Y-38500
X27289Y-46000
X30789Y-16000
X30789Y-23500
X30789Y-31000
X30789Y-38500
X30789Y-46000
X34789Y-16000
X34789Y-23500
X34789Y-31000
X34789Y-38500
X34789Y-46000
X38289Y-16000
X38289Y-23500
X38289Y-31000
X38289Y-38500
X38289Y-46000
X42289Y-16000
X42289Y-23500
X42289Y-31000
X42289Y-38500
X42289Y-46000
X45789Y-16000
X45789Y-23500
X45789Y-31000
X45789Y-38500
X45789Y-46000
X49789Y-16000
X49789Y-23500
X49789Y-31000
X49789Y-38500
X49789Y-46000
X53289Y-16000
X53289Y-23500
X53289Y-31000
X53289Y-38500
X53289Y-46000
X57289Y-16000
X57289Y-23500
X57289Y-31000
X57289Y-38500
X57289Y-46000
T2
X16289Y-15000
X16289Y-22500
X16289Y-30000
X16289Y-37500
X16289Y-45000
X18789Y-14000
X18789Y-21500
X18789Y-29000
X18789Y-36500
X18789Y-44000
X23789Y-15000
X23789Y-22500
X23789Y-30000
X23789Y-37500
X23789Y-45000
X26289Y-14000
X26289Y-21500
X26289Y-29000
X26289Y-36500
X26289Y-44000
X31289Y-15000
X31289Y-22500
X31289Y-30000
X31289Y-37500
X31289Y-45000
X33789Y-14000
X33789Y-21500
X33789Y-29000
X33789Y-36500
X33789Y-44000
X38789Y-15000
X38789Y-22500
X38789Y-30000
X38789Y-37500
X38789Y-45000
X41289Y-14000
X41289Y-21500
X41289Y-29000
X41289Y-36500
X41289Y-44000
X46289Y-15000
X46289Y-22500
X46289Y-30000
X46289Y-37500
X46289Y-45000
X48789Y-14000
X48789Y-21500
X48789Y-29000
X48789Y-36500
X48789Y-44000
X53789Y-15000
X53789Y-22500
X53789Y-30000
X53789Y-37500
X53789Y-45000
X56289Y-14000
X56289Y-21500
X56289Y-29000
X56289Y-36500
X56289Y-44000
T3
X17789Y-16000
X17789Y-23500
X17789Y-31000
X17789Y-38500
X17789Y-46000
X25289Y-16000
X25289Y-23500
X25289Y-31000
X25289Y-38500
X25289Y-46000
X32789Y-16000
X32789Y-23500
X32789Y-31000
X32789Y-38500
X32789Y-46000
X40289Y-16000
X40289Y-23500
X40289Y-31000
X40289Y-38500
X40289Y-46000
X47789Y-16000
X47789Y-23500
X47789Y-31000
X47789Y-38500
X47789Y-46000
X55289Y-16000
X55289Y-23500
X55289Y-31000
X55289Y-38500
X55289Y-46000
M30
